<?xml version="1.0" encoding="utf-8" standalone="no"?>
<!DOCTYPE svg PUBLIC "-//W3C//DTD SVG 1.1//EN"
  "http://www.w3.org/Graphics/SVG/1.1/DTD/svg11.dtd">
<svg height="336.049967pt" version="1.1" viewBox="0 0 587.445 336.049967" width="587.445pt" xmlns="http://www.w3.org/2000/svg" xmlns:xlink="http://www.w3.org/1999/xlink">
 <metadata>
  <rdf:RDF xmlns:cc="http://creativecommons.org/ns#" xmlns:dc="http://purl.org/dc/elements/1.1/" xmlns:rdf="http://www.w3.org/1999/02/22-rdf-syntax-ns#">
   <cc:Work>
    <dc:type rdf:resource="http://purl.org/dc/dcmitype/StillImage"/>
    <dc:date>2021-06-21T23:46:29.574832</dc:date>
    <dc:format>image/svg+xml</dc:format>
    <dc:creator>
     <cc:Agent>
      <dc:title>Matplotlib v3.4.1, https://matplotlib.org/</dc:title>
     </cc:Agent>
    </dc:creator>
   </cc:Work>
  </rdf:RDF>
 </metadata>
 <defs>
  <style type="text/css">*{stroke-linecap:butt;stroke-linejoin:round;}</style>
 </defs>
 <g id="figure_1">
  <g id="patch_1">
   <path d="M 0 336.049967 
L 587.445 336.049967 
L 587.445 0 
L 0 0 
z
" style="fill:#ffffff;"/>
  </g>
  <g id="axes_1">
   <g id="patch_2">
    <path d="M 65.905 270.860625 
L 512.305 270.860625 
L 512.305 53.420625 
L 65.905 53.420625 
z
" style="fill:none;opacity:0;"/>
   </g>
   <g id="patch_3">
    <path clip-path="url(#p8a63197d96)" d="M 80.571119 270.860625 
L 80.571119 64.292625 
L 130.069271 64.292625 
L 130.069271 270.860625 
z
" style="fill:#808080;opacity:0.15;stroke:#808080;stroke-linejoin:miter;"/>
   </g>
   <g id="patch_4">
    <path clip-path="url(#p8a63197d96)" d="M 288.646684 270.860625 
L 288.646684 64.292625 
L 330.811776 64.292625 
L 330.811776 270.860625 
z
" style="fill:#808080;opacity:0.15;stroke:#808080;stroke-linejoin:miter;"/>
   </g>
   <g id="patch_5">
    <path clip-path="url(#p8a63197d96)" d="M 432.557977 270.860625 
L 432.557977 64.292625 
L 457.307053 64.292625 
L 457.307053 270.860625 
z
" style="fill:#808080;opacity:0.15;stroke:#808080;stroke-linejoin:miter;"/>
   </g>
   <g id="matplotlib.axis_1">
    <g id="xtick_1">
     <g id="line2d_1">
      <defs>
       <path d="M 0 0 
L 0 3.5 
" id="md28c9fb398" style="stroke:#000000;stroke-width:0.8;"/>
      </defs>
      <g>
       <use style="stroke:#000000;stroke-width:0.8;" x="65.905" xlink:href="#md28c9fb398" y="270.860625"/>
      </g>
     </g>
     <g id="text_1">
      <!-- mars -->
      <g transform="translate(54.710395 298.726462)rotate(-45)scale(0.09 -0.09)">
       <defs>
        <path d="M 3328 2828 
Q 3544 3216 3844 3400 
Q 4144 3584 4550 3584 
Q 5097 3584 5394 3201 
Q 5691 2819 5691 2113 
L 5691 0 
L 5113 0 
L 5113 2094 
Q 5113 2597 4934 2840 
Q 4756 3084 4391 3084 
Q 3944 3084 3684 2787 
Q 3425 2491 3425 1978 
L 3425 0 
L 2847 0 
L 2847 2094 
Q 2847 2600 2669 2842 
Q 2491 3084 2119 3084 
Q 1678 3084 1418 2786 
Q 1159 2488 1159 1978 
L 1159 0 
L 581 0 
L 581 3500 
L 1159 3500 
L 1159 2956 
Q 1356 3278 1631 3431 
Q 1906 3584 2284 3584 
Q 2666 3584 2933 3390 
Q 3200 3197 3328 2828 
z
" id="DejaVuSans-6d" transform="scale(0.015625)"/>
        <path d="M 2194 1759 
Q 1497 1759 1228 1600 
Q 959 1441 959 1056 
Q 959 750 1161 570 
Q 1363 391 1709 391 
Q 2188 391 2477 730 
Q 2766 1069 2766 1631 
L 2766 1759 
L 2194 1759 
z
M 3341 1997 
L 3341 0 
L 2766 0 
L 2766 531 
Q 2569 213 2275 61 
Q 1981 -91 1556 -91 
Q 1019 -91 701 211 
Q 384 513 384 1019 
Q 384 1609 779 1909 
Q 1175 2209 1959 2209 
L 2766 2209 
L 2766 2266 
Q 2766 2663 2505 2880 
Q 2244 3097 1772 3097 
Q 1472 3097 1187 3025 
Q 903 2953 641 2809 
L 641 3341 
Q 956 3463 1253 3523 
Q 1550 3584 1831 3584 
Q 2591 3584 2966 3190 
Q 3341 2797 3341 1997 
z
" id="DejaVuSans-61" transform="scale(0.015625)"/>
        <path d="M 2631 2963 
Q 2534 3019 2420 3045 
Q 2306 3072 2169 3072 
Q 1681 3072 1420 2755 
Q 1159 2438 1159 1844 
L 1159 0 
L 581 0 
L 581 3500 
L 1159 3500 
L 1159 2956 
Q 1341 3275 1631 3429 
Q 1922 3584 2338 3584 
Q 2397 3584 2469 3576 
Q 2541 3569 2628 3553 
L 2631 2963 
z
" id="DejaVuSans-72" transform="scale(0.015625)"/>
        <path d="M 2834 3397 
L 2834 2853 
Q 2591 2978 2328 3040 
Q 2066 3103 1784 3103 
Q 1356 3103 1142 2972 
Q 928 2841 928 2578 
Q 928 2378 1081 2264 
Q 1234 2150 1697 2047 
L 1894 2003 
Q 2506 1872 2764 1633 
Q 3022 1394 3022 966 
Q 3022 478 2636 193 
Q 2250 -91 1575 -91 
Q 1294 -91 989 -36 
Q 684 19 347 128 
L 347 722 
Q 666 556 975 473 
Q 1284 391 1588 391 
Q 1994 391 2212 530 
Q 2431 669 2431 922 
Q 2431 1156 2273 1281 
Q 2116 1406 1581 1522 
L 1381 1569 
Q 847 1681 609 1914 
Q 372 2147 372 2553 
Q 372 3047 722 3315 
Q 1072 3584 1716 3584 
Q 2034 3584 2315 3537 
Q 2597 3491 2834 3397 
z
" id="DejaVuSans-73" transform="scale(0.015625)"/>
       </defs>
       <use xlink:href="#DejaVuSans-6d"/>
       <use x="97.412109" xlink:href="#DejaVuSans-61"/>
       <use x="158.691406" xlink:href="#DejaVuSans-72"/>
       <use x="199.804688" xlink:href="#DejaVuSans-73"/>
      </g>
     </g>
    </g>
    <g id="xtick_2">
     <g id="line2d_2">
      <g>
       <use style="stroke:#000000;stroke-width:0.8;" x="94.320606" xlink:href="#md28c9fb398" y="270.860625"/>
      </g>
     </g>
     <g id="text_2">
      <!-- avril -->
      <g transform="translate(85.337477 296.514986)rotate(-45)scale(0.09 -0.09)">
       <defs>
        <path d="M 191 3500 
L 800 3500 
L 1894 563 
L 2988 3500 
L 3597 3500 
L 2284 0 
L 1503 0 
L 191 3500 
z
" id="DejaVuSans-76" transform="scale(0.015625)"/>
        <path d="M 603 3500 
L 1178 3500 
L 1178 0 
L 603 0 
L 603 3500 
z
M 603 4863 
L 1178 4863 
L 1178 4134 
L 603 4134 
L 603 4863 
z
" id="DejaVuSans-69" transform="scale(0.015625)"/>
        <path d="M 603 4863 
L 1178 4863 
L 1178 0 
L 603 0 
L 603 4863 
z
" id="DejaVuSans-6c" transform="scale(0.015625)"/>
       </defs>
       <use xlink:href="#DejaVuSans-61"/>
       <use x="61.279297" xlink:href="#DejaVuSans-76"/>
       <use x="120.458984" xlink:href="#DejaVuSans-72"/>
       <use x="161.572266" xlink:href="#DejaVuSans-69"/>
       <use x="189.355469" xlink:href="#DejaVuSans-6c"/>
      </g>
     </g>
    </g>
    <g id="xtick_3">
     <g id="line2d_3">
      <g>
       <use style="stroke:#000000;stroke-width:0.8;" x="121.819579" xlink:href="#md28c9fb398" y="270.860625"/>
      </g>
     </g>
     <g id="text_3">
      <!-- mai -->
      <g transform="translate(114.788396 294.56304)rotate(-45)scale(0.09 -0.09)">
       <use xlink:href="#DejaVuSans-6d"/>
       <use x="97.412109" xlink:href="#DejaVuSans-61"/>
       <use x="158.691406" xlink:href="#DejaVuSans-69"/>
      </g>
     </g>
    </g>
    <g id="xtick_4">
     <g id="line2d_4">
      <g>
       <use style="stroke:#000000;stroke-width:0.8;" x="150.235185" xlink:href="#md28c9fb398" y="270.860625"/>
      </g>
     </g>
     <g id="text_4">
      <!-- juin -->
      <g transform="translate(143.468504 294.298537)rotate(-45)scale(0.09 -0.09)">
       <defs>
        <path d="M 603 3500 
L 1178 3500 
L 1178 -63 
Q 1178 -731 923 -1031 
Q 669 -1331 103 -1331 
L -116 -1331 
L -116 -844 
L 38 -844 
Q 366 -844 484 -692 
Q 603 -541 603 -63 
L 603 3500 
z
M 603 4863 
L 1178 4863 
L 1178 4134 
L 603 4134 
L 603 4863 
z
" id="DejaVuSans-6a" transform="scale(0.015625)"/>
        <path d="M 544 1381 
L 544 3500 
L 1119 3500 
L 1119 1403 
Q 1119 906 1312 657 
Q 1506 409 1894 409 
Q 2359 409 2629 706 
Q 2900 1003 2900 1516 
L 2900 3500 
L 3475 3500 
L 3475 0 
L 2900 0 
L 2900 538 
Q 2691 219 2414 64 
Q 2138 -91 1772 -91 
Q 1169 -91 856 284 
Q 544 659 544 1381 
z
M 1991 3584 
L 1991 3584 
z
" id="DejaVuSans-75" transform="scale(0.015625)"/>
        <path d="M 3513 2113 
L 3513 0 
L 2938 0 
L 2938 2094 
Q 2938 2591 2744 2837 
Q 2550 3084 2163 3084 
Q 1697 3084 1428 2787 
Q 1159 2491 1159 1978 
L 1159 0 
L 581 0 
L 581 3500 
L 1159 3500 
L 1159 2956 
Q 1366 3272 1645 3428 
Q 1925 3584 2291 3584 
Q 2894 3584 3203 3211 
Q 3513 2838 3513 2113 
z
" id="DejaVuSans-6e" transform="scale(0.015625)"/>
       </defs>
       <use xlink:href="#DejaVuSans-6a"/>
       <use x="27.783203" xlink:href="#DejaVuSans-75"/>
       <use x="91.162109" xlink:href="#DejaVuSans-69"/>
       <use x="118.945312" xlink:href="#DejaVuSans-6e"/>
      </g>
     </g>
    </g>
    <g id="xtick_5">
     <g id="line2d_5">
      <g>
       <use style="stroke:#000000;stroke-width:0.8;" x="177.734158" xlink:href="#md28c9fb398" y="270.860625"/>
      </g>
     </g>
     <g id="text_5">
      <!-- juil. -->
      <g transform="translate(171.210104 294.055911)rotate(-45)scale(0.09 -0.09)">
       <defs>
        <path d="M 684 794 
L 1344 794 
L 1344 0 
L 684 0 
L 684 794 
z
" id="DejaVuSans-2e" transform="scale(0.015625)"/>
       </defs>
       <use xlink:href="#DejaVuSans-6a"/>
       <use x="27.783203" xlink:href="#DejaVuSans-75"/>
       <use x="91.162109" xlink:href="#DejaVuSans-69"/>
       <use x="118.945312" xlink:href="#DejaVuSans-6c"/>
       <use x="146.728516" xlink:href="#DejaVuSans-2e"/>
      </g>
     </g>
    </g>
    <g id="xtick_6">
     <g id="line2d_6">
      <g>
       <use style="stroke:#000000;stroke-width:0.8;" x="206.149764" xlink:href="#md28c9fb398" y="270.860625"/>
      </g>
     </g>
     <g id="text_6">
      <!-- août -->
      <g transform="translate(196.663484 297.018136)rotate(-45)scale(0.09 -0.09)">
       <defs>
        <path d="M 1959 3097 
Q 1497 3097 1228 2736 
Q 959 2375 959 1747 
Q 959 1119 1226 758 
Q 1494 397 1959 397 
Q 2419 397 2687 759 
Q 2956 1122 2956 1747 
Q 2956 2369 2687 2733 
Q 2419 3097 1959 3097 
z
M 1959 3584 
Q 2709 3584 3137 3096 
Q 3566 2609 3566 1747 
Q 3566 888 3137 398 
Q 2709 -91 1959 -91 
Q 1206 -91 779 398 
Q 353 888 353 1747 
Q 353 2609 779 3096 
Q 1206 3584 1959 3584 
z
" id="DejaVuSans-6f" transform="scale(0.015625)"/>
        <path d="M 544 1381 
L 544 3500 
L 1119 3500 
L 1119 1403 
Q 1119 906 1312 657 
Q 1506 409 1894 409 
Q 2359 409 2629 706 
Q 2900 1003 2900 1516 
L 2900 3500 
L 3475 3500 
L 3475 0 
L 2900 0 
L 2900 538 
Q 2691 219 2414 64 
Q 2138 -91 1772 -91 
Q 1169 -91 856 284 
Q 544 659 544 1381 
z
M 1991 3584 
L 1991 3584 
z
M 1753 5119 
L 2215 5119 
L 2981 3944 
L 2547 3944 
L 1984 4709 
L 1422 3944 
L 987 3944 
L 1753 5119 
z
" id="DejaVuSans-fb" transform="scale(0.015625)"/>
        <path d="M 1172 4494 
L 1172 3500 
L 2356 3500 
L 2356 3053 
L 1172 3053 
L 1172 1153 
Q 1172 725 1289 603 
Q 1406 481 1766 481 
L 2356 481 
L 2356 0 
L 1766 0 
Q 1100 0 847 248 
Q 594 497 594 1153 
L 594 3053 
L 172 3053 
L 172 3500 
L 594 3500 
L 594 4494 
L 1172 4494 
z
" id="DejaVuSans-74" transform="scale(0.015625)"/>
       </defs>
       <use xlink:href="#DejaVuSans-61"/>
       <use x="61.279297" xlink:href="#DejaVuSans-6f"/>
       <use x="122.460938" xlink:href="#DejaVuSans-fb"/>
       <use x="185.839844" xlink:href="#DejaVuSans-74"/>
      </g>
     </g>
    </g>
    <g id="xtick_7">
     <g id="line2d_7">
      <g>
       <use style="stroke:#000000;stroke-width:0.8;" x="234.56537" xlink:href="#md28c9fb398" y="270.860625"/>
      </g>
     </g>
     <g id="text_7">
      <!-- sept. -->
      <g transform="translate(223.612396 298.484831)rotate(-45)scale(0.09 -0.09)">
       <defs>
        <path d="M 3597 1894 
L 3597 1613 
L 953 1613 
Q 991 1019 1311 708 
Q 1631 397 2203 397 
Q 2534 397 2845 478 
Q 3156 559 3463 722 
L 3463 178 
Q 3153 47 2828 -22 
Q 2503 -91 2169 -91 
Q 1331 -91 842 396 
Q 353 884 353 1716 
Q 353 2575 817 3079 
Q 1281 3584 2069 3584 
Q 2775 3584 3186 3129 
Q 3597 2675 3597 1894 
z
M 3022 2063 
Q 3016 2534 2758 2815 
Q 2500 3097 2075 3097 
Q 1594 3097 1305 2825 
Q 1016 2553 972 2059 
L 3022 2063 
z
" id="DejaVuSans-65" transform="scale(0.015625)"/>
        <path d="M 1159 525 
L 1159 -1331 
L 581 -1331 
L 581 3500 
L 1159 3500 
L 1159 2969 
Q 1341 3281 1617 3432 
Q 1894 3584 2278 3584 
Q 2916 3584 3314 3078 
Q 3713 2572 3713 1747 
Q 3713 922 3314 415 
Q 2916 -91 2278 -91 
Q 1894 -91 1617 61 
Q 1341 213 1159 525 
z
M 3116 1747 
Q 3116 2381 2855 2742 
Q 2594 3103 2138 3103 
Q 1681 3103 1420 2742 
Q 1159 2381 1159 1747 
Q 1159 1113 1420 752 
Q 1681 391 2138 391 
Q 2594 391 2855 752 
Q 3116 1113 3116 1747 
z
" id="DejaVuSans-70" transform="scale(0.015625)"/>
       </defs>
       <use xlink:href="#DejaVuSans-73"/>
       <use x="52.099609" xlink:href="#DejaVuSans-65"/>
       <use x="113.623047" xlink:href="#DejaVuSans-70"/>
       <use x="177.099609" xlink:href="#DejaVuSans-74"/>
       <use x="216.308594" xlink:href="#DejaVuSans-2e"/>
      </g>
     </g>
    </g>
    <g id="xtick_8">
     <g id="line2d_8">
      <g>
       <use style="stroke:#000000;stroke-width:0.8;" x="262.064343" xlink:href="#md28c9fb398" y="270.860625"/>
      </g>
     </g>
     <g id="text_8">
      <!-- oct. -->
      <g transform="translate(254.989408 294.606792)rotate(-45)scale(0.09 -0.09)">
       <defs>
        <path d="M 3122 3366 
L 3122 2828 
Q 2878 2963 2633 3030 
Q 2388 3097 2138 3097 
Q 1578 3097 1268 2742 
Q 959 2388 959 1747 
Q 959 1106 1268 751 
Q 1578 397 2138 397 
Q 2388 397 2633 464 
Q 2878 531 3122 666 
L 3122 134 
Q 2881 22 2623 -34 
Q 2366 -91 2075 -91 
Q 1284 -91 818 406 
Q 353 903 353 1747 
Q 353 2603 823 3093 
Q 1294 3584 2113 3584 
Q 2378 3584 2631 3529 
Q 2884 3475 3122 3366 
z
" id="DejaVuSans-63" transform="scale(0.015625)"/>
       </defs>
       <use xlink:href="#DejaVuSans-6f"/>
       <use x="61.181641" xlink:href="#DejaVuSans-63"/>
       <use x="116.162109" xlink:href="#DejaVuSans-74"/>
       <use x="155.371094" xlink:href="#DejaVuSans-2e"/>
      </g>
     </g>
    </g>
    <g id="xtick_9">
     <g id="line2d_9">
      <g>
       <use style="stroke:#000000;stroke-width:0.8;" x="290.479949" xlink:href="#md28c9fb398" y="270.860625"/>
      </g>
     </g>
     <g id="text_9">
      <!-- nov. -->
      <g transform="translate(282.092447 295.919359)rotate(-45)scale(0.09 -0.09)">
       <use xlink:href="#DejaVuSans-6e"/>
       <use x="63.378906" xlink:href="#DejaVuSans-6f"/>
       <use x="124.560547" xlink:href="#DejaVuSans-76"/>
       <use x="175.990234" xlink:href="#DejaVuSans-2e"/>
      </g>
     </g>
    </g>
    <g id="xtick_10">
     <g id="line2d_10">
      <g>
       <use style="stroke:#000000;stroke-width:0.8;" x="317.978922" xlink:href="#md28c9fb398" y="270.860625"/>
      </g>
     </g>
     <g id="text_10">
      <!-- déc. -->
      <g transform="translate(309.336862 296.173917)rotate(-45)scale(0.09 -0.09)">
       <defs>
        <path d="M 2906 2969 
L 2906 4863 
L 3481 4863 
L 3481 0 
L 2906 0 
L 2906 525 
Q 2725 213 2448 61 
Q 2172 -91 1784 -91 
Q 1150 -91 751 415 
Q 353 922 353 1747 
Q 353 2572 751 3078 
Q 1150 3584 1784 3584 
Q 2172 3584 2448 3432 
Q 2725 3281 2906 2969 
z
M 947 1747 
Q 947 1113 1208 752 
Q 1469 391 1925 391 
Q 2381 391 2643 752 
Q 2906 1113 2906 1747 
Q 2906 2381 2643 2742 
Q 2381 3103 1925 3103 
Q 1469 3103 1208 2742 
Q 947 2381 947 1747 
z
" id="DejaVuSans-64" transform="scale(0.015625)"/>
        <path d="M 3597 1894 
L 3597 1613 
L 953 1613 
Q 991 1019 1311 708 
Q 1631 397 2203 397 
Q 2534 397 2845 478 
Q 3156 559 3463 722 
L 3463 178 
Q 3153 47 2828 -22 
Q 2503 -91 2169 -91 
Q 1331 -91 842 396 
Q 353 884 353 1716 
Q 353 2575 817 3079 
Q 1281 3584 2069 3584 
Q 2775 3584 3186 3129 
Q 3597 2675 3597 1894 
z
M 3022 2063 
Q 3016 2534 2758 2815 
Q 2500 3097 2075 3097 
Q 1594 3097 1305 2825 
Q 1016 2553 972 2059 
L 3022 2063 
z
M 2466 5119 
L 3088 5119 
L 2070 3944 
L 1591 3944 
L 2466 5119 
z
" id="DejaVuSans-e9" transform="scale(0.015625)"/>
       </defs>
       <use xlink:href="#DejaVuSans-64"/>
       <use x="63.476562" xlink:href="#DejaVuSans-e9"/>
       <use x="125" xlink:href="#DejaVuSans-63"/>
       <use x="179.980469" xlink:href="#DejaVuSans-2e"/>
      </g>
     </g>
    </g>
    <g id="xtick_11">
     <g id="line2d_11">
      <g>
       <use style="stroke:#000000;stroke-width:0.8;" x="346.394528" xlink:href="#md28c9fb398" y="270.860625"/>
      </g>
     </g>
     <g id="text_11">
      <!-- janv. -->
      <g transform="translate(336.233072 297.693313)rotate(-45)scale(0.09 -0.09)">
       <use xlink:href="#DejaVuSans-6a"/>
       <use x="27.783203" xlink:href="#DejaVuSans-61"/>
       <use x="89.0625" xlink:href="#DejaVuSans-6e"/>
       <use x="152.441406" xlink:href="#DejaVuSans-76"/>
       <use x="203.871094" xlink:href="#DejaVuSans-2e"/>
      </g>
     </g>
    </g>
    <g id="xtick_12">
     <g id="line2d_12">
      <g>
       <use style="stroke:#000000;stroke-width:0.8;" x="374.810133" xlink:href="#md28c9fb398" y="270.860625"/>
      </g>
     </g>
     <g id="text_12">
      <!-- fév. -->
      <g transform="translate(368.193603 294.148388)rotate(-45)scale(0.09 -0.09)">
       <defs>
        <path d="M 2375 4863 
L 2375 4384 
L 1825 4384 
Q 1516 4384 1395 4259 
Q 1275 4134 1275 3809 
L 1275 3500 
L 2222 3500 
L 2222 3053 
L 1275 3053 
L 1275 0 
L 697 0 
L 697 3053 
L 147 3053 
L 147 3500 
L 697 3500 
L 697 3744 
Q 697 4328 969 4595 
Q 1241 4863 1831 4863 
L 2375 4863 
z
" id="DejaVuSans-66" transform="scale(0.015625)"/>
       </defs>
       <use xlink:href="#DejaVuSans-66"/>
       <use x="35.205078" xlink:href="#DejaVuSans-e9"/>
       <use x="96.728516" xlink:href="#DejaVuSans-76"/>
       <use x="148.158203" xlink:href="#DejaVuSans-2e"/>
      </g>
     </g>
    </g>
    <g id="xtick_13">
     <g id="line2d_13">
      <g>
       <use style="stroke:#000000;stroke-width:0.8;" x="400.475842" xlink:href="#md28c9fb398" y="270.860625"/>
      </g>
     </g>
     <g id="text_13">
      <!-- mars -->
      <g transform="translate(389.281237 298.726462)rotate(-45)scale(0.09 -0.09)">
       <use xlink:href="#DejaVuSans-6d"/>
       <use x="97.412109" xlink:href="#DejaVuSans-61"/>
       <use x="158.691406" xlink:href="#DejaVuSans-72"/>
       <use x="199.804688" xlink:href="#DejaVuSans-73"/>
      </g>
     </g>
    </g>
    <g id="xtick_14">
     <g id="line2d_14">
      <g>
       <use style="stroke:#000000;stroke-width:0.8;" x="428.891448" xlink:href="#md28c9fb398" y="270.860625"/>
      </g>
     </g>
     <g id="text_14">
      <!-- avril -->
      <g transform="translate(419.908319 296.514986)rotate(-45)scale(0.09 -0.09)">
       <use xlink:href="#DejaVuSans-61"/>
       <use x="61.279297" xlink:href="#DejaVuSans-76"/>
       <use x="120.458984" xlink:href="#DejaVuSans-72"/>
       <use x="161.572266" xlink:href="#DejaVuSans-69"/>
       <use x="189.355469" xlink:href="#DejaVuSans-6c"/>
      </g>
     </g>
    </g>
    <g id="xtick_15">
     <g id="line2d_15">
      <g>
       <use style="stroke:#000000;stroke-width:0.8;" x="456.390421" xlink:href="#md28c9fb398" y="270.860625"/>
      </g>
     </g>
     <g id="text_15">
      <!-- mai -->
      <g transform="translate(449.359238 294.56304)rotate(-45)scale(0.09 -0.09)">
       <use xlink:href="#DejaVuSans-6d"/>
       <use x="97.412109" xlink:href="#DejaVuSans-61"/>
       <use x="158.691406" xlink:href="#DejaVuSans-69"/>
      </g>
     </g>
    </g>
    <g id="xtick_16">
     <g id="line2d_16">
      <g>
       <use style="stroke:#000000;stroke-width:0.8;" x="484.806027" xlink:href="#md28c9fb398" y="270.860625"/>
      </g>
     </g>
     <g id="text_16">
      <!-- juin -->
      <g transform="translate(478.039346 294.298537)rotate(-45)scale(0.09 -0.09)">
       <use xlink:href="#DejaVuSans-6a"/>
       <use x="27.783203" xlink:href="#DejaVuSans-75"/>
       <use x="91.162109" xlink:href="#DejaVuSans-69"/>
       <use x="118.945312" xlink:href="#DejaVuSans-6e"/>
      </g>
     </g>
    </g>
    <g id="xtick_17">
     <g id="line2d_17">
      <g>
       <use style="stroke:#000000;stroke-width:0.8;" x="512.305" xlink:href="#md28c9fb398" y="270.860625"/>
      </g>
     </g>
     <g id="text_17">
      <!-- juil. -->
      <g transform="translate(505.780946 294.055911)rotate(-45)scale(0.09 -0.09)">
       <use xlink:href="#DejaVuSans-6a"/>
       <use x="27.783203" xlink:href="#DejaVuSans-75"/>
       <use x="91.162109" xlink:href="#DejaVuSans-69"/>
       <use x="118.945312" xlink:href="#DejaVuSans-6c"/>
       <use x="146.728516" xlink:href="#DejaVuSans-2e"/>
      </g>
     </g>
    </g>
   </g>
   <g id="matplotlib.axis_2">
    <g id="ytick_1">
     <g id="line2d_18">
      <path clip-path="url(#p8a63197d96)" d="M 65.905 260.506339 
L 512.305 260.506339 
" style="fill:none;stroke:#b0b0b0;stroke-linecap:square;stroke-opacity:0.5;stroke-width:0.8;"/>
     </g>
     <g id="text_18">
      <!-- 0 -->
      <g transform="translate(53.17875 263.925636)scale(0.09 -0.09)">
       <defs>
        <path d="M 2034 4250 
Q 1547 4250 1301 3770 
Q 1056 3291 1056 2328 
Q 1056 1369 1301 889 
Q 1547 409 2034 409 
Q 2525 409 2770 889 
Q 3016 1369 3016 2328 
Q 3016 3291 2770 3770 
Q 2525 4250 2034 4250 
z
M 2034 4750 
Q 2819 4750 3233 4129 
Q 3647 3509 3647 2328 
Q 3647 1150 3233 529 
Q 2819 -91 2034 -91 
Q 1250 -91 836 529 
Q 422 1150 422 2328 
Q 422 3509 836 4129 
Q 1250 4750 2034 4750 
z
" id="DejaVuSans-30" transform="scale(0.015625)"/>
       </defs>
       <use xlink:href="#DejaVuSans-30"/>
      </g>
     </g>
    </g>
    <g id="ytick_2">
     <g id="line2d_19">
      <path clip-path="url(#p8a63197d96)" d="M 65.905 174.220625 
L 512.305 174.220625 
" style="fill:none;stroke:#b0b0b0;stroke-linecap:square;stroke-opacity:0.5;stroke-width:0.8;"/>
     </g>
     <g id="text_19">
      <!-- 500 -->
      <g transform="translate(41.72625 177.639922)scale(0.09 -0.09)">
       <defs>
        <path d="M 691 4666 
L 3169 4666 
L 3169 4134 
L 1269 4134 
L 1269 2991 
Q 1406 3038 1543 3061 
Q 1681 3084 1819 3084 
Q 2600 3084 3056 2656 
Q 3513 2228 3513 1497 
Q 3513 744 3044 326 
Q 2575 -91 1722 -91 
Q 1428 -91 1123 -41 
Q 819 9 494 109 
L 494 744 
Q 775 591 1075 516 
Q 1375 441 1709 441 
Q 2250 441 2565 725 
Q 2881 1009 2881 1497 
Q 2881 1984 2565 2268 
Q 2250 2553 1709 2553 
Q 1456 2553 1204 2497 
Q 953 2441 691 2322 
L 691 4666 
z
" id="DejaVuSans-35" transform="scale(0.015625)"/>
       </defs>
       <use xlink:href="#DejaVuSans-35"/>
       <use x="63.623047" xlink:href="#DejaVuSans-30"/>
       <use x="127.246094" xlink:href="#DejaVuSans-30"/>
      </g>
     </g>
    </g>
    <g id="ytick_3">
     <g id="line2d_20">
      <path clip-path="url(#p8a63197d96)" d="M 65.905 87.934911 
L 512.305 87.934911 
" style="fill:none;stroke:#b0b0b0;stroke-linecap:square;stroke-opacity:0.5;stroke-width:0.8;"/>
     </g>
     <g id="text_20">
      <!-- 1000 -->
      <g transform="translate(36 91.354208)scale(0.09 -0.09)">
       <defs>
        <path d="M 794 531 
L 1825 531 
L 1825 4091 
L 703 3866 
L 703 4441 
L 1819 4666 
L 2450 4666 
L 2450 531 
L 3481 531 
L 3481 0 
L 794 0 
L 794 531 
z
" id="DejaVuSans-31" transform="scale(0.015625)"/>
       </defs>
       <use xlink:href="#DejaVuSans-31"/>
       <use x="63.623047" xlink:href="#DejaVuSans-30"/>
       <use x="127.246094" xlink:href="#DejaVuSans-30"/>
       <use x="190.869141" xlink:href="#DejaVuSans-30"/>
      </g>
     </g>
    </g>
    <g id="ytick_4">
     <g id="line2d_21">
      <path clip-path="url(#p8a63197d96)" d="M 65.905 243.249196 
L 512.305 243.249196 
" style="fill:none;stroke:#b0b0b0;stroke-linecap:square;stroke-opacity:0.2;stroke-width:0.8;"/>
     </g>
    </g>
    <g id="ytick_5">
     <g id="line2d_22">
      <path clip-path="url(#p8a63197d96)" d="M 65.905 225.992054 
L 512.305 225.992054 
" style="fill:none;stroke:#b0b0b0;stroke-linecap:square;stroke-opacity:0.2;stroke-width:0.8;"/>
     </g>
    </g>
    <g id="ytick_6">
     <g id="line2d_23">
      <path clip-path="url(#p8a63197d96)" d="M 65.905 208.734911 
L 512.305 208.734911 
" style="fill:none;stroke:#b0b0b0;stroke-linecap:square;stroke-opacity:0.2;stroke-width:0.8;"/>
     </g>
    </g>
    <g id="ytick_7">
     <g id="line2d_24">
      <path clip-path="url(#p8a63197d96)" d="M 65.905 191.477768 
L 512.305 191.477768 
" style="fill:none;stroke:#b0b0b0;stroke-linecap:square;stroke-opacity:0.2;stroke-width:0.8;"/>
     </g>
    </g>
    <g id="ytick_8">
     <g id="line2d_25">
      <path clip-path="url(#p8a63197d96)" d="M 65.905 156.963482 
L 512.305 156.963482 
" style="fill:none;stroke:#b0b0b0;stroke-linecap:square;stroke-opacity:0.2;stroke-width:0.8;"/>
     </g>
    </g>
    <g id="ytick_9">
     <g id="line2d_26">
      <path clip-path="url(#p8a63197d96)" d="M 65.905 139.706339 
L 512.305 139.706339 
" style="fill:none;stroke:#b0b0b0;stroke-linecap:square;stroke-opacity:0.2;stroke-width:0.8;"/>
     </g>
    </g>
    <g id="ytick_10">
     <g id="line2d_27">
      <path clip-path="url(#p8a63197d96)" d="M 65.905 122.449196 
L 512.305 122.449196 
" style="fill:none;stroke:#b0b0b0;stroke-linecap:square;stroke-opacity:0.2;stroke-width:0.8;"/>
     </g>
    </g>
    <g id="ytick_11">
     <g id="line2d_28">
      <path clip-path="url(#p8a63197d96)" d="M 65.905 105.192054 
L 512.305 105.192054 
" style="fill:none;stroke:#b0b0b0;stroke-linecap:square;stroke-opacity:0.2;stroke-width:0.8;"/>
     </g>
    </g>
    <g id="ytick_12">
     <g id="line2d_29">
      <path clip-path="url(#p8a63197d96)" d="M 65.905 70.677768 
L 512.305 70.677768 
" style="fill:none;stroke:#b0b0b0;stroke-linecap:square;stroke-opacity:0.2;stroke-width:0.8;"/>
     </g>
    </g>
   </g>
   <g id="line2d_30">
    <path clip-path="url(#p8a63197d96)" d="M 65.905 259.432469 
L 512.305 259.432469 
" style="fill:none;stroke:#00ced1;stroke-linecap:square;stroke-width:0.8;"/>
   </g>
   <g id="line2d_31">
    <path clip-path="url(#p8a63197d96)" d="M 132.819168 260.506339 
L 137.402331 260.506339 
L 138.318963 259.520747 
L 142.902125 259.935733 
L 143.818758 260.35072 
L 146.568655 260.246973 
L 150.235185 260.143226 
L 155.734979 260.35072 
L 158.484877 260.246973 
L 159.401509 260.298846 
L 161.234774 260.1951 
L 165.817936 260.298846 
L 168.567834 260.35072 
L 175.900893 260.246973 
L 176.817526 260.143226 
L 179.567423 260.1951 
L 181.400688 260.143226 
L 184.150585 260.35072 
L 185.067218 260.091353 
L 190.567012 259.987607 
L 191.483645 260.298846 
L 194.233542 260.246973 
L 196.983439 259.831987 
L 198.816704 258.846395 
L 201.566602 258.379536 
L 202.483234 258.431409 
L 204.316499 257.705183 
L 205.233131 257.393944 
L 206.149764 256.927085 
L 207.066396 256.978958 
L 207.983029 256.667718 
L 208.899661 255.630253 
L 209.816294 254.333422 
L 211.649559 253.607196 
L 213.482823 253.555323 
L 214.399456 252.050999 
L 215.316088 251.636013 
L 216.232721 251.376646 
L 218.065986 247.693645 
L 218.982618 247.953011 
L 219.899251 247.901138 
L 221.732515 243.336292 
L 222.649148 239.393924 
L 223.56578 238.563952 
L 224.482413 236.177782 
L 225.399045 234.569711 
L 226.315678 234.569711 
L 228.148943 230.782964 
L 229.065575 231.976049 
L 229.982207 228.396794 
L 230.89884 228.759907 
L 232.732105 228.65616 
L 233.648737 228.085554 
L 234.56537 229.693625 
L 235.482002 230.160485 
L 236.398634 231.768556 
L 237.315267 231.19795 
L 238.231899 231.924175 
L 239.148532 231.664809 
L 240.065164 232.857894 
L 240.981797 231.405443 
L 241.898429 228.708033 
L 243.731694 229.330513 
L 244.648326 228.552414 
L 245.564959 228.604287 
L 246.481591 227.722442 
L 247.398224 227.878061 
L 248.314856 229.486132 
L 251.064754 232.546654 
L 251.981386 232.754147 
L 252.898018 234.569711 
L 253.814651 238.04522 
L 256.564548 243.595658 
L 257.481181 243.699404 
L 258.397813 243.543785 
L 259.314446 245.203729 
L 260.231078 244.73687 
L 261.14771 245.670588 
L 262.064343 245.359349 
L 262.980975 245.981828 
L 263.897608 246.448687 
L 264.81424 246.50056 
L 265.730873 244.633123 
L 266.647505 243.543785 
L 267.564138 242.765686 
L 269.397402 239.757037 
L 270.314035 239.186431 
L 271.230667 239.186431 
L 272.1473 238.875192 
L 273.063932 238.148966 
L 273.980565 236.074036 
L 274.897197 235.81467 
L 275.81383 233.221007 
L 276.730462 233.58412 
L 277.647094 233.687866 
L 278.563727 233.27288 
L 279.480359 233.065387 
L 280.396992 231.561063 
L 281.313624 228.9674 
L 282.230257 227.722442 
L 283.146889 225.803131 
L 284.063522 225.388145 
L 284.980154 221.549524 
L 285.896786 215.791593 
L 288.646684 209.359309 
L 289.563316 209.463056 
L 290.479949 209.04807 
L 292.313214 206.921266 
L 293.229846 205.987547 
L 294.146478 205.728181 
L 295.063111 202.927025 
L 295.979743 202.927025 
L 296.896376 203.393885 
L 297.813008 204.327603 
L 298.729641 206.610027 
L 299.646273 216.362199 
L 300.562906 218.644622 
L 301.479538 224.558173 
L 302.39617 225.232525 
L 303.312803 225.440018 
L 304.229435 227.878061 
L 305.146068 231.509189 
L 306.0627 226.944343 
L 306.979333 230.73109 
L 307.895965 231.976049 
L 308.812598 231.612936 
L 309.72923 231.509189 
L 310.645862 234.258472 
L 312.479127 236.592768 
L 313.39576 235.866543 
L 314.312392 237.007754 
L 315.229025 237.630233 
L 316.145657 237.630233 
L 317.06229 237.163374 
L 317.978922 238.04522 
L 318.895554 237.837727 
L 320.728819 237.73398 
L 321.645452 237.42274 
L 322.562084 237.526487 
L 325.311982 233.947232 
L 326.228614 234.102852 
L 327.145246 233.687866 
L 328.061879 232.494781 
L 328.978511 232.391035 
L 329.895144 231.457316 
L 330.811776 229.589879 
L 331.728409 228.708033 
L 332.645041 226.166244 
L 333.561674 223.157595 
L 334.478306 221.860764 
L 335.394938 221.030792 
L 336.311571 217.088424 
L 338.144836 210.96738 
L 339.061468 209.618675 
L 339.978101 216.673438 
L 340.894733 216.621565 
L 341.811366 215.947213 
L 342.727998 215.635973 
L 343.64463 214.702254 
L 344.561263 211.745479 
L 345.477895 211.952972 
L 346.394528 211.952972 
L 347.31116 210.137408 
L 348.227793 209.981788 
L 349.144425 206.713773 
L 350.061057 204.379477 
L 350.97769 205.468815 
L 351.894322 202.04518 
L 352.810955 190.529317 
L 353.727587 191.411163 
L 355.560852 192.396754 
L 356.477485 194.731051 
L 358.310749 198.154686 
L 359.227382 198.984658 
L 360.144014 199.192151 
L 361.060647 200.022123 
L 361.977279 200.177743 
L 362.893912 197.999066 
L 363.810544 196.702235 
L 364.727177 195.820389 
L 365.643809 195.35353 
L 366.560441 193.2786 
L 368.393706 192.241135 
L 369.310339 195.820389 
L 370.226971 196.027882 
L 371.143604 195.561023 
L 372.060236 195.249784 
L 372.976869 195.872263 
L 374.810133 195.976009 
L 376.643398 192.915487 
L 377.560031 192.448628 
L 378.476663 192.656121 
L 379.393296 193.2786 
L 380.309928 192.500501 
L 381.226561 192.085515 
L 382.143193 189.491852 
L 383.059825 187.728161 
L 383.976458 186.535077 
L 384.89309 184.875132 
L 385.809723 182.177723 
L 386.726355 182.333343 
L 387.642988 179.428441 
L 388.55962 178.650342 
L 389.476253 178.702215 
L 390.392885 177.768496 
L 391.309517 174.759847 
L 392.22615 174.707974 
L 393.142782 175.12296 
L 394.059415 174.241115 
L 394.976047 176.523538 
L 395.89268 176.212299 
L 396.809312 177.094144 
L 397.725945 181.244004 
L 398.642577 182.852075 
L 399.559209 182.800202 
L 400.475842 184.3564 
L 401.392474 185.445738 
L 402.309107 187.313175 
L 403.225739 190.477444 
L 404.142372 192.241135 
L 405.975637 191.566782 
L 406.892269 193.901079 
L 407.808901 192.915487 
L 408.725534 193.641713 
L 409.642166 191.463036 
L 410.558799 189.595599 
L 411.475431 190.269951 
L 412.392064 190.581191 
L 414.225329 189.076866 
L 415.141961 191.04805 
L 416.058593 191.566782 
L 416.975226 191.566782 
L 417.891858 192.604247 
L 418.808491 192.189261 
L 419.725123 191.618656 
L 420.641756 191.566782 
L 421.558388 186.950063 
L 422.475021 183.474554 
L 423.391653 182.28147 
L 424.308285 180.673399 
L 425.224918 181.244004 
L 427.058183 177.146017 
L 427.974815 181.555244 
L 429.80808 188.765627 
L 430.724713 190.581191 
L 431.641345 190.996177 
L 432.557977 206.869393 
L 433.47461 208.633084 
L 434.391242 210.137408 
L 436.224507 215.895339 
L 437.14114 217.399664 
L 438.057772 217.244044 
L 438.974405 211.486113 
L 439.891037 218.852115 
L 440.807669 221.549524 
L 442.640934 225.751258 
L 443.557567 227.670568 
L 444.474199 228.137428 
L 445.390832 229.693625 
L 446.307464 230.938583 
L 447.224097 231.768556 
L 448.140729 233.065387 
L 449.057361 233.999106 
L 450.890626 234.673458 
L 451.807259 235.970289 
L 452.723891 235.710923 
L 453.640524 237.111501 
L 454.557156 238.875192 
L 455.473789 239.96453 
L 456.390421 241.676347 
L 457.307053 241.676347 
L 458.223686 242.143207 
L 459.140318 242.869432 
L 460.056951 243.336292 
L 460.973583 242.973179 
L 461.890216 243.958771 
L 462.806848 243.647531 
L 463.72348 243.699404 
L 464.640113 245.203729 
L 465.556745 246.396814 
L 466.473378 247.174913 
L 467.39001 249.820449 
L 468.306643 249.509209 
L 469.223275 249.04235 
L 470.139908 249.146096 
L 471.05654 249.976068 
L 471.973172 249.924195 
L 472.889805 250.235435 
L 473.806437 248.938603 
L 474.72307 250.442928 
L 476.556335 250.339181 
L 477.472967 252.414111 
L 478.3896 252.725351 
L 480.222864 254.022182 
L 481.139497 254.125929 
L 482.056129 254.644661 
L 482.972762 254.800281 
L 483.889394 253.34783 
L 484.806027 253.762816 
L 485.722659 253.65907 
L 486.639292 253.34783 
L 488.472556 253.710943 
L 489.389189 253.607196 
L 490.305821 253.918436 
L 491.222454 254.800281 
L 492.139086 255.319014 
L 493.055719 255.993366 
L 494.888984 256.563972 
L 495.805616 256.512099 
L 496.722248 256.875211 
L 497.638881 256.615845 
L 500.388778 256.200859 
L 500.388778 256.200859 
" style="fill:none;stroke:#b22222;stroke-linecap:square;"/>
   </g>
   <g id="line2d_32">
    <path clip-path="url(#p8a63197d96)" d="M 132.819168 260.506339 
L 137.402331 260.506339 
L 138.318963 258.566605 
L 140.152228 259.072623 
L 141.06886 259.325631 
L 142.902125 259.241295 
L 143.818758 259.831649 
L 145.652023 259.494304 
L 146.568655 259.452136 
L 148.40192 259.662976 
L 149.318552 259.705145 
L 152.06845 260.295499 
L 154.818347 259.958153 
L 158.484877 259.831649 
L 165.817936 260.464171 
L 167.651201 260.379835 
L 171.317731 260.337667 
L 172.234363 260.211162 
L 178.650791 260.295499 
L 180.484055 260.379835 
L 184.150585 260.337667 
L 186.900483 260.168994 
L 188.733747 260.084658 
L 190.567012 259.915985 
L 191.483645 259.831649 
L 192.400277 259.57864 
L 196.066807 259.325631 
L 196.983439 259.241295 
L 197.900072 259.283463 
L 198.816704 258.524437 
L 203.399867 257.891915 
L 204.316499 257.175056 
L 205.233131 257.596738 
L 206.149764 256.837711 
L 207.066396 256.964215 
L 207.983029 256.331693 
L 208.899661 255.530499 
L 209.816294 255.066649 
L 210.732926 254.729304 
L 211.649559 253.717269 
L 212.566191 254.054614 
L 213.482823 254.054614 
L 214.399456 252.620897 
L 215.316088 251.904039 
L 216.232721 250.892003 
L 217.149353 249.542623 
L 218.065986 248.910101 
L 218.982618 249.289614 
L 219.899251 249.289614 
L 221.732515 246.506517 
L 222.649148 243.301738 
L 223.56578 242.205366 
L 224.482413 240.096959 
L 225.399045 239.253596 
L 226.315678 239.000588 
L 228.148943 234.825942 
L 229.065575 236.470499 
L 229.982207 235.289791 
L 230.89884 234.362092 
L 232.732105 234.362092 
L 233.648737 234.488597 
L 234.56537 235.289791 
L 235.482002 233.856074 
L 236.398634 234.277756 
L 237.315267 234.319924 
L 238.231899 233.139216 
L 239.148532 232.844039 
L 240.065164 232.675367 
L 240.981797 231.157313 
L 241.898429 230.018774 
L 242.815062 229.259747 
L 243.731694 228.669393 
L 244.648326 229.344083 
L 245.564959 229.597092 
L 246.481591 229.175411 
L 247.398224 229.344083 
L 249.231489 231.45249 
L 250.148121 233.05488 
L 251.064754 233.771738 
L 251.981386 234.024747 
L 252.898018 234.910278 
L 253.814651 237.904216 
L 255.647916 240.139127 
L 256.564548 241.44634 
L 257.481181 241.277667 
L 258.397813 241.235499 
L 259.314446 243.807756 
L 260.231078 244.39811 
L 261.14771 245.536649 
L 262.064343 245.74749 
L 262.980975 246.21134 
L 263.897608 245.873995 
L 264.81424 245.663154 
L 265.730873 243.428242 
L 266.647505 241.741517 
L 267.564138 240.3078 
L 269.397402 237.060853 
L 270.314035 236.512667 
L 271.230667 236.470499 
L 272.1473 233.813906 
L 273.063932 232.127181 
L 273.980565 229.386252 
L 274.897197 227.82603 
L 275.81383 224.916429 
L 277.647094 225.042933 
L 278.563727 223.398376 
L 279.480359 220.994792 
L 280.396992 218.000854 
L 282.230257 209.272048 
L 283.146889 207.8805 
L 284.063522 207.037137 
L 284.980154 202.398642 
L 285.896786 196.157757 
L 286.813419 193.965013 
L 288.646684 187.428952 
L 289.563316 186.079571 
L 290.479949 185.700058 
L 291.396581 182.621784 
L 293.229846 178.995324 
L 294.146478 180.091695 
L 295.063111 181.483244 
L 296.896376 183.043465 
L 297.813008 187.555456 
L 298.729641 194.133686 
L 299.646273 207.290146 
L 300.562906 210.073243 
L 301.479538 216.482801 
L 302.39617 218.169526 
L 303.312803 218.422535 
L 304.229435 221.500809 
L 305.146068 224.073066 
L 306.0627 219.350234 
L 306.979333 225.085101 
L 307.895965 226.898331 
L 308.812598 226.139305 
L 309.72923 226.223641 
L 310.645862 229.892269 
L 311.562495 231.621163 
L 312.479127 232.59103 
L 313.39576 232.422358 
L 314.312392 232.844039 
L 315.229025 233.898243 
L 316.145657 233.813906 
L 317.06229 232.886207 
L 317.978922 232.506694 
L 318.895554 232.338021 
L 319.812187 232.042844 
L 320.728819 231.157313 
L 321.645452 230.440455 
L 322.562084 230.356119 
L 323.478717 231.072977 
L 324.395349 231.410322 
L 325.311982 229.765765 
L 326.228614 229.597092 
L 327.145246 230.356119 
L 328.061879 229.42842 
L 328.978511 229.048906 
L 329.895144 226.054968 
L 330.811776 222.1755 
L 331.728409 219.856252 
L 333.561674 209.061208 
L 334.478306 206.446783 
L 335.394938 205.476916 
L 336.311571 199.193863 
L 337.228203 195.483067 
L 338.144836 192.952978 
L 339.061468 193.838509 
L 339.978101 203.621518 
L 340.894733 201.470942 
L 341.811366 201.30227 
L 342.727998 199.657712 
L 343.64463 198.477005 
L 344.561263 195.483067 
L 345.477895 194.513199 
L 346.394528 194.302359 
L 347.31116 193.416828 
L 348.227793 193.416828 
L 349.144425 190.928907 
L 350.061057 190.001208 
L 350.97769 190.63373 
L 351.894322 187.091607 
L 352.810955 172.880943 
L 353.727587 174.694173 
L 354.64422 175.579704 
L 355.560852 176.676076 
L 356.477485 177.097757 
L 357.394117 178.447138 
L 358.310749 179.037492 
L 359.227382 180.386872 
L 360.144014 180.724217 
L 362.893912 179.965191 
L 363.810544 178.700147 
L 364.727177 177.814616 
L 365.643809 175.874881 
L 366.560441 175.411032 
L 368.393706 174.145987 
L 369.310339 174.862846 
L 371.143604 174.778509 
L 372.060236 175.411032 
L 372.976869 174.567669 
L 373.893501 174.483333 
L 374.810133 174.736341 
L 376.643398 174.31466 
L 377.560031 174.652005 
L 378.476663 173.63997 
L 379.393296 173.091784 
L 380.309928 172.923111 
L 381.226561 171.489395 
L 382.143193 169.085811 
L 383.059825 167.525589 
L 383.976458 165.375014 
L 384.89309 167.652094 
L 385.809723 168.748465 
L 386.726355 168.664129 
L 387.642988 168.87497 
L 388.55962 168.495457 
L 389.476253 169.465324 
L 390.392885 167.019572 
L 391.309517 161.790722 
L 392.22615 159.176297 
L 393.142782 159.176297 
L 394.059415 153.23059 
L 394.976047 152.049882 
L 395.89268 150.489661 
L 396.809312 154.031784 
L 397.725945 158.248598 
L 398.642577 161.790722 
L 399.559209 162.212404 
L 400.475842 167.230412 
L 401.392474 168.87497 
L 402.309107 170.983377 
L 403.225739 173.471297 
L 404.142372 175.411032 
L 405.975637 172.543598 
L 407.808901 177.645943 
L 408.725534 177.645943 
L 409.642166 178.489306 
L 410.558799 177.350766 
L 411.475431 178.61581 
L 412.392064 180.555545 
L 413.308696 179.290501 
L 414.225329 180.471208 
L 415.141961 182.874792 
L 416.058593 185.784394 
L 416.975226 187.850633 
L 417.891858 187.428952 
L 418.808491 186.501253 
L 419.725123 185.995235 
L 420.641756 185.067536 
L 421.558388 181.862757 
L 422.475021 176.465235 
L 423.391653 175.326695 
L 424.308285 173.555633 
L 425.224918 174.019483 
L 426.14155 173.260456 
L 427.058183 172.332757 
L 428.891448 175.917049 
L 430.724713 181.314571 
L 431.641345 180.639881 
L 432.557977 199.573376 
L 433.47461 198.097491 
L 434.391242 199.826385 
L 435.307875 204.717889 
L 436.224507 206.151606 
L 437.14114 208.513022 
L 438.057772 209.651562 
L 438.974405 201.892624 
L 439.891037 212.18165 
L 440.807669 216.018951 
L 441.724302 217.241827 
L 442.640934 220.067092 
L 443.557567 221.163464 
L 444.474199 221.71165 
L 445.390832 223.651384 
L 446.307464 223.862225 
L 447.224097 226.054968 
L 448.140729 226.603154 
L 449.057361 226.940499 
L 449.973994 227.783862 
L 450.890626 227.952535 
L 451.807259 229.976606 
L 453.640524 232.59103 
L 454.557156 234.657269 
L 455.473789 236.175322 
L 456.390421 238.072889 
L 457.307053 237.988552 
L 458.223686 239.000588 
L 459.140318 240.349968 
L 460.056951 241.066826 
L 460.973583 241.952357 
L 461.890216 243.512579 
L 463.72348 243.93426 
L 464.640113 246.548685 
L 465.556745 247.181207 
L 466.473378 248.446251 
L 467.39001 250.301649 
L 468.306643 250.259481 
L 469.223275 249.8378 
L 470.139908 249.879968 
L 471.05654 250.090809 
L 471.973172 250.596826 
L 472.889805 250.807667 
L 473.806437 249.879968 
L 474.72307 251.018508 
L 475.639702 251.060676 
L 476.556335 251.271517 
L 477.472967 253.422092 
L 479.306232 253.801605 
L 480.222864 254.391959 
L 482.056129 255.066649 
L 482.972762 255.235322 
L 483.889394 254.307623 
L 484.806027 254.729304 
L 485.722659 254.897977 
L 486.639292 254.940145 
L 488.472556 254.687136 
L 489.389189 254.687136 
L 490.305821 254.434127 
L 491.222454 254.687136 
L 492.139086 255.193154 
L 493.055719 255.446162 
L 493.972351 255.910012 
L 494.888984 256.247357 
L 495.805616 256.205189 
L 496.722248 256.964215 
L 498.555513 257.512401 
L 500.388778 257.681074 
L 500.388778 257.681074 
" style="fill:none;stroke:#000000;stroke-linecap:square;stroke-width:1.5;"/>
   </g>
   <g id="line2d_33">
    <path clip-path="url(#p8a63197d96)" d="M 132.819168 260.506339 
L 137.402331 260.506339 
L 138.318963 257.284729 
L 139.235595 257.693822 
L 140.152228 258.358599 
L 141.06886 258.665419 
L 142.902125 258.767693 
L 143.818758 259.432469 
L 144.73539 259.585879 
L 147.485287 259.381333 
L 149.318552 259.432469 
L 150.235185 259.892699 
L 152.06845 259.381333 
L 156.651612 259.023376 
L 158.484877 259.637016 
L 165.817936 260.404066 
L 167.651201 260.301793 
L 169.484466 260.301793 
L 172.234363 260.352929 
L 174.067628 260.455203 
L 178.650791 260.352929 
L 183.233953 260.148383 
L 184.150585 260.199519 
L 185.067218 260.046109 
L 191.483645 260.097246 
L 192.400277 259.790426 
L 194.233542 259.637016 
L 197.900072 259.023376 
L 198.816704 258.716556 
L 199.733337 258.818829 
L 200.649969 258.767693 
L 201.566602 258.921103 
L 203.399867 258.818829 
L 204.316499 258.409736 
L 205.233131 258.716556 
L 206.149764 258.256326 
L 207.066396 258.409736 
L 207.983029 257.949506 
L 209.816294 257.489276 
L 210.732926 257.438139 
L 211.649559 256.926772 
L 212.566191 257.182456 
L 213.482823 257.131319 
L 214.399456 256.722226 
L 215.316088 255.955176 
L 216.232721 255.801766 
L 218.982618 256.159722 
L 219.899251 256.210859 
L 220.815883 255.801766 
L 221.732515 255.904039 
L 222.649148 254.523349 
L 225.399045 252.733566 
L 226.315678 252.631292 
L 227.23231 252.733566 
L 228.148943 251.813106 
L 229.065575 252.733566 
L 229.982207 251.608559 
L 230.89884 251.404012 
L 231.815472 251.659696 
L 234.56537 251.557422 
L 235.482002 250.023322 
L 237.315267 248.386949 
L 238.231899 247.261942 
L 239.148532 246.801712 
L 240.065164 244.347152 
L 240.981797 243.477828 
L 241.898429 242.813052 
L 242.815062 243.171008 
L 243.731694 242.352822 
L 244.648326 243.068735 
L 246.481591 243.068735 
L 247.398224 243.733512 
L 248.314856 244.091469 
L 250.148121 245.369885 
L 251.064754 245.369885 
L 251.981386 245.830115 
L 253.814651 247.364215 
L 254.731283 248.591495 
L 255.647916 249.307409 
L 256.564548 250.841509 
L 257.481181 251.301739 
L 258.397813 251.301739 
L 259.314446 251.966516 
L 262.064343 251.250602 
L 262.980975 250.381279 
L 263.897608 249.869912 
L 264.81424 249.921049 
L 265.730873 249.409682 
L 266.647505 249.665365 
L 267.564138 249.256272 
L 268.48077 247.364215 
L 269.397402 246.648302 
L 271.230667 245.983525 
L 272.1473 242.659642 
L 273.063932 240.920995 
L 273.980565 239.898262 
L 274.897197 239.335758 
L 275.81383 237.341428 
L 276.730462 236.932335 
L 277.647094 237.136882 
L 278.563727 236.420968 
L 280.396992 233.250495 
L 282.230257 225.784541 
L 283.146889 225.989088 
L 284.063522 225.375448 
L 284.980154 221.386787 
L 286.813419 215.710617 
L 287.730051 214.943567 
L 288.646684 213.307194 
L 289.563316 212.335597 
L 290.479949 212.079914 
L 291.396581 211.159454 
L 292.313214 208.346937 
L 293.229846 207.733297 
L 294.146478 207.426477 
L 295.063111 207.98898 
L 297.813008 208.398073 
L 298.729641 211.82423 
L 299.646273 219.648141 
L 300.562906 219.341321 
L 301.479538 221.233377 
L 302.39617 220.722011 
L 303.312803 221.284514 
L 304.229435 224.045894 
L 305.146068 225.937951 
L 306.0627 221.795881 
L 306.979333 226.705001 
L 307.895965 230.744798 
L 308.812598 232.330035 
L 309.72923 232.227761 
L 310.645862 236.369831 
L 311.562495 237.290292 
L 313.39576 240.000535 
L 314.312392 239.284622 
L 315.229025 238.875528 
L 316.145657 238.670982 
L 317.06229 237.955068 
L 317.978922 238.773255 
L 318.895554 237.290292 
L 319.812187 236.676651 
L 320.728819 234.170955 
L 323.478717 235.142551 
L 324.395349 234.682321 
L 325.311982 235.244825 
L 326.228614 234.631185 
L 327.145246 237.085745 
L 328.061879 236.063011 
L 328.978511 235.858465 
L 329.895144 233.045948 
L 330.811776 229.722064 
L 331.728409 227.216368 
L 332.645041 225.835678 
L 333.561674 221.795881 
L 334.478306 218.318587 
L 335.394938 217.040171 
L 336.311571 213.256057 
L 337.228203 206.966247 
L 338.144836 203.284407 
L 339.061468 203.028723 
L 339.978101 210.545814 
L 340.894733 211.568547 
L 341.811366 212.386734 
L 342.727998 211.006044 
L 343.64463 212.28446 
L 345.477895 209.113987 
L 346.394528 209.165124 
L 347.31116 209.932174 
L 348.227793 208.346937 
L 349.144425 206.403743 
L 350.061057 205.585557 
L 350.97769 206.506017 
L 351.894322 203.488953 
L 352.810955 191.983203 
L 353.727587 191.420699 
L 354.64422 192.494569 
L 355.560852 188.199089 
L 356.477485 191.574109 
L 358.310749 191.420699 
L 359.227382 192.596843 
L 360.144014 193.261619 
L 361.060647 193.619576 
L 361.977279 197.71051 
L 362.893912 194.642309 
L 363.810544 197.454826 
L 364.727177 198.835516 
L 365.643809 201.39235 
L 366.560441 201.034393 
L 367.477074 200.01166 
L 368.393706 197.966193 
L 369.310339 198.579833 
L 370.226971 198.119603 
L 371.143604 198.32415 
L 372.060236 195.86959 
L 372.976869 194.182079 
L 373.893501 195.56277 
L 375.726766 200.267343 
L 376.643398 200.77871 
L 377.560031 198.17074 
L 378.476663 198.01733 
L 379.393296 198.32415 
L 380.309928 197.966193 
L 381.226561 200.523026 
L 382.143193 199.142336 
L 383.059825 195.971863 
L 383.976458 198.01733 
L 384.89309 200.93212 
L 385.809723 202.31281 
L 387.642988 201.034393 
L 388.55962 202.415083 
L 389.476253 205.432147 
L 390.392885 204.30714 
L 391.309517 202.00599 
L 392.22615 200.880983 
L 393.142782 201.034393 
L 394.059415 200.062796 
L 394.976047 201.034393 
L 395.89268 200.574163 
L 397.725945 206.557153 
L 398.642577 207.98898 
L 399.559209 207.784433 
L 400.475842 209.113987 
L 401.392474 209.727627 
L 402.309107 212.13105 
L 403.225739 212.386734 
L 404.142372 212.795827 
L 405.059004 211.364 
L 405.975637 211.05718 
L 406.892269 213.256057 
L 409.642166 212.386734 
L 410.558799 211.159454 
L 411.475431 213.614014 
L 412.392064 214.58561 
L 413.308696 212.59128 
L 414.225329 214.227654 
L 415.141961 214.227654 
L 416.975226 216.528804 
L 417.891858 215.761754 
L 418.808491 215.557207 
L 419.725123 217.500401 
L 420.641756 217.346991 
L 421.558388 216.631077 
L 423.391653 214.176517 
L 424.308285 213.51174 
L 425.224918 213.81856 
L 426.14155 214.687884 
L 427.058183 214.534474 
L 427.974815 215.864027 
L 428.891448 216.886761 
L 429.80808 219.545867 
L 430.724713 221.182241 
L 431.641345 221.437924 
L 432.557977 229.722064 
L 433.47461 228.699331 
L 435.307875 231.972078 
L 436.224507 233.045948 
L 437.14114 233.557315 
L 438.057772 233.864135 
L 438.974405 230.335705 
L 439.891037 235.500508 
L 441.724302 240.051672 
L 442.640934 240.920995 
L 443.557567 241.636908 
L 444.474199 241.585772 
L 445.390832 243.375555 
L 447.224097 245.421022 
L 448.140729 246.034662 
L 449.057361 247.261942 
L 453.640524 247.671035 
L 455.473789 249.153999 
L 456.390421 250.534689 
L 457.307053 250.534689 
L 458.223686 251.352876 
L 459.140318 251.813106 
L 460.056951 252.119926 
L 460.973583 252.733566 
L 461.890216 253.602889 
L 462.806848 253.398342 
L 463.72348 253.654026 
L 464.640113 254.881306 
L 465.556745 255.188126 
L 467.39001 256.210859 
L 468.306643 256.466542 
L 470.139908 256.415406 
L 471.05654 256.619952 
L 471.973172 257.284729 
L 472.889805 257.438139 
L 474.72307 256.722226 
L 476.556335 256.722226 
L 477.472967 257.233592 
L 478.3896 257.233592 
L 479.306232 257.693822 
L 480.222864 257.642686 
L 481.139497 257.847232 
L 482.972762 258.000642 
L 483.889394 257.540412 
L 484.806027 257.847232 
L 485.722659 257.898369 
L 486.639292 258.102916 
L 487.555924 258.460873 
L 494.888984 259.176786 
L 495.805616 259.125649 
L 496.722248 259.330196 
L 498.555513 259.176786 
L 499.472146 259.381333 
L 500.388778 259.432469 
L 500.388778 259.432469 
" style="fill:none;stroke:#00ced1;stroke-linecap:square;stroke-width:3;"/>
   </g>
   <g id="line2d_34">
    <path clip-path="url(#p8a63197d96)" d="M 65.905 260.506339 
L 512.305 260.506339 
" style="fill:none;stroke:#808080;stroke-linecap:square;stroke-width:0.8;"/>
   </g>
   <g id="line2d_35">
    <path clip-path="url(#p8a63197d96)" d="M 346.394528 270.860625 
L 346.394528 64.292625 
" style="fill:none;stroke:#000000;stroke-dasharray:1.85,0.8;stroke-dashoffset:0;stroke-width:0.5;"/>
   </g>
   <g id="text_21">
    <!-- 06 -->
    <g style="fill:#4169e1;" transform="translate(276.580938 49.677188)scale(0.18 -0.18)">
     <defs>
      <path d="M 2944 2338 
Q 2944 3213 2780 3570 
Q 2616 3928 2228 3928 
Q 1841 3928 1675 3570 
Q 1509 3213 1509 2338 
Q 1509 1453 1675 1090 
Q 1841 728 2228 728 
Q 2613 728 2778 1090 
Q 2944 1453 2944 2338 
z
M 4147 2328 
Q 4147 1169 3647 539 
Q 3147 -91 2228 -91 
Q 1306 -91 806 539 
Q 306 1169 306 2328 
Q 306 3491 806 4120 
Q 1306 4750 2228 4750 
Q 3147 4750 3647 4120 
Q 4147 3491 4147 2328 
z
" id="DejaVuSans-Bold-30" transform="scale(0.015625)"/>
      <path d="M 2316 2303 
Q 2000 2303 1842 2098 
Q 1684 1894 1684 1484 
Q 1684 1075 1842 870 
Q 2000 666 2316 666 
Q 2634 666 2792 870 
Q 2950 1075 2950 1484 
Q 2950 1894 2792 2098 
Q 2634 2303 2316 2303 
z
M 3803 4544 
L 3803 3681 
Q 3506 3822 3243 3889 
Q 2981 3956 2731 3956 
Q 2194 3956 1894 3657 
Q 1594 3359 1544 2772 
Q 1750 2925 1990 3001 
Q 2231 3078 2516 3078 
Q 3231 3078 3670 2659 
Q 4109 2241 4109 1563 
Q 4109 813 3618 361 
Q 3128 -91 2303 -91 
Q 1394 -91 895 523 
Q 397 1138 397 2266 
Q 397 3422 980 4083 
Q 1563 4744 2578 4744 
Q 2900 4744 3203 4694 
Q 3506 4644 3803 4544 
z
" id="DejaVuSans-Bold-36" transform="scale(0.015625)"/>
     </defs>
     <use xlink:href="#DejaVuSans-Bold-30"/>
     <use x="69.580078" xlink:href="#DejaVuSans-Bold-36"/>
    </g>
   </g>
   <g id="legend_1">
    <g id="patch_6">
     <path d="M 418.841875 115.290375 
L 549.245 115.290375 
Q 551.445 115.290375 551.445 113.090375 
L 551.445 39.376625 
Q 551.445 37.176625 549.245 37.176625 
L 418.841875 37.176625 
Q 416.641875 37.176625 416.641875 39.376625 
L 416.641875 113.090375 
Q 416.641875 115.290375 418.841875 115.290375 
z
" style="fill:#ffffff;opacity:0.8;stroke:#cccccc;stroke-linejoin:miter;"/>
    </g>
    <g id="text_22">
     <!-- Cas positifs par semaine, -->
     <g transform="translate(421.041875 49.175062)scale(0.1 -0.1)">
      <defs>
       <path d="M 4122 4306 
L 4122 3641 
Q 3803 3938 3442 4084 
Q 3081 4231 2675 4231 
Q 1875 4231 1450 3742 
Q 1025 3253 1025 2328 
Q 1025 1406 1450 917 
Q 1875 428 2675 428 
Q 3081 428 3442 575 
Q 3803 722 4122 1019 
L 4122 359 
Q 3791 134 3420 21 
Q 3050 -91 2638 -91 
Q 1578 -91 968 557 
Q 359 1206 359 2328 
Q 359 3453 968 4101 
Q 1578 4750 2638 4750 
Q 3056 4750 3426 4639 
Q 3797 4528 4122 4306 
z
" id="DejaVuSans-43" transform="scale(0.015625)"/>
       <path id="DejaVuSans-20" transform="scale(0.015625)"/>
       <path d="M 750 794 
L 1409 794 
L 1409 256 
L 897 -744 
L 494 -744 
L 750 256 
L 750 794 
z
" id="DejaVuSans-2c" transform="scale(0.015625)"/>
      </defs>
      <use xlink:href="#DejaVuSans-43"/>
      <use x="69.824219" xlink:href="#DejaVuSans-61"/>
      <use x="131.103516" xlink:href="#DejaVuSans-73"/>
      <use x="183.203125" xlink:href="#DejaVuSans-20"/>
      <use x="214.990234" xlink:href="#DejaVuSans-70"/>
      <use x="278.466797" xlink:href="#DejaVuSans-6f"/>
      <use x="339.648438" xlink:href="#DejaVuSans-73"/>
      <use x="391.748047" xlink:href="#DejaVuSans-69"/>
      <use x="419.53125" xlink:href="#DejaVuSans-74"/>
      <use x="458.740234" xlink:href="#DejaVuSans-69"/>
      <use x="486.523438" xlink:href="#DejaVuSans-66"/>
      <use x="521.728516" xlink:href="#DejaVuSans-73"/>
      <use x="573.828125" xlink:href="#DejaVuSans-20"/>
      <use x="605.615234" xlink:href="#DejaVuSans-70"/>
      <use x="669.091797" xlink:href="#DejaVuSans-61"/>
      <use x="730.371094" xlink:href="#DejaVuSans-72"/>
      <use x="771.484375" xlink:href="#DejaVuSans-20"/>
      <use x="803.271484" xlink:href="#DejaVuSans-73"/>
      <use x="855.371094" xlink:href="#DejaVuSans-65"/>
      <use x="916.894531" xlink:href="#DejaVuSans-6d"/>
      <use x="1014.306641" xlink:href="#DejaVuSans-61"/>
      <use x="1075.585938" xlink:href="#DejaVuSans-69"/>
      <use x="1103.369141" xlink:href="#DejaVuSans-6e"/>
      <use x="1166.748047" xlink:href="#DejaVuSans-65"/>
      <use x="1228.271484" xlink:href="#DejaVuSans-2c"/>
     </g>
     <!-- pour 100 000 habitants -->
     <g transform="translate(425.177031 60.372875)scale(0.1 -0.1)">
      <defs>
       <path d="M 3513 2113 
L 3513 0 
L 2938 0 
L 2938 2094 
Q 2938 2591 2744 2837 
Q 2550 3084 2163 3084 
Q 1697 3084 1428 2787 
Q 1159 2491 1159 1978 
L 1159 0 
L 581 0 
L 581 4863 
L 1159 4863 
L 1159 2956 
Q 1366 3272 1645 3428 
Q 1925 3584 2291 3584 
Q 2894 3584 3203 3211 
Q 3513 2838 3513 2113 
z
" id="DejaVuSans-68" transform="scale(0.015625)"/>
       <path d="M 3116 1747 
Q 3116 2381 2855 2742 
Q 2594 3103 2138 3103 
Q 1681 3103 1420 2742 
Q 1159 2381 1159 1747 
Q 1159 1113 1420 752 
Q 1681 391 2138 391 
Q 2594 391 2855 752 
Q 3116 1113 3116 1747 
z
M 1159 2969 
Q 1341 3281 1617 3432 
Q 1894 3584 2278 3584 
Q 2916 3584 3314 3078 
Q 3713 2572 3713 1747 
Q 3713 922 3314 415 
Q 2916 -91 2278 -91 
Q 1894 -91 1617 61 
Q 1341 213 1159 525 
L 1159 0 
L 581 0 
L 581 4863 
L 1159 4863 
L 1159 2969 
z
" id="DejaVuSans-62" transform="scale(0.015625)"/>
      </defs>
      <use xlink:href="#DejaVuSans-70"/>
      <use x="63.476562" xlink:href="#DejaVuSans-6f"/>
      <use x="124.658203" xlink:href="#DejaVuSans-75"/>
      <use x="188.037109" xlink:href="#DejaVuSans-72"/>
      <use x="229.150391" xlink:href="#DejaVuSans-20"/>
      <use x="260.9375" xlink:href="#DejaVuSans-31"/>
      <use x="324.560547" xlink:href="#DejaVuSans-30"/>
      <use x="388.183594" xlink:href="#DejaVuSans-30"/>
      <use x="451.806641" xlink:href="#DejaVuSans-20"/>
      <use x="483.59375" xlink:href="#DejaVuSans-30"/>
      <use x="547.216797" xlink:href="#DejaVuSans-30"/>
      <use x="610.839844" xlink:href="#DejaVuSans-30"/>
      <use x="674.462891" xlink:href="#DejaVuSans-20"/>
      <use x="706.25" xlink:href="#DejaVuSans-68"/>
      <use x="769.628906" xlink:href="#DejaVuSans-61"/>
      <use x="830.908203" xlink:href="#DejaVuSans-62"/>
      <use x="894.384766" xlink:href="#DejaVuSans-69"/>
      <use x="922.167969" xlink:href="#DejaVuSans-74"/>
      <use x="961.376953" xlink:href="#DejaVuSans-61"/>
      <use x="1022.65625" xlink:href="#DejaVuSans-6e"/>
      <use x="1086.035156" xlink:href="#DejaVuSans-74"/>
      <use x="1125.244141" xlink:href="#DejaVuSans-73"/>
     </g>
    </g>
    <g id="line2d_36">
     <path d="M 438.180313 72.460844 
L 460.180313 72.460844 
" style="fill:none;stroke:#b22222;stroke-linecap:square;"/>
    </g>
    <g id="line2d_37"/>
    <g id="text_23">
     <!-- 0-29 ans -->
     <g transform="translate(465.680313 76.310844)scale(0.11 -0.11)">
      <defs>
       <path d="M 313 2009 
L 1997 2009 
L 1997 1497 
L 313 1497 
L 313 2009 
z
" id="DejaVuSans-2d" transform="scale(0.015625)"/>
       <path d="M 1228 531 
L 3431 531 
L 3431 0 
L 469 0 
L 469 531 
Q 828 903 1448 1529 
Q 2069 2156 2228 2338 
Q 2531 2678 2651 2914 
Q 2772 3150 2772 3378 
Q 2772 3750 2511 3984 
Q 2250 4219 1831 4219 
Q 1534 4219 1204 4116 
Q 875 4013 500 3803 
L 500 4441 
Q 881 4594 1212 4672 
Q 1544 4750 1819 4750 
Q 2544 4750 2975 4387 
Q 3406 4025 3406 3419 
Q 3406 3131 3298 2873 
Q 3191 2616 2906 2266 
Q 2828 2175 2409 1742 
Q 1991 1309 1228 531 
z
" id="DejaVuSans-32" transform="scale(0.015625)"/>
       <path d="M 703 97 
L 703 672 
Q 941 559 1184 500 
Q 1428 441 1663 441 
Q 2288 441 2617 861 
Q 2947 1281 2994 2138 
Q 2813 1869 2534 1725 
Q 2256 1581 1919 1581 
Q 1219 1581 811 2004 
Q 403 2428 403 3163 
Q 403 3881 828 4315 
Q 1253 4750 1959 4750 
Q 2769 4750 3195 4129 
Q 3622 3509 3622 2328 
Q 3622 1225 3098 567 
Q 2575 -91 1691 -91 
Q 1453 -91 1209 -44 
Q 966 3 703 97 
z
M 1959 2075 
Q 2384 2075 2632 2365 
Q 2881 2656 2881 3163 
Q 2881 3666 2632 3958 
Q 2384 4250 1959 4250 
Q 1534 4250 1286 3958 
Q 1038 3666 1038 3163 
Q 1038 2656 1286 2365 
Q 1534 2075 1959 2075 
z
" id="DejaVuSans-39" transform="scale(0.015625)"/>
      </defs>
      <use xlink:href="#DejaVuSans-30"/>
      <use x="63.623047" xlink:href="#DejaVuSans-2d"/>
      <use x="99.707031" xlink:href="#DejaVuSans-32"/>
      <use x="163.330078" xlink:href="#DejaVuSans-39"/>
      <use x="226.953125" xlink:href="#DejaVuSans-20"/>
      <use x="258.740234" xlink:href="#DejaVuSans-61"/>
      <use x="320.019531" xlink:href="#DejaVuSans-6e"/>
      <use x="383.398438" xlink:href="#DejaVuSans-73"/>
     </g>
    </g>
    <g id="line2d_38">
     <path d="M 438.180313 88.606781 
L 460.180313 88.606781 
" style="fill:none;stroke:#000000;stroke-linecap:square;stroke-width:1.5;"/>
    </g>
    <g id="line2d_39"/>
    <g id="text_24">
     <!-- 30-59 ans -->
     <g transform="translate(465.680313 92.456781)scale(0.11 -0.11)">
      <defs>
       <path d="M 2597 2516 
Q 3050 2419 3304 2112 
Q 3559 1806 3559 1356 
Q 3559 666 3084 287 
Q 2609 -91 1734 -91 
Q 1441 -91 1130 -33 
Q 819 25 488 141 
L 488 750 
Q 750 597 1062 519 
Q 1375 441 1716 441 
Q 2309 441 2620 675 
Q 2931 909 2931 1356 
Q 2931 1769 2642 2001 
Q 2353 2234 1838 2234 
L 1294 2234 
L 1294 2753 
L 1863 2753 
Q 2328 2753 2575 2939 
Q 2822 3125 2822 3475 
Q 2822 3834 2567 4026 
Q 2313 4219 1838 4219 
Q 1578 4219 1281 4162 
Q 984 4106 628 3988 
L 628 4550 
Q 988 4650 1302 4700 
Q 1616 4750 1894 4750 
Q 2613 4750 3031 4423 
Q 3450 4097 3450 3541 
Q 3450 3153 3228 2886 
Q 3006 2619 2597 2516 
z
" id="DejaVuSans-33" transform="scale(0.015625)"/>
      </defs>
      <use xlink:href="#DejaVuSans-33"/>
      <use x="63.623047" xlink:href="#DejaVuSans-30"/>
      <use x="127.246094" xlink:href="#DejaVuSans-2d"/>
      <use x="163.330078" xlink:href="#DejaVuSans-35"/>
      <use x="226.953125" xlink:href="#DejaVuSans-39"/>
      <use x="290.576172" xlink:href="#DejaVuSans-20"/>
      <use x="322.363281" xlink:href="#DejaVuSans-61"/>
      <use x="383.642578" xlink:href="#DejaVuSans-6e"/>
      <use x="447.021484" xlink:href="#DejaVuSans-73"/>
     </g>
    </g>
    <g id="line2d_40">
     <path d="M 438.180313 104.752719 
L 460.180313 104.752719 
" style="fill:none;stroke:#00ced1;stroke-linecap:square;stroke-width:3;"/>
    </g>
    <g id="line2d_41"/>
    <g id="text_25">
     <!-- 60 ans et + -->
     <g transform="translate(465.680313 108.602719)scale(0.11 -0.11)">
      <defs>
       <path d="M 2113 2584 
Q 1688 2584 1439 2293 
Q 1191 2003 1191 1497 
Q 1191 994 1439 701 
Q 1688 409 2113 409 
Q 2538 409 2786 701 
Q 3034 994 3034 1497 
Q 3034 2003 2786 2293 
Q 2538 2584 2113 2584 
z
M 3366 4563 
L 3366 3988 
Q 3128 4100 2886 4159 
Q 2644 4219 2406 4219 
Q 1781 4219 1451 3797 
Q 1122 3375 1075 2522 
Q 1259 2794 1537 2939 
Q 1816 3084 2150 3084 
Q 2853 3084 3261 2657 
Q 3669 2231 3669 1497 
Q 3669 778 3244 343 
Q 2819 -91 2113 -91 
Q 1303 -91 875 529 
Q 447 1150 447 2328 
Q 447 3434 972 4092 
Q 1497 4750 2381 4750 
Q 2619 4750 2861 4703 
Q 3103 4656 3366 4563 
z
" id="DejaVuSans-36" transform="scale(0.015625)"/>
       <path d="M 2944 4013 
L 2944 2272 
L 4684 2272 
L 4684 1741 
L 2944 1741 
L 2944 0 
L 2419 0 
L 2419 1741 
L 678 1741 
L 678 2272 
L 2419 2272 
L 2419 4013 
L 2944 4013 
z
" id="DejaVuSans-2b" transform="scale(0.015625)"/>
      </defs>
      <use xlink:href="#DejaVuSans-36"/>
      <use x="63.623047" xlink:href="#DejaVuSans-30"/>
      <use x="127.246094" xlink:href="#DejaVuSans-20"/>
      <use x="159.033203" xlink:href="#DejaVuSans-61"/>
      <use x="220.3125" xlink:href="#DejaVuSans-6e"/>
      <use x="283.691406" xlink:href="#DejaVuSans-73"/>
      <use x="335.791016" xlink:href="#DejaVuSans-20"/>
      <use x="367.578125" xlink:href="#DejaVuSans-65"/>
      <use x="429.101562" xlink:href="#DejaVuSans-74"/>
      <use x="468.310547" xlink:href="#DejaVuSans-20"/>
      <use x="500.097656" xlink:href="#DejaVuSans-2b"/>
     </g>
    </g>
   </g>
  </g>
 </g>
 <defs>
  <clipPath id="p8a63197d96">
   <rect height="217.44" width="446.4" x="65.905" y="53.420625"/>
  </clipPath>
 </defs>
</svg>
