<?xml version="1.0" encoding="utf-8" standalone="no"?>
<!DOCTYPE svg PUBLIC "-//W3C//DTD SVG 1.1//EN"
  "http://www.w3.org/Graphics/SVG/1.1/DTD/svg11.dtd">
<svg height="336.049967pt" version="1.1" viewBox="0 0 587.445 336.049967" width="587.445pt" xmlns="http://www.w3.org/2000/svg" xmlns:xlink="http://www.w3.org/1999/xlink">
 <metadata>
  <rdf:RDF xmlns:cc="http://creativecommons.org/ns#" xmlns:dc="http://purl.org/dc/elements/1.1/" xmlns:rdf="http://www.w3.org/1999/02/22-rdf-syntax-ns#">
   <cc:Work>
    <dc:type rdf:resource="http://purl.org/dc/dcmitype/StillImage"/>
    <dc:date>2021-06-21T23:46:31.904963</dc:date>
    <dc:format>image/svg+xml</dc:format>
    <dc:creator>
     <cc:Agent>
      <dc:title>Matplotlib v3.4.1, https://matplotlib.org/</dc:title>
     </cc:Agent>
    </dc:creator>
   </cc:Work>
  </rdf:RDF>
 </metadata>
 <defs>
  <style type="text/css">*{stroke-linecap:butt;stroke-linejoin:round;}</style>
 </defs>
 <g id="figure_1">
  <g id="patch_1">
   <path d="M 0 336.049967 
L 587.445 336.049967 
L 587.445 0 
L 0 0 
z
" style="fill:#ffffff;"/>
  </g>
  <g id="axes_1">
   <g id="patch_2">
    <path d="M 65.905 270.860625 
L 512.305 270.860625 
L 512.305 53.420625 
L 65.905 53.420625 
z
" style="fill:none;opacity:0;"/>
   </g>
   <g id="patch_3">
    <path clip-path="url(#pd31792c70a)" d="M 80.571119 270.860625 
L 80.571119 64.292625 
L 130.069271 64.292625 
L 130.069271 270.860625 
z
" style="fill:#808080;opacity:0.15;stroke:#808080;stroke-linejoin:miter;"/>
   </g>
   <g id="patch_4">
    <path clip-path="url(#pd31792c70a)" d="M 288.646684 270.860625 
L 288.646684 64.292625 
L 330.811776 64.292625 
L 330.811776 270.860625 
z
" style="fill:#808080;opacity:0.15;stroke:#808080;stroke-linejoin:miter;"/>
   </g>
   <g id="patch_5">
    <path clip-path="url(#pd31792c70a)" d="M 432.557977 270.860625 
L 432.557977 64.292625 
L 457.307053 64.292625 
L 457.307053 270.860625 
z
" style="fill:#808080;opacity:0.15;stroke:#808080;stroke-linejoin:miter;"/>
   </g>
   <g id="matplotlib.axis_1">
    <g id="xtick_1">
     <g id="line2d_1">
      <defs>
       <path d="M 0 0 
L 0 3.5 
" id="m2b337bf834" style="stroke:#000000;stroke-width:0.8;"/>
      </defs>
      <g>
       <use style="stroke:#000000;stroke-width:0.8;" x="65.905" xlink:href="#m2b337bf834" y="270.860625"/>
      </g>
     </g>
     <g id="text_1">
      <!-- mars -->
      <g transform="translate(54.710395 298.726462)rotate(-45)scale(0.09 -0.09)">
       <defs>
        <path d="M 3328 2828 
Q 3544 3216 3844 3400 
Q 4144 3584 4550 3584 
Q 5097 3584 5394 3201 
Q 5691 2819 5691 2113 
L 5691 0 
L 5113 0 
L 5113 2094 
Q 5113 2597 4934 2840 
Q 4756 3084 4391 3084 
Q 3944 3084 3684 2787 
Q 3425 2491 3425 1978 
L 3425 0 
L 2847 0 
L 2847 2094 
Q 2847 2600 2669 2842 
Q 2491 3084 2119 3084 
Q 1678 3084 1418 2786 
Q 1159 2488 1159 1978 
L 1159 0 
L 581 0 
L 581 3500 
L 1159 3500 
L 1159 2956 
Q 1356 3278 1631 3431 
Q 1906 3584 2284 3584 
Q 2666 3584 2933 3390 
Q 3200 3197 3328 2828 
z
" id="DejaVuSans-6d" transform="scale(0.015625)"/>
        <path d="M 2194 1759 
Q 1497 1759 1228 1600 
Q 959 1441 959 1056 
Q 959 750 1161 570 
Q 1363 391 1709 391 
Q 2188 391 2477 730 
Q 2766 1069 2766 1631 
L 2766 1759 
L 2194 1759 
z
M 3341 1997 
L 3341 0 
L 2766 0 
L 2766 531 
Q 2569 213 2275 61 
Q 1981 -91 1556 -91 
Q 1019 -91 701 211 
Q 384 513 384 1019 
Q 384 1609 779 1909 
Q 1175 2209 1959 2209 
L 2766 2209 
L 2766 2266 
Q 2766 2663 2505 2880 
Q 2244 3097 1772 3097 
Q 1472 3097 1187 3025 
Q 903 2953 641 2809 
L 641 3341 
Q 956 3463 1253 3523 
Q 1550 3584 1831 3584 
Q 2591 3584 2966 3190 
Q 3341 2797 3341 1997 
z
" id="DejaVuSans-61" transform="scale(0.015625)"/>
        <path d="M 2631 2963 
Q 2534 3019 2420 3045 
Q 2306 3072 2169 3072 
Q 1681 3072 1420 2755 
Q 1159 2438 1159 1844 
L 1159 0 
L 581 0 
L 581 3500 
L 1159 3500 
L 1159 2956 
Q 1341 3275 1631 3429 
Q 1922 3584 2338 3584 
Q 2397 3584 2469 3576 
Q 2541 3569 2628 3553 
L 2631 2963 
z
" id="DejaVuSans-72" transform="scale(0.015625)"/>
        <path d="M 2834 3397 
L 2834 2853 
Q 2591 2978 2328 3040 
Q 2066 3103 1784 3103 
Q 1356 3103 1142 2972 
Q 928 2841 928 2578 
Q 928 2378 1081 2264 
Q 1234 2150 1697 2047 
L 1894 2003 
Q 2506 1872 2764 1633 
Q 3022 1394 3022 966 
Q 3022 478 2636 193 
Q 2250 -91 1575 -91 
Q 1294 -91 989 -36 
Q 684 19 347 128 
L 347 722 
Q 666 556 975 473 
Q 1284 391 1588 391 
Q 1994 391 2212 530 
Q 2431 669 2431 922 
Q 2431 1156 2273 1281 
Q 2116 1406 1581 1522 
L 1381 1569 
Q 847 1681 609 1914 
Q 372 2147 372 2553 
Q 372 3047 722 3315 
Q 1072 3584 1716 3584 
Q 2034 3584 2315 3537 
Q 2597 3491 2834 3397 
z
" id="DejaVuSans-73" transform="scale(0.015625)"/>
       </defs>
       <use xlink:href="#DejaVuSans-6d"/>
       <use x="97.412109" xlink:href="#DejaVuSans-61"/>
       <use x="158.691406" xlink:href="#DejaVuSans-72"/>
       <use x="199.804688" xlink:href="#DejaVuSans-73"/>
      </g>
     </g>
    </g>
    <g id="xtick_2">
     <g id="line2d_2">
      <g>
       <use style="stroke:#000000;stroke-width:0.8;" x="94.320606" xlink:href="#m2b337bf834" y="270.860625"/>
      </g>
     </g>
     <g id="text_2">
      <!-- avril -->
      <g transform="translate(85.337477 296.514986)rotate(-45)scale(0.09 -0.09)">
       <defs>
        <path d="M 191 3500 
L 800 3500 
L 1894 563 
L 2988 3500 
L 3597 3500 
L 2284 0 
L 1503 0 
L 191 3500 
z
" id="DejaVuSans-76" transform="scale(0.015625)"/>
        <path d="M 603 3500 
L 1178 3500 
L 1178 0 
L 603 0 
L 603 3500 
z
M 603 4863 
L 1178 4863 
L 1178 4134 
L 603 4134 
L 603 4863 
z
" id="DejaVuSans-69" transform="scale(0.015625)"/>
        <path d="M 603 4863 
L 1178 4863 
L 1178 0 
L 603 0 
L 603 4863 
z
" id="DejaVuSans-6c" transform="scale(0.015625)"/>
       </defs>
       <use xlink:href="#DejaVuSans-61"/>
       <use x="61.279297" xlink:href="#DejaVuSans-76"/>
       <use x="120.458984" xlink:href="#DejaVuSans-72"/>
       <use x="161.572266" xlink:href="#DejaVuSans-69"/>
       <use x="189.355469" xlink:href="#DejaVuSans-6c"/>
      </g>
     </g>
    </g>
    <g id="xtick_3">
     <g id="line2d_3">
      <g>
       <use style="stroke:#000000;stroke-width:0.8;" x="121.819579" xlink:href="#m2b337bf834" y="270.860625"/>
      </g>
     </g>
     <g id="text_3">
      <!-- mai -->
      <g transform="translate(114.788396 294.56304)rotate(-45)scale(0.09 -0.09)">
       <use xlink:href="#DejaVuSans-6d"/>
       <use x="97.412109" xlink:href="#DejaVuSans-61"/>
       <use x="158.691406" xlink:href="#DejaVuSans-69"/>
      </g>
     </g>
    </g>
    <g id="xtick_4">
     <g id="line2d_4">
      <g>
       <use style="stroke:#000000;stroke-width:0.8;" x="150.235185" xlink:href="#m2b337bf834" y="270.860625"/>
      </g>
     </g>
     <g id="text_4">
      <!-- juin -->
      <g transform="translate(143.468504 294.298537)rotate(-45)scale(0.09 -0.09)">
       <defs>
        <path d="M 603 3500 
L 1178 3500 
L 1178 -63 
Q 1178 -731 923 -1031 
Q 669 -1331 103 -1331 
L -116 -1331 
L -116 -844 
L 38 -844 
Q 366 -844 484 -692 
Q 603 -541 603 -63 
L 603 3500 
z
M 603 4863 
L 1178 4863 
L 1178 4134 
L 603 4134 
L 603 4863 
z
" id="DejaVuSans-6a" transform="scale(0.015625)"/>
        <path d="M 544 1381 
L 544 3500 
L 1119 3500 
L 1119 1403 
Q 1119 906 1312 657 
Q 1506 409 1894 409 
Q 2359 409 2629 706 
Q 2900 1003 2900 1516 
L 2900 3500 
L 3475 3500 
L 3475 0 
L 2900 0 
L 2900 538 
Q 2691 219 2414 64 
Q 2138 -91 1772 -91 
Q 1169 -91 856 284 
Q 544 659 544 1381 
z
M 1991 3584 
L 1991 3584 
z
" id="DejaVuSans-75" transform="scale(0.015625)"/>
        <path d="M 3513 2113 
L 3513 0 
L 2938 0 
L 2938 2094 
Q 2938 2591 2744 2837 
Q 2550 3084 2163 3084 
Q 1697 3084 1428 2787 
Q 1159 2491 1159 1978 
L 1159 0 
L 581 0 
L 581 3500 
L 1159 3500 
L 1159 2956 
Q 1366 3272 1645 3428 
Q 1925 3584 2291 3584 
Q 2894 3584 3203 3211 
Q 3513 2838 3513 2113 
z
" id="DejaVuSans-6e" transform="scale(0.015625)"/>
       </defs>
       <use xlink:href="#DejaVuSans-6a"/>
       <use x="27.783203" xlink:href="#DejaVuSans-75"/>
       <use x="91.162109" xlink:href="#DejaVuSans-69"/>
       <use x="118.945312" xlink:href="#DejaVuSans-6e"/>
      </g>
     </g>
    </g>
    <g id="xtick_5">
     <g id="line2d_5">
      <g>
       <use style="stroke:#000000;stroke-width:0.8;" x="177.734158" xlink:href="#m2b337bf834" y="270.860625"/>
      </g>
     </g>
     <g id="text_5">
      <!-- juil. -->
      <g transform="translate(171.210104 294.055911)rotate(-45)scale(0.09 -0.09)">
       <defs>
        <path d="M 684 794 
L 1344 794 
L 1344 0 
L 684 0 
L 684 794 
z
" id="DejaVuSans-2e" transform="scale(0.015625)"/>
       </defs>
       <use xlink:href="#DejaVuSans-6a"/>
       <use x="27.783203" xlink:href="#DejaVuSans-75"/>
       <use x="91.162109" xlink:href="#DejaVuSans-69"/>
       <use x="118.945312" xlink:href="#DejaVuSans-6c"/>
       <use x="146.728516" xlink:href="#DejaVuSans-2e"/>
      </g>
     </g>
    </g>
    <g id="xtick_6">
     <g id="line2d_6">
      <g>
       <use style="stroke:#000000;stroke-width:0.8;" x="206.149764" xlink:href="#m2b337bf834" y="270.860625"/>
      </g>
     </g>
     <g id="text_6">
      <!-- août -->
      <g transform="translate(196.663484 297.018136)rotate(-45)scale(0.09 -0.09)">
       <defs>
        <path d="M 1959 3097 
Q 1497 3097 1228 2736 
Q 959 2375 959 1747 
Q 959 1119 1226 758 
Q 1494 397 1959 397 
Q 2419 397 2687 759 
Q 2956 1122 2956 1747 
Q 2956 2369 2687 2733 
Q 2419 3097 1959 3097 
z
M 1959 3584 
Q 2709 3584 3137 3096 
Q 3566 2609 3566 1747 
Q 3566 888 3137 398 
Q 2709 -91 1959 -91 
Q 1206 -91 779 398 
Q 353 888 353 1747 
Q 353 2609 779 3096 
Q 1206 3584 1959 3584 
z
" id="DejaVuSans-6f" transform="scale(0.015625)"/>
        <path d="M 544 1381 
L 544 3500 
L 1119 3500 
L 1119 1403 
Q 1119 906 1312 657 
Q 1506 409 1894 409 
Q 2359 409 2629 706 
Q 2900 1003 2900 1516 
L 2900 3500 
L 3475 3500 
L 3475 0 
L 2900 0 
L 2900 538 
Q 2691 219 2414 64 
Q 2138 -91 1772 -91 
Q 1169 -91 856 284 
Q 544 659 544 1381 
z
M 1991 3584 
L 1991 3584 
z
M 1753 5119 
L 2215 5119 
L 2981 3944 
L 2547 3944 
L 1984 4709 
L 1422 3944 
L 987 3944 
L 1753 5119 
z
" id="DejaVuSans-fb" transform="scale(0.015625)"/>
        <path d="M 1172 4494 
L 1172 3500 
L 2356 3500 
L 2356 3053 
L 1172 3053 
L 1172 1153 
Q 1172 725 1289 603 
Q 1406 481 1766 481 
L 2356 481 
L 2356 0 
L 1766 0 
Q 1100 0 847 248 
Q 594 497 594 1153 
L 594 3053 
L 172 3053 
L 172 3500 
L 594 3500 
L 594 4494 
L 1172 4494 
z
" id="DejaVuSans-74" transform="scale(0.015625)"/>
       </defs>
       <use xlink:href="#DejaVuSans-61"/>
       <use x="61.279297" xlink:href="#DejaVuSans-6f"/>
       <use x="122.460938" xlink:href="#DejaVuSans-fb"/>
       <use x="185.839844" xlink:href="#DejaVuSans-74"/>
      </g>
     </g>
    </g>
    <g id="xtick_7">
     <g id="line2d_7">
      <g>
       <use style="stroke:#000000;stroke-width:0.8;" x="234.56537" xlink:href="#m2b337bf834" y="270.860625"/>
      </g>
     </g>
     <g id="text_7">
      <!-- sept. -->
      <g transform="translate(223.612396 298.484831)rotate(-45)scale(0.09 -0.09)">
       <defs>
        <path d="M 3597 1894 
L 3597 1613 
L 953 1613 
Q 991 1019 1311 708 
Q 1631 397 2203 397 
Q 2534 397 2845 478 
Q 3156 559 3463 722 
L 3463 178 
Q 3153 47 2828 -22 
Q 2503 -91 2169 -91 
Q 1331 -91 842 396 
Q 353 884 353 1716 
Q 353 2575 817 3079 
Q 1281 3584 2069 3584 
Q 2775 3584 3186 3129 
Q 3597 2675 3597 1894 
z
M 3022 2063 
Q 3016 2534 2758 2815 
Q 2500 3097 2075 3097 
Q 1594 3097 1305 2825 
Q 1016 2553 972 2059 
L 3022 2063 
z
" id="DejaVuSans-65" transform="scale(0.015625)"/>
        <path d="M 1159 525 
L 1159 -1331 
L 581 -1331 
L 581 3500 
L 1159 3500 
L 1159 2969 
Q 1341 3281 1617 3432 
Q 1894 3584 2278 3584 
Q 2916 3584 3314 3078 
Q 3713 2572 3713 1747 
Q 3713 922 3314 415 
Q 2916 -91 2278 -91 
Q 1894 -91 1617 61 
Q 1341 213 1159 525 
z
M 3116 1747 
Q 3116 2381 2855 2742 
Q 2594 3103 2138 3103 
Q 1681 3103 1420 2742 
Q 1159 2381 1159 1747 
Q 1159 1113 1420 752 
Q 1681 391 2138 391 
Q 2594 391 2855 752 
Q 3116 1113 3116 1747 
z
" id="DejaVuSans-70" transform="scale(0.015625)"/>
       </defs>
       <use xlink:href="#DejaVuSans-73"/>
       <use x="52.099609" xlink:href="#DejaVuSans-65"/>
       <use x="113.623047" xlink:href="#DejaVuSans-70"/>
       <use x="177.099609" xlink:href="#DejaVuSans-74"/>
       <use x="216.308594" xlink:href="#DejaVuSans-2e"/>
      </g>
     </g>
    </g>
    <g id="xtick_8">
     <g id="line2d_8">
      <g>
       <use style="stroke:#000000;stroke-width:0.8;" x="262.064343" xlink:href="#m2b337bf834" y="270.860625"/>
      </g>
     </g>
     <g id="text_8">
      <!-- oct. -->
      <g transform="translate(254.989408 294.606792)rotate(-45)scale(0.09 -0.09)">
       <defs>
        <path d="M 3122 3366 
L 3122 2828 
Q 2878 2963 2633 3030 
Q 2388 3097 2138 3097 
Q 1578 3097 1268 2742 
Q 959 2388 959 1747 
Q 959 1106 1268 751 
Q 1578 397 2138 397 
Q 2388 397 2633 464 
Q 2878 531 3122 666 
L 3122 134 
Q 2881 22 2623 -34 
Q 2366 -91 2075 -91 
Q 1284 -91 818 406 
Q 353 903 353 1747 
Q 353 2603 823 3093 
Q 1294 3584 2113 3584 
Q 2378 3584 2631 3529 
Q 2884 3475 3122 3366 
z
" id="DejaVuSans-63" transform="scale(0.015625)"/>
       </defs>
       <use xlink:href="#DejaVuSans-6f"/>
       <use x="61.181641" xlink:href="#DejaVuSans-63"/>
       <use x="116.162109" xlink:href="#DejaVuSans-74"/>
       <use x="155.371094" xlink:href="#DejaVuSans-2e"/>
      </g>
     </g>
    </g>
    <g id="xtick_9">
     <g id="line2d_9">
      <g>
       <use style="stroke:#000000;stroke-width:0.8;" x="290.479949" xlink:href="#m2b337bf834" y="270.860625"/>
      </g>
     </g>
     <g id="text_9">
      <!-- nov. -->
      <g transform="translate(282.092447 295.919359)rotate(-45)scale(0.09 -0.09)">
       <use xlink:href="#DejaVuSans-6e"/>
       <use x="63.378906" xlink:href="#DejaVuSans-6f"/>
       <use x="124.560547" xlink:href="#DejaVuSans-76"/>
       <use x="175.990234" xlink:href="#DejaVuSans-2e"/>
      </g>
     </g>
    </g>
    <g id="xtick_10">
     <g id="line2d_10">
      <g>
       <use style="stroke:#000000;stroke-width:0.8;" x="317.978922" xlink:href="#m2b337bf834" y="270.860625"/>
      </g>
     </g>
     <g id="text_10">
      <!-- déc. -->
      <g transform="translate(309.336862 296.173917)rotate(-45)scale(0.09 -0.09)">
       <defs>
        <path d="M 2906 2969 
L 2906 4863 
L 3481 4863 
L 3481 0 
L 2906 0 
L 2906 525 
Q 2725 213 2448 61 
Q 2172 -91 1784 -91 
Q 1150 -91 751 415 
Q 353 922 353 1747 
Q 353 2572 751 3078 
Q 1150 3584 1784 3584 
Q 2172 3584 2448 3432 
Q 2725 3281 2906 2969 
z
M 947 1747 
Q 947 1113 1208 752 
Q 1469 391 1925 391 
Q 2381 391 2643 752 
Q 2906 1113 2906 1747 
Q 2906 2381 2643 2742 
Q 2381 3103 1925 3103 
Q 1469 3103 1208 2742 
Q 947 2381 947 1747 
z
" id="DejaVuSans-64" transform="scale(0.015625)"/>
        <path d="M 3597 1894 
L 3597 1613 
L 953 1613 
Q 991 1019 1311 708 
Q 1631 397 2203 397 
Q 2534 397 2845 478 
Q 3156 559 3463 722 
L 3463 178 
Q 3153 47 2828 -22 
Q 2503 -91 2169 -91 
Q 1331 -91 842 396 
Q 353 884 353 1716 
Q 353 2575 817 3079 
Q 1281 3584 2069 3584 
Q 2775 3584 3186 3129 
Q 3597 2675 3597 1894 
z
M 3022 2063 
Q 3016 2534 2758 2815 
Q 2500 3097 2075 3097 
Q 1594 3097 1305 2825 
Q 1016 2553 972 2059 
L 3022 2063 
z
M 2466 5119 
L 3088 5119 
L 2070 3944 
L 1591 3944 
L 2466 5119 
z
" id="DejaVuSans-e9" transform="scale(0.015625)"/>
       </defs>
       <use xlink:href="#DejaVuSans-64"/>
       <use x="63.476562" xlink:href="#DejaVuSans-e9"/>
       <use x="125" xlink:href="#DejaVuSans-63"/>
       <use x="179.980469" xlink:href="#DejaVuSans-2e"/>
      </g>
     </g>
    </g>
    <g id="xtick_11">
     <g id="line2d_11">
      <g>
       <use style="stroke:#000000;stroke-width:0.8;" x="346.394528" xlink:href="#m2b337bf834" y="270.860625"/>
      </g>
     </g>
     <g id="text_11">
      <!-- janv. -->
      <g transform="translate(336.233072 297.693313)rotate(-45)scale(0.09 -0.09)">
       <use xlink:href="#DejaVuSans-6a"/>
       <use x="27.783203" xlink:href="#DejaVuSans-61"/>
       <use x="89.0625" xlink:href="#DejaVuSans-6e"/>
       <use x="152.441406" xlink:href="#DejaVuSans-76"/>
       <use x="203.871094" xlink:href="#DejaVuSans-2e"/>
      </g>
     </g>
    </g>
    <g id="xtick_12">
     <g id="line2d_12">
      <g>
       <use style="stroke:#000000;stroke-width:0.8;" x="374.810133" xlink:href="#m2b337bf834" y="270.860625"/>
      </g>
     </g>
     <g id="text_12">
      <!-- fév. -->
      <g transform="translate(368.193603 294.148388)rotate(-45)scale(0.09 -0.09)">
       <defs>
        <path d="M 2375 4863 
L 2375 4384 
L 1825 4384 
Q 1516 4384 1395 4259 
Q 1275 4134 1275 3809 
L 1275 3500 
L 2222 3500 
L 2222 3053 
L 1275 3053 
L 1275 0 
L 697 0 
L 697 3053 
L 147 3053 
L 147 3500 
L 697 3500 
L 697 3744 
Q 697 4328 969 4595 
Q 1241 4863 1831 4863 
L 2375 4863 
z
" id="DejaVuSans-66" transform="scale(0.015625)"/>
       </defs>
       <use xlink:href="#DejaVuSans-66"/>
       <use x="35.205078" xlink:href="#DejaVuSans-e9"/>
       <use x="96.728516" xlink:href="#DejaVuSans-76"/>
       <use x="148.158203" xlink:href="#DejaVuSans-2e"/>
      </g>
     </g>
    </g>
    <g id="xtick_13">
     <g id="line2d_13">
      <g>
       <use style="stroke:#000000;stroke-width:0.8;" x="400.475842" xlink:href="#m2b337bf834" y="270.860625"/>
      </g>
     </g>
     <g id="text_13">
      <!-- mars -->
      <g transform="translate(389.281237 298.726462)rotate(-45)scale(0.09 -0.09)">
       <use xlink:href="#DejaVuSans-6d"/>
       <use x="97.412109" xlink:href="#DejaVuSans-61"/>
       <use x="158.691406" xlink:href="#DejaVuSans-72"/>
       <use x="199.804688" xlink:href="#DejaVuSans-73"/>
      </g>
     </g>
    </g>
    <g id="xtick_14">
     <g id="line2d_14">
      <g>
       <use style="stroke:#000000;stroke-width:0.8;" x="428.891448" xlink:href="#m2b337bf834" y="270.860625"/>
      </g>
     </g>
     <g id="text_14">
      <!-- avril -->
      <g transform="translate(419.908319 296.514986)rotate(-45)scale(0.09 -0.09)">
       <use xlink:href="#DejaVuSans-61"/>
       <use x="61.279297" xlink:href="#DejaVuSans-76"/>
       <use x="120.458984" xlink:href="#DejaVuSans-72"/>
       <use x="161.572266" xlink:href="#DejaVuSans-69"/>
       <use x="189.355469" xlink:href="#DejaVuSans-6c"/>
      </g>
     </g>
    </g>
    <g id="xtick_15">
     <g id="line2d_15">
      <g>
       <use style="stroke:#000000;stroke-width:0.8;" x="456.390421" xlink:href="#m2b337bf834" y="270.860625"/>
      </g>
     </g>
     <g id="text_15">
      <!-- mai -->
      <g transform="translate(449.359238 294.56304)rotate(-45)scale(0.09 -0.09)">
       <use xlink:href="#DejaVuSans-6d"/>
       <use x="97.412109" xlink:href="#DejaVuSans-61"/>
       <use x="158.691406" xlink:href="#DejaVuSans-69"/>
      </g>
     </g>
    </g>
    <g id="xtick_16">
     <g id="line2d_16">
      <g>
       <use style="stroke:#000000;stroke-width:0.8;" x="484.806027" xlink:href="#m2b337bf834" y="270.860625"/>
      </g>
     </g>
     <g id="text_16">
      <!-- juin -->
      <g transform="translate(478.039346 294.298537)rotate(-45)scale(0.09 -0.09)">
       <use xlink:href="#DejaVuSans-6a"/>
       <use x="27.783203" xlink:href="#DejaVuSans-75"/>
       <use x="91.162109" xlink:href="#DejaVuSans-69"/>
       <use x="118.945312" xlink:href="#DejaVuSans-6e"/>
      </g>
     </g>
    </g>
    <g id="xtick_17">
     <g id="line2d_17">
      <g>
       <use style="stroke:#000000;stroke-width:0.8;" x="512.305" xlink:href="#m2b337bf834" y="270.860625"/>
      </g>
     </g>
     <g id="text_17">
      <!-- juil. -->
      <g transform="translate(505.780946 294.055911)rotate(-45)scale(0.09 -0.09)">
       <use xlink:href="#DejaVuSans-6a"/>
       <use x="27.783203" xlink:href="#DejaVuSans-75"/>
       <use x="91.162109" xlink:href="#DejaVuSans-69"/>
       <use x="118.945312" xlink:href="#DejaVuSans-6c"/>
       <use x="146.728516" xlink:href="#DejaVuSans-2e"/>
      </g>
     </g>
    </g>
   </g>
   <g id="matplotlib.axis_2">
    <g id="ytick_1">
     <g id="line2d_18">
      <path clip-path="url(#pd31792c70a)" d="M 65.905 260.506339 
L 512.305 260.506339 
" style="fill:none;stroke:#b0b0b0;stroke-linecap:square;stroke-opacity:0.5;stroke-width:0.8;"/>
     </g>
     <g id="text_18">
      <!-- 0 -->
      <g transform="translate(53.17875 263.925636)scale(0.09 -0.09)">
       <defs>
        <path d="M 2034 4250 
Q 1547 4250 1301 3770 
Q 1056 3291 1056 2328 
Q 1056 1369 1301 889 
Q 1547 409 2034 409 
Q 2525 409 2770 889 
Q 3016 1369 3016 2328 
Q 3016 3291 2770 3770 
Q 2525 4250 2034 4250 
z
M 2034 4750 
Q 2819 4750 3233 4129 
Q 3647 3509 3647 2328 
Q 3647 1150 3233 529 
Q 2819 -91 2034 -91 
Q 1250 -91 836 529 
Q 422 1150 422 2328 
Q 422 3509 836 4129 
Q 1250 4750 2034 4750 
z
" id="DejaVuSans-30" transform="scale(0.015625)"/>
       </defs>
       <use xlink:href="#DejaVuSans-30"/>
      </g>
     </g>
    </g>
    <g id="ytick_2">
     <g id="line2d_19">
      <path clip-path="url(#pd31792c70a)" d="M 65.905 174.220625 
L 512.305 174.220625 
" style="fill:none;stroke:#b0b0b0;stroke-linecap:square;stroke-opacity:0.5;stroke-width:0.8;"/>
     </g>
     <g id="text_19">
      <!-- 500 -->
      <g transform="translate(41.72625 177.639922)scale(0.09 -0.09)">
       <defs>
        <path d="M 691 4666 
L 3169 4666 
L 3169 4134 
L 1269 4134 
L 1269 2991 
Q 1406 3038 1543 3061 
Q 1681 3084 1819 3084 
Q 2600 3084 3056 2656 
Q 3513 2228 3513 1497 
Q 3513 744 3044 326 
Q 2575 -91 1722 -91 
Q 1428 -91 1123 -41 
Q 819 9 494 109 
L 494 744 
Q 775 591 1075 516 
Q 1375 441 1709 441 
Q 2250 441 2565 725 
Q 2881 1009 2881 1497 
Q 2881 1984 2565 2268 
Q 2250 2553 1709 2553 
Q 1456 2553 1204 2497 
Q 953 2441 691 2322 
L 691 4666 
z
" id="DejaVuSans-35" transform="scale(0.015625)"/>
       </defs>
       <use xlink:href="#DejaVuSans-35"/>
       <use x="63.623047" xlink:href="#DejaVuSans-30"/>
       <use x="127.246094" xlink:href="#DejaVuSans-30"/>
      </g>
     </g>
    </g>
    <g id="ytick_3">
     <g id="line2d_20">
      <path clip-path="url(#pd31792c70a)" d="M 65.905 87.934911 
L 512.305 87.934911 
" style="fill:none;stroke:#b0b0b0;stroke-linecap:square;stroke-opacity:0.5;stroke-width:0.8;"/>
     </g>
     <g id="text_20">
      <!-- 1000 -->
      <g transform="translate(36 91.354208)scale(0.09 -0.09)">
       <defs>
        <path d="M 794 531 
L 1825 531 
L 1825 4091 
L 703 3866 
L 703 4441 
L 1819 4666 
L 2450 4666 
L 2450 531 
L 3481 531 
L 3481 0 
L 794 0 
L 794 531 
z
" id="DejaVuSans-31" transform="scale(0.015625)"/>
       </defs>
       <use xlink:href="#DejaVuSans-31"/>
       <use x="63.623047" xlink:href="#DejaVuSans-30"/>
       <use x="127.246094" xlink:href="#DejaVuSans-30"/>
       <use x="190.869141" xlink:href="#DejaVuSans-30"/>
      </g>
     </g>
    </g>
    <g id="ytick_4">
     <g id="line2d_21">
      <path clip-path="url(#pd31792c70a)" d="M 65.905 243.249196 
L 512.305 243.249196 
" style="fill:none;stroke:#b0b0b0;stroke-linecap:square;stroke-opacity:0.2;stroke-width:0.8;"/>
     </g>
    </g>
    <g id="ytick_5">
     <g id="line2d_22">
      <path clip-path="url(#pd31792c70a)" d="M 65.905 225.992054 
L 512.305 225.992054 
" style="fill:none;stroke:#b0b0b0;stroke-linecap:square;stroke-opacity:0.2;stroke-width:0.8;"/>
     </g>
    </g>
    <g id="ytick_6">
     <g id="line2d_23">
      <path clip-path="url(#pd31792c70a)" d="M 65.905 208.734911 
L 512.305 208.734911 
" style="fill:none;stroke:#b0b0b0;stroke-linecap:square;stroke-opacity:0.2;stroke-width:0.8;"/>
     </g>
    </g>
    <g id="ytick_7">
     <g id="line2d_24">
      <path clip-path="url(#pd31792c70a)" d="M 65.905 191.477768 
L 512.305 191.477768 
" style="fill:none;stroke:#b0b0b0;stroke-linecap:square;stroke-opacity:0.2;stroke-width:0.8;"/>
     </g>
    </g>
    <g id="ytick_8">
     <g id="line2d_25">
      <path clip-path="url(#pd31792c70a)" d="M 65.905 156.963482 
L 512.305 156.963482 
" style="fill:none;stroke:#b0b0b0;stroke-linecap:square;stroke-opacity:0.2;stroke-width:0.8;"/>
     </g>
    </g>
    <g id="ytick_9">
     <g id="line2d_26">
      <path clip-path="url(#pd31792c70a)" d="M 65.905 139.706339 
L 512.305 139.706339 
" style="fill:none;stroke:#b0b0b0;stroke-linecap:square;stroke-opacity:0.2;stroke-width:0.8;"/>
     </g>
    </g>
    <g id="ytick_10">
     <g id="line2d_27">
      <path clip-path="url(#pd31792c70a)" d="M 65.905 122.449196 
L 512.305 122.449196 
" style="fill:none;stroke:#b0b0b0;stroke-linecap:square;stroke-opacity:0.2;stroke-width:0.8;"/>
     </g>
    </g>
    <g id="ytick_11">
     <g id="line2d_28">
      <path clip-path="url(#pd31792c70a)" d="M 65.905 105.192054 
L 512.305 105.192054 
" style="fill:none;stroke:#b0b0b0;stroke-linecap:square;stroke-opacity:0.2;stroke-width:0.8;"/>
     </g>
    </g>
    <g id="ytick_12">
     <g id="line2d_29">
      <path clip-path="url(#pd31792c70a)" d="M 65.905 70.677768 
L 512.305 70.677768 
" style="fill:none;stroke:#b0b0b0;stroke-linecap:square;stroke-opacity:0.2;stroke-width:0.8;"/>
     </g>
    </g>
   </g>
   <g id="line2d_30">
    <path clip-path="url(#pd31792c70a)" d="M 65.905 255.551413 
L 512.305 255.551413 
" style="fill:none;stroke:#00ced1;stroke-linecap:square;stroke-width:0.8;"/>
   </g>
   <g id="line2d_31">
    <path clip-path="url(#pd31792c70a)" d="M 132.819168 260.506339 
L 137.402331 260.506339 
L 138.318963 259.579221 
L 141.06886 259.945189 
L 145.652023 259.750006 
L 147.485287 259.481629 
L 149.318552 259.554823 
L 152.06845 259.871995 
L 152.985082 259.871995 
L 153.901715 260.018382 
L 159.401509 259.969586 
L 160.318142 259.652414 
L 162.151407 259.676812 
L 163.068039 259.579221 
L 165.817936 259.603618 
L 166.734569 259.847597 
L 169.484466 259.847597 
L 170.401099 259.579221 
L 171.317731 259.579221 
L 172.234363 259.457231 
L 174.067628 259.408436 
L 180.484055 259.310844 
L 182.31732 259.262048 
L 185.067218 259.506027 
L 185.98385 259.01807 
L 187.817115 259.140059 
L 188.733747 258.969274 
L 189.65038 259.091263 
L 190.567012 259.01807 
L 191.483645 258.822887 
L 192.400277 259.35964 
L 194.233542 259.262048 
L 195.150175 259.262048 
L 196.983439 258.505715 
L 200.649969 257.895768 
L 201.566602 257.505403 
L 202.483234 257.285822 
L 203.399867 256.651477 
L 204.316499 256.431897 
L 205.233131 256.017133 
L 206.149764 255.870746 
L 207.983029 255.895144 
L 208.899661 255.455982 
L 209.816294 255.431584 
L 211.649559 254.358079 
L 213.482823 254.236089 
L 214.399456 253.504154 
L 215.316088 253.284573 
L 218.065986 251.869497 
L 218.982618 252.06468 
L 219.899251 251.991486 
L 220.815883 251.25955 
L 223.56578 248.478194 
L 224.482413 247.209506 
L 225.399045 246.623957 
L 226.315678 246.453172 
L 227.23231 245.135688 
L 228.148943 243.525429 
L 229.065575 242.7203 
L 229.982207 241.622396 
L 230.89884 240.744073 
L 231.815472 240.353707 
L 232.732105 240.231718 
L 234.56537 239.377793 
L 235.482002 238.426276 
L 236.398634 238.621459 
L 237.315267 238.621459 
L 238.231899 238.401878 
L 239.148532 238.353083 
L 240.981797 236.742824 
L 241.898429 236.181673 
L 242.815062 234.693404 
L 243.731694 233.497909 
L 245.564959 233.888274 
L 246.481591 232.961156 
L 247.398224 232.521994 
L 248.314856 231.692467 
L 249.231489 231.20451 
L 250.148121 231.424091 
L 251.981386 230.570166 
L 252.898018 230.936133 
L 253.814651 230.86294 
L 254.731283 231.765661 
L 255.647916 231.741263 
L 256.564548 231.594876 
L 258.397813 232.082833 
L 259.314446 232.521994 
L 260.231078 233.278328 
L 261.14771 233.083145 
L 262.064343 232.521994 
L 262.980975 230.350585 
L 263.897608 229.49666 
L 264.81424 229.228283 
L 266.647505 223.470388 
L 267.564138 221.055 
L 268.48077 218.273644 
L 269.397402 217.688096 
L 270.314035 216.907364 
L 271.230667 216.834171 
L 272.1473 213.369675 
L 274.897197 208.148533 
L 276.730462 205.367177 
L 277.647094 205.367177 
L 278.563727 204.659639 
L 279.480359 201.90268 
L 280.396992 201.90268 
L 281.313624 201.365928 
L 282.230257 199.17012 
L 283.146889 199.487292 
L 284.063522 199.023733 
L 284.980154 196.413162 
L 285.896786 195.437248 
L 286.813419 192.753483 
L 287.730051 192.802279 
L 288.646684 192.485107 
L 289.563316 192.5583 
L 290.479949 192.289924 
L 291.396581 194.632118 
L 292.313214 197.608657 
L 294.146478 202.537025 
L 295.063111 205.708747 
L 296.896376 207.636178 
L 297.813008 212.222975 
L 298.729641 216.029041 
L 299.646273 224.812271 
L 300.562906 227.618025 
L 301.479538 231.277703 
L 302.39617 232.961156 
L 303.312803 232.961156 
L 304.229435 235.742512 
L 305.146068 237.865126 
L 306.0627 235.059372 
L 307.895965 237.572351 
L 308.812598 236.376856 
L 309.72923 236.620835 
L 311.562495 238.84104 
L 312.479127 238.963029 
L 313.39576 240.353707 
L 314.312392 240.256116 
L 315.229025 241.305224 
L 316.145657 241.158837 
L 317.06229 241.354019 
L 317.978922 241.793181 
L 318.895554 241.719987 
L 320.728819 243.159461 
L 321.645452 243.208257 
L 322.562084 243.501031 
L 324.395349 243.183859 
L 325.311982 243.647418 
L 326.228614 242.110353 
L 327.145246 241.305224 
L 328.061879 241.256428 
L 328.978511 240.792869 
L 329.895144 239.792556 
L 331.728409 238.475072 
L 332.645041 239.450986 
L 333.561674 240.109729 
L 334.478306 239.450986 
L 335.394938 239.670567 
L 336.311571 240.768471 
L 337.228203 241.23203 
L 338.144836 242.451923 
L 339.061468 241.793181 
L 339.978101 244.42815 
L 342.727998 244.08658 
L 343.64463 244.159773 
L 344.561263 243.671816 
L 345.477895 244.720924 
L 346.394528 244.672128 
L 347.31116 243.720612 
L 348.227793 243.62302 
L 349.144425 242.329934 
L 350.97769 240.451299 
L 351.894322 239.109416 
L 352.810955 235.522931 
L 353.727587 236.010888 
L 356.477485 236.425652 
L 357.394117 236.254867 
L 358.310749 235.864501 
L 359.227382 234.571415 
L 360.144014 234.766597 
L 361.060647 234.693404 
L 361.977279 233.888274 
L 363.810544 231.814456 
L 364.727177 231.790059 
L 367.477074 232.107231 
L 368.393706 231.985241 
L 369.310339 232.351209 
L 370.226971 233.107543 
L 371.143604 233.424715 
L 372.976869 232.302414 
L 373.893501 232.131629 
L 374.810133 231.716865 
L 375.726766 230.667757 
L 376.643398 229.813832 
L 377.560031 228.423154 
L 380.309928 228.81352 
L 381.226561 229.472262 
L 383.059825 229.179488 
L 383.976458 230.204198 
L 384.89309 231.643671 
L 385.809723 231.985241 
L 386.726355 231.863252 
L 387.642988 230.86294 
L 388.55962 230.692155 
L 389.476253 231.058123 
L 390.392885 228.179175 
L 391.309517 226.227347 
L 392.22615 224.812271 
L 393.142782 224.373109 
L 394.059415 221.128194 
L 394.976047 219.103172 
L 395.89268 215.80946 
L 396.809312 214.979933 
L 397.725945 212.076588 
L 398.642577 210.393136 
L 399.559209 209.953974 
L 400.475842 209.344028 
L 401.392474 208.368113 
L 403.225739 207.538586 
L 404.142372 205.977123 
L 405.059004 205.562359 
L 405.975637 205.562359 
L 406.892269 203.634929 
L 407.808901 201.121949 
L 410.558799 191.753171 
L 411.475431 189.508568 
L 412.392064 188.532653 
L 413.308696 181.676855 
L 414.225329 176.724089 
L 415.141961 172.893625 
L 416.058593 168.331226 
L 416.975226 164.622751 
L 417.891858 161.914589 
L 418.808491 161.011868 
L 419.725123 155.961511 
L 420.641756 153.180155 
L 421.558388 148.568959 
L 422.475021 146.665926 
L 423.391653 145.958388 
L 424.308285 144.860485 
L 425.224918 145.299646 
L 426.14155 144.201743 
L 427.058183 139.761332 
L 427.974815 140.200494 
L 428.891448 141.737559 
L 429.80808 141.83515 
L 430.724713 143.860172 
L 431.641345 144.811689 
L 432.557977 165.915838 
L 435.307875 173.552368 
L 436.224507 174.625873 
L 438.057772 173.235195 
L 438.974405 160.206738 
L 439.891037 167.989656 
L 440.807669 172.210485 
L 441.724302 173.991529 
L 442.640934 177.212047 
L 443.557567 179.603037 
L 444.474199 179.871413 
L 445.390832 181.042511 
L 446.307464 181.603661 
L 447.224097 182.921146 
L 448.140729 185.482921 
L 449.057361 188.508256 
L 449.973994 190.411289 
L 450.890626 190.85045 
L 452.723891 197.730647 
L 453.640524 200.487605 
L 454.557156 201.805089 
L 455.473789 203.439746 
L 456.390421 207.440995 
L 457.307053 207.48979 
L 458.223686 208.002145 
L 459.140318 207.709371 
L 460.056951 208.685285 
L 460.973583 210.515125 
L 461.890216 213.003707 
L 462.806848 213.320879 
L 463.72348 213.808836 
L 464.640113 215.711869 
L 465.556745 218.542021 
L 466.473378 219.713118 
L 467.39001 224.958658 
L 468.306643 224.495098 
L 469.223275 222.323689 
L 470.139908 222.42128 
L 471.05654 224.153528 
L 471.973172 223.958346 
L 472.889805 225.153841 
L 473.806437 221.469764 
L 474.72307 223.982743 
L 475.639702 225.27583 
L 476.556335 225.95897 
L 477.472967 233.107543 
L 478.3896 234.156651 
L 479.306232 234.498221 
L 480.222864 236.10848 
L 481.139497 237.108792 
L 482.972762 237.572351 
L 483.889394 234.181049 
L 484.806027 237.059996 
L 485.722659 239.158212 
L 486.639292 240.182922 
L 487.555924 241.671192 
L 488.472556 242.085955 
L 489.389189 242.207945 
L 490.305821 244.062182 
L 491.222454 245.208881 
L 493.055719 246.916731 
L 493.972351 247.282699 
L 494.888984 248.99055 
L 495.805616 249.234528 
L 499.472146 253.138186 
L 500.388778 253.894519 
L 500.388778 253.894519 
" style="fill:none;stroke:#b22222;stroke-linecap:square;"/>
   </g>
   <g id="line2d_32">
    <path clip-path="url(#pd31792c70a)" d="M 132.819168 260.506339 
L 137.402331 260.506339 
L 138.318963 257.555327 
L 139.235595 257.933662 
L 140.152228 258.715554 
L 141.06886 258.589442 
L 143.818758 258.841666 
L 145.652023 258.89211 
L 146.568655 258.589442 
L 147.485287 258.690332 
L 149.318552 258.639887 
L 151.151817 259.068667 
L 153.901715 259.497446 
L 155.734979 259.472224 
L 156.651612 259.22 
L 158.484877 259.32089 
L 160.318142 259.144334 
L 161.234774 259.245223 
L 163.984671 259.119111 
L 164.901304 259.295667 
L 165.817936 259.068667 
L 167.651201 259.119111 
L 170.401099 259.068667 
L 171.317731 258.841666 
L 172.234363 258.866888 
L 174.067628 258.715554 
L 175.900893 258.816443 
L 176.817526 258.715554 
L 180.484055 258.841666 
L 181.400688 258.765999 
L 182.31732 258.23633 
L 183.233953 258.311997 
L 185.98385 258.059773 
L 188.733747 258.488553 
L 189.65038 258.690332 
L 190.567012 258.765999 
L 191.483645 258.56422 
L 192.400277 258.23633 
L 193.31691 258.034551 
L 195.150175 257.984106 
L 196.066807 257.202214 
L 196.983439 256.924769 
L 197.900072 256.773435 
L 198.816704 256.899546 
L 200.649969 256.949991 
L 201.566602 256.268988 
L 202.483234 256.29421 
L 204.316499 255.436651 
L 206.149764 254.705204 
L 207.066396 254.629537 
L 207.983029 254.679981 
L 208.899661 254.503425 
L 210.732926 254.352091 
L 211.649559 253.872867 
L 213.482823 253.721533 
L 214.399456 252.939641 
L 215.316088 252.485639 
L 216.232721 251.653302 
L 217.149353 251.123633 
L 218.065986 250.291296 
L 218.982618 250.518297 
L 220.815883 249.912961 
L 221.732515 249.181513 
L 222.649148 248.828401 
L 223.56578 247.920397 
L 224.482413 247.970842 
L 225.399045 247.062838 
L 226.315678 247.239394 
L 229.065575 244.263159 
L 229.982207 243.859602 
L 230.89884 242.119261 
L 231.815472 242.295818 
L 232.732105 242.169706 
L 233.648737 241.059923 
L 234.56537 240.681589 
L 235.482002 240.757256 
L 236.398634 239.470917 
L 237.315267 239.975363 
L 238.231899 239.622251 
L 239.148532 239.597028 
L 240.065164 238.764692 
L 240.981797 236.822572 
L 241.898429 235.334455 
L 242.815062 233.568892 
L 243.731694 232.257331 
L 244.648326 232.711333 
L 245.564959 232.585221 
L 246.481591 230.920547 
L 247.398224 229.508097 
L 249.231489 227.742534 
L 250.148121 226.657974 
L 251.064754 225.270745 
L 251.981386 224.917633 
L 253.814651 223.15207 
L 254.731283 221.764842 
L 255.647916 221.865731 
L 256.564548 221.537841 
L 257.481181 221.386507 
L 258.397813 221.663952 
L 259.314446 222.244066 
L 260.231078 222.521512 
L 261.14771 222.647623 
L 262.064343 221.790064 
L 262.980975 219.36872 
L 263.897608 218.309383 
L 264.81424 217.62838 
L 266.647505 210.818351 
L 269.397402 199.039523 
L 270.314035 198.131519 
L 271.230667 198.005408 
L 272.1473 192.582607 
L 273.063932 188.849702 
L 275.81383 181.207336 
L 276.730462 179.290439 
L 277.647094 178.86166 
L 278.563727 176.415094 
L 279.480359 171.849852 
L 282.230257 160.298025 
L 284.063522 158.910797 
L 284.980154 152.403436 
L 285.896786 149.603758 
L 286.813419 147.762528 
L 287.730051 148.090418 
L 289.563316 147.384193 
L 290.479949 147.560749 
L 291.396581 151.344099 
L 292.313214 156.388564 
L 293.229846 160.247581 
L 294.146478 165.998272 
L 295.063111 173.691082 
L 295.979743 176.818651 
L 296.896376 178.079767 
L 297.813008 186.604915 
L 298.729641 193.843723 
L 299.646273 207.514226 
L 300.562906 210.440016 
L 301.479538 213.84503 
L 302.39617 215.484482 
L 303.312803 215.913261 
L 304.229435 219.974056 
L 305.146068 222.546734 
L 306.0627 218.006715 
L 306.979333 222.244066 
L 307.895965 223.90874 
L 308.812598 223.126847 
L 309.72923 223.202514 
L 311.562495 227.187642 
L 312.479127 228.67576 
L 313.39576 229.356763 
L 315.229025 230.945769 
L 316.145657 230.794435 
L 317.06229 231.248437 
L 317.978922 232.484332 
L 318.895554 232.585221 
L 320.728819 233.795893 
L 322.562084 234.249895 
L 323.478717 234.174228 
L 324.395349 232.988778 
L 325.311982 233.039223 
L 326.228614 231.424994 
L 327.145246 231.097103 
L 328.061879 230.012543 
L 328.978511 229.634208 
L 329.895144 228.700982 
L 330.811776 228.574871 
L 331.728409 227.288532 
L 332.645041 228.373092 
L 333.561674 226.708418 
L 334.478306 227.16242 
L 335.394938 227.187642 
L 336.311571 227.565977 
L 337.228203 226.985864 
L 338.144836 227.187642 
L 339.061468 227.994757 
L 339.978101 233.543669 
L 340.894733 232.307775 
L 341.811366 232.484332 
L 342.727998 232.534776 
L 343.64463 232.812222 
L 344.561263 233.922004 
L 347.31116 233.568892 
L 348.227793 233.215779 
L 349.144425 231.878996 
L 350.061057 231.727662 
L 350.97769 230.819658 
L 351.894322 229.508097 
L 352.810955 224.463631 
L 353.727587 225.497746 
L 354.64422 225.699525 
L 355.560852 226.456195 
L 357.394117 225.623858 
L 358.310749 224.917633 
L 359.227382 224.841966 
L 361.060647 224.261852 
L 361.977279 223.706961 
L 362.893912 222.849402 
L 364.727177 222.874624 
L 365.643809 222.672845 
L 367.477074 223.227737 
L 368.393706 222.647623 
L 369.310339 223.555627 
L 370.226971 223.833073 
L 371.143604 223.631294 
L 372.976869 221.512618 
L 373.893501 221.235173 
L 375.726766 217.754491 
L 377.560031 216.215929 
L 378.476663 215.635816 
L 379.393296 215.761927 
L 380.309928 216.014151 
L 381.226561 216.846487 
L 382.143193 217.451823 
L 383.059825 217.678824 
L 383.976458 218.28416 
L 384.89309 219.343498 
L 385.809723 219.545277 
L 386.726355 219.318276 
L 387.642988 218.38505 
L 388.55962 217.224822 
L 389.476253 214.223365 
L 391.309517 207.060224 
L 392.22615 204.537991 
L 393.142782 204.487546 
L 394.059415 199.140412 
L 394.976047 195.609286 
L 395.89268 194.67606 
L 396.809312 192.305161 
L 397.725945 190.741377 
L 399.559209 189.48026 
L 400.475842 189.782928 
L 401.392474 189.328926 
L 402.309107 186.428358 
L 403.225739 186.781471 
L 404.142372 185.268131 
L 405.975637 184.234016 
L 406.892269 181.812672 
L 407.808901 180.324555 
L 408.725534 179.94622 
L 409.642166 175.986314 
L 410.558799 173.514526 
L 411.475431 169.302397 
L 412.392064 166.931498 
L 413.308696 158.17935 
L 415.141961 143.752177 
L 416.975226 133.688468 
L 417.891858 130.813123 
L 418.808491 130.056453 
L 419.725123 124.078761 
L 420.641756 120.875525 
L 422.475021 116.158949 
L 423.391653 115.528391 
L 424.308285 116.007615 
L 425.224918 117.773178 
L 426.14155 117.394843 
L 427.058183 114.620387 
L 427.974815 115.881504 
L 428.891448 115.30139 
L 429.80808 113.384493 
L 430.724713 113.03138 
L 431.641345 112.930491 
L 432.557977 138.732934 
L 433.47461 131.040124 
L 434.391242 126.979329 
L 436.224507 129.173671 
L 437.14114 128.240445 
L 438.057772 127.635109 
L 438.974405 104.834123 
L 439.891037 117.874068 
L 440.807669 126.323548 
L 443.557567 134.520805 
L 444.474199 134.974807 
L 445.390832 138.732934 
L 446.307464 143.373843 
L 447.224097 145.795186 
L 448.140729 150.158649 
L 449.057361 156.010229 
L 449.973994 159.011687 
L 450.890626 160.222358 
L 451.807259 168.343948 
L 452.723891 173.33797 
L 453.640524 176.087203 
L 454.557156 180.173221 
L 455.473789 183.401679 
L 456.390421 190.615265 
L 457.307053 190.917933 
L 458.223686 192.153827 
L 459.140318 193.036609 
L 460.056951 196.265067 
L 460.973583 197.551406 
L 461.890216 199.796193 
L 462.806848 198.913411 
L 463.72348 199.216079 
L 464.640113 203.049873 
L 465.556745 205.319883 
L 466.473378 206.000886 
L 467.39001 213.618029 
L 468.306643 213.668474 
L 469.223275 212.129912 
L 470.139908 212.583914 
L 471.05654 215.408815 
L 471.973172 216.695153 
L 472.889805 218.460717 
L 473.806437 214.450366 
L 474.72307 217.729269 
L 475.639702 219.116497 
L 476.556335 219.974056 
L 477.472967 228.045202 
L 478.3896 228.600093 
L 479.306232 230.365656 
L 480.222864 231.450216 
L 481.139497 233.089667 
L 482.056129 234.098561 
L 482.972762 233.795893 
L 483.889394 230.491768 
L 484.806027 234.476896 
L 485.722659 236.065902 
L 487.555924 239.647473 
L 488.472556 239.72314 
L 489.389189 240.404143 
L 490.305821 242.598486 
L 492.139086 245.322497 
L 493.055719 246.684503 
L 493.972351 247.062838 
L 494.888984 248.853623 
L 495.805616 248.828401 
L 496.722248 250.266074 
L 497.638881 250.417408 
L 499.472146 252.132526 
L 500.388778 253.393642 
L 500.388778 253.393642 
" style="fill:none;stroke:#000000;stroke-linecap:square;stroke-width:1.5;"/>
   </g>
   <g id="line2d_33">
    <path clip-path="url(#pd31792c70a)" d="M 132.819168 260.506339 
L 137.402331 260.506339 
L 138.318963 253.321695 
L 139.235595 254.126871 
L 140.152228 255.551413 
L 141.985493 255.861095 
L 142.902125 255.984969 
L 143.818758 256.914017 
L 144.73539 257.037891 
L 145.652023 257.78113 
L 146.568655 257.905003 
L 147.485287 258.214686 
L 149.318552 258.028876 
L 151.151817 258.895988 
L 152.06845 259.453417 
L 152.985082 259.143734 
L 153.901715 259.019861 
L 154.818347 259.205671 
L 155.734979 259.143734 
L 156.651612 258.957925 
L 157.568244 259.019861 
L 158.484877 258.338559 
L 159.401509 258.276622 
L 160.318142 258.090812 
L 161.234774 258.028876 
L 163.068039 258.462432 
L 163.984671 258.400495 
L 164.901304 258.834051 
L 166.734569 259.143734 
L 169.484466 258.957925 
L 170.401099 259.143734 
L 174.984261 259.081798 
L 175.900893 259.019861 
L 176.817526 258.834051 
L 178.650791 259.019861 
L 180.484055 258.834051 
L 181.400688 258.710178 
L 182.31732 258.834051 
L 183.233953 258.648242 
L 184.150585 258.586305 
L 185.98385 258.648242 
L 186.900483 258.648242 
L 187.817115 258.772115 
L 188.733747 258.586305 
L 189.65038 258.957925 
L 190.567012 258.772115 
L 193.31691 257.905003 
L 194.233542 257.966939 
L 195.150175 257.78113 
L 196.066807 257.161764 
L 196.983439 257.161764 
L 197.900072 257.285637 
L 199.733337 257.719193 
L 200.649969 257.471447 
L 201.566602 257.037891 
L 203.399867 256.666271 
L 205.233131 255.613349 
L 207.066396 255.799159 
L 207.983029 256.108842 
L 208.899661 256.046905 
L 210.732926 256.480461 
L 211.649559 256.542398 
L 212.566191 256.294652 
L 213.482823 256.356588 
L 214.399456 256.170778 
L 215.316088 256.232715 
L 217.149353 254.250744 
L 218.065986 254.002998 
L 218.982618 254.126871 
L 219.899251 254.064934 
L 220.815883 253.445569 
L 221.732515 252.640393 
L 222.649148 252.888139 
L 223.56578 253.383632 
L 224.482413 252.70233 
L 225.399045 252.70233 
L 227.23231 252.082964 
L 228.148943 252.268774 
L 229.065575 251.525534 
L 229.982207 251.525534 
L 231.815472 250.782295 
L 232.732105 251.030042 
L 233.648737 250.658422 
L 234.56537 249.6055 
L 235.482002 249.97712 
L 238.231899 248.057086 
L 239.148532 247.43772 
L 240.065164 246.198988 
L 240.981797 245.765432 
L 241.898429 244.650574 
L 243.731694 243.287969 
L 244.648326 244.155081 
L 245.564959 244.650574 
L 246.481591 243.535715 
L 247.398224 243.164096 
L 248.314856 241.367935 
L 249.231489 238.828535 
L 250.148121 238.456915 
L 251.064754 237.09431 
L 251.981386 236.598818 
L 252.898018 236.351071 
L 253.814651 234.616847 
L 255.647916 233.440052 
L 256.564548 233.068432 
L 257.481181 233.501988 
L 258.397813 233.749735 
L 259.314446 234.431037 
L 261.14771 235.236213 
L 262.064343 235.917515 
L 262.980975 235.11234 
L 263.897608 233.687798 
L 264.81424 233.254242 
L 265.730873 229.66192 
L 266.647505 227.30833 
L 268.48077 220.371432 
L 269.397402 215.911998 
L 270.314035 214.177774 
L 271.230667 213.620345 
L 272.1473 208.975101 
L 273.063932 205.878272 
L 273.980565 205.258906 
L 275.81383 200.985281 
L 276.730462 199.56074 
L 277.647094 199.127184 
L 278.563727 198.445881 
L 279.480359 193.676764 
L 280.396992 186.925677 
L 281.313624 183.581101 
L 282.230257 180.917828 
L 283.146889 179.679096 
L 284.063522 179.61716 
L 285.896786 164.504633 
L 286.813419 162.770409 
L 287.730051 157.443862 
L 288.646684 154.099287 
L 289.563316 154.656716 
L 290.479949 154.285096 
L 291.396581 157.196116 
L 292.313214 161.903296 
L 293.229846 164.752379 
L 294.146478 172.928008 
L 295.063111 178.130682 
L 295.979743 180.546208 
L 296.896376 181.103638 
L 297.813008 185.872755 
L 298.729641 193.119335 
L 299.646273 204.887286 
L 300.562906 205.011159 
L 301.479538 208.355735 
L 302.39617 209.656403 
L 303.312803 210.523515 
L 305.146068 217.398476 
L 306.0627 213.744218 
L 306.979333 218.761081 
L 307.895965 222.291467 
L 308.812598 222.167593 
L 309.72923 222.353403 
L 311.562495 227.803823 
L 312.479127 229.042554 
L 313.39576 229.042554 
L 314.312392 230.405159 
L 315.229025 231.458081 
L 316.145657 231.520018 
L 317.06229 231.705827 
L 319.812187 235.422022 
L 320.728819 235.731705 
L 321.645452 236.227198 
L 322.562084 236.289135 
L 323.478717 236.660754 
L 324.395349 234.864593 
L 326.228614 234.74072 
L 328.978511 232.449066 
L 329.895144 231.767764 
L 330.811776 232.20132 
L 331.728409 231.705827 
L 332.645041 232.758749 
L 334.478306 230.962588 
L 335.394938 231.210335 
L 336.311571 231.581954 
L 337.228203 230.652905 
L 338.144836 230.157413 
L 339.061468 229.104491 
L 339.978101 233.935544 
L 340.894733 234.74072 
L 341.811366 234.616847 
L 342.727998 234.183291 
L 344.561263 231.581954 
L 345.477895 232.634876 
L 347.31116 232.077447 
L 348.227793 231.458081 
L 349.144425 232.944559 
L 350.061057 235.422022 
L 350.97769 236.908501 
L 351.894322 236.970437 
L 352.810955 233.440052 
L 353.727587 233.563925 
L 354.64422 234.55491 
L 355.560852 233.501988 
L 356.477485 232.077447 
L 357.394117 232.01551 
L 358.310749 230.714842 
L 359.227382 229.66192 
L 360.144014 228.423188 
L 361.060647 227.927696 
L 361.977279 226.688964 
L 362.893912 226.998647 
L 364.727177 225.945725 
L 365.643809 227.060584 
L 368.393706 228.856744 
L 369.310339 228.794808 
L 370.226971 228.237379 
L 371.143604 228.423188 
L 372.060236 226.998647 
L 372.976869 226.998647 
L 373.893501 226.069598 
L 374.810133 224.39731 
L 375.726766 223.530198 
L 376.643398 222.848896 
L 377.560031 220.619179 
L 378.476663 221.176608 
L 379.393296 221.300481 
L 382.143193 222.848896 
L 383.059825 224.335374 
L 383.976458 226.503154 
L 384.89309 224.521184 
L 385.809723 224.273437 
L 386.726355 224.645057 
L 387.642988 223.220515 
L 389.476253 217.770096 
L 390.392885 214.23971 
L 391.309517 211.824184 
L 392.22615 209.966086 
L 393.142782 208.603481 
L 394.059415 205.258906 
L 394.976047 202.719506 
L 396.809312 200.675598 
L 397.725945 200.427852 
L 398.642577 199.37493 
L 399.559209 199.622676 
L 400.475842 198.631691 
L 401.392474 200.613662 
L 402.309107 199.312994 
L 403.225739 199.498803 
L 404.142372 198.445881 
L 405.059004 198.136198 
L 405.975637 198.507818 
L 406.892269 199.37493 
L 407.808901 197.516833 
L 408.725534 195.039369 
L 409.642166 193.676764 
L 410.558799 191.508984 
L 411.475431 190.827681 
L 412.392064 188.412155 
L 413.308696 183.581101 
L 414.225329 179.926843 
L 415.141961 177.387443 
L 416.058593 174.042867 
L 416.975226 169.893116 
L 417.891858 166.92016 
L 418.808491 166.424667 
L 419.725123 161.84136 
L 421.558388 157.567735 
L 422.475021 157.567735 
L 423.391653 159.240023 
L 424.308285 159.921326 
L 425.224918 161.036184 
L 426.14155 161.098121 
L 427.058183 160.788438 
L 427.974815 161.779423 
L 429.80808 163.203965 
L 430.724713 164.19495 
L 431.641345 164.38076 
L 432.557977 181.661067 
L 433.47461 179.988779 
L 434.391242 182.280433 
L 435.307875 182.342369 
L 436.224507 179.988779 
L 437.14114 178.440365 
L 438.057772 178.254555 
L 438.974405 163.203965 
L 439.891037 166.796287 
L 440.807669 168.90213 
L 441.724302 170.078926 
L 442.640934 173.671247 
L 443.557567 176.334521 
L 444.474199 177.139696 
L 445.390832 181.227511 
L 446.307464 181.103638 
L 447.224097 183.209482 
L 449.057361 189.40314 
L 449.973994 191.385111 
L 450.890626 191.632857 
L 451.807259 195.534862 
L 452.723891 203.153062 
L 453.640524 204.082111 
L 454.557156 207.240876 
L 455.473789 209.594467 
L 456.390421 213.124852 
L 457.307053 213.496471 
L 458.223686 216.655237 
L 459.140318 217.088793 
L 460.056951 221.114671 
L 460.973583 223.096642 
L 461.890216 225.759915 
L 462.806848 226.93671 
L 463.72348 227.370266 
L 464.640113 228.175442 
L 465.556745 230.838715 
L 466.473378 231.024525 
L 467.39001 234.55491 
L 468.306643 234.92653 
L 469.223275 233.378115 
L 470.139908 234.245227 
L 471.05654 236.660754 
L 471.973172 237.342057 
L 472.889805 238.333042 
L 473.806437 235.855579 
L 474.72307 238.209169 
L 475.639702 238.766598 
L 476.556335 238.704661 
L 477.472967 243.349905 
L 478.3896 244.774447 
L 479.306232 245.765432 
L 480.222864 245.827369 
L 481.139497 246.880291 
L 482.056129 247.313847 
L 482.972762 247.62353 
L 483.889394 246.446735 
L 484.806027 247.004164 
L 485.722659 247.809339 
L 486.639292 249.667437 
L 487.555924 250.16293 
L 488.472556 250.286803 
L 489.389189 250.100993 
L 490.305821 250.720359 
L 491.222454 250.782295 
L 492.139086 251.277788 
L 493.055719 251.463598 
L 493.972351 251.525534 
L 496.722248 253.321695 
L 497.638881 254.188808 
L 498.555513 254.374617 
L 500.388778 255.551413 
L 500.388778 255.551413 
" style="fill:none;stroke:#00ced1;stroke-linecap:square;stroke-width:3;"/>
   </g>
   <g id="line2d_34">
    <path clip-path="url(#pd31792c70a)" d="M 65.905 260.506339 
L 512.305 260.506339 
" style="fill:none;stroke:#808080;stroke-linecap:square;stroke-width:0.8;"/>
   </g>
   <g id="line2d_35">
    <path clip-path="url(#pd31792c70a)" d="M 346.394528 270.860625 
L 346.394528 64.292625 
" style="fill:none;stroke:#000000;stroke-dasharray:1.85,0.8;stroke-dashoffset:0;stroke-width:0.5;"/>
   </g>
   <g id="text_21">
    <!-- 93 -->
    <g style="fill:#4169e1;" transform="translate(276.580938 49.677188)scale(0.18 -0.18)">
     <defs>
      <path d="M 641 103 
L 641 966 
Q 928 831 1190 764 
Q 1453 697 1709 697 
Q 2247 697 2547 995 
Q 2847 1294 2900 1881 
Q 2688 1725 2447 1647 
Q 2206 1569 1925 1569 
Q 1209 1569 770 1986 
Q 331 2403 331 3084 
Q 331 3838 820 4291 
Q 1309 4744 2131 4744 
Q 3044 4744 3544 4128 
Q 4044 3513 4044 2388 
Q 4044 1231 3459 570 
Q 2875 -91 1856 -91 
Q 1528 -91 1228 -42 
Q 928 6 641 103 
z
M 2125 2350 
Q 2441 2350 2600 2554 
Q 2759 2759 2759 3169 
Q 2759 3575 2600 3781 
Q 2441 3988 2125 3988 
Q 1809 3988 1650 3781 
Q 1491 3575 1491 3169 
Q 1491 2759 1650 2554 
Q 1809 2350 2125 2350 
z
" id="DejaVuSans-Bold-39" transform="scale(0.015625)"/>
      <path d="M 2981 2516 
Q 3453 2394 3698 2092 
Q 3944 1791 3944 1325 
Q 3944 631 3412 270 
Q 2881 -91 1863 -91 
Q 1503 -91 1142 -33 
Q 781 25 428 141 
L 428 1069 
Q 766 900 1098 814 
Q 1431 728 1753 728 
Q 2231 728 2486 893 
Q 2741 1059 2741 1369 
Q 2741 1688 2480 1852 
Q 2219 2016 1709 2016 
L 1228 2016 
L 1228 2791 
L 1734 2791 
Q 2188 2791 2409 2933 
Q 2631 3075 2631 3366 
Q 2631 3634 2415 3781 
Q 2200 3928 1806 3928 
Q 1516 3928 1219 3862 
Q 922 3797 628 3669 
L 628 4550 
Q 984 4650 1334 4700 
Q 1684 4750 2022 4750 
Q 2931 4750 3382 4451 
Q 3834 4153 3834 3553 
Q 3834 3144 3618 2883 
Q 3403 2622 2981 2516 
z
" id="DejaVuSans-Bold-33" transform="scale(0.015625)"/>
     </defs>
     <use xlink:href="#DejaVuSans-Bold-39"/>
     <use x="69.580078" xlink:href="#DejaVuSans-Bold-33"/>
    </g>
   </g>
   <g id="legend_1">
    <g id="patch_6">
     <path d="M 418.841875 115.290375 
L 549.245 115.290375 
Q 551.445 115.290375 551.445 113.090375 
L 551.445 39.376625 
Q 551.445 37.176625 549.245 37.176625 
L 418.841875 37.176625 
Q 416.641875 37.176625 416.641875 39.376625 
L 416.641875 113.090375 
Q 416.641875 115.290375 418.841875 115.290375 
z
" style="fill:#ffffff;opacity:0.8;stroke:#cccccc;stroke-linejoin:miter;"/>
    </g>
    <g id="text_22">
     <!-- Cas positifs par semaine, -->
     <g transform="translate(421.041875 49.175062)scale(0.1 -0.1)">
      <defs>
       <path d="M 4122 4306 
L 4122 3641 
Q 3803 3938 3442 4084 
Q 3081 4231 2675 4231 
Q 1875 4231 1450 3742 
Q 1025 3253 1025 2328 
Q 1025 1406 1450 917 
Q 1875 428 2675 428 
Q 3081 428 3442 575 
Q 3803 722 4122 1019 
L 4122 359 
Q 3791 134 3420 21 
Q 3050 -91 2638 -91 
Q 1578 -91 968 557 
Q 359 1206 359 2328 
Q 359 3453 968 4101 
Q 1578 4750 2638 4750 
Q 3056 4750 3426 4639 
Q 3797 4528 4122 4306 
z
" id="DejaVuSans-43" transform="scale(0.015625)"/>
       <path id="DejaVuSans-20" transform="scale(0.015625)"/>
       <path d="M 750 794 
L 1409 794 
L 1409 256 
L 897 -744 
L 494 -744 
L 750 256 
L 750 794 
z
" id="DejaVuSans-2c" transform="scale(0.015625)"/>
      </defs>
      <use xlink:href="#DejaVuSans-43"/>
      <use x="69.824219" xlink:href="#DejaVuSans-61"/>
      <use x="131.103516" xlink:href="#DejaVuSans-73"/>
      <use x="183.203125" xlink:href="#DejaVuSans-20"/>
      <use x="214.990234" xlink:href="#DejaVuSans-70"/>
      <use x="278.466797" xlink:href="#DejaVuSans-6f"/>
      <use x="339.648438" xlink:href="#DejaVuSans-73"/>
      <use x="391.748047" xlink:href="#DejaVuSans-69"/>
      <use x="419.53125" xlink:href="#DejaVuSans-74"/>
      <use x="458.740234" xlink:href="#DejaVuSans-69"/>
      <use x="486.523438" xlink:href="#DejaVuSans-66"/>
      <use x="521.728516" xlink:href="#DejaVuSans-73"/>
      <use x="573.828125" xlink:href="#DejaVuSans-20"/>
      <use x="605.615234" xlink:href="#DejaVuSans-70"/>
      <use x="669.091797" xlink:href="#DejaVuSans-61"/>
      <use x="730.371094" xlink:href="#DejaVuSans-72"/>
      <use x="771.484375" xlink:href="#DejaVuSans-20"/>
      <use x="803.271484" xlink:href="#DejaVuSans-73"/>
      <use x="855.371094" xlink:href="#DejaVuSans-65"/>
      <use x="916.894531" xlink:href="#DejaVuSans-6d"/>
      <use x="1014.306641" xlink:href="#DejaVuSans-61"/>
      <use x="1075.585938" xlink:href="#DejaVuSans-69"/>
      <use x="1103.369141" xlink:href="#DejaVuSans-6e"/>
      <use x="1166.748047" xlink:href="#DejaVuSans-65"/>
      <use x="1228.271484" xlink:href="#DejaVuSans-2c"/>
     </g>
     <!-- pour 100 000 habitants -->
     <g transform="translate(425.177031 60.372875)scale(0.1 -0.1)">
      <defs>
       <path d="M 3513 2113 
L 3513 0 
L 2938 0 
L 2938 2094 
Q 2938 2591 2744 2837 
Q 2550 3084 2163 3084 
Q 1697 3084 1428 2787 
Q 1159 2491 1159 1978 
L 1159 0 
L 581 0 
L 581 4863 
L 1159 4863 
L 1159 2956 
Q 1366 3272 1645 3428 
Q 1925 3584 2291 3584 
Q 2894 3584 3203 3211 
Q 3513 2838 3513 2113 
z
" id="DejaVuSans-68" transform="scale(0.015625)"/>
       <path d="M 3116 1747 
Q 3116 2381 2855 2742 
Q 2594 3103 2138 3103 
Q 1681 3103 1420 2742 
Q 1159 2381 1159 1747 
Q 1159 1113 1420 752 
Q 1681 391 2138 391 
Q 2594 391 2855 752 
Q 3116 1113 3116 1747 
z
M 1159 2969 
Q 1341 3281 1617 3432 
Q 1894 3584 2278 3584 
Q 2916 3584 3314 3078 
Q 3713 2572 3713 1747 
Q 3713 922 3314 415 
Q 2916 -91 2278 -91 
Q 1894 -91 1617 61 
Q 1341 213 1159 525 
L 1159 0 
L 581 0 
L 581 4863 
L 1159 4863 
L 1159 2969 
z
" id="DejaVuSans-62" transform="scale(0.015625)"/>
      </defs>
      <use xlink:href="#DejaVuSans-70"/>
      <use x="63.476562" xlink:href="#DejaVuSans-6f"/>
      <use x="124.658203" xlink:href="#DejaVuSans-75"/>
      <use x="188.037109" xlink:href="#DejaVuSans-72"/>
      <use x="229.150391" xlink:href="#DejaVuSans-20"/>
      <use x="260.9375" xlink:href="#DejaVuSans-31"/>
      <use x="324.560547" xlink:href="#DejaVuSans-30"/>
      <use x="388.183594" xlink:href="#DejaVuSans-30"/>
      <use x="451.806641" xlink:href="#DejaVuSans-20"/>
      <use x="483.59375" xlink:href="#DejaVuSans-30"/>
      <use x="547.216797" xlink:href="#DejaVuSans-30"/>
      <use x="610.839844" xlink:href="#DejaVuSans-30"/>
      <use x="674.462891" xlink:href="#DejaVuSans-20"/>
      <use x="706.25" xlink:href="#DejaVuSans-68"/>
      <use x="769.628906" xlink:href="#DejaVuSans-61"/>
      <use x="830.908203" xlink:href="#DejaVuSans-62"/>
      <use x="894.384766" xlink:href="#DejaVuSans-69"/>
      <use x="922.167969" xlink:href="#DejaVuSans-74"/>
      <use x="961.376953" xlink:href="#DejaVuSans-61"/>
      <use x="1022.65625" xlink:href="#DejaVuSans-6e"/>
      <use x="1086.035156" xlink:href="#DejaVuSans-74"/>
      <use x="1125.244141" xlink:href="#DejaVuSans-73"/>
     </g>
    </g>
    <g id="line2d_36">
     <path d="M 438.180313 72.460844 
L 460.180313 72.460844 
" style="fill:none;stroke:#b22222;stroke-linecap:square;"/>
    </g>
    <g id="line2d_37"/>
    <g id="text_23">
     <!-- 0-29 ans -->
     <g transform="translate(465.680313 76.310844)scale(0.11 -0.11)">
      <defs>
       <path d="M 313 2009 
L 1997 2009 
L 1997 1497 
L 313 1497 
L 313 2009 
z
" id="DejaVuSans-2d" transform="scale(0.015625)"/>
       <path d="M 1228 531 
L 3431 531 
L 3431 0 
L 469 0 
L 469 531 
Q 828 903 1448 1529 
Q 2069 2156 2228 2338 
Q 2531 2678 2651 2914 
Q 2772 3150 2772 3378 
Q 2772 3750 2511 3984 
Q 2250 4219 1831 4219 
Q 1534 4219 1204 4116 
Q 875 4013 500 3803 
L 500 4441 
Q 881 4594 1212 4672 
Q 1544 4750 1819 4750 
Q 2544 4750 2975 4387 
Q 3406 4025 3406 3419 
Q 3406 3131 3298 2873 
Q 3191 2616 2906 2266 
Q 2828 2175 2409 1742 
Q 1991 1309 1228 531 
z
" id="DejaVuSans-32" transform="scale(0.015625)"/>
       <path d="M 703 97 
L 703 672 
Q 941 559 1184 500 
Q 1428 441 1663 441 
Q 2288 441 2617 861 
Q 2947 1281 2994 2138 
Q 2813 1869 2534 1725 
Q 2256 1581 1919 1581 
Q 1219 1581 811 2004 
Q 403 2428 403 3163 
Q 403 3881 828 4315 
Q 1253 4750 1959 4750 
Q 2769 4750 3195 4129 
Q 3622 3509 3622 2328 
Q 3622 1225 3098 567 
Q 2575 -91 1691 -91 
Q 1453 -91 1209 -44 
Q 966 3 703 97 
z
M 1959 2075 
Q 2384 2075 2632 2365 
Q 2881 2656 2881 3163 
Q 2881 3666 2632 3958 
Q 2384 4250 1959 4250 
Q 1534 4250 1286 3958 
Q 1038 3666 1038 3163 
Q 1038 2656 1286 2365 
Q 1534 2075 1959 2075 
z
" id="DejaVuSans-39" transform="scale(0.015625)"/>
      </defs>
      <use xlink:href="#DejaVuSans-30"/>
      <use x="63.623047" xlink:href="#DejaVuSans-2d"/>
      <use x="99.707031" xlink:href="#DejaVuSans-32"/>
      <use x="163.330078" xlink:href="#DejaVuSans-39"/>
      <use x="226.953125" xlink:href="#DejaVuSans-20"/>
      <use x="258.740234" xlink:href="#DejaVuSans-61"/>
      <use x="320.019531" xlink:href="#DejaVuSans-6e"/>
      <use x="383.398438" xlink:href="#DejaVuSans-73"/>
     </g>
    </g>
    <g id="line2d_38">
     <path d="M 438.180313 88.606781 
L 460.180313 88.606781 
" style="fill:none;stroke:#000000;stroke-linecap:square;stroke-width:1.5;"/>
    </g>
    <g id="line2d_39"/>
    <g id="text_24">
     <!-- 30-59 ans -->
     <g transform="translate(465.680313 92.456781)scale(0.11 -0.11)">
      <defs>
       <path d="M 2597 2516 
Q 3050 2419 3304 2112 
Q 3559 1806 3559 1356 
Q 3559 666 3084 287 
Q 2609 -91 1734 -91 
Q 1441 -91 1130 -33 
Q 819 25 488 141 
L 488 750 
Q 750 597 1062 519 
Q 1375 441 1716 441 
Q 2309 441 2620 675 
Q 2931 909 2931 1356 
Q 2931 1769 2642 2001 
Q 2353 2234 1838 2234 
L 1294 2234 
L 1294 2753 
L 1863 2753 
Q 2328 2753 2575 2939 
Q 2822 3125 2822 3475 
Q 2822 3834 2567 4026 
Q 2313 4219 1838 4219 
Q 1578 4219 1281 4162 
Q 984 4106 628 3988 
L 628 4550 
Q 988 4650 1302 4700 
Q 1616 4750 1894 4750 
Q 2613 4750 3031 4423 
Q 3450 4097 3450 3541 
Q 3450 3153 3228 2886 
Q 3006 2619 2597 2516 
z
" id="DejaVuSans-33" transform="scale(0.015625)"/>
      </defs>
      <use xlink:href="#DejaVuSans-33"/>
      <use x="63.623047" xlink:href="#DejaVuSans-30"/>
      <use x="127.246094" xlink:href="#DejaVuSans-2d"/>
      <use x="163.330078" xlink:href="#DejaVuSans-35"/>
      <use x="226.953125" xlink:href="#DejaVuSans-39"/>
      <use x="290.576172" xlink:href="#DejaVuSans-20"/>
      <use x="322.363281" xlink:href="#DejaVuSans-61"/>
      <use x="383.642578" xlink:href="#DejaVuSans-6e"/>
      <use x="447.021484" xlink:href="#DejaVuSans-73"/>
     </g>
    </g>
    <g id="line2d_40">
     <path d="M 438.180313 104.752719 
L 460.180313 104.752719 
" style="fill:none;stroke:#00ced1;stroke-linecap:square;stroke-width:3;"/>
    </g>
    <g id="line2d_41"/>
    <g id="text_25">
     <!-- 60 ans et + -->
     <g transform="translate(465.680313 108.602719)scale(0.11 -0.11)">
      <defs>
       <path d="M 2113 2584 
Q 1688 2584 1439 2293 
Q 1191 2003 1191 1497 
Q 1191 994 1439 701 
Q 1688 409 2113 409 
Q 2538 409 2786 701 
Q 3034 994 3034 1497 
Q 3034 2003 2786 2293 
Q 2538 2584 2113 2584 
z
M 3366 4563 
L 3366 3988 
Q 3128 4100 2886 4159 
Q 2644 4219 2406 4219 
Q 1781 4219 1451 3797 
Q 1122 3375 1075 2522 
Q 1259 2794 1537 2939 
Q 1816 3084 2150 3084 
Q 2853 3084 3261 2657 
Q 3669 2231 3669 1497 
Q 3669 778 3244 343 
Q 2819 -91 2113 -91 
Q 1303 -91 875 529 
Q 447 1150 447 2328 
Q 447 3434 972 4092 
Q 1497 4750 2381 4750 
Q 2619 4750 2861 4703 
Q 3103 4656 3366 4563 
z
" id="DejaVuSans-36" transform="scale(0.015625)"/>
       <path d="M 2944 4013 
L 2944 2272 
L 4684 2272 
L 4684 1741 
L 2944 1741 
L 2944 0 
L 2419 0 
L 2419 1741 
L 678 1741 
L 678 2272 
L 2419 2272 
L 2419 4013 
L 2944 4013 
z
" id="DejaVuSans-2b" transform="scale(0.015625)"/>
      </defs>
      <use xlink:href="#DejaVuSans-36"/>
      <use x="63.623047" xlink:href="#DejaVuSans-30"/>
      <use x="127.246094" xlink:href="#DejaVuSans-20"/>
      <use x="159.033203" xlink:href="#DejaVuSans-61"/>
      <use x="220.3125" xlink:href="#DejaVuSans-6e"/>
      <use x="283.691406" xlink:href="#DejaVuSans-73"/>
      <use x="335.791016" xlink:href="#DejaVuSans-20"/>
      <use x="367.578125" xlink:href="#DejaVuSans-65"/>
      <use x="429.101562" xlink:href="#DejaVuSans-74"/>
      <use x="468.310547" xlink:href="#DejaVuSans-20"/>
      <use x="500.097656" xlink:href="#DejaVuSans-2b"/>
     </g>
    </g>
   </g>
  </g>
 </g>
 <defs>
  <clipPath id="pd31792c70a">
   <rect height="217.44" width="446.4" x="65.905" y="53.420625"/>
  </clipPath>
 </defs>
</svg>
