<?xml version="1.0" encoding="utf-8" standalone="no"?>
<!DOCTYPE svg PUBLIC "-//W3C//DTD SVG 1.1//EN"
  "http://www.w3.org/Graphics/SVG/1.1/DTD/svg11.dtd">
<svg height="336.049967pt" version="1.1" viewBox="0 0 587.445 336.049967" width="587.445pt" xmlns="http://www.w3.org/2000/svg" xmlns:xlink="http://www.w3.org/1999/xlink">
 <metadata>
  <rdf:RDF xmlns:cc="http://creativecommons.org/ns#" xmlns:dc="http://purl.org/dc/elements/1.1/" xmlns:rdf="http://www.w3.org/1999/02/22-rdf-syntax-ns#">
   <cc:Work>
    <dc:type rdf:resource="http://purl.org/dc/dcmitype/StillImage"/>
    <dc:date>2021-06-25T20:19:53.701747</dc:date>
    <dc:format>image/svg+xml</dc:format>
    <dc:creator>
     <cc:Agent>
      <dc:title>Matplotlib v3.4.1, https://matplotlib.org/</dc:title>
     </cc:Agent>
    </dc:creator>
   </cc:Work>
  </rdf:RDF>
 </metadata>
 <defs>
  <style type="text/css">*{stroke-linecap:butt;stroke-linejoin:round;}</style>
 </defs>
 <g id="figure_1">
  <g id="patch_1">
   <path d="M 0 336.049967 
L 587.445 336.049967 
L 587.445 0 
L 0 0 
z
" style="fill:#ffffff;"/>
  </g>
  <g id="axes_1">
   <g id="patch_2">
    <path d="M 65.905 270.860625 
L 512.305 270.860625 
L 512.305 53.420625 
L 65.905 53.420625 
z
" style="fill:none;opacity:0;"/>
   </g>
   <g id="patch_3">
    <path clip-path="url(#p15c1074464)" d="M 80.571119 270.860625 
L 80.571119 64.292625 
L 130.069271 64.292625 
L 130.069271 270.860625 
z
" style="fill:#808080;opacity:0.15;stroke:#808080;stroke-linejoin:miter;"/>
   </g>
   <g id="patch_4">
    <path clip-path="url(#p15c1074464)" d="M 288.646684 270.860625 
L 288.646684 64.292625 
L 330.811776 64.292625 
L 330.811776 270.860625 
z
" style="fill:#808080;opacity:0.15;stroke:#808080;stroke-linejoin:miter;"/>
   </g>
   <g id="patch_5">
    <path clip-path="url(#p15c1074464)" d="M 432.557977 270.860625 
L 432.557977 64.292625 
L 457.307053 64.292625 
L 457.307053 270.860625 
z
" style="fill:#808080;opacity:0.15;stroke:#808080;stroke-linejoin:miter;"/>
   </g>
   <g id="matplotlib.axis_1">
    <g id="xtick_1">
     <g id="line2d_1">
      <defs>
       <path d="M 0 0 
L 0 3.5 
" id="m39852aa0a1" style="stroke:#000000;stroke-width:0.8;"/>
      </defs>
      <g>
       <use style="stroke:#000000;stroke-width:0.8;" x="65.905" xlink:href="#m39852aa0a1" y="270.860625"/>
      </g>
     </g>
     <g id="text_1">
      <!-- mars -->
      <g transform="translate(54.710395 298.726462)rotate(-45)scale(0.09 -0.09)">
       <defs>
        <path d="M 3328 2828 
Q 3544 3216 3844 3400 
Q 4144 3584 4550 3584 
Q 5097 3584 5394 3201 
Q 5691 2819 5691 2113 
L 5691 0 
L 5113 0 
L 5113 2094 
Q 5113 2597 4934 2840 
Q 4756 3084 4391 3084 
Q 3944 3084 3684 2787 
Q 3425 2491 3425 1978 
L 3425 0 
L 2847 0 
L 2847 2094 
Q 2847 2600 2669 2842 
Q 2491 3084 2119 3084 
Q 1678 3084 1418 2786 
Q 1159 2488 1159 1978 
L 1159 0 
L 581 0 
L 581 3500 
L 1159 3500 
L 1159 2956 
Q 1356 3278 1631 3431 
Q 1906 3584 2284 3584 
Q 2666 3584 2933 3390 
Q 3200 3197 3328 2828 
z
" id="DejaVuSans-6d" transform="scale(0.015625)"/>
        <path d="M 2194 1759 
Q 1497 1759 1228 1600 
Q 959 1441 959 1056 
Q 959 750 1161 570 
Q 1363 391 1709 391 
Q 2188 391 2477 730 
Q 2766 1069 2766 1631 
L 2766 1759 
L 2194 1759 
z
M 3341 1997 
L 3341 0 
L 2766 0 
L 2766 531 
Q 2569 213 2275 61 
Q 1981 -91 1556 -91 
Q 1019 -91 701 211 
Q 384 513 384 1019 
Q 384 1609 779 1909 
Q 1175 2209 1959 2209 
L 2766 2209 
L 2766 2266 
Q 2766 2663 2505 2880 
Q 2244 3097 1772 3097 
Q 1472 3097 1187 3025 
Q 903 2953 641 2809 
L 641 3341 
Q 956 3463 1253 3523 
Q 1550 3584 1831 3584 
Q 2591 3584 2966 3190 
Q 3341 2797 3341 1997 
z
" id="DejaVuSans-61" transform="scale(0.015625)"/>
        <path d="M 2631 2963 
Q 2534 3019 2420 3045 
Q 2306 3072 2169 3072 
Q 1681 3072 1420 2755 
Q 1159 2438 1159 1844 
L 1159 0 
L 581 0 
L 581 3500 
L 1159 3500 
L 1159 2956 
Q 1341 3275 1631 3429 
Q 1922 3584 2338 3584 
Q 2397 3584 2469 3576 
Q 2541 3569 2628 3553 
L 2631 2963 
z
" id="DejaVuSans-72" transform="scale(0.015625)"/>
        <path d="M 2834 3397 
L 2834 2853 
Q 2591 2978 2328 3040 
Q 2066 3103 1784 3103 
Q 1356 3103 1142 2972 
Q 928 2841 928 2578 
Q 928 2378 1081 2264 
Q 1234 2150 1697 2047 
L 1894 2003 
Q 2506 1872 2764 1633 
Q 3022 1394 3022 966 
Q 3022 478 2636 193 
Q 2250 -91 1575 -91 
Q 1294 -91 989 -36 
Q 684 19 347 128 
L 347 722 
Q 666 556 975 473 
Q 1284 391 1588 391 
Q 1994 391 2212 530 
Q 2431 669 2431 922 
Q 2431 1156 2273 1281 
Q 2116 1406 1581 1522 
L 1381 1569 
Q 847 1681 609 1914 
Q 372 2147 372 2553 
Q 372 3047 722 3315 
Q 1072 3584 1716 3584 
Q 2034 3584 2315 3537 
Q 2597 3491 2834 3397 
z
" id="DejaVuSans-73" transform="scale(0.015625)"/>
       </defs>
       <use xlink:href="#DejaVuSans-6d"/>
       <use x="97.412109" xlink:href="#DejaVuSans-61"/>
       <use x="158.691406" xlink:href="#DejaVuSans-72"/>
       <use x="199.804688" xlink:href="#DejaVuSans-73"/>
      </g>
     </g>
    </g>
    <g id="xtick_2">
     <g id="line2d_2">
      <g>
       <use style="stroke:#000000;stroke-width:0.8;" x="94.320606" xlink:href="#m39852aa0a1" y="270.860625"/>
      </g>
     </g>
     <g id="text_2">
      <!-- avril -->
      <g transform="translate(85.337477 296.514986)rotate(-45)scale(0.09 -0.09)">
       <defs>
        <path d="M 191 3500 
L 800 3500 
L 1894 563 
L 2988 3500 
L 3597 3500 
L 2284 0 
L 1503 0 
L 191 3500 
z
" id="DejaVuSans-76" transform="scale(0.015625)"/>
        <path d="M 603 3500 
L 1178 3500 
L 1178 0 
L 603 0 
L 603 3500 
z
M 603 4863 
L 1178 4863 
L 1178 4134 
L 603 4134 
L 603 4863 
z
" id="DejaVuSans-69" transform="scale(0.015625)"/>
        <path d="M 603 4863 
L 1178 4863 
L 1178 0 
L 603 0 
L 603 4863 
z
" id="DejaVuSans-6c" transform="scale(0.015625)"/>
       </defs>
       <use xlink:href="#DejaVuSans-61"/>
       <use x="61.279297" xlink:href="#DejaVuSans-76"/>
       <use x="120.458984" xlink:href="#DejaVuSans-72"/>
       <use x="161.572266" xlink:href="#DejaVuSans-69"/>
       <use x="189.355469" xlink:href="#DejaVuSans-6c"/>
      </g>
     </g>
    </g>
    <g id="xtick_3">
     <g id="line2d_3">
      <g>
       <use style="stroke:#000000;stroke-width:0.8;" x="121.819579" xlink:href="#m39852aa0a1" y="270.860625"/>
      </g>
     </g>
     <g id="text_3">
      <!-- mai -->
      <g transform="translate(114.788396 294.56304)rotate(-45)scale(0.09 -0.09)">
       <use xlink:href="#DejaVuSans-6d"/>
       <use x="97.412109" xlink:href="#DejaVuSans-61"/>
       <use x="158.691406" xlink:href="#DejaVuSans-69"/>
      </g>
     </g>
    </g>
    <g id="xtick_4">
     <g id="line2d_4">
      <g>
       <use style="stroke:#000000;stroke-width:0.8;" x="150.235185" xlink:href="#m39852aa0a1" y="270.860625"/>
      </g>
     </g>
     <g id="text_4">
      <!-- juin -->
      <g transform="translate(143.468504 294.298537)rotate(-45)scale(0.09 -0.09)">
       <defs>
        <path d="M 603 3500 
L 1178 3500 
L 1178 -63 
Q 1178 -731 923 -1031 
Q 669 -1331 103 -1331 
L -116 -1331 
L -116 -844 
L 38 -844 
Q 366 -844 484 -692 
Q 603 -541 603 -63 
L 603 3500 
z
M 603 4863 
L 1178 4863 
L 1178 4134 
L 603 4134 
L 603 4863 
z
" id="DejaVuSans-6a" transform="scale(0.015625)"/>
        <path d="M 544 1381 
L 544 3500 
L 1119 3500 
L 1119 1403 
Q 1119 906 1312 657 
Q 1506 409 1894 409 
Q 2359 409 2629 706 
Q 2900 1003 2900 1516 
L 2900 3500 
L 3475 3500 
L 3475 0 
L 2900 0 
L 2900 538 
Q 2691 219 2414 64 
Q 2138 -91 1772 -91 
Q 1169 -91 856 284 
Q 544 659 544 1381 
z
M 1991 3584 
L 1991 3584 
z
" id="DejaVuSans-75" transform="scale(0.015625)"/>
        <path d="M 3513 2113 
L 3513 0 
L 2938 0 
L 2938 2094 
Q 2938 2591 2744 2837 
Q 2550 3084 2163 3084 
Q 1697 3084 1428 2787 
Q 1159 2491 1159 1978 
L 1159 0 
L 581 0 
L 581 3500 
L 1159 3500 
L 1159 2956 
Q 1366 3272 1645 3428 
Q 1925 3584 2291 3584 
Q 2894 3584 3203 3211 
Q 3513 2838 3513 2113 
z
" id="DejaVuSans-6e" transform="scale(0.015625)"/>
       </defs>
       <use xlink:href="#DejaVuSans-6a"/>
       <use x="27.783203" xlink:href="#DejaVuSans-75"/>
       <use x="91.162109" xlink:href="#DejaVuSans-69"/>
       <use x="118.945312" xlink:href="#DejaVuSans-6e"/>
      </g>
     </g>
    </g>
    <g id="xtick_5">
     <g id="line2d_5">
      <g>
       <use style="stroke:#000000;stroke-width:0.8;" x="177.734158" xlink:href="#m39852aa0a1" y="270.860625"/>
      </g>
     </g>
     <g id="text_5">
      <!-- juil. -->
      <g transform="translate(171.210104 294.055911)rotate(-45)scale(0.09 -0.09)">
       <defs>
        <path d="M 684 794 
L 1344 794 
L 1344 0 
L 684 0 
L 684 794 
z
" id="DejaVuSans-2e" transform="scale(0.015625)"/>
       </defs>
       <use xlink:href="#DejaVuSans-6a"/>
       <use x="27.783203" xlink:href="#DejaVuSans-75"/>
       <use x="91.162109" xlink:href="#DejaVuSans-69"/>
       <use x="118.945312" xlink:href="#DejaVuSans-6c"/>
       <use x="146.728516" xlink:href="#DejaVuSans-2e"/>
      </g>
     </g>
    </g>
    <g id="xtick_6">
     <g id="line2d_6">
      <g>
       <use style="stroke:#000000;stroke-width:0.8;" x="206.149764" xlink:href="#m39852aa0a1" y="270.860625"/>
      </g>
     </g>
     <g id="text_6">
      <!-- août -->
      <g transform="translate(196.663484 297.018136)rotate(-45)scale(0.09 -0.09)">
       <defs>
        <path d="M 1959 3097 
Q 1497 3097 1228 2736 
Q 959 2375 959 1747 
Q 959 1119 1226 758 
Q 1494 397 1959 397 
Q 2419 397 2687 759 
Q 2956 1122 2956 1747 
Q 2956 2369 2687 2733 
Q 2419 3097 1959 3097 
z
M 1959 3584 
Q 2709 3584 3137 3096 
Q 3566 2609 3566 1747 
Q 3566 888 3137 398 
Q 2709 -91 1959 -91 
Q 1206 -91 779 398 
Q 353 888 353 1747 
Q 353 2609 779 3096 
Q 1206 3584 1959 3584 
z
" id="DejaVuSans-6f" transform="scale(0.015625)"/>
        <path d="M 544 1381 
L 544 3500 
L 1119 3500 
L 1119 1403 
Q 1119 906 1312 657 
Q 1506 409 1894 409 
Q 2359 409 2629 706 
Q 2900 1003 2900 1516 
L 2900 3500 
L 3475 3500 
L 3475 0 
L 2900 0 
L 2900 538 
Q 2691 219 2414 64 
Q 2138 -91 1772 -91 
Q 1169 -91 856 284 
Q 544 659 544 1381 
z
M 1991 3584 
L 1991 3584 
z
M 1753 5119 
L 2215 5119 
L 2981 3944 
L 2547 3944 
L 1984 4709 
L 1422 3944 
L 987 3944 
L 1753 5119 
z
" id="DejaVuSans-fb" transform="scale(0.015625)"/>
        <path d="M 1172 4494 
L 1172 3500 
L 2356 3500 
L 2356 3053 
L 1172 3053 
L 1172 1153 
Q 1172 725 1289 603 
Q 1406 481 1766 481 
L 2356 481 
L 2356 0 
L 1766 0 
Q 1100 0 847 248 
Q 594 497 594 1153 
L 594 3053 
L 172 3053 
L 172 3500 
L 594 3500 
L 594 4494 
L 1172 4494 
z
" id="DejaVuSans-74" transform="scale(0.015625)"/>
       </defs>
       <use xlink:href="#DejaVuSans-61"/>
       <use x="61.279297" xlink:href="#DejaVuSans-6f"/>
       <use x="122.460938" xlink:href="#DejaVuSans-fb"/>
       <use x="185.839844" xlink:href="#DejaVuSans-74"/>
      </g>
     </g>
    </g>
    <g id="xtick_7">
     <g id="line2d_7">
      <g>
       <use style="stroke:#000000;stroke-width:0.8;" x="234.56537" xlink:href="#m39852aa0a1" y="270.860625"/>
      </g>
     </g>
     <g id="text_7">
      <!-- sept. -->
      <g transform="translate(223.612396 298.484831)rotate(-45)scale(0.09 -0.09)">
       <defs>
        <path d="M 3597 1894 
L 3597 1613 
L 953 1613 
Q 991 1019 1311 708 
Q 1631 397 2203 397 
Q 2534 397 2845 478 
Q 3156 559 3463 722 
L 3463 178 
Q 3153 47 2828 -22 
Q 2503 -91 2169 -91 
Q 1331 -91 842 396 
Q 353 884 353 1716 
Q 353 2575 817 3079 
Q 1281 3584 2069 3584 
Q 2775 3584 3186 3129 
Q 3597 2675 3597 1894 
z
M 3022 2063 
Q 3016 2534 2758 2815 
Q 2500 3097 2075 3097 
Q 1594 3097 1305 2825 
Q 1016 2553 972 2059 
L 3022 2063 
z
" id="DejaVuSans-65" transform="scale(0.015625)"/>
        <path d="M 1159 525 
L 1159 -1331 
L 581 -1331 
L 581 3500 
L 1159 3500 
L 1159 2969 
Q 1341 3281 1617 3432 
Q 1894 3584 2278 3584 
Q 2916 3584 3314 3078 
Q 3713 2572 3713 1747 
Q 3713 922 3314 415 
Q 2916 -91 2278 -91 
Q 1894 -91 1617 61 
Q 1341 213 1159 525 
z
M 3116 1747 
Q 3116 2381 2855 2742 
Q 2594 3103 2138 3103 
Q 1681 3103 1420 2742 
Q 1159 2381 1159 1747 
Q 1159 1113 1420 752 
Q 1681 391 2138 391 
Q 2594 391 2855 752 
Q 3116 1113 3116 1747 
z
" id="DejaVuSans-70" transform="scale(0.015625)"/>
       </defs>
       <use xlink:href="#DejaVuSans-73"/>
       <use x="52.099609" xlink:href="#DejaVuSans-65"/>
       <use x="113.623047" xlink:href="#DejaVuSans-70"/>
       <use x="177.099609" xlink:href="#DejaVuSans-74"/>
       <use x="216.308594" xlink:href="#DejaVuSans-2e"/>
      </g>
     </g>
    </g>
    <g id="xtick_8">
     <g id="line2d_8">
      <g>
       <use style="stroke:#000000;stroke-width:0.8;" x="262.064343" xlink:href="#m39852aa0a1" y="270.860625"/>
      </g>
     </g>
     <g id="text_8">
      <!-- oct. -->
      <g transform="translate(254.989408 294.606792)rotate(-45)scale(0.09 -0.09)">
       <defs>
        <path d="M 3122 3366 
L 3122 2828 
Q 2878 2963 2633 3030 
Q 2388 3097 2138 3097 
Q 1578 3097 1268 2742 
Q 959 2388 959 1747 
Q 959 1106 1268 751 
Q 1578 397 2138 397 
Q 2388 397 2633 464 
Q 2878 531 3122 666 
L 3122 134 
Q 2881 22 2623 -34 
Q 2366 -91 2075 -91 
Q 1284 -91 818 406 
Q 353 903 353 1747 
Q 353 2603 823 3093 
Q 1294 3584 2113 3584 
Q 2378 3584 2631 3529 
Q 2884 3475 3122 3366 
z
" id="DejaVuSans-63" transform="scale(0.015625)"/>
       </defs>
       <use xlink:href="#DejaVuSans-6f"/>
       <use x="61.181641" xlink:href="#DejaVuSans-63"/>
       <use x="116.162109" xlink:href="#DejaVuSans-74"/>
       <use x="155.371094" xlink:href="#DejaVuSans-2e"/>
      </g>
     </g>
    </g>
    <g id="xtick_9">
     <g id="line2d_9">
      <g>
       <use style="stroke:#000000;stroke-width:0.8;" x="290.479949" xlink:href="#m39852aa0a1" y="270.860625"/>
      </g>
     </g>
     <g id="text_9">
      <!-- nov. -->
      <g transform="translate(282.092447 295.919359)rotate(-45)scale(0.09 -0.09)">
       <use xlink:href="#DejaVuSans-6e"/>
       <use x="63.378906" xlink:href="#DejaVuSans-6f"/>
       <use x="124.560547" xlink:href="#DejaVuSans-76"/>
       <use x="175.990234" xlink:href="#DejaVuSans-2e"/>
      </g>
     </g>
    </g>
    <g id="xtick_10">
     <g id="line2d_10">
      <g>
       <use style="stroke:#000000;stroke-width:0.8;" x="317.978922" xlink:href="#m39852aa0a1" y="270.860625"/>
      </g>
     </g>
     <g id="text_10">
      <!-- déc. -->
      <g transform="translate(309.336862 296.173917)rotate(-45)scale(0.09 -0.09)">
       <defs>
        <path d="M 2906 2969 
L 2906 4863 
L 3481 4863 
L 3481 0 
L 2906 0 
L 2906 525 
Q 2725 213 2448 61 
Q 2172 -91 1784 -91 
Q 1150 -91 751 415 
Q 353 922 353 1747 
Q 353 2572 751 3078 
Q 1150 3584 1784 3584 
Q 2172 3584 2448 3432 
Q 2725 3281 2906 2969 
z
M 947 1747 
Q 947 1113 1208 752 
Q 1469 391 1925 391 
Q 2381 391 2643 752 
Q 2906 1113 2906 1747 
Q 2906 2381 2643 2742 
Q 2381 3103 1925 3103 
Q 1469 3103 1208 2742 
Q 947 2381 947 1747 
z
" id="DejaVuSans-64" transform="scale(0.015625)"/>
        <path d="M 3597 1894 
L 3597 1613 
L 953 1613 
Q 991 1019 1311 708 
Q 1631 397 2203 397 
Q 2534 397 2845 478 
Q 3156 559 3463 722 
L 3463 178 
Q 3153 47 2828 -22 
Q 2503 -91 2169 -91 
Q 1331 -91 842 396 
Q 353 884 353 1716 
Q 353 2575 817 3079 
Q 1281 3584 2069 3584 
Q 2775 3584 3186 3129 
Q 3597 2675 3597 1894 
z
M 3022 2063 
Q 3016 2534 2758 2815 
Q 2500 3097 2075 3097 
Q 1594 3097 1305 2825 
Q 1016 2553 972 2059 
L 3022 2063 
z
M 2466 5119 
L 3088 5119 
L 2070 3944 
L 1591 3944 
L 2466 5119 
z
" id="DejaVuSans-e9" transform="scale(0.015625)"/>
       </defs>
       <use xlink:href="#DejaVuSans-64"/>
       <use x="63.476562" xlink:href="#DejaVuSans-e9"/>
       <use x="125" xlink:href="#DejaVuSans-63"/>
       <use x="179.980469" xlink:href="#DejaVuSans-2e"/>
      </g>
     </g>
    </g>
    <g id="xtick_11">
     <g id="line2d_11">
      <g>
       <use style="stroke:#000000;stroke-width:0.8;" x="346.394528" xlink:href="#m39852aa0a1" y="270.860625"/>
      </g>
     </g>
     <g id="text_11">
      <!-- janv. -->
      <g transform="translate(336.233072 297.693313)rotate(-45)scale(0.09 -0.09)">
       <use xlink:href="#DejaVuSans-6a"/>
       <use x="27.783203" xlink:href="#DejaVuSans-61"/>
       <use x="89.0625" xlink:href="#DejaVuSans-6e"/>
       <use x="152.441406" xlink:href="#DejaVuSans-76"/>
       <use x="203.871094" xlink:href="#DejaVuSans-2e"/>
      </g>
     </g>
    </g>
    <g id="xtick_12">
     <g id="line2d_12">
      <g>
       <use style="stroke:#000000;stroke-width:0.8;" x="374.810133" xlink:href="#m39852aa0a1" y="270.860625"/>
      </g>
     </g>
     <g id="text_12">
      <!-- fév. -->
      <g transform="translate(368.193603 294.148388)rotate(-45)scale(0.09 -0.09)">
       <defs>
        <path d="M 2375 4863 
L 2375 4384 
L 1825 4384 
Q 1516 4384 1395 4259 
Q 1275 4134 1275 3809 
L 1275 3500 
L 2222 3500 
L 2222 3053 
L 1275 3053 
L 1275 0 
L 697 0 
L 697 3053 
L 147 3053 
L 147 3500 
L 697 3500 
L 697 3744 
Q 697 4328 969 4595 
Q 1241 4863 1831 4863 
L 2375 4863 
z
" id="DejaVuSans-66" transform="scale(0.015625)"/>
       </defs>
       <use xlink:href="#DejaVuSans-66"/>
       <use x="35.205078" xlink:href="#DejaVuSans-e9"/>
       <use x="96.728516" xlink:href="#DejaVuSans-76"/>
       <use x="148.158203" xlink:href="#DejaVuSans-2e"/>
      </g>
     </g>
    </g>
    <g id="xtick_13">
     <g id="line2d_13">
      <g>
       <use style="stroke:#000000;stroke-width:0.8;" x="400.475842" xlink:href="#m39852aa0a1" y="270.860625"/>
      </g>
     </g>
     <g id="text_13">
      <!-- mars -->
      <g transform="translate(389.281237 298.726462)rotate(-45)scale(0.09 -0.09)">
       <use xlink:href="#DejaVuSans-6d"/>
       <use x="97.412109" xlink:href="#DejaVuSans-61"/>
       <use x="158.691406" xlink:href="#DejaVuSans-72"/>
       <use x="199.804688" xlink:href="#DejaVuSans-73"/>
      </g>
     </g>
    </g>
    <g id="xtick_14">
     <g id="line2d_14">
      <g>
       <use style="stroke:#000000;stroke-width:0.8;" x="428.891448" xlink:href="#m39852aa0a1" y="270.860625"/>
      </g>
     </g>
     <g id="text_14">
      <!-- avril -->
      <g transform="translate(419.908319 296.514986)rotate(-45)scale(0.09 -0.09)">
       <use xlink:href="#DejaVuSans-61"/>
       <use x="61.279297" xlink:href="#DejaVuSans-76"/>
       <use x="120.458984" xlink:href="#DejaVuSans-72"/>
       <use x="161.572266" xlink:href="#DejaVuSans-69"/>
       <use x="189.355469" xlink:href="#DejaVuSans-6c"/>
      </g>
     </g>
    </g>
    <g id="xtick_15">
     <g id="line2d_15">
      <g>
       <use style="stroke:#000000;stroke-width:0.8;" x="456.390421" xlink:href="#m39852aa0a1" y="270.860625"/>
      </g>
     </g>
     <g id="text_15">
      <!-- mai -->
      <g transform="translate(449.359238 294.56304)rotate(-45)scale(0.09 -0.09)">
       <use xlink:href="#DejaVuSans-6d"/>
       <use x="97.412109" xlink:href="#DejaVuSans-61"/>
       <use x="158.691406" xlink:href="#DejaVuSans-69"/>
      </g>
     </g>
    </g>
    <g id="xtick_16">
     <g id="line2d_16">
      <g>
       <use style="stroke:#000000;stroke-width:0.8;" x="484.806027" xlink:href="#m39852aa0a1" y="270.860625"/>
      </g>
     </g>
     <g id="text_16">
      <!-- juin -->
      <g transform="translate(478.039346 294.298537)rotate(-45)scale(0.09 -0.09)">
       <use xlink:href="#DejaVuSans-6a"/>
       <use x="27.783203" xlink:href="#DejaVuSans-75"/>
       <use x="91.162109" xlink:href="#DejaVuSans-69"/>
       <use x="118.945312" xlink:href="#DejaVuSans-6e"/>
      </g>
     </g>
    </g>
    <g id="xtick_17">
     <g id="line2d_17">
      <g>
       <use style="stroke:#000000;stroke-width:0.8;" x="512.305" xlink:href="#m39852aa0a1" y="270.860625"/>
      </g>
     </g>
     <g id="text_17">
      <!-- juil. -->
      <g transform="translate(505.780946 294.055911)rotate(-45)scale(0.09 -0.09)">
       <use xlink:href="#DejaVuSans-6a"/>
       <use x="27.783203" xlink:href="#DejaVuSans-75"/>
       <use x="91.162109" xlink:href="#DejaVuSans-69"/>
       <use x="118.945312" xlink:href="#DejaVuSans-6c"/>
       <use x="146.728516" xlink:href="#DejaVuSans-2e"/>
      </g>
     </g>
    </g>
   </g>
   <g id="matplotlib.axis_2">
    <g id="ytick_1">
     <g id="line2d_18">
      <path clip-path="url(#p15c1074464)" d="M 65.905 260.506339 
L 512.305 260.506339 
" style="fill:none;stroke:#b0b0b0;stroke-linecap:square;stroke-opacity:0.5;stroke-width:0.8;"/>
     </g>
     <g id="text_18">
      <!-- 0 -->
      <g transform="translate(53.17875 263.925636)scale(0.09 -0.09)">
       <defs>
        <path d="M 2034 4250 
Q 1547 4250 1301 3770 
Q 1056 3291 1056 2328 
Q 1056 1369 1301 889 
Q 1547 409 2034 409 
Q 2525 409 2770 889 
Q 3016 1369 3016 2328 
Q 3016 3291 2770 3770 
Q 2525 4250 2034 4250 
z
M 2034 4750 
Q 2819 4750 3233 4129 
Q 3647 3509 3647 2328 
Q 3647 1150 3233 529 
Q 2819 -91 2034 -91 
Q 1250 -91 836 529 
Q 422 1150 422 2328 
Q 422 3509 836 4129 
Q 1250 4750 2034 4750 
z
" id="DejaVuSans-30" transform="scale(0.015625)"/>
       </defs>
       <use xlink:href="#DejaVuSans-30"/>
      </g>
     </g>
    </g>
    <g id="ytick_2">
     <g id="line2d_19">
      <path clip-path="url(#p15c1074464)" d="M 65.905 174.220625 
L 512.305 174.220625 
" style="fill:none;stroke:#b0b0b0;stroke-linecap:square;stroke-opacity:0.5;stroke-width:0.8;"/>
     </g>
     <g id="text_19">
      <!-- 500 -->
      <g transform="translate(41.72625 177.639922)scale(0.09 -0.09)">
       <defs>
        <path d="M 691 4666 
L 3169 4666 
L 3169 4134 
L 1269 4134 
L 1269 2991 
Q 1406 3038 1543 3061 
Q 1681 3084 1819 3084 
Q 2600 3084 3056 2656 
Q 3513 2228 3513 1497 
Q 3513 744 3044 326 
Q 2575 -91 1722 -91 
Q 1428 -91 1123 -41 
Q 819 9 494 109 
L 494 744 
Q 775 591 1075 516 
Q 1375 441 1709 441 
Q 2250 441 2565 725 
Q 2881 1009 2881 1497 
Q 2881 1984 2565 2268 
Q 2250 2553 1709 2553 
Q 1456 2553 1204 2497 
Q 953 2441 691 2322 
L 691 4666 
z
" id="DejaVuSans-35" transform="scale(0.015625)"/>
       </defs>
       <use xlink:href="#DejaVuSans-35"/>
       <use x="63.623047" xlink:href="#DejaVuSans-30"/>
       <use x="127.246094" xlink:href="#DejaVuSans-30"/>
      </g>
     </g>
    </g>
    <g id="ytick_3">
     <g id="line2d_20">
      <path clip-path="url(#p15c1074464)" d="M 65.905 87.934911 
L 512.305 87.934911 
" style="fill:none;stroke:#b0b0b0;stroke-linecap:square;stroke-opacity:0.5;stroke-width:0.8;"/>
     </g>
     <g id="text_20">
      <!-- 1000 -->
      <g transform="translate(36 91.354208)scale(0.09 -0.09)">
       <defs>
        <path d="M 794 531 
L 1825 531 
L 1825 4091 
L 703 3866 
L 703 4441 
L 1819 4666 
L 2450 4666 
L 2450 531 
L 3481 531 
L 3481 0 
L 794 0 
L 794 531 
z
" id="DejaVuSans-31" transform="scale(0.015625)"/>
       </defs>
       <use xlink:href="#DejaVuSans-31"/>
       <use x="63.623047" xlink:href="#DejaVuSans-30"/>
       <use x="127.246094" xlink:href="#DejaVuSans-30"/>
       <use x="190.869141" xlink:href="#DejaVuSans-30"/>
      </g>
     </g>
    </g>
    <g id="ytick_4">
     <g id="line2d_21">
      <path clip-path="url(#p15c1074464)" d="M 65.905 243.249196 
L 512.305 243.249196 
" style="fill:none;stroke:#b0b0b0;stroke-linecap:square;stroke-opacity:0.2;stroke-width:0.8;"/>
     </g>
    </g>
    <g id="ytick_5">
     <g id="line2d_22">
      <path clip-path="url(#p15c1074464)" d="M 65.905 225.992054 
L 512.305 225.992054 
" style="fill:none;stroke:#b0b0b0;stroke-linecap:square;stroke-opacity:0.2;stroke-width:0.8;"/>
     </g>
    </g>
    <g id="ytick_6">
     <g id="line2d_23">
      <path clip-path="url(#p15c1074464)" d="M 65.905 208.734911 
L 512.305 208.734911 
" style="fill:none;stroke:#b0b0b0;stroke-linecap:square;stroke-opacity:0.2;stroke-width:0.8;"/>
     </g>
    </g>
    <g id="ytick_7">
     <g id="line2d_24">
      <path clip-path="url(#p15c1074464)" d="M 65.905 191.477768 
L 512.305 191.477768 
" style="fill:none;stroke:#b0b0b0;stroke-linecap:square;stroke-opacity:0.2;stroke-width:0.8;"/>
     </g>
    </g>
    <g id="ytick_8">
     <g id="line2d_25">
      <path clip-path="url(#p15c1074464)" d="M 65.905 156.963482 
L 512.305 156.963482 
" style="fill:none;stroke:#b0b0b0;stroke-linecap:square;stroke-opacity:0.2;stroke-width:0.8;"/>
     </g>
    </g>
    <g id="ytick_9">
     <g id="line2d_26">
      <path clip-path="url(#p15c1074464)" d="M 65.905 139.706339 
L 512.305 139.706339 
" style="fill:none;stroke:#b0b0b0;stroke-linecap:square;stroke-opacity:0.2;stroke-width:0.8;"/>
     </g>
    </g>
    <g id="ytick_10">
     <g id="line2d_27">
      <path clip-path="url(#p15c1074464)" d="M 65.905 122.449196 
L 512.305 122.449196 
" style="fill:none;stroke:#b0b0b0;stroke-linecap:square;stroke-opacity:0.2;stroke-width:0.8;"/>
     </g>
    </g>
    <g id="ytick_11">
     <g id="line2d_28">
      <path clip-path="url(#p15c1074464)" d="M 65.905 105.192054 
L 512.305 105.192054 
" style="fill:none;stroke:#b0b0b0;stroke-linecap:square;stroke-opacity:0.2;stroke-width:0.8;"/>
     </g>
    </g>
    <g id="ytick_12">
     <g id="line2d_29">
      <path clip-path="url(#p15c1074464)" d="M 65.905 70.677768 
L 512.305 70.677768 
" style="fill:none;stroke:#b0b0b0;stroke-linecap:square;stroke-opacity:0.2;stroke-width:0.8;"/>
     </g>
    </g>
   </g>
   <g id="line2d_30">
    <path clip-path="url(#p15c1074464)" d="M 65.905 254.267018 
L 512.305 254.267018 
" style="fill:none;stroke:#00ced1;stroke-linecap:square;stroke-width:0.8;"/>
   </g>
   <g id="line2d_31">
    <path clip-path="url(#p15c1074464)" d="M 132.819168 260.506339 
L 139.235595 260.506339 
L 140.152228 260.368475 
L 141.985493 260.368475 
L 144.73539 259.954883 
L 145.652023 259.954883 
L 146.568655 260.092747 
L 148.40192 260.092747 
L 150.235185 260.368475 
L 152.985082 260.368475 
L 153.901715 260.092747 
L 156.651612 260.092747 
L 157.568244 260.230611 
L 159.401509 260.230611 
L 160.318142 260.368475 
L 163.068039 260.368475 
L 163.984671 260.230611 
L 164.901304 260.230611 
L 165.817936 260.092747 
L 166.734569 260.092747 
L 167.651201 259.954883 
L 172.234363 259.954883 
L 174.067628 260.230611 
L 176.817526 260.230611 
L 177.734158 260.092747 
L 178.650791 260.230611 
L 182.31732 260.230611 
L 184.150585 260.506339 
L 188.733747 259.817019 
L 189.65038 259.817019 
L 190.567012 259.54129 
L 191.483645 259.679154 
L 192.400277 259.679154 
L 195.150175 260.092747 
L 196.066807 259.954883 
L 196.983439 260.092747 
L 197.900072 259.679154 
L 198.816704 259.127698 
L 200.649969 259.127698 
L 202.483234 255.405366 
L 203.399867 255.267502 
L 204.316499 255.54323 
L 205.233131 256.094687 
L 206.149764 255.681095 
L 207.066396 255.54323 
L 207.983029 256.784008 
L 208.899661 258.438377 
L 209.816294 258.576241 
L 210.732926 257.611192 
L 211.649559 256.921872 
L 212.566191 256.921872 
L 214.399456 256.370415 
L 216.232721 252.923812 
L 217.149353 250.717986 
L 218.065986 250.028665 
L 218.982618 250.304393 
L 219.899251 250.442258 
L 220.815883 246.168469 
L 221.732515 243.962643 
L 222.649148 240.653904 
L 223.56578 238.86167 
L 224.482413 239.413127 
L 225.399045 239.275263 
L 226.315678 238.86167 
L 228.148943 236.793708 
L 229.065575 236.655844 
L 229.982207 235.139339 
L 231.815472 234.587882 
L 232.732105 234.450018 
L 233.648737 230.727687 
L 234.56537 229.073317 
L 235.482002 226.591763 
L 236.398634 226.316034 
L 237.315267 224.799529 
L 238.231899 224.799529 
L 239.148532 225.075257 
L 240.065164 228.383996 
L 240.981797 227.418947 
L 241.898429 229.486909 
L 242.815062 230.451958 
L 243.731694 231.003415 
L 244.648326 229.900502 
L 245.564959 230.17623 
L 246.481591 228.108268 
L 247.398224 226.591763 
L 248.314856 223.283023 
L 249.231489 221.766518 
L 250.148121 219.698556 
L 251.064754 220.939333 
L 251.981386 220.112148 
L 252.898018 218.319915 
L 253.814651 219.698556 
L 254.731283 223.420887 
L 255.647916 223.83448 
L 256.564548 224.937393 
L 257.481181 224.661665 
L 258.397813 224.799529 
L 260.231078 229.486909 
L 261.14771 228.935453 
L 262.064343 231.279143 
L 263.897608 232.382056 
L 264.81424 231.8306 
L 265.730873 235.552931 
L 266.647505 237.069437 
L 267.564138 240.653904 
L 268.48077 241.756817 
L 269.397402 242.032545 
L 270.314035 241.481089 
L 271.230667 242.446138 
L 272.1473 244.238372 
L 273.063932 246.995654 
L 273.980565 246.85779 
L 274.897197 247.547111 
L 275.81383 249.063616 
L 276.730462 249.339345 
L 277.647094 249.477209 
L 278.563727 249.477209 
L 279.480359 249.063616 
L 280.396992 249.890801 
L 281.313624 251.683035 
L 282.230257 251.820899 
L 283.146889 252.096627 
L 284.063522 251.683035 
L 284.980154 252.372355 
L 285.896786 253.475268 
L 286.813419 254.302453 
L 287.730051 253.888861 
L 288.646684 252.234491 
L 289.563316 251.958763 
L 290.479949 252.785948 
L 291.396581 254.302453 
L 292.313214 253.475268 
L 293.229846 253.475268 
L 294.146478 254.302453 
L 295.063111 256.094687 
L 295.979743 255.956823 
L 296.896376 255.956823 
L 297.813008 255.129638 
L 298.729641 256.232551 
L 299.646273 256.784008 
L 300.562906 256.370415 
L 301.479538 256.094687 
L 302.39617 256.370415 
L 303.312803 256.370415 
L 304.229435 256.921872 
L 305.146068 257.335464 
L 306.0627 256.921872 
L 306.979333 256.784008 
L 307.895965 257.473328 
L 308.812598 257.611192 
L 309.72923 257.1976 
L 310.645862 257.473328 
L 311.562495 257.1976 
L 313.39576 257.749057 
L 314.312392 257.335464 
L 315.229025 257.335464 
L 316.145657 257.749057 
L 317.06229 257.749057 
L 317.978922 257.886921 
L 318.895554 257.749057 
L 319.812187 258.714106 
L 320.728819 259.265562 
L 321.645452 259.265562 
L 324.395349 258.85197 
L 325.311982 259.265562 
L 327.145246 258.714106 
L 328.061879 258.85197 
L 328.978511 258.85197 
L 329.895144 258.714106 
L 330.811776 258.85197 
L 332.645041 258.300513 
L 333.561674 258.300513 
L 334.478306 257.886921 
L 335.394938 257.886921 
L 336.311571 258.162649 
L 338.144836 257.886921 
L 339.061468 257.611192 
L 339.978101 257.749057 
L 340.894733 258.024785 
L 341.811366 258.162649 
L 342.727998 257.749057 
L 343.64463 257.611192 
L 344.561263 257.059736 
L 345.477895 257.059736 
L 346.394528 256.921872 
L 347.31116 255.681095 
L 350.97769 255.681095 
L 351.894322 255.956823 
L 352.810955 255.818959 
L 353.727587 257.059736 
L 355.560852 256.784008 
L 356.477485 256.508279 
L 357.394117 256.784008 
L 359.227382 256.784008 
L 360.144014 256.370415 
L 361.060647 256.370415 
L 361.977279 255.956823 
L 363.810544 257.059736 
L 364.727177 257.1976 
L 365.643809 257.059736 
L 366.560441 257.1976 
L 367.477074 257.1976 
L 368.393706 258.162649 
L 369.310339 257.886921 
L 370.226971 257.473328 
L 372.060236 257.749057 
L 372.976869 257.611192 
L 373.893501 257.335464 
L 374.810133 256.370415 
L 376.643398 256.094687 
L 377.560031 255.818959 
L 378.476663 255.681095 
L 379.393296 255.818959 
L 380.309928 256.232551 
L 381.226561 256.508279 
L 382.143193 256.370415 
L 383.059825 256.370415 
L 383.976458 255.818959 
L 384.89309 254.716046 
L 385.809723 255.129638 
L 386.726355 254.716046 
L 387.642988 254.85391 
L 388.55962 255.129638 
L 389.476253 255.129638 
L 390.392885 254.164589 
L 391.309517 253.888861 
L 392.22615 253.061676 
L 393.142782 253.475268 
L 394.059415 250.85585 
L 394.976047 248.925752 
L 395.89268 248.236431 
L 396.809312 247.960703 
L 397.725945 247.133518 
L 398.642577 246.85779 
L 399.559209 246.306334 
L 401.392474 244.651964 
L 402.309107 243.411187 
L 403.225739 243.411187 
L 405.059004 243.686915 
L 405.975637 243.962643 
L 406.892269 245.754877 
L 407.808901 246.85779 
L 408.725534 248.236431 
L 409.642166 250.028665 
L 410.558799 250.85585 
L 411.475431 250.442258 
L 412.392064 250.580122 
L 413.308696 250.442258 
L 414.225329 251.269442 
L 415.141961 250.442258 
L 416.058593 249.890801 
L 416.975226 248.51216 
L 417.891858 249.20148 
L 418.808491 249.20148 
L 419.725123 250.166529 
L 421.558388 248.787888 
L 422.475021 247.547111 
L 423.391653 247.684975 
L 425.224918 247.409247 
L 426.14155 247.684975 
L 427.058183 247.684975 
L 427.974815 248.51216 
L 428.891448 249.063616 
L 429.80808 251.683035 
L 431.641345 250.85585 
L 432.557977 251.407307 
L 433.47461 251.407307 
L 434.391242 249.890801 
L 436.224507 242.997594 
L 437.14114 242.446138 
L 438.057772 242.308274 
L 438.974405 237.207301 
L 439.891037 234.450018 
L 440.807669 232.382056 
L 441.724302 231.968464 
L 442.640934 231.003415 
L 443.557567 230.314094 
L 444.474199 230.17623 
L 445.390832 229.900502 
L 446.307464 230.038366 
L 447.224097 229.073317 
L 448.140729 228.935453 
L 449.057361 229.624773 
L 449.973994 230.865551 
L 450.890626 231.003415 
L 451.807259 231.003415 
L 452.723891 228.797589 
L 453.640524 228.797589 
L 454.557156 229.624773 
L 455.473789 229.762638 
L 457.307053 230.865551 
L 458.223686 231.003415 
L 460.056951 236.242252 
L 460.973583 238.310214 
L 461.890216 238.17235 
L 462.806848 238.448078 
L 463.72348 238.034486 
L 464.640113 239.688855 
L 465.556745 240.791768 
L 467.39001 243.962643 
L 468.306643 245.617013 
L 469.223275 245.203421 
L 470.139908 245.479149 
L 471.05654 246.719926 
L 471.973172 246.444198 
L 472.889805 246.582062 
L 473.806437 245.479149 
L 475.639702 245.203421 
L 476.556335 245.479149 
L 477.472967 248.374296 
L 478.3896 249.20148 
L 479.306232 250.580122 
L 480.222864 252.372355 
L 481.139497 252.785948 
L 482.056129 252.51022 
L 482.972762 252.096627 
L 483.889394 251.131578 
L 484.806027 252.51022 
L 485.722659 252.648084 
L 486.639292 252.51022 
L 487.555924 254.026725 
L 488.472556 254.578182 
L 489.389189 254.85391 
L 490.305821 254.991774 
L 491.222454 254.302453 
L 492.139086 254.578182 
L 493.055719 254.302453 
L 493.972351 254.164589 
L 494.888984 254.164589 
L 496.722248 254.716046 
L 497.638881 256.646144 
L 498.555513 256.784008 
L 499.472146 257.335464 
L 500.388778 257.611192 
L 501.305411 258.300513 
L 503.138676 258.024785 
L 504.055308 257.335464 
L 504.055308 257.335464 
" style="fill:none;stroke:#b22222;stroke-linecap:square;"/>
   </g>
   <g id="line2d_32">
    <path clip-path="url(#p15c1074464)" d="M 132.819168 260.506339 
L 139.235595 260.506339 
L 140.152228 260.388624 
L 141.06886 260.153194 
L 146.568655 260.153194 
L 147.485287 260.388624 
L 152.06845 260.388624 
L 152.985082 260.506339 
L 154.818347 260.270909 
L 157.568244 260.270909 
L 158.484877 260.153194 
L 160.318142 260.153194 
L 161.234774 260.270909 
L 162.151407 260.270909 
L 163.068039 260.153194 
L 163.984671 260.153194 
L 164.901304 260.270909 
L 166.734569 260.270909 
L 167.651201 260.153194 
L 171.317731 260.153194 
L 172.234363 260.035479 
L 174.067628 260.270909 
L 174.984261 260.270909 
L 175.900893 260.388624 
L 176.817526 260.388624 
L 177.734158 260.270909 
L 178.650791 260.388624 
L 179.567423 260.270909 
L 181.400688 260.270909 
L 183.233953 260.035479 
L 184.150585 260.153194 
L 185.067218 260.153194 
L 185.98385 260.270909 
L 187.817115 260.035479 
L 189.65038 260.270909 
L 190.567012 260.270909 
L 191.483645 260.153194 
L 192.400277 259.800049 
L 193.31691 259.800049 
L 194.233542 259.917764 
L 197.900072 259.917764 
L 198.816704 260.153194 
L 200.649969 260.153194 
L 201.566602 258.976044 
L 202.483234 258.387469 
L 204.316499 258.387469 
L 205.233131 258.269753 
L 207.066396 258.269753 
L 207.983029 259.093759 
L 208.899661 259.564619 
L 209.816294 259.329189 
L 210.732926 258.622899 
L 211.649559 258.858329 
L 213.482823 258.387469 
L 214.399456 257.798893 
L 215.316088 255.797738 
L 216.232721 255.209162 
L 218.065986 251.913141 
L 219.899251 250.853706 
L 220.815883 247.43997 
L 221.732515 245.909674 
L 222.649148 243.555373 
L 223.56578 242.142793 
L 224.482413 242.260508 
L 225.399045 242.966798 
L 226.315678 243.084513 
L 229.982207 219.306075 
L 230.89884 217.540349 
L 231.815472 216.598629 
L 232.732105 215.892338 
L 233.648737 211.890027 
L 234.56537 211.183737 
L 235.482002 209.535726 
L 236.398634 208.123146 
L 237.315267 206.475135 
L 238.231899 205.88656 
L 239.148532 206.35742 
L 240.065164 204.827124 
L 240.981797 200.707098 
L 241.898429 201.060243 
L 242.815062 197.764222 
L 243.731694 197.881937 
L 244.648326 197.528792 
L 245.564959 196.587072 
L 246.481591 195.409921 
L 247.398224 196.469356 
L 248.314856 194.115056 
L 249.231489 192.82019 
L 250.148121 191.289895 
L 251.064754 191.64304 
L 251.981386 191.054465 
L 252.898018 189.641884 
L 253.814651 187.405298 
L 254.731283 189.171024 
L 255.647916 192.467045 
L 258.397813 195.292206 
L 259.314446 199.176802 
L 260.231078 205.88656 
L 261.14771 208.594006 
L 262.064343 210.948307 
L 262.980975 212.360887 
L 263.897608 212.125457 
L 264.81424 212.478602 
L 265.730873 219.541505 
L 266.647505 221.778091 
L 267.564138 226.722122 
L 268.48077 227.310697 
L 269.397402 226.839837 
L 270.314035 226.015832 
L 271.230667 226.368977 
L 272.1473 227.781558 
L 273.063932 226.839837 
L 273.980565 227.310697 
L 274.897197 231.901584 
L 276.730462 235.197605 
L 277.647094 235.197605 
L 278.563727 236.963331 
L 279.480359 241.318787 
L 281.313624 243.084513 
L 282.230257 244.261664 
L 283.146889 243.790803 
L 284.063522 244.143948 
L 284.980154 244.732524 
L 285.896786 244.379379 
L 286.813419 243.555373 
L 287.730051 243.555373 
L 288.646684 241.436502 
L 289.563316 241.907363 
L 290.479949 241.907363 
L 291.396581 244.967954 
L 292.313214 244.261664 
L 294.146478 246.969109 
L 295.063111 248.734835 
L 295.979743 249.08798 
L 296.896376 249.08798 
L 297.813008 247.6754 
L 299.646273 250.971421 
L 300.562906 251.795426 
L 301.479538 252.972577 
L 302.39617 252.384001 
L 303.312803 252.501716 
L 304.229435 252.854862 
L 305.146068 254.032012 
L 306.0627 253.914297 
L 306.979333 254.267442 
L 307.895965 253.561152 
L 308.812598 253.914297 
L 309.72923 253.796582 
L 310.645862 254.973732 
L 311.562495 255.562308 
L 312.479127 255.797738 
L 313.39576 256.150883 
L 314.312392 257.210318 
L 315.229025 257.328033 
L 316.145657 257.563463 
L 317.06229 257.092603 
L 317.978922 256.857173 
L 318.895554 256.974888 
L 319.812187 257.210318 
L 320.728819 257.328033 
L 321.645452 257.563463 
L 322.562084 257.210318 
L 323.478717 257.563463 
L 324.395349 258.269753 
L 325.311982 257.798893 
L 326.228614 257.798893 
L 328.061879 257.210318 
L 329.895144 257.445748 
L 330.811776 256.857173 
L 331.728409 257.092603 
L 332.645041 256.386313 
L 333.561674 256.150883 
L 334.478306 256.033168 
L 335.394938 256.150883 
L 336.311571 255.797738 
L 337.228203 256.268598 
L 338.144836 255.680023 
L 339.061468 255.797738 
L 339.978101 256.621743 
L 340.894733 256.739458 
L 341.811366 256.268598 
L 342.727998 256.150883 
L 344.561263 255.326877 
L 345.477895 255.209162 
L 346.394528 254.973732 
L 347.31116 253.796582 
L 348.227793 254.267442 
L 350.061057 253.443437 
L 350.97769 253.914297 
L 351.894322 253.561152 
L 352.810955 252.619431 
L 353.727587 253.208007 
L 354.64422 253.325722 
L 356.477485 253.914297 
L 357.394117 253.678867 
L 358.310749 254.620587 
L 360.144014 255.562308 
L 361.060647 255.562308 
L 361.977279 255.091447 
L 362.893912 255.326877 
L 363.810544 255.797738 
L 364.727177 255.915453 
L 365.643809 255.091447 
L 368.393706 254.738302 
L 369.310339 254.973732 
L 370.226971 254.738302 
L 371.143604 254.267442 
L 372.060236 254.738302 
L 372.976869 254.502872 
L 373.893501 254.385157 
L 374.810133 254.973732 
L 375.726766 254.856017 
L 377.560031 253.325722 
L 378.476663 252.854862 
L 379.393296 253.208007 
L 380.309928 253.325722 
L 381.226561 252.501716 
L 382.143193 250.382846 
L 383.059825 250.735991 
L 383.976458 249.911986 
L 385.809723 249.08798 
L 386.726355 248.85255 
L 387.642988 249.08798 
L 388.55962 251.559996 
L 389.476253 252.737147 
L 390.392885 251.089136 
L 391.309517 248.61712 
L 392.22615 247.6754 
L 393.142782 247.793115 
L 394.059415 243.673088 
L 394.976047 240.612497 
L 395.89268 238.022766 
L 396.809312 237.787336 
L 397.725945 237.316476 
L 398.642577 237.434191 
L 401.392474 236.021611 
L 402.309107 234.962175 
L 403.225739 235.668465 
L 404.142372 237.669621 
L 405.059004 238.258196 
L 405.975637 238.493626 
L 406.892269 240.847927 
L 407.808901 241.554218 
L 408.725534 243.319943 
L 409.642166 245.556529 
L 410.558799 244.497094 
L 411.475431 244.614809 
L 412.392064 244.261664 
L 413.308696 242.966798 
L 414.225329 242.025078 
L 415.141961 240.730212 
L 416.058593 237.905051 
L 416.975226 237.669621 
L 417.891858 237.081046 
L 418.808491 237.434191 
L 419.725123 238.022766 
L 421.558388 238.258196 
L 422.475021 239.553062 
L 423.391653 239.788492 
L 424.308285 240.141637 
L 425.224918 240.023922 
L 426.14155 240.377067 
L 427.974815 236.257041 
L 428.891448 234.020455 
L 429.80808 236.963331 
L 430.724713 235.07989 
L 431.641345 234.84446 
L 432.557977 237.081046 
L 434.391242 233.90274 
L 435.307875 230.371289 
L 436.224507 224.014676 
L 437.14114 223.543816 
L 438.057772 222.131236 
L 438.974405 214.479758 
L 439.891037 212.831747 
L 440.807669 212.243172 
L 441.724302 214.008898 
L 442.640934 213.773468 
L 443.557567 212.125457 
L 444.474199 213.655753 
L 445.390832 211.419167 
L 446.307464 210.712877 
L 447.224097 211.419167 
L 448.140729 209.182581 
L 449.057361 209.888871 
L 449.973994 212.243172 
L 450.890626 211.066022 
L 451.807259 213.655753 
L 452.723891 215.892338 
L 453.640524 214.597473 
L 454.557156 216.245484 
L 455.473789 216.951774 
L 456.390421 218.717499 
L 457.307053 219.306075 
L 458.223686 218.364354 
L 459.140318 218.599784 
L 460.056951 221.778091 
L 460.973583 223.190671 
L 461.890216 223.779246 
L 462.806848 223.779246 
L 463.72348 224.485536 
L 464.640113 226.133547 
L 465.556745 228.370133 
L 466.473378 228.605563 
L 467.39001 233.90274 
L 468.306643 235.07989 
L 469.223275 233.66731 
L 470.139908 233.314165 
L 471.973172 239.199917 
L 472.889805 240.612497 
L 473.806437 237.905051 
L 474.72307 240.141637 
L 475.639702 240.141637 
L 476.556335 240.377067 
L 477.472967 245.438814 
L 478.3896 243.202228 
L 479.306232 244.143948 
L 480.222864 246.380534 
L 481.139497 244.143948 
L 482.056129 245.085669 
L 482.972762 245.438814 
L 483.889394 242.025078 
L 484.806027 244.143948 
L 485.722659 244.497094 
L 486.639292 244.143948 
L 487.555924 247.557685 
L 488.472556 248.61712 
L 489.389189 248.263975 
L 491.222454 251.559996 
L 492.139086 252.501716 
L 493.055719 253.090292 
L 493.972351 252.737147 
L 494.888984 252.737147 
L 496.722248 253.561152 
L 497.638881 254.385157 
L 498.555513 254.738302 
L 499.472146 254.149727 
L 500.388778 254.385157 
L 501.305411 254.149727 
L 502.222043 254.149727 
L 503.138676 254.856017 
L 504.055308 252.737147 
L 504.055308 252.737147 
" style="fill:none;stroke:#000000;stroke-linecap:square;stroke-width:1.5;"/>
   </g>
   <g id="line2d_33">
    <path clip-path="url(#p15c1074464)" d="M 132.819168 260.506339 
L 138.318963 260.506339 
L 139.235595 260.342147 
L 140.152228 260.342147 
L 141.06886 260.177954 
L 144.73539 260.177954 
L 145.652023 260.342147 
L 146.568655 260.342147 
L 147.485287 260.506339 
L 150.235185 260.506339 
L 151.151817 260.342147 
L 152.985082 260.342147 
L 153.901715 260.177954 
L 156.651612 260.177954 
L 157.568244 260.342147 
L 171.317731 260.342147 
L 172.234363 260.177954 
L 173.150996 260.342147 
L 175.900893 260.342147 
L 177.734158 260.013761 
L 182.31732 260.013761 
L 185.067218 260.506339 
L 187.817115 260.506339 
L 188.733747 260.342147 
L 194.233542 260.342147 
L 195.150175 260.506339 
L 196.983439 260.506339 
L 197.900072 260.342147 
L 200.649969 260.342147 
L 201.566602 260.013761 
L 202.483234 259.849569 
L 203.399867 259.849569 
L 204.316499 260.013761 
L 207.066396 260.013761 
L 208.899661 260.342147 
L 209.816294 260.342147 
L 210.732926 259.849569 
L 211.649559 259.849569 
L 212.566191 259.685376 
L 213.482823 259.685376 
L 214.399456 258.864413 
L 215.316088 258.207642 
L 216.232721 257.715064 
L 217.149353 256.8941 
L 218.065986 256.729908 
L 218.982618 256.8941 
L 219.899251 256.729908 
L 220.815883 257.222486 
L 221.732515 256.401522 
L 222.649148 256.23733 
L 223.56578 257.058293 
L 224.482413 256.401522 
L 225.399045 255.908944 
L 226.315678 255.744752 
L 227.23231 252.953476 
L 228.148943 250.654779 
L 229.982207 247.370925 
L 230.89884 246.878347 
L 231.815472 246.549962 
L 232.732105 246.385769 
L 233.648737 243.594494 
L 234.56537 242.609338 
L 235.482002 238.504521 
L 236.398634 238.340328 
L 237.315267 233.907126 
L 238.231899 234.399704 
L 239.148532 233.907126 
L 240.065164 236.698401 
L 240.981797 234.399704 
L 241.898429 233.250355 
L 242.815062 228.65296 
L 243.731694 231.280043 
L 244.648326 228.160382 
L 245.564959 227.339419 
L 246.481591 222.906216 
L 247.398224 221.756868 
L 248.314856 219.950748 
L 249.231489 219.45817 
L 250.148121 217.980436 
L 251.064754 219.786556 
L 251.981386 219.293978 
L 252.898018 216.174317 
L 253.814651 215.845931 
L 254.731283 219.129785 
L 255.647916 219.950748 
L 256.564548 217.980436 
L 257.481181 216.666895 
L 258.397813 218.308821 
L 259.314446 223.070409 
L 260.231078 225.204914 
L 261.14771 224.219758 
L 262.064343 225.040721 
L 262.980975 229.309731 
L 263.897608 229.638116 
L 264.81424 228.981345 
L 265.730873 228.817153 
L 266.647505 229.638116 
L 267.564138 230.951658 
L 268.48077 231.280043 
L 269.397402 230.951658 
L 270.314035 231.772621 
L 271.230667 232.101006 
L 272.1473 234.071318 
L 273.980565 239.982255 
L 275.81383 243.101916 
L 277.647094 244.415457 
L 278.563727 246.057384 
L 279.480359 247.04254 
L 280.396992 247.863503 
L 281.313624 249.669623 
L 282.230257 248.684467 
L 283.146889 249.341237 
L 284.063522 249.012852 
L 284.980154 248.520274 
L 285.896786 247.535118 
L 286.813419 247.370925 
L 287.730051 246.878347 
L 288.646684 247.535118 
L 289.563316 247.370925 
L 290.479949 247.535118 
L 291.396581 249.998008 
L 292.313214 250.162201 
L 293.229846 250.490586 
L 294.146478 250.326393 
L 295.979743 250.326393 
L 296.896376 250.162201 
L 297.813008 249.833815 
L 298.729641 250.654779 
L 299.646273 252.132513 
L 300.562906 253.281862 
L 301.479538 253.938632 
L 302.39617 254.267018 
L 303.312803 254.923788 
L 304.229435 255.087981 
L 305.146068 255.908944 
L 306.0627 255.416366 
L 306.979333 256.073137 
L 307.895965 256.565715 
L 308.812598 256.401522 
L 309.72923 255.908944 
L 310.645862 255.744752 
L 311.562495 255.744752 
L 312.479127 256.23733 
L 313.39576 256.565715 
L 314.312392 255.580559 
L 315.229025 255.580559 
L 316.145657 255.908944 
L 317.06229 256.729908 
L 317.978922 256.565715 
L 318.895554 256.8941 
L 319.812187 257.386678 
L 320.728819 258.536027 
L 321.645452 259.028605 
L 323.478717 258.70022 
L 324.395349 259.028605 
L 325.311982 259.192798 
L 327.145246 258.864413 
L 328.061879 258.864413 
L 328.978511 259.192798 
L 329.895144 259.192798 
L 330.811776 259.521183 
L 331.728409 259.028605 
L 332.645041 258.371834 
L 333.561674 258.207642 
L 334.478306 257.715064 
L 335.394938 257.715064 
L 336.311571 257.879256 
L 337.228203 257.550871 
L 339.061468 257.222486 
L 339.978101 257.386678 
L 340.894733 257.715064 
L 341.811366 257.715064 
L 342.727998 257.550871 
L 343.64463 257.550871 
L 344.561263 258.043449 
L 345.477895 258.70022 
L 346.394528 259.028605 
L 347.31116 259.028605 
L 348.227793 258.864413 
L 350.061057 258.864413 
L 350.97769 258.207642 
L 351.894322 257.879256 
L 352.810955 256.8941 
L 353.727587 256.565715 
L 354.64422 256.565715 
L 355.560852 256.073137 
L 356.477485 255.744752 
L 357.394117 256.073137 
L 358.310749 256.073137 
L 359.227382 256.8941 
L 361.060647 257.222486 
L 361.977279 257.222486 
L 362.893912 256.8941 
L 363.810544 255.744752 
L 365.643809 255.087981 
L 366.560441 254.923788 
L 367.477074 254.923788 
L 368.393706 254.595403 
L 369.310339 255.580559 
L 370.226971 257.222486 
L 372.060236 256.8941 
L 372.976869 257.058293 
L 373.893501 256.8941 
L 374.810133 257.058293 
L 376.643398 254.595403 
L 377.560031 254.43121 
L 378.476663 254.595403 
L 379.393296 254.923788 
L 380.309928 254.759596 
L 382.143193 255.416366 
L 383.059825 255.580559 
L 383.976458 255.580559 
L 384.89309 254.267018 
L 385.809723 254.267018 
L 386.726355 254.102825 
L 387.642988 252.132513 
L 388.55962 253.117669 
L 389.476253 253.77444 
L 390.392885 253.938632 
L 391.309517 253.610247 
L 392.22615 252.953476 
L 393.142782 253.117669 
L 394.059415 252.789283 
L 394.976047 251.475742 
L 395.89268 250.654779 
L 396.809312 250.490586 
L 397.725945 249.998008 
L 399.559209 249.341237 
L 400.475842 249.998008 
L 401.392474 247.863503 
L 402.309107 248.848659 
L 403.225739 249.177045 
L 404.142372 250.326393 
L 405.059004 251.147357 
L 405.975637 250.654779 
L 406.892269 251.475742 
L 407.808901 253.281862 
L 408.725534 252.460898 
L 409.642166 252.296705 
L 410.558799 250.818971 
L 411.475431 250.490586 
L 412.392064 251.475742 
L 413.308696 250.818971 
L 414.225329 251.147357 
L 415.141961 250.654779 
L 416.058593 249.341237 
L 416.975226 249.50543 
L 417.891858 249.012852 
L 418.808491 248.027696 
L 419.725123 248.191889 
L 421.558388 245.23642 
L 422.475021 245.400613 
L 423.391653 245.893191 
L 424.308285 245.400613 
L 425.224918 246.057384 
L 426.14155 244.908035 
L 427.058183 244.415457 
L 427.974815 244.415457 
L 428.891448 243.594494 
L 429.80808 244.087072 
L 430.724713 243.101916 
L 431.641345 242.280952 
L 432.557977 243.758686 
L 433.47461 242.280952 
L 434.391242 241.131603 
L 436.224507 235.38486 
L 437.14114 235.713245 
L 438.057772 235.549052 
L 438.974405 231.608428 
L 439.891037 231.772621 
L 440.807669 229.145538 
L 441.724302 229.145538 
L 442.640934 229.309731 
L 443.557567 229.145538 
L 444.474199 229.966501 
L 445.390832 230.45908 
L 446.307464 228.488767 
L 447.224097 228.817153 
L 448.140729 229.309731 
L 449.057361 230.130694 
L 449.973994 229.802309 
L 451.807259 228.160382 
L 452.723891 227.996189 
L 453.640524 229.473923 
L 454.557156 229.966501 
L 455.473789 229.638116 
L 456.390421 230.951658 
L 457.307053 231.772621 
L 458.223686 232.92197 
L 459.140318 234.892282 
L 460.056951 237.190979 
L 460.973583 238.011943 
L 461.890216 239.653869 
L 462.806848 239.982255 
L 464.640113 239.653869 
L 465.556745 239.982255 
L 466.473378 239.982255 
L 467.39001 242.77353 
L 468.306643 243.266108 
L 469.223275 243.101916 
L 470.139908 243.101916 
L 471.05654 243.430301 
L 471.973172 246.057384 
L 472.889805 246.878347 
L 473.806437 246.385769 
L 474.72307 246.057384 
L 475.639702 246.385769 
L 476.556335 246.878347 
L 477.472967 251.311549 
L 478.3896 249.998008 
L 479.306232 249.177045 
L 480.222864 250.162201 
L 481.139497 250.162201 
L 482.056129 250.654779 
L 482.972762 250.326393 
L 483.889394 249.341237 
L 484.806027 250.654779 
L 485.722659 252.296705 
L 486.639292 252.132513 
L 487.555924 253.281862 
L 488.472556 252.625091 
L 489.389189 253.117669 
L 491.222454 253.117669 
L 492.139086 252.953476 
L 493.972351 252.953476 
L 494.888984 253.446054 
L 495.805616 253.446054 
L 496.722248 253.281862 
L 497.638881 254.102825 
L 498.555513 254.102825 
L 499.472146 253.938632 
L 500.388778 253.446054 
L 501.305411 253.446054 
L 503.138676 253.77444 
L 504.055308 254.267018 
L 504.055308 254.267018 
" style="fill:none;stroke:#00ced1;stroke-linecap:square;stroke-width:3;"/>
   </g>
   <g id="line2d_34">
    <path clip-path="url(#p15c1074464)" d="M 65.905 260.506339 
L 512.305 260.506339 
" style="fill:none;stroke:#808080;stroke-linecap:square;stroke-width:0.8;"/>
   </g>
   <g id="line2d_35">
    <path clip-path="url(#p15c1074464)" d="M 346.394528 270.860625 
L 346.394528 64.292625 
" style="fill:none;stroke:#000000;stroke-dasharray:1.85,0.8;stroke-dashoffset:0;stroke-width:0.5;"/>
   </g>
   <g id="text_21">
    <!-- 971 -->
    <g style="fill:#4169e1;" transform="translate(270.318906 49.677188)scale(0.18 -0.18)">
     <defs>
      <path d="M 641 103 
L 641 966 
Q 928 831 1190 764 
Q 1453 697 1709 697 
Q 2247 697 2547 995 
Q 2847 1294 2900 1881 
Q 2688 1725 2447 1647 
Q 2206 1569 1925 1569 
Q 1209 1569 770 1986 
Q 331 2403 331 3084 
Q 331 3838 820 4291 
Q 1309 4744 2131 4744 
Q 3044 4744 3544 4128 
Q 4044 3513 4044 2388 
Q 4044 1231 3459 570 
Q 2875 -91 1856 -91 
Q 1528 -91 1228 -42 
Q 928 6 641 103 
z
M 2125 2350 
Q 2441 2350 2600 2554 
Q 2759 2759 2759 3169 
Q 2759 3575 2600 3781 
Q 2441 3988 2125 3988 
Q 1809 3988 1650 3781 
Q 1491 3575 1491 3169 
Q 1491 2759 1650 2554 
Q 1809 2350 2125 2350 
z
" id="DejaVuSans-Bold-39" transform="scale(0.015625)"/>
      <path d="M 428 4666 
L 3944 4666 
L 3944 3988 
L 2125 0 
L 953 0 
L 2675 3781 
L 428 3781 
L 428 4666 
z
" id="DejaVuSans-Bold-37" transform="scale(0.015625)"/>
      <path d="M 750 831 
L 1813 831 
L 1813 3847 
L 722 3622 
L 722 4441 
L 1806 4666 
L 2950 4666 
L 2950 831 
L 4013 831 
L 4013 0 
L 750 0 
L 750 831 
z
" id="DejaVuSans-Bold-31" transform="scale(0.015625)"/>
     </defs>
     <use xlink:href="#DejaVuSans-Bold-39"/>
     <use x="69.580078" xlink:href="#DejaVuSans-Bold-37"/>
     <use x="139.160156" xlink:href="#DejaVuSans-Bold-31"/>
    </g>
   </g>
   <g id="legend_1">
    <g id="patch_6">
     <path d="M 418.841875 115.290375 
L 549.245 115.290375 
Q 551.445 115.290375 551.445 113.090375 
L 551.445 39.376625 
Q 551.445 37.176625 549.245 37.176625 
L 418.841875 37.176625 
Q 416.641875 37.176625 416.641875 39.376625 
L 416.641875 113.090375 
Q 416.641875 115.290375 418.841875 115.290375 
z
" style="fill:#ffffff;opacity:0.8;stroke:#cccccc;stroke-linejoin:miter;"/>
    </g>
    <g id="text_22">
     <!-- Cas positifs par semaine, -->
     <g transform="translate(421.041875 49.175062)scale(0.1 -0.1)">
      <defs>
       <path d="M 4122 4306 
L 4122 3641 
Q 3803 3938 3442 4084 
Q 3081 4231 2675 4231 
Q 1875 4231 1450 3742 
Q 1025 3253 1025 2328 
Q 1025 1406 1450 917 
Q 1875 428 2675 428 
Q 3081 428 3442 575 
Q 3803 722 4122 1019 
L 4122 359 
Q 3791 134 3420 21 
Q 3050 -91 2638 -91 
Q 1578 -91 968 557 
Q 359 1206 359 2328 
Q 359 3453 968 4101 
Q 1578 4750 2638 4750 
Q 3056 4750 3426 4639 
Q 3797 4528 4122 4306 
z
" id="DejaVuSans-43" transform="scale(0.015625)"/>
       <path id="DejaVuSans-20" transform="scale(0.015625)"/>
       <path d="M 750 794 
L 1409 794 
L 1409 256 
L 897 -744 
L 494 -744 
L 750 256 
L 750 794 
z
" id="DejaVuSans-2c" transform="scale(0.015625)"/>
      </defs>
      <use xlink:href="#DejaVuSans-43"/>
      <use x="69.824219" xlink:href="#DejaVuSans-61"/>
      <use x="131.103516" xlink:href="#DejaVuSans-73"/>
      <use x="183.203125" xlink:href="#DejaVuSans-20"/>
      <use x="214.990234" xlink:href="#DejaVuSans-70"/>
      <use x="278.466797" xlink:href="#DejaVuSans-6f"/>
      <use x="339.648438" xlink:href="#DejaVuSans-73"/>
      <use x="391.748047" xlink:href="#DejaVuSans-69"/>
      <use x="419.53125" xlink:href="#DejaVuSans-74"/>
      <use x="458.740234" xlink:href="#DejaVuSans-69"/>
      <use x="486.523438" xlink:href="#DejaVuSans-66"/>
      <use x="521.728516" xlink:href="#DejaVuSans-73"/>
      <use x="573.828125" xlink:href="#DejaVuSans-20"/>
      <use x="605.615234" xlink:href="#DejaVuSans-70"/>
      <use x="669.091797" xlink:href="#DejaVuSans-61"/>
      <use x="730.371094" xlink:href="#DejaVuSans-72"/>
      <use x="771.484375" xlink:href="#DejaVuSans-20"/>
      <use x="803.271484" xlink:href="#DejaVuSans-73"/>
      <use x="855.371094" xlink:href="#DejaVuSans-65"/>
      <use x="916.894531" xlink:href="#DejaVuSans-6d"/>
      <use x="1014.306641" xlink:href="#DejaVuSans-61"/>
      <use x="1075.585938" xlink:href="#DejaVuSans-69"/>
      <use x="1103.369141" xlink:href="#DejaVuSans-6e"/>
      <use x="1166.748047" xlink:href="#DejaVuSans-65"/>
      <use x="1228.271484" xlink:href="#DejaVuSans-2c"/>
     </g>
     <!-- pour 100 000 habitants -->
     <g transform="translate(425.177031 60.372875)scale(0.1 -0.1)">
      <defs>
       <path d="M 3513 2113 
L 3513 0 
L 2938 0 
L 2938 2094 
Q 2938 2591 2744 2837 
Q 2550 3084 2163 3084 
Q 1697 3084 1428 2787 
Q 1159 2491 1159 1978 
L 1159 0 
L 581 0 
L 581 4863 
L 1159 4863 
L 1159 2956 
Q 1366 3272 1645 3428 
Q 1925 3584 2291 3584 
Q 2894 3584 3203 3211 
Q 3513 2838 3513 2113 
z
" id="DejaVuSans-68" transform="scale(0.015625)"/>
       <path d="M 3116 1747 
Q 3116 2381 2855 2742 
Q 2594 3103 2138 3103 
Q 1681 3103 1420 2742 
Q 1159 2381 1159 1747 
Q 1159 1113 1420 752 
Q 1681 391 2138 391 
Q 2594 391 2855 752 
Q 3116 1113 3116 1747 
z
M 1159 2969 
Q 1341 3281 1617 3432 
Q 1894 3584 2278 3584 
Q 2916 3584 3314 3078 
Q 3713 2572 3713 1747 
Q 3713 922 3314 415 
Q 2916 -91 2278 -91 
Q 1894 -91 1617 61 
Q 1341 213 1159 525 
L 1159 0 
L 581 0 
L 581 4863 
L 1159 4863 
L 1159 2969 
z
" id="DejaVuSans-62" transform="scale(0.015625)"/>
      </defs>
      <use xlink:href="#DejaVuSans-70"/>
      <use x="63.476562" xlink:href="#DejaVuSans-6f"/>
      <use x="124.658203" xlink:href="#DejaVuSans-75"/>
      <use x="188.037109" xlink:href="#DejaVuSans-72"/>
      <use x="229.150391" xlink:href="#DejaVuSans-20"/>
      <use x="260.9375" xlink:href="#DejaVuSans-31"/>
      <use x="324.560547" xlink:href="#DejaVuSans-30"/>
      <use x="388.183594" xlink:href="#DejaVuSans-30"/>
      <use x="451.806641" xlink:href="#DejaVuSans-20"/>
      <use x="483.59375" xlink:href="#DejaVuSans-30"/>
      <use x="547.216797" xlink:href="#DejaVuSans-30"/>
      <use x="610.839844" xlink:href="#DejaVuSans-30"/>
      <use x="674.462891" xlink:href="#DejaVuSans-20"/>
      <use x="706.25" xlink:href="#DejaVuSans-68"/>
      <use x="769.628906" xlink:href="#DejaVuSans-61"/>
      <use x="830.908203" xlink:href="#DejaVuSans-62"/>
      <use x="894.384766" xlink:href="#DejaVuSans-69"/>
      <use x="922.167969" xlink:href="#DejaVuSans-74"/>
      <use x="961.376953" xlink:href="#DejaVuSans-61"/>
      <use x="1022.65625" xlink:href="#DejaVuSans-6e"/>
      <use x="1086.035156" xlink:href="#DejaVuSans-74"/>
      <use x="1125.244141" xlink:href="#DejaVuSans-73"/>
     </g>
    </g>
    <g id="line2d_36">
     <path d="M 438.180313 72.460844 
L 460.180313 72.460844 
" style="fill:none;stroke:#b22222;stroke-linecap:square;"/>
    </g>
    <g id="line2d_37"/>
    <g id="text_23">
     <!-- 0-29 ans -->
     <g transform="translate(465.680313 76.310844)scale(0.11 -0.11)">
      <defs>
       <path d="M 313 2009 
L 1997 2009 
L 1997 1497 
L 313 1497 
L 313 2009 
z
" id="DejaVuSans-2d" transform="scale(0.015625)"/>
       <path d="M 1228 531 
L 3431 531 
L 3431 0 
L 469 0 
L 469 531 
Q 828 903 1448 1529 
Q 2069 2156 2228 2338 
Q 2531 2678 2651 2914 
Q 2772 3150 2772 3378 
Q 2772 3750 2511 3984 
Q 2250 4219 1831 4219 
Q 1534 4219 1204 4116 
Q 875 4013 500 3803 
L 500 4441 
Q 881 4594 1212 4672 
Q 1544 4750 1819 4750 
Q 2544 4750 2975 4387 
Q 3406 4025 3406 3419 
Q 3406 3131 3298 2873 
Q 3191 2616 2906 2266 
Q 2828 2175 2409 1742 
Q 1991 1309 1228 531 
z
" id="DejaVuSans-32" transform="scale(0.015625)"/>
       <path d="M 703 97 
L 703 672 
Q 941 559 1184 500 
Q 1428 441 1663 441 
Q 2288 441 2617 861 
Q 2947 1281 2994 2138 
Q 2813 1869 2534 1725 
Q 2256 1581 1919 1581 
Q 1219 1581 811 2004 
Q 403 2428 403 3163 
Q 403 3881 828 4315 
Q 1253 4750 1959 4750 
Q 2769 4750 3195 4129 
Q 3622 3509 3622 2328 
Q 3622 1225 3098 567 
Q 2575 -91 1691 -91 
Q 1453 -91 1209 -44 
Q 966 3 703 97 
z
M 1959 2075 
Q 2384 2075 2632 2365 
Q 2881 2656 2881 3163 
Q 2881 3666 2632 3958 
Q 2384 4250 1959 4250 
Q 1534 4250 1286 3958 
Q 1038 3666 1038 3163 
Q 1038 2656 1286 2365 
Q 1534 2075 1959 2075 
z
" id="DejaVuSans-39" transform="scale(0.015625)"/>
      </defs>
      <use xlink:href="#DejaVuSans-30"/>
      <use x="63.623047" xlink:href="#DejaVuSans-2d"/>
      <use x="99.707031" xlink:href="#DejaVuSans-32"/>
      <use x="163.330078" xlink:href="#DejaVuSans-39"/>
      <use x="226.953125" xlink:href="#DejaVuSans-20"/>
      <use x="258.740234" xlink:href="#DejaVuSans-61"/>
      <use x="320.019531" xlink:href="#DejaVuSans-6e"/>
      <use x="383.398438" xlink:href="#DejaVuSans-73"/>
     </g>
    </g>
    <g id="line2d_38">
     <path d="M 438.180313 88.606781 
L 460.180313 88.606781 
" style="fill:none;stroke:#000000;stroke-linecap:square;stroke-width:1.5;"/>
    </g>
    <g id="line2d_39"/>
    <g id="text_24">
     <!-- 30-59 ans -->
     <g transform="translate(465.680313 92.456781)scale(0.11 -0.11)">
      <defs>
       <path d="M 2597 2516 
Q 3050 2419 3304 2112 
Q 3559 1806 3559 1356 
Q 3559 666 3084 287 
Q 2609 -91 1734 -91 
Q 1441 -91 1130 -33 
Q 819 25 488 141 
L 488 750 
Q 750 597 1062 519 
Q 1375 441 1716 441 
Q 2309 441 2620 675 
Q 2931 909 2931 1356 
Q 2931 1769 2642 2001 
Q 2353 2234 1838 2234 
L 1294 2234 
L 1294 2753 
L 1863 2753 
Q 2328 2753 2575 2939 
Q 2822 3125 2822 3475 
Q 2822 3834 2567 4026 
Q 2313 4219 1838 4219 
Q 1578 4219 1281 4162 
Q 984 4106 628 3988 
L 628 4550 
Q 988 4650 1302 4700 
Q 1616 4750 1894 4750 
Q 2613 4750 3031 4423 
Q 3450 4097 3450 3541 
Q 3450 3153 3228 2886 
Q 3006 2619 2597 2516 
z
" id="DejaVuSans-33" transform="scale(0.015625)"/>
      </defs>
      <use xlink:href="#DejaVuSans-33"/>
      <use x="63.623047" xlink:href="#DejaVuSans-30"/>
      <use x="127.246094" xlink:href="#DejaVuSans-2d"/>
      <use x="163.330078" xlink:href="#DejaVuSans-35"/>
      <use x="226.953125" xlink:href="#DejaVuSans-39"/>
      <use x="290.576172" xlink:href="#DejaVuSans-20"/>
      <use x="322.363281" xlink:href="#DejaVuSans-61"/>
      <use x="383.642578" xlink:href="#DejaVuSans-6e"/>
      <use x="447.021484" xlink:href="#DejaVuSans-73"/>
     </g>
    </g>
    <g id="line2d_40">
     <path d="M 438.180313 104.752719 
L 460.180313 104.752719 
" style="fill:none;stroke:#00ced1;stroke-linecap:square;stroke-width:3;"/>
    </g>
    <g id="line2d_41"/>
    <g id="text_25">
     <!-- 60 ans et + -->
     <g transform="translate(465.680313 108.602719)scale(0.11 -0.11)">
      <defs>
       <path d="M 2113 2584 
Q 1688 2584 1439 2293 
Q 1191 2003 1191 1497 
Q 1191 994 1439 701 
Q 1688 409 2113 409 
Q 2538 409 2786 701 
Q 3034 994 3034 1497 
Q 3034 2003 2786 2293 
Q 2538 2584 2113 2584 
z
M 3366 4563 
L 3366 3988 
Q 3128 4100 2886 4159 
Q 2644 4219 2406 4219 
Q 1781 4219 1451 3797 
Q 1122 3375 1075 2522 
Q 1259 2794 1537 2939 
Q 1816 3084 2150 3084 
Q 2853 3084 3261 2657 
Q 3669 2231 3669 1497 
Q 3669 778 3244 343 
Q 2819 -91 2113 -91 
Q 1303 -91 875 529 
Q 447 1150 447 2328 
Q 447 3434 972 4092 
Q 1497 4750 2381 4750 
Q 2619 4750 2861 4703 
Q 3103 4656 3366 4563 
z
" id="DejaVuSans-36" transform="scale(0.015625)"/>
       <path d="M 2944 4013 
L 2944 2272 
L 4684 2272 
L 4684 1741 
L 2944 1741 
L 2944 0 
L 2419 0 
L 2419 1741 
L 678 1741 
L 678 2272 
L 2419 2272 
L 2419 4013 
L 2944 4013 
z
" id="DejaVuSans-2b" transform="scale(0.015625)"/>
      </defs>
      <use xlink:href="#DejaVuSans-36"/>
      <use x="63.623047" xlink:href="#DejaVuSans-30"/>
      <use x="127.246094" xlink:href="#DejaVuSans-20"/>
      <use x="159.033203" xlink:href="#DejaVuSans-61"/>
      <use x="220.3125" xlink:href="#DejaVuSans-6e"/>
      <use x="283.691406" xlink:href="#DejaVuSans-73"/>
      <use x="335.791016" xlink:href="#DejaVuSans-20"/>
      <use x="367.578125" xlink:href="#DejaVuSans-65"/>
      <use x="429.101562" xlink:href="#DejaVuSans-74"/>
      <use x="468.310547" xlink:href="#DejaVuSans-20"/>
      <use x="500.097656" xlink:href="#DejaVuSans-2b"/>
     </g>
    </g>
   </g>
  </g>
 </g>
 <defs>
  <clipPath id="p15c1074464">
   <rect height="217.44" width="446.4" x="65.905" y="53.420625"/>
  </clipPath>
 </defs>
</svg>
