<?xml version="1.0" encoding="utf-8" standalone="no"?>
<!DOCTYPE svg PUBLIC "-//W3C//DTD SVG 1.1//EN"
  "http://www.w3.org/Graphics/SVG/1.1/DTD/svg11.dtd">
<svg height="336.049967pt" version="1.1" viewBox="0 0 587.445 336.049967" width="587.445pt" xmlns="http://www.w3.org/2000/svg" xmlns:xlink="http://www.w3.org/1999/xlink">
 <metadata>
  <rdf:RDF xmlns:cc="http://creativecommons.org/ns#" xmlns:dc="http://purl.org/dc/elements/1.1/" xmlns:rdf="http://www.w3.org/1999/02/22-rdf-syntax-ns#">
   <cc:Work>
    <dc:type rdf:resource="http://purl.org/dc/dcmitype/StillImage"/>
    <dc:date>2021-06-21T23:46:32.694342</dc:date>
    <dc:format>image/svg+xml</dc:format>
    <dc:creator>
     <cc:Agent>
      <dc:title>Matplotlib v3.4.1, https://matplotlib.org/</dc:title>
     </cc:Agent>
    </dc:creator>
   </cc:Work>
  </rdf:RDF>
 </metadata>
 <defs>
  <style type="text/css">*{stroke-linecap:butt;stroke-linejoin:round;}</style>
 </defs>
 <g id="figure_1">
  <g id="patch_1">
   <path d="M 0 336.049967 
L 587.445 336.049967 
L 587.445 0 
L 0 0 
z
" style="fill:#ffffff;"/>
  </g>
  <g id="axes_1">
   <g id="patch_2">
    <path d="M 65.905 270.860625 
L 512.305 270.860625 
L 512.305 53.420625 
L 65.905 53.420625 
z
" style="fill:none;opacity:0;"/>
   </g>
   <g id="patch_3">
    <path clip-path="url(#p07731c342b)" d="M 80.571119 270.860625 
L 80.571119 64.292625 
L 130.069271 64.292625 
L 130.069271 270.860625 
z
" style="fill:#808080;opacity:0.15;stroke:#808080;stroke-linejoin:miter;"/>
   </g>
   <g id="patch_4">
    <path clip-path="url(#p07731c342b)" d="M 288.646684 270.860625 
L 288.646684 64.292625 
L 330.811776 64.292625 
L 330.811776 270.860625 
z
" style="fill:#808080;opacity:0.15;stroke:#808080;stroke-linejoin:miter;"/>
   </g>
   <g id="patch_5">
    <path clip-path="url(#p07731c342b)" d="M 432.557977 270.860625 
L 432.557977 64.292625 
L 457.307053 64.292625 
L 457.307053 270.860625 
z
" style="fill:#808080;opacity:0.15;stroke:#808080;stroke-linejoin:miter;"/>
   </g>
   <g id="matplotlib.axis_1">
    <g id="xtick_1">
     <g id="line2d_1">
      <defs>
       <path d="M 0 0 
L 0 3.5 
" id="m1ab5001b19" style="stroke:#000000;stroke-width:0.8;"/>
      </defs>
      <g>
       <use style="stroke:#000000;stroke-width:0.8;" x="65.905" xlink:href="#m1ab5001b19" y="270.860625"/>
      </g>
     </g>
     <g id="text_1">
      <!-- mars -->
      <g transform="translate(54.710395 298.726462)rotate(-45)scale(0.09 -0.09)">
       <defs>
        <path d="M 3328 2828 
Q 3544 3216 3844 3400 
Q 4144 3584 4550 3584 
Q 5097 3584 5394 3201 
Q 5691 2819 5691 2113 
L 5691 0 
L 5113 0 
L 5113 2094 
Q 5113 2597 4934 2840 
Q 4756 3084 4391 3084 
Q 3944 3084 3684 2787 
Q 3425 2491 3425 1978 
L 3425 0 
L 2847 0 
L 2847 2094 
Q 2847 2600 2669 2842 
Q 2491 3084 2119 3084 
Q 1678 3084 1418 2786 
Q 1159 2488 1159 1978 
L 1159 0 
L 581 0 
L 581 3500 
L 1159 3500 
L 1159 2956 
Q 1356 3278 1631 3431 
Q 1906 3584 2284 3584 
Q 2666 3584 2933 3390 
Q 3200 3197 3328 2828 
z
" id="DejaVuSans-6d" transform="scale(0.015625)"/>
        <path d="M 2194 1759 
Q 1497 1759 1228 1600 
Q 959 1441 959 1056 
Q 959 750 1161 570 
Q 1363 391 1709 391 
Q 2188 391 2477 730 
Q 2766 1069 2766 1631 
L 2766 1759 
L 2194 1759 
z
M 3341 1997 
L 3341 0 
L 2766 0 
L 2766 531 
Q 2569 213 2275 61 
Q 1981 -91 1556 -91 
Q 1019 -91 701 211 
Q 384 513 384 1019 
Q 384 1609 779 1909 
Q 1175 2209 1959 2209 
L 2766 2209 
L 2766 2266 
Q 2766 2663 2505 2880 
Q 2244 3097 1772 3097 
Q 1472 3097 1187 3025 
Q 903 2953 641 2809 
L 641 3341 
Q 956 3463 1253 3523 
Q 1550 3584 1831 3584 
Q 2591 3584 2966 3190 
Q 3341 2797 3341 1997 
z
" id="DejaVuSans-61" transform="scale(0.015625)"/>
        <path d="M 2631 2963 
Q 2534 3019 2420 3045 
Q 2306 3072 2169 3072 
Q 1681 3072 1420 2755 
Q 1159 2438 1159 1844 
L 1159 0 
L 581 0 
L 581 3500 
L 1159 3500 
L 1159 2956 
Q 1341 3275 1631 3429 
Q 1922 3584 2338 3584 
Q 2397 3584 2469 3576 
Q 2541 3569 2628 3553 
L 2631 2963 
z
" id="DejaVuSans-72" transform="scale(0.015625)"/>
        <path d="M 2834 3397 
L 2834 2853 
Q 2591 2978 2328 3040 
Q 2066 3103 1784 3103 
Q 1356 3103 1142 2972 
Q 928 2841 928 2578 
Q 928 2378 1081 2264 
Q 1234 2150 1697 2047 
L 1894 2003 
Q 2506 1872 2764 1633 
Q 3022 1394 3022 966 
Q 3022 478 2636 193 
Q 2250 -91 1575 -91 
Q 1294 -91 989 -36 
Q 684 19 347 128 
L 347 722 
Q 666 556 975 473 
Q 1284 391 1588 391 
Q 1994 391 2212 530 
Q 2431 669 2431 922 
Q 2431 1156 2273 1281 
Q 2116 1406 1581 1522 
L 1381 1569 
Q 847 1681 609 1914 
Q 372 2147 372 2553 
Q 372 3047 722 3315 
Q 1072 3584 1716 3584 
Q 2034 3584 2315 3537 
Q 2597 3491 2834 3397 
z
" id="DejaVuSans-73" transform="scale(0.015625)"/>
       </defs>
       <use xlink:href="#DejaVuSans-6d"/>
       <use x="97.412109" xlink:href="#DejaVuSans-61"/>
       <use x="158.691406" xlink:href="#DejaVuSans-72"/>
       <use x="199.804688" xlink:href="#DejaVuSans-73"/>
      </g>
     </g>
    </g>
    <g id="xtick_2">
     <g id="line2d_2">
      <g>
       <use style="stroke:#000000;stroke-width:0.8;" x="94.320606" xlink:href="#m1ab5001b19" y="270.860625"/>
      </g>
     </g>
     <g id="text_2">
      <!-- avril -->
      <g transform="translate(85.337477 296.514986)rotate(-45)scale(0.09 -0.09)">
       <defs>
        <path d="M 191 3500 
L 800 3500 
L 1894 563 
L 2988 3500 
L 3597 3500 
L 2284 0 
L 1503 0 
L 191 3500 
z
" id="DejaVuSans-76" transform="scale(0.015625)"/>
        <path d="M 603 3500 
L 1178 3500 
L 1178 0 
L 603 0 
L 603 3500 
z
M 603 4863 
L 1178 4863 
L 1178 4134 
L 603 4134 
L 603 4863 
z
" id="DejaVuSans-69" transform="scale(0.015625)"/>
        <path d="M 603 4863 
L 1178 4863 
L 1178 0 
L 603 0 
L 603 4863 
z
" id="DejaVuSans-6c" transform="scale(0.015625)"/>
       </defs>
       <use xlink:href="#DejaVuSans-61"/>
       <use x="61.279297" xlink:href="#DejaVuSans-76"/>
       <use x="120.458984" xlink:href="#DejaVuSans-72"/>
       <use x="161.572266" xlink:href="#DejaVuSans-69"/>
       <use x="189.355469" xlink:href="#DejaVuSans-6c"/>
      </g>
     </g>
    </g>
    <g id="xtick_3">
     <g id="line2d_3">
      <g>
       <use style="stroke:#000000;stroke-width:0.8;" x="121.819579" xlink:href="#m1ab5001b19" y="270.860625"/>
      </g>
     </g>
     <g id="text_3">
      <!-- mai -->
      <g transform="translate(114.788396 294.56304)rotate(-45)scale(0.09 -0.09)">
       <use xlink:href="#DejaVuSans-6d"/>
       <use x="97.412109" xlink:href="#DejaVuSans-61"/>
       <use x="158.691406" xlink:href="#DejaVuSans-69"/>
      </g>
     </g>
    </g>
    <g id="xtick_4">
     <g id="line2d_4">
      <g>
       <use style="stroke:#000000;stroke-width:0.8;" x="150.235185" xlink:href="#m1ab5001b19" y="270.860625"/>
      </g>
     </g>
     <g id="text_4">
      <!-- juin -->
      <g transform="translate(143.468504 294.298537)rotate(-45)scale(0.09 -0.09)">
       <defs>
        <path d="M 603 3500 
L 1178 3500 
L 1178 -63 
Q 1178 -731 923 -1031 
Q 669 -1331 103 -1331 
L -116 -1331 
L -116 -844 
L 38 -844 
Q 366 -844 484 -692 
Q 603 -541 603 -63 
L 603 3500 
z
M 603 4863 
L 1178 4863 
L 1178 4134 
L 603 4134 
L 603 4863 
z
" id="DejaVuSans-6a" transform="scale(0.015625)"/>
        <path d="M 544 1381 
L 544 3500 
L 1119 3500 
L 1119 1403 
Q 1119 906 1312 657 
Q 1506 409 1894 409 
Q 2359 409 2629 706 
Q 2900 1003 2900 1516 
L 2900 3500 
L 3475 3500 
L 3475 0 
L 2900 0 
L 2900 538 
Q 2691 219 2414 64 
Q 2138 -91 1772 -91 
Q 1169 -91 856 284 
Q 544 659 544 1381 
z
M 1991 3584 
L 1991 3584 
z
" id="DejaVuSans-75" transform="scale(0.015625)"/>
        <path d="M 3513 2113 
L 3513 0 
L 2938 0 
L 2938 2094 
Q 2938 2591 2744 2837 
Q 2550 3084 2163 3084 
Q 1697 3084 1428 2787 
Q 1159 2491 1159 1978 
L 1159 0 
L 581 0 
L 581 3500 
L 1159 3500 
L 1159 2956 
Q 1366 3272 1645 3428 
Q 1925 3584 2291 3584 
Q 2894 3584 3203 3211 
Q 3513 2838 3513 2113 
z
" id="DejaVuSans-6e" transform="scale(0.015625)"/>
       </defs>
       <use xlink:href="#DejaVuSans-6a"/>
       <use x="27.783203" xlink:href="#DejaVuSans-75"/>
       <use x="91.162109" xlink:href="#DejaVuSans-69"/>
       <use x="118.945312" xlink:href="#DejaVuSans-6e"/>
      </g>
     </g>
    </g>
    <g id="xtick_5">
     <g id="line2d_5">
      <g>
       <use style="stroke:#000000;stroke-width:0.8;" x="177.734158" xlink:href="#m1ab5001b19" y="270.860625"/>
      </g>
     </g>
     <g id="text_5">
      <!-- juil. -->
      <g transform="translate(171.210104 294.055911)rotate(-45)scale(0.09 -0.09)">
       <defs>
        <path d="M 684 794 
L 1344 794 
L 1344 0 
L 684 0 
L 684 794 
z
" id="DejaVuSans-2e" transform="scale(0.015625)"/>
       </defs>
       <use xlink:href="#DejaVuSans-6a"/>
       <use x="27.783203" xlink:href="#DejaVuSans-75"/>
       <use x="91.162109" xlink:href="#DejaVuSans-69"/>
       <use x="118.945312" xlink:href="#DejaVuSans-6c"/>
       <use x="146.728516" xlink:href="#DejaVuSans-2e"/>
      </g>
     </g>
    </g>
    <g id="xtick_6">
     <g id="line2d_6">
      <g>
       <use style="stroke:#000000;stroke-width:0.8;" x="206.149764" xlink:href="#m1ab5001b19" y="270.860625"/>
      </g>
     </g>
     <g id="text_6">
      <!-- août -->
      <g transform="translate(196.663484 297.018136)rotate(-45)scale(0.09 -0.09)">
       <defs>
        <path d="M 1959 3097 
Q 1497 3097 1228 2736 
Q 959 2375 959 1747 
Q 959 1119 1226 758 
Q 1494 397 1959 397 
Q 2419 397 2687 759 
Q 2956 1122 2956 1747 
Q 2956 2369 2687 2733 
Q 2419 3097 1959 3097 
z
M 1959 3584 
Q 2709 3584 3137 3096 
Q 3566 2609 3566 1747 
Q 3566 888 3137 398 
Q 2709 -91 1959 -91 
Q 1206 -91 779 398 
Q 353 888 353 1747 
Q 353 2609 779 3096 
Q 1206 3584 1959 3584 
z
" id="DejaVuSans-6f" transform="scale(0.015625)"/>
        <path d="M 544 1381 
L 544 3500 
L 1119 3500 
L 1119 1403 
Q 1119 906 1312 657 
Q 1506 409 1894 409 
Q 2359 409 2629 706 
Q 2900 1003 2900 1516 
L 2900 3500 
L 3475 3500 
L 3475 0 
L 2900 0 
L 2900 538 
Q 2691 219 2414 64 
Q 2138 -91 1772 -91 
Q 1169 -91 856 284 
Q 544 659 544 1381 
z
M 1991 3584 
L 1991 3584 
z
M 1753 5119 
L 2215 5119 
L 2981 3944 
L 2547 3944 
L 1984 4709 
L 1422 3944 
L 987 3944 
L 1753 5119 
z
" id="DejaVuSans-fb" transform="scale(0.015625)"/>
        <path d="M 1172 4494 
L 1172 3500 
L 2356 3500 
L 2356 3053 
L 1172 3053 
L 1172 1153 
Q 1172 725 1289 603 
Q 1406 481 1766 481 
L 2356 481 
L 2356 0 
L 1766 0 
Q 1100 0 847 248 
Q 594 497 594 1153 
L 594 3053 
L 172 3053 
L 172 3500 
L 594 3500 
L 594 4494 
L 1172 4494 
z
" id="DejaVuSans-74" transform="scale(0.015625)"/>
       </defs>
       <use xlink:href="#DejaVuSans-61"/>
       <use x="61.279297" xlink:href="#DejaVuSans-6f"/>
       <use x="122.460938" xlink:href="#DejaVuSans-fb"/>
       <use x="185.839844" xlink:href="#DejaVuSans-74"/>
      </g>
     </g>
    </g>
    <g id="xtick_7">
     <g id="line2d_7">
      <g>
       <use style="stroke:#000000;stroke-width:0.8;" x="234.56537" xlink:href="#m1ab5001b19" y="270.860625"/>
      </g>
     </g>
     <g id="text_7">
      <!-- sept. -->
      <g transform="translate(223.612396 298.484831)rotate(-45)scale(0.09 -0.09)">
       <defs>
        <path d="M 3597 1894 
L 3597 1613 
L 953 1613 
Q 991 1019 1311 708 
Q 1631 397 2203 397 
Q 2534 397 2845 478 
Q 3156 559 3463 722 
L 3463 178 
Q 3153 47 2828 -22 
Q 2503 -91 2169 -91 
Q 1331 -91 842 396 
Q 353 884 353 1716 
Q 353 2575 817 3079 
Q 1281 3584 2069 3584 
Q 2775 3584 3186 3129 
Q 3597 2675 3597 1894 
z
M 3022 2063 
Q 3016 2534 2758 2815 
Q 2500 3097 2075 3097 
Q 1594 3097 1305 2825 
Q 1016 2553 972 2059 
L 3022 2063 
z
" id="DejaVuSans-65" transform="scale(0.015625)"/>
        <path d="M 1159 525 
L 1159 -1331 
L 581 -1331 
L 581 3500 
L 1159 3500 
L 1159 2969 
Q 1341 3281 1617 3432 
Q 1894 3584 2278 3584 
Q 2916 3584 3314 3078 
Q 3713 2572 3713 1747 
Q 3713 922 3314 415 
Q 2916 -91 2278 -91 
Q 1894 -91 1617 61 
Q 1341 213 1159 525 
z
M 3116 1747 
Q 3116 2381 2855 2742 
Q 2594 3103 2138 3103 
Q 1681 3103 1420 2742 
Q 1159 2381 1159 1747 
Q 1159 1113 1420 752 
Q 1681 391 2138 391 
Q 2594 391 2855 752 
Q 3116 1113 3116 1747 
z
" id="DejaVuSans-70" transform="scale(0.015625)"/>
       </defs>
       <use xlink:href="#DejaVuSans-73"/>
       <use x="52.099609" xlink:href="#DejaVuSans-65"/>
       <use x="113.623047" xlink:href="#DejaVuSans-70"/>
       <use x="177.099609" xlink:href="#DejaVuSans-74"/>
       <use x="216.308594" xlink:href="#DejaVuSans-2e"/>
      </g>
     </g>
    </g>
    <g id="xtick_8">
     <g id="line2d_8">
      <g>
       <use style="stroke:#000000;stroke-width:0.8;" x="262.064343" xlink:href="#m1ab5001b19" y="270.860625"/>
      </g>
     </g>
     <g id="text_8">
      <!-- oct. -->
      <g transform="translate(254.989408 294.606792)rotate(-45)scale(0.09 -0.09)">
       <defs>
        <path d="M 3122 3366 
L 3122 2828 
Q 2878 2963 2633 3030 
Q 2388 3097 2138 3097 
Q 1578 3097 1268 2742 
Q 959 2388 959 1747 
Q 959 1106 1268 751 
Q 1578 397 2138 397 
Q 2388 397 2633 464 
Q 2878 531 3122 666 
L 3122 134 
Q 2881 22 2623 -34 
Q 2366 -91 2075 -91 
Q 1284 -91 818 406 
Q 353 903 353 1747 
Q 353 2603 823 3093 
Q 1294 3584 2113 3584 
Q 2378 3584 2631 3529 
Q 2884 3475 3122 3366 
z
" id="DejaVuSans-63" transform="scale(0.015625)"/>
       </defs>
       <use xlink:href="#DejaVuSans-6f"/>
       <use x="61.181641" xlink:href="#DejaVuSans-63"/>
       <use x="116.162109" xlink:href="#DejaVuSans-74"/>
       <use x="155.371094" xlink:href="#DejaVuSans-2e"/>
      </g>
     </g>
    </g>
    <g id="xtick_9">
     <g id="line2d_9">
      <g>
       <use style="stroke:#000000;stroke-width:0.8;" x="290.479949" xlink:href="#m1ab5001b19" y="270.860625"/>
      </g>
     </g>
     <g id="text_9">
      <!-- nov. -->
      <g transform="translate(282.092447 295.919359)rotate(-45)scale(0.09 -0.09)">
       <use xlink:href="#DejaVuSans-6e"/>
       <use x="63.378906" xlink:href="#DejaVuSans-6f"/>
       <use x="124.560547" xlink:href="#DejaVuSans-76"/>
       <use x="175.990234" xlink:href="#DejaVuSans-2e"/>
      </g>
     </g>
    </g>
    <g id="xtick_10">
     <g id="line2d_10">
      <g>
       <use style="stroke:#000000;stroke-width:0.8;" x="317.978922" xlink:href="#m1ab5001b19" y="270.860625"/>
      </g>
     </g>
     <g id="text_10">
      <!-- déc. -->
      <g transform="translate(309.336862 296.173917)rotate(-45)scale(0.09 -0.09)">
       <defs>
        <path d="M 2906 2969 
L 2906 4863 
L 3481 4863 
L 3481 0 
L 2906 0 
L 2906 525 
Q 2725 213 2448 61 
Q 2172 -91 1784 -91 
Q 1150 -91 751 415 
Q 353 922 353 1747 
Q 353 2572 751 3078 
Q 1150 3584 1784 3584 
Q 2172 3584 2448 3432 
Q 2725 3281 2906 2969 
z
M 947 1747 
Q 947 1113 1208 752 
Q 1469 391 1925 391 
Q 2381 391 2643 752 
Q 2906 1113 2906 1747 
Q 2906 2381 2643 2742 
Q 2381 3103 1925 3103 
Q 1469 3103 1208 2742 
Q 947 2381 947 1747 
z
" id="DejaVuSans-64" transform="scale(0.015625)"/>
        <path d="M 3597 1894 
L 3597 1613 
L 953 1613 
Q 991 1019 1311 708 
Q 1631 397 2203 397 
Q 2534 397 2845 478 
Q 3156 559 3463 722 
L 3463 178 
Q 3153 47 2828 -22 
Q 2503 -91 2169 -91 
Q 1331 -91 842 396 
Q 353 884 353 1716 
Q 353 2575 817 3079 
Q 1281 3584 2069 3584 
Q 2775 3584 3186 3129 
Q 3597 2675 3597 1894 
z
M 3022 2063 
Q 3016 2534 2758 2815 
Q 2500 3097 2075 3097 
Q 1594 3097 1305 2825 
Q 1016 2553 972 2059 
L 3022 2063 
z
M 2466 5119 
L 3088 5119 
L 2070 3944 
L 1591 3944 
L 2466 5119 
z
" id="DejaVuSans-e9" transform="scale(0.015625)"/>
       </defs>
       <use xlink:href="#DejaVuSans-64"/>
       <use x="63.476562" xlink:href="#DejaVuSans-e9"/>
       <use x="125" xlink:href="#DejaVuSans-63"/>
       <use x="179.980469" xlink:href="#DejaVuSans-2e"/>
      </g>
     </g>
    </g>
    <g id="xtick_11">
     <g id="line2d_11">
      <g>
       <use style="stroke:#000000;stroke-width:0.8;" x="346.394528" xlink:href="#m1ab5001b19" y="270.860625"/>
      </g>
     </g>
     <g id="text_11">
      <!-- janv. -->
      <g transform="translate(336.233072 297.693313)rotate(-45)scale(0.09 -0.09)">
       <use xlink:href="#DejaVuSans-6a"/>
       <use x="27.783203" xlink:href="#DejaVuSans-61"/>
       <use x="89.0625" xlink:href="#DejaVuSans-6e"/>
       <use x="152.441406" xlink:href="#DejaVuSans-76"/>
       <use x="203.871094" xlink:href="#DejaVuSans-2e"/>
      </g>
     </g>
    </g>
    <g id="xtick_12">
     <g id="line2d_12">
      <g>
       <use style="stroke:#000000;stroke-width:0.8;" x="374.810133" xlink:href="#m1ab5001b19" y="270.860625"/>
      </g>
     </g>
     <g id="text_12">
      <!-- fév. -->
      <g transform="translate(368.193603 294.148388)rotate(-45)scale(0.09 -0.09)">
       <defs>
        <path d="M 2375 4863 
L 2375 4384 
L 1825 4384 
Q 1516 4384 1395 4259 
Q 1275 4134 1275 3809 
L 1275 3500 
L 2222 3500 
L 2222 3053 
L 1275 3053 
L 1275 0 
L 697 0 
L 697 3053 
L 147 3053 
L 147 3500 
L 697 3500 
L 697 3744 
Q 697 4328 969 4595 
Q 1241 4863 1831 4863 
L 2375 4863 
z
" id="DejaVuSans-66" transform="scale(0.015625)"/>
       </defs>
       <use xlink:href="#DejaVuSans-66"/>
       <use x="35.205078" xlink:href="#DejaVuSans-e9"/>
       <use x="96.728516" xlink:href="#DejaVuSans-76"/>
       <use x="148.158203" xlink:href="#DejaVuSans-2e"/>
      </g>
     </g>
    </g>
    <g id="xtick_13">
     <g id="line2d_13">
      <g>
       <use style="stroke:#000000;stroke-width:0.8;" x="400.475842" xlink:href="#m1ab5001b19" y="270.860625"/>
      </g>
     </g>
     <g id="text_13">
      <!-- mars -->
      <g transform="translate(389.281237 298.726462)rotate(-45)scale(0.09 -0.09)">
       <use xlink:href="#DejaVuSans-6d"/>
       <use x="97.412109" xlink:href="#DejaVuSans-61"/>
       <use x="158.691406" xlink:href="#DejaVuSans-72"/>
       <use x="199.804688" xlink:href="#DejaVuSans-73"/>
      </g>
     </g>
    </g>
    <g id="xtick_14">
     <g id="line2d_14">
      <g>
       <use style="stroke:#000000;stroke-width:0.8;" x="428.891448" xlink:href="#m1ab5001b19" y="270.860625"/>
      </g>
     </g>
     <g id="text_14">
      <!-- avril -->
      <g transform="translate(419.908319 296.514986)rotate(-45)scale(0.09 -0.09)">
       <use xlink:href="#DejaVuSans-61"/>
       <use x="61.279297" xlink:href="#DejaVuSans-76"/>
       <use x="120.458984" xlink:href="#DejaVuSans-72"/>
       <use x="161.572266" xlink:href="#DejaVuSans-69"/>
       <use x="189.355469" xlink:href="#DejaVuSans-6c"/>
      </g>
     </g>
    </g>
    <g id="xtick_15">
     <g id="line2d_15">
      <g>
       <use style="stroke:#000000;stroke-width:0.8;" x="456.390421" xlink:href="#m1ab5001b19" y="270.860625"/>
      </g>
     </g>
     <g id="text_15">
      <!-- mai -->
      <g transform="translate(449.359238 294.56304)rotate(-45)scale(0.09 -0.09)">
       <use xlink:href="#DejaVuSans-6d"/>
       <use x="97.412109" xlink:href="#DejaVuSans-61"/>
       <use x="158.691406" xlink:href="#DejaVuSans-69"/>
      </g>
     </g>
    </g>
    <g id="xtick_16">
     <g id="line2d_16">
      <g>
       <use style="stroke:#000000;stroke-width:0.8;" x="484.806027" xlink:href="#m1ab5001b19" y="270.860625"/>
      </g>
     </g>
     <g id="text_16">
      <!-- juin -->
      <g transform="translate(478.039346 294.298537)rotate(-45)scale(0.09 -0.09)">
       <use xlink:href="#DejaVuSans-6a"/>
       <use x="27.783203" xlink:href="#DejaVuSans-75"/>
       <use x="91.162109" xlink:href="#DejaVuSans-69"/>
       <use x="118.945312" xlink:href="#DejaVuSans-6e"/>
      </g>
     </g>
    </g>
    <g id="xtick_17">
     <g id="line2d_17">
      <g>
       <use style="stroke:#000000;stroke-width:0.8;" x="512.305" xlink:href="#m1ab5001b19" y="270.860625"/>
      </g>
     </g>
     <g id="text_17">
      <!-- juil. -->
      <g transform="translate(505.780946 294.055911)rotate(-45)scale(0.09 -0.09)">
       <use xlink:href="#DejaVuSans-6a"/>
       <use x="27.783203" xlink:href="#DejaVuSans-75"/>
       <use x="91.162109" xlink:href="#DejaVuSans-69"/>
       <use x="118.945312" xlink:href="#DejaVuSans-6c"/>
       <use x="146.728516" xlink:href="#DejaVuSans-2e"/>
      </g>
     </g>
    </g>
   </g>
   <g id="matplotlib.axis_2">
    <g id="ytick_1">
     <g id="line2d_18">
      <path clip-path="url(#p07731c342b)" d="M 65.905 260.506339 
L 512.305 260.506339 
" style="fill:none;stroke:#b0b0b0;stroke-linecap:square;stroke-opacity:0.5;stroke-width:0.8;"/>
     </g>
     <g id="text_18">
      <!-- 0 -->
      <g transform="translate(53.17875 263.925636)scale(0.09 -0.09)">
       <defs>
        <path d="M 2034 4250 
Q 1547 4250 1301 3770 
Q 1056 3291 1056 2328 
Q 1056 1369 1301 889 
Q 1547 409 2034 409 
Q 2525 409 2770 889 
Q 3016 1369 3016 2328 
Q 3016 3291 2770 3770 
Q 2525 4250 2034 4250 
z
M 2034 4750 
Q 2819 4750 3233 4129 
Q 3647 3509 3647 2328 
Q 3647 1150 3233 529 
Q 2819 -91 2034 -91 
Q 1250 -91 836 529 
Q 422 1150 422 2328 
Q 422 3509 836 4129 
Q 1250 4750 2034 4750 
z
" id="DejaVuSans-30" transform="scale(0.015625)"/>
       </defs>
       <use xlink:href="#DejaVuSans-30"/>
      </g>
     </g>
    </g>
    <g id="ytick_2">
     <g id="line2d_19">
      <path clip-path="url(#p07731c342b)" d="M 65.905 174.220625 
L 512.305 174.220625 
" style="fill:none;stroke:#b0b0b0;stroke-linecap:square;stroke-opacity:0.5;stroke-width:0.8;"/>
     </g>
     <g id="text_19">
      <!-- 500 -->
      <g transform="translate(41.72625 177.639922)scale(0.09 -0.09)">
       <defs>
        <path d="M 691 4666 
L 3169 4666 
L 3169 4134 
L 1269 4134 
L 1269 2991 
Q 1406 3038 1543 3061 
Q 1681 3084 1819 3084 
Q 2600 3084 3056 2656 
Q 3513 2228 3513 1497 
Q 3513 744 3044 326 
Q 2575 -91 1722 -91 
Q 1428 -91 1123 -41 
Q 819 9 494 109 
L 494 744 
Q 775 591 1075 516 
Q 1375 441 1709 441 
Q 2250 441 2565 725 
Q 2881 1009 2881 1497 
Q 2881 1984 2565 2268 
Q 2250 2553 1709 2553 
Q 1456 2553 1204 2497 
Q 953 2441 691 2322 
L 691 4666 
z
" id="DejaVuSans-35" transform="scale(0.015625)"/>
       </defs>
       <use xlink:href="#DejaVuSans-35"/>
       <use x="63.623047" xlink:href="#DejaVuSans-30"/>
       <use x="127.246094" xlink:href="#DejaVuSans-30"/>
      </g>
     </g>
    </g>
    <g id="ytick_3">
     <g id="line2d_20">
      <path clip-path="url(#p07731c342b)" d="M 65.905 87.934911 
L 512.305 87.934911 
" style="fill:none;stroke:#b0b0b0;stroke-linecap:square;stroke-opacity:0.5;stroke-width:0.8;"/>
     </g>
     <g id="text_20">
      <!-- 1000 -->
      <g transform="translate(36 91.354208)scale(0.09 -0.09)">
       <defs>
        <path d="M 794 531 
L 1825 531 
L 1825 4091 
L 703 3866 
L 703 4441 
L 1819 4666 
L 2450 4666 
L 2450 531 
L 3481 531 
L 3481 0 
L 794 0 
L 794 531 
z
" id="DejaVuSans-31" transform="scale(0.015625)"/>
       </defs>
       <use xlink:href="#DejaVuSans-31"/>
       <use x="63.623047" xlink:href="#DejaVuSans-30"/>
       <use x="127.246094" xlink:href="#DejaVuSans-30"/>
       <use x="190.869141" xlink:href="#DejaVuSans-30"/>
      </g>
     </g>
    </g>
    <g id="ytick_4">
     <g id="line2d_21">
      <path clip-path="url(#p07731c342b)" d="M 65.905 243.249196 
L 512.305 243.249196 
" style="fill:none;stroke:#b0b0b0;stroke-linecap:square;stroke-opacity:0.2;stroke-width:0.8;"/>
     </g>
    </g>
    <g id="ytick_5">
     <g id="line2d_22">
      <path clip-path="url(#p07731c342b)" d="M 65.905 225.992054 
L 512.305 225.992054 
" style="fill:none;stroke:#b0b0b0;stroke-linecap:square;stroke-opacity:0.2;stroke-width:0.8;"/>
     </g>
    </g>
    <g id="ytick_6">
     <g id="line2d_23">
      <path clip-path="url(#p07731c342b)" d="M 65.905 208.734911 
L 512.305 208.734911 
" style="fill:none;stroke:#b0b0b0;stroke-linecap:square;stroke-opacity:0.2;stroke-width:0.8;"/>
     </g>
    </g>
    <g id="ytick_7">
     <g id="line2d_24">
      <path clip-path="url(#p07731c342b)" d="M 65.905 191.477768 
L 512.305 191.477768 
" style="fill:none;stroke:#b0b0b0;stroke-linecap:square;stroke-opacity:0.2;stroke-width:0.8;"/>
     </g>
    </g>
    <g id="ytick_8">
     <g id="line2d_25">
      <path clip-path="url(#p07731c342b)" d="M 65.905 156.963482 
L 512.305 156.963482 
" style="fill:none;stroke:#b0b0b0;stroke-linecap:square;stroke-opacity:0.2;stroke-width:0.8;"/>
     </g>
    </g>
    <g id="ytick_9">
     <g id="line2d_26">
      <path clip-path="url(#p07731c342b)" d="M 65.905 139.706339 
L 512.305 139.706339 
" style="fill:none;stroke:#b0b0b0;stroke-linecap:square;stroke-opacity:0.2;stroke-width:0.8;"/>
     </g>
    </g>
    <g id="ytick_10">
     <g id="line2d_27">
      <path clip-path="url(#p07731c342b)" d="M 65.905 122.449196 
L 512.305 122.449196 
" style="fill:none;stroke:#b0b0b0;stroke-linecap:square;stroke-opacity:0.2;stroke-width:0.8;"/>
     </g>
    </g>
    <g id="ytick_11">
     <g id="line2d_28">
      <path clip-path="url(#p07731c342b)" d="M 65.905 105.192054 
L 512.305 105.192054 
" style="fill:none;stroke:#b0b0b0;stroke-linecap:square;stroke-opacity:0.2;stroke-width:0.8;"/>
     </g>
    </g>
    <g id="ytick_12">
     <g id="line2d_29">
      <path clip-path="url(#p07731c342b)" d="M 65.905 70.677768 
L 512.305 70.677768 
" style="fill:none;stroke:#b0b0b0;stroke-linecap:square;stroke-opacity:0.2;stroke-width:0.8;"/>
     </g>
    </g>
   </g>
   <g id="line2d_30">
    <path clip-path="url(#p07731c342b)" d="M 65.905 258.785787 
L 512.305 258.785787 
" style="fill:none;stroke:#00ced1;stroke-linecap:square;stroke-width:0.8;"/>
   </g>
   <g id="line2d_31">
    <path clip-path="url(#p07731c342b)" d="M 132.819168 260.506339 
L 137.402331 260.506339 
L 138.318963 259.711087 
L 139.235595 259.074884 
L 140.152228 259.711087 
L 141.06886 259.711087 
L 141.985493 259.870137 
L 144.73539 259.870137 
L 145.652023 260.506339 
L 151.151817 260.506339 
L 152.985082 260.188238 
L 155.734979 260.188238 
L 156.651612 259.870137 
L 157.568244 259.392985 
L 158.484877 259.392985 
L 160.318142 259.074884 
L 163.068039 259.074884 
L 163.984671 259.552036 
L 165.817936 259.870137 
L 168.567834 259.870137 
L 169.484466 260.029188 
L 170.401099 259.870137 
L 172.234363 259.870137 
L 173.150996 260.029188 
L 175.900893 260.029188 
L 176.817526 259.870137 
L 179.567423 259.870137 
L 180.484055 259.711087 
L 182.31732 259.711087 
L 183.233953 260.029188 
L 184.150585 260.029188 
L 185.067218 260.188238 
L 185.98385 260.188238 
L 186.900483 260.347289 
L 190.567012 260.347289 
L 191.483645 260.188238 
L 196.066807 260.188238 
L 196.983439 260.029188 
L 197.900072 260.188238 
L 198.816704 260.029188 
L 201.566602 260.029188 
L 202.483234 259.870137 
L 203.399867 260.029188 
L 204.316499 260.029188 
L 205.233131 259.711087 
L 207.066396 259.711087 
L 207.983029 259.233935 
L 208.899661 257.80248 
L 209.816294 257.325328 
L 210.732926 256.689126 
L 211.649559 256.848177 
L 212.566191 256.689126 
L 213.482823 256.689126 
L 214.399456 256.371025 
L 215.316088 255.734823 
L 216.232721 254.78052 
L 217.149353 254.621469 
L 218.065986 253.190014 
L 218.982618 253.349065 
L 219.899251 253.349065 
L 220.815883 251.758559 
L 221.732515 252.235711 
L 222.649148 253.030964 
L 223.56578 252.394762 
L 224.482413 252.076661 
L 225.399045 251.599509 
L 226.315678 251.599509 
L 227.23231 252.712863 
L 228.148943 252.712863 
L 229.065575 251.91761 
L 231.815472 252.394762 
L 232.732105 252.394762 
L 233.648737 250.804256 
L 234.56537 250.804256 
L 235.482002 249.0547 
L 236.398634 248.577549 
L 237.315267 248.89565 
L 238.231899 249.0547 
L 239.148532 249.0547 
L 240.065164 251.122357 
L 240.981797 251.599509 
L 241.898429 253.349065 
L 242.815062 252.076661 
L 243.731694 251.599509 
L 244.648326 251.281408 
L 245.564959 251.281408 
L 246.481591 250.804256 
L 247.398224 249.690902 
L 248.314856 250.168054 
L 249.231489 251.758559 
L 250.148121 251.758559 
L 251.064754 251.91761 
L 251.981386 251.91761 
L 252.898018 251.440458 
L 253.814651 251.440458 
L 254.731283 250.963307 
L 255.647916 250.327105 
L 256.564548 248.89565 
L 257.481181 248.418498 
L 258.397813 248.418498 
L 259.314446 248.100397 
L 260.231078 246.191791 
L 261.14771 242.692679 
L 262.064343 243.646982 
L 263.897608 244.283184 
L 264.81424 244.283184 
L 265.730873 243.16983 
L 266.647505 243.646982 
L 267.564138 245.237487 
L 268.48077 243.01078 
L 269.397402 242.851729 
L 270.314035 242.374577 
L 271.230667 242.374577 
L 272.1473 242.215527 
L 273.063932 240.625022 
L 273.980565 239.352617 
L 274.897197 237.28496 
L 275.81383 234.263 
L 276.730462 233.467747 
L 277.647094 233.308697 
L 278.563727 229.173383 
L 279.480359 229.491484 
L 280.396992 226.628574 
L 281.313624 225.038068 
L 282.230257 224.083765 
L 283.146889 224.083765 
L 284.063522 223.606614 
L 284.980154 224.719967 
L 285.896786 222.65231 
L 286.813419 224.242816 
L 287.730051 225.197119 
L 288.646684 225.51522 
L 289.563316 225.992372 
L 290.479949 226.628574 
L 291.396581 232.195343 
L 292.313214 234.263 
L 293.229846 235.853505 
L 294.146478 237.921162 
L 295.979743 237.603061 
L 296.896376 237.603061 
L 297.813008 233.626798 
L 298.729641 235.217303 
L 299.646273 239.352617 
L 300.562906 238.875466 
L 301.479538 242.692679 
L 302.39617 243.487931 
L 303.312803 243.487931 
L 304.229435 245.873689 
L 305.146068 247.146094 
L 306.0627 246.350841 
L 306.979333 249.531852 
L 307.895965 251.440458 
L 308.812598 250.804256 
L 309.72923 250.804256 
L 311.562495 252.553812 
L 312.479127 252.712863 
L 313.39576 253.667166 
L 314.312392 253.985267 
L 315.229025 255.098621 
L 316.145657 255.098621 
L 317.06229 255.893874 
L 317.978922 257.325328 
L 318.895554 257.80248 
L 319.812187 257.80248 
L 320.728819 258.438682 
L 321.645452 258.597733 
L 322.562084 258.597733 
L 323.478717 259.074884 
L 324.395349 258.120581 
L 325.311982 258.120581 
L 328.061879 257.64343 
L 328.978511 257.64343 
L 329.895144 257.166278 
L 330.811776 257.961531 
L 331.728409 257.007227 
L 332.645041 257.166278 
L 333.561674 257.007227 
L 334.478306 257.166278 
L 335.394938 257.007227 
L 336.311571 257.80248 
L 337.228203 257.484379 
L 338.144836 258.120581 
L 339.061468 258.120581 
L 339.978101 258.915834 
L 340.894733 258.756783 
L 341.811366 258.915834 
L 342.727998 258.120581 
L 343.64463 258.279632 
L 344.561263 258.756783 
L 345.477895 258.120581 
L 346.394528 257.961531 
L 348.227793 257.961531 
L 349.144425 258.120581 
L 350.061057 257.484379 
L 350.97769 257.325328 
L 351.894322 257.80248 
L 352.810955 257.64343 
L 353.727587 257.325328 
L 355.560852 257.325328 
L 356.477485 258.120581 
L 357.394117 258.120581 
L 358.310749 258.438682 
L 359.227382 258.120581 
L 360.144014 258.438682 
L 361.977279 258.120581 
L 363.810544 257.484379 
L 364.727177 257.64343 
L 365.643809 258.120581 
L 369.310339 258.756783 
L 370.226971 259.233935 
L 371.143604 258.279632 
L 372.060236 257.80248 
L 373.893501 257.484379 
L 375.726766 257.80248 
L 376.643398 257.166278 
L 378.476663 257.80248 
L 380.309928 257.80248 
L 381.226561 257.484379 
L 382.143193 256.848177 
L 383.059825 257.166278 
L 383.976458 257.166278 
L 384.89309 256.848177 
L 385.809723 257.007227 
L 387.642988 257.007227 
L 388.55962 257.64343 
L 389.476253 258.120581 
L 390.392885 258.438682 
L 391.309517 257.64343 
L 392.22615 257.166278 
L 393.142782 257.325328 
L 394.059415 257.166278 
L 394.976047 256.848177 
L 395.89268 255.734823 
L 396.809312 254.93957 
L 397.725945 255.416722 
L 398.642577 255.257671 
L 399.559209 255.257671 
L 400.475842 256.052924 
L 401.392474 255.416722 
L 402.309107 255.893874 
L 403.225739 257.007227 
L 404.142372 257.80248 
L 405.059004 258.279632 
L 405.975637 258.279632 
L 406.892269 257.64343 
L 407.808901 257.64343 
L 408.725534 257.007227 
L 409.642166 254.93957 
L 411.475431 250.009004 
L 412.392064 249.849953 
L 413.308696 247.146094 
L 414.225329 245.237487 
L 415.141961 244.601285 
L 416.058593 243.487931 
L 416.975226 241.420274 
L 417.891858 243.01078 
L 418.808491 243.16983 
L 420.641756 241.102173 
L 421.558388 237.603061 
L 422.475021 236.489707 
L 423.391653 236.966859 
L 424.308285 235.694455 
L 425.224918 235.535404 
L 426.14155 233.944899 
L 427.974815 232.672494 
L 428.891448 233.149646 
L 429.80808 236.171606 
L 430.724713 236.330657 
L 431.641345 236.330657 
L 432.557977 242.215527 
L 433.47461 243.01078 
L 434.391242 243.328881 
L 435.307875 239.511668 
L 436.224507 234.42205 
L 437.14114 234.899202 
L 438.057772 234.899202 
L 438.974405 229.968635 
L 439.891037 228.855281 
L 440.807669 229.650534 
L 441.724302 232.354393 
L 442.640934 233.944899 
L 443.557567 234.263 
L 444.474199 234.263 
L 445.390832 233.467747 
L 446.307464 234.42205 
L 447.224097 235.694455 
L 448.140729 236.171606 
L 449.057361 237.28496 
L 450.890626 237.603061 
L 451.807259 239.511668 
L 452.723891 240.784072 
L 453.640524 241.738375 
L 454.557156 243.646982 
L 455.473789 245.237487 
L 456.390421 246.191791 
L 457.307053 246.03274 
L 458.223686 247.464195 
L 459.140318 249.849953 
L 460.056951 251.758559 
L 460.973583 252.712863 
L 461.890216 253.349065 
L 462.806848 253.349065 
L 463.72348 253.508115 
L 464.640113 254.462419 
L 465.556745 254.303368 
L 466.473378 254.621469 
L 467.39001 256.052924 
L 468.306643 256.371025 
L 469.223275 256.052924 
L 470.139908 256.052924 
L 471.05654 256.371025 
L 471.973172 256.371025 
L 472.889805 255.734823 
L 473.806437 254.93957 
L 475.639702 255.893874 
L 476.556335 255.893874 
L 477.472967 257.166278 
L 478.3896 256.530076 
L 479.306232 256.530076 
L 480.222864 257.325328 
L 481.139497 256.689126 
L 482.056129 256.371025 
L 482.972762 256.371025 
L 483.889394 255.416722 
L 484.806027 256.211975 
L 485.722659 256.848177 
L 486.639292 256.689126 
L 487.555924 257.166278 
L 488.472556 256.689126 
L 489.389189 256.689126 
L 490.305821 257.007227 
L 492.139086 256.052924 
L 493.055719 255.734823 
L 494.888984 256.371025 
L 495.805616 256.371025 
L 496.722248 255.893874 
L 497.638881 256.211975 
L 498.555513 256.052924 
L 499.472146 255.734823 
L 500.388778 254.93957 
L 500.388778 254.93957 
" style="fill:none;stroke:#b22222;stroke-linecap:square;"/>
   </g>
   <g id="line2d_32">
    <path clip-path="url(#p07731c342b)" d="M 132.819168 260.506339 
L 137.402331 260.506339 
L 138.318963 259.889652 
L 139.235595 260.259664 
L 142.902125 260.259664 
L 143.818758 260.383002 
L 144.73539 260.259664 
L 145.652023 260.259664 
L 147.485287 260.012989 
L 149.318552 260.012989 
L 150.235185 260.136327 
L 155.734979 260.136327 
L 156.651612 260.012989 
L 158.484877 260.012989 
L 160.318142 260.259664 
L 161.234774 259.889652 
L 162.151407 259.889652 
L 163.068039 260.012989 
L 163.984671 260.012989 
L 164.901304 259.889652 
L 165.817936 259.889652 
L 166.734569 259.766314 
L 167.651201 260.136327 
L 171.317731 260.136327 
L 172.234363 259.889652 
L 175.900893 259.889652 
L 177.734158 260.136327 
L 178.650791 260.383002 
L 181.400688 260.383002 
L 182.31732 260.259664 
L 187.817115 260.259664 
L 188.733747 260.136327 
L 189.65038 260.136327 
L 190.567012 259.889652 
L 191.483645 259.766314 
L 192.400277 259.889652 
L 194.233542 259.889652 
L 195.150175 260.012989 
L 196.066807 259.889652 
L 197.900072 260.136327 
L 198.816704 260.012989 
L 199.733337 260.012989 
L 200.649969 259.889652 
L 201.566602 260.012989 
L 203.399867 260.012989 
L 204.316499 259.642976 
L 205.233131 259.026289 
L 206.149764 259.026289 
L 207.066396 259.149626 
L 207.983029 258.532939 
L 208.899661 256.92955 
L 209.816294 256.4362 
L 210.732926 256.189525 
L 211.649559 256.4362 
L 212.566191 256.066188 
L 213.482823 255.94285 
L 214.399456 255.326162 
L 215.316088 255.4495 
L 216.232721 255.202825 
L 218.065986 252.366061 
L 218.982618 252.736074 
L 219.899251 252.612736 
L 220.815883 250.39266 
L 222.649148 249.282623 
L 223.56578 249.529298 
L 224.482413 249.40596 
L 225.399045 248.665935 
L 226.315678 248.91261 
L 227.23231 251.132686 
L 228.148943 252.242724 
L 229.065575 251.502698 
L 229.982207 252.612736 
L 230.89884 252.736074 
L 232.732105 252.736074 
L 233.648737 250.639336 
L 234.56537 250.145985 
L 235.482002 250.022648 
L 236.398634 247.309222 
L 237.315267 245.459159 
L 239.148532 245.459159 
L 240.065164 246.322521 
L 240.981797 246.569197 
L 241.898429 246.322521 
L 243.731694 248.41926 
L 244.648326 248.542597 
L 245.564959 248.542597 
L 247.398224 247.062547 
L 248.314856 247.555897 
L 249.231489 247.062547 
L 250.148121 247.555897 
L 251.064754 247.555897 
L 251.981386 247.432559 
L 252.898018 247.679234 
L 253.814651 246.322521 
L 254.731283 244.719133 
L 255.647916 243.36242 
L 256.564548 241.635695 
L 257.481181 240.772332 
L 258.397813 240.895669 
L 259.314446 239.415619 
L 260.231078 238.428918 
L 261.14771 236.82553 
L 262.064343 237.072205 
L 262.980975 238.798931 
L 263.897608 238.798931 
L 264.81424 238.675594 
L 266.647505 236.208843 
L 267.564138 236.82553 
L 268.48077 234.975467 
L 269.397402 230.041965 
L 270.314035 229.178602 
L 271.230667 229.055265 
L 272.1473 227.575214 
L 273.063932 226.835189 
L 273.980565 225.108463 
L 274.897197 224.368438 
L 275.81383 223.011725 
L 276.730462 224.245101 
L 277.647094 224.368438 
L 279.480359 218.694911 
L 281.313624 213.268059 
L 282.230257 211.664671 
L 283.146889 210.801308 
L 284.063522 210.554633 
L 286.813419 211.664671 
L 287.730051 213.144721 
L 288.646684 214.254759 
L 289.563316 213.884747 
L 290.479949 213.638072 
L 291.396581 223.011725 
L 292.313214 224.861788 
L 293.229846 224.491776 
L 294.146478 224.245101 
L 295.063111 225.725151 
L 295.979743 225.848489 
L 296.896376 226.341839 
L 297.813008 218.201561 
L 298.729641 218.818249 
L 299.646273 227.698552 
L 301.479538 234.605454 
L 302.39617 236.085505 
L 303.312803 235.83883 
L 304.229435 242.129045 
L 305.146068 244.842471 
L 306.0627 242.992408 
L 306.979333 243.732433 
L 307.895965 246.322521 
L 308.812598 245.459159 
L 310.645862 245.952509 
L 311.562495 248.049247 
L 312.479127 249.159285 
L 313.39576 250.886011 
L 314.312392 251.996049 
L 315.229025 253.599437 
L 316.145657 253.722774 
L 317.06229 254.339462 
L 317.978922 255.326162 
L 318.895554 255.696175 
L 319.812187 257.176226 
L 320.728819 256.92955 
L 321.645452 256.806213 
L 322.562084 256.559538 
L 323.478717 256.189525 
L 324.395349 256.4362 
L 325.311982 256.559538 
L 326.228614 256.4362 
L 327.145246 256.4362 
L 328.061879 256.312863 
L 328.978511 256.559538 
L 329.895144 257.422901 
L 330.811776 257.176226 
L 332.645041 255.326162 
L 333.561674 254.586137 
L 335.394938 254.339462 
L 336.311571 253.846112 
L 337.228203 254.092787 
L 339.061468 256.312863 
L 339.978101 257.916251 
L 340.894733 258.162926 
L 341.811366 258.286263 
L 342.727998 258.656276 
L 343.64463 258.409601 
L 344.561263 257.546238 
L 345.477895 255.696175 
L 346.394528 255.696175 
L 347.31116 254.95615 
L 348.227793 254.586137 
L 349.144425 254.092787 
L 350.061057 254.339462 
L 350.97769 255.326162 
L 351.894322 256.066188 
L 352.810955 255.696175 
L 355.560852 257.176226 
L 356.477485 257.176226 
L 357.394117 256.682875 
L 358.310749 257.546238 
L 359.227382 256.806213 
L 360.144014 257.052888 
L 361.060647 257.052888 
L 361.977279 256.559538 
L 362.893912 256.559538 
L 367.477074 255.94285 
L 368.393706 256.4362 
L 369.310339 255.696175 
L 370.226971 255.572837 
L 371.143604 255.202825 
L 372.060236 255.572837 
L 372.976869 255.572837 
L 375.726766 255.94285 
L 376.643398 256.559538 
L 377.560031 256.806213 
L 378.476663 256.806213 
L 379.393296 256.92955 
L 380.309928 256.806213 
L 381.226561 256.806213 
L 382.143193 257.176226 
L 383.059825 256.806213 
L 383.976458 256.92955 
L 384.89309 256.92955 
L 385.809723 256.682875 
L 386.726355 256.806213 
L 387.642988 256.682875 
L 388.55962 257.422901 
L 389.476253 257.916251 
L 391.309517 257.669576 
L 393.142782 257.669576 
L 394.059415 256.189525 
L 394.976047 255.572837 
L 395.89268 255.202825 
L 396.809312 254.216124 
L 397.725945 252.982749 
L 398.642577 252.982749 
L 399.559209 252.736074 
L 400.475842 253.106086 
L 401.392474 253.352762 
L 402.309107 252.489399 
L 403.225739 252.859411 
L 404.142372 253.722774 
L 405.059004 253.352762 
L 405.975637 252.859411 
L 406.892269 252.736074 
L 407.808901 251.379361 
L 408.725534 251.132686 
L 409.642166 250.145985 
L 410.558799 247.555897 
L 411.475431 246.199184 
L 412.392064 246.569197 
L 413.308696 244.472458 
L 414.225329 241.38902 
L 415.141961 237.688893 
L 416.058593 236.578855 
L 416.975226 235.83883 
L 417.891858 235.83883 
L 418.808491 236.208843 
L 419.725123 234.605454 
L 420.641756 232.262041 
L 421.558388 232.755391 
L 422.475021 227.945227 
L 423.391653 226.958527 
L 424.308285 225.601814 
L 425.224918 225.231801 
L 426.14155 220.298299 
L 427.058183 220.051624 
L 427.974815 215.981485 
L 428.891448 214.624772 
L 429.80808 218.571573 
L 430.724713 217.091523 
L 431.641345 217.091523 
L 432.557977 226.095164 
L 433.47461 220.174962 
L 434.391242 218.694911 
L 435.307875 215.858147 
L 436.224507 205.621131 
L 437.14114 206.361156 
L 438.057772 206.361156 
L 438.974405 199.084241 
L 439.891037 205.374456 
L 440.807669 207.471194 
L 441.724302 211.788008 
L 442.640934 215.364797 
L 443.557567 217.461535 
L 445.390832 216.104822 
L 446.307464 215.488135 
L 447.224097 218.818249 
L 449.057361 223.2584 
L 450.890626 225.355138 
L 451.807259 228.068565 
L 452.723891 232.015366 
L 453.640524 233.742092 
L 455.473789 240.278982 
L 456.390421 240.772332 
L 457.307053 240.525657 
L 458.223686 244.349121 
L 459.140318 246.322521 
L 460.056951 247.92591 
L 460.973583 248.41926 
L 461.890216 250.515998 
L 462.806848 250.762673 
L 463.72348 251.132686 
L 464.640113 251.872711 
L 465.556745 252.859411 
L 466.473378 252.612736 
L 467.39001 254.216124 
L 468.306643 253.969449 
L 470.139908 253.722774 
L 471.05654 254.462799 
L 471.973172 254.462799 
L 472.889805 255.572837 
L 473.806437 254.462799 
L 474.72307 254.832812 
L 476.556335 254.832812 
L 477.472967 256.189525 
L 478.3896 255.326162 
L 480.222864 255.326162 
L 482.972762 255.696175 
L 483.889394 255.079487 
L 484.806027 255.94285 
L 485.722659 256.189525 
L 486.639292 256.806213 
L 487.555924 257.052888 
L 488.472556 257.176226 
L 489.389189 257.176226 
L 490.305821 256.92955 
L 491.222454 257.176226 
L 492.139086 257.546238 
L 493.055719 257.422901 
L 493.972351 256.559538 
L 494.888984 256.189525 
L 495.805616 256.189525 
L 496.722248 256.312863 
L 497.638881 255.326162 
L 498.555513 254.95615 
L 499.472146 254.832812 
L 500.388778 255.202825 
L 500.388778 255.202825 
" style="fill:none;stroke:#000000;stroke-linecap:square;stroke-width:1.5;"/>
   </g>
   <g id="line2d_33">
    <path clip-path="url(#p07731c342b)" d="M 132.819168 260.506339 
L 137.402331 260.506339 
L 138.318963 260.349925 
L 139.235595 260.506339 
L 145.652023 260.506339 
L 146.568655 260.349925 
L 152.985082 260.349925 
L 153.901715 259.880684 
L 158.484877 259.880684 
L 159.401509 260.037098 
L 160.318142 260.506339 
L 161.234774 260.193512 
L 162.151407 260.037098 
L 164.901304 260.037098 
L 165.817936 259.880684 
L 166.734569 259.880684 
L 167.651201 260.193512 
L 168.567834 260.349925 
L 169.484466 260.193512 
L 171.317731 260.193512 
L 172.234363 260.349925 
L 173.150996 260.193512 
L 174.984261 260.193512 
L 175.900893 260.349925 
L 176.817526 260.349925 
L 177.734158 260.193512 
L 178.650791 260.193512 
L 179.567423 260.349925 
L 181.400688 260.349925 
L 182.31732 260.193512 
L 183.233953 260.193512 
L 184.150585 260.349925 
L 185.067218 260.193512 
L 187.817115 260.193512 
L 188.733747 260.349925 
L 189.65038 260.349925 
L 190.567012 260.193512 
L 191.483645 260.349925 
L 196.066807 260.349925 
L 196.983439 260.506339 
L 202.483234 260.506339 
L 204.316499 260.193512 
L 207.066396 260.193512 
L 207.983029 259.880684 
L 208.899661 259.255028 
L 209.816294 259.098614 
L 210.732926 259.255028 
L 213.482823 259.255028 
L 214.399456 258.942201 
L 215.316088 259.098614 
L 216.232721 258.785787 
L 217.149353 258.316545 
L 218.065986 258.003717 
L 219.899251 258.003717 
L 220.815883 257.378062 
L 221.732515 257.534476 
L 222.649148 257.534476 
L 224.482413 256.595992 
L 226.315678 256.595992 
L 227.23231 256.90882 
L 228.148943 256.595992 
L 229.065575 256.595992 
L 229.982207 257.065234 
L 230.89884 257.69089 
L 232.732105 257.69089 
L 233.648737 258.003717 
L 234.56537 257.69089 
L 236.398634 257.69089 
L 237.315267 257.221648 
L 238.231899 257.065234 
L 239.148532 257.065234 
L 240.065164 257.221648 
L 240.981797 257.065234 
L 241.898429 257.065234 
L 242.815062 256.752406 
L 244.648326 256.439579 
L 245.564959 256.439579 
L 246.481591 256.283165 
L 247.398224 256.752406 
L 248.314856 256.752406 
L 249.231489 256.90882 
L 250.148121 256.595992 
L 251.064754 256.752406 
L 251.981386 256.752406 
L 252.898018 256.595992 
L 253.814651 256.595992 
L 254.731283 255.813923 
L 255.647916 255.344681 
L 256.564548 254.249784 
L 257.481181 254.406198 
L 258.397813 254.406198 
L 259.314446 253.624129 
L 260.231078 252.685646 
L 261.14771 252.998473 
L 262.064343 252.685646 
L 262.980975 253.311301 
L 263.897608 252.842059 
L 264.81424 252.529232 
L 265.730873 251.903576 
L 266.647505 251.590748 
L 267.564138 249.713782 
L 268.48077 246.898332 
L 269.397402 245.17778 
L 270.314035 243.144399 
L 271.230667 242.831571 
L 273.063932 240.172536 
L 273.980565 240.328949 
L 274.897197 242.831571 
L 275.81383 242.675158 
L 276.730462 244.708538 
L 277.647094 244.708538 
L 278.563727 245.17778 
L 279.480359 243.770055 
L 280.396992 243.144399 
L 281.313624 237.669913 
L 282.230257 237.5135 
L 283.146889 236.73143 
L 284.063522 236.887844 
L 284.980154 236.105775 
L 285.896786 236.575016 
L 286.813419 234.69805 
L 287.730051 236.575016 
L 289.563316 235.636533 
L 290.479949 235.636533 
L 291.396581 238.295569 
L 292.313214 236.418602 
L 293.229846 237.826327 
L 294.146478 239.54688 
L 295.979743 241.893088 
L 296.896376 242.049502 
L 297.813008 239.859708 
L 298.729641 242.831571 
L 299.646273 246.272677 
L 300.562906 247.680402 
L 301.479538 248.775299 
L 303.312803 249.088126 
L 304.229435 250.183024 
L 305.146068 251.590748 
L 306.0627 251.121507 
L 307.895965 253.154887 
L 308.812598 253.311301 
L 309.72923 253.311301 
L 310.645862 255.344681 
L 311.562495 256.595992 
L 312.479127 256.90882 
L 313.39576 257.378062 
L 314.312392 258.003717 
L 315.229025 258.003717 
L 316.145657 258.160131 
L 317.06229 257.378062 
L 318.895554 258.003717 
L 319.812187 258.160131 
L 320.728819 258.160131 
L 321.645452 258.316545 
L 322.562084 258.316545 
L 323.478717 258.942201 
L 324.395349 258.160131 
L 325.311982 258.472959 
L 326.228614 258.629373 
L 327.145246 258.003717 
L 328.978511 258.003717 
L 329.895144 257.065234 
L 330.811776 257.221648 
L 331.728409 256.752406 
L 332.645041 256.752406 
L 333.561674 257.221648 
L 334.478306 256.752406 
L 335.394938 256.752406 
L 336.311571 257.378062 
L 337.228203 257.69089 
L 338.144836 257.534476 
L 339.061468 257.69089 
L 339.978101 258.160131 
L 341.811366 258.160131 
L 342.727998 258.003717 
L 343.64463 258.160131 
L 344.561263 257.221648 
L 345.477895 256.90882 
L 346.394528 256.90882 
L 347.31116 257.065234 
L 350.061057 257.065234 
L 350.97769 258.316545 
L 352.810955 257.69089 
L 353.727587 258.003717 
L 355.560852 258.003717 
L 356.477485 257.221648 
L 357.394117 257.534476 
L 358.310749 258.003717 
L 359.227382 258.003717 
L 360.144014 257.534476 
L 361.060647 257.534476 
L 361.977279 257.69089 
L 362.893912 258.160131 
L 363.810544 257.221648 
L 364.727177 257.221648 
L 365.643809 256.90882 
L 366.560441 257.065234 
L 367.477074 257.065234 
L 368.393706 257.221648 
L 370.226971 257.847303 
L 371.143604 258.003717 
L 372.060236 257.847303 
L 372.976869 258.003717 
L 373.893501 258.003717 
L 374.810133 257.69089 
L 375.726766 257.847303 
L 376.643398 258.160131 
L 377.560031 257.534476 
L 378.476663 258.316545 
L 379.393296 258.472959 
L 380.309928 258.472959 
L 381.226561 258.629373 
L 382.143193 258.160131 
L 383.059825 258.160131 
L 383.976458 258.472959 
L 384.89309 258.003717 
L 386.726355 258.003717 
L 387.642988 257.378062 
L 388.55962 257.69089 
L 389.476253 257.847303 
L 390.392885 257.847303 
L 391.309517 258.316545 
L 392.22615 258.160131 
L 393.142782 257.847303 
L 394.059415 258.629373 
L 394.976047 257.69089 
L 395.89268 257.221648 
L 396.809312 257.221648 
L 397.725945 256.90882 
L 398.642577 257.065234 
L 399.559209 257.378062 
L 400.475842 256.752406 
L 401.392474 257.378062 
L 402.309107 256.752406 
L 403.225739 256.90882 
L 404.142372 256.90882 
L 405.059004 256.595992 
L 405.975637 256.126751 
L 406.892269 256.439579 
L 407.808901 255.970337 
L 408.725534 256.595992 
L 409.642166 256.126751 
L 410.558799 255.188268 
L 411.475431 255.188268 
L 412.392064 255.344681 
L 413.308696 254.09337 
L 414.225329 254.249784 
L 415.141961 253.154887 
L 416.058593 251.747162 
L 416.975226 250.808679 
L 417.891858 250.339437 
L 418.808491 250.339437 
L 420.641756 246.585504 
L 422.475021 243.926469 
L 423.391653 241.736674 
L 424.308285 240.954605 
L 425.224918 240.485363 
L 426.14155 240.485363 
L 427.974815 232.977497 
L 428.891448 230.318461 
L 429.80808 233.133911 
L 430.724713 232.195428 
L 431.641345 232.039014 
L 432.557977 234.228808 
L 433.47461 232.664669 
L 434.391242 231.8826 
L 435.307875 230.005634 
L 436.224507 224.531148 
L 437.14114 225.00039 
L 438.057772 225.156803 
L 438.974405 222.028526 
L 439.891037 225.00039 
L 440.807669 226.251701 
L 441.724302 231.100531 
L 442.640934 234.541636 
L 443.557567 234.69805 
L 444.474199 235.323705 
L 445.390832 234.072394 
L 446.307464 234.228808 
L 447.224097 237.200672 
L 448.140729 236.262189 
L 449.057361 235.792947 
L 449.973994 235.949361 
L 450.890626 235.167291 
L 451.807259 238.608397 
L 452.723891 240.328949 
L 453.640524 241.736674 
L 454.557156 245.021366 
L 455.473789 247.523988 
L 456.390421 248.462471 
L 457.307053 248.775299 
L 458.223686 250.02661 
L 459.140318 251.747162 
L 460.056951 252.842059 
L 460.973583 252.998473 
L 461.890216 252.529232 
L 462.806848 253.311301 
L 463.72348 253.936957 
L 464.640113 253.467715 
L 465.556745 254.249784 
L 466.473378 253.780543 
L 467.39001 254.406198 
L 468.306643 255.501095 
L 469.223275 255.501095 
L 470.139908 255.344681 
L 471.05654 256.439579 
L 471.973172 256.439579 
L 472.889805 257.378062 
L 473.806437 256.752406 
L 474.72307 257.221648 
L 475.639702 257.221648 
L 476.556335 257.378062 
L 477.472967 258.160131 
L 478.3896 257.847303 
L 479.306232 257.847303 
L 481.139497 258.160131 
L 482.056129 258.003717 
L 482.972762 258.003717 
L 483.889394 257.221648 
L 484.806027 257.69089 
L 485.722659 257.534476 
L 486.639292 257.69089 
L 487.555924 257.534476 
L 489.389189 257.534476 
L 490.305821 257.69089 
L 492.139086 258.629373 
L 494.888984 259.098614 
L 495.805616 259.098614 
L 496.722248 259.255028 
L 497.638881 258.942201 
L 498.555513 258.942201 
L 499.472146 258.785787 
L 500.388778 258.785787 
L 500.388778 258.785787 
" style="fill:none;stroke:#00ced1;stroke-linecap:square;stroke-width:3;"/>
   </g>
   <g id="line2d_34">
    <path clip-path="url(#p07731c342b)" d="M 65.905 260.506339 
L 512.305 260.506339 
" style="fill:none;stroke:#808080;stroke-linecap:square;stroke-width:0.8;"/>
   </g>
   <g id="line2d_35">
    <path clip-path="url(#p07731c342b)" d="M 346.394528 270.860625 
L 346.394528 64.292625 
" style="fill:none;stroke:#000000;stroke-dasharray:1.85,0.8;stroke-dashoffset:0;stroke-width:0.5;"/>
   </g>
   <g id="text_21">
    <!-- 972 -->
    <g style="fill:#4169e1;" transform="translate(270.318906 49.677188)scale(0.18 -0.18)">
     <defs>
      <path d="M 641 103 
L 641 966 
Q 928 831 1190 764 
Q 1453 697 1709 697 
Q 2247 697 2547 995 
Q 2847 1294 2900 1881 
Q 2688 1725 2447 1647 
Q 2206 1569 1925 1569 
Q 1209 1569 770 1986 
Q 331 2403 331 3084 
Q 331 3838 820 4291 
Q 1309 4744 2131 4744 
Q 3044 4744 3544 4128 
Q 4044 3513 4044 2388 
Q 4044 1231 3459 570 
Q 2875 -91 1856 -91 
Q 1528 -91 1228 -42 
Q 928 6 641 103 
z
M 2125 2350 
Q 2441 2350 2600 2554 
Q 2759 2759 2759 3169 
Q 2759 3575 2600 3781 
Q 2441 3988 2125 3988 
Q 1809 3988 1650 3781 
Q 1491 3575 1491 3169 
Q 1491 2759 1650 2554 
Q 1809 2350 2125 2350 
z
" id="DejaVuSans-Bold-39" transform="scale(0.015625)"/>
      <path d="M 428 4666 
L 3944 4666 
L 3944 3988 
L 2125 0 
L 953 0 
L 2675 3781 
L 428 3781 
L 428 4666 
z
" id="DejaVuSans-Bold-37" transform="scale(0.015625)"/>
      <path d="M 1844 884 
L 3897 884 
L 3897 0 
L 506 0 
L 506 884 
L 2209 2388 
Q 2438 2594 2547 2791 
Q 2656 2988 2656 3200 
Q 2656 3528 2436 3728 
Q 2216 3928 1850 3928 
Q 1569 3928 1234 3808 
Q 900 3688 519 3450 
L 519 4475 
Q 925 4609 1322 4679 
Q 1719 4750 2100 4750 
Q 2938 4750 3402 4381 
Q 3866 4013 3866 3353 
Q 3866 2972 3669 2642 
Q 3472 2313 2841 1759 
L 1844 884 
z
" id="DejaVuSans-Bold-32" transform="scale(0.015625)"/>
     </defs>
     <use xlink:href="#DejaVuSans-Bold-39"/>
     <use x="69.580078" xlink:href="#DejaVuSans-Bold-37"/>
     <use x="139.160156" xlink:href="#DejaVuSans-Bold-32"/>
    </g>
   </g>
   <g id="legend_1">
    <g id="patch_6">
     <path d="M 418.841875 115.290375 
L 549.245 115.290375 
Q 551.445 115.290375 551.445 113.090375 
L 551.445 39.376625 
Q 551.445 37.176625 549.245 37.176625 
L 418.841875 37.176625 
Q 416.641875 37.176625 416.641875 39.376625 
L 416.641875 113.090375 
Q 416.641875 115.290375 418.841875 115.290375 
z
" style="fill:#ffffff;opacity:0.8;stroke:#cccccc;stroke-linejoin:miter;"/>
    </g>
    <g id="text_22">
     <!-- Cas positifs par semaine, -->
     <g transform="translate(421.041875 49.175062)scale(0.1 -0.1)">
      <defs>
       <path d="M 4122 4306 
L 4122 3641 
Q 3803 3938 3442 4084 
Q 3081 4231 2675 4231 
Q 1875 4231 1450 3742 
Q 1025 3253 1025 2328 
Q 1025 1406 1450 917 
Q 1875 428 2675 428 
Q 3081 428 3442 575 
Q 3803 722 4122 1019 
L 4122 359 
Q 3791 134 3420 21 
Q 3050 -91 2638 -91 
Q 1578 -91 968 557 
Q 359 1206 359 2328 
Q 359 3453 968 4101 
Q 1578 4750 2638 4750 
Q 3056 4750 3426 4639 
Q 3797 4528 4122 4306 
z
" id="DejaVuSans-43" transform="scale(0.015625)"/>
       <path id="DejaVuSans-20" transform="scale(0.015625)"/>
       <path d="M 750 794 
L 1409 794 
L 1409 256 
L 897 -744 
L 494 -744 
L 750 256 
L 750 794 
z
" id="DejaVuSans-2c" transform="scale(0.015625)"/>
      </defs>
      <use xlink:href="#DejaVuSans-43"/>
      <use x="69.824219" xlink:href="#DejaVuSans-61"/>
      <use x="131.103516" xlink:href="#DejaVuSans-73"/>
      <use x="183.203125" xlink:href="#DejaVuSans-20"/>
      <use x="214.990234" xlink:href="#DejaVuSans-70"/>
      <use x="278.466797" xlink:href="#DejaVuSans-6f"/>
      <use x="339.648438" xlink:href="#DejaVuSans-73"/>
      <use x="391.748047" xlink:href="#DejaVuSans-69"/>
      <use x="419.53125" xlink:href="#DejaVuSans-74"/>
      <use x="458.740234" xlink:href="#DejaVuSans-69"/>
      <use x="486.523438" xlink:href="#DejaVuSans-66"/>
      <use x="521.728516" xlink:href="#DejaVuSans-73"/>
      <use x="573.828125" xlink:href="#DejaVuSans-20"/>
      <use x="605.615234" xlink:href="#DejaVuSans-70"/>
      <use x="669.091797" xlink:href="#DejaVuSans-61"/>
      <use x="730.371094" xlink:href="#DejaVuSans-72"/>
      <use x="771.484375" xlink:href="#DejaVuSans-20"/>
      <use x="803.271484" xlink:href="#DejaVuSans-73"/>
      <use x="855.371094" xlink:href="#DejaVuSans-65"/>
      <use x="916.894531" xlink:href="#DejaVuSans-6d"/>
      <use x="1014.306641" xlink:href="#DejaVuSans-61"/>
      <use x="1075.585938" xlink:href="#DejaVuSans-69"/>
      <use x="1103.369141" xlink:href="#DejaVuSans-6e"/>
      <use x="1166.748047" xlink:href="#DejaVuSans-65"/>
      <use x="1228.271484" xlink:href="#DejaVuSans-2c"/>
     </g>
     <!-- pour 100 000 habitants -->
     <g transform="translate(425.177031 60.372875)scale(0.1 -0.1)">
      <defs>
       <path d="M 3513 2113 
L 3513 0 
L 2938 0 
L 2938 2094 
Q 2938 2591 2744 2837 
Q 2550 3084 2163 3084 
Q 1697 3084 1428 2787 
Q 1159 2491 1159 1978 
L 1159 0 
L 581 0 
L 581 4863 
L 1159 4863 
L 1159 2956 
Q 1366 3272 1645 3428 
Q 1925 3584 2291 3584 
Q 2894 3584 3203 3211 
Q 3513 2838 3513 2113 
z
" id="DejaVuSans-68" transform="scale(0.015625)"/>
       <path d="M 3116 1747 
Q 3116 2381 2855 2742 
Q 2594 3103 2138 3103 
Q 1681 3103 1420 2742 
Q 1159 2381 1159 1747 
Q 1159 1113 1420 752 
Q 1681 391 2138 391 
Q 2594 391 2855 752 
Q 3116 1113 3116 1747 
z
M 1159 2969 
Q 1341 3281 1617 3432 
Q 1894 3584 2278 3584 
Q 2916 3584 3314 3078 
Q 3713 2572 3713 1747 
Q 3713 922 3314 415 
Q 2916 -91 2278 -91 
Q 1894 -91 1617 61 
Q 1341 213 1159 525 
L 1159 0 
L 581 0 
L 581 4863 
L 1159 4863 
L 1159 2969 
z
" id="DejaVuSans-62" transform="scale(0.015625)"/>
      </defs>
      <use xlink:href="#DejaVuSans-70"/>
      <use x="63.476562" xlink:href="#DejaVuSans-6f"/>
      <use x="124.658203" xlink:href="#DejaVuSans-75"/>
      <use x="188.037109" xlink:href="#DejaVuSans-72"/>
      <use x="229.150391" xlink:href="#DejaVuSans-20"/>
      <use x="260.9375" xlink:href="#DejaVuSans-31"/>
      <use x="324.560547" xlink:href="#DejaVuSans-30"/>
      <use x="388.183594" xlink:href="#DejaVuSans-30"/>
      <use x="451.806641" xlink:href="#DejaVuSans-20"/>
      <use x="483.59375" xlink:href="#DejaVuSans-30"/>
      <use x="547.216797" xlink:href="#DejaVuSans-30"/>
      <use x="610.839844" xlink:href="#DejaVuSans-30"/>
      <use x="674.462891" xlink:href="#DejaVuSans-20"/>
      <use x="706.25" xlink:href="#DejaVuSans-68"/>
      <use x="769.628906" xlink:href="#DejaVuSans-61"/>
      <use x="830.908203" xlink:href="#DejaVuSans-62"/>
      <use x="894.384766" xlink:href="#DejaVuSans-69"/>
      <use x="922.167969" xlink:href="#DejaVuSans-74"/>
      <use x="961.376953" xlink:href="#DejaVuSans-61"/>
      <use x="1022.65625" xlink:href="#DejaVuSans-6e"/>
      <use x="1086.035156" xlink:href="#DejaVuSans-74"/>
      <use x="1125.244141" xlink:href="#DejaVuSans-73"/>
     </g>
    </g>
    <g id="line2d_36">
     <path d="M 438.180313 72.460844 
L 460.180313 72.460844 
" style="fill:none;stroke:#b22222;stroke-linecap:square;"/>
    </g>
    <g id="line2d_37"/>
    <g id="text_23">
     <!-- 0-29 ans -->
     <g transform="translate(465.680313 76.310844)scale(0.11 -0.11)">
      <defs>
       <path d="M 313 2009 
L 1997 2009 
L 1997 1497 
L 313 1497 
L 313 2009 
z
" id="DejaVuSans-2d" transform="scale(0.015625)"/>
       <path d="M 1228 531 
L 3431 531 
L 3431 0 
L 469 0 
L 469 531 
Q 828 903 1448 1529 
Q 2069 2156 2228 2338 
Q 2531 2678 2651 2914 
Q 2772 3150 2772 3378 
Q 2772 3750 2511 3984 
Q 2250 4219 1831 4219 
Q 1534 4219 1204 4116 
Q 875 4013 500 3803 
L 500 4441 
Q 881 4594 1212 4672 
Q 1544 4750 1819 4750 
Q 2544 4750 2975 4387 
Q 3406 4025 3406 3419 
Q 3406 3131 3298 2873 
Q 3191 2616 2906 2266 
Q 2828 2175 2409 1742 
Q 1991 1309 1228 531 
z
" id="DejaVuSans-32" transform="scale(0.015625)"/>
       <path d="M 703 97 
L 703 672 
Q 941 559 1184 500 
Q 1428 441 1663 441 
Q 2288 441 2617 861 
Q 2947 1281 2994 2138 
Q 2813 1869 2534 1725 
Q 2256 1581 1919 1581 
Q 1219 1581 811 2004 
Q 403 2428 403 3163 
Q 403 3881 828 4315 
Q 1253 4750 1959 4750 
Q 2769 4750 3195 4129 
Q 3622 3509 3622 2328 
Q 3622 1225 3098 567 
Q 2575 -91 1691 -91 
Q 1453 -91 1209 -44 
Q 966 3 703 97 
z
M 1959 2075 
Q 2384 2075 2632 2365 
Q 2881 2656 2881 3163 
Q 2881 3666 2632 3958 
Q 2384 4250 1959 4250 
Q 1534 4250 1286 3958 
Q 1038 3666 1038 3163 
Q 1038 2656 1286 2365 
Q 1534 2075 1959 2075 
z
" id="DejaVuSans-39" transform="scale(0.015625)"/>
      </defs>
      <use xlink:href="#DejaVuSans-30"/>
      <use x="63.623047" xlink:href="#DejaVuSans-2d"/>
      <use x="99.707031" xlink:href="#DejaVuSans-32"/>
      <use x="163.330078" xlink:href="#DejaVuSans-39"/>
      <use x="226.953125" xlink:href="#DejaVuSans-20"/>
      <use x="258.740234" xlink:href="#DejaVuSans-61"/>
      <use x="320.019531" xlink:href="#DejaVuSans-6e"/>
      <use x="383.398438" xlink:href="#DejaVuSans-73"/>
     </g>
    </g>
    <g id="line2d_38">
     <path d="M 438.180313 88.606781 
L 460.180313 88.606781 
" style="fill:none;stroke:#000000;stroke-linecap:square;stroke-width:1.5;"/>
    </g>
    <g id="line2d_39"/>
    <g id="text_24">
     <!-- 30-59 ans -->
     <g transform="translate(465.680313 92.456781)scale(0.11 -0.11)">
      <defs>
       <path d="M 2597 2516 
Q 3050 2419 3304 2112 
Q 3559 1806 3559 1356 
Q 3559 666 3084 287 
Q 2609 -91 1734 -91 
Q 1441 -91 1130 -33 
Q 819 25 488 141 
L 488 750 
Q 750 597 1062 519 
Q 1375 441 1716 441 
Q 2309 441 2620 675 
Q 2931 909 2931 1356 
Q 2931 1769 2642 2001 
Q 2353 2234 1838 2234 
L 1294 2234 
L 1294 2753 
L 1863 2753 
Q 2328 2753 2575 2939 
Q 2822 3125 2822 3475 
Q 2822 3834 2567 4026 
Q 2313 4219 1838 4219 
Q 1578 4219 1281 4162 
Q 984 4106 628 3988 
L 628 4550 
Q 988 4650 1302 4700 
Q 1616 4750 1894 4750 
Q 2613 4750 3031 4423 
Q 3450 4097 3450 3541 
Q 3450 3153 3228 2886 
Q 3006 2619 2597 2516 
z
" id="DejaVuSans-33" transform="scale(0.015625)"/>
      </defs>
      <use xlink:href="#DejaVuSans-33"/>
      <use x="63.623047" xlink:href="#DejaVuSans-30"/>
      <use x="127.246094" xlink:href="#DejaVuSans-2d"/>
      <use x="163.330078" xlink:href="#DejaVuSans-35"/>
      <use x="226.953125" xlink:href="#DejaVuSans-39"/>
      <use x="290.576172" xlink:href="#DejaVuSans-20"/>
      <use x="322.363281" xlink:href="#DejaVuSans-61"/>
      <use x="383.642578" xlink:href="#DejaVuSans-6e"/>
      <use x="447.021484" xlink:href="#DejaVuSans-73"/>
     </g>
    </g>
    <g id="line2d_40">
     <path d="M 438.180313 104.752719 
L 460.180313 104.752719 
" style="fill:none;stroke:#00ced1;stroke-linecap:square;stroke-width:3;"/>
    </g>
    <g id="line2d_41"/>
    <g id="text_25">
     <!-- 60 ans et + -->
     <g transform="translate(465.680313 108.602719)scale(0.11 -0.11)">
      <defs>
       <path d="M 2113 2584 
Q 1688 2584 1439 2293 
Q 1191 2003 1191 1497 
Q 1191 994 1439 701 
Q 1688 409 2113 409 
Q 2538 409 2786 701 
Q 3034 994 3034 1497 
Q 3034 2003 2786 2293 
Q 2538 2584 2113 2584 
z
M 3366 4563 
L 3366 3988 
Q 3128 4100 2886 4159 
Q 2644 4219 2406 4219 
Q 1781 4219 1451 3797 
Q 1122 3375 1075 2522 
Q 1259 2794 1537 2939 
Q 1816 3084 2150 3084 
Q 2853 3084 3261 2657 
Q 3669 2231 3669 1497 
Q 3669 778 3244 343 
Q 2819 -91 2113 -91 
Q 1303 -91 875 529 
Q 447 1150 447 2328 
Q 447 3434 972 4092 
Q 1497 4750 2381 4750 
Q 2619 4750 2861 4703 
Q 3103 4656 3366 4563 
z
" id="DejaVuSans-36" transform="scale(0.015625)"/>
       <path d="M 2944 4013 
L 2944 2272 
L 4684 2272 
L 4684 1741 
L 2944 1741 
L 2944 0 
L 2419 0 
L 2419 1741 
L 678 1741 
L 678 2272 
L 2419 2272 
L 2419 4013 
L 2944 4013 
z
" id="DejaVuSans-2b" transform="scale(0.015625)"/>
      </defs>
      <use xlink:href="#DejaVuSans-36"/>
      <use x="63.623047" xlink:href="#DejaVuSans-30"/>
      <use x="127.246094" xlink:href="#DejaVuSans-20"/>
      <use x="159.033203" xlink:href="#DejaVuSans-61"/>
      <use x="220.3125" xlink:href="#DejaVuSans-6e"/>
      <use x="283.691406" xlink:href="#DejaVuSans-73"/>
      <use x="335.791016" xlink:href="#DejaVuSans-20"/>
      <use x="367.578125" xlink:href="#DejaVuSans-65"/>
      <use x="429.101562" xlink:href="#DejaVuSans-74"/>
      <use x="468.310547" xlink:href="#DejaVuSans-20"/>
      <use x="500.097656" xlink:href="#DejaVuSans-2b"/>
     </g>
    </g>
   </g>
  </g>
 </g>
 <defs>
  <clipPath id="p07731c342b">
   <rect height="217.44" width="446.4" x="65.905" y="53.420625"/>
  </clipPath>
 </defs>
</svg>
