<?xml version="1.0" encoding="utf-8" standalone="no"?>
<!DOCTYPE svg PUBLIC "-//W3C//DTD SVG 1.1//EN"
  "http://www.w3.org/Graphics/SVG/1.1/DTD/svg11.dtd">
<svg height="336.049967pt" version="1.1" viewBox="0 0 587.445 336.049967" width="587.445pt" xmlns="http://www.w3.org/2000/svg" xmlns:xlink="http://www.w3.org/1999/xlink">
 <metadata>
  <rdf:RDF xmlns:cc="http://creativecommons.org/ns#" xmlns:dc="http://purl.org/dc/elements/1.1/" xmlns:rdf="http://www.w3.org/1999/02/22-rdf-syntax-ns#">
   <cc:Work>
    <dc:type rdf:resource="http://purl.org/dc/dcmitype/StillImage"/>
    <dc:date>2021-06-25T20:19:52.149434</dc:date>
    <dc:format>image/svg+xml</dc:format>
    <dc:creator>
     <cc:Agent>
      <dc:title>Matplotlib v3.4.1, https://matplotlib.org/</dc:title>
     </cc:Agent>
    </dc:creator>
   </cc:Work>
  </rdf:RDF>
 </metadata>
 <defs>
  <style type="text/css">*{stroke-linecap:butt;stroke-linejoin:round;}</style>
 </defs>
 <g id="figure_1">
  <g id="patch_1">
   <path d="M 0 336.049967 
L 587.445 336.049967 
L 587.445 0 
L 0 0 
z
" style="fill:#ffffff;"/>
  </g>
  <g id="axes_1">
   <g id="patch_2">
    <path d="M 65.905 270.860625 
L 512.305 270.860625 
L 512.305 53.420625 
L 65.905 53.420625 
z
" style="fill:none;opacity:0;"/>
   </g>
   <g id="patch_3">
    <path clip-path="url(#p970614bb19)" d="M 80.571119 270.860625 
L 80.571119 64.292625 
L 130.069271 64.292625 
L 130.069271 270.860625 
z
" style="fill:#808080;opacity:0.15;stroke:#808080;stroke-linejoin:miter;"/>
   </g>
   <g id="patch_4">
    <path clip-path="url(#p970614bb19)" d="M 288.646684 270.860625 
L 288.646684 64.292625 
L 330.811776 64.292625 
L 330.811776 270.860625 
z
" style="fill:#808080;opacity:0.15;stroke:#808080;stroke-linejoin:miter;"/>
   </g>
   <g id="patch_5">
    <path clip-path="url(#p970614bb19)" d="M 432.557977 270.860625 
L 432.557977 64.292625 
L 457.307053 64.292625 
L 457.307053 270.860625 
z
" style="fill:#808080;opacity:0.15;stroke:#808080;stroke-linejoin:miter;"/>
   </g>
   <g id="matplotlib.axis_1">
    <g id="xtick_1">
     <g id="line2d_1">
      <defs>
       <path d="M 0 0 
L 0 3.5 
" id="mcc4a1813ba" style="stroke:#000000;stroke-width:0.8;"/>
      </defs>
      <g>
       <use style="stroke:#000000;stroke-width:0.8;" x="65.905" xlink:href="#mcc4a1813ba" y="270.860625"/>
      </g>
     </g>
     <g id="text_1">
      <!-- mars -->
      <g transform="translate(54.710395 298.726462)rotate(-45)scale(0.09 -0.09)">
       <defs>
        <path d="M 3328 2828 
Q 3544 3216 3844 3400 
Q 4144 3584 4550 3584 
Q 5097 3584 5394 3201 
Q 5691 2819 5691 2113 
L 5691 0 
L 5113 0 
L 5113 2094 
Q 5113 2597 4934 2840 
Q 4756 3084 4391 3084 
Q 3944 3084 3684 2787 
Q 3425 2491 3425 1978 
L 3425 0 
L 2847 0 
L 2847 2094 
Q 2847 2600 2669 2842 
Q 2491 3084 2119 3084 
Q 1678 3084 1418 2786 
Q 1159 2488 1159 1978 
L 1159 0 
L 581 0 
L 581 3500 
L 1159 3500 
L 1159 2956 
Q 1356 3278 1631 3431 
Q 1906 3584 2284 3584 
Q 2666 3584 2933 3390 
Q 3200 3197 3328 2828 
z
" id="DejaVuSans-6d" transform="scale(0.015625)"/>
        <path d="M 2194 1759 
Q 1497 1759 1228 1600 
Q 959 1441 959 1056 
Q 959 750 1161 570 
Q 1363 391 1709 391 
Q 2188 391 2477 730 
Q 2766 1069 2766 1631 
L 2766 1759 
L 2194 1759 
z
M 3341 1997 
L 3341 0 
L 2766 0 
L 2766 531 
Q 2569 213 2275 61 
Q 1981 -91 1556 -91 
Q 1019 -91 701 211 
Q 384 513 384 1019 
Q 384 1609 779 1909 
Q 1175 2209 1959 2209 
L 2766 2209 
L 2766 2266 
Q 2766 2663 2505 2880 
Q 2244 3097 1772 3097 
Q 1472 3097 1187 3025 
Q 903 2953 641 2809 
L 641 3341 
Q 956 3463 1253 3523 
Q 1550 3584 1831 3584 
Q 2591 3584 2966 3190 
Q 3341 2797 3341 1997 
z
" id="DejaVuSans-61" transform="scale(0.015625)"/>
        <path d="M 2631 2963 
Q 2534 3019 2420 3045 
Q 2306 3072 2169 3072 
Q 1681 3072 1420 2755 
Q 1159 2438 1159 1844 
L 1159 0 
L 581 0 
L 581 3500 
L 1159 3500 
L 1159 2956 
Q 1341 3275 1631 3429 
Q 1922 3584 2338 3584 
Q 2397 3584 2469 3576 
Q 2541 3569 2628 3553 
L 2631 2963 
z
" id="DejaVuSans-72" transform="scale(0.015625)"/>
        <path d="M 2834 3397 
L 2834 2853 
Q 2591 2978 2328 3040 
Q 2066 3103 1784 3103 
Q 1356 3103 1142 2972 
Q 928 2841 928 2578 
Q 928 2378 1081 2264 
Q 1234 2150 1697 2047 
L 1894 2003 
Q 2506 1872 2764 1633 
Q 3022 1394 3022 966 
Q 3022 478 2636 193 
Q 2250 -91 1575 -91 
Q 1294 -91 989 -36 
Q 684 19 347 128 
L 347 722 
Q 666 556 975 473 
Q 1284 391 1588 391 
Q 1994 391 2212 530 
Q 2431 669 2431 922 
Q 2431 1156 2273 1281 
Q 2116 1406 1581 1522 
L 1381 1569 
Q 847 1681 609 1914 
Q 372 2147 372 2553 
Q 372 3047 722 3315 
Q 1072 3584 1716 3584 
Q 2034 3584 2315 3537 
Q 2597 3491 2834 3397 
z
" id="DejaVuSans-73" transform="scale(0.015625)"/>
       </defs>
       <use xlink:href="#DejaVuSans-6d"/>
       <use x="97.412109" xlink:href="#DejaVuSans-61"/>
       <use x="158.691406" xlink:href="#DejaVuSans-72"/>
       <use x="199.804688" xlink:href="#DejaVuSans-73"/>
      </g>
     </g>
    </g>
    <g id="xtick_2">
     <g id="line2d_2">
      <g>
       <use style="stroke:#000000;stroke-width:0.8;" x="94.320606" xlink:href="#mcc4a1813ba" y="270.860625"/>
      </g>
     </g>
     <g id="text_2">
      <!-- avril -->
      <g transform="translate(85.337477 296.514986)rotate(-45)scale(0.09 -0.09)">
       <defs>
        <path d="M 191 3500 
L 800 3500 
L 1894 563 
L 2988 3500 
L 3597 3500 
L 2284 0 
L 1503 0 
L 191 3500 
z
" id="DejaVuSans-76" transform="scale(0.015625)"/>
        <path d="M 603 3500 
L 1178 3500 
L 1178 0 
L 603 0 
L 603 3500 
z
M 603 4863 
L 1178 4863 
L 1178 4134 
L 603 4134 
L 603 4863 
z
" id="DejaVuSans-69" transform="scale(0.015625)"/>
        <path d="M 603 4863 
L 1178 4863 
L 1178 0 
L 603 0 
L 603 4863 
z
" id="DejaVuSans-6c" transform="scale(0.015625)"/>
       </defs>
       <use xlink:href="#DejaVuSans-61"/>
       <use x="61.279297" xlink:href="#DejaVuSans-76"/>
       <use x="120.458984" xlink:href="#DejaVuSans-72"/>
       <use x="161.572266" xlink:href="#DejaVuSans-69"/>
       <use x="189.355469" xlink:href="#DejaVuSans-6c"/>
      </g>
     </g>
    </g>
    <g id="xtick_3">
     <g id="line2d_3">
      <g>
       <use style="stroke:#000000;stroke-width:0.8;" x="121.819579" xlink:href="#mcc4a1813ba" y="270.860625"/>
      </g>
     </g>
     <g id="text_3">
      <!-- mai -->
      <g transform="translate(114.788396 294.56304)rotate(-45)scale(0.09 -0.09)">
       <use xlink:href="#DejaVuSans-6d"/>
       <use x="97.412109" xlink:href="#DejaVuSans-61"/>
       <use x="158.691406" xlink:href="#DejaVuSans-69"/>
      </g>
     </g>
    </g>
    <g id="xtick_4">
     <g id="line2d_4">
      <g>
       <use style="stroke:#000000;stroke-width:0.8;" x="150.235185" xlink:href="#mcc4a1813ba" y="270.860625"/>
      </g>
     </g>
     <g id="text_4">
      <!-- juin -->
      <g transform="translate(143.468504 294.298537)rotate(-45)scale(0.09 -0.09)">
       <defs>
        <path d="M 603 3500 
L 1178 3500 
L 1178 -63 
Q 1178 -731 923 -1031 
Q 669 -1331 103 -1331 
L -116 -1331 
L -116 -844 
L 38 -844 
Q 366 -844 484 -692 
Q 603 -541 603 -63 
L 603 3500 
z
M 603 4863 
L 1178 4863 
L 1178 4134 
L 603 4134 
L 603 4863 
z
" id="DejaVuSans-6a" transform="scale(0.015625)"/>
        <path d="M 544 1381 
L 544 3500 
L 1119 3500 
L 1119 1403 
Q 1119 906 1312 657 
Q 1506 409 1894 409 
Q 2359 409 2629 706 
Q 2900 1003 2900 1516 
L 2900 3500 
L 3475 3500 
L 3475 0 
L 2900 0 
L 2900 538 
Q 2691 219 2414 64 
Q 2138 -91 1772 -91 
Q 1169 -91 856 284 
Q 544 659 544 1381 
z
M 1991 3584 
L 1991 3584 
z
" id="DejaVuSans-75" transform="scale(0.015625)"/>
        <path d="M 3513 2113 
L 3513 0 
L 2938 0 
L 2938 2094 
Q 2938 2591 2744 2837 
Q 2550 3084 2163 3084 
Q 1697 3084 1428 2787 
Q 1159 2491 1159 1978 
L 1159 0 
L 581 0 
L 581 3500 
L 1159 3500 
L 1159 2956 
Q 1366 3272 1645 3428 
Q 1925 3584 2291 3584 
Q 2894 3584 3203 3211 
Q 3513 2838 3513 2113 
z
" id="DejaVuSans-6e" transform="scale(0.015625)"/>
       </defs>
       <use xlink:href="#DejaVuSans-6a"/>
       <use x="27.783203" xlink:href="#DejaVuSans-75"/>
       <use x="91.162109" xlink:href="#DejaVuSans-69"/>
       <use x="118.945312" xlink:href="#DejaVuSans-6e"/>
      </g>
     </g>
    </g>
    <g id="xtick_5">
     <g id="line2d_5">
      <g>
       <use style="stroke:#000000;stroke-width:0.8;" x="177.734158" xlink:href="#mcc4a1813ba" y="270.860625"/>
      </g>
     </g>
     <g id="text_5">
      <!-- juil. -->
      <g transform="translate(171.210104 294.055911)rotate(-45)scale(0.09 -0.09)">
       <defs>
        <path d="M 684 794 
L 1344 794 
L 1344 0 
L 684 0 
L 684 794 
z
" id="DejaVuSans-2e" transform="scale(0.015625)"/>
       </defs>
       <use xlink:href="#DejaVuSans-6a"/>
       <use x="27.783203" xlink:href="#DejaVuSans-75"/>
       <use x="91.162109" xlink:href="#DejaVuSans-69"/>
       <use x="118.945312" xlink:href="#DejaVuSans-6c"/>
       <use x="146.728516" xlink:href="#DejaVuSans-2e"/>
      </g>
     </g>
    </g>
    <g id="xtick_6">
     <g id="line2d_6">
      <g>
       <use style="stroke:#000000;stroke-width:0.8;" x="206.149764" xlink:href="#mcc4a1813ba" y="270.860625"/>
      </g>
     </g>
     <g id="text_6">
      <!-- août -->
      <g transform="translate(196.663484 297.018136)rotate(-45)scale(0.09 -0.09)">
       <defs>
        <path d="M 1959 3097 
Q 1497 3097 1228 2736 
Q 959 2375 959 1747 
Q 959 1119 1226 758 
Q 1494 397 1959 397 
Q 2419 397 2687 759 
Q 2956 1122 2956 1747 
Q 2956 2369 2687 2733 
Q 2419 3097 1959 3097 
z
M 1959 3584 
Q 2709 3584 3137 3096 
Q 3566 2609 3566 1747 
Q 3566 888 3137 398 
Q 2709 -91 1959 -91 
Q 1206 -91 779 398 
Q 353 888 353 1747 
Q 353 2609 779 3096 
Q 1206 3584 1959 3584 
z
" id="DejaVuSans-6f" transform="scale(0.015625)"/>
        <path d="M 544 1381 
L 544 3500 
L 1119 3500 
L 1119 1403 
Q 1119 906 1312 657 
Q 1506 409 1894 409 
Q 2359 409 2629 706 
Q 2900 1003 2900 1516 
L 2900 3500 
L 3475 3500 
L 3475 0 
L 2900 0 
L 2900 538 
Q 2691 219 2414 64 
Q 2138 -91 1772 -91 
Q 1169 -91 856 284 
Q 544 659 544 1381 
z
M 1991 3584 
L 1991 3584 
z
M 1753 5119 
L 2215 5119 
L 2981 3944 
L 2547 3944 
L 1984 4709 
L 1422 3944 
L 987 3944 
L 1753 5119 
z
" id="DejaVuSans-fb" transform="scale(0.015625)"/>
        <path d="M 1172 4494 
L 1172 3500 
L 2356 3500 
L 2356 3053 
L 1172 3053 
L 1172 1153 
Q 1172 725 1289 603 
Q 1406 481 1766 481 
L 2356 481 
L 2356 0 
L 1766 0 
Q 1100 0 847 248 
Q 594 497 594 1153 
L 594 3053 
L 172 3053 
L 172 3500 
L 594 3500 
L 594 4494 
L 1172 4494 
z
" id="DejaVuSans-74" transform="scale(0.015625)"/>
       </defs>
       <use xlink:href="#DejaVuSans-61"/>
       <use x="61.279297" xlink:href="#DejaVuSans-6f"/>
       <use x="122.460938" xlink:href="#DejaVuSans-fb"/>
       <use x="185.839844" xlink:href="#DejaVuSans-74"/>
      </g>
     </g>
    </g>
    <g id="xtick_7">
     <g id="line2d_7">
      <g>
       <use style="stroke:#000000;stroke-width:0.8;" x="234.56537" xlink:href="#mcc4a1813ba" y="270.860625"/>
      </g>
     </g>
     <g id="text_7">
      <!-- sept. -->
      <g transform="translate(223.612396 298.484831)rotate(-45)scale(0.09 -0.09)">
       <defs>
        <path d="M 3597 1894 
L 3597 1613 
L 953 1613 
Q 991 1019 1311 708 
Q 1631 397 2203 397 
Q 2534 397 2845 478 
Q 3156 559 3463 722 
L 3463 178 
Q 3153 47 2828 -22 
Q 2503 -91 2169 -91 
Q 1331 -91 842 396 
Q 353 884 353 1716 
Q 353 2575 817 3079 
Q 1281 3584 2069 3584 
Q 2775 3584 3186 3129 
Q 3597 2675 3597 1894 
z
M 3022 2063 
Q 3016 2534 2758 2815 
Q 2500 3097 2075 3097 
Q 1594 3097 1305 2825 
Q 1016 2553 972 2059 
L 3022 2063 
z
" id="DejaVuSans-65" transform="scale(0.015625)"/>
        <path d="M 1159 525 
L 1159 -1331 
L 581 -1331 
L 581 3500 
L 1159 3500 
L 1159 2969 
Q 1341 3281 1617 3432 
Q 1894 3584 2278 3584 
Q 2916 3584 3314 3078 
Q 3713 2572 3713 1747 
Q 3713 922 3314 415 
Q 2916 -91 2278 -91 
Q 1894 -91 1617 61 
Q 1341 213 1159 525 
z
M 3116 1747 
Q 3116 2381 2855 2742 
Q 2594 3103 2138 3103 
Q 1681 3103 1420 2742 
Q 1159 2381 1159 1747 
Q 1159 1113 1420 752 
Q 1681 391 2138 391 
Q 2594 391 2855 752 
Q 3116 1113 3116 1747 
z
" id="DejaVuSans-70" transform="scale(0.015625)"/>
       </defs>
       <use xlink:href="#DejaVuSans-73"/>
       <use x="52.099609" xlink:href="#DejaVuSans-65"/>
       <use x="113.623047" xlink:href="#DejaVuSans-70"/>
       <use x="177.099609" xlink:href="#DejaVuSans-74"/>
       <use x="216.308594" xlink:href="#DejaVuSans-2e"/>
      </g>
     </g>
    </g>
    <g id="xtick_8">
     <g id="line2d_8">
      <g>
       <use style="stroke:#000000;stroke-width:0.8;" x="262.064343" xlink:href="#mcc4a1813ba" y="270.860625"/>
      </g>
     </g>
     <g id="text_8">
      <!-- oct. -->
      <g transform="translate(254.989408 294.606792)rotate(-45)scale(0.09 -0.09)">
       <defs>
        <path d="M 3122 3366 
L 3122 2828 
Q 2878 2963 2633 3030 
Q 2388 3097 2138 3097 
Q 1578 3097 1268 2742 
Q 959 2388 959 1747 
Q 959 1106 1268 751 
Q 1578 397 2138 397 
Q 2388 397 2633 464 
Q 2878 531 3122 666 
L 3122 134 
Q 2881 22 2623 -34 
Q 2366 -91 2075 -91 
Q 1284 -91 818 406 
Q 353 903 353 1747 
Q 353 2603 823 3093 
Q 1294 3584 2113 3584 
Q 2378 3584 2631 3529 
Q 2884 3475 3122 3366 
z
" id="DejaVuSans-63" transform="scale(0.015625)"/>
       </defs>
       <use xlink:href="#DejaVuSans-6f"/>
       <use x="61.181641" xlink:href="#DejaVuSans-63"/>
       <use x="116.162109" xlink:href="#DejaVuSans-74"/>
       <use x="155.371094" xlink:href="#DejaVuSans-2e"/>
      </g>
     </g>
    </g>
    <g id="xtick_9">
     <g id="line2d_9">
      <g>
       <use style="stroke:#000000;stroke-width:0.8;" x="290.479949" xlink:href="#mcc4a1813ba" y="270.860625"/>
      </g>
     </g>
     <g id="text_9">
      <!-- nov. -->
      <g transform="translate(282.092447 295.919359)rotate(-45)scale(0.09 -0.09)">
       <use xlink:href="#DejaVuSans-6e"/>
       <use x="63.378906" xlink:href="#DejaVuSans-6f"/>
       <use x="124.560547" xlink:href="#DejaVuSans-76"/>
       <use x="175.990234" xlink:href="#DejaVuSans-2e"/>
      </g>
     </g>
    </g>
    <g id="xtick_10">
     <g id="line2d_10">
      <g>
       <use style="stroke:#000000;stroke-width:0.8;" x="317.978922" xlink:href="#mcc4a1813ba" y="270.860625"/>
      </g>
     </g>
     <g id="text_10">
      <!-- déc. -->
      <g transform="translate(309.336862 296.173917)rotate(-45)scale(0.09 -0.09)">
       <defs>
        <path d="M 2906 2969 
L 2906 4863 
L 3481 4863 
L 3481 0 
L 2906 0 
L 2906 525 
Q 2725 213 2448 61 
Q 2172 -91 1784 -91 
Q 1150 -91 751 415 
Q 353 922 353 1747 
Q 353 2572 751 3078 
Q 1150 3584 1784 3584 
Q 2172 3584 2448 3432 
Q 2725 3281 2906 2969 
z
M 947 1747 
Q 947 1113 1208 752 
Q 1469 391 1925 391 
Q 2381 391 2643 752 
Q 2906 1113 2906 1747 
Q 2906 2381 2643 2742 
Q 2381 3103 1925 3103 
Q 1469 3103 1208 2742 
Q 947 2381 947 1747 
z
" id="DejaVuSans-64" transform="scale(0.015625)"/>
        <path d="M 3597 1894 
L 3597 1613 
L 953 1613 
Q 991 1019 1311 708 
Q 1631 397 2203 397 
Q 2534 397 2845 478 
Q 3156 559 3463 722 
L 3463 178 
Q 3153 47 2828 -22 
Q 2503 -91 2169 -91 
Q 1331 -91 842 396 
Q 353 884 353 1716 
Q 353 2575 817 3079 
Q 1281 3584 2069 3584 
Q 2775 3584 3186 3129 
Q 3597 2675 3597 1894 
z
M 3022 2063 
Q 3016 2534 2758 2815 
Q 2500 3097 2075 3097 
Q 1594 3097 1305 2825 
Q 1016 2553 972 2059 
L 3022 2063 
z
M 2466 5119 
L 3088 5119 
L 2070 3944 
L 1591 3944 
L 2466 5119 
z
" id="DejaVuSans-e9" transform="scale(0.015625)"/>
       </defs>
       <use xlink:href="#DejaVuSans-64"/>
       <use x="63.476562" xlink:href="#DejaVuSans-e9"/>
       <use x="125" xlink:href="#DejaVuSans-63"/>
       <use x="179.980469" xlink:href="#DejaVuSans-2e"/>
      </g>
     </g>
    </g>
    <g id="xtick_11">
     <g id="line2d_11">
      <g>
       <use style="stroke:#000000;stroke-width:0.8;" x="346.394528" xlink:href="#mcc4a1813ba" y="270.860625"/>
      </g>
     </g>
     <g id="text_11">
      <!-- janv. -->
      <g transform="translate(336.233072 297.693313)rotate(-45)scale(0.09 -0.09)">
       <use xlink:href="#DejaVuSans-6a"/>
       <use x="27.783203" xlink:href="#DejaVuSans-61"/>
       <use x="89.0625" xlink:href="#DejaVuSans-6e"/>
       <use x="152.441406" xlink:href="#DejaVuSans-76"/>
       <use x="203.871094" xlink:href="#DejaVuSans-2e"/>
      </g>
     </g>
    </g>
    <g id="xtick_12">
     <g id="line2d_12">
      <g>
       <use style="stroke:#000000;stroke-width:0.8;" x="374.810133" xlink:href="#mcc4a1813ba" y="270.860625"/>
      </g>
     </g>
     <g id="text_12">
      <!-- fév. -->
      <g transform="translate(368.193603 294.148388)rotate(-45)scale(0.09 -0.09)">
       <defs>
        <path d="M 2375 4863 
L 2375 4384 
L 1825 4384 
Q 1516 4384 1395 4259 
Q 1275 4134 1275 3809 
L 1275 3500 
L 2222 3500 
L 2222 3053 
L 1275 3053 
L 1275 0 
L 697 0 
L 697 3053 
L 147 3053 
L 147 3500 
L 697 3500 
L 697 3744 
Q 697 4328 969 4595 
Q 1241 4863 1831 4863 
L 2375 4863 
z
" id="DejaVuSans-66" transform="scale(0.015625)"/>
       </defs>
       <use xlink:href="#DejaVuSans-66"/>
       <use x="35.205078" xlink:href="#DejaVuSans-e9"/>
       <use x="96.728516" xlink:href="#DejaVuSans-76"/>
       <use x="148.158203" xlink:href="#DejaVuSans-2e"/>
      </g>
     </g>
    </g>
    <g id="xtick_13">
     <g id="line2d_13">
      <g>
       <use style="stroke:#000000;stroke-width:0.8;" x="400.475842" xlink:href="#mcc4a1813ba" y="270.860625"/>
      </g>
     </g>
     <g id="text_13">
      <!-- mars -->
      <g transform="translate(389.281237 298.726462)rotate(-45)scale(0.09 -0.09)">
       <use xlink:href="#DejaVuSans-6d"/>
       <use x="97.412109" xlink:href="#DejaVuSans-61"/>
       <use x="158.691406" xlink:href="#DejaVuSans-72"/>
       <use x="199.804688" xlink:href="#DejaVuSans-73"/>
      </g>
     </g>
    </g>
    <g id="xtick_14">
     <g id="line2d_14">
      <g>
       <use style="stroke:#000000;stroke-width:0.8;" x="428.891448" xlink:href="#mcc4a1813ba" y="270.860625"/>
      </g>
     </g>
     <g id="text_14">
      <!-- avril -->
      <g transform="translate(419.908319 296.514986)rotate(-45)scale(0.09 -0.09)">
       <use xlink:href="#DejaVuSans-61"/>
       <use x="61.279297" xlink:href="#DejaVuSans-76"/>
       <use x="120.458984" xlink:href="#DejaVuSans-72"/>
       <use x="161.572266" xlink:href="#DejaVuSans-69"/>
       <use x="189.355469" xlink:href="#DejaVuSans-6c"/>
      </g>
     </g>
    </g>
    <g id="xtick_15">
     <g id="line2d_15">
      <g>
       <use style="stroke:#000000;stroke-width:0.8;" x="456.390421" xlink:href="#mcc4a1813ba" y="270.860625"/>
      </g>
     </g>
     <g id="text_15">
      <!-- mai -->
      <g transform="translate(449.359238 294.56304)rotate(-45)scale(0.09 -0.09)">
       <use xlink:href="#DejaVuSans-6d"/>
       <use x="97.412109" xlink:href="#DejaVuSans-61"/>
       <use x="158.691406" xlink:href="#DejaVuSans-69"/>
      </g>
     </g>
    </g>
    <g id="xtick_16">
     <g id="line2d_16">
      <g>
       <use style="stroke:#000000;stroke-width:0.8;" x="484.806027" xlink:href="#mcc4a1813ba" y="270.860625"/>
      </g>
     </g>
     <g id="text_16">
      <!-- juin -->
      <g transform="translate(478.039346 294.298537)rotate(-45)scale(0.09 -0.09)">
       <use xlink:href="#DejaVuSans-6a"/>
       <use x="27.783203" xlink:href="#DejaVuSans-75"/>
       <use x="91.162109" xlink:href="#DejaVuSans-69"/>
       <use x="118.945312" xlink:href="#DejaVuSans-6e"/>
      </g>
     </g>
    </g>
    <g id="xtick_17">
     <g id="line2d_17">
      <g>
       <use style="stroke:#000000;stroke-width:0.8;" x="512.305" xlink:href="#mcc4a1813ba" y="270.860625"/>
      </g>
     </g>
     <g id="text_17">
      <!-- juil. -->
      <g transform="translate(505.780946 294.055911)rotate(-45)scale(0.09 -0.09)">
       <use xlink:href="#DejaVuSans-6a"/>
       <use x="27.783203" xlink:href="#DejaVuSans-75"/>
       <use x="91.162109" xlink:href="#DejaVuSans-69"/>
       <use x="118.945312" xlink:href="#DejaVuSans-6c"/>
       <use x="146.728516" xlink:href="#DejaVuSans-2e"/>
      </g>
     </g>
    </g>
   </g>
   <g id="matplotlib.axis_2">
    <g id="ytick_1">
     <g id="line2d_18">
      <path clip-path="url(#p970614bb19)" d="M 65.905 260.506339 
L 512.305 260.506339 
" style="fill:none;stroke:#b0b0b0;stroke-linecap:square;stroke-opacity:0.5;stroke-width:0.8;"/>
     </g>
     <g id="text_18">
      <!-- 0 -->
      <g transform="translate(53.17875 263.925636)scale(0.09 -0.09)">
       <defs>
        <path d="M 2034 4250 
Q 1547 4250 1301 3770 
Q 1056 3291 1056 2328 
Q 1056 1369 1301 889 
Q 1547 409 2034 409 
Q 2525 409 2770 889 
Q 3016 1369 3016 2328 
Q 3016 3291 2770 3770 
Q 2525 4250 2034 4250 
z
M 2034 4750 
Q 2819 4750 3233 4129 
Q 3647 3509 3647 2328 
Q 3647 1150 3233 529 
Q 2819 -91 2034 -91 
Q 1250 -91 836 529 
Q 422 1150 422 2328 
Q 422 3509 836 4129 
Q 1250 4750 2034 4750 
z
" id="DejaVuSans-30" transform="scale(0.015625)"/>
       </defs>
       <use xlink:href="#DejaVuSans-30"/>
      </g>
     </g>
    </g>
    <g id="ytick_2">
     <g id="line2d_19">
      <path clip-path="url(#p970614bb19)" d="M 65.905 174.220625 
L 512.305 174.220625 
" style="fill:none;stroke:#b0b0b0;stroke-linecap:square;stroke-opacity:0.5;stroke-width:0.8;"/>
     </g>
     <g id="text_19">
      <!-- 500 -->
      <g transform="translate(41.72625 177.639922)scale(0.09 -0.09)">
       <defs>
        <path d="M 691 4666 
L 3169 4666 
L 3169 4134 
L 1269 4134 
L 1269 2991 
Q 1406 3038 1543 3061 
Q 1681 3084 1819 3084 
Q 2600 3084 3056 2656 
Q 3513 2228 3513 1497 
Q 3513 744 3044 326 
Q 2575 -91 1722 -91 
Q 1428 -91 1123 -41 
Q 819 9 494 109 
L 494 744 
Q 775 591 1075 516 
Q 1375 441 1709 441 
Q 2250 441 2565 725 
Q 2881 1009 2881 1497 
Q 2881 1984 2565 2268 
Q 2250 2553 1709 2553 
Q 1456 2553 1204 2497 
Q 953 2441 691 2322 
L 691 4666 
z
" id="DejaVuSans-35" transform="scale(0.015625)"/>
       </defs>
       <use xlink:href="#DejaVuSans-35"/>
       <use x="63.623047" xlink:href="#DejaVuSans-30"/>
       <use x="127.246094" xlink:href="#DejaVuSans-30"/>
      </g>
     </g>
    </g>
    <g id="ytick_3">
     <g id="line2d_20">
      <path clip-path="url(#p970614bb19)" d="M 65.905 87.934911 
L 512.305 87.934911 
" style="fill:none;stroke:#b0b0b0;stroke-linecap:square;stroke-opacity:0.5;stroke-width:0.8;"/>
     </g>
     <g id="text_20">
      <!-- 1000 -->
      <g transform="translate(36 91.354208)scale(0.09 -0.09)">
       <defs>
        <path d="M 794 531 
L 1825 531 
L 1825 4091 
L 703 3866 
L 703 4441 
L 1819 4666 
L 2450 4666 
L 2450 531 
L 3481 531 
L 3481 0 
L 794 0 
L 794 531 
z
" id="DejaVuSans-31" transform="scale(0.015625)"/>
       </defs>
       <use xlink:href="#DejaVuSans-31"/>
       <use x="63.623047" xlink:href="#DejaVuSans-30"/>
       <use x="127.246094" xlink:href="#DejaVuSans-30"/>
       <use x="190.869141" xlink:href="#DejaVuSans-30"/>
      </g>
     </g>
    </g>
    <g id="ytick_4">
     <g id="line2d_21">
      <path clip-path="url(#p970614bb19)" d="M 65.905 243.249196 
L 512.305 243.249196 
" style="fill:none;stroke:#b0b0b0;stroke-linecap:square;stroke-opacity:0.2;stroke-width:0.8;"/>
     </g>
    </g>
    <g id="ytick_5">
     <g id="line2d_22">
      <path clip-path="url(#p970614bb19)" d="M 65.905 225.992054 
L 512.305 225.992054 
" style="fill:none;stroke:#b0b0b0;stroke-linecap:square;stroke-opacity:0.2;stroke-width:0.8;"/>
     </g>
    </g>
    <g id="ytick_6">
     <g id="line2d_23">
      <path clip-path="url(#p970614bb19)" d="M 65.905 208.734911 
L 512.305 208.734911 
" style="fill:none;stroke:#b0b0b0;stroke-linecap:square;stroke-opacity:0.2;stroke-width:0.8;"/>
     </g>
    </g>
    <g id="ytick_7">
     <g id="line2d_24">
      <path clip-path="url(#p970614bb19)" d="M 65.905 191.477768 
L 512.305 191.477768 
" style="fill:none;stroke:#b0b0b0;stroke-linecap:square;stroke-opacity:0.2;stroke-width:0.8;"/>
     </g>
    </g>
    <g id="ytick_8">
     <g id="line2d_25">
      <path clip-path="url(#p970614bb19)" d="M 65.905 156.963482 
L 512.305 156.963482 
" style="fill:none;stroke:#b0b0b0;stroke-linecap:square;stroke-opacity:0.2;stroke-width:0.8;"/>
     </g>
    </g>
    <g id="ytick_9">
     <g id="line2d_26">
      <path clip-path="url(#p970614bb19)" d="M 65.905 139.706339 
L 512.305 139.706339 
" style="fill:none;stroke:#b0b0b0;stroke-linecap:square;stroke-opacity:0.2;stroke-width:0.8;"/>
     </g>
    </g>
    <g id="ytick_10">
     <g id="line2d_27">
      <path clip-path="url(#p970614bb19)" d="M 65.905 122.449196 
L 512.305 122.449196 
" style="fill:none;stroke:#b0b0b0;stroke-linecap:square;stroke-opacity:0.2;stroke-width:0.8;"/>
     </g>
    </g>
    <g id="ytick_11">
     <g id="line2d_28">
      <path clip-path="url(#p970614bb19)" d="M 65.905 105.192054 
L 512.305 105.192054 
" style="fill:none;stroke:#b0b0b0;stroke-linecap:square;stroke-opacity:0.2;stroke-width:0.8;"/>
     </g>
    </g>
    <g id="ytick_12">
     <g id="line2d_29">
      <path clip-path="url(#p970614bb19)" d="M 65.905 70.677768 
L 512.305 70.677768 
" style="fill:none;stroke:#b0b0b0;stroke-linecap:square;stroke-opacity:0.2;stroke-width:0.8;"/>
     </g>
    </g>
   </g>
   <g id="line2d_30">
    <path clip-path="url(#p970614bb19)" d="M 65.905 176.068468 
L 512.305 176.068468 
" style="fill:none;stroke:#00ced1;stroke-linecap:square;stroke-width:0.8;"/>
   </g>
   <g id="line2d_31">
    <path clip-path="url(#p970614bb19)" d="M 132.819168 260.506339 
L 139.235595 260.39922 
L 140.152228 259.328026 
L 141.06886 258.471071 
L 141.985493 256.864281 
L 142.902125 254.829013 
L 143.818758 253.972058 
L 145.652023 251.722552 
L 146.568655 252.793745 
L 148.40192 252.686626 
L 149.318552 253.864939 
L 150.235185 253.75782 
L 151.151817 253.864939 
L 152.06845 253.6507 
L 152.985082 252.151029 
L 153.901715 251.615433 
L 154.818347 252.365268 
L 155.734979 251.401194 
L 156.651612 250.222881 
L 157.568244 248.294732 
L 158.484877 247.544897 
L 159.401509 243.474361 
L 160.318142 238.868229 
L 161.234774 237.0472 
L 162.151407 236.511603 
L 163.068039 235.33329 
L 163.984671 231.905471 
L 164.901304 222.371848 
L 165.817936 220.550819 
L 166.734569 217.444357 
L 167.651201 213.052464 
L 168.567834 213.802299 
L 169.484466 210.481599 
L 170.401099 208.553451 
L 172.234363 211.552793 
L 173.150996 214.980612 
L 174.067628 215.30197 
L 174.984261 210.481599 
L 175.900893 209.838883 
L 176.817526 210.910076 
L 177.734158 213.480941 
L 178.650791 212.409747 
L 179.567423 207.268018 
L 180.484055 208.446331 
L 181.400688 213.159583 
L 182.31732 212.623986 
L 183.233953 212.409747 
L 184.150585 211.552793 
L 185.067218 213.802299 
L 185.98385 215.730448 
L 186.900483 219.265386 
L 187.817115 219.586744 
L 188.733747 220.765057 
L 189.65038 225.37119 
L 190.567012 230.620038 
L 191.483645 229.013248 
L 192.400277 234.154977 
L 193.31691 233.833619 
L 194.233542 232.548187 
L 195.150175 233.940738 
L 196.983439 230.4058 
L 197.900072 232.119709 
L 198.816704 231.476993 
L 199.733337 231.476993 
L 200.649969 229.977322 
L 201.566602 231.476993 
L 202.483234 232.333948 
L 203.399867 232.762425 
L 204.316499 234.047858 
L 205.233131 234.583455 
L 206.149764 235.976006 
L 207.066396 239.510945 
L 207.983029 240.689258 
L 208.899661 239.618064 
L 209.816294 241.010616 
L 210.732926 241.546213 
L 211.649559 242.938765 
L 213.482823 242.510287 
L 214.399456 241.010616 
L 215.316088 242.724526 
L 216.232721 243.581481 
L 217.149353 243.153003 
L 218.982618 243.260123 
L 219.899251 243.6886 
L 220.815883 245.938107 
L 221.732515 246.152345 
L 222.649148 247.223539 
L 223.56578 247.330658 
L 224.482413 247.866255 
L 225.399045 247.437778 
L 226.315678 247.759136 
L 227.23231 247.544897 
L 228.148943 249.365926 
L 229.065575 248.294732 
L 229.982207 249.258807 
L 230.89884 248.616091 
L 231.815472 249.151687 
L 232.732105 248.616091 
L 234.56537 244.974032 
L 235.482002 246.152345 
L 236.398634 246.580823 
L 237.315267 247.330658 
L 238.231899 247.759136 
L 239.148532 247.544897 
L 240.065164 249.473045 
L 240.981797 250.972716 
L 241.898429 250.008642 
L 242.815062 249.901523 
L 243.731694 250.222881 
L 244.648326 249.901523 
L 245.564959 250.544239 
L 246.481591 251.508313 
L 247.398224 251.294074 
L 248.314856 252.365268 
L 249.231489 253.864939 
L 250.148121 252.793745 
L 251.064754 253.436462 
L 253.814651 252.900865 
L 254.731283 252.04391 
L 255.647916 250.544239 
L 256.564548 251.722552 
L 257.481181 250.758478 
L 258.397813 250.865597 
L 259.314446 250.008642 
L 260.231078 250.43712 
L 261.14771 251.829671 
L 262.064343 251.186955 
L 262.980975 251.829671 
L 264.81424 252.151029 
L 265.730873 253.6507 
L 266.647505 253.543581 
L 267.564138 252.472387 
L 268.48077 254.186297 
L 269.397402 253.864939 
L 270.314035 254.400536 
L 271.230667 254.614775 
L 272.1473 254.614775 
L 273.063932 255.043252 
L 273.980565 255.900207 
L 276.730462 256.864281 
L 278.563727 256.114446 
L 279.480359 256.435804 
L 280.396992 256.007326 
L 281.313624 254.936133 
L 282.230257 254.721894 
L 284.063522 255.043252 
L 284.980154 255.471729 
L 285.896786 254.507655 
L 287.730051 255.793088 
L 289.563316 255.257491 
L 290.479949 255.471729 
L 291.396581 255.257491 
L 292.313214 255.793088 
L 294.146478 256.114446 
L 295.063111 256.328684 
L 297.813008 256.221565 
L 298.729641 256.9714 
L 299.646273 256.864281 
L 300.562906 255.685968 
L 301.479538 256.007326 
L 302.39617 255.150371 
L 303.312803 254.936133 
L 304.229435 254.400536 
L 305.146068 252.793745 
L 306.0627 252.365268 
L 306.979333 253.436462 
L 307.895965 252.900865 
L 308.812598 253.75782 
L 309.72923 253.864939 
L 310.645862 253.115104 
L 311.562495 253.75782 
L 313.39576 253.007984 
L 314.312392 253.115104 
L 315.229025 252.365268 
L 316.145657 252.472387 
L 317.06229 253.115104 
L 317.978922 253.007984 
L 318.895554 252.258149 
L 319.812187 250.865597 
L 320.728819 248.937449 
L 321.645452 248.508971 
L 322.562084 248.294732 
L 323.478717 247.437778 
L 324.395349 245.509629 
L 325.311982 244.759794 
L 326.228614 243.795719 
L 327.145246 243.581481 
L 328.061879 244.009958 
L 328.978511 243.581481 
L 329.895144 243.581481 
L 331.728409 241.760452 
L 332.645041 241.224855 
L 333.561674 241.010616 
L 334.478306 240.475019 
L 335.394938 240.689258 
L 336.311571 239.618064 
L 337.228203 240.796377 
L 338.144836 242.296048 
L 339.061468 244.117077 
L 339.978101 247.223539 
L 341.811366 248.187613 
L 342.727998 248.187613 
L 343.64463 247.223539 
L 344.561263 244.117077 
L 345.477895 242.188929 
L 346.394528 241.546213 
L 347.31116 240.475019 
L 348.227793 240.153661 
L 349.144425 238.332632 
L 350.061057 235.226171 
L 350.97769 233.833619 
L 351.894322 232.226829 
L 352.810955 227.0851 
L 353.727587 225.906787 
L 354.64422 225.692548 
L 355.560852 223.228803 
L 356.477485 224.728474 
L 357.394117 226.442383 
L 358.310749 227.192219 
L 359.227382 225.906787 
L 360.144014 227.942054 
L 361.060647 228.370532 
L 361.977279 229.870203 
L 362.893912 229.870203 
L 363.810544 229.334606 
L 364.727177 229.977322 
L 365.643809 233.512261 
L 366.560441 233.61938 
L 367.477074 233.298022 
L 368.393706 235.868887 
L 369.310339 236.94008 
L 370.226971 239.296706 
L 371.143604 240.689258 
L 372.060236 243.045884 
L 372.976869 243.367242 
L 373.893501 242.938765 
L 374.810133 244.224197 
L 375.726766 247.866255 
L 376.643398 249.044568 
L 377.560031 250.972716 
L 378.476663 250.758478 
L 379.393296 251.294074 
L 380.309928 252.04391 
L 381.226561 254.079178 
L 382.143193 254.293417 
L 383.059825 255.471729 
L 383.976458 256.007326 
L 384.89309 257.185639 
L 385.809723 257.614117 
L 388.55962 257.506997 
L 389.476253 257.935475 
L 392.22615 257.828355 
L 393.142782 257.721236 
L 394.059415 256.9714 
L 394.976047 257.292759 
L 395.89268 256.757162 
L 399.559209 257.292759 
L 401.392474 257.721236 
L 402.309107 258.471071 
L 403.225739 258.68531 
L 404.142372 258.363952 
L 405.059004 258.471071 
L 405.975637 258.363952 
L 406.892269 259.006668 
L 408.725534 258.899549 
L 409.642166 258.471071 
L 410.558799 258.471071 
L 412.392064 258.149713 
L 413.308696 257.614117 
L 414.225329 257.721236 
L 416.058593 257.185639 
L 417.891858 257.185639 
L 418.808491 257.399878 
L 421.558388 257.185639 
L 422.475021 257.614117 
L 423.391653 257.614117 
L 424.308285 257.07852 
L 426.14155 257.185639 
L 427.058183 256.864281 
L 428.891448 255.471729 
L 429.80808 255.257491 
L 430.724713 254.829013 
L 431.641345 254.829013 
L 432.557977 255.36461 
L 436.224507 247.437778 
L 437.14114 246.795061 
L 438.057772 246.795061 
L 438.974405 242.724526 
L 439.891037 241.653332 
L 440.807669 241.760452 
L 441.724302 240.903497 
L 442.640934 240.3679 
L 443.557567 240.689258 
L 444.474199 240.475019 
L 445.390832 237.368558 
L 446.307464 236.618722 
L 447.224097 234.690574 
L 448.140729 233.940738 
L 449.057361 234.262097 
L 449.973994 234.797693 
L 450.890626 234.797693 
L 451.807259 237.261439 
L 453.640524 238.439751 
L 454.557156 237.154319 
L 455.473789 235.011932 
L 457.307053 235.33329 
L 458.223686 231.155635 
L 459.140318 227.942054 
L 460.056951 225.26407 
L 460.973583 224.085757 
L 461.890216 218.72979 
L 462.806848 218.408431 
L 463.72348 217.872835 
L 464.640113 215.087731 
L 465.556745 210.910076 
L 466.473378 208.981928 
L 467.39001 214.230777 
L 468.306643 214.337896 
L 469.223275 211.338554 
L 470.139908 211.659912 
L 471.05654 208.66057 
L 471.973172 208.124973 
L 472.889805 207.803615 
L 473.806437 203.090363 
L 474.72307 207.696496 
L 475.639702 208.553451 
L 476.556335 208.553451 
L 477.472967 220.443699 
L 478.3896 223.014564 
L 479.306232 222.05049 
L 480.222864 223.121683 
L 481.139497 222.693206 
L 482.056129 223.764399 
L 482.972762 223.014564 
L 483.889394 217.765715 
L 484.806027 219.800983 
L 485.722659 223.550161 
L 486.639292 223.228803 
L 487.555924 223.65728 
L 488.472556 223.871519 
L 490.305821 224.621354 
L 491.222454 223.65728 
L 492.139086 223.978638 
L 493.055719 228.584771 
L 493.972351 225.37119 
L 494.888984 224.299996 
L 495.805616 224.299996 
L 496.722248 225.156951 
L 498.555513 226.442383 
L 499.472146 221.94337 
L 500.388778 225.156951 
L 501.305411 226.97798 
L 502.222043 227.0851 
L 503.138676 228.584771 
L 504.055308 228.906129 
L 504.055308 228.906129 
" style="fill:none;stroke:#b22222;stroke-linecap:square;"/>
   </g>
   <g id="line2d_32">
    <path clip-path="url(#p970614bb19)" d="M 132.819168 260.506339 
L 137.402331 260.506339 
L 138.318963 260.165911 
L 139.235595 260.165911 
L 140.152228 259.485055 
L 141.06886 257.10206 
L 142.902125 252.846711 
L 143.818758 251.314785 
L 144.73539 248.93179 
L 145.652023 247.570078 
L 146.568655 247.570078 
L 147.485287 248.761576 
L 148.40192 248.93179 
L 150.235185 249.953073 
L 151.151817 248.421148 
L 152.06845 247.570078 
L 152.985082 244.846654 
L 154.818347 240.250877 
L 155.734979 238.889166 
L 156.651612 234.633817 
L 157.568244 234.123175 
L 158.484877 231.059323 
L 159.401509 225.612476 
L 160.318142 219.31456 
L 161.234774 217.61242 
L 162.151407 215.229425 
L 163.068039 213.697499 
L 163.984671 204.676159 
L 164.901304 185.782409 
L 165.817936 178.803636 
L 167.651201 159.909886 
L 168.567834 160.760956 
L 170.401099 143.739559 
L 171.317731 143.399131 
L 172.234363 142.377847 
L 173.150996 150.548118 
L 174.067628 153.441755 
L 174.984261 148.845978 
L 175.900893 146.292769 
L 176.817526 142.888489 
L 177.734158 149.867262 
L 178.650791 151.569402 
L 179.567423 142.718275 
L 180.484055 142.207634 
L 181.400688 146.292769 
L 182.31732 147.314052 
L 183.233953 160.0801 
L 185.067218 169.782296 
L 185.98385 171.314222 
L 186.900483 178.12278 
L 187.817115 181.186632 
L 190.567012 198.888884 
L 191.483645 195.144177 
L 192.400277 206.208084 
L 193.31691 208.250652 
L 194.233542 201.612307 
L 195.150175 205.186801 
L 196.066807 203.654875 
L 196.983439 201.271879 
L 197.900072 207.910224 
L 199.733337 204.335731 
L 200.649969 207.74001 
L 201.566602 210.463434 
L 202.483234 211.654931 
L 203.399867 213.867713 
L 205.233131 219.484774 
L 206.149764 220.16563 
L 207.066396 224.420979 
L 207.983029 224.420979 
L 208.899661 224.591193 
L 209.816294 229.697612 
L 210.732926 229.867826 
L 211.649559 231.059323 
L 212.566191 233.782747 
L 213.482823 233.952961 
L 214.399456 235.6551 
L 215.316088 238.889166 
L 216.232721 238.548738 
L 217.149353 236.335956 
L 218.065986 239.740236 
L 219.899251 239.740236 
L 220.815883 240.421091 
L 221.732515 239.570022 
L 222.649148 240.421091 
L 223.56578 242.974301 
L 224.482413 241.101947 
L 225.399045 241.782803 
L 226.315678 241.953017 
L 227.23231 242.633873 
L 228.148943 244.165799 
L 229.065575 242.633873 
L 229.982207 241.953017 
L 230.89884 242.974301 
L 231.815472 242.804087 
L 232.732105 243.314729 
L 233.648737 241.272161 
L 234.56537 241.782803 
L 235.482002 242.463659 
L 236.398634 244.165799 
L 237.315267 243.484943 
L 238.231899 244.506227 
L 239.148532 242.804087 
L 240.065164 243.655157 
L 241.898429 242.974301 
L 242.815062 242.463659 
L 243.731694 244.336013 
L 244.648326 243.995585 
L 245.564959 245.867938 
L 246.481591 245.357296 
L 247.398224 245.697724 
L 248.314856 247.059436 
L 249.231489 247.910506 
L 250.148121 247.740292 
L 251.064754 247.399864 
L 251.981386 247.399864 
L 252.898018 248.761576 
L 253.814651 249.612646 
L 254.731283 250.123287 
L 255.647916 249.102004 
L 256.564548 248.591362 
L 257.481181 248.421148 
L 258.397813 247.740292 
L 259.314446 246.719008 
L 260.231078 246.719008 
L 261.14771 247.22965 
L 262.064343 249.102004 
L 262.980975 247.740292 
L 263.897608 248.591362 
L 264.81424 247.910506 
L 265.730873 249.272218 
L 267.564138 246.208366 
L 268.48077 246.208366 
L 269.397402 248.421148 
L 270.314035 248.93179 
L 271.230667 249.953073 
L 272.1473 249.953073 
L 273.063932 251.144571 
L 274.897197 254.038209 
L 275.81383 253.527567 
L 277.647094 251.484999 
L 278.563727 251.144571 
L 279.480359 251.144571 
L 280.396992 249.102004 
L 281.313624 245.357296 
L 282.230257 245.187082 
L 283.146889 246.038152 
L 284.063522 247.399864 
L 284.980154 247.570078 
L 285.896786 247.059436 
L 286.813419 247.910506 
L 287.730051 250.463715 
L 288.646684 250.463715 
L 289.563316 249.782859 
L 290.479949 249.442432 
L 291.396581 248.591362 
L 292.313214 247.910506 
L 293.229846 247.910506 
L 294.146478 246.038152 
L 295.063111 246.37858 
L 295.979743 247.059436 
L 296.896376 246.548794 
L 297.813008 244.676441 
L 298.729641 244.846654 
L 299.646273 246.37858 
L 300.562906 245.357296 
L 301.479538 244.846654 
L 302.39617 243.655157 
L 303.312803 244.336013 
L 304.229435 244.846654 
L 305.146068 245.187082 
L 306.0627 243.825371 
L 306.979333 245.867938 
L 307.895965 245.867938 
L 308.812598 246.548794 
L 309.72923 246.548794 
L 310.645862 247.059436 
L 311.562495 246.889222 
L 312.479127 247.22965 
L 313.39576 248.08072 
L 314.312392 248.591362 
L 315.229025 247.910506 
L 316.145657 247.740292 
L 317.06229 247.740292 
L 317.978922 246.548794 
L 319.812187 243.314729 
L 320.728819 241.272161 
L 321.645452 240.250877 
L 322.562084 240.591305 
L 323.478717 239.740236 
L 324.395349 236.676384 
L 325.311982 235.144458 
L 326.228614 230.03804 
L 327.145246 227.825258 
L 328.978511 224.250765 
L 329.895144 215.91028 
L 331.728409 206.718726 
L 332.645041 205.867656 
L 334.478306 204.846373 
L 335.394938 205.527229 
L 336.311571 207.569796 
L 337.228203 210.123006 
L 338.144836 210.29322 
L 339.061468 214.548569 
L 339.978101 220.846485 
L 340.894733 221.186913 
L 341.811366 222.037983 
L 342.727998 221.697555 
L 343.64463 221.186913 
L 344.561263 222.208197 
L 345.477895 220.16563 
L 346.394528 219.825202 
L 347.31116 217.61242 
L 348.227793 215.91028 
L 349.144425 213.186857 
L 350.061057 209.952792 
L 350.97769 206.208084 
L 351.894322 199.910168 
L 352.810955 189.527116 
L 353.727587 191.739897 
L 354.64422 192.761181 
L 355.560852 190.207972 
L 356.477485 191.059042 
L 357.394117 193.952679 
L 358.310749 196.16546 
L 359.227382 195.654819 
L 360.144014 195.314391 
L 361.060647 195.314391 
L 361.977279 200.42081 
L 362.893912 202.293163 
L 363.810544 203.484661 
L 364.727177 208.080438 
L 365.643809 214.378355 
L 366.560441 217.101778 
L 367.477074 217.101778 
L 369.310339 224.250765 
L 370.226971 225.272048 
L 371.143604 228.165686 
L 372.060236 230.03804 
L 372.976869 229.867826 
L 373.893501 230.548681 
L 374.810133 234.123175 
L 375.726766 239.05938 
L 376.643398 242.804087 
L 377.560031 244.506227 
L 378.476663 245.52751 
L 379.393296 247.399864 
L 380.309928 247.22965 
L 381.226561 248.591362 
L 382.143193 248.421148 
L 383.059825 249.442432 
L 383.976458 250.293501 
L 384.89309 251.314785 
L 386.726355 251.655213 
L 387.642988 252.336069 
L 388.55962 252.846711 
L 389.476253 253.867995 
L 391.309517 253.867995 
L 393.142782 253.527567 
L 394.059415 254.208423 
L 394.976047 254.208423 
L 396.809312 253.867995 
L 397.725945 254.378637 
L 398.642577 254.208423 
L 399.559209 254.548851 
L 400.475842 254.208423 
L 402.309107 254.889278 
L 403.225739 255.740348 
L 404.142372 254.719064 
L 405.059004 254.548851 
L 405.975637 254.548851 
L 406.892269 255.059492 
L 407.808901 255.740348 
L 408.725534 255.39992 
L 409.642166 254.889278 
L 410.558799 255.570134 
L 411.475431 256.421204 
L 412.392064 256.421204 
L 413.308696 255.910562 
L 414.225329 255.229706 
L 415.141961 255.39992 
L 416.058593 254.548851 
L 416.975226 253.867995 
L 417.891858 253.357353 
L 418.808491 253.357353 
L 419.725123 252.506283 
L 420.641756 251.995641 
L 421.558388 249.612646 
L 422.475021 248.08072 
L 423.391653 247.399864 
L 424.308285 245.016868 
L 425.224918 244.676441 
L 426.14155 241.953017 
L 427.058183 239.740236 
L 427.974815 239.91045 
L 428.891448 240.421091 
L 429.80808 238.718952 
L 430.724713 239.05938 
L 431.641345 238.548738 
L 432.557977 241.782803 
L 433.47461 237.187026 
L 434.391242 233.272105 
L 435.307875 229.867826 
L 436.224507 229.016756 
L 437.14114 226.974188 
L 438.057772 227.655044 
L 438.974405 222.378411 
L 439.891037 224.080551 
L 440.807669 223.229481 
L 441.724302 221.357127 
L 442.640934 218.633704 
L 443.557567 219.31456 
L 444.474199 218.974132 
L 445.390832 212.506001 
L 446.307464 208.761294 
L 447.224097 208.420866 
L 448.140729 206.548512 
L 449.057361 207.059154 
L 450.890626 206.718726 
L 451.807259 209.612364 
L 452.723891 208.420866 
L 453.640524 208.080438 
L 454.557156 209.612364 
L 455.473789 210.803861 
L 456.390421 213.357071 
L 457.307053 213.697499 
L 458.223686 207.74001 
L 459.140318 206.548512 
L 460.056951 205.016587 
L 460.973583 205.357015 
L 461.890216 200.761238 
L 462.806848 199.229312 
L 463.72348 198.71867 
L 464.640113 191.229255 
L 466.473378 179.654706 
L 467.39001 186.122837 
L 468.306643 177.441924 
L 469.223275 172.165291 
L 470.139908 171.314222 
L 471.05654 171.314222 
L 471.973172 172.846147 
L 472.889805 175.229143 
L 473.806437 163.654593 
L 474.72307 169.441868 
L 476.556335 169.10144 
L 477.472967 184.931339 
L 478.3896 182.888771 
L 479.306232 181.527059 
L 480.222864 182.037701 
L 481.139497 180.67599 
L 482.056129 184.761125 
L 482.972762 184.590911 
L 483.889394 177.441924 
L 484.806027 185.101553 
L 485.722659 189.356902 
L 486.639292 187.314334 
L 488.472556 190.037758 
L 489.389189 191.739897 
L 490.305821 190.718614 
L 491.222454 184.080269 
L 492.139086 179.82492 
L 493.055719 192.420753 
L 493.972351 193.952679 
L 494.888984 190.5484 
L 495.805616 190.037758 
L 496.722248 188.676046 
L 497.638881 192.250539 
L 498.555513 194.803749 
L 499.472146 190.378186 
L 501.305411 197.186744 
L 502.222043 197.356958 
L 503.138676 201.952735 
L 504.055308 205.357015 
L 504.055308 205.357015 
" style="fill:none;stroke:#000000;stroke-linecap:square;stroke-width:1.5;"/>
   </g>
   <g id="line2d_33">
    <path clip-path="url(#p970614bb19)" d="M 132.819168 260.506339 
L 137.402331 260.506339 
L 138.318963 259.894471 
L 139.235595 259.894471 
L 141.06886 258.670733 
L 141.985493 258.670733 
L 143.818758 257.446996 
L 145.652023 254.999522 
L 147.485287 253.775784 
L 148.40192 250.104573 
L 149.318552 249.492704 
L 150.235185 250.104573 
L 152.06845 248.880835 
L 152.985082 248.880835 
L 153.901715 248.268967 
L 155.734979 245.821492 
L 156.651612 242.15028 
L 157.568244 237.8672 
L 158.484877 237.8672 
L 159.401509 231.136645 
L 160.318142 221.346747 
L 161.234774 219.511141 
L 162.151407 215.839929 
L 163.068039 212.780586 
L 163.984671 206.050031 
L 164.901304 184.634629 
L 166.734569 173.620994 
L 167.651201 172.397256 
L 168.567834 173.620994 
L 170.401099 159.548015 
L 171.317731 165.666702 
L 172.234363 167.502307 
L 173.150996 169.949782 
L 174.067628 164.442964 
L 174.984261 161.383621 
L 175.900893 154.653066 
L 176.817526 155.876803 
L 177.734158 153.429329 
L 178.650791 146.698774 
L 179.567423 147.310643 
L 180.484055 143.639431 
L 181.400688 148.53438 
L 182.31732 154.653066 
L 183.233953 157.712409 
L 184.150585 165.666702 
L 185.067218 174.844731 
L 185.98385 173.009125 
L 186.900483 182.799023 
L 187.817115 180.963417 
L 189.65038 202.990688 
L 190.567012 210.333112 
L 191.483645 210.333112 
L 192.400277 217.063667 
L 193.31691 222.570484 
L 194.233542 223.794221 
L 195.150175 223.182353 
L 196.066807 216.451798 
L 196.983439 212.780586 
L 197.900072 213.392455 
L 198.816704 215.839929 
L 199.733337 212.168717 
L 200.649969 212.780586 
L 201.566602 210.94498 
L 202.483234 220.12301 
L 203.399867 222.570484 
L 204.316499 226.853565 
L 205.233131 229.912908 
L 206.149764 229.912908 
L 207.066396 230.524776 
L 207.983029 234.807857 
L 208.899661 231.748514 
L 209.816294 234.807857 
L 210.732926 236.643463 
L 211.649559 236.031594 
L 212.566191 239.702806 
L 213.482823 240.314674 
L 214.399456 240.314674 
L 215.316088 242.762149 
L 216.232721 241.538412 
L 217.149353 239.702806 
L 218.065986 242.15028 
L 218.982618 243.374018 
L 219.899251 245.209624 
L 220.815883 243.985886 
L 221.732515 243.374018 
L 223.56578 245.821492 
L 224.482413 244.597755 
L 226.315678 243.374018 
L 227.23231 245.209624 
L 229.065575 243.985886 
L 229.982207 242.15028 
L 230.89884 243.985886 
L 231.815472 243.374018 
L 232.732105 243.374018 
L 233.648737 242.762149 
L 234.56537 243.985886 
L 235.482002 247.045229 
L 236.398634 250.716441 
L 237.315267 248.268967 
L 238.231899 248.880835 
L 239.148532 248.880835 
L 240.065164 250.716441 
L 240.981797 250.104573 
L 241.898429 248.880835 
L 242.815062 248.268967 
L 244.648326 250.716441 
L 245.564959 251.32831 
L 246.481591 249.492704 
L 247.398224 251.32831 
L 248.314856 252.552047 
L 249.231489 251.940178 
L 250.148121 252.552047 
L 251.064754 251.940178 
L 252.898018 251.940178 
L 254.731283 250.716441 
L 255.647916 251.32831 
L 256.564548 252.552047 
L 258.397813 252.552047 
L 259.314446 253.775784 
L 260.231078 252.552047 
L 261.14771 252.552047 
L 262.064343 254.387653 
L 262.980975 251.940178 
L 263.897608 251.32831 
L 264.81424 249.492704 
L 266.647505 251.940178 
L 267.564138 252.552047 
L 268.48077 251.32831 
L 269.397402 253.163916 
L 270.314035 254.387653 
L 271.230667 256.223259 
L 272.1473 255.61139 
L 273.063932 254.387653 
L 273.980565 251.32831 
L 274.897197 251.32831 
L 276.730462 250.104573 
L 277.647094 250.104573 
L 278.563727 249.492704 
L 279.480359 249.492704 
L 280.396992 251.32831 
L 281.313624 250.716441 
L 284.063522 250.716441 
L 284.980154 251.32831 
L 285.896786 253.163916 
L 286.813419 253.775784 
L 288.646684 256.223259 
L 290.479949 252.552047 
L 291.396581 252.552047 
L 292.313214 251.940178 
L 295.063111 246.433361 
L 295.979743 248.268967 
L 296.896376 249.492704 
L 297.813008 248.268967 
L 298.729641 247.657098 
L 299.646273 250.104573 
L 300.562906 251.32831 
L 303.312803 253.163916 
L 304.229435 254.387653 
L 305.146068 254.999522 
L 306.0627 254.387653 
L 306.979333 254.387653 
L 307.895965 253.163916 
L 308.812598 250.716441 
L 309.72923 250.716441 
L 310.645862 248.268967 
L 311.562495 247.657098 
L 312.479127 245.821492 
L 313.39576 245.821492 
L 314.312392 246.433361 
L 315.229025 248.268967 
L 316.145657 247.045229 
L 317.06229 249.492704 
L 318.895554 250.716441 
L 320.728819 249.492704 
L 321.645452 247.657098 
L 322.562084 248.268967 
L 323.478717 243.985886 
L 324.395349 243.374018 
L 325.311982 240.314674 
L 326.228614 237.8672 
L 327.145246 237.8672 
L 328.061879 239.090937 
L 328.978511 238.479069 
L 329.895144 236.643463 
L 330.811776 233.58412 
L 331.728409 231.748514 
L 333.561674 226.853565 
L 337.228203 226.853565 
L 338.144836 226.241696 
L 339.061468 228.077302 
L 339.978101 232.972251 
L 340.894733 228.68917 
L 341.811366 229.912908 
L 342.727998 226.853565 
L 343.64463 224.40609 
L 344.561263 224.40609 
L 345.477895 225.629827 
L 346.394528 225.017959 
L 347.31116 225.017959 
L 348.227793 223.794221 
L 349.144425 225.017959 
L 350.061057 221.958616 
L 350.97769 212.168717 
L 351.894322 203.602557 
L 352.810955 198.707608 
L 353.727587 198.095739 
L 354.64422 196.872002 
L 355.560852 187.693972 
L 356.477485 185.246498 
L 357.394117 195.648264 
L 358.310749 200.543213 
L 359.227382 197.48387 
L 360.144014 201.155082 
L 361.060647 202.378819 
L 361.977279 206.6619 
L 362.893912 207.273768 
L 363.810544 201.155082 
L 364.727177 200.543213 
L 365.643809 203.602557 
L 366.560441 203.602557 
L 367.477074 204.214425 
L 368.393706 207.885637 
L 369.310339 212.168717 
L 370.226971 218.287404 
L 371.143604 217.675535 
L 372.060236 214.004323 
L 372.976869 215.228061 
L 373.893501 214.616192 
L 374.810133 219.511141 
L 375.726766 221.958616 
L 376.643398 226.241696 
L 377.560031 231.748514 
L 378.476663 239.090937 
L 379.393296 239.702806 
L 380.309928 239.090937 
L 381.226561 240.314674 
L 382.143193 242.762149 
L 383.059825 242.762149 
L 384.89309 246.433361 
L 385.809723 247.045229 
L 386.726355 248.880835 
L 387.642988 252.552047 
L 389.476253 256.223259 
L 390.392885 257.446996 
L 391.309517 256.223259 
L 392.22615 255.61139 
L 393.142782 255.61139 
L 394.059415 253.163916 
L 394.976047 252.552047 
L 395.89268 251.32831 
L 396.809312 250.716441 
L 397.725945 251.32831 
L 399.559209 251.32831 
L 400.475842 251.940178 
L 401.392474 253.775784 
L 403.225739 253.775784 
L 404.142372 254.387653 
L 405.975637 254.387653 
L 406.892269 255.61139 
L 407.808901 255.61139 
L 408.725534 256.223259 
L 409.642166 256.223259 
L 410.558799 256.835128 
L 411.475431 256.835128 
L 412.392064 256.223259 
L 413.308696 254.999522 
L 414.225329 254.999522 
L 415.141961 256.223259 
L 416.058593 254.999522 
L 416.975226 250.716441 
L 418.808491 251.940178 
L 419.725123 251.32831 
L 420.641756 251.32831 
L 422.475021 245.209624 
L 423.391653 245.209624 
L 424.308285 240.926543 
L 425.224918 239.702806 
L 426.14155 234.807857 
L 427.058183 233.58412 
L 427.974815 234.807857 
L 428.891448 236.643463 
L 429.80808 237.255331 
L 430.724713 235.419725 
L 431.641345 236.031594 
L 432.557977 243.374018 
L 433.47461 238.479069 
L 434.391242 231.748514 
L 435.307875 227.465433 
L 436.224507 226.241696 
L 437.14114 228.68917 
L 438.057772 228.68917 
L 438.974405 217.063667 
L 439.891037 216.451798 
L 441.724302 218.899272 
L 442.640934 215.839929 
L 443.557567 215.839929 
L 444.474199 214.616192 
L 445.390832 218.899272 
L 446.307464 214.004323 
L 447.224097 213.392455 
L 448.140729 212.168717 
L 450.890626 212.168717 
L 451.807259 207.273768 
L 452.723891 210.333112 
L 453.640524 212.780586 
L 454.557156 210.94498 
L 455.473789 208.497506 
L 456.390421 209.109374 
L 457.307053 207.273768 
L 458.223686 204.214425 
L 459.140318 205.438163 
L 460.056951 201.155082 
L 460.973583 202.990688 
L 461.890216 203.602557 
L 462.806848 202.990688 
L 463.72348 205.438163 
L 464.640113 202.378819 
L 465.556745 185.858366 
L 466.473378 180.963417 
L 467.39001 187.693972 
L 468.306643 174.232862 
L 469.223275 169.337913 
L 470.139908 166.890439 
L 471.05654 163.219227 
L 471.973172 172.397256 
L 472.889805 171.785388 
L 473.806437 152.81746 
L 474.72307 157.712409 
L 475.639702 155.264935 
L 476.556335 156.488672 
L 477.472967 172.397256 
L 478.3896 166.27857 
L 479.306232 157.100541 
L 480.222864 161.99549 
L 481.139497 163.219227 
L 482.056129 166.890439 
L 482.972762 165.666702 
L 483.889394 154.041198 
L 484.806027 155.876803 
L 485.722659 168.114176 
L 486.639292 170.561651 
L 487.555924 176.680337 
L 489.389189 181.575286 
L 490.305821 182.799023 
L 491.222454 188.91771 
L 492.139086 180.963417 
L 493.055719 190.141447 
L 493.972351 190.753315 
L 494.888984 187.693972 
L 495.805616 187.693972 
L 496.722248 185.246498 
L 497.638881 181.575286 
L 498.555513 188.91771 
L 499.472146 176.680337 
L 500.388778 173.009125 
L 501.305411 177.292206 
L 502.222043 171.785388 
L 503.138676 174.232862 
L 504.055308 176.068468 
L 504.055308 176.068468 
" style="fill:none;stroke:#00ced1;stroke-linecap:square;stroke-width:3;"/>
   </g>
   <g id="line2d_34">
    <path clip-path="url(#p970614bb19)" d="M 65.905 260.506339 
L 512.305 260.506339 
" style="fill:none;stroke:#808080;stroke-linecap:square;stroke-width:0.8;"/>
   </g>
   <g id="line2d_35">
    <path clip-path="url(#p970614bb19)" d="M 346.394528 270.860625 
L 346.394528 64.292625 
" style="fill:none;stroke:#000000;stroke-dasharray:1.85,0.8;stroke-dashoffset:0;stroke-width:0.5;"/>
   </g>
   <g id="text_21">
    <!-- 973 -->
    <g style="fill:#4169e1;" transform="translate(270.318906 49.677188)scale(0.18 -0.18)">
     <defs>
      <path d="M 641 103 
L 641 966 
Q 928 831 1190 764 
Q 1453 697 1709 697 
Q 2247 697 2547 995 
Q 2847 1294 2900 1881 
Q 2688 1725 2447 1647 
Q 2206 1569 1925 1569 
Q 1209 1569 770 1986 
Q 331 2403 331 3084 
Q 331 3838 820 4291 
Q 1309 4744 2131 4744 
Q 3044 4744 3544 4128 
Q 4044 3513 4044 2388 
Q 4044 1231 3459 570 
Q 2875 -91 1856 -91 
Q 1528 -91 1228 -42 
Q 928 6 641 103 
z
M 2125 2350 
Q 2441 2350 2600 2554 
Q 2759 2759 2759 3169 
Q 2759 3575 2600 3781 
Q 2441 3988 2125 3988 
Q 1809 3988 1650 3781 
Q 1491 3575 1491 3169 
Q 1491 2759 1650 2554 
Q 1809 2350 2125 2350 
z
" id="DejaVuSans-Bold-39" transform="scale(0.015625)"/>
      <path d="M 428 4666 
L 3944 4666 
L 3944 3988 
L 2125 0 
L 953 0 
L 2675 3781 
L 428 3781 
L 428 4666 
z
" id="DejaVuSans-Bold-37" transform="scale(0.015625)"/>
      <path d="M 2981 2516 
Q 3453 2394 3698 2092 
Q 3944 1791 3944 1325 
Q 3944 631 3412 270 
Q 2881 -91 1863 -91 
Q 1503 -91 1142 -33 
Q 781 25 428 141 
L 428 1069 
Q 766 900 1098 814 
Q 1431 728 1753 728 
Q 2231 728 2486 893 
Q 2741 1059 2741 1369 
Q 2741 1688 2480 1852 
Q 2219 2016 1709 2016 
L 1228 2016 
L 1228 2791 
L 1734 2791 
Q 2188 2791 2409 2933 
Q 2631 3075 2631 3366 
Q 2631 3634 2415 3781 
Q 2200 3928 1806 3928 
Q 1516 3928 1219 3862 
Q 922 3797 628 3669 
L 628 4550 
Q 984 4650 1334 4700 
Q 1684 4750 2022 4750 
Q 2931 4750 3382 4451 
Q 3834 4153 3834 3553 
Q 3834 3144 3618 2883 
Q 3403 2622 2981 2516 
z
" id="DejaVuSans-Bold-33" transform="scale(0.015625)"/>
     </defs>
     <use xlink:href="#DejaVuSans-Bold-39"/>
     <use x="69.580078" xlink:href="#DejaVuSans-Bold-37"/>
     <use x="139.160156" xlink:href="#DejaVuSans-Bold-33"/>
    </g>
   </g>
   <g id="legend_1">
    <g id="patch_6">
     <path d="M 418.841875 115.290375 
L 549.245 115.290375 
Q 551.445 115.290375 551.445 113.090375 
L 551.445 39.376625 
Q 551.445 37.176625 549.245 37.176625 
L 418.841875 37.176625 
Q 416.641875 37.176625 416.641875 39.376625 
L 416.641875 113.090375 
Q 416.641875 115.290375 418.841875 115.290375 
z
" style="fill:#ffffff;opacity:0.8;stroke:#cccccc;stroke-linejoin:miter;"/>
    </g>
    <g id="text_22">
     <!-- Cas positifs par semaine, -->
     <g transform="translate(421.041875 49.175062)scale(0.1 -0.1)">
      <defs>
       <path d="M 4122 4306 
L 4122 3641 
Q 3803 3938 3442 4084 
Q 3081 4231 2675 4231 
Q 1875 4231 1450 3742 
Q 1025 3253 1025 2328 
Q 1025 1406 1450 917 
Q 1875 428 2675 428 
Q 3081 428 3442 575 
Q 3803 722 4122 1019 
L 4122 359 
Q 3791 134 3420 21 
Q 3050 -91 2638 -91 
Q 1578 -91 968 557 
Q 359 1206 359 2328 
Q 359 3453 968 4101 
Q 1578 4750 2638 4750 
Q 3056 4750 3426 4639 
Q 3797 4528 4122 4306 
z
" id="DejaVuSans-43" transform="scale(0.015625)"/>
       <path id="DejaVuSans-20" transform="scale(0.015625)"/>
       <path d="M 750 794 
L 1409 794 
L 1409 256 
L 897 -744 
L 494 -744 
L 750 256 
L 750 794 
z
" id="DejaVuSans-2c" transform="scale(0.015625)"/>
      </defs>
      <use xlink:href="#DejaVuSans-43"/>
      <use x="69.824219" xlink:href="#DejaVuSans-61"/>
      <use x="131.103516" xlink:href="#DejaVuSans-73"/>
      <use x="183.203125" xlink:href="#DejaVuSans-20"/>
      <use x="214.990234" xlink:href="#DejaVuSans-70"/>
      <use x="278.466797" xlink:href="#DejaVuSans-6f"/>
      <use x="339.648438" xlink:href="#DejaVuSans-73"/>
      <use x="391.748047" xlink:href="#DejaVuSans-69"/>
      <use x="419.53125" xlink:href="#DejaVuSans-74"/>
      <use x="458.740234" xlink:href="#DejaVuSans-69"/>
      <use x="486.523438" xlink:href="#DejaVuSans-66"/>
      <use x="521.728516" xlink:href="#DejaVuSans-73"/>
      <use x="573.828125" xlink:href="#DejaVuSans-20"/>
      <use x="605.615234" xlink:href="#DejaVuSans-70"/>
      <use x="669.091797" xlink:href="#DejaVuSans-61"/>
      <use x="730.371094" xlink:href="#DejaVuSans-72"/>
      <use x="771.484375" xlink:href="#DejaVuSans-20"/>
      <use x="803.271484" xlink:href="#DejaVuSans-73"/>
      <use x="855.371094" xlink:href="#DejaVuSans-65"/>
      <use x="916.894531" xlink:href="#DejaVuSans-6d"/>
      <use x="1014.306641" xlink:href="#DejaVuSans-61"/>
      <use x="1075.585938" xlink:href="#DejaVuSans-69"/>
      <use x="1103.369141" xlink:href="#DejaVuSans-6e"/>
      <use x="1166.748047" xlink:href="#DejaVuSans-65"/>
      <use x="1228.271484" xlink:href="#DejaVuSans-2c"/>
     </g>
     <!-- pour 100 000 habitants -->
     <g transform="translate(425.177031 60.372875)scale(0.1 -0.1)">
      <defs>
       <path d="M 3513 2113 
L 3513 0 
L 2938 0 
L 2938 2094 
Q 2938 2591 2744 2837 
Q 2550 3084 2163 3084 
Q 1697 3084 1428 2787 
Q 1159 2491 1159 1978 
L 1159 0 
L 581 0 
L 581 4863 
L 1159 4863 
L 1159 2956 
Q 1366 3272 1645 3428 
Q 1925 3584 2291 3584 
Q 2894 3584 3203 3211 
Q 3513 2838 3513 2113 
z
" id="DejaVuSans-68" transform="scale(0.015625)"/>
       <path d="M 3116 1747 
Q 3116 2381 2855 2742 
Q 2594 3103 2138 3103 
Q 1681 3103 1420 2742 
Q 1159 2381 1159 1747 
Q 1159 1113 1420 752 
Q 1681 391 2138 391 
Q 2594 391 2855 752 
Q 3116 1113 3116 1747 
z
M 1159 2969 
Q 1341 3281 1617 3432 
Q 1894 3584 2278 3584 
Q 2916 3584 3314 3078 
Q 3713 2572 3713 1747 
Q 3713 922 3314 415 
Q 2916 -91 2278 -91 
Q 1894 -91 1617 61 
Q 1341 213 1159 525 
L 1159 0 
L 581 0 
L 581 4863 
L 1159 4863 
L 1159 2969 
z
" id="DejaVuSans-62" transform="scale(0.015625)"/>
      </defs>
      <use xlink:href="#DejaVuSans-70"/>
      <use x="63.476562" xlink:href="#DejaVuSans-6f"/>
      <use x="124.658203" xlink:href="#DejaVuSans-75"/>
      <use x="188.037109" xlink:href="#DejaVuSans-72"/>
      <use x="229.150391" xlink:href="#DejaVuSans-20"/>
      <use x="260.9375" xlink:href="#DejaVuSans-31"/>
      <use x="324.560547" xlink:href="#DejaVuSans-30"/>
      <use x="388.183594" xlink:href="#DejaVuSans-30"/>
      <use x="451.806641" xlink:href="#DejaVuSans-20"/>
      <use x="483.59375" xlink:href="#DejaVuSans-30"/>
      <use x="547.216797" xlink:href="#DejaVuSans-30"/>
      <use x="610.839844" xlink:href="#DejaVuSans-30"/>
      <use x="674.462891" xlink:href="#DejaVuSans-20"/>
      <use x="706.25" xlink:href="#DejaVuSans-68"/>
      <use x="769.628906" xlink:href="#DejaVuSans-61"/>
      <use x="830.908203" xlink:href="#DejaVuSans-62"/>
      <use x="894.384766" xlink:href="#DejaVuSans-69"/>
      <use x="922.167969" xlink:href="#DejaVuSans-74"/>
      <use x="961.376953" xlink:href="#DejaVuSans-61"/>
      <use x="1022.65625" xlink:href="#DejaVuSans-6e"/>
      <use x="1086.035156" xlink:href="#DejaVuSans-74"/>
      <use x="1125.244141" xlink:href="#DejaVuSans-73"/>
     </g>
    </g>
    <g id="line2d_36">
     <path d="M 438.180313 72.460844 
L 460.180313 72.460844 
" style="fill:none;stroke:#b22222;stroke-linecap:square;"/>
    </g>
    <g id="line2d_37"/>
    <g id="text_23">
     <!-- 0-29 ans -->
     <g transform="translate(465.680313 76.310844)scale(0.11 -0.11)">
      <defs>
       <path d="M 313 2009 
L 1997 2009 
L 1997 1497 
L 313 1497 
L 313 2009 
z
" id="DejaVuSans-2d" transform="scale(0.015625)"/>
       <path d="M 1228 531 
L 3431 531 
L 3431 0 
L 469 0 
L 469 531 
Q 828 903 1448 1529 
Q 2069 2156 2228 2338 
Q 2531 2678 2651 2914 
Q 2772 3150 2772 3378 
Q 2772 3750 2511 3984 
Q 2250 4219 1831 4219 
Q 1534 4219 1204 4116 
Q 875 4013 500 3803 
L 500 4441 
Q 881 4594 1212 4672 
Q 1544 4750 1819 4750 
Q 2544 4750 2975 4387 
Q 3406 4025 3406 3419 
Q 3406 3131 3298 2873 
Q 3191 2616 2906 2266 
Q 2828 2175 2409 1742 
Q 1991 1309 1228 531 
z
" id="DejaVuSans-32" transform="scale(0.015625)"/>
       <path d="M 703 97 
L 703 672 
Q 941 559 1184 500 
Q 1428 441 1663 441 
Q 2288 441 2617 861 
Q 2947 1281 2994 2138 
Q 2813 1869 2534 1725 
Q 2256 1581 1919 1581 
Q 1219 1581 811 2004 
Q 403 2428 403 3163 
Q 403 3881 828 4315 
Q 1253 4750 1959 4750 
Q 2769 4750 3195 4129 
Q 3622 3509 3622 2328 
Q 3622 1225 3098 567 
Q 2575 -91 1691 -91 
Q 1453 -91 1209 -44 
Q 966 3 703 97 
z
M 1959 2075 
Q 2384 2075 2632 2365 
Q 2881 2656 2881 3163 
Q 2881 3666 2632 3958 
Q 2384 4250 1959 4250 
Q 1534 4250 1286 3958 
Q 1038 3666 1038 3163 
Q 1038 2656 1286 2365 
Q 1534 2075 1959 2075 
z
" id="DejaVuSans-39" transform="scale(0.015625)"/>
      </defs>
      <use xlink:href="#DejaVuSans-30"/>
      <use x="63.623047" xlink:href="#DejaVuSans-2d"/>
      <use x="99.707031" xlink:href="#DejaVuSans-32"/>
      <use x="163.330078" xlink:href="#DejaVuSans-39"/>
      <use x="226.953125" xlink:href="#DejaVuSans-20"/>
      <use x="258.740234" xlink:href="#DejaVuSans-61"/>
      <use x="320.019531" xlink:href="#DejaVuSans-6e"/>
      <use x="383.398438" xlink:href="#DejaVuSans-73"/>
     </g>
    </g>
    <g id="line2d_38">
     <path d="M 438.180313 88.606781 
L 460.180313 88.606781 
" style="fill:none;stroke:#000000;stroke-linecap:square;stroke-width:1.5;"/>
    </g>
    <g id="line2d_39"/>
    <g id="text_24">
     <!-- 30-59 ans -->
     <g transform="translate(465.680313 92.456781)scale(0.11 -0.11)">
      <defs>
       <path d="M 2597 2516 
Q 3050 2419 3304 2112 
Q 3559 1806 3559 1356 
Q 3559 666 3084 287 
Q 2609 -91 1734 -91 
Q 1441 -91 1130 -33 
Q 819 25 488 141 
L 488 750 
Q 750 597 1062 519 
Q 1375 441 1716 441 
Q 2309 441 2620 675 
Q 2931 909 2931 1356 
Q 2931 1769 2642 2001 
Q 2353 2234 1838 2234 
L 1294 2234 
L 1294 2753 
L 1863 2753 
Q 2328 2753 2575 2939 
Q 2822 3125 2822 3475 
Q 2822 3834 2567 4026 
Q 2313 4219 1838 4219 
Q 1578 4219 1281 4162 
Q 984 4106 628 3988 
L 628 4550 
Q 988 4650 1302 4700 
Q 1616 4750 1894 4750 
Q 2613 4750 3031 4423 
Q 3450 4097 3450 3541 
Q 3450 3153 3228 2886 
Q 3006 2619 2597 2516 
z
" id="DejaVuSans-33" transform="scale(0.015625)"/>
      </defs>
      <use xlink:href="#DejaVuSans-33"/>
      <use x="63.623047" xlink:href="#DejaVuSans-30"/>
      <use x="127.246094" xlink:href="#DejaVuSans-2d"/>
      <use x="163.330078" xlink:href="#DejaVuSans-35"/>
      <use x="226.953125" xlink:href="#DejaVuSans-39"/>
      <use x="290.576172" xlink:href="#DejaVuSans-20"/>
      <use x="322.363281" xlink:href="#DejaVuSans-61"/>
      <use x="383.642578" xlink:href="#DejaVuSans-6e"/>
      <use x="447.021484" xlink:href="#DejaVuSans-73"/>
     </g>
    </g>
    <g id="line2d_40">
     <path d="M 438.180313 104.752719 
L 460.180313 104.752719 
" style="fill:none;stroke:#00ced1;stroke-linecap:square;stroke-width:3;"/>
    </g>
    <g id="line2d_41"/>
    <g id="text_25">
     <!-- 60 ans et + -->
     <g transform="translate(465.680313 108.602719)scale(0.11 -0.11)">
      <defs>
       <path d="M 2113 2584 
Q 1688 2584 1439 2293 
Q 1191 2003 1191 1497 
Q 1191 994 1439 701 
Q 1688 409 2113 409 
Q 2538 409 2786 701 
Q 3034 994 3034 1497 
Q 3034 2003 2786 2293 
Q 2538 2584 2113 2584 
z
M 3366 4563 
L 3366 3988 
Q 3128 4100 2886 4159 
Q 2644 4219 2406 4219 
Q 1781 4219 1451 3797 
Q 1122 3375 1075 2522 
Q 1259 2794 1537 2939 
Q 1816 3084 2150 3084 
Q 2853 3084 3261 2657 
Q 3669 2231 3669 1497 
Q 3669 778 3244 343 
Q 2819 -91 2113 -91 
Q 1303 -91 875 529 
Q 447 1150 447 2328 
Q 447 3434 972 4092 
Q 1497 4750 2381 4750 
Q 2619 4750 2861 4703 
Q 3103 4656 3366 4563 
z
" id="DejaVuSans-36" transform="scale(0.015625)"/>
       <path d="M 2944 4013 
L 2944 2272 
L 4684 2272 
L 4684 1741 
L 2944 1741 
L 2944 0 
L 2419 0 
L 2419 1741 
L 678 1741 
L 678 2272 
L 2419 2272 
L 2419 4013 
L 2944 4013 
z
" id="DejaVuSans-2b" transform="scale(0.015625)"/>
      </defs>
      <use xlink:href="#DejaVuSans-36"/>
      <use x="63.623047" xlink:href="#DejaVuSans-30"/>
      <use x="127.246094" xlink:href="#DejaVuSans-20"/>
      <use x="159.033203" xlink:href="#DejaVuSans-61"/>
      <use x="220.3125" xlink:href="#DejaVuSans-6e"/>
      <use x="283.691406" xlink:href="#DejaVuSans-73"/>
      <use x="335.791016" xlink:href="#DejaVuSans-20"/>
      <use x="367.578125" xlink:href="#DejaVuSans-65"/>
      <use x="429.101562" xlink:href="#DejaVuSans-74"/>
      <use x="468.310547" xlink:href="#DejaVuSans-20"/>
      <use x="500.097656" xlink:href="#DejaVuSans-2b"/>
     </g>
    </g>
   </g>
  </g>
 </g>
 <defs>
  <clipPath id="p970614bb19">
   <rect height="217.44" width="446.4" x="65.905" y="53.420625"/>
  </clipPath>
 </defs>
</svg>
