<?xml version="1.0" encoding="utf-8" standalone="no"?>
<!DOCTYPE svg PUBLIC "-//W3C//DTD SVG 1.1//EN"
  "http://www.w3.org/Graphics/SVG/1.1/DTD/svg11.dtd">
<svg height="336.049967pt" version="1.1" viewBox="0 0 575.9925 336.049967" width="575.9925pt" xmlns="http://www.w3.org/2000/svg" xmlns:xlink="http://www.w3.org/1999/xlink">
 <metadata>
  <rdf:RDF xmlns:cc="http://creativecommons.org/ns#" xmlns:dc="http://purl.org/dc/elements/1.1/" xmlns:rdf="http://www.w3.org/1999/02/22-rdf-syntax-ns#">
   <cc:Work>
    <dc:type rdf:resource="http://purl.org/dc/dcmitype/StillImage"/>
    <dc:date>2021-06-25T20:19:50.988970</dc:date>
    <dc:format>image/svg+xml</dc:format>
    <dc:creator>
     <cc:Agent>
      <dc:title>Matplotlib v3.4.1, https://matplotlib.org/</dc:title>
     </cc:Agent>
    </dc:creator>
   </cc:Work>
  </rdf:RDF>
 </metadata>
 <defs>
  <style type="text/css">*{stroke-linecap:butt;stroke-linejoin:round;}</style>
 </defs>
 <g id="figure_1">
  <g id="patch_1">
   <path d="M 0 336.049967 
L 575.9925 336.049967 
L 575.9925 0 
L 0 0 
z
" style="fill:#ffffff;"/>
  </g>
  <g id="axes_1">
   <g id="patch_2">
    <path d="M 54.4525 270.860625 
L 500.8525 270.860625 
L 500.8525 53.420625 
L 54.4525 53.420625 
z
" style="fill:none;opacity:0;"/>
   </g>
   <g id="patch_3">
    <path clip-path="url(#p5f9af924b2)" d="M 69.118619 270.860625 
L 69.118619 64.292625 
L 118.616771 64.292625 
L 118.616771 270.860625 
z
" style="fill:#808080;opacity:0.15;stroke:#808080;stroke-linejoin:miter;"/>
   </g>
   <g id="patch_4">
    <path clip-path="url(#p5f9af924b2)" d="M 277.194184 270.860625 
L 277.194184 64.292625 
L 319.359276 64.292625 
L 319.359276 270.860625 
z
" style="fill:#808080;opacity:0.15;stroke:#808080;stroke-linejoin:miter;"/>
   </g>
   <g id="patch_5">
    <path clip-path="url(#p5f9af924b2)" d="M 421.105477 270.860625 
L 421.105477 64.292625 
L 445.854553 64.292625 
L 445.854553 270.860625 
z
" style="fill:#808080;opacity:0.15;stroke:#808080;stroke-linejoin:miter;"/>
   </g>
   <g id="matplotlib.axis_1">
    <g id="xtick_1">
     <g id="line2d_1">
      <defs>
       <path d="M 0 0 
L 0 3.5 
" id="mbee33e8261" style="stroke:#000000;stroke-width:0.8;"/>
      </defs>
      <g>
       <use style="stroke:#000000;stroke-width:0.8;" x="54.4525" xlink:href="#mbee33e8261" y="270.860625"/>
      </g>
     </g>
     <g id="text_1">
      <!-- mars -->
      <g transform="translate(43.257895 298.726462)rotate(-45)scale(0.09 -0.09)">
       <defs>
        <path d="M 3328 2828 
Q 3544 3216 3844 3400 
Q 4144 3584 4550 3584 
Q 5097 3584 5394 3201 
Q 5691 2819 5691 2113 
L 5691 0 
L 5113 0 
L 5113 2094 
Q 5113 2597 4934 2840 
Q 4756 3084 4391 3084 
Q 3944 3084 3684 2787 
Q 3425 2491 3425 1978 
L 3425 0 
L 2847 0 
L 2847 2094 
Q 2847 2600 2669 2842 
Q 2491 3084 2119 3084 
Q 1678 3084 1418 2786 
Q 1159 2488 1159 1978 
L 1159 0 
L 581 0 
L 581 3500 
L 1159 3500 
L 1159 2956 
Q 1356 3278 1631 3431 
Q 1906 3584 2284 3584 
Q 2666 3584 2933 3390 
Q 3200 3197 3328 2828 
z
" id="DejaVuSans-6d" transform="scale(0.015625)"/>
        <path d="M 2194 1759 
Q 1497 1759 1228 1600 
Q 959 1441 959 1056 
Q 959 750 1161 570 
Q 1363 391 1709 391 
Q 2188 391 2477 730 
Q 2766 1069 2766 1631 
L 2766 1759 
L 2194 1759 
z
M 3341 1997 
L 3341 0 
L 2766 0 
L 2766 531 
Q 2569 213 2275 61 
Q 1981 -91 1556 -91 
Q 1019 -91 701 211 
Q 384 513 384 1019 
Q 384 1609 779 1909 
Q 1175 2209 1959 2209 
L 2766 2209 
L 2766 2266 
Q 2766 2663 2505 2880 
Q 2244 3097 1772 3097 
Q 1472 3097 1187 3025 
Q 903 2953 641 2809 
L 641 3341 
Q 956 3463 1253 3523 
Q 1550 3584 1831 3584 
Q 2591 3584 2966 3190 
Q 3341 2797 3341 1997 
z
" id="DejaVuSans-61" transform="scale(0.015625)"/>
        <path d="M 2631 2963 
Q 2534 3019 2420 3045 
Q 2306 3072 2169 3072 
Q 1681 3072 1420 2755 
Q 1159 2438 1159 1844 
L 1159 0 
L 581 0 
L 581 3500 
L 1159 3500 
L 1159 2956 
Q 1341 3275 1631 3429 
Q 1922 3584 2338 3584 
Q 2397 3584 2469 3576 
Q 2541 3569 2628 3553 
L 2631 2963 
z
" id="DejaVuSans-72" transform="scale(0.015625)"/>
        <path d="M 2834 3397 
L 2834 2853 
Q 2591 2978 2328 3040 
Q 2066 3103 1784 3103 
Q 1356 3103 1142 2972 
Q 928 2841 928 2578 
Q 928 2378 1081 2264 
Q 1234 2150 1697 2047 
L 1894 2003 
Q 2506 1872 2764 1633 
Q 3022 1394 3022 966 
Q 3022 478 2636 193 
Q 2250 -91 1575 -91 
Q 1294 -91 989 -36 
Q 684 19 347 128 
L 347 722 
Q 666 556 975 473 
Q 1284 391 1588 391 
Q 1994 391 2212 530 
Q 2431 669 2431 922 
Q 2431 1156 2273 1281 
Q 2116 1406 1581 1522 
L 1381 1569 
Q 847 1681 609 1914 
Q 372 2147 372 2553 
Q 372 3047 722 3315 
Q 1072 3584 1716 3584 
Q 2034 3584 2315 3537 
Q 2597 3491 2834 3397 
z
" id="DejaVuSans-73" transform="scale(0.015625)"/>
       </defs>
       <use xlink:href="#DejaVuSans-6d"/>
       <use x="97.412109" xlink:href="#DejaVuSans-61"/>
       <use x="158.691406" xlink:href="#DejaVuSans-72"/>
       <use x="199.804688" xlink:href="#DejaVuSans-73"/>
      </g>
     </g>
    </g>
    <g id="xtick_2">
     <g id="line2d_2">
      <g>
       <use style="stroke:#000000;stroke-width:0.8;" x="82.868106" xlink:href="#mbee33e8261" y="270.860625"/>
      </g>
     </g>
     <g id="text_2">
      <!-- avril -->
      <g transform="translate(73.884977 296.514986)rotate(-45)scale(0.09 -0.09)">
       <defs>
        <path d="M 191 3500 
L 800 3500 
L 1894 563 
L 2988 3500 
L 3597 3500 
L 2284 0 
L 1503 0 
L 191 3500 
z
" id="DejaVuSans-76" transform="scale(0.015625)"/>
        <path d="M 603 3500 
L 1178 3500 
L 1178 0 
L 603 0 
L 603 3500 
z
M 603 4863 
L 1178 4863 
L 1178 4134 
L 603 4134 
L 603 4863 
z
" id="DejaVuSans-69" transform="scale(0.015625)"/>
        <path d="M 603 4863 
L 1178 4863 
L 1178 0 
L 603 0 
L 603 4863 
z
" id="DejaVuSans-6c" transform="scale(0.015625)"/>
       </defs>
       <use xlink:href="#DejaVuSans-61"/>
       <use x="61.279297" xlink:href="#DejaVuSans-76"/>
       <use x="120.458984" xlink:href="#DejaVuSans-72"/>
       <use x="161.572266" xlink:href="#DejaVuSans-69"/>
       <use x="189.355469" xlink:href="#DejaVuSans-6c"/>
      </g>
     </g>
    </g>
    <g id="xtick_3">
     <g id="line2d_3">
      <g>
       <use style="stroke:#000000;stroke-width:0.8;" x="110.367079" xlink:href="#mbee33e8261" y="270.860625"/>
      </g>
     </g>
     <g id="text_3">
      <!-- mai -->
      <g transform="translate(103.335896 294.56304)rotate(-45)scale(0.09 -0.09)">
       <use xlink:href="#DejaVuSans-6d"/>
       <use x="97.412109" xlink:href="#DejaVuSans-61"/>
       <use x="158.691406" xlink:href="#DejaVuSans-69"/>
      </g>
     </g>
    </g>
    <g id="xtick_4">
     <g id="line2d_4">
      <g>
       <use style="stroke:#000000;stroke-width:0.8;" x="138.782685" xlink:href="#mbee33e8261" y="270.860625"/>
      </g>
     </g>
     <g id="text_4">
      <!-- juin -->
      <g transform="translate(132.016004 294.298537)rotate(-45)scale(0.09 -0.09)">
       <defs>
        <path d="M 603 3500 
L 1178 3500 
L 1178 -63 
Q 1178 -731 923 -1031 
Q 669 -1331 103 -1331 
L -116 -1331 
L -116 -844 
L 38 -844 
Q 366 -844 484 -692 
Q 603 -541 603 -63 
L 603 3500 
z
M 603 4863 
L 1178 4863 
L 1178 4134 
L 603 4134 
L 603 4863 
z
" id="DejaVuSans-6a" transform="scale(0.015625)"/>
        <path d="M 544 1381 
L 544 3500 
L 1119 3500 
L 1119 1403 
Q 1119 906 1312 657 
Q 1506 409 1894 409 
Q 2359 409 2629 706 
Q 2900 1003 2900 1516 
L 2900 3500 
L 3475 3500 
L 3475 0 
L 2900 0 
L 2900 538 
Q 2691 219 2414 64 
Q 2138 -91 1772 -91 
Q 1169 -91 856 284 
Q 544 659 544 1381 
z
M 1991 3584 
L 1991 3584 
z
" id="DejaVuSans-75" transform="scale(0.015625)"/>
        <path d="M 3513 2113 
L 3513 0 
L 2938 0 
L 2938 2094 
Q 2938 2591 2744 2837 
Q 2550 3084 2163 3084 
Q 1697 3084 1428 2787 
Q 1159 2491 1159 1978 
L 1159 0 
L 581 0 
L 581 3500 
L 1159 3500 
L 1159 2956 
Q 1366 3272 1645 3428 
Q 1925 3584 2291 3584 
Q 2894 3584 3203 3211 
Q 3513 2838 3513 2113 
z
" id="DejaVuSans-6e" transform="scale(0.015625)"/>
       </defs>
       <use xlink:href="#DejaVuSans-6a"/>
       <use x="27.783203" xlink:href="#DejaVuSans-75"/>
       <use x="91.162109" xlink:href="#DejaVuSans-69"/>
       <use x="118.945312" xlink:href="#DejaVuSans-6e"/>
      </g>
     </g>
    </g>
    <g id="xtick_5">
     <g id="line2d_5">
      <g>
       <use style="stroke:#000000;stroke-width:0.8;" x="166.281658" xlink:href="#mbee33e8261" y="270.860625"/>
      </g>
     </g>
     <g id="text_5">
      <!-- juil. -->
      <g transform="translate(159.757604 294.055911)rotate(-45)scale(0.09 -0.09)">
       <defs>
        <path d="M 684 794 
L 1344 794 
L 1344 0 
L 684 0 
L 684 794 
z
" id="DejaVuSans-2e" transform="scale(0.015625)"/>
       </defs>
       <use xlink:href="#DejaVuSans-6a"/>
       <use x="27.783203" xlink:href="#DejaVuSans-75"/>
       <use x="91.162109" xlink:href="#DejaVuSans-69"/>
       <use x="118.945312" xlink:href="#DejaVuSans-6c"/>
       <use x="146.728516" xlink:href="#DejaVuSans-2e"/>
      </g>
     </g>
    </g>
    <g id="xtick_6">
     <g id="line2d_6">
      <g>
       <use style="stroke:#000000;stroke-width:0.8;" x="194.697264" xlink:href="#mbee33e8261" y="270.860625"/>
      </g>
     </g>
     <g id="text_6">
      <!-- août -->
      <g transform="translate(185.210984 297.018136)rotate(-45)scale(0.09 -0.09)">
       <defs>
        <path d="M 1959 3097 
Q 1497 3097 1228 2736 
Q 959 2375 959 1747 
Q 959 1119 1226 758 
Q 1494 397 1959 397 
Q 2419 397 2687 759 
Q 2956 1122 2956 1747 
Q 2956 2369 2687 2733 
Q 2419 3097 1959 3097 
z
M 1959 3584 
Q 2709 3584 3137 3096 
Q 3566 2609 3566 1747 
Q 3566 888 3137 398 
Q 2709 -91 1959 -91 
Q 1206 -91 779 398 
Q 353 888 353 1747 
Q 353 2609 779 3096 
Q 1206 3584 1959 3584 
z
" id="DejaVuSans-6f" transform="scale(0.015625)"/>
        <path d="M 544 1381 
L 544 3500 
L 1119 3500 
L 1119 1403 
Q 1119 906 1312 657 
Q 1506 409 1894 409 
Q 2359 409 2629 706 
Q 2900 1003 2900 1516 
L 2900 3500 
L 3475 3500 
L 3475 0 
L 2900 0 
L 2900 538 
Q 2691 219 2414 64 
Q 2138 -91 1772 -91 
Q 1169 -91 856 284 
Q 544 659 544 1381 
z
M 1991 3584 
L 1991 3584 
z
M 1753 5119 
L 2215 5119 
L 2981 3944 
L 2547 3944 
L 1984 4709 
L 1422 3944 
L 987 3944 
L 1753 5119 
z
" id="DejaVuSans-fb" transform="scale(0.015625)"/>
        <path d="M 1172 4494 
L 1172 3500 
L 2356 3500 
L 2356 3053 
L 1172 3053 
L 1172 1153 
Q 1172 725 1289 603 
Q 1406 481 1766 481 
L 2356 481 
L 2356 0 
L 1766 0 
Q 1100 0 847 248 
Q 594 497 594 1153 
L 594 3053 
L 172 3053 
L 172 3500 
L 594 3500 
L 594 4494 
L 1172 4494 
z
" id="DejaVuSans-74" transform="scale(0.015625)"/>
       </defs>
       <use xlink:href="#DejaVuSans-61"/>
       <use x="61.279297" xlink:href="#DejaVuSans-6f"/>
       <use x="122.460938" xlink:href="#DejaVuSans-fb"/>
       <use x="185.839844" xlink:href="#DejaVuSans-74"/>
      </g>
     </g>
    </g>
    <g id="xtick_7">
     <g id="line2d_7">
      <g>
       <use style="stroke:#000000;stroke-width:0.8;" x="223.11287" xlink:href="#mbee33e8261" y="270.860625"/>
      </g>
     </g>
     <g id="text_7">
      <!-- sept. -->
      <g transform="translate(212.159896 298.484831)rotate(-45)scale(0.09 -0.09)">
       <defs>
        <path d="M 3597 1894 
L 3597 1613 
L 953 1613 
Q 991 1019 1311 708 
Q 1631 397 2203 397 
Q 2534 397 2845 478 
Q 3156 559 3463 722 
L 3463 178 
Q 3153 47 2828 -22 
Q 2503 -91 2169 -91 
Q 1331 -91 842 396 
Q 353 884 353 1716 
Q 353 2575 817 3079 
Q 1281 3584 2069 3584 
Q 2775 3584 3186 3129 
Q 3597 2675 3597 1894 
z
M 3022 2063 
Q 3016 2534 2758 2815 
Q 2500 3097 2075 3097 
Q 1594 3097 1305 2825 
Q 1016 2553 972 2059 
L 3022 2063 
z
" id="DejaVuSans-65" transform="scale(0.015625)"/>
        <path d="M 1159 525 
L 1159 -1331 
L 581 -1331 
L 581 3500 
L 1159 3500 
L 1159 2969 
Q 1341 3281 1617 3432 
Q 1894 3584 2278 3584 
Q 2916 3584 3314 3078 
Q 3713 2572 3713 1747 
Q 3713 922 3314 415 
Q 2916 -91 2278 -91 
Q 1894 -91 1617 61 
Q 1341 213 1159 525 
z
M 3116 1747 
Q 3116 2381 2855 2742 
Q 2594 3103 2138 3103 
Q 1681 3103 1420 2742 
Q 1159 2381 1159 1747 
Q 1159 1113 1420 752 
Q 1681 391 2138 391 
Q 2594 391 2855 752 
Q 3116 1113 3116 1747 
z
" id="DejaVuSans-70" transform="scale(0.015625)"/>
       </defs>
       <use xlink:href="#DejaVuSans-73"/>
       <use x="52.099609" xlink:href="#DejaVuSans-65"/>
       <use x="113.623047" xlink:href="#DejaVuSans-70"/>
       <use x="177.099609" xlink:href="#DejaVuSans-74"/>
       <use x="216.308594" xlink:href="#DejaVuSans-2e"/>
      </g>
     </g>
    </g>
    <g id="xtick_8">
     <g id="line2d_8">
      <g>
       <use style="stroke:#000000;stroke-width:0.8;" x="250.611843" xlink:href="#mbee33e8261" y="270.860625"/>
      </g>
     </g>
     <g id="text_8">
      <!-- oct. -->
      <g transform="translate(243.536908 294.606792)rotate(-45)scale(0.09 -0.09)">
       <defs>
        <path d="M 3122 3366 
L 3122 2828 
Q 2878 2963 2633 3030 
Q 2388 3097 2138 3097 
Q 1578 3097 1268 2742 
Q 959 2388 959 1747 
Q 959 1106 1268 751 
Q 1578 397 2138 397 
Q 2388 397 2633 464 
Q 2878 531 3122 666 
L 3122 134 
Q 2881 22 2623 -34 
Q 2366 -91 2075 -91 
Q 1284 -91 818 406 
Q 353 903 353 1747 
Q 353 2603 823 3093 
Q 1294 3584 2113 3584 
Q 2378 3584 2631 3529 
Q 2884 3475 3122 3366 
z
" id="DejaVuSans-63" transform="scale(0.015625)"/>
       </defs>
       <use xlink:href="#DejaVuSans-6f"/>
       <use x="61.181641" xlink:href="#DejaVuSans-63"/>
       <use x="116.162109" xlink:href="#DejaVuSans-74"/>
       <use x="155.371094" xlink:href="#DejaVuSans-2e"/>
      </g>
     </g>
    </g>
    <g id="xtick_9">
     <g id="line2d_9">
      <g>
       <use style="stroke:#000000;stroke-width:0.8;" x="279.027449" xlink:href="#mbee33e8261" y="270.860625"/>
      </g>
     </g>
     <g id="text_9">
      <!-- nov. -->
      <g transform="translate(270.639947 295.919359)rotate(-45)scale(0.09 -0.09)">
       <use xlink:href="#DejaVuSans-6e"/>
       <use x="63.378906" xlink:href="#DejaVuSans-6f"/>
       <use x="124.560547" xlink:href="#DejaVuSans-76"/>
       <use x="175.990234" xlink:href="#DejaVuSans-2e"/>
      </g>
     </g>
    </g>
    <g id="xtick_10">
     <g id="line2d_10">
      <g>
       <use style="stroke:#000000;stroke-width:0.8;" x="306.526422" xlink:href="#mbee33e8261" y="270.860625"/>
      </g>
     </g>
     <g id="text_10">
      <!-- déc. -->
      <g transform="translate(297.884362 296.173917)rotate(-45)scale(0.09 -0.09)">
       <defs>
        <path d="M 2906 2969 
L 2906 4863 
L 3481 4863 
L 3481 0 
L 2906 0 
L 2906 525 
Q 2725 213 2448 61 
Q 2172 -91 1784 -91 
Q 1150 -91 751 415 
Q 353 922 353 1747 
Q 353 2572 751 3078 
Q 1150 3584 1784 3584 
Q 2172 3584 2448 3432 
Q 2725 3281 2906 2969 
z
M 947 1747 
Q 947 1113 1208 752 
Q 1469 391 1925 391 
Q 2381 391 2643 752 
Q 2906 1113 2906 1747 
Q 2906 2381 2643 2742 
Q 2381 3103 1925 3103 
Q 1469 3103 1208 2742 
Q 947 2381 947 1747 
z
" id="DejaVuSans-64" transform="scale(0.015625)"/>
        <path d="M 3597 1894 
L 3597 1613 
L 953 1613 
Q 991 1019 1311 708 
Q 1631 397 2203 397 
Q 2534 397 2845 478 
Q 3156 559 3463 722 
L 3463 178 
Q 3153 47 2828 -22 
Q 2503 -91 2169 -91 
Q 1331 -91 842 396 
Q 353 884 353 1716 
Q 353 2575 817 3079 
Q 1281 3584 2069 3584 
Q 2775 3584 3186 3129 
Q 3597 2675 3597 1894 
z
M 3022 2063 
Q 3016 2534 2758 2815 
Q 2500 3097 2075 3097 
Q 1594 3097 1305 2825 
Q 1016 2553 972 2059 
L 3022 2063 
z
M 2466 5119 
L 3088 5119 
L 2070 3944 
L 1591 3944 
L 2466 5119 
z
" id="DejaVuSans-e9" transform="scale(0.015625)"/>
       </defs>
       <use xlink:href="#DejaVuSans-64"/>
       <use x="63.476562" xlink:href="#DejaVuSans-e9"/>
       <use x="125" xlink:href="#DejaVuSans-63"/>
       <use x="179.980469" xlink:href="#DejaVuSans-2e"/>
      </g>
     </g>
    </g>
    <g id="xtick_11">
     <g id="line2d_11">
      <g>
       <use style="stroke:#000000;stroke-width:0.8;" x="334.942028" xlink:href="#mbee33e8261" y="270.860625"/>
      </g>
     </g>
     <g id="text_11">
      <!-- janv. -->
      <g transform="translate(324.780572 297.693313)rotate(-45)scale(0.09 -0.09)">
       <use xlink:href="#DejaVuSans-6a"/>
       <use x="27.783203" xlink:href="#DejaVuSans-61"/>
       <use x="89.0625" xlink:href="#DejaVuSans-6e"/>
       <use x="152.441406" xlink:href="#DejaVuSans-76"/>
       <use x="203.871094" xlink:href="#DejaVuSans-2e"/>
      </g>
     </g>
    </g>
    <g id="xtick_12">
     <g id="line2d_12">
      <g>
       <use style="stroke:#000000;stroke-width:0.8;" x="363.357633" xlink:href="#mbee33e8261" y="270.860625"/>
      </g>
     </g>
     <g id="text_12">
      <!-- fév. -->
      <g transform="translate(356.741103 294.148388)rotate(-45)scale(0.09 -0.09)">
       <defs>
        <path d="M 2375 4863 
L 2375 4384 
L 1825 4384 
Q 1516 4384 1395 4259 
Q 1275 4134 1275 3809 
L 1275 3500 
L 2222 3500 
L 2222 3053 
L 1275 3053 
L 1275 0 
L 697 0 
L 697 3053 
L 147 3053 
L 147 3500 
L 697 3500 
L 697 3744 
Q 697 4328 969 4595 
Q 1241 4863 1831 4863 
L 2375 4863 
z
" id="DejaVuSans-66" transform="scale(0.015625)"/>
       </defs>
       <use xlink:href="#DejaVuSans-66"/>
       <use x="35.205078" xlink:href="#DejaVuSans-e9"/>
       <use x="96.728516" xlink:href="#DejaVuSans-76"/>
       <use x="148.158203" xlink:href="#DejaVuSans-2e"/>
      </g>
     </g>
    </g>
    <g id="xtick_13">
     <g id="line2d_13">
      <g>
       <use style="stroke:#000000;stroke-width:0.8;" x="389.023342" xlink:href="#mbee33e8261" y="270.860625"/>
      </g>
     </g>
     <g id="text_13">
      <!-- mars -->
      <g transform="translate(377.828737 298.726462)rotate(-45)scale(0.09 -0.09)">
       <use xlink:href="#DejaVuSans-6d"/>
       <use x="97.412109" xlink:href="#DejaVuSans-61"/>
       <use x="158.691406" xlink:href="#DejaVuSans-72"/>
       <use x="199.804688" xlink:href="#DejaVuSans-73"/>
      </g>
     </g>
    </g>
    <g id="xtick_14">
     <g id="line2d_14">
      <g>
       <use style="stroke:#000000;stroke-width:0.8;" x="417.438948" xlink:href="#mbee33e8261" y="270.860625"/>
      </g>
     </g>
     <g id="text_14">
      <!-- avril -->
      <g transform="translate(408.455819 296.514986)rotate(-45)scale(0.09 -0.09)">
       <use xlink:href="#DejaVuSans-61"/>
       <use x="61.279297" xlink:href="#DejaVuSans-76"/>
       <use x="120.458984" xlink:href="#DejaVuSans-72"/>
       <use x="161.572266" xlink:href="#DejaVuSans-69"/>
       <use x="189.355469" xlink:href="#DejaVuSans-6c"/>
      </g>
     </g>
    </g>
    <g id="xtick_15">
     <g id="line2d_15">
      <g>
       <use style="stroke:#000000;stroke-width:0.8;" x="444.937921" xlink:href="#mbee33e8261" y="270.860625"/>
      </g>
     </g>
     <g id="text_15">
      <!-- mai -->
      <g transform="translate(437.906738 294.56304)rotate(-45)scale(0.09 -0.09)">
       <use xlink:href="#DejaVuSans-6d"/>
       <use x="97.412109" xlink:href="#DejaVuSans-61"/>
       <use x="158.691406" xlink:href="#DejaVuSans-69"/>
      </g>
     </g>
    </g>
    <g id="xtick_16">
     <g id="line2d_16">
      <g>
       <use style="stroke:#000000;stroke-width:0.8;" x="473.353527" xlink:href="#mbee33e8261" y="270.860625"/>
      </g>
     </g>
     <g id="text_16">
      <!-- juin -->
      <g transform="translate(466.586846 294.298537)rotate(-45)scale(0.09 -0.09)">
       <use xlink:href="#DejaVuSans-6a"/>
       <use x="27.783203" xlink:href="#DejaVuSans-75"/>
       <use x="91.162109" xlink:href="#DejaVuSans-69"/>
       <use x="118.945312" xlink:href="#DejaVuSans-6e"/>
      </g>
     </g>
    </g>
    <g id="xtick_17">
     <g id="line2d_17">
      <g>
       <use style="stroke:#000000;stroke-width:0.8;" x="500.8525" xlink:href="#mbee33e8261" y="270.860625"/>
      </g>
     </g>
     <g id="text_17">
      <!-- juil. -->
      <g transform="translate(494.328446 294.055911)rotate(-45)scale(0.09 -0.09)">
       <use xlink:href="#DejaVuSans-6a"/>
       <use x="27.783203" xlink:href="#DejaVuSans-75"/>
       <use x="91.162109" xlink:href="#DejaVuSans-69"/>
       <use x="118.945312" xlink:href="#DejaVuSans-6c"/>
       <use x="146.728516" xlink:href="#DejaVuSans-2e"/>
      </g>
     </g>
    </g>
   </g>
   <g id="matplotlib.axis_2">
    <g id="ytick_1">
     <g id="line2d_18">
      <path clip-path="url(#p5f9af924b2)" d="M 54.4525 260.506339 
L 500.8525 260.506339 
" style="fill:none;stroke:#b0b0b0;stroke-linecap:square;stroke-opacity:0.5;stroke-width:0.8;"/>
     </g>
     <g id="text_18">
      <!-- 0 -->
      <g transform="translate(41.72625 263.925636)scale(0.09 -0.09)">
       <defs>
        <path d="M 2034 4250 
Q 1547 4250 1301 3770 
Q 1056 3291 1056 2328 
Q 1056 1369 1301 889 
Q 1547 409 2034 409 
Q 2525 409 2770 889 
Q 3016 1369 3016 2328 
Q 3016 3291 2770 3770 
Q 2525 4250 2034 4250 
z
M 2034 4750 
Q 2819 4750 3233 4129 
Q 3647 3509 3647 2328 
Q 3647 1150 3233 529 
Q 2819 -91 2034 -91 
Q 1250 -91 836 529 
Q 422 1150 422 2328 
Q 422 3509 836 4129 
Q 1250 4750 2034 4750 
z
" id="DejaVuSans-30" transform="scale(0.015625)"/>
       </defs>
       <use xlink:href="#DejaVuSans-30"/>
      </g>
     </g>
    </g>
    <g id="ytick_2">
     <g id="line2d_19">
      <path clip-path="url(#p5f9af924b2)" d="M 54.4525 218.243949 
L 500.8525 218.243949 
" style="fill:none;stroke:#b0b0b0;stroke-linecap:square;stroke-opacity:0.5;stroke-width:0.8;"/>
     </g>
     <g id="text_19">
      <!-- 20 -->
      <g transform="translate(36 221.663245)scale(0.09 -0.09)">
       <defs>
        <path d="M 1228 531 
L 3431 531 
L 3431 0 
L 469 0 
L 469 531 
Q 828 903 1448 1529 
Q 2069 2156 2228 2338 
Q 2531 2678 2651 2914 
Q 2772 3150 2772 3378 
Q 2772 3750 2511 3984 
Q 2250 4219 1831 4219 
Q 1534 4219 1204 4116 
Q 875 4013 500 3803 
L 500 4441 
Q 881 4594 1212 4672 
Q 1544 4750 1819 4750 
Q 2544 4750 2975 4387 
Q 3406 4025 3406 3419 
Q 3406 3131 3298 2873 
Q 3191 2616 2906 2266 
Q 2828 2175 2409 1742 
Q 1991 1309 1228 531 
z
" id="DejaVuSans-32" transform="scale(0.015625)"/>
       </defs>
       <use xlink:href="#DejaVuSans-32"/>
       <use x="63.623047" xlink:href="#DejaVuSans-30"/>
      </g>
     </g>
    </g>
    <g id="ytick_3">
     <g id="line2d_20">
      <path clip-path="url(#p5f9af924b2)" d="M 54.4525 175.981558 
L 500.8525 175.981558 
" style="fill:none;stroke:#b0b0b0;stroke-linecap:square;stroke-opacity:0.5;stroke-width:0.8;"/>
     </g>
     <g id="text_20">
      <!-- 40 -->
      <g transform="translate(36 179.400855)scale(0.09 -0.09)">
       <defs>
        <path d="M 2419 4116 
L 825 1625 
L 2419 1625 
L 2419 4116 
z
M 2253 4666 
L 3047 4666 
L 3047 1625 
L 3713 1625 
L 3713 1100 
L 3047 1100 
L 3047 0 
L 2419 0 
L 2419 1100 
L 313 1100 
L 313 1709 
L 2253 4666 
z
" id="DejaVuSans-34" transform="scale(0.015625)"/>
       </defs>
       <use xlink:href="#DejaVuSans-34"/>
       <use x="63.623047" xlink:href="#DejaVuSans-30"/>
      </g>
     </g>
    </g>
    <g id="ytick_4">
     <g id="line2d_21">
      <path clip-path="url(#p5f9af924b2)" d="M 54.4525 133.719167 
L 500.8525 133.719167 
" style="fill:none;stroke:#b0b0b0;stroke-linecap:square;stroke-opacity:0.5;stroke-width:0.8;"/>
     </g>
     <g id="text_21">
      <!-- 60 -->
      <g transform="translate(36 137.138464)scale(0.09 -0.09)">
       <defs>
        <path d="M 2113 2584 
Q 1688 2584 1439 2293 
Q 1191 2003 1191 1497 
Q 1191 994 1439 701 
Q 1688 409 2113 409 
Q 2538 409 2786 701 
Q 3034 994 3034 1497 
Q 3034 2003 2786 2293 
Q 2538 2584 2113 2584 
z
M 3366 4563 
L 3366 3988 
Q 3128 4100 2886 4159 
Q 2644 4219 2406 4219 
Q 1781 4219 1451 3797 
Q 1122 3375 1075 2522 
Q 1259 2794 1537 2939 
Q 1816 3084 2150 3084 
Q 2853 3084 3261 2657 
Q 3669 2231 3669 1497 
Q 3669 778 3244 343 
Q 2819 -91 2113 -91 
Q 1303 -91 875 529 
Q 447 1150 447 2328 
Q 447 3434 972 4092 
Q 1497 4750 2381 4750 
Q 2619 4750 2861 4703 
Q 3103 4656 3366 4563 
z
" id="DejaVuSans-36" transform="scale(0.015625)"/>
       </defs>
       <use xlink:href="#DejaVuSans-36"/>
       <use x="63.623047" xlink:href="#DejaVuSans-30"/>
      </g>
     </g>
    </g>
    <g id="ytick_5">
     <g id="line2d_22">
      <path clip-path="url(#p5f9af924b2)" d="M 54.4525 91.456777 
L 500.8525 91.456777 
" style="fill:none;stroke:#b0b0b0;stroke-linecap:square;stroke-opacity:0.5;stroke-width:0.8;"/>
     </g>
     <g id="text_22">
      <!-- 80 -->
      <g transform="translate(36 94.876073)scale(0.09 -0.09)">
       <defs>
        <path d="M 2034 2216 
Q 1584 2216 1326 1975 
Q 1069 1734 1069 1313 
Q 1069 891 1326 650 
Q 1584 409 2034 409 
Q 2484 409 2743 651 
Q 3003 894 3003 1313 
Q 3003 1734 2745 1975 
Q 2488 2216 2034 2216 
z
M 1403 2484 
Q 997 2584 770 2862 
Q 544 3141 544 3541 
Q 544 4100 942 4425 
Q 1341 4750 2034 4750 
Q 2731 4750 3128 4425 
Q 3525 4100 3525 3541 
Q 3525 3141 3298 2862 
Q 3072 2584 2669 2484 
Q 3125 2378 3379 2068 
Q 3634 1759 3634 1313 
Q 3634 634 3220 271 
Q 2806 -91 2034 -91 
Q 1263 -91 848 271 
Q 434 634 434 1313 
Q 434 1759 690 2068 
Q 947 2378 1403 2484 
z
M 1172 3481 
Q 1172 3119 1398 2916 
Q 1625 2713 2034 2713 
Q 2441 2713 2670 2916 
Q 2900 3119 2900 3481 
Q 2900 3844 2670 4047 
Q 2441 4250 2034 4250 
Q 1625 4250 1398 4047 
Q 1172 3844 1172 3481 
z
" id="DejaVuSans-38" transform="scale(0.015625)"/>
       </defs>
       <use xlink:href="#DejaVuSans-38"/>
       <use x="63.623047" xlink:href="#DejaVuSans-30"/>
      </g>
     </g>
    </g>
    <g id="ytick_6">
     <g id="line2d_23">
      <path clip-path="url(#p5f9af924b2)" d="M 54.4525 239.375144 
L 500.8525 239.375144 
" style="fill:none;stroke:#b0b0b0;stroke-linecap:square;stroke-opacity:0.2;stroke-width:0.8;"/>
     </g>
    </g>
    <g id="ytick_7">
     <g id="line2d_24">
      <path clip-path="url(#p5f9af924b2)" d="M 54.4525 197.112753 
L 500.8525 197.112753 
" style="fill:none;stroke:#b0b0b0;stroke-linecap:square;stroke-opacity:0.2;stroke-width:0.8;"/>
     </g>
    </g>
    <g id="ytick_8">
     <g id="line2d_25">
      <path clip-path="url(#p5f9af924b2)" d="M 54.4525 154.850363 
L 500.8525 154.850363 
" style="fill:none;stroke:#b0b0b0;stroke-linecap:square;stroke-opacity:0.2;stroke-width:0.8;"/>
     </g>
    </g>
    <g id="ytick_9">
     <g id="line2d_26">
      <path clip-path="url(#p5f9af924b2)" d="M 54.4525 112.587972 
L 500.8525 112.587972 
" style="fill:none;stroke:#b0b0b0;stroke-linecap:square;stroke-opacity:0.2;stroke-width:0.8;"/>
     </g>
    </g>
    <g id="ytick_10">
     <g id="line2d_27">
      <path clip-path="url(#p5f9af924b2)" d="M 54.4525 70.325581 
L 500.8525 70.325581 
" style="fill:none;stroke:#b0b0b0;stroke-linecap:square;stroke-opacity:0.2;stroke-width:0.8;"/>
     </g>
    </g>
   </g>
   <g id="line2d_28">
    <path clip-path="url(#p5f9af924b2)" d="M 54.4525 113.768131 
L 500.8525 113.768131 
" style="fill:none;stroke:#ffd700;stroke-linecap:square;stroke-width:0.8;"/>
   </g>
   <g id="line2d_29">
    <path clip-path="url(#p5f9af924b2)" d="M 330.358866 260.506339 
L 377.10712 260.398523 
L 427.521905 259.844927 
L 437.604861 259.372193 
L 440.354759 259.177294 
L 448.604451 258.509662 
L 451.354348 258.258781 
L 455.93751 257.927038 
L 460.520672 257.568341 
L 467.853732 256.935956 
L 471.520262 256.365773 
L 473.353527 256.077571 
L 476.103424 255.45348 
L 477.936689 254.991113 
L 479.769954 254.476912 
L 480.686586 253.892215 
L 481.603219 253.496196 
L 482.519851 252.93638 
L 483.436484 252.583903 
L 484.353116 252.364124 
L 485.269748 251.748326 
L 488.019646 250.562345 
L 488.936278 250.025336 
L 490.769543 249.502841 
L 493.51944 247.698989 
L 494.436073 247.342365 
L 494.436073 247.342365 
" style="fill:none;stroke:#b22222;stroke-linecap:square;"/>
   </g>
   <g id="line2d_30">
    <path clip-path="url(#p5f9af924b2)" d="M 330.358866 260.506339 
L 358.774471 260.48008 
L 365.190898 259.760254 
L 367.940796 259.387984 
L 368.857428 259.377171 
L 373.44059 258.578567 
L 376.190488 258.470439 
L 379.857017 258.025568 
L 383.523547 257.84484 
L 386.273445 257.645575 
L 389.023342 257.548259 
L 400.939564 256.704859 
L 414.68905 255.821297 
L 416.522315 255.569512 
L 417.438948 255.398052 
L 418.35558 255.082935 
L 420.188845 254.151487 
L 422.02211 253.453288 
L 427.521905 251.967297 
L 429.355169 251.266008 
L 431.188434 250.447322 
L 432.105067 249.667254 
L 433.021699 249.09263 
L 434.854964 248.320285 
L 436.688229 247.05364 
L 437.604861 246.25658 
L 438.521494 245.275703 
L 439.438126 244.858637 
L 442.188024 242.938588 
L 443.104656 242.232665 
L 444.937921 239.773519 
L 446.771186 238.548581 
L 447.687818 237.495103 
L 448.604451 235.978218 
L 450.437716 233.600941 
L 452.27098 231.381222 
L 455.020878 228.226967 
L 455.93751 227.928842 
L 457.770775 226.595775 
L 458.687408 226.187977 
L 460.520672 225.035639 
L 464.187202 222.536331 
L 465.103835 222.306173 
L 466.020467 222.238206 
L 466.9371 221.612607 
L 469.686997 216.837972 
L 470.603629 215.85555 
L 471.520262 215.345803 
L 472.436894 214.358746 
L 475.186792 210.06451 
L 477.020056 206.536439 
L 477.936689 205.496863 
L 479.769954 202.463094 
L 480.686586 200.329878 
L 481.603219 198.859333 
L 482.519851 196.837335 
L 483.436484 195.678818 
L 484.353116 194.82306 
L 486.186381 191.497344 
L 488.936278 186.938966 
L 490.769543 185.07916 
L 493.51944 180.536229 
L 494.436073 179.592424 
L 494.436073 179.592424 
" style="fill:none;stroke:#000000;stroke-linecap:square;stroke-width:1.5;"/>
   </g>
   <g id="line2d_31">
    <path clip-path="url(#p5f9af924b2)" d="M 330.358866 260.506339 
L 357.857839 260.478421 
L 358.774471 260.390676 
L 360.607736 259.774473 
L 363.357633 259.579043 
L 367.940796 258.573973 
L 368.857428 258.472269 
L 369.774061 257.959763 
L 370.690693 257.02449 
L 372.523958 255.606624 
L 373.44059 254.900682 
L 375.273855 254.62349 
L 376.190488 254.122949 
L 378.023753 252.236449 
L 379.857017 250.290123 
L 380.77365 249.919204 
L 381.690282 249.765652 
L 382.606915 249.057716 
L 385.356812 245.65364 
L 386.273445 244.604698 
L 388.106709 244.08621 
L 389.023342 243.36232 
L 392.689872 238.508471 
L 394.523137 238.033854 
L 395.439769 237.457534 
L 398.189666 234.141203 
L 399.106299 233.170034 
L 400.022931 232.629609 
L 400.939564 232.294586 
L 401.856196 231.566708 
L 403.689461 229.395039 
L 404.606093 228.425865 
L 406.439358 227.327068 
L 407.355991 227.179498 
L 408.272623 226.852452 
L 411.939153 224.75058 
L 414.68905 223.508202 
L 415.605683 222.535039 
L 416.522315 221.779242 
L 417.438948 220.664492 
L 418.35558 218.718166 
L 419.272213 217.136776 
L 421.105477 214.943172 
L 424.772007 209.550892 
L 425.68864 208.653508 
L 426.605272 208.256665 
L 428.438537 205.333188 
L 430.271802 202.272112 
L 432.105067 199.035548 
L 433.021699 197.266704 
L 433.938332 196.191838 
L 437.604861 189.040686 
L 438.521494 186.92286 
L 439.438126 185.95568 
L 441.271391 182.880645 
L 443.104656 179.905319 
L 444.021289 177.815412 
L 444.937921 176.168214 
L 446.771186 173.827039 
L 447.687818 171.916609 
L 448.604451 169.260353 
L 450.437716 165.29591 
L 452.27098 162.934794 
L 455.020878 158.280363 
L 455.93751 157.704043 
L 456.854143 156.224357 
L 457.770775 155.089665 
L 458.687408 154.327886 
L 460.520672 152.345665 
L 463.27057 149.679438 
L 464.187202 148.953554 
L 465.103835 148.636478 
L 466.020467 148.451019 
L 466.9371 147.673286 
L 467.853732 145.986205 
L 468.770364 143.918234 
L 469.686997 142.350803 
L 470.603629 141.261977 
L 471.520262 140.893053 
L 472.436894 139.782291 
L 475.186792 135.233552 
L 476.103424 133.211447 
L 477.020056 131.777628 
L 477.936689 131.22125 
L 478.853321 130.058639 
L 479.769954 128.702592 
L 480.686586 127.0534 
L 482.519851 124.343301 
L 483.436484 123.774958 
L 484.353116 123.39008 
L 486.186381 121.152603 
L 488.019646 119.080644 
L 488.936278 117.937975 
L 489.852911 117.391568 
L 490.769543 117.056545 
L 493.51944 114.436184 
L 494.436073 113.768131 
L 494.436073 113.768131 
" style="fill:none;stroke:#ffd700;stroke-linecap:square;stroke-width:3;"/>
   </g>
   <g id="line2d_32">
    <path clip-path="url(#p5f9af924b2)" d="M 54.4525 260.506339 
L 500.8525 260.506339 
" style="fill:none;stroke:#808080;stroke-linecap:square;stroke-width:0.8;"/>
   </g>
   <g id="line2d_33">
    <path clip-path="url(#p5f9af924b2)" d="M 334.942028 270.860625 
L 334.942028 64.292625 
" style="fill:none;stroke:#000000;stroke-dasharray:1.85,0.8;stroke-dashoffset:0;stroke-width:0.5;"/>
   </g>
   <g id="text_23">
    <!-- Corse -->
    <g style="fill:#4169e1;" transform="translate(248.965 49.677188)scale(0.18 -0.18)">
     <defs>
      <path d="M 4288 256 
Q 3956 84 3597 -3 
Q 3238 -91 2847 -91 
Q 1681 -91 1000 561 
Q 319 1213 319 2328 
Q 319 3447 1000 4098 
Q 1681 4750 2847 4750 
Q 3238 4750 3597 4662 
Q 3956 4575 4288 4403 
L 4288 3438 
Q 3953 3666 3628 3772 
Q 3303 3878 2944 3878 
Q 2300 3878 1931 3465 
Q 1563 3053 1563 2328 
Q 1563 1606 1931 1193 
Q 2300 781 2944 781 
Q 3303 781 3628 887 
Q 3953 994 4288 1222 
L 4288 256 
z
" id="DejaVuSans-Bold-43" transform="scale(0.015625)"/>
      <path d="M 2203 2784 
Q 1831 2784 1636 2517 
Q 1441 2250 1441 1747 
Q 1441 1244 1636 976 
Q 1831 709 2203 709 
Q 2569 709 2762 976 
Q 2956 1244 2956 1747 
Q 2956 2250 2762 2517 
Q 2569 2784 2203 2784 
z
M 2203 3584 
Q 3106 3584 3614 3096 
Q 4122 2609 4122 1747 
Q 4122 884 3614 396 
Q 3106 -91 2203 -91 
Q 1297 -91 786 396 
Q 275 884 275 1747 
Q 275 2609 786 3096 
Q 1297 3584 2203 3584 
z
" id="DejaVuSans-Bold-6f" transform="scale(0.015625)"/>
      <path d="M 3138 2547 
Q 2991 2616 2845 2648 
Q 2700 2681 2553 2681 
Q 2122 2681 1889 2404 
Q 1656 2128 1656 1613 
L 1656 0 
L 538 0 
L 538 3500 
L 1656 3500 
L 1656 2925 
Q 1872 3269 2151 3426 
Q 2431 3584 2822 3584 
Q 2878 3584 2943 3579 
Q 3009 3575 3134 3559 
L 3138 2547 
z
" id="DejaVuSans-Bold-72" transform="scale(0.015625)"/>
      <path d="M 3272 3391 
L 3272 2541 
Q 2913 2691 2578 2766 
Q 2244 2841 1947 2841 
Q 1628 2841 1473 2761 
Q 1319 2681 1319 2516 
Q 1319 2381 1436 2309 
Q 1553 2238 1856 2203 
L 2053 2175 
Q 2913 2066 3209 1816 
Q 3506 1566 3506 1031 
Q 3506 472 3093 190 
Q 2681 -91 1863 -91 
Q 1516 -91 1145 -36 
Q 775 19 384 128 
L 384 978 
Q 719 816 1070 734 
Q 1422 653 1784 653 
Q 2113 653 2278 743 
Q 2444 834 2444 1013 
Q 2444 1163 2330 1236 
Q 2216 1309 1875 1350 
L 1678 1375 
Q 931 1469 631 1722 
Q 331 1975 331 2491 
Q 331 3047 712 3315 
Q 1094 3584 1881 3584 
Q 2191 3584 2531 3537 
Q 2872 3491 3272 3391 
z
" id="DejaVuSans-Bold-73" transform="scale(0.015625)"/>
      <path d="M 4031 1759 
L 4031 1441 
L 1416 1441 
Q 1456 1047 1700 850 
Q 1944 653 2381 653 
Q 2734 653 3104 758 
Q 3475 863 3866 1075 
L 3866 213 
Q 3469 63 3072 -14 
Q 2675 -91 2278 -91 
Q 1328 -91 801 392 
Q 275 875 275 1747 
Q 275 2603 792 3093 
Q 1309 3584 2216 3584 
Q 3041 3584 3536 3087 
Q 4031 2591 4031 1759 
z
M 2881 2131 
Q 2881 2450 2695 2645 
Q 2509 2841 2209 2841 
Q 1884 2841 1681 2658 
Q 1478 2475 1428 2131 
L 2881 2131 
z
" id="DejaVuSans-Bold-65" transform="scale(0.015625)"/>
     </defs>
     <use xlink:href="#DejaVuSans-Bold-43"/>
     <use x="73.388672" xlink:href="#DejaVuSans-Bold-6f"/>
     <use x="142.089844" xlink:href="#DejaVuSans-Bold-72"/>
     <use x="191.40625" xlink:href="#DejaVuSans-Bold-73"/>
     <use x="250.927734" xlink:href="#DejaVuSans-Bold-65"/>
    </g>
   </g>
   <g id="legend_1">
    <g id="patch_6">
     <path d="M 418.258125 126.968187 
L 537.7925 126.968187 
Q 539.9925 126.968187 539.9925 124.768187 
L 539.9925 39.376625 
Q 539.9925 37.176625 537.7925 37.176625 
L 418.258125 37.176625 
Q 416.058125 37.176625 416.058125 39.376625 
L 416.058125 124.768187 
Q 416.058125 126.968187 418.258125 126.968187 
z
" style="fill:#ffffff;opacity:0.8;stroke:#cccccc;stroke-linejoin:miter;"/>
    </g>
    <g id="text_24">
     <!-- Personnes vaccinées, -->
     <g transform="translate(424.36125 49.175062)scale(0.1 -0.1)">
      <defs>
       <path d="M 1259 4147 
L 1259 2394 
L 2053 2394 
Q 2494 2394 2734 2622 
Q 2975 2850 2975 3272 
Q 2975 3691 2734 3919 
Q 2494 4147 2053 4147 
L 1259 4147 
z
M 628 4666 
L 2053 4666 
Q 2838 4666 3239 4311 
Q 3641 3956 3641 3272 
Q 3641 2581 3239 2228 
Q 2838 1875 2053 1875 
L 1259 1875 
L 1259 0 
L 628 0 
L 628 4666 
z
" id="DejaVuSans-50" transform="scale(0.015625)"/>
       <path id="DejaVuSans-20" transform="scale(0.015625)"/>
       <path d="M 750 794 
L 1409 794 
L 1409 256 
L 897 -744 
L 494 -744 
L 750 256 
L 750 794 
z
" id="DejaVuSans-2c" transform="scale(0.015625)"/>
      </defs>
      <use xlink:href="#DejaVuSans-50"/>
      <use x="56.677734" xlink:href="#DejaVuSans-65"/>
      <use x="118.201172" xlink:href="#DejaVuSans-72"/>
      <use x="159.314453" xlink:href="#DejaVuSans-73"/>
      <use x="211.414062" xlink:href="#DejaVuSans-6f"/>
      <use x="272.595703" xlink:href="#DejaVuSans-6e"/>
      <use x="335.974609" xlink:href="#DejaVuSans-6e"/>
      <use x="399.353516" xlink:href="#DejaVuSans-65"/>
      <use x="460.876953" xlink:href="#DejaVuSans-73"/>
      <use x="512.976562" xlink:href="#DejaVuSans-20"/>
      <use x="544.763672" xlink:href="#DejaVuSans-76"/>
      <use x="603.943359" xlink:href="#DejaVuSans-61"/>
      <use x="665.222656" xlink:href="#DejaVuSans-63"/>
      <use x="720.203125" xlink:href="#DejaVuSans-63"/>
      <use x="775.183594" xlink:href="#DejaVuSans-69"/>
      <use x="802.966797" xlink:href="#DejaVuSans-6e"/>
      <use x="866.345703" xlink:href="#DejaVuSans-e9"/>
      <use x="927.869141" xlink:href="#DejaVuSans-65"/>
      <use x="989.392578" xlink:href="#DejaVuSans-73"/>
      <use x="1041.492188" xlink:href="#DejaVuSans-2c"/>
     </g>
     <!-- pour 100 habitants -->
     <g transform="translate(430.291719 60.372875)scale(0.1 -0.1)">
      <defs>
       <path d="M 794 531 
L 1825 531 
L 1825 4091 
L 703 3866 
L 703 4441 
L 1819 4666 
L 2450 4666 
L 2450 531 
L 3481 531 
L 3481 0 
L 794 0 
L 794 531 
z
" id="DejaVuSans-31" transform="scale(0.015625)"/>
       <path d="M 3513 2113 
L 3513 0 
L 2938 0 
L 2938 2094 
Q 2938 2591 2744 2837 
Q 2550 3084 2163 3084 
Q 1697 3084 1428 2787 
Q 1159 2491 1159 1978 
L 1159 0 
L 581 0 
L 581 4863 
L 1159 4863 
L 1159 2956 
Q 1366 3272 1645 3428 
Q 1925 3584 2291 3584 
Q 2894 3584 3203 3211 
Q 3513 2838 3513 2113 
z
" id="DejaVuSans-68" transform="scale(0.015625)"/>
       <path d="M 3116 1747 
Q 3116 2381 2855 2742 
Q 2594 3103 2138 3103 
Q 1681 3103 1420 2742 
Q 1159 2381 1159 1747 
Q 1159 1113 1420 752 
Q 1681 391 2138 391 
Q 2594 391 2855 752 
Q 3116 1113 3116 1747 
z
M 1159 2969 
Q 1341 3281 1617 3432 
Q 1894 3584 2278 3584 
Q 2916 3584 3314 3078 
Q 3713 2572 3713 1747 
Q 3713 922 3314 415 
Q 2916 -91 2278 -91 
Q 1894 -91 1617 61 
Q 1341 213 1159 525 
L 1159 0 
L 581 0 
L 581 4863 
L 1159 4863 
L 1159 2969 
z
" id="DejaVuSans-62" transform="scale(0.015625)"/>
      </defs>
      <use xlink:href="#DejaVuSans-70"/>
      <use x="63.476562" xlink:href="#DejaVuSans-6f"/>
      <use x="124.658203" xlink:href="#DejaVuSans-75"/>
      <use x="188.037109" xlink:href="#DejaVuSans-72"/>
      <use x="229.150391" xlink:href="#DejaVuSans-20"/>
      <use x="260.9375" xlink:href="#DejaVuSans-31"/>
      <use x="324.560547" xlink:href="#DejaVuSans-30"/>
      <use x="388.183594" xlink:href="#DejaVuSans-30"/>
      <use x="451.806641" xlink:href="#DejaVuSans-20"/>
      <use x="483.59375" xlink:href="#DejaVuSans-68"/>
      <use x="546.972656" xlink:href="#DejaVuSans-61"/>
      <use x="608.251953" xlink:href="#DejaVuSans-62"/>
      <use x="671.728516" xlink:href="#DejaVuSans-69"/>
      <use x="699.511719" xlink:href="#DejaVuSans-74"/>
      <use x="738.720703" xlink:href="#DejaVuSans-61"/>
      <use x="800" xlink:href="#DejaVuSans-6e"/>
      <use x="863.378906" xlink:href="#DejaVuSans-74"/>
      <use x="902.587891" xlink:href="#DejaVuSans-73"/>
     </g>
     <!-- (vaccination complète) -->
     <g transform="translate(420.458125 72.050687)scale(0.1 -0.1)">
      <defs>
       <path d="M 1984 4856 
Q 1566 4138 1362 3434 
Q 1159 2731 1159 2009 
Q 1159 1288 1364 580 
Q 1569 -128 1984 -844 
L 1484 -844 
Q 1016 -109 783 600 
Q 550 1309 550 2009 
Q 550 2706 781 3412 
Q 1013 4119 1484 4856 
L 1984 4856 
z
" id="DejaVuSans-28" transform="scale(0.015625)"/>
       <path d="M 3597 1894 
L 3597 1613 
L 953 1613 
Q 991 1019 1311 708 
Q 1631 397 2203 397 
Q 2534 397 2845 478 
Q 3156 559 3463 722 
L 3463 178 
Q 3153 47 2828 -22 
Q 2503 -91 2169 -91 
Q 1331 -91 842 396 
Q 353 884 353 1716 
Q 353 2575 817 3079 
Q 1281 3584 2069 3584 
Q 2775 3584 3186 3129 
Q 3597 2675 3597 1894 
z
M 3022 2063 
Q 3016 2534 2758 2815 
Q 2500 3097 2075 3097 
Q 1594 3097 1305 2825 
Q 1016 2553 972 2059 
L 3022 2063 
z
M 1579 5119 
L 2460 3950 
L 1982 3950 
L 963 5119 
L 1579 5119 
z
" id="DejaVuSans-e8" transform="scale(0.015625)"/>
       <path d="M 513 4856 
L 1013 4856 
Q 1481 4119 1714 3412 
Q 1947 2706 1947 2009 
Q 1947 1309 1714 600 
Q 1481 -109 1013 -844 
L 513 -844 
Q 928 -128 1133 580 
Q 1338 1288 1338 2009 
Q 1338 2731 1133 3434 
Q 928 4138 513 4856 
z
" id="DejaVuSans-29" transform="scale(0.015625)"/>
      </defs>
      <use xlink:href="#DejaVuSans-28"/>
      <use x="39.013672" xlink:href="#DejaVuSans-76"/>
      <use x="98.193359" xlink:href="#DejaVuSans-61"/>
      <use x="159.472656" xlink:href="#DejaVuSans-63"/>
      <use x="214.453125" xlink:href="#DejaVuSans-63"/>
      <use x="269.433594" xlink:href="#DejaVuSans-69"/>
      <use x="297.216797" xlink:href="#DejaVuSans-6e"/>
      <use x="360.595703" xlink:href="#DejaVuSans-61"/>
      <use x="421.875" xlink:href="#DejaVuSans-74"/>
      <use x="461.083984" xlink:href="#DejaVuSans-69"/>
      <use x="488.867188" xlink:href="#DejaVuSans-6f"/>
      <use x="550.048828" xlink:href="#DejaVuSans-6e"/>
      <use x="613.427734" xlink:href="#DejaVuSans-20"/>
      <use x="645.214844" xlink:href="#DejaVuSans-63"/>
      <use x="700.195312" xlink:href="#DejaVuSans-6f"/>
      <use x="761.376953" xlink:href="#DejaVuSans-6d"/>
      <use x="858.789062" xlink:href="#DejaVuSans-70"/>
      <use x="922.265625" xlink:href="#DejaVuSans-6c"/>
      <use x="950.048828" xlink:href="#DejaVuSans-e8"/>
      <use x="1011.572266" xlink:href="#DejaVuSans-74"/>
      <use x="1050.78125" xlink:href="#DejaVuSans-65"/>
      <use x="1112.304688" xlink:href="#DejaVuSans-29"/>
     </g>
    </g>
    <g id="line2d_34">
     <path d="M 432.162188 84.138656 
L 454.162188 84.138656 
" style="fill:none;stroke:#b22222;stroke-linecap:square;"/>
    </g>
    <g id="line2d_35"/>
    <g id="text_25">
     <!-- 0-29 ans -->
     <g transform="translate(459.662188 87.988656)scale(0.11 -0.11)">
      <defs>
       <path d="M 313 2009 
L 1997 2009 
L 1997 1497 
L 313 1497 
L 313 2009 
z
" id="DejaVuSans-2d" transform="scale(0.015625)"/>
       <path d="M 703 97 
L 703 672 
Q 941 559 1184 500 
Q 1428 441 1663 441 
Q 2288 441 2617 861 
Q 2947 1281 2994 2138 
Q 2813 1869 2534 1725 
Q 2256 1581 1919 1581 
Q 1219 1581 811 2004 
Q 403 2428 403 3163 
Q 403 3881 828 4315 
Q 1253 4750 1959 4750 
Q 2769 4750 3195 4129 
Q 3622 3509 3622 2328 
Q 3622 1225 3098 567 
Q 2575 -91 1691 -91 
Q 1453 -91 1209 -44 
Q 966 3 703 97 
z
M 1959 2075 
Q 2384 2075 2632 2365 
Q 2881 2656 2881 3163 
Q 2881 3666 2632 3958 
Q 2384 4250 1959 4250 
Q 1534 4250 1286 3958 
Q 1038 3666 1038 3163 
Q 1038 2656 1286 2365 
Q 1534 2075 1959 2075 
z
" id="DejaVuSans-39" transform="scale(0.015625)"/>
      </defs>
      <use xlink:href="#DejaVuSans-30"/>
      <use x="63.623047" xlink:href="#DejaVuSans-2d"/>
      <use x="99.707031" xlink:href="#DejaVuSans-32"/>
      <use x="163.330078" xlink:href="#DejaVuSans-39"/>
      <use x="226.953125" xlink:href="#DejaVuSans-20"/>
      <use x="258.740234" xlink:href="#DejaVuSans-61"/>
      <use x="320.019531" xlink:href="#DejaVuSans-6e"/>
      <use x="383.398438" xlink:href="#DejaVuSans-73"/>
     </g>
    </g>
    <g id="line2d_36">
     <path d="M 432.162188 100.284594 
L 454.162188 100.284594 
" style="fill:none;stroke:#000000;stroke-linecap:square;stroke-width:1.5;"/>
    </g>
    <g id="line2d_37"/>
    <g id="text_26">
     <!-- 30-59 ans -->
     <g transform="translate(459.662188 104.134594)scale(0.11 -0.11)">
      <defs>
       <path d="M 2597 2516 
Q 3050 2419 3304 2112 
Q 3559 1806 3559 1356 
Q 3559 666 3084 287 
Q 2609 -91 1734 -91 
Q 1441 -91 1130 -33 
Q 819 25 488 141 
L 488 750 
Q 750 597 1062 519 
Q 1375 441 1716 441 
Q 2309 441 2620 675 
Q 2931 909 2931 1356 
Q 2931 1769 2642 2001 
Q 2353 2234 1838 2234 
L 1294 2234 
L 1294 2753 
L 1863 2753 
Q 2328 2753 2575 2939 
Q 2822 3125 2822 3475 
Q 2822 3834 2567 4026 
Q 2313 4219 1838 4219 
Q 1578 4219 1281 4162 
Q 984 4106 628 3988 
L 628 4550 
Q 988 4650 1302 4700 
Q 1616 4750 1894 4750 
Q 2613 4750 3031 4423 
Q 3450 4097 3450 3541 
Q 3450 3153 3228 2886 
Q 3006 2619 2597 2516 
z
" id="DejaVuSans-33" transform="scale(0.015625)"/>
       <path d="M 691 4666 
L 3169 4666 
L 3169 4134 
L 1269 4134 
L 1269 2991 
Q 1406 3038 1543 3061 
Q 1681 3084 1819 3084 
Q 2600 3084 3056 2656 
Q 3513 2228 3513 1497 
Q 3513 744 3044 326 
Q 2575 -91 1722 -91 
Q 1428 -91 1123 -41 
Q 819 9 494 109 
L 494 744 
Q 775 591 1075 516 
Q 1375 441 1709 441 
Q 2250 441 2565 725 
Q 2881 1009 2881 1497 
Q 2881 1984 2565 2268 
Q 2250 2553 1709 2553 
Q 1456 2553 1204 2497 
Q 953 2441 691 2322 
L 691 4666 
z
" id="DejaVuSans-35" transform="scale(0.015625)"/>
      </defs>
      <use xlink:href="#DejaVuSans-33"/>
      <use x="63.623047" xlink:href="#DejaVuSans-30"/>
      <use x="127.246094" xlink:href="#DejaVuSans-2d"/>
      <use x="163.330078" xlink:href="#DejaVuSans-35"/>
      <use x="226.953125" xlink:href="#DejaVuSans-39"/>
      <use x="290.576172" xlink:href="#DejaVuSans-20"/>
      <use x="322.363281" xlink:href="#DejaVuSans-61"/>
      <use x="383.642578" xlink:href="#DejaVuSans-6e"/>
      <use x="447.021484" xlink:href="#DejaVuSans-73"/>
     </g>
    </g>
    <g id="line2d_38">
     <path d="M 432.162188 116.430531 
L 454.162188 116.430531 
" style="fill:none;stroke:#ffd700;stroke-linecap:square;stroke-width:3;"/>
    </g>
    <g id="line2d_39"/>
    <g id="text_27">
     <!-- 60 ans et + -->
     <g transform="translate(459.662188 120.280531)scale(0.11 -0.11)">
      <defs>
       <path d="M 2944 4013 
L 2944 2272 
L 4684 2272 
L 4684 1741 
L 2944 1741 
L 2944 0 
L 2419 0 
L 2419 1741 
L 678 1741 
L 678 2272 
L 2419 2272 
L 2419 4013 
L 2944 4013 
z
" id="DejaVuSans-2b" transform="scale(0.015625)"/>
      </defs>
      <use xlink:href="#DejaVuSans-36"/>
      <use x="63.623047" xlink:href="#DejaVuSans-30"/>
      <use x="127.246094" xlink:href="#DejaVuSans-20"/>
      <use x="159.033203" xlink:href="#DejaVuSans-61"/>
      <use x="220.3125" xlink:href="#DejaVuSans-6e"/>
      <use x="283.691406" xlink:href="#DejaVuSans-73"/>
      <use x="335.791016" xlink:href="#DejaVuSans-20"/>
      <use x="367.578125" xlink:href="#DejaVuSans-65"/>
      <use x="429.101562" xlink:href="#DejaVuSans-74"/>
      <use x="468.310547" xlink:href="#DejaVuSans-20"/>
      <use x="500.097656" xlink:href="#DejaVuSans-2b"/>
     </g>
    </g>
   </g>
  </g>
 </g>
 <defs>
  <clipPath id="p5f9af924b2">
   <rect height="217.44" width="446.4" x="54.4525" y="53.420625"/>
  </clipPath>
 </defs>
</svg>
