<?xml version="1.0" encoding="utf-8" standalone="no"?>
<!DOCTYPE svg PUBLIC "-//W3C//DTD SVG 1.1//EN"
  "http://www.w3.org/Graphics/SVG/1.1/DTD/svg11.dtd">
<svg height="336.049967pt" version="1.1" viewBox="0 0 581.71875 336.049967" width="581.71875pt" xmlns="http://www.w3.org/2000/svg" xmlns:xlink="http://www.w3.org/1999/xlink">
 <metadata>
  <rdf:RDF xmlns:cc="http://creativecommons.org/ns#" xmlns:dc="http://purl.org/dc/elements/1.1/" xmlns:rdf="http://www.w3.org/1999/02/22-rdf-syntax-ns#">
   <cc:Work>
    <dc:type rdf:resource="http://purl.org/dc/dcmitype/StillImage"/>
    <dc:date>2021-06-13T09:56:31.127763</dc:date>
    <dc:format>image/svg+xml</dc:format>
    <dc:creator>
     <cc:Agent>
      <dc:title>Matplotlib v3.4.1, https://matplotlib.org/</dc:title>
     </cc:Agent>
    </dc:creator>
   </cc:Work>
  </rdf:RDF>
 </metadata>
 <defs>
  <style type="text/css">*{stroke-linecap:butt;stroke-linejoin:round;}</style>
 </defs>
 <g id="figure_1">
  <g id="patch_1">
   <path d="M 0 336.049967 
L 581.71875 336.049967 
L 581.71875 0 
L 0 0 
z
" style="fill:#ffffff;"/>
  </g>
  <g id="axes_1">
   <g id="patch_2">
    <path d="M 60.17875 270.860625 
L 506.57875 270.860625 
L 506.57875 53.420625 
L 60.17875 53.420625 
z
" style="fill:none;opacity:0;"/>
   </g>
   <g id="patch_3">
    <path clip-path="url(#p78b7ba0dfd)" d="M 74.844869 270.860625 
L 74.844869 64.292625 
L 124.343021 64.292625 
L 124.343021 270.860625 
z
" style="fill:#808080;opacity:0.15;stroke:#808080;stroke-linejoin:miter;"/>
   </g>
   <g id="patch_4">
    <path clip-path="url(#p78b7ba0dfd)" d="M 282.920434 270.860625 
L 282.920434 64.292625 
L 325.085526 64.292625 
L 325.085526 270.860625 
z
" style="fill:#808080;opacity:0.15;stroke:#808080;stroke-linejoin:miter;"/>
   </g>
   <g id="patch_5">
    <path clip-path="url(#p78b7ba0dfd)" d="M 426.831727 270.860625 
L 426.831727 64.292625 
L 451.580803 64.292625 
L 451.580803 270.860625 
z
" style="fill:#808080;opacity:0.15;stroke:#808080;stroke-linejoin:miter;"/>
   </g>
   <g id="matplotlib.axis_1">
    <g id="xtick_1">
     <g id="line2d_1">
      <defs>
       <path d="M 0 0 
L 0 3.5 
" id="m004e45d3ea" style="stroke:#000000;stroke-width:0.8;"/>
      </defs>
      <g>
       <use style="stroke:#000000;stroke-width:0.8;" x="60.17875" xlink:href="#m004e45d3ea" y="270.860625"/>
      </g>
     </g>
     <g id="text_1">
      <!-- mars -->
      <g transform="translate(48.984145 298.726462)rotate(-45)scale(0.09 -0.09)">
       <defs>
        <path d="M 3328 2828 
Q 3544 3216 3844 3400 
Q 4144 3584 4550 3584 
Q 5097 3584 5394 3201 
Q 5691 2819 5691 2113 
L 5691 0 
L 5113 0 
L 5113 2094 
Q 5113 2597 4934 2840 
Q 4756 3084 4391 3084 
Q 3944 3084 3684 2787 
Q 3425 2491 3425 1978 
L 3425 0 
L 2847 0 
L 2847 2094 
Q 2847 2600 2669 2842 
Q 2491 3084 2119 3084 
Q 1678 3084 1418 2786 
Q 1159 2488 1159 1978 
L 1159 0 
L 581 0 
L 581 3500 
L 1159 3500 
L 1159 2956 
Q 1356 3278 1631 3431 
Q 1906 3584 2284 3584 
Q 2666 3584 2933 3390 
Q 3200 3197 3328 2828 
z
" id="DejaVuSans-6d" transform="scale(0.015625)"/>
        <path d="M 2194 1759 
Q 1497 1759 1228 1600 
Q 959 1441 959 1056 
Q 959 750 1161 570 
Q 1363 391 1709 391 
Q 2188 391 2477 730 
Q 2766 1069 2766 1631 
L 2766 1759 
L 2194 1759 
z
M 3341 1997 
L 3341 0 
L 2766 0 
L 2766 531 
Q 2569 213 2275 61 
Q 1981 -91 1556 -91 
Q 1019 -91 701 211 
Q 384 513 384 1019 
Q 384 1609 779 1909 
Q 1175 2209 1959 2209 
L 2766 2209 
L 2766 2266 
Q 2766 2663 2505 2880 
Q 2244 3097 1772 3097 
Q 1472 3097 1187 3025 
Q 903 2953 641 2809 
L 641 3341 
Q 956 3463 1253 3523 
Q 1550 3584 1831 3584 
Q 2591 3584 2966 3190 
Q 3341 2797 3341 1997 
z
" id="DejaVuSans-61" transform="scale(0.015625)"/>
        <path d="M 2631 2963 
Q 2534 3019 2420 3045 
Q 2306 3072 2169 3072 
Q 1681 3072 1420 2755 
Q 1159 2438 1159 1844 
L 1159 0 
L 581 0 
L 581 3500 
L 1159 3500 
L 1159 2956 
Q 1341 3275 1631 3429 
Q 1922 3584 2338 3584 
Q 2397 3584 2469 3576 
Q 2541 3569 2628 3553 
L 2631 2963 
z
" id="DejaVuSans-72" transform="scale(0.015625)"/>
        <path d="M 2834 3397 
L 2834 2853 
Q 2591 2978 2328 3040 
Q 2066 3103 1784 3103 
Q 1356 3103 1142 2972 
Q 928 2841 928 2578 
Q 928 2378 1081 2264 
Q 1234 2150 1697 2047 
L 1894 2003 
Q 2506 1872 2764 1633 
Q 3022 1394 3022 966 
Q 3022 478 2636 193 
Q 2250 -91 1575 -91 
Q 1294 -91 989 -36 
Q 684 19 347 128 
L 347 722 
Q 666 556 975 473 
Q 1284 391 1588 391 
Q 1994 391 2212 530 
Q 2431 669 2431 922 
Q 2431 1156 2273 1281 
Q 2116 1406 1581 1522 
L 1381 1569 
Q 847 1681 609 1914 
Q 372 2147 372 2553 
Q 372 3047 722 3315 
Q 1072 3584 1716 3584 
Q 2034 3584 2315 3537 
Q 2597 3491 2834 3397 
z
" id="DejaVuSans-73" transform="scale(0.015625)"/>
       </defs>
       <use xlink:href="#DejaVuSans-6d"/>
       <use x="97.412109" xlink:href="#DejaVuSans-61"/>
       <use x="158.691406" xlink:href="#DejaVuSans-72"/>
       <use x="199.804688" xlink:href="#DejaVuSans-73"/>
      </g>
     </g>
    </g>
    <g id="xtick_2">
     <g id="line2d_2">
      <g>
       <use style="stroke:#000000;stroke-width:0.8;" x="88.594356" xlink:href="#m004e45d3ea" y="270.860625"/>
      </g>
     </g>
     <g id="text_2">
      <!-- avril -->
      <g transform="translate(79.611227 296.514986)rotate(-45)scale(0.09 -0.09)">
       <defs>
        <path d="M 191 3500 
L 800 3500 
L 1894 563 
L 2988 3500 
L 3597 3500 
L 2284 0 
L 1503 0 
L 191 3500 
z
" id="DejaVuSans-76" transform="scale(0.015625)"/>
        <path d="M 603 3500 
L 1178 3500 
L 1178 0 
L 603 0 
L 603 3500 
z
M 603 4863 
L 1178 4863 
L 1178 4134 
L 603 4134 
L 603 4863 
z
" id="DejaVuSans-69" transform="scale(0.015625)"/>
        <path d="M 603 4863 
L 1178 4863 
L 1178 0 
L 603 0 
L 603 4863 
z
" id="DejaVuSans-6c" transform="scale(0.015625)"/>
       </defs>
       <use xlink:href="#DejaVuSans-61"/>
       <use x="61.279297" xlink:href="#DejaVuSans-76"/>
       <use x="120.458984" xlink:href="#DejaVuSans-72"/>
       <use x="161.572266" xlink:href="#DejaVuSans-69"/>
       <use x="189.355469" xlink:href="#DejaVuSans-6c"/>
      </g>
     </g>
    </g>
    <g id="xtick_3">
     <g id="line2d_3">
      <g>
       <use style="stroke:#000000;stroke-width:0.8;" x="116.093329" xlink:href="#m004e45d3ea" y="270.860625"/>
      </g>
     </g>
     <g id="text_3">
      <!-- mai -->
      <g transform="translate(109.062146 294.56304)rotate(-45)scale(0.09 -0.09)">
       <use xlink:href="#DejaVuSans-6d"/>
       <use x="97.412109" xlink:href="#DejaVuSans-61"/>
       <use x="158.691406" xlink:href="#DejaVuSans-69"/>
      </g>
     </g>
    </g>
    <g id="xtick_4">
     <g id="line2d_4">
      <g>
       <use style="stroke:#000000;stroke-width:0.8;" x="144.508935" xlink:href="#m004e45d3ea" y="270.860625"/>
      </g>
     </g>
     <g id="text_4">
      <!-- juin -->
      <g transform="translate(137.742254 294.298537)rotate(-45)scale(0.09 -0.09)">
       <defs>
        <path d="M 603 3500 
L 1178 3500 
L 1178 -63 
Q 1178 -731 923 -1031 
Q 669 -1331 103 -1331 
L -116 -1331 
L -116 -844 
L 38 -844 
Q 366 -844 484 -692 
Q 603 -541 603 -63 
L 603 3500 
z
M 603 4863 
L 1178 4863 
L 1178 4134 
L 603 4134 
L 603 4863 
z
" id="DejaVuSans-6a" transform="scale(0.015625)"/>
        <path d="M 544 1381 
L 544 3500 
L 1119 3500 
L 1119 1403 
Q 1119 906 1312 657 
Q 1506 409 1894 409 
Q 2359 409 2629 706 
Q 2900 1003 2900 1516 
L 2900 3500 
L 3475 3500 
L 3475 0 
L 2900 0 
L 2900 538 
Q 2691 219 2414 64 
Q 2138 -91 1772 -91 
Q 1169 -91 856 284 
Q 544 659 544 1381 
z
M 1991 3584 
L 1991 3584 
z
" id="DejaVuSans-75" transform="scale(0.015625)"/>
        <path d="M 3513 2113 
L 3513 0 
L 2938 0 
L 2938 2094 
Q 2938 2591 2744 2837 
Q 2550 3084 2163 3084 
Q 1697 3084 1428 2787 
Q 1159 2491 1159 1978 
L 1159 0 
L 581 0 
L 581 3500 
L 1159 3500 
L 1159 2956 
Q 1366 3272 1645 3428 
Q 1925 3584 2291 3584 
Q 2894 3584 3203 3211 
Q 3513 2838 3513 2113 
z
" id="DejaVuSans-6e" transform="scale(0.015625)"/>
       </defs>
       <use xlink:href="#DejaVuSans-6a"/>
       <use x="27.783203" xlink:href="#DejaVuSans-75"/>
       <use x="91.162109" xlink:href="#DejaVuSans-69"/>
       <use x="118.945312" xlink:href="#DejaVuSans-6e"/>
      </g>
     </g>
    </g>
    <g id="xtick_5">
     <g id="line2d_5">
      <g>
       <use style="stroke:#000000;stroke-width:0.8;" x="172.007908" xlink:href="#m004e45d3ea" y="270.860625"/>
      </g>
     </g>
     <g id="text_5">
      <!-- juil. -->
      <g transform="translate(165.483854 294.055911)rotate(-45)scale(0.09 -0.09)">
       <defs>
        <path d="M 684 794 
L 1344 794 
L 1344 0 
L 684 0 
L 684 794 
z
" id="DejaVuSans-2e" transform="scale(0.015625)"/>
       </defs>
       <use xlink:href="#DejaVuSans-6a"/>
       <use x="27.783203" xlink:href="#DejaVuSans-75"/>
       <use x="91.162109" xlink:href="#DejaVuSans-69"/>
       <use x="118.945312" xlink:href="#DejaVuSans-6c"/>
       <use x="146.728516" xlink:href="#DejaVuSans-2e"/>
      </g>
     </g>
    </g>
    <g id="xtick_6">
     <g id="line2d_6">
      <g>
       <use style="stroke:#000000;stroke-width:0.8;" x="200.423514" xlink:href="#m004e45d3ea" y="270.860625"/>
      </g>
     </g>
     <g id="text_6">
      <!-- août -->
      <g transform="translate(190.937234 297.018136)rotate(-45)scale(0.09 -0.09)">
       <defs>
        <path d="M 1959 3097 
Q 1497 3097 1228 2736 
Q 959 2375 959 1747 
Q 959 1119 1226 758 
Q 1494 397 1959 397 
Q 2419 397 2687 759 
Q 2956 1122 2956 1747 
Q 2956 2369 2687 2733 
Q 2419 3097 1959 3097 
z
M 1959 3584 
Q 2709 3584 3137 3096 
Q 3566 2609 3566 1747 
Q 3566 888 3137 398 
Q 2709 -91 1959 -91 
Q 1206 -91 779 398 
Q 353 888 353 1747 
Q 353 2609 779 3096 
Q 1206 3584 1959 3584 
z
" id="DejaVuSans-6f" transform="scale(0.015625)"/>
        <path d="M 544 1381 
L 544 3500 
L 1119 3500 
L 1119 1403 
Q 1119 906 1312 657 
Q 1506 409 1894 409 
Q 2359 409 2629 706 
Q 2900 1003 2900 1516 
L 2900 3500 
L 3475 3500 
L 3475 0 
L 2900 0 
L 2900 538 
Q 2691 219 2414 64 
Q 2138 -91 1772 -91 
Q 1169 -91 856 284 
Q 544 659 544 1381 
z
M 1991 3584 
L 1991 3584 
z
M 1753 5119 
L 2215 5119 
L 2981 3944 
L 2547 3944 
L 1984 4709 
L 1422 3944 
L 987 3944 
L 1753 5119 
z
" id="DejaVuSans-fb" transform="scale(0.015625)"/>
        <path d="M 1172 4494 
L 1172 3500 
L 2356 3500 
L 2356 3053 
L 1172 3053 
L 1172 1153 
Q 1172 725 1289 603 
Q 1406 481 1766 481 
L 2356 481 
L 2356 0 
L 1766 0 
Q 1100 0 847 248 
Q 594 497 594 1153 
L 594 3053 
L 172 3053 
L 172 3500 
L 594 3500 
L 594 4494 
L 1172 4494 
z
" id="DejaVuSans-74" transform="scale(0.015625)"/>
       </defs>
       <use xlink:href="#DejaVuSans-61"/>
       <use x="61.279297" xlink:href="#DejaVuSans-6f"/>
       <use x="122.460938" xlink:href="#DejaVuSans-fb"/>
       <use x="185.839844" xlink:href="#DejaVuSans-74"/>
      </g>
     </g>
    </g>
    <g id="xtick_7">
     <g id="line2d_7">
      <g>
       <use style="stroke:#000000;stroke-width:0.8;" x="228.83912" xlink:href="#m004e45d3ea" y="270.860625"/>
      </g>
     </g>
     <g id="text_7">
      <!-- sept. -->
      <g transform="translate(217.886146 298.484831)rotate(-45)scale(0.09 -0.09)">
       <defs>
        <path d="M 3597 1894 
L 3597 1613 
L 953 1613 
Q 991 1019 1311 708 
Q 1631 397 2203 397 
Q 2534 397 2845 478 
Q 3156 559 3463 722 
L 3463 178 
Q 3153 47 2828 -22 
Q 2503 -91 2169 -91 
Q 1331 -91 842 396 
Q 353 884 353 1716 
Q 353 2575 817 3079 
Q 1281 3584 2069 3584 
Q 2775 3584 3186 3129 
Q 3597 2675 3597 1894 
z
M 3022 2063 
Q 3016 2534 2758 2815 
Q 2500 3097 2075 3097 
Q 1594 3097 1305 2825 
Q 1016 2553 972 2059 
L 3022 2063 
z
" id="DejaVuSans-65" transform="scale(0.015625)"/>
        <path d="M 1159 525 
L 1159 -1331 
L 581 -1331 
L 581 3500 
L 1159 3500 
L 1159 2969 
Q 1341 3281 1617 3432 
Q 1894 3584 2278 3584 
Q 2916 3584 3314 3078 
Q 3713 2572 3713 1747 
Q 3713 922 3314 415 
Q 2916 -91 2278 -91 
Q 1894 -91 1617 61 
Q 1341 213 1159 525 
z
M 3116 1747 
Q 3116 2381 2855 2742 
Q 2594 3103 2138 3103 
Q 1681 3103 1420 2742 
Q 1159 2381 1159 1747 
Q 1159 1113 1420 752 
Q 1681 391 2138 391 
Q 2594 391 2855 752 
Q 3116 1113 3116 1747 
z
" id="DejaVuSans-70" transform="scale(0.015625)"/>
       </defs>
       <use xlink:href="#DejaVuSans-73"/>
       <use x="52.099609" xlink:href="#DejaVuSans-65"/>
       <use x="113.623047" xlink:href="#DejaVuSans-70"/>
       <use x="177.099609" xlink:href="#DejaVuSans-74"/>
       <use x="216.308594" xlink:href="#DejaVuSans-2e"/>
      </g>
     </g>
    </g>
    <g id="xtick_8">
     <g id="line2d_8">
      <g>
       <use style="stroke:#000000;stroke-width:0.8;" x="256.338093" xlink:href="#m004e45d3ea" y="270.860625"/>
      </g>
     </g>
     <g id="text_8">
      <!-- oct. -->
      <g transform="translate(249.263158 294.606792)rotate(-45)scale(0.09 -0.09)">
       <defs>
        <path d="M 3122 3366 
L 3122 2828 
Q 2878 2963 2633 3030 
Q 2388 3097 2138 3097 
Q 1578 3097 1268 2742 
Q 959 2388 959 1747 
Q 959 1106 1268 751 
Q 1578 397 2138 397 
Q 2388 397 2633 464 
Q 2878 531 3122 666 
L 3122 134 
Q 2881 22 2623 -34 
Q 2366 -91 2075 -91 
Q 1284 -91 818 406 
Q 353 903 353 1747 
Q 353 2603 823 3093 
Q 1294 3584 2113 3584 
Q 2378 3584 2631 3529 
Q 2884 3475 3122 3366 
z
" id="DejaVuSans-63" transform="scale(0.015625)"/>
       </defs>
       <use xlink:href="#DejaVuSans-6f"/>
       <use x="61.181641" xlink:href="#DejaVuSans-63"/>
       <use x="116.162109" xlink:href="#DejaVuSans-74"/>
       <use x="155.371094" xlink:href="#DejaVuSans-2e"/>
      </g>
     </g>
    </g>
    <g id="xtick_9">
     <g id="line2d_9">
      <g>
       <use style="stroke:#000000;stroke-width:0.8;" x="284.753699" xlink:href="#m004e45d3ea" y="270.860625"/>
      </g>
     </g>
     <g id="text_9">
      <!-- nov. -->
      <g transform="translate(276.366197 295.919359)rotate(-45)scale(0.09 -0.09)">
       <use xlink:href="#DejaVuSans-6e"/>
       <use x="63.378906" xlink:href="#DejaVuSans-6f"/>
       <use x="124.560547" xlink:href="#DejaVuSans-76"/>
       <use x="175.990234" xlink:href="#DejaVuSans-2e"/>
      </g>
     </g>
    </g>
    <g id="xtick_10">
     <g id="line2d_10">
      <g>
       <use style="stroke:#000000;stroke-width:0.8;" x="312.252672" xlink:href="#m004e45d3ea" y="270.860625"/>
      </g>
     </g>
     <g id="text_10">
      <!-- déc. -->
      <g transform="translate(303.610612 296.173917)rotate(-45)scale(0.09 -0.09)">
       <defs>
        <path d="M 2906 2969 
L 2906 4863 
L 3481 4863 
L 3481 0 
L 2906 0 
L 2906 525 
Q 2725 213 2448 61 
Q 2172 -91 1784 -91 
Q 1150 -91 751 415 
Q 353 922 353 1747 
Q 353 2572 751 3078 
Q 1150 3584 1784 3584 
Q 2172 3584 2448 3432 
Q 2725 3281 2906 2969 
z
M 947 1747 
Q 947 1113 1208 752 
Q 1469 391 1925 391 
Q 2381 391 2643 752 
Q 2906 1113 2906 1747 
Q 2906 2381 2643 2742 
Q 2381 3103 1925 3103 
Q 1469 3103 1208 2742 
Q 947 2381 947 1747 
z
" id="DejaVuSans-64" transform="scale(0.015625)"/>
        <path d="M 3597 1894 
L 3597 1613 
L 953 1613 
Q 991 1019 1311 708 
Q 1631 397 2203 397 
Q 2534 397 2845 478 
Q 3156 559 3463 722 
L 3463 178 
Q 3153 47 2828 -22 
Q 2503 -91 2169 -91 
Q 1331 -91 842 396 
Q 353 884 353 1716 
Q 353 2575 817 3079 
Q 1281 3584 2069 3584 
Q 2775 3584 3186 3129 
Q 3597 2675 3597 1894 
z
M 3022 2063 
Q 3016 2534 2758 2815 
Q 2500 3097 2075 3097 
Q 1594 3097 1305 2825 
Q 1016 2553 972 2059 
L 3022 2063 
z
M 2466 5119 
L 3088 5119 
L 2070 3944 
L 1591 3944 
L 2466 5119 
z
" id="DejaVuSans-e9" transform="scale(0.015625)"/>
       </defs>
       <use xlink:href="#DejaVuSans-64"/>
       <use x="63.476562" xlink:href="#DejaVuSans-e9"/>
       <use x="125" xlink:href="#DejaVuSans-63"/>
       <use x="179.980469" xlink:href="#DejaVuSans-2e"/>
      </g>
     </g>
    </g>
    <g id="xtick_11">
     <g id="line2d_11">
      <g>
       <use style="stroke:#000000;stroke-width:0.8;" x="340.668278" xlink:href="#m004e45d3ea" y="270.860625"/>
      </g>
     </g>
     <g id="text_11">
      <!-- janv. -->
      <g transform="translate(330.506822 297.693313)rotate(-45)scale(0.09 -0.09)">
       <use xlink:href="#DejaVuSans-6a"/>
       <use x="27.783203" xlink:href="#DejaVuSans-61"/>
       <use x="89.0625" xlink:href="#DejaVuSans-6e"/>
       <use x="152.441406" xlink:href="#DejaVuSans-76"/>
       <use x="203.871094" xlink:href="#DejaVuSans-2e"/>
      </g>
     </g>
    </g>
    <g id="xtick_12">
     <g id="line2d_12">
      <g>
       <use style="stroke:#000000;stroke-width:0.8;" x="369.083883" xlink:href="#m004e45d3ea" y="270.860625"/>
      </g>
     </g>
     <g id="text_12">
      <!-- fév. -->
      <g transform="translate(362.467353 294.148388)rotate(-45)scale(0.09 -0.09)">
       <defs>
        <path d="M 2375 4863 
L 2375 4384 
L 1825 4384 
Q 1516 4384 1395 4259 
Q 1275 4134 1275 3809 
L 1275 3500 
L 2222 3500 
L 2222 3053 
L 1275 3053 
L 1275 0 
L 697 0 
L 697 3053 
L 147 3053 
L 147 3500 
L 697 3500 
L 697 3744 
Q 697 4328 969 4595 
Q 1241 4863 1831 4863 
L 2375 4863 
z
" id="DejaVuSans-66" transform="scale(0.015625)"/>
       </defs>
       <use xlink:href="#DejaVuSans-66"/>
       <use x="35.205078" xlink:href="#DejaVuSans-e9"/>
       <use x="96.728516" xlink:href="#DejaVuSans-76"/>
       <use x="148.158203" xlink:href="#DejaVuSans-2e"/>
      </g>
     </g>
    </g>
    <g id="xtick_13">
     <g id="line2d_13">
      <g>
       <use style="stroke:#000000;stroke-width:0.8;" x="394.749592" xlink:href="#m004e45d3ea" y="270.860625"/>
      </g>
     </g>
     <g id="text_13">
      <!-- mars -->
      <g transform="translate(383.554987 298.726462)rotate(-45)scale(0.09 -0.09)">
       <use xlink:href="#DejaVuSans-6d"/>
       <use x="97.412109" xlink:href="#DejaVuSans-61"/>
       <use x="158.691406" xlink:href="#DejaVuSans-72"/>
       <use x="199.804688" xlink:href="#DejaVuSans-73"/>
      </g>
     </g>
    </g>
    <g id="xtick_14">
     <g id="line2d_14">
      <g>
       <use style="stroke:#000000;stroke-width:0.8;" x="423.165198" xlink:href="#m004e45d3ea" y="270.860625"/>
      </g>
     </g>
     <g id="text_14">
      <!-- avril -->
      <g transform="translate(414.182069 296.514986)rotate(-45)scale(0.09 -0.09)">
       <use xlink:href="#DejaVuSans-61"/>
       <use x="61.279297" xlink:href="#DejaVuSans-76"/>
       <use x="120.458984" xlink:href="#DejaVuSans-72"/>
       <use x="161.572266" xlink:href="#DejaVuSans-69"/>
       <use x="189.355469" xlink:href="#DejaVuSans-6c"/>
      </g>
     </g>
    </g>
    <g id="xtick_15">
     <g id="line2d_15">
      <g>
       <use style="stroke:#000000;stroke-width:0.8;" x="450.664171" xlink:href="#m004e45d3ea" y="270.860625"/>
      </g>
     </g>
     <g id="text_15">
      <!-- mai -->
      <g transform="translate(443.632988 294.56304)rotate(-45)scale(0.09 -0.09)">
       <use xlink:href="#DejaVuSans-6d"/>
       <use x="97.412109" xlink:href="#DejaVuSans-61"/>
       <use x="158.691406" xlink:href="#DejaVuSans-69"/>
      </g>
     </g>
    </g>
    <g id="xtick_16">
     <g id="line2d_16">
      <g>
       <use style="stroke:#000000;stroke-width:0.8;" x="479.079777" xlink:href="#m004e45d3ea" y="270.860625"/>
      </g>
     </g>
     <g id="text_16">
      <!-- juin -->
      <g transform="translate(472.313096 294.298537)rotate(-45)scale(0.09 -0.09)">
       <use xlink:href="#DejaVuSans-6a"/>
       <use x="27.783203" xlink:href="#DejaVuSans-75"/>
       <use x="91.162109" xlink:href="#DejaVuSans-69"/>
       <use x="118.945312" xlink:href="#DejaVuSans-6e"/>
      </g>
     </g>
    </g>
    <g id="xtick_17">
     <g id="line2d_17">
      <g>
       <use style="stroke:#000000;stroke-width:0.8;" x="506.57875" xlink:href="#m004e45d3ea" y="270.860625"/>
      </g>
     </g>
     <g id="text_17">
      <!-- juil. -->
      <g transform="translate(500.054696 294.055911)rotate(-45)scale(0.09 -0.09)">
       <use xlink:href="#DejaVuSans-6a"/>
       <use x="27.783203" xlink:href="#DejaVuSans-75"/>
       <use x="91.162109" xlink:href="#DejaVuSans-69"/>
       <use x="118.945312" xlink:href="#DejaVuSans-6c"/>
       <use x="146.728516" xlink:href="#DejaVuSans-2e"/>
      </g>
     </g>
    </g>
   </g>
   <g id="matplotlib.axis_2">
    <g id="ytick_1">
     <g id="line2d_18">
      <path clip-path="url(#p78b7ba0dfd)" d="M 60.17875 260.506339 
L 506.57875 260.506339 
" style="fill:none;stroke:#b0b0b0;stroke-linecap:square;stroke-opacity:0.5;stroke-width:0.8;"/>
     </g>
     <g id="text_18">
      <!-- 0 -->
      <g transform="translate(47.4525 263.925636)scale(0.09 -0.09)">
       <defs>
        <path d="M 2034 4250 
Q 1547 4250 1301 3770 
Q 1056 3291 1056 2328 
Q 1056 1369 1301 889 
Q 1547 409 2034 409 
Q 2525 409 2770 889 
Q 3016 1369 3016 2328 
Q 3016 3291 2770 3770 
Q 2525 4250 2034 4250 
z
M 2034 4750 
Q 2819 4750 3233 4129 
Q 3647 3509 3647 2328 
Q 3647 1150 3233 529 
Q 2819 -91 2034 -91 
Q 1250 -91 836 529 
Q 422 1150 422 2328 
Q 422 3509 836 4129 
Q 1250 4750 2034 4750 
z
" id="DejaVuSans-30" transform="scale(0.015625)"/>
       </defs>
       <use xlink:href="#DejaVuSans-30"/>
      </g>
     </g>
    </g>
    <g id="ytick_2">
     <g id="line2d_19">
      <path clip-path="url(#p78b7ba0dfd)" d="M 60.17875 205.866309 
L 506.57875 205.866309 
" style="fill:none;stroke:#b0b0b0;stroke-linecap:square;stroke-opacity:0.5;stroke-width:0.8;"/>
     </g>
     <g id="text_19">
      <!-- 100 -->
      <g transform="translate(36 209.285606)scale(0.09 -0.09)">
       <defs>
        <path d="M 794 531 
L 1825 531 
L 1825 4091 
L 703 3866 
L 703 4441 
L 1819 4666 
L 2450 4666 
L 2450 531 
L 3481 531 
L 3481 0 
L 794 0 
L 794 531 
z
" id="DejaVuSans-31" transform="scale(0.015625)"/>
       </defs>
       <use xlink:href="#DejaVuSans-31"/>
       <use x="63.623047" xlink:href="#DejaVuSans-30"/>
       <use x="127.246094" xlink:href="#DejaVuSans-30"/>
      </g>
     </g>
    </g>
    <g id="ytick_3">
     <g id="line2d_20">
      <path clip-path="url(#p78b7ba0dfd)" d="M 60.17875 151.226279 
L 506.57875 151.226279 
" style="fill:none;stroke:#b0b0b0;stroke-linecap:square;stroke-opacity:0.5;stroke-width:0.8;"/>
     </g>
     <g id="text_20">
      <!-- 200 -->
      <g transform="translate(36 154.645576)scale(0.09 -0.09)">
       <defs>
        <path d="M 1228 531 
L 3431 531 
L 3431 0 
L 469 0 
L 469 531 
Q 828 903 1448 1529 
Q 2069 2156 2228 2338 
Q 2531 2678 2651 2914 
Q 2772 3150 2772 3378 
Q 2772 3750 2511 3984 
Q 2250 4219 1831 4219 
Q 1534 4219 1204 4116 
Q 875 4013 500 3803 
L 500 4441 
Q 881 4594 1212 4672 
Q 1544 4750 1819 4750 
Q 2544 4750 2975 4387 
Q 3406 4025 3406 3419 
Q 3406 3131 3298 2873 
Q 3191 2616 2906 2266 
Q 2828 2175 2409 1742 
Q 1991 1309 1228 531 
z
" id="DejaVuSans-32" transform="scale(0.015625)"/>
       </defs>
       <use xlink:href="#DejaVuSans-32"/>
       <use x="63.623047" xlink:href="#DejaVuSans-30"/>
       <use x="127.246094" xlink:href="#DejaVuSans-30"/>
      </g>
     </g>
    </g>
    <g id="ytick_4">
     <g id="line2d_21">
      <path clip-path="url(#p78b7ba0dfd)" d="M 60.17875 96.586249 
L 506.57875 96.586249 
" style="fill:none;stroke:#b0b0b0;stroke-linecap:square;stroke-opacity:0.5;stroke-width:0.8;"/>
     </g>
     <g id="text_21">
      <!-- 300 -->
      <g transform="translate(36 100.005546)scale(0.09 -0.09)">
       <defs>
        <path d="M 2597 2516 
Q 3050 2419 3304 2112 
Q 3559 1806 3559 1356 
Q 3559 666 3084 287 
Q 2609 -91 1734 -91 
Q 1441 -91 1130 -33 
Q 819 25 488 141 
L 488 750 
Q 750 597 1062 519 
Q 1375 441 1716 441 
Q 2309 441 2620 675 
Q 2931 909 2931 1356 
Q 2931 1769 2642 2001 
Q 2353 2234 1838 2234 
L 1294 2234 
L 1294 2753 
L 1863 2753 
Q 2328 2753 2575 2939 
Q 2822 3125 2822 3475 
Q 2822 3834 2567 4026 
Q 2313 4219 1838 4219 
Q 1578 4219 1281 4162 
Q 984 4106 628 3988 
L 628 4550 
Q 988 4650 1302 4700 
Q 1616 4750 1894 4750 
Q 2613 4750 3031 4423 
Q 3450 4097 3450 3541 
Q 3450 3153 3228 2886 
Q 3006 2619 2597 2516 
z
" id="DejaVuSans-33" transform="scale(0.015625)"/>
       </defs>
       <use xlink:href="#DejaVuSans-33"/>
       <use x="63.623047" xlink:href="#DejaVuSans-30"/>
       <use x="127.246094" xlink:href="#DejaVuSans-30"/>
      </g>
     </g>
    </g>
    <g id="ytick_5">
     <g id="line2d_22">
      <path clip-path="url(#p78b7ba0dfd)" d="M 60.17875 233.186324 
L 506.57875 233.186324 
" style="fill:none;stroke:#b0b0b0;stroke-linecap:square;stroke-opacity:0.2;stroke-width:0.8;"/>
     </g>
    </g>
    <g id="ytick_6">
     <g id="line2d_23">
      <path clip-path="url(#p78b7ba0dfd)" d="M 60.17875 178.546294 
L 506.57875 178.546294 
" style="fill:none;stroke:#b0b0b0;stroke-linecap:square;stroke-opacity:0.2;stroke-width:0.8;"/>
     </g>
    </g>
    <g id="ytick_7">
     <g id="line2d_24">
      <path clip-path="url(#p78b7ba0dfd)" d="M 60.17875 123.906264 
L 506.57875 123.906264 
" style="fill:none;stroke:#b0b0b0;stroke-linecap:square;stroke-opacity:0.2;stroke-width:0.8;"/>
     </g>
    </g>
    <g id="ytick_8">
     <g id="line2d_25">
      <path clip-path="url(#p78b7ba0dfd)" d="M 60.17875 69.266234 
L 506.57875 69.266234 
" style="fill:none;stroke:#b0b0b0;stroke-linecap:square;stroke-opacity:0.2;stroke-width:0.8;"/>
     </g>
    </g>
   </g>
   <g id="line2d_26">
    <path clip-path="url(#p78b7ba0dfd)" d="M 60.17875 231.001013 
L 506.57875 231.001013 
" style="fill:none;stroke:#3cb371;stroke-linecap:square;stroke-width:0.8;"/>
   </g>
   <g id="line2d_27">
    <path clip-path="url(#p78b7ba0dfd)" d="M 75.761502 260.297758 
L 83.094561 259.894502 
L 87.677723 259.556138 
L 91.344253 259.333651 
L 100.510578 259.282665 
L 112.426799 259.512104 
L 119.759859 259.65811 
L 123.426389 259.732272 
L 128.926183 259.82961 
L 136.259243 259.936218 
L 140.842405 259.989522 
L 162.841584 260.107718 
L 166.508113 260.140164 
L 180.2576 260.18188 
L 190.340557 260.177245 
L 198.590249 260.198103 
L 227.922487 260.165657 
L 231.589017 260.140164 
L 247.171768 260.089178 
L 266.42105 260.140164 
L 289.336861 259.426354 
L 301.253083 259.532962 
L 304.00298 259.576996 
L 331.501953 259.850468 
L 335.168483 259.831928 
L 377.333575 259.713732 
L 384.666635 259.732272 
L 388.333165 259.672016 
L 403.915916 259.709097 
L 411.248976 259.614077 
L 434.164787 259.291935 
L 436.914684 259.389273 
L 446.081009 259.356827 
L 451.580803 259.386955 
L 454.330701 259.38232 
L 489.162734 259.903772 
L 489.162734 259.903772 
" style="fill:none;stroke:#b22222;stroke-linecap:square;"/>
   </g>
   <g id="line2d_28">
    <path clip-path="url(#p78b7ba0dfd)" d="M 75.761502 258.974431 
L 76.678134 258.268052 
L 78.511399 257.299971 
L 79.428031 256.646783 
L 81.261296 255.002109 
L 84.927826 250.887234 
L 85.844458 249.668091 
L 88.594356 246.963848 
L 89.510988 246.227681 
L 90.427621 245.804279 
L 91.344253 245.795768 
L 93.177518 245.206409 
L 95.010783 245.480876 
L 95.927415 245.834066 
L 96.844048 245.946832 
L 97.76068 246.291511 
L 99.593945 246.261724 
L 100.510578 246.680871 
L 102.343842 247.736185 
L 103.260475 248.02129 
L 104.177107 248.593628 
L 106.010372 248.868095 
L 109.676902 250.378726 
L 110.593534 250.75532 
L 112.426799 250.86383 
L 114.260064 251.519146 
L 116.093329 252.051059 
L 118.843226 252.182973 
L 121.593124 253.144671 
L 123.426389 253.38084 
L 124.343021 253.391478 
L 129.842816 254.425516 
L 131.676081 254.587218 
L 132.592713 254.825514 
L 136.259243 255.251044 
L 138.092508 255.293597 
L 143.592302 256.034019 
L 145.425567 256.11487 
L 148.175465 256.344656 
L 154.591892 256.838271 
L 156.425157 256.948909 
L 158.258421 257.010611 
L 160.091686 257.13827 
L 165.591481 257.374439 
L 184.840762 258.157414 
L 201.340146 258.682943 
L 228.83912 258.721241 
L 239.838709 258.316988 
L 241.671974 258.210605 
L 244.421871 258.182946 
L 246.255136 258.240392 
L 250.838298 257.927628 
L 252.671563 257.868054 
L 254.504828 257.814862 
L 256.338093 257.836139 
L 257.254725 257.74465 
L 258.171358 257.827628 
L 260.921255 257.699969 
L 262.75452 257.657416 
L 267.337682 257.227631 
L 269.170947 257.178695 
L 272.837477 256.619123 
L 274.670742 256.159551 
L 275.587374 256.089338 
L 276.504007 255.751042 
L 277.420639 255.717 
L 278.337272 255.506362 
L 279.253904 254.991471 
L 282.003801 254.074454 
L 283.837066 253.623392 
L 285.670331 252.910629 
L 288.420228 252.278717 
L 290.253493 252.246803 
L 292.086758 251.589359 
L 293.920023 251.640423 
L 294.836656 251.153191 
L 295.753288 251.327658 
L 296.66992 251.627657 
L 298.503185 251.431913 
L 299.419818 251.772337 
L 303.086348 252.708503 
L 304.919612 252.740417 
L 309.502775 254.140411 
L 311.33604 254.08722 
L 314.085937 254.619132 
L 315.919202 254.82977 
L 317.752467 254.734025 
L 319.585732 254.919131 
L 321.418996 255.068066 
L 323.252261 254.985088 
L 324.168894 254.912748 
L 325.085526 255.01913 
L 326.002159 254.923386 
L 328.752056 255.040407 
L 331.501953 255.025513 
L 335.168483 255.33615 
L 338.835013 255.168066 
L 341.58491 255.182959 
L 343.418175 255.029769 
L 345.25144 255.225512 
L 347.084705 255.174449 
L 348.001337 255.229768 
L 349.834602 255.044662 
L 351.667867 255.01062 
L 356.251029 254.665941 
L 359.917559 254.602111 
L 360.834191 254.542537 
L 363.584089 254.078709 
L 364.500721 253.98722 
L 367.250619 254.044667 
L 370.000516 253.674456 
L 373.667046 253.827647 
L 375.500311 253.534031 
L 380.083473 253.934029 
L 381.916738 253.687222 
L 383.750003 253.742541 
L 386.4999 253.725519 
L 388.333165 253.365947 
L 389.249797 253.425521 
L 391.083062 253.289351 
L 392.916327 253.348925 
L 394.749592 253.017012 
L 398.416122 252.789353 
L 399.332754 252.885098 
L 400.249387 252.795736 
L 402.082651 252.470206 
L 403.915916 252.587227 
L 405.749181 252.60212 
L 406.665814 252.389355 
L 407.582446 252.044676 
L 412.165608 251.402126 
L 413.082241 251.189361 
L 413.998873 250.800001 
L 416.748771 250.40213 
L 417.665403 250.202131 
L 418.582035 250.22128 
L 420.4153 249.572347 
L 424.998463 249.048945 
L 426.831727 248.380863 
L 427.74836 247.906397 
L 428.664992 247.823419 
L 431.41489 248.008524 
L 433.248155 247.346825 
L 434.164787 247.331932 
L 435.998052 247.646824 
L 437.831317 247.814908 
L 439.664582 247.202145 
L 443.331111 247.327676 
L 444.247744 247.576611 
L 445.164376 247.438314 
L 446.081009 247.153209 
L 450.664171 248.159587 
L 452.497436 247.73193 
L 455.247333 248.919158 
L 457.080598 249.429794 
L 458.913863 249.33405 
L 461.66376 250.414896 
L 462.580393 250.521279 
L 463.497025 250.778724 
L 465.33029 250.79149 
L 468.080187 251.865953 
L 469.913452 252.32127 
L 472.66335 252.272335 
L 475.413247 253.176586 
L 476.329879 253.361691 
L 478.163144 253.38084 
L 479.079777 253.617009 
L 485.496204 254.399984 
L 488.246101 255.074449 
L 489.162734 255.176577 
L 489.162734 255.176577 
" style="fill:none;stroke:#000000;stroke-linecap:square;stroke-width:1.5;"/>
   </g>
   <g id="line2d_29">
    <path clip-path="url(#p78b7ba0dfd)" d="M 75.761502 254.096129 
L 76.678134 250.715087 
L 77.594766 249.139308 
L 79.428031 244.773021 
L 81.261296 238.341392 
L 83.094561 230.187115 
L 84.927826 222.329636 
L 86.761091 215.543074 
L 89.510988 203.600806 
L 90.427621 200.651191 
L 91.344253 198.527714 
L 92.260886 196.74693 
L 93.177518 194.64793 
L 95.010783 192.16034 
L 96.844048 188.733402 
L 97.76068 188.127568 
L 98.677313 186.545669 
L 99.593945 185.783787 
L 100.510578 184.523163 
L 102.343842 185.780727 
L 103.260475 185.655277 
L 104.177107 186.386561 
L 106.010372 186.022449 
L 106.927005 186.845526 
L 107.843637 187.390164 
L 108.76027 188.375409 
L 109.676902 189.53812 
L 110.593534 190.361198 
L 111.510167 190.352018 
L 112.426799 190.710011 
L 113.343432 191.8972 
L 114.260064 193.424024 
L 115.176697 194.577555 
L 116.093329 195.397573 
L 117.926594 195.516904 
L 118.843226 196.180873 
L 121.593124 201.801664 
L 122.509756 203.043929 
L 124.343021 203.395802 
L 125.259653 203.961859 
L 126.176286 205.626371 
L 128.009551 208.615763 
L 128.926183 210.160945 
L 129.842816 211.228803 
L 130.759448 211.397091 
L 131.676081 212.226287 
L 134.425978 215.821513 
L 136.259243 216.77616 
L 137.175875 216.779219 
L 138.092508 217.847078 
L 140.842405 221.983882 
L 141.759037 223.32406 
L 142.67567 224.073702 
L 144.508935 224.330723 
L 145.425567 225.006931 
L 147.258832 227.592434 
L 148.175465 228.709248 
L 149.092097 229.281424 
L 150.008729 229.327321 
L 150.925362 229.676134 
L 152.758627 231.288631 
L 153.675259 231.82103 
L 154.591892 232.723662 
L 155.508524 233.197925 
L 156.425157 233.27136 
L 157.341789 233.669129 
L 160.091686 235.306104 
L 161.008319 235.762009 
L 161.924951 236.058807 
L 162.841584 236.083285 
L 164.674849 236.946139 
L 168.341378 238.834015 
L 169.258011 238.824835 
L 170.174643 239.02678 
L 172.007908 239.895754 
L 173.841173 240.773907 
L 174.757805 240.966672 
L 175.674438 240.966672 
L 176.59107 241.104361 
L 178.424335 242.423121 
L 180.2576 243.059552 
L 184.840762 243.47262 
L 186.674027 244.090693 
L 189.423925 244.323235 
L 191.257189 244.828097 
L 192.173822 245.929613 
L 193.090454 246.556865 
L 194.007087 246.691495 
L 195.840352 246.777168 
L 198.590249 247.441137 
L 200.423514 247.848086 
L 202.256779 247.93376 
L 203.173411 248.06227 
L 204.090044 248.074509 
L 205.006676 248.359067 
L 205.923309 248.481458 
L 209.589838 248.490637 
L 210.506471 248.781315 
L 212.339736 248.961841 
L 215.089633 248.796614 
L 216.006265 249.059754 
L 216.922898 249.090351 
L 217.83953 249.249459 
L 221.50606 249.423866 
L 222.422693 249.647229 
L 226.089222 249.843054 
L 229.755752 249.63499 
L 231.589017 249.534017 
L 233.422282 249.445284 
L 234.338914 249.090351 
L 236.172179 248.85169 
L 237.088812 248.594669 
L 239.838709 248.236677 
L 241.671974 247.122922 
L 242.588606 246.75575 
L 243.505239 246.670076 
L 244.421871 246.786347 
L 245.338504 247.621664 
L 246.255136 248.034732 
L 247.171768 247.416659 
L 249.005033 246.605821 
L 253.588196 245.433931 
L 255.42146 244.809738 
L 258.171358 244.372192 
L 259.08799 243.824494 
L 260.004623 243.019775 
L 264.587785 241.018688 
L 265.504417 240.385316 
L 266.42105 239.329697 
L 268.254315 237.903846 
L 270.08758 235.572304 
L 271.004212 234.602358 
L 271.920844 233.375392 
L 274.670742 227.442505 
L 276.504007 222.672329 
L 278.337272 218.725231 
L 281.087169 209.197119 
L 283.837066 201.755767 
L 284.753699 199.36303 
L 286.586964 193.381187 
L 287.503596 189.847157 
L 288.420228 187.506436 
L 289.336861 185.814385 
L 290.253493 184.526223 
L 292.086758 180.233371 
L 293.920023 177.718243 
L 294.836656 176.243436 
L 295.753288 175.851786 
L 296.66992 176.041491 
L 297.586553 174.523847 
L 298.503185 173.364196 
L 299.419818 173.847639 
L 300.33645 174.49019 
L 301.253083 175.634542 
L 302.169715 176.58001 
L 303.086348 177.699885 
L 304.00298 177.262338 
L 304.919612 177.415326 
L 305.836245 179.554103 
L 308.586142 184.281442 
L 309.502775 185.297284 
L 310.419407 184.914814 
L 311.33604 185.153475 
L 313.169304 188.256078 
L 314.085937 188.993482 
L 315.002569 190.049101 
L 315.919202 190.639636 
L 316.835834 190.076639 
L 317.752467 189.880814 
L 318.669099 191.012928 
L 320.502364 192.793712 
L 321.418996 193.430143 
L 322.335629 193.479099 
L 324.168894 192.178699 
L 325.085526 192.711098 
L 326.002159 192.610126 
L 326.918791 192.851847 
L 327.835424 193.463801 
L 328.752056 193.85851 
L 329.668688 193.46686 
L 330.585321 192.922222 
L 331.501953 193.59537 
L 332.418586 193.788136 
L 334.251851 194.846815 
L 335.168483 194.614273 
L 336.085116 194.170607 
L 337.001748 194.164487 
L 337.91838 193.99008 
L 339.751645 194.871293 
L 340.668278 195.198688 
L 341.58491 194.733604 
L 342.501543 193.873809 
L 343.418175 193.414844 
L 344.334807 193.518876 
L 345.25144 193.901347 
L 346.168072 194.660169 
L 348.001337 195.412872 
L 349.834602 193.965602 
L 350.751235 194.305236 
L 351.667867 194.268519 
L 352.584499 193.671865 
L 354.417764 193.72694 
L 355.334397 193.151704 
L 356.251029 192.227655 
L 357.167662 192.41736 
L 358.084294 192.03183 
L 359.000927 191.949216 
L 359.917559 191.478012 
L 360.834191 191.560626 
L 362.667456 189.076096 
L 366.333986 188.075552 
L 367.250619 188.10309 
L 369.083883 186.585446 
L 370.000516 186.288649 
L 370.917148 186.438577 
L 373.667046 188.194883 
L 374.583678 187.485017 
L 375.500311 186.597685 
L 376.416943 187.57681 
L 377.333575 188.185704 
L 378.250208 189.394311 
L 379.16684 190.85382 
L 380.083473 191.441295 
L 381.000105 191.058824 
L 381.916738 190.98539 
L 385.583267 193.956423 
L 386.4999 194.586735 
L 387.416532 194.247101 
L 388.333165 193.445442 
L 390.16643 194.198144 
L 391.083062 195.134433 
L 391.999695 195.467947 
L 392.916327 195.923853 
L 393.832959 195.321079 
L 394.749592 195.079357 
L 398.416122 197.426198 
L 399.332754 197.726055 
L 400.249387 197.309927 
L 401.166019 196.508268 
L 402.082651 196.593941 
L 402.999284 197.153879 
L 405.749181 198.068749 
L 406.665814 197.465975 
L 407.582446 196.554164 
L 408.499079 196.649017 
L 409.415711 197.239552 
L 410.332343 197.300747 
L 411.248976 197.695457 
L 412.165608 197.291568 
L 413.082241 196.468491 
L 413.998873 195.339437 
L 414.915506 194.629571 
L 417.665403 193.947244 
L 418.582035 193.86463 
L 419.498668 193.020134 
L 420.4153 191.707495 
L 421.331933 191.340323 
L 422.248565 191.478012 
L 424.998463 190.783445 
L 426.831727 188.721163 
L 427.74836 187.231057 
L 428.664992 186.490593 
L 430.498257 188.10309 
L 431.41489 188.332572 
L 432.331522 187.521734 
L 433.248155 186.294768 
L 434.164787 186.334545 
L 435.081419 187.026052 
L 437.831317 188.246899 
L 438.747949 187.292252 
L 439.664582 186.53649 
L 441.497847 187.224937 
L 442.414479 188.118389 
L 444.247744 189.379013 
L 445.164376 188.984303 
L 446.081009 188.424365 
L 447.914274 189.859396 
L 448.830906 190.795684 
L 449.747539 192.227655 
L 450.664171 193.001776 
L 451.580803 192.665202 
L 452.497436 192.607066 
L 453.414068 193.586191 
L 456.163966 198.457339 
L 457.080598 199.632289 
L 457.99723 199.632289 
L 458.913863 200.14633 
L 459.830495 201.538524 
L 460.747128 203.258112 
L 461.66376 204.570752 
L 462.580393 205.149048 
L 463.497025 206.109815 
L 464.413658 206.051679 
L 465.33029 206.651393 
L 468.99682 212.422112 
L 469.913452 213.431835 
L 471.746717 213.661318 
L 472.66335 214.530291 
L 473.579982 216.494661 
L 475.413247 219.615623 
L 476.329879 220.640645 
L 477.246512 220.808932 
L 478.163144 221.368869 
L 481.829674 225.830008 
L 482.746306 226.399125 
L 483.662939 226.393005 
L 484.579571 226.910106 
L 485.496204 227.656689 
L 488.246101 230.51757 
L 489.162734 231.001013 
L 489.162734 231.001013 
" style="fill:none;stroke:#3cb371;stroke-linecap:square;stroke-width:3;"/>
   </g>
   <g id="line2d_30">
    <path clip-path="url(#p78b7ba0dfd)" d="M 60.17875 260.506339 
L 506.57875 260.506339 
" style="fill:none;stroke:#808080;stroke-linecap:square;stroke-width:0.8;"/>
   </g>
   <g id="line2d_31">
    <path clip-path="url(#p78b7ba0dfd)" d="M 340.668278 270.860625 
L 340.668278 64.292625 
" style="fill:none;stroke:#000000;stroke-dasharray:1.85,0.8;stroke-dashoffset:0;stroke-width:0.5;"/>
   </g>
   <g id="text_22">
    <!-- France -->
    <g style="fill:#4169e1;" transform="translate(249.445937 49.677188)scale(0.18 -0.18)">
     <defs>
      <path d="M 588 4666 
L 3834 4666 
L 3834 3756 
L 1791 3756 
L 1791 2888 
L 3713 2888 
L 3713 1978 
L 1791 1978 
L 1791 0 
L 588 0 
L 588 4666 
z
" id="DejaVuSans-Bold-46" transform="scale(0.015625)"/>
      <path d="M 3138 2547 
Q 2991 2616 2845 2648 
Q 2700 2681 2553 2681 
Q 2122 2681 1889 2404 
Q 1656 2128 1656 1613 
L 1656 0 
L 538 0 
L 538 3500 
L 1656 3500 
L 1656 2925 
Q 1872 3269 2151 3426 
Q 2431 3584 2822 3584 
Q 2878 3584 2943 3579 
Q 3009 3575 3134 3559 
L 3138 2547 
z
" id="DejaVuSans-Bold-72" transform="scale(0.015625)"/>
      <path d="M 2106 1575 
Q 1756 1575 1579 1456 
Q 1403 1338 1403 1106 
Q 1403 894 1545 773 
Q 1688 653 1941 653 
Q 2256 653 2472 879 
Q 2688 1106 2688 1447 
L 2688 1575 
L 2106 1575 
z
M 3816 1997 
L 3816 0 
L 2688 0 
L 2688 519 
Q 2463 200 2181 54 
Q 1900 -91 1497 -91 
Q 953 -91 614 226 
Q 275 544 275 1050 
Q 275 1666 698 1953 
Q 1122 2241 2028 2241 
L 2688 2241 
L 2688 2328 
Q 2688 2594 2478 2717 
Q 2269 2841 1825 2841 
Q 1466 2841 1156 2769 
Q 847 2697 581 2553 
L 581 3406 
Q 941 3494 1303 3539 
Q 1666 3584 2028 3584 
Q 2975 3584 3395 3211 
Q 3816 2838 3816 1997 
z
" id="DejaVuSans-Bold-61" transform="scale(0.015625)"/>
      <path d="M 4056 2131 
L 4056 0 
L 2931 0 
L 2931 347 
L 2931 1631 
Q 2931 2084 2911 2256 
Q 2891 2428 2841 2509 
Q 2775 2619 2662 2680 
Q 2550 2741 2406 2741 
Q 2056 2741 1856 2470 
Q 1656 2200 1656 1722 
L 1656 0 
L 538 0 
L 538 3500 
L 1656 3500 
L 1656 2988 
Q 1909 3294 2193 3439 
Q 2478 3584 2822 3584 
Q 3428 3584 3742 3212 
Q 4056 2841 4056 2131 
z
" id="DejaVuSans-Bold-6e" transform="scale(0.015625)"/>
      <path d="M 3366 3391 
L 3366 2478 
Q 3138 2634 2908 2709 
Q 2678 2784 2431 2784 
Q 1963 2784 1702 2511 
Q 1441 2238 1441 1747 
Q 1441 1256 1702 982 
Q 1963 709 2431 709 
Q 2694 709 2930 787 
Q 3166 866 3366 1019 
L 3366 103 
Q 3103 6 2833 -42 
Q 2563 -91 2291 -91 
Q 1344 -91 809 395 
Q 275 881 275 1747 
Q 275 2613 809 3098 
Q 1344 3584 2291 3584 
Q 2566 3584 2833 3536 
Q 3100 3488 3366 3391 
z
" id="DejaVuSans-Bold-63" transform="scale(0.015625)"/>
      <path d="M 4031 1759 
L 4031 1441 
L 1416 1441 
Q 1456 1047 1700 850 
Q 1944 653 2381 653 
Q 2734 653 3104 758 
Q 3475 863 3866 1075 
L 3866 213 
Q 3469 63 3072 -14 
Q 2675 -91 2278 -91 
Q 1328 -91 801 392 
Q 275 875 275 1747 
Q 275 2603 792 3093 
Q 1309 3584 2216 3584 
Q 3041 3584 3536 3087 
Q 4031 2591 4031 1759 
z
M 2881 2131 
Q 2881 2450 2695 2645 
Q 2509 2841 2209 2841 
Q 1884 2841 1681 2658 
Q 1478 2475 1428 2131 
L 2881 2131 
z
" id="DejaVuSans-Bold-65" transform="scale(0.015625)"/>
     </defs>
     <use xlink:href="#DejaVuSans-Bold-46"/>
     <use x="61.935547" xlink:href="#DejaVuSans-Bold-72"/>
     <use x="111.251953" xlink:href="#DejaVuSans-Bold-61"/>
     <use x="178.732422" xlink:href="#DejaVuSans-Bold-6e"/>
     <use x="249.923828" xlink:href="#DejaVuSans-Bold-63"/>
     <use x="309.201172" xlink:href="#DejaVuSans-Bold-65"/>
    </g>
   </g>
   <g id="legend_1">
    <g id="patch_6">
     <path d="M 421.385938 115.690375 
L 543.51875 115.690375 
Q 545.71875 115.690375 545.71875 113.490375 
L 545.71875 39.376625 
Q 545.71875 37.176625 543.51875 37.176625 
L 421.385938 37.176625 
Q 419.185938 37.176625 419.185938 39.376625 
L 419.185938 113.490375 
Q 419.185938 115.690375 421.385938 115.690375 
z
" style="fill:#ffffff;opacity:0.8;stroke:#cccccc;stroke-linejoin:miter;"/>
    </g>
    <g id="text_23">
     <!-- Patients hospitalisés, -->
     <g transform="translate(429.776563 49.575062)scale(0.1 -0.1)">
      <defs>
       <path d="M 1259 4147 
L 1259 2394 
L 2053 2394 
Q 2494 2394 2734 2622 
Q 2975 2850 2975 3272 
Q 2975 3691 2734 3919 
Q 2494 4147 2053 4147 
L 1259 4147 
z
M 628 4666 
L 2053 4666 
Q 2838 4666 3239 4311 
Q 3641 3956 3641 3272 
Q 3641 2581 3239 2228 
Q 2838 1875 2053 1875 
L 1259 1875 
L 1259 0 
L 628 0 
L 628 4666 
z
" id="DejaVuSans-50" transform="scale(0.015625)"/>
       <path id="DejaVuSans-20" transform="scale(0.015625)"/>
       <path d="M 3513 2113 
L 3513 0 
L 2938 0 
L 2938 2094 
Q 2938 2591 2744 2837 
Q 2550 3084 2163 3084 
Q 1697 3084 1428 2787 
Q 1159 2491 1159 1978 
L 1159 0 
L 581 0 
L 581 4863 
L 1159 4863 
L 1159 2956 
Q 1366 3272 1645 3428 
Q 1925 3584 2291 3584 
Q 2894 3584 3203 3211 
Q 3513 2838 3513 2113 
z
" id="DejaVuSans-68" transform="scale(0.015625)"/>
       <path d="M 750 794 
L 1409 794 
L 1409 256 
L 897 -744 
L 494 -744 
L 750 256 
L 750 794 
z
" id="DejaVuSans-2c" transform="scale(0.015625)"/>
      </defs>
      <use xlink:href="#DejaVuSans-50"/>
      <use x="55.802734" xlink:href="#DejaVuSans-61"/>
      <use x="117.082031" xlink:href="#DejaVuSans-74"/>
      <use x="156.291016" xlink:href="#DejaVuSans-69"/>
      <use x="184.074219" xlink:href="#DejaVuSans-65"/>
      <use x="245.597656" xlink:href="#DejaVuSans-6e"/>
      <use x="308.976562" xlink:href="#DejaVuSans-74"/>
      <use x="348.185547" xlink:href="#DejaVuSans-73"/>
      <use x="400.285156" xlink:href="#DejaVuSans-20"/>
      <use x="432.072266" xlink:href="#DejaVuSans-68"/>
      <use x="495.451172" xlink:href="#DejaVuSans-6f"/>
      <use x="556.632812" xlink:href="#DejaVuSans-73"/>
      <use x="608.732422" xlink:href="#DejaVuSans-70"/>
      <use x="672.208984" xlink:href="#DejaVuSans-69"/>
      <use x="699.992188" xlink:href="#DejaVuSans-74"/>
      <use x="739.201172" xlink:href="#DejaVuSans-61"/>
      <use x="800.480469" xlink:href="#DejaVuSans-6c"/>
      <use x="828.263672" xlink:href="#DejaVuSans-69"/>
      <use x="856.046875" xlink:href="#DejaVuSans-73"/>
      <use x="908.146484" xlink:href="#DejaVuSans-e9"/>
      <use x="969.669922" xlink:href="#DejaVuSans-73"/>
      <use x="1021.769531" xlink:href="#DejaVuSans-2c"/>
     </g>
     <!-- pour 100 000 habitants -->
     <g transform="translate(423.585938 60.772875)scale(0.1 -0.1)">
      <defs>
       <path d="M 3116 1747 
Q 3116 2381 2855 2742 
Q 2594 3103 2138 3103 
Q 1681 3103 1420 2742 
Q 1159 2381 1159 1747 
Q 1159 1113 1420 752 
Q 1681 391 2138 391 
Q 2594 391 2855 752 
Q 3116 1113 3116 1747 
z
M 1159 2969 
Q 1341 3281 1617 3432 
Q 1894 3584 2278 3584 
Q 2916 3584 3314 3078 
Q 3713 2572 3713 1747 
Q 3713 922 3314 415 
Q 2916 -91 2278 -91 
Q 1894 -91 1617 61 
Q 1341 213 1159 525 
L 1159 0 
L 581 0 
L 581 4863 
L 1159 4863 
L 1159 2969 
z
" id="DejaVuSans-62" transform="scale(0.015625)"/>
      </defs>
      <use xlink:href="#DejaVuSans-70"/>
      <use x="63.476562" xlink:href="#DejaVuSans-6f"/>
      <use x="124.658203" xlink:href="#DejaVuSans-75"/>
      <use x="188.037109" xlink:href="#DejaVuSans-72"/>
      <use x="229.150391" xlink:href="#DejaVuSans-20"/>
      <use x="260.9375" xlink:href="#DejaVuSans-31"/>
      <use x="324.560547" xlink:href="#DejaVuSans-30"/>
      <use x="388.183594" xlink:href="#DejaVuSans-30"/>
      <use x="451.806641" xlink:href="#DejaVuSans-20"/>
      <use x="483.59375" xlink:href="#DejaVuSans-30"/>
      <use x="547.216797" xlink:href="#DejaVuSans-30"/>
      <use x="610.839844" xlink:href="#DejaVuSans-30"/>
      <use x="674.462891" xlink:href="#DejaVuSans-20"/>
      <use x="706.25" xlink:href="#DejaVuSans-68"/>
      <use x="769.628906" xlink:href="#DejaVuSans-61"/>
      <use x="830.908203" xlink:href="#DejaVuSans-62"/>
      <use x="894.384766" xlink:href="#DejaVuSans-69"/>
      <use x="922.167969" xlink:href="#DejaVuSans-74"/>
      <use x="961.376953" xlink:href="#DejaVuSans-61"/>
      <use x="1022.65625" xlink:href="#DejaVuSans-6e"/>
      <use x="1086.035156" xlink:href="#DejaVuSans-74"/>
      <use x="1125.244141" xlink:href="#DejaVuSans-73"/>
     </g>
    </g>
    <g id="line2d_32">
     <path d="M 436.589219 72.860844 
L 458.589219 72.860844 
" style="fill:none;stroke:#b22222;stroke-linecap:square;"/>
    </g>
    <g id="line2d_33"/>
    <g id="text_24">
     <!-- 0-29 ans -->
     <g transform="translate(464.089219 76.710844)scale(0.11 -0.11)">
      <defs>
       <path d="M 313 2009 
L 1997 2009 
L 1997 1497 
L 313 1497 
L 313 2009 
z
" id="DejaVuSans-2d" transform="scale(0.015625)"/>
       <path d="M 703 97 
L 703 672 
Q 941 559 1184 500 
Q 1428 441 1663 441 
Q 2288 441 2617 861 
Q 2947 1281 2994 2138 
Q 2813 1869 2534 1725 
Q 2256 1581 1919 1581 
Q 1219 1581 811 2004 
Q 403 2428 403 3163 
Q 403 3881 828 4315 
Q 1253 4750 1959 4750 
Q 2769 4750 3195 4129 
Q 3622 3509 3622 2328 
Q 3622 1225 3098 567 
Q 2575 -91 1691 -91 
Q 1453 -91 1209 -44 
Q 966 3 703 97 
z
M 1959 2075 
Q 2384 2075 2632 2365 
Q 2881 2656 2881 3163 
Q 2881 3666 2632 3958 
Q 2384 4250 1959 4250 
Q 1534 4250 1286 3958 
Q 1038 3666 1038 3163 
Q 1038 2656 1286 2365 
Q 1534 2075 1959 2075 
z
" id="DejaVuSans-39" transform="scale(0.015625)"/>
      </defs>
      <use xlink:href="#DejaVuSans-30"/>
      <use x="63.623047" xlink:href="#DejaVuSans-2d"/>
      <use x="99.707031" xlink:href="#DejaVuSans-32"/>
      <use x="163.330078" xlink:href="#DejaVuSans-39"/>
      <use x="226.953125" xlink:href="#DejaVuSans-20"/>
      <use x="258.740234" xlink:href="#DejaVuSans-61"/>
      <use x="320.019531" xlink:href="#DejaVuSans-6e"/>
      <use x="383.398438" xlink:href="#DejaVuSans-73"/>
     </g>
    </g>
    <g id="line2d_34">
     <path d="M 436.589219 89.006781 
L 458.589219 89.006781 
" style="fill:none;stroke:#000000;stroke-linecap:square;stroke-width:1.5;"/>
    </g>
    <g id="line2d_35"/>
    <g id="text_25">
     <!-- 30-59 ans -->
     <g transform="translate(464.089219 92.856781)scale(0.11 -0.11)">
      <defs>
       <path d="M 691 4666 
L 3169 4666 
L 3169 4134 
L 1269 4134 
L 1269 2991 
Q 1406 3038 1543 3061 
Q 1681 3084 1819 3084 
Q 2600 3084 3056 2656 
Q 3513 2228 3513 1497 
Q 3513 744 3044 326 
Q 2575 -91 1722 -91 
Q 1428 -91 1123 -41 
Q 819 9 494 109 
L 494 744 
Q 775 591 1075 516 
Q 1375 441 1709 441 
Q 2250 441 2565 725 
Q 2881 1009 2881 1497 
Q 2881 1984 2565 2268 
Q 2250 2553 1709 2553 
Q 1456 2553 1204 2497 
Q 953 2441 691 2322 
L 691 4666 
z
" id="DejaVuSans-35" transform="scale(0.015625)"/>
      </defs>
      <use xlink:href="#DejaVuSans-33"/>
      <use x="63.623047" xlink:href="#DejaVuSans-30"/>
      <use x="127.246094" xlink:href="#DejaVuSans-2d"/>
      <use x="163.330078" xlink:href="#DejaVuSans-35"/>
      <use x="226.953125" xlink:href="#DejaVuSans-39"/>
      <use x="290.576172" xlink:href="#DejaVuSans-20"/>
      <use x="322.363281" xlink:href="#DejaVuSans-61"/>
      <use x="383.642578" xlink:href="#DejaVuSans-6e"/>
      <use x="447.021484" xlink:href="#DejaVuSans-73"/>
     </g>
    </g>
    <g id="line2d_36">
     <path d="M 436.589219 105.152719 
L 458.589219 105.152719 
" style="fill:none;stroke:#3cb371;stroke-linecap:square;stroke-width:3;"/>
    </g>
    <g id="line2d_37"/>
    <g id="text_26">
     <!-- 60 ans et + -->
     <g transform="translate(464.089219 109.002719)scale(0.11 -0.11)">
      <defs>
       <path d="M 2113 2584 
Q 1688 2584 1439 2293 
Q 1191 2003 1191 1497 
Q 1191 994 1439 701 
Q 1688 409 2113 409 
Q 2538 409 2786 701 
Q 3034 994 3034 1497 
Q 3034 2003 2786 2293 
Q 2538 2584 2113 2584 
z
M 3366 4563 
L 3366 3988 
Q 3128 4100 2886 4159 
Q 2644 4219 2406 4219 
Q 1781 4219 1451 3797 
Q 1122 3375 1075 2522 
Q 1259 2794 1537 2939 
Q 1816 3084 2150 3084 
Q 2853 3084 3261 2657 
Q 3669 2231 3669 1497 
Q 3669 778 3244 343 
Q 2819 -91 2113 -91 
Q 1303 -91 875 529 
Q 447 1150 447 2328 
Q 447 3434 972 4092 
Q 1497 4750 2381 4750 
Q 2619 4750 2861 4703 
Q 3103 4656 3366 4563 
z
" id="DejaVuSans-36" transform="scale(0.015625)"/>
       <path d="M 2944 4013 
L 2944 2272 
L 4684 2272 
L 4684 1741 
L 2944 1741 
L 2944 0 
L 2419 0 
L 2419 1741 
L 678 1741 
L 678 2272 
L 2419 2272 
L 2419 4013 
L 2944 4013 
z
" id="DejaVuSans-2b" transform="scale(0.015625)"/>
      </defs>
      <use xlink:href="#DejaVuSans-36"/>
      <use x="63.623047" xlink:href="#DejaVuSans-30"/>
      <use x="127.246094" xlink:href="#DejaVuSans-20"/>
      <use x="159.033203" xlink:href="#DejaVuSans-61"/>
      <use x="220.3125" xlink:href="#DejaVuSans-6e"/>
      <use x="283.691406" xlink:href="#DejaVuSans-73"/>
      <use x="335.791016" xlink:href="#DejaVuSans-20"/>
      <use x="367.578125" xlink:href="#DejaVuSans-65"/>
      <use x="429.101562" xlink:href="#DejaVuSans-74"/>
      <use x="468.310547" xlink:href="#DejaVuSans-20"/>
      <use x="500.097656" xlink:href="#DejaVuSans-2b"/>
     </g>
    </g>
   </g>
  </g>
 </g>
 <defs>
  <clipPath id="p78b7ba0dfd">
   <rect height="217.44" width="446.4" x="60.17875" y="53.420625"/>
  </clipPath>
 </defs>
</svg>
