<?xml version="1.0" encoding="utf-8" standalone="no"?>
<!DOCTYPE svg PUBLIC "-//W3C//DTD SVG 1.1//EN"
  "http://www.w3.org/Graphics/SVG/1.1/DTD/svg11.dtd">
<svg height="336.049967pt" version="1.1" viewBox="0 0 575.9925 336.049967" width="575.9925pt" xmlns="http://www.w3.org/2000/svg" xmlns:xlink="http://www.w3.org/1999/xlink">
 <metadata>
  <rdf:RDF xmlns:cc="http://creativecommons.org/ns#" xmlns:dc="http://purl.org/dc/elements/1.1/" xmlns:rdf="http://www.w3.org/1999/02/22-rdf-syntax-ns#">
   <cc:Work>
    <dc:type rdf:resource="http://purl.org/dc/dcmitype/StillImage"/>
    <dc:date>2021-06-13T09:56:31.380457</dc:date>
    <dc:format>image/svg+xml</dc:format>
    <dc:creator>
     <cc:Agent>
      <dc:title>Matplotlib v3.4.1, https://matplotlib.org/</dc:title>
     </cc:Agent>
    </dc:creator>
   </cc:Work>
  </rdf:RDF>
 </metadata>
 <defs>
  <style type="text/css">*{stroke-linecap:butt;stroke-linejoin:round;}</style>
 </defs>
 <g id="figure_1">
  <g id="patch_1">
   <path d="M 0 336.049967 
L 575.9925 336.049967 
L 575.9925 0 
L 0 0 
z
" style="fill:#ffffff;"/>
  </g>
  <g id="axes_1">
   <g id="patch_2">
    <path d="M 54.4525 270.860625 
L 500.8525 270.860625 
L 500.8525 53.420625 
L 54.4525 53.420625 
z
" style="fill:none;opacity:0;"/>
   </g>
   <g id="patch_3">
    <path clip-path="url(#pdd8485f6e0)" d="M 69.118619 270.860625 
L 69.118619 64.292625 
L 118.616771 64.292625 
L 118.616771 270.860625 
z
" style="fill:#808080;opacity:0.15;stroke:#808080;stroke-linejoin:miter;"/>
   </g>
   <g id="patch_4">
    <path clip-path="url(#pdd8485f6e0)" d="M 277.194184 270.860625 
L 277.194184 64.292625 
L 319.359276 64.292625 
L 319.359276 270.860625 
z
" style="fill:#808080;opacity:0.15;stroke:#808080;stroke-linejoin:miter;"/>
   </g>
   <g id="patch_5">
    <path clip-path="url(#pdd8485f6e0)" d="M 421.105477 270.860625 
L 421.105477 64.292625 
L 445.854553 64.292625 
L 445.854553 270.860625 
z
" style="fill:#808080;opacity:0.15;stroke:#808080;stroke-linejoin:miter;"/>
   </g>
   <g id="matplotlib.axis_1">
    <g id="xtick_1">
     <g id="line2d_1">
      <defs>
       <path d="M 0 0 
L 0 3.5 
" id="mdfb9a595ef" style="stroke:#000000;stroke-width:0.8;"/>
      </defs>
      <g>
       <use style="stroke:#000000;stroke-width:0.8;" x="54.4525" xlink:href="#mdfb9a595ef" y="270.860625"/>
      </g>
     </g>
     <g id="text_1">
      <!-- mars -->
      <g transform="translate(43.257895 298.726462)rotate(-45)scale(0.09 -0.09)">
       <defs>
        <path d="M 3328 2828 
Q 3544 3216 3844 3400 
Q 4144 3584 4550 3584 
Q 5097 3584 5394 3201 
Q 5691 2819 5691 2113 
L 5691 0 
L 5113 0 
L 5113 2094 
Q 5113 2597 4934 2840 
Q 4756 3084 4391 3084 
Q 3944 3084 3684 2787 
Q 3425 2491 3425 1978 
L 3425 0 
L 2847 0 
L 2847 2094 
Q 2847 2600 2669 2842 
Q 2491 3084 2119 3084 
Q 1678 3084 1418 2786 
Q 1159 2488 1159 1978 
L 1159 0 
L 581 0 
L 581 3500 
L 1159 3500 
L 1159 2956 
Q 1356 3278 1631 3431 
Q 1906 3584 2284 3584 
Q 2666 3584 2933 3390 
Q 3200 3197 3328 2828 
z
" id="DejaVuSans-6d" transform="scale(0.015625)"/>
        <path d="M 2194 1759 
Q 1497 1759 1228 1600 
Q 959 1441 959 1056 
Q 959 750 1161 570 
Q 1363 391 1709 391 
Q 2188 391 2477 730 
Q 2766 1069 2766 1631 
L 2766 1759 
L 2194 1759 
z
M 3341 1997 
L 3341 0 
L 2766 0 
L 2766 531 
Q 2569 213 2275 61 
Q 1981 -91 1556 -91 
Q 1019 -91 701 211 
Q 384 513 384 1019 
Q 384 1609 779 1909 
Q 1175 2209 1959 2209 
L 2766 2209 
L 2766 2266 
Q 2766 2663 2505 2880 
Q 2244 3097 1772 3097 
Q 1472 3097 1187 3025 
Q 903 2953 641 2809 
L 641 3341 
Q 956 3463 1253 3523 
Q 1550 3584 1831 3584 
Q 2591 3584 2966 3190 
Q 3341 2797 3341 1997 
z
" id="DejaVuSans-61" transform="scale(0.015625)"/>
        <path d="M 2631 2963 
Q 2534 3019 2420 3045 
Q 2306 3072 2169 3072 
Q 1681 3072 1420 2755 
Q 1159 2438 1159 1844 
L 1159 0 
L 581 0 
L 581 3500 
L 1159 3500 
L 1159 2956 
Q 1341 3275 1631 3429 
Q 1922 3584 2338 3584 
Q 2397 3584 2469 3576 
Q 2541 3569 2628 3553 
L 2631 2963 
z
" id="DejaVuSans-72" transform="scale(0.015625)"/>
        <path d="M 2834 3397 
L 2834 2853 
Q 2591 2978 2328 3040 
Q 2066 3103 1784 3103 
Q 1356 3103 1142 2972 
Q 928 2841 928 2578 
Q 928 2378 1081 2264 
Q 1234 2150 1697 2047 
L 1894 2003 
Q 2506 1872 2764 1633 
Q 3022 1394 3022 966 
Q 3022 478 2636 193 
Q 2250 -91 1575 -91 
Q 1294 -91 989 -36 
Q 684 19 347 128 
L 347 722 
Q 666 556 975 473 
Q 1284 391 1588 391 
Q 1994 391 2212 530 
Q 2431 669 2431 922 
Q 2431 1156 2273 1281 
Q 2116 1406 1581 1522 
L 1381 1569 
Q 847 1681 609 1914 
Q 372 2147 372 2553 
Q 372 3047 722 3315 
Q 1072 3584 1716 3584 
Q 2034 3584 2315 3537 
Q 2597 3491 2834 3397 
z
" id="DejaVuSans-73" transform="scale(0.015625)"/>
       </defs>
       <use xlink:href="#DejaVuSans-6d"/>
       <use x="97.412109" xlink:href="#DejaVuSans-61"/>
       <use x="158.691406" xlink:href="#DejaVuSans-72"/>
       <use x="199.804688" xlink:href="#DejaVuSans-73"/>
      </g>
     </g>
    </g>
    <g id="xtick_2">
     <g id="line2d_2">
      <g>
       <use style="stroke:#000000;stroke-width:0.8;" x="82.868106" xlink:href="#mdfb9a595ef" y="270.860625"/>
      </g>
     </g>
     <g id="text_2">
      <!-- avril -->
      <g transform="translate(73.884977 296.514986)rotate(-45)scale(0.09 -0.09)">
       <defs>
        <path d="M 191 3500 
L 800 3500 
L 1894 563 
L 2988 3500 
L 3597 3500 
L 2284 0 
L 1503 0 
L 191 3500 
z
" id="DejaVuSans-76" transform="scale(0.015625)"/>
        <path d="M 603 3500 
L 1178 3500 
L 1178 0 
L 603 0 
L 603 3500 
z
M 603 4863 
L 1178 4863 
L 1178 4134 
L 603 4134 
L 603 4863 
z
" id="DejaVuSans-69" transform="scale(0.015625)"/>
        <path d="M 603 4863 
L 1178 4863 
L 1178 0 
L 603 0 
L 603 4863 
z
" id="DejaVuSans-6c" transform="scale(0.015625)"/>
       </defs>
       <use xlink:href="#DejaVuSans-61"/>
       <use x="61.279297" xlink:href="#DejaVuSans-76"/>
       <use x="120.458984" xlink:href="#DejaVuSans-72"/>
       <use x="161.572266" xlink:href="#DejaVuSans-69"/>
       <use x="189.355469" xlink:href="#DejaVuSans-6c"/>
      </g>
     </g>
    </g>
    <g id="xtick_3">
     <g id="line2d_3">
      <g>
       <use style="stroke:#000000;stroke-width:0.8;" x="110.367079" xlink:href="#mdfb9a595ef" y="270.860625"/>
      </g>
     </g>
     <g id="text_3">
      <!-- mai -->
      <g transform="translate(103.335896 294.56304)rotate(-45)scale(0.09 -0.09)">
       <use xlink:href="#DejaVuSans-6d"/>
       <use x="97.412109" xlink:href="#DejaVuSans-61"/>
       <use x="158.691406" xlink:href="#DejaVuSans-69"/>
      </g>
     </g>
    </g>
    <g id="xtick_4">
     <g id="line2d_4">
      <g>
       <use style="stroke:#000000;stroke-width:0.8;" x="138.782685" xlink:href="#mdfb9a595ef" y="270.860625"/>
      </g>
     </g>
     <g id="text_4">
      <!-- juin -->
      <g transform="translate(132.016004 294.298537)rotate(-45)scale(0.09 -0.09)">
       <defs>
        <path d="M 603 3500 
L 1178 3500 
L 1178 -63 
Q 1178 -731 923 -1031 
Q 669 -1331 103 -1331 
L -116 -1331 
L -116 -844 
L 38 -844 
Q 366 -844 484 -692 
Q 603 -541 603 -63 
L 603 3500 
z
M 603 4863 
L 1178 4863 
L 1178 4134 
L 603 4134 
L 603 4863 
z
" id="DejaVuSans-6a" transform="scale(0.015625)"/>
        <path d="M 544 1381 
L 544 3500 
L 1119 3500 
L 1119 1403 
Q 1119 906 1312 657 
Q 1506 409 1894 409 
Q 2359 409 2629 706 
Q 2900 1003 2900 1516 
L 2900 3500 
L 3475 3500 
L 3475 0 
L 2900 0 
L 2900 538 
Q 2691 219 2414 64 
Q 2138 -91 1772 -91 
Q 1169 -91 856 284 
Q 544 659 544 1381 
z
M 1991 3584 
L 1991 3584 
z
" id="DejaVuSans-75" transform="scale(0.015625)"/>
        <path d="M 3513 2113 
L 3513 0 
L 2938 0 
L 2938 2094 
Q 2938 2591 2744 2837 
Q 2550 3084 2163 3084 
Q 1697 3084 1428 2787 
Q 1159 2491 1159 1978 
L 1159 0 
L 581 0 
L 581 3500 
L 1159 3500 
L 1159 2956 
Q 1366 3272 1645 3428 
Q 1925 3584 2291 3584 
Q 2894 3584 3203 3211 
Q 3513 2838 3513 2113 
z
" id="DejaVuSans-6e" transform="scale(0.015625)"/>
       </defs>
       <use xlink:href="#DejaVuSans-6a"/>
       <use x="27.783203" xlink:href="#DejaVuSans-75"/>
       <use x="91.162109" xlink:href="#DejaVuSans-69"/>
       <use x="118.945312" xlink:href="#DejaVuSans-6e"/>
      </g>
     </g>
    </g>
    <g id="xtick_5">
     <g id="line2d_5">
      <g>
       <use style="stroke:#000000;stroke-width:0.8;" x="166.281658" xlink:href="#mdfb9a595ef" y="270.860625"/>
      </g>
     </g>
     <g id="text_5">
      <!-- juil. -->
      <g transform="translate(159.757604 294.055911)rotate(-45)scale(0.09 -0.09)">
       <defs>
        <path d="M 684 794 
L 1344 794 
L 1344 0 
L 684 0 
L 684 794 
z
" id="DejaVuSans-2e" transform="scale(0.015625)"/>
       </defs>
       <use xlink:href="#DejaVuSans-6a"/>
       <use x="27.783203" xlink:href="#DejaVuSans-75"/>
       <use x="91.162109" xlink:href="#DejaVuSans-69"/>
       <use x="118.945312" xlink:href="#DejaVuSans-6c"/>
       <use x="146.728516" xlink:href="#DejaVuSans-2e"/>
      </g>
     </g>
    </g>
    <g id="xtick_6">
     <g id="line2d_6">
      <g>
       <use style="stroke:#000000;stroke-width:0.8;" x="194.697264" xlink:href="#mdfb9a595ef" y="270.860625"/>
      </g>
     </g>
     <g id="text_6">
      <!-- août -->
      <g transform="translate(185.210984 297.018136)rotate(-45)scale(0.09 -0.09)">
       <defs>
        <path d="M 1959 3097 
Q 1497 3097 1228 2736 
Q 959 2375 959 1747 
Q 959 1119 1226 758 
Q 1494 397 1959 397 
Q 2419 397 2687 759 
Q 2956 1122 2956 1747 
Q 2956 2369 2687 2733 
Q 2419 3097 1959 3097 
z
M 1959 3584 
Q 2709 3584 3137 3096 
Q 3566 2609 3566 1747 
Q 3566 888 3137 398 
Q 2709 -91 1959 -91 
Q 1206 -91 779 398 
Q 353 888 353 1747 
Q 353 2609 779 3096 
Q 1206 3584 1959 3584 
z
" id="DejaVuSans-6f" transform="scale(0.015625)"/>
        <path d="M 544 1381 
L 544 3500 
L 1119 3500 
L 1119 1403 
Q 1119 906 1312 657 
Q 1506 409 1894 409 
Q 2359 409 2629 706 
Q 2900 1003 2900 1516 
L 2900 3500 
L 3475 3500 
L 3475 0 
L 2900 0 
L 2900 538 
Q 2691 219 2414 64 
Q 2138 -91 1772 -91 
Q 1169 -91 856 284 
Q 544 659 544 1381 
z
M 1991 3584 
L 1991 3584 
z
M 1753 5119 
L 2215 5119 
L 2981 3944 
L 2547 3944 
L 1984 4709 
L 1422 3944 
L 987 3944 
L 1753 5119 
z
" id="DejaVuSans-fb" transform="scale(0.015625)"/>
        <path d="M 1172 4494 
L 1172 3500 
L 2356 3500 
L 2356 3053 
L 1172 3053 
L 1172 1153 
Q 1172 725 1289 603 
Q 1406 481 1766 481 
L 2356 481 
L 2356 0 
L 1766 0 
Q 1100 0 847 248 
Q 594 497 594 1153 
L 594 3053 
L 172 3053 
L 172 3500 
L 594 3500 
L 594 4494 
L 1172 4494 
z
" id="DejaVuSans-74" transform="scale(0.015625)"/>
       </defs>
       <use xlink:href="#DejaVuSans-61"/>
       <use x="61.279297" xlink:href="#DejaVuSans-6f"/>
       <use x="122.460938" xlink:href="#DejaVuSans-fb"/>
       <use x="185.839844" xlink:href="#DejaVuSans-74"/>
      </g>
     </g>
    </g>
    <g id="xtick_7">
     <g id="line2d_7">
      <g>
       <use style="stroke:#000000;stroke-width:0.8;" x="223.11287" xlink:href="#mdfb9a595ef" y="270.860625"/>
      </g>
     </g>
     <g id="text_7">
      <!-- sept. -->
      <g transform="translate(212.159896 298.484831)rotate(-45)scale(0.09 -0.09)">
       <defs>
        <path d="M 3597 1894 
L 3597 1613 
L 953 1613 
Q 991 1019 1311 708 
Q 1631 397 2203 397 
Q 2534 397 2845 478 
Q 3156 559 3463 722 
L 3463 178 
Q 3153 47 2828 -22 
Q 2503 -91 2169 -91 
Q 1331 -91 842 396 
Q 353 884 353 1716 
Q 353 2575 817 3079 
Q 1281 3584 2069 3584 
Q 2775 3584 3186 3129 
Q 3597 2675 3597 1894 
z
M 3022 2063 
Q 3016 2534 2758 2815 
Q 2500 3097 2075 3097 
Q 1594 3097 1305 2825 
Q 1016 2553 972 2059 
L 3022 2063 
z
" id="DejaVuSans-65" transform="scale(0.015625)"/>
        <path d="M 1159 525 
L 1159 -1331 
L 581 -1331 
L 581 3500 
L 1159 3500 
L 1159 2969 
Q 1341 3281 1617 3432 
Q 1894 3584 2278 3584 
Q 2916 3584 3314 3078 
Q 3713 2572 3713 1747 
Q 3713 922 3314 415 
Q 2916 -91 2278 -91 
Q 1894 -91 1617 61 
Q 1341 213 1159 525 
z
M 3116 1747 
Q 3116 2381 2855 2742 
Q 2594 3103 2138 3103 
Q 1681 3103 1420 2742 
Q 1159 2381 1159 1747 
Q 1159 1113 1420 752 
Q 1681 391 2138 391 
Q 2594 391 2855 752 
Q 3116 1113 3116 1747 
z
" id="DejaVuSans-70" transform="scale(0.015625)"/>
       </defs>
       <use xlink:href="#DejaVuSans-73"/>
       <use x="52.099609" xlink:href="#DejaVuSans-65"/>
       <use x="113.623047" xlink:href="#DejaVuSans-70"/>
       <use x="177.099609" xlink:href="#DejaVuSans-74"/>
       <use x="216.308594" xlink:href="#DejaVuSans-2e"/>
      </g>
     </g>
    </g>
    <g id="xtick_8">
     <g id="line2d_8">
      <g>
       <use style="stroke:#000000;stroke-width:0.8;" x="250.611843" xlink:href="#mdfb9a595ef" y="270.860625"/>
      </g>
     </g>
     <g id="text_8">
      <!-- oct. -->
      <g transform="translate(243.536908 294.606792)rotate(-45)scale(0.09 -0.09)">
       <defs>
        <path d="M 3122 3366 
L 3122 2828 
Q 2878 2963 2633 3030 
Q 2388 3097 2138 3097 
Q 1578 3097 1268 2742 
Q 959 2388 959 1747 
Q 959 1106 1268 751 
Q 1578 397 2138 397 
Q 2388 397 2633 464 
Q 2878 531 3122 666 
L 3122 134 
Q 2881 22 2623 -34 
Q 2366 -91 2075 -91 
Q 1284 -91 818 406 
Q 353 903 353 1747 
Q 353 2603 823 3093 
Q 1294 3584 2113 3584 
Q 2378 3584 2631 3529 
Q 2884 3475 3122 3366 
z
" id="DejaVuSans-63" transform="scale(0.015625)"/>
       </defs>
       <use xlink:href="#DejaVuSans-6f"/>
       <use x="61.181641" xlink:href="#DejaVuSans-63"/>
       <use x="116.162109" xlink:href="#DejaVuSans-74"/>
       <use x="155.371094" xlink:href="#DejaVuSans-2e"/>
      </g>
     </g>
    </g>
    <g id="xtick_9">
     <g id="line2d_9">
      <g>
       <use style="stroke:#000000;stroke-width:0.8;" x="279.027449" xlink:href="#mdfb9a595ef" y="270.860625"/>
      </g>
     </g>
     <g id="text_9">
      <!-- nov. -->
      <g transform="translate(270.639947 295.919359)rotate(-45)scale(0.09 -0.09)">
       <use xlink:href="#DejaVuSans-6e"/>
       <use x="63.378906" xlink:href="#DejaVuSans-6f"/>
       <use x="124.560547" xlink:href="#DejaVuSans-76"/>
       <use x="175.990234" xlink:href="#DejaVuSans-2e"/>
      </g>
     </g>
    </g>
    <g id="xtick_10">
     <g id="line2d_10">
      <g>
       <use style="stroke:#000000;stroke-width:0.8;" x="306.526422" xlink:href="#mdfb9a595ef" y="270.860625"/>
      </g>
     </g>
     <g id="text_10">
      <!-- déc. -->
      <g transform="translate(297.884362 296.173917)rotate(-45)scale(0.09 -0.09)">
       <defs>
        <path d="M 2906 2969 
L 2906 4863 
L 3481 4863 
L 3481 0 
L 2906 0 
L 2906 525 
Q 2725 213 2448 61 
Q 2172 -91 1784 -91 
Q 1150 -91 751 415 
Q 353 922 353 1747 
Q 353 2572 751 3078 
Q 1150 3584 1784 3584 
Q 2172 3584 2448 3432 
Q 2725 3281 2906 2969 
z
M 947 1747 
Q 947 1113 1208 752 
Q 1469 391 1925 391 
Q 2381 391 2643 752 
Q 2906 1113 2906 1747 
Q 2906 2381 2643 2742 
Q 2381 3103 1925 3103 
Q 1469 3103 1208 2742 
Q 947 2381 947 1747 
z
" id="DejaVuSans-64" transform="scale(0.015625)"/>
        <path d="M 3597 1894 
L 3597 1613 
L 953 1613 
Q 991 1019 1311 708 
Q 1631 397 2203 397 
Q 2534 397 2845 478 
Q 3156 559 3463 722 
L 3463 178 
Q 3153 47 2828 -22 
Q 2503 -91 2169 -91 
Q 1331 -91 842 396 
Q 353 884 353 1716 
Q 353 2575 817 3079 
Q 1281 3584 2069 3584 
Q 2775 3584 3186 3129 
Q 3597 2675 3597 1894 
z
M 3022 2063 
Q 3016 2534 2758 2815 
Q 2500 3097 2075 3097 
Q 1594 3097 1305 2825 
Q 1016 2553 972 2059 
L 3022 2063 
z
M 2466 5119 
L 3088 5119 
L 2070 3944 
L 1591 3944 
L 2466 5119 
z
" id="DejaVuSans-e9" transform="scale(0.015625)"/>
       </defs>
       <use xlink:href="#DejaVuSans-64"/>
       <use x="63.476562" xlink:href="#DejaVuSans-e9"/>
       <use x="125" xlink:href="#DejaVuSans-63"/>
       <use x="179.980469" xlink:href="#DejaVuSans-2e"/>
      </g>
     </g>
    </g>
    <g id="xtick_11">
     <g id="line2d_11">
      <g>
       <use style="stroke:#000000;stroke-width:0.8;" x="334.942028" xlink:href="#mdfb9a595ef" y="270.860625"/>
      </g>
     </g>
     <g id="text_11">
      <!-- janv. -->
      <g transform="translate(324.780572 297.693313)rotate(-45)scale(0.09 -0.09)">
       <use xlink:href="#DejaVuSans-6a"/>
       <use x="27.783203" xlink:href="#DejaVuSans-61"/>
       <use x="89.0625" xlink:href="#DejaVuSans-6e"/>
       <use x="152.441406" xlink:href="#DejaVuSans-76"/>
       <use x="203.871094" xlink:href="#DejaVuSans-2e"/>
      </g>
     </g>
    </g>
    <g id="xtick_12">
     <g id="line2d_12">
      <g>
       <use style="stroke:#000000;stroke-width:0.8;" x="363.357633" xlink:href="#mdfb9a595ef" y="270.860625"/>
      </g>
     </g>
     <g id="text_12">
      <!-- fév. -->
      <g transform="translate(356.741103 294.148388)rotate(-45)scale(0.09 -0.09)">
       <defs>
        <path d="M 2375 4863 
L 2375 4384 
L 1825 4384 
Q 1516 4384 1395 4259 
Q 1275 4134 1275 3809 
L 1275 3500 
L 2222 3500 
L 2222 3053 
L 1275 3053 
L 1275 0 
L 697 0 
L 697 3053 
L 147 3053 
L 147 3500 
L 697 3500 
L 697 3744 
Q 697 4328 969 4595 
Q 1241 4863 1831 4863 
L 2375 4863 
z
" id="DejaVuSans-66" transform="scale(0.015625)"/>
       </defs>
       <use xlink:href="#DejaVuSans-66"/>
       <use x="35.205078" xlink:href="#DejaVuSans-e9"/>
       <use x="96.728516" xlink:href="#DejaVuSans-76"/>
       <use x="148.158203" xlink:href="#DejaVuSans-2e"/>
      </g>
     </g>
    </g>
    <g id="xtick_13">
     <g id="line2d_13">
      <g>
       <use style="stroke:#000000;stroke-width:0.8;" x="389.023342" xlink:href="#mdfb9a595ef" y="270.860625"/>
      </g>
     </g>
     <g id="text_13">
      <!-- mars -->
      <g transform="translate(377.828737 298.726462)rotate(-45)scale(0.09 -0.09)">
       <use xlink:href="#DejaVuSans-6d"/>
       <use x="97.412109" xlink:href="#DejaVuSans-61"/>
       <use x="158.691406" xlink:href="#DejaVuSans-72"/>
       <use x="199.804688" xlink:href="#DejaVuSans-73"/>
      </g>
     </g>
    </g>
    <g id="xtick_14">
     <g id="line2d_14">
      <g>
       <use style="stroke:#000000;stroke-width:0.8;" x="417.438948" xlink:href="#mdfb9a595ef" y="270.860625"/>
      </g>
     </g>
     <g id="text_14">
      <!-- avril -->
      <g transform="translate(408.455819 296.514986)rotate(-45)scale(0.09 -0.09)">
       <use xlink:href="#DejaVuSans-61"/>
       <use x="61.279297" xlink:href="#DejaVuSans-76"/>
       <use x="120.458984" xlink:href="#DejaVuSans-72"/>
       <use x="161.572266" xlink:href="#DejaVuSans-69"/>
       <use x="189.355469" xlink:href="#DejaVuSans-6c"/>
      </g>
     </g>
    </g>
    <g id="xtick_15">
     <g id="line2d_15">
      <g>
       <use style="stroke:#000000;stroke-width:0.8;" x="444.937921" xlink:href="#mdfb9a595ef" y="270.860625"/>
      </g>
     </g>
     <g id="text_15">
      <!-- mai -->
      <g transform="translate(437.906738 294.56304)rotate(-45)scale(0.09 -0.09)">
       <use xlink:href="#DejaVuSans-6d"/>
       <use x="97.412109" xlink:href="#DejaVuSans-61"/>
       <use x="158.691406" xlink:href="#DejaVuSans-69"/>
      </g>
     </g>
    </g>
    <g id="xtick_16">
     <g id="line2d_16">
      <g>
       <use style="stroke:#000000;stroke-width:0.8;" x="473.353527" xlink:href="#mdfb9a595ef" y="270.860625"/>
      </g>
     </g>
     <g id="text_16">
      <!-- juin -->
      <g transform="translate(466.586846 294.298537)rotate(-45)scale(0.09 -0.09)">
       <use xlink:href="#DejaVuSans-6a"/>
       <use x="27.783203" xlink:href="#DejaVuSans-75"/>
       <use x="91.162109" xlink:href="#DejaVuSans-69"/>
       <use x="118.945312" xlink:href="#DejaVuSans-6e"/>
      </g>
     </g>
    </g>
    <g id="xtick_17">
     <g id="line2d_17">
      <g>
       <use style="stroke:#000000;stroke-width:0.8;" x="500.8525" xlink:href="#mdfb9a595ef" y="270.860625"/>
      </g>
     </g>
     <g id="text_17">
      <!-- juil. -->
      <g transform="translate(494.328446 294.055911)rotate(-45)scale(0.09 -0.09)">
       <use xlink:href="#DejaVuSans-6a"/>
       <use x="27.783203" xlink:href="#DejaVuSans-75"/>
       <use x="91.162109" xlink:href="#DejaVuSans-69"/>
       <use x="118.945312" xlink:href="#DejaVuSans-6c"/>
       <use x="146.728516" xlink:href="#DejaVuSans-2e"/>
      </g>
     </g>
    </g>
   </g>
   <g id="matplotlib.axis_2">
    <g id="ytick_1">
     <g id="line2d_18">
      <path clip-path="url(#pdd8485f6e0)" d="M 54.4525 260.506339 
L 500.8525 260.506339 
" style="fill:none;stroke:#b0b0b0;stroke-linecap:square;stroke-opacity:0.5;stroke-width:0.8;"/>
     </g>
     <g id="text_18">
      <!-- 0 -->
      <g transform="translate(41.72625 263.925636)scale(0.09 -0.09)">
       <defs>
        <path d="M 2034 4250 
Q 1547 4250 1301 3770 
Q 1056 3291 1056 2328 
Q 1056 1369 1301 889 
Q 1547 409 2034 409 
Q 2525 409 2770 889 
Q 3016 1369 3016 2328 
Q 3016 3291 2770 3770 
Q 2525 4250 2034 4250 
z
M 2034 4750 
Q 2819 4750 3233 4129 
Q 3647 3509 3647 2328 
Q 3647 1150 3233 529 
Q 2819 -91 2034 -91 
Q 1250 -91 836 529 
Q 422 1150 422 2328 
Q 422 3509 836 4129 
Q 1250 4750 2034 4750 
z
" id="DejaVuSans-30" transform="scale(0.015625)"/>
       </defs>
       <use xlink:href="#DejaVuSans-30"/>
      </g>
     </g>
    </g>
    <g id="ytick_2">
     <g id="line2d_19">
      <path clip-path="url(#pdd8485f6e0)" d="M 54.4525 225.992054 
L 500.8525 225.992054 
" style="fill:none;stroke:#b0b0b0;stroke-linecap:square;stroke-opacity:0.5;stroke-width:0.8;"/>
     </g>
     <g id="text_19">
      <!-- 10 -->
      <g transform="translate(36 229.41135)scale(0.09 -0.09)">
       <defs>
        <path d="M 794 531 
L 1825 531 
L 1825 4091 
L 703 3866 
L 703 4441 
L 1819 4666 
L 2450 4666 
L 2450 531 
L 3481 531 
L 3481 0 
L 794 0 
L 794 531 
z
" id="DejaVuSans-31" transform="scale(0.015625)"/>
       </defs>
       <use xlink:href="#DejaVuSans-31"/>
       <use x="63.623047" xlink:href="#DejaVuSans-30"/>
      </g>
     </g>
    </g>
    <g id="ytick_3">
     <g id="line2d_20">
      <path clip-path="url(#pdd8485f6e0)" d="M 54.4525 191.477768 
L 500.8525 191.477768 
" style="fill:none;stroke:#b0b0b0;stroke-linecap:square;stroke-opacity:0.5;stroke-width:0.8;"/>
     </g>
     <g id="text_20">
      <!-- 20 -->
      <g transform="translate(36 194.897065)scale(0.09 -0.09)">
       <defs>
        <path d="M 1228 531 
L 3431 531 
L 3431 0 
L 469 0 
L 469 531 
Q 828 903 1448 1529 
Q 2069 2156 2228 2338 
Q 2531 2678 2651 2914 
Q 2772 3150 2772 3378 
Q 2772 3750 2511 3984 
Q 2250 4219 1831 4219 
Q 1534 4219 1204 4116 
Q 875 4013 500 3803 
L 500 4441 
Q 881 4594 1212 4672 
Q 1544 4750 1819 4750 
Q 2544 4750 2975 4387 
Q 3406 4025 3406 3419 
Q 3406 3131 3298 2873 
Q 3191 2616 2906 2266 
Q 2828 2175 2409 1742 
Q 1991 1309 1228 531 
z
" id="DejaVuSans-32" transform="scale(0.015625)"/>
       </defs>
       <use xlink:href="#DejaVuSans-32"/>
       <use x="63.623047" xlink:href="#DejaVuSans-30"/>
      </g>
     </g>
    </g>
    <g id="ytick_4">
     <g id="line2d_21">
      <path clip-path="url(#pdd8485f6e0)" d="M 54.4525 156.963482 
L 500.8525 156.963482 
" style="fill:none;stroke:#b0b0b0;stroke-linecap:square;stroke-opacity:0.5;stroke-width:0.8;"/>
     </g>
     <g id="text_21">
      <!-- 30 -->
      <g transform="translate(36 160.382779)scale(0.09 -0.09)">
       <defs>
        <path d="M 2597 2516 
Q 3050 2419 3304 2112 
Q 3559 1806 3559 1356 
Q 3559 666 3084 287 
Q 2609 -91 1734 -91 
Q 1441 -91 1130 -33 
Q 819 25 488 141 
L 488 750 
Q 750 597 1062 519 
Q 1375 441 1716 441 
Q 2309 441 2620 675 
Q 2931 909 2931 1356 
Q 2931 1769 2642 2001 
Q 2353 2234 1838 2234 
L 1294 2234 
L 1294 2753 
L 1863 2753 
Q 2328 2753 2575 2939 
Q 2822 3125 2822 3475 
Q 2822 3834 2567 4026 
Q 2313 4219 1838 4219 
Q 1578 4219 1281 4162 
Q 984 4106 628 3988 
L 628 4550 
Q 988 4650 1302 4700 
Q 1616 4750 1894 4750 
Q 2613 4750 3031 4423 
Q 3450 4097 3450 3541 
Q 3450 3153 3228 2886 
Q 3006 2619 2597 2516 
z
" id="DejaVuSans-33" transform="scale(0.015625)"/>
       </defs>
       <use xlink:href="#DejaVuSans-33"/>
       <use x="63.623047" xlink:href="#DejaVuSans-30"/>
      </g>
     </g>
    </g>
    <g id="ytick_5">
     <g id="line2d_22">
      <path clip-path="url(#pdd8485f6e0)" d="M 54.4525 122.449196 
L 500.8525 122.449196 
" style="fill:none;stroke:#b0b0b0;stroke-linecap:square;stroke-opacity:0.5;stroke-width:0.8;"/>
     </g>
     <g id="text_22">
      <!-- 40 -->
      <g transform="translate(36 125.868493)scale(0.09 -0.09)">
       <defs>
        <path d="M 2419 4116 
L 825 1625 
L 2419 1625 
L 2419 4116 
z
M 2253 4666 
L 3047 4666 
L 3047 1625 
L 3713 1625 
L 3713 1100 
L 3047 1100 
L 3047 0 
L 2419 0 
L 2419 1100 
L 313 1100 
L 313 1709 
L 2253 4666 
z
" id="DejaVuSans-34" transform="scale(0.015625)"/>
       </defs>
       <use xlink:href="#DejaVuSans-34"/>
       <use x="63.623047" xlink:href="#DejaVuSans-30"/>
      </g>
     </g>
    </g>
    <g id="ytick_6">
     <g id="line2d_23">
      <path clip-path="url(#pdd8485f6e0)" d="M 54.4525 87.934911 
L 500.8525 87.934911 
" style="fill:none;stroke:#b0b0b0;stroke-linecap:square;stroke-opacity:0.5;stroke-width:0.8;"/>
     </g>
     <g id="text_23">
      <!-- 50 -->
      <g transform="translate(36 91.354208)scale(0.09 -0.09)">
       <defs>
        <path d="M 691 4666 
L 3169 4666 
L 3169 4134 
L 1269 4134 
L 1269 2991 
Q 1406 3038 1543 3061 
Q 1681 3084 1819 3084 
Q 2600 3084 3056 2656 
Q 3513 2228 3513 1497 
Q 3513 744 3044 326 
Q 2575 -91 1722 -91 
Q 1428 -91 1123 -41 
Q 819 9 494 109 
L 494 744 
Q 775 591 1075 516 
Q 1375 441 1709 441 
Q 2250 441 2565 725 
Q 2881 1009 2881 1497 
Q 2881 1984 2565 2268 
Q 2250 2553 1709 2553 
Q 1456 2553 1204 2497 
Q 953 2441 691 2322 
L 691 4666 
z
" id="DejaVuSans-35" transform="scale(0.015625)"/>
       </defs>
       <use xlink:href="#DejaVuSans-35"/>
       <use x="63.623047" xlink:href="#DejaVuSans-30"/>
      </g>
     </g>
    </g>
    <g id="ytick_7">
     <g id="line2d_24">
      <path clip-path="url(#pdd8485f6e0)" d="M 54.4525 243.249196 
L 500.8525 243.249196 
" style="fill:none;stroke:#b0b0b0;stroke-linecap:square;stroke-opacity:0.2;stroke-width:0.8;"/>
     </g>
    </g>
    <g id="ytick_8">
     <g id="line2d_25">
      <path clip-path="url(#pdd8485f6e0)" d="M 54.4525 208.734911 
L 500.8525 208.734911 
" style="fill:none;stroke:#b0b0b0;stroke-linecap:square;stroke-opacity:0.2;stroke-width:0.8;"/>
     </g>
    </g>
    <g id="ytick_9">
     <g id="line2d_26">
      <path clip-path="url(#pdd8485f6e0)" d="M 54.4525 174.220625 
L 500.8525 174.220625 
" style="fill:none;stroke:#b0b0b0;stroke-linecap:square;stroke-opacity:0.2;stroke-width:0.8;"/>
     </g>
    </g>
    <g id="ytick_10">
     <g id="line2d_27">
      <path clip-path="url(#pdd8485f6e0)" d="M 54.4525 139.706339 
L 500.8525 139.706339 
" style="fill:none;stroke:#b0b0b0;stroke-linecap:square;stroke-opacity:0.2;stroke-width:0.8;"/>
     </g>
    </g>
    <g id="ytick_11">
     <g id="line2d_28">
      <path clip-path="url(#pdd8485f6e0)" d="M 54.4525 105.192054 
L 500.8525 105.192054 
" style="fill:none;stroke:#b0b0b0;stroke-linecap:square;stroke-opacity:0.2;stroke-width:0.8;"/>
     </g>
    </g>
    <g id="ytick_12">
     <g id="line2d_29">
      <path clip-path="url(#pdd8485f6e0)" d="M 54.4525 70.677768 
L 500.8525 70.677768 
" style="fill:none;stroke:#b0b0b0;stroke-linecap:square;stroke-opacity:0.2;stroke-width:0.8;"/>
     </g>
    </g>
   </g>
   <g id="line2d_30">
    <path clip-path="url(#pdd8485f6e0)" d="M 54.4525 233.853684 
L 500.8525 233.853684 
" style="fill:none;stroke:#e9967a;stroke-linecap:square;stroke-width:0.8;"/>
   </g>
   <g id="line2d_31">
    <path clip-path="url(#pdd8485f6e0)" d="M 70.035252 260.28675 
L 72.785149 260.154996 
L 73.701781 260.169636 
L 74.618414 259.964686 
L 76.451679 259.87685 
L 80.118208 259.627982 
L 81.951473 259.510868 
L 83.784738 259.188803 
L 84.701371 259.144886 
L 85.618003 258.969214 
L 90.201165 258.969214 
L 91.117798 259.071689 
L 97.534225 259.071689 
L 101.200755 259.276639 
L 103.03402 259.203443 
L 103.950652 259.305918 
L 104.867284 259.188803 
L 106.700549 259.203443 
L 107.617182 259.130246 
L 109.450447 259.115607 
L 114.033609 259.232721 
L 114.950241 259.452311 
L 118.616771 259.642621 
L 122.283301 259.745096 
L 125.949831 259.832932 
L 130.532993 259.832932 
L 132.366258 259.832932 
L 163.531761 260.242832 
L 169.948188 260.242832 
L 187.364204 260.345307 
L 190.114102 260.389225 
L 195.613896 260.403864 
L 225.862767 260.316029 
L 228.612664 260.213554 
L 229.529297 260.28675 
L 230.445929 260.242832 
L 232.279194 260.345307 
L 241.445518 260.28675 
L 244.195416 260.169636 
L 246.945313 260.198914 
L 250.611843 260.228193 
L 256.111638 260.242832 
L 268.944492 260.184275 
L 272.611022 259.979325 
L 277.194184 259.920768 
L 278.110816 260.023243 
L 280.860714 259.847571 
L 290.027038 259.774375 
L 291.860303 259.759736 
L 294.6102 259.715818 
L 299.193362 259.847571 
L 300.109995 259.862211 
L 301.94326 260.023243 
L 302.859892 259.935407 
L 304.693157 259.935407 
L 305.60979 259.847571 
L 310.192952 259.979325 
L 312.026217 259.920768 
L 313.859482 260.052521 
L 337.691925 260.154996 
L 339.52519 260.111079 
L 341.358455 260.067161 
L 353.274677 259.993964 
L 355.107941 259.950046 
L 356.941206 259.935407 
L 360.607736 259.920768 
L 368.857428 259.993964 
L 369.774061 259.789014 
L 378.940385 259.832932 
L 380.77365 259.701178 
L 386.273445 259.891489 
L 390.856607 259.715818 
L 392.689872 259.774375 
L 414.68905 259.715818 
L 415.605683 259.642621 
L 416.522315 259.774375 
L 420.188845 259.6719 
L 424.772007 259.46695 
L 425.68864 259.598703 
L 426.605272 259.613343 
L 428.438537 259.364475 
L 431.188434 259.364475 
L 433.021699 259.452311 
L 433.938332 259.247361 
L 436.688229 259.203443 
L 441.271391 259.291278 
L 444.021289 259.247361 
L 445.854553 259.393753 
L 446.771186 259.232721 
L 447.687818 259.276639 
L 448.604451 259.174164 
L 449.521083 259.218082 
L 450.437716 259.05705 
L 454.104245 259.247361 
L 455.93751 259.320557 
L 470.603629 259.701178 
L 472.436894 259.759736 
L 473.353527 259.87685 
L 475.186792 259.862211 
L 482.519851 259.950046 
L 483.436484 260.008604 
L 483.436484 260.008604 
" style="fill:none;stroke:#b22222;stroke-linecap:square;"/>
   </g>
   <g id="line2d_32">
    <path clip-path="url(#pdd8485f6e0)" d="M 70.035252 257.697451 
L 70.951884 256.017495 
L 72.785149 254.216581 
L 73.701781 253.08765 
L 74.618414 251.54209 
L 75.535046 249.499262 
L 76.451679 247.752107 
L 77.368311 245.749598 
L 78.284944 244.029323 
L 81.951473 235.95209 
L 82.868106 233.734547 
L 83.784738 232.05459 
L 86.534636 229.501056 
L 87.451268 228.95003 
L 88.3679 229.299461 
L 89.284533 229.259142 
L 90.201165 230.11928 
L 91.117798 230.347754 
L 92.03443 231.033177 
L 92.951063 231.167573 
L 93.867695 231.167573 
L 94.784328 232.162108 
L 95.70096 233.62703 
L 98.450857 236.529995 
L 100.284122 237.430452 
L 103.03402 240.494694 
L 104.867284 242.094012 
L 105.783917 242.17465 
L 106.700549 242.389685 
L 108.533814 244.244357 
L 109.450447 245.010417 
L 110.367079 245.521124 
L 111.283711 245.789917 
L 112.200344 245.870555 
L 113.116976 246.206547 
L 114.033609 247.093564 
L 114.950241 248.155297 
L 115.866874 249.028874 
L 117.700139 249.781495 
L 118.616771 249.835253 
L 119.533403 250.198124 
L 120.450036 250.843228 
L 122.283301 251.770564 
L 123.199933 252.200633 
L 125.033198 252.590383 
L 127.783095 254.001546 
L 133.28289 254.848245 
L 136.94942 255.762141 
L 138.782685 255.775581 
L 147.949009 257.159865 
L 151.615539 257.34802 
L 152.532171 257.415219 
L 154.365436 257.804969 
L 165.365026 258.208158 
L 169.031555 258.423193 
L 172.698085 258.51727 
L 175.447983 258.53071 
L 177.281247 258.53071 
L 180.947777 258.597908 
L 184.614307 258.624788 
L 188.280837 259.041417 
L 192.863999 259.135495 
L 195.613896 259.256451 
L 197.447161 259.175813 
L 200.197059 259.283331 
L 202.946956 259.269891 
L 206.613486 259.458046 
L 210.280015 259.229572 
L 211.196648 259.29677 
L 215.77981 259.027977 
L 218.529707 259.189253 
L 221.279605 259.122055 
L 223.11287 259.108615 
L 225.862767 258.799503 
L 227.696032 258.786063 
L 228.612664 258.611348 
L 231.362562 258.342555 
L 233.195826 258.033443 
L 234.112459 257.993124 
L 235.029091 257.831848 
L 237.778989 257.899046 
L 239.612254 258.020003 
L 240.528886 257.952805 
L 241.445518 257.724331 
L 242.362151 257.73777 
L 244.195416 257.253943 
L 245.112048 257.119546 
L 246.028681 257.280822 
L 247.861946 257.119546 
L 248.778578 256.97171 
L 252.445108 256.864193 
L 253.36174 256.662598 
L 254.278373 256.272848 
L 255.195005 256.17877 
L 257.02827 256.407245 
L 259.778167 256.004055 
L 260.6948 255.735262 
L 261.611432 255.708383 
L 262.528065 255.80246 
L 263.444697 255.547107 
L 264.36133 255.479908 
L 265.277962 255.264874 
L 266.194594 255.184236 
L 267.111227 254.875124 
L 269.861124 254.310658 
L 270.777757 253.907469 
L 272.611022 253.598357 
L 273.527654 253.08765 
L 274.444286 252.442546 
L 275.360919 252.361909 
L 276.277551 252.402228 
L 277.194184 251.689926 
L 278.110816 251.568969 
L 279.027449 251.044822 
L 279.944081 250.73571 
L 283.610611 249.042314 
L 284.527243 248.760081 
L 285.443876 248.356891 
L 286.360508 247.698348 
L 288.193773 247.846185 
L 289.110406 247.093564 
L 290.94367 247.658029 
L 292.776935 247.510193 
L 294.6102 248.39721 
L 297.360098 248.934797 
L 299.193362 249.082633 
L 300.109995 249.633659 
L 301.94326 250.278762 
L 303.776525 250.937305 
L 304.693157 250.789469 
L 305.60979 250.950745 
L 306.526422 251.367374 
L 307.443054 251.474891 
L 308.359687 251.340495 
L 310.192952 251.93184 
L 312.026217 251.891521 
L 312.942849 252.160314 
L 313.859482 252.267831 
L 315.692746 252.845736 
L 317.526011 252.657581 
L 318.442644 252.496305 
L 320.275909 252.671021 
L 321.192541 253.07421 
L 323.025806 253.275805 
L 324.859071 253.047331 
L 325.775703 253.208607 
L 328.525601 253.248926 
L 330.358866 253.060771 
L 331.275498 253.007012 
L 334.942028 253.638676 
L 336.775293 253.504279 
L 337.691925 253.719314 
L 340.441822 253.934348 
L 344.108352 253.369883 
L 345.024985 253.584917 
L 346.858249 253.46396 
L 347.774882 253.638676 
L 349.608147 253.423641 
L 351.441412 253.141409 
L 354.191309 252.482865 
L 355.107941 252.482865 
L 356.024574 252.348469 
L 356.941206 252.335029 
L 358.774471 251.985598 
L 360.607736 251.716805 
L 361.524369 251.784003 
L 362.441001 251.663047 
L 363.357633 251.327055 
L 364.274266 251.259857 
L 365.190898 251.434572 
L 368.857428 251.15234 
L 369.774061 250.843228 
L 371.607325 251.219538 
L 372.523958 250.923866 
L 374.357223 251.219538 
L 375.273855 251.112021 
L 376.190488 250.614753 
L 377.10712 250.440038 
L 378.023753 250.399719 
L 378.940385 250.198124 
L 379.857017 249.875572 
L 380.77365 249.835253 
L 381.690282 249.553021 
L 383.523547 249.391745 
L 384.44018 249.432064 
L 385.356812 249.311107 
L 386.273445 248.894478 
L 388.106709 248.585366 
L 389.939974 248.182176 
L 391.773239 248.128417 
L 392.689872 247.886504 
L 394.523137 247.725228 
L 395.439769 247.147323 
L 396.356401 246.959167 
L 397.273034 247.012926 
L 400.022931 246.421581 
L 400.939564 245.870555 
L 401.856196 245.494245 
L 402.772829 245.615202 
L 404.606093 245.413607 
L 407.355991 244.781943 
L 409.189256 243.827728 
L 410.105888 243.585814 
L 411.022521 243.814288 
L 411.939153 243.572374 
L 412.855785 243.572374 
L 414.68905 242.712237 
L 415.605683 242.013374 
L 417.438948 241.771461 
L 418.35558 240.790366 
L 419.272213 240.62909 
L 420.188845 240.185581 
L 421.105477 239.889909 
L 422.02211 238.720659 
L 422.938742 238.088995 
L 423.855375 238.048676 
L 424.772007 237.618607 
L 425.68864 237.363254 
L 427.521905 236.274642 
L 428.438537 236.583754 
L 429.355169 236.677832 
L 431.188434 236.435918 
L 432.105067 236.570314 
L 433.021699 236.435918 
L 434.854964 235.858013 
L 435.771597 235.642978 
L 437.604861 235.522021 
L 440.354759 234.78284 
L 443.104656 235.57578 
L 444.937921 236.583754 
L 445.854553 236.650952 
L 446.771186 236.395599 
L 447.687818 237.430452 
L 448.604451 237.806763 
L 449.521083 238.586263 
L 453.187613 239.365763 
L 456.854143 241.932737 
L 457.770775 242.389685 
L 459.60404 242.470323 
L 460.520672 243.572374 
L 461.437305 244.204038 
L 462.353937 244.54003 
L 464.187202 245.628642 
L 466.9371 245.951193 
L 468.770364 246.85165 
L 469.686997 247.268279 
L 471.520262 247.604271 
L 472.436894 247.550512 
L 476.103424 249.096072 
L 477.020056 249.364866 
L 477.936689 249.270788 
L 478.853321 249.472383 
L 481.603219 250.74915 
L 483.436484 251.259857 
L 483.436484 251.259857 
" style="fill:none;stroke:#000000;stroke-linecap:square;stroke-width:1.5;"/>
   </g>
   <g id="line2d_33">
    <path clip-path="url(#pdd8485f6e0)" d="M 70.035252 250.069477 
L 70.951884 245.933386 
L 71.868516 243.826686 
L 73.701781 238.279687 
L 74.618414 234.317545 
L 77.368311 218.778216 
L 82.868106 187.023095 
L 83.784738 182.616419 
L 84.701371 179.040827 
L 85.618003 177.262695 
L 86.534636 175.967751 
L 87.451268 175.078685 
L 88.3679 173.39719 
L 89.284533 173.184588 
L 90.201165 173.493828 
L 91.117798 174.189619 
L 92.03443 175.581201 
L 93.867695 176.528249 
L 94.784328 176.721524 
L 95.70096 179.794601 
L 96.617592 181.959283 
L 97.534225 184.645809 
L 98.450857 186.829819 
L 99.36749 187.622248 
L 100.284122 187.970143 
L 101.200755 191.236495 
L 102.117387 193.942348 
L 103.03402 195.56586 
L 103.950652 197.846508 
L 104.867284 199.817915 
L 105.783917 200.494378 
L 106.700549 201.557392 
L 107.617182 204.379211 
L 108.533814 206.466583 
L 109.450447 208.882524 
L 110.367079 210.583346 
L 111.283711 211.221154 
L 112.200344 211.317792 
L 113.116976 213.134579 
L 114.950241 220.30509 
L 115.866874 222.4891 
L 116.783506 223.571442 
L 118.616771 224.692438 
L 119.533403 225.330246 
L 120.450036 227.572239 
L 122.283301 230.68397 
L 124.116566 232.964618 
L 125.033198 233.486461 
L 125.949831 234.491492 
L 127.783095 237.120036 
L 130.532993 238.898168 
L 131.449625 239.014133 
L 132.366258 239.613286 
L 135.116155 241.835951 
L 136.032787 242.918293 
L 136.94942 243.285516 
L 137.866052 243.382153 
L 138.782685 243.633411 
L 139.699317 244.34853 
L 141.532582 245.566164 
L 142.449215 246.53254 
L 143.365847 247.035055 
L 144.282479 247.093038 
L 145.199112 247.382951 
L 146.115744 248.349327 
L 147.949009 249.1031 
L 148.865642 249.528306 
L 149.782274 249.624943 
L 150.698907 249.605616 
L 151.615539 249.856874 
L 152.532171 250.224097 
L 153.448804 250.74594 
L 154.365436 250.939215 
L 155.282069 251.345093 
L 156.198701 251.422403 
L 157.115334 251.383748 
L 158.948599 251.963574 
L 159.865231 252.350124 
L 163.531761 252.891295 
L 165.365026 253.181208 
L 167.198291 253.587086 
L 169.031555 253.934981 
L 170.86482 253.838344 
L 172.698085 253.992964 
L 174.53135 254.57279 
L 182.781042 254.978668 
L 189.197469 255.732441 
L 190.114102 255.674458 
L 191.030734 255.887061 
L 195.613896 255.829079 
L 196.530529 255.597148 
L 204.780221 255.519838 
L 206.613486 255.635803 
L 207.530118 255.558493 
L 210.280015 255.693786 
L 211.196648 255.539166 
L 215.77981 255.403873 
L 216.696443 255.075305 
L 217.613075 255.423201 
L 219.44634 255.365218 
L 220.362972 255.133288 
L 222.196237 254.978668 
L 224.946134 254.282877 
L 227.696032 254.031619 
L 229.529297 252.678692 
L 232.279194 251.982901 
L 233.195826 251.692989 
L 234.112459 251.635006 
L 235.029091 251.035853 
L 236.862356 249.431668 
L 237.778989 249.296376 
L 238.695621 248.71655 
L 239.612254 248.48462 
L 240.528886 248.426637 
L 241.445518 247.305641 
L 243.278783 246.184644 
L 244.195416 245.643474 
L 245.112048 244.8897 
L 246.028681 244.42584 
L 246.945313 244.309874 
L 248.778578 242.976275 
L 249.69521 242.280485 
L 253.36174 240.869575 
L 254.278373 239.999837 
L 256.111638 239.903199 
L 257.944902 239.246063 
L 259.778167 238.859513 
L 260.6948 238.125067 
L 261.611432 236.482227 
L 262.528065 235.786437 
L 263.444697 234.626785 
L 264.36133 233.679737 
L 266.194594 231.321779 
L 267.111227 228.886511 
L 268.944492 226.451243 
L 269.861124 225.542849 
L 270.777757 223.803372 
L 271.694389 222.894978 
L 272.611022 221.638689 
L 273.527654 218.758888 
L 274.444286 216.826136 
L 276.277551 212.34215 
L 277.194184 209.307729 
L 279.027449 206.485911 
L 279.944081 203.973333 
L 280.860714 201.88596 
L 281.777346 198.696919 
L 282.693978 196.628874 
L 285.443876 192.106233 
L 286.360508 190.270118 
L 287.277141 188.878537 
L 288.193773 187.815523 
L 289.110406 187.06175 
L 290.027038 186.501251 
L 290.94367 186.675199 
L 292.776935 186.018063 
L 293.693568 186.655872 
L 294.6102 187.583593 
L 295.526833 189.63231 
L 297.360098 191.777665 
L 298.27673 191.73901 
L 299.193362 192.666731 
L 300.109995 194.986034 
L 301.94326 199.025487 
L 302.859892 201.170842 
L 303.776525 202.775026 
L 304.693157 203.45149 
L 305.60979 203.374179 
L 307.443054 207.606907 
L 308.359687 208.901851 
L 309.276319 210.989224 
L 310.192952 211.762325 
L 311.109584 212.052238 
L 312.026217 212.554753 
L 312.942849 214.21692 
L 313.859482 214.951366 
L 315.692746 217.058066 
L 316.609379 217.579909 
L 317.526011 217.579909 
L 318.442644 217.251341 
L 319.359276 217.521927 
L 320.275909 217.985787 
L 321.192541 218.19839 
L 322.109174 218.681578 
L 323.025806 219.358042 
L 323.942438 219.126111 
L 324.859071 219.493334 
L 325.775703 219.589972 
L 326.692336 219.976522 
L 327.608968 220.807606 
L 328.525601 221.406759 
L 330.358866 221.078191 
L 331.275498 220.30509 
L 332.19213 220.575675 
L 333.108763 220.517693 
L 334.025395 220.807606 
L 334.942028 220.923571 
L 335.85866 220.633658 
L 336.775293 220.07316 
L 337.691925 219.821902 
L 338.608557 220.421055 
L 339.52519 220.440383 
L 340.441822 221.252139 
L 341.358455 220.884916 
L 342.275087 221.116846 
L 343.19172 220.923571 
L 345.024985 219.802575 
L 345.941617 219.396697 
L 346.858249 219.222749 
L 347.774882 218.642923 
L 348.691514 218.797543 
L 350.524779 217.831167 
L 351.441412 217.637892 
L 352.358044 217.869822 
L 353.274677 217.637892 
L 354.191309 217.270669 
L 355.107941 217.599237 
L 356.941206 215.086659 
L 357.857839 214.545488 
L 358.774471 214.29423 
L 359.691104 214.429523 
L 360.607736 214.197593 
L 361.524369 214.468178 
L 363.357633 212.960631 
L 364.274266 212.013583 
L 365.190898 211.704342 
L 366.107531 212.26484 
L 367.940796 212.786683 
L 368.857428 212.206858 
L 369.774061 211.201827 
L 372.523958 211.414429 
L 373.44059 211.781652 
L 374.357223 211.64636 
L 375.273855 211.685015 
L 376.190488 210.969896 
L 377.10712 211.839635 
L 378.023753 211.87829 
L 378.940385 211.433757 
L 379.857017 212.013583 
L 380.77365 212.380805 
L 382.606915 212.129548 
L 383.523547 211.627032 
L 384.44018 211.511067 
L 385.356812 211.858962 
L 387.190077 212.11022 
L 388.106709 211.781652 
L 389.939974 210.486708 
L 390.856607 209.597642 
L 391.773239 209.655625 
L 392.689872 209.075799 
L 393.606504 208.959834 
L 394.523137 208.109423 
L 396.356401 205.751465 
L 397.273034 205.616172 
L 398.189666 204.514503 
L 400.939564 203.277542 
L 401.856196 202.059908 
L 402.772829 201.65403 
L 403.689461 202.272511 
L 405.522726 201.325462 
L 406.439358 200.320431 
L 407.355991 199.759933 
L 408.272623 197.691888 
L 409.189256 196.686856 
L 410.105888 196.609546 
L 411.022521 195.121327 
L 411.939153 194.483519 
L 412.855785 194.096968 
L 413.772418 193.246557 
L 414.68905 191.874303 
L 415.605683 191.313805 
L 416.522315 191.526408 
L 417.438948 190.656669 
L 418.35558 189.361725 
L 419.272213 189.149122 
L 420.188845 188.549969 
L 421.105477 187.351662 
L 422.02211 185.26429 
L 422.938742 184.278586 
L 423.855375 184.916394 
L 424.772007 184.491189 
L 425.68864 184.413879 
L 427.521905 183.428175 
L 428.438537 182.403816 
L 429.355169 183.292882 
L 430.271802 182.944987 
L 432.105067 183.776071 
L 433.021699 183.640778 
L 433.938332 182.771039 
L 434.854964 182.867677 
L 435.771597 183.602123 
L 436.688229 183.254227 
L 437.604861 183.834053 
L 438.521494 184.162621 
L 439.438126 184.162621 
L 440.354759 184.046656 
L 441.271391 184.742447 
L 443.104656 186.694527 
L 444.021289 188.434004 
L 444.937921 189.381052 
L 446.771186 188.936519 
L 447.687818 189.86424 
L 448.604451 191.371787 
L 450.437716 195.681825 
L 451.354348 197.150717 
L 452.27098 197.59525 
L 454.104245 200.591016 
L 455.020878 202.562423 
L 455.93751 204.205263 
L 457.770775 205.94474 
L 458.687408 206.17667 
L 459.60404 207.259012 
L 460.520672 208.959834 
L 461.437305 210.931241 
L 462.353937 212.226185 
L 463.27057 214.100955 
L 464.187202 215.048004 
L 466.9371 216.188328 
L 467.853732 217.695874 
L 468.770364 219.435352 
L 469.686997 220.884916 
L 470.603629 222.121877 
L 471.520262 222.624393 
L 472.436894 223.590769 
L 473.353527 225.117644 
L 474.270159 225.794107 
L 475.186792 226.721828 
L 476.103424 228.326012 
L 477.020056 228.770546 
L 477.936689 228.828528 
L 481.603219 232.133535 
L 482.519851 233.235203 
L 483.436484 233.853684 
L 483.436484 233.853684 
" style="fill:none;stroke:#e9967a;stroke-linecap:square;stroke-width:3;"/>
   </g>
   <g id="line2d_34">
    <path clip-path="url(#pdd8485f6e0)" d="M 54.4525 260.506339 
L 500.8525 260.506339 
" style="fill:none;stroke:#808080;stroke-linecap:square;stroke-width:0.8;"/>
   </g>
   <g id="line2d_35">
    <path clip-path="url(#pdd8485f6e0)" d="M 334.942028 270.860625 
L 334.942028 64.292625 
" style="fill:none;stroke:#000000;stroke-dasharray:1.85,0.8;stroke-dashoffset:0;stroke-width:0.5;"/>
   </g>
   <g id="text_24">
    <!-- France -->
    <g style="fill:#4169e1;" transform="translate(243.719687 49.677188)scale(0.18 -0.18)">
     <defs>
      <path d="M 588 4666 
L 3834 4666 
L 3834 3756 
L 1791 3756 
L 1791 2888 
L 3713 2888 
L 3713 1978 
L 1791 1978 
L 1791 0 
L 588 0 
L 588 4666 
z
" id="DejaVuSans-Bold-46" transform="scale(0.015625)"/>
      <path d="M 3138 2547 
Q 2991 2616 2845 2648 
Q 2700 2681 2553 2681 
Q 2122 2681 1889 2404 
Q 1656 2128 1656 1613 
L 1656 0 
L 538 0 
L 538 3500 
L 1656 3500 
L 1656 2925 
Q 1872 3269 2151 3426 
Q 2431 3584 2822 3584 
Q 2878 3584 2943 3579 
Q 3009 3575 3134 3559 
L 3138 2547 
z
" id="DejaVuSans-Bold-72" transform="scale(0.015625)"/>
      <path d="M 2106 1575 
Q 1756 1575 1579 1456 
Q 1403 1338 1403 1106 
Q 1403 894 1545 773 
Q 1688 653 1941 653 
Q 2256 653 2472 879 
Q 2688 1106 2688 1447 
L 2688 1575 
L 2106 1575 
z
M 3816 1997 
L 3816 0 
L 2688 0 
L 2688 519 
Q 2463 200 2181 54 
Q 1900 -91 1497 -91 
Q 953 -91 614 226 
Q 275 544 275 1050 
Q 275 1666 698 1953 
Q 1122 2241 2028 2241 
L 2688 2241 
L 2688 2328 
Q 2688 2594 2478 2717 
Q 2269 2841 1825 2841 
Q 1466 2841 1156 2769 
Q 847 2697 581 2553 
L 581 3406 
Q 941 3494 1303 3539 
Q 1666 3584 2028 3584 
Q 2975 3584 3395 3211 
Q 3816 2838 3816 1997 
z
" id="DejaVuSans-Bold-61" transform="scale(0.015625)"/>
      <path d="M 4056 2131 
L 4056 0 
L 2931 0 
L 2931 347 
L 2931 1631 
Q 2931 2084 2911 2256 
Q 2891 2428 2841 2509 
Q 2775 2619 2662 2680 
Q 2550 2741 2406 2741 
Q 2056 2741 1856 2470 
Q 1656 2200 1656 1722 
L 1656 0 
L 538 0 
L 538 3500 
L 1656 3500 
L 1656 2988 
Q 1909 3294 2193 3439 
Q 2478 3584 2822 3584 
Q 3428 3584 3742 3212 
Q 4056 2841 4056 2131 
z
" id="DejaVuSans-Bold-6e" transform="scale(0.015625)"/>
      <path d="M 3366 3391 
L 3366 2478 
Q 3138 2634 2908 2709 
Q 2678 2784 2431 2784 
Q 1963 2784 1702 2511 
Q 1441 2238 1441 1747 
Q 1441 1256 1702 982 
Q 1963 709 2431 709 
Q 2694 709 2930 787 
Q 3166 866 3366 1019 
L 3366 103 
Q 3103 6 2833 -42 
Q 2563 -91 2291 -91 
Q 1344 -91 809 395 
Q 275 881 275 1747 
Q 275 2613 809 3098 
Q 1344 3584 2291 3584 
Q 2566 3584 2833 3536 
Q 3100 3488 3366 3391 
z
" id="DejaVuSans-Bold-63" transform="scale(0.015625)"/>
      <path d="M 4031 1759 
L 4031 1441 
L 1416 1441 
Q 1456 1047 1700 850 
Q 1944 653 2381 653 
Q 2734 653 3104 758 
Q 3475 863 3866 1075 
L 3866 213 
Q 3469 63 3072 -14 
Q 2675 -91 2278 -91 
Q 1328 -91 801 392 
Q 275 875 275 1747 
Q 275 2603 792 3093 
Q 1309 3584 2216 3584 
Q 3041 3584 3536 3087 
Q 4031 2591 4031 1759 
z
M 2881 2131 
Q 2881 2450 2695 2645 
Q 2509 2841 2209 2841 
Q 1884 2841 1681 2658 
Q 1478 2475 1428 2131 
L 2881 2131 
z
" id="DejaVuSans-Bold-65" transform="scale(0.015625)"/>
     </defs>
     <use xlink:href="#DejaVuSans-Bold-46"/>
     <use x="61.935547" xlink:href="#DejaVuSans-Bold-72"/>
     <use x="111.251953" xlink:href="#DejaVuSans-Bold-61"/>
     <use x="178.732422" xlink:href="#DejaVuSans-Bold-6e"/>
     <use x="249.923828" xlink:href="#DejaVuSans-Bold-63"/>
     <use x="309.201172" xlink:href="#DejaVuSans-Bold-65"/>
    </g>
   </g>
   <g id="legend_1">
    <g id="patch_6">
     <path d="M 411.034688 115.290375 
L 537.7925 115.290375 
Q 539.9925 115.290375 539.9925 113.090375 
L 539.9925 39.376625 
Q 539.9925 37.176625 537.7925 37.176625 
L 411.034688 37.176625 
Q 408.834688 37.176625 408.834688 39.376625 
L 408.834688 113.090375 
Q 408.834688 115.290375 411.034688 115.290375 
z
" style="fill:#ffffff;opacity:0.8;stroke:#cccccc;stroke-linejoin:miter;"/>
    </g>
    <g id="text_25">
     <!-- Patients en réanimation, -->
     <g transform="translate(413.234688 49.175062)scale(0.1 -0.1)">
      <defs>
       <path d="M 1259 4147 
L 1259 2394 
L 2053 2394 
Q 2494 2394 2734 2622 
Q 2975 2850 2975 3272 
Q 2975 3691 2734 3919 
Q 2494 4147 2053 4147 
L 1259 4147 
z
M 628 4666 
L 2053 4666 
Q 2838 4666 3239 4311 
Q 3641 3956 3641 3272 
Q 3641 2581 3239 2228 
Q 2838 1875 2053 1875 
L 1259 1875 
L 1259 0 
L 628 0 
L 628 4666 
z
" id="DejaVuSans-50" transform="scale(0.015625)"/>
       <path id="DejaVuSans-20" transform="scale(0.015625)"/>
       <path d="M 750 794 
L 1409 794 
L 1409 256 
L 897 -744 
L 494 -744 
L 750 256 
L 750 794 
z
" id="DejaVuSans-2c" transform="scale(0.015625)"/>
      </defs>
      <use xlink:href="#DejaVuSans-50"/>
      <use x="55.802734" xlink:href="#DejaVuSans-61"/>
      <use x="117.082031" xlink:href="#DejaVuSans-74"/>
      <use x="156.291016" xlink:href="#DejaVuSans-69"/>
      <use x="184.074219" xlink:href="#DejaVuSans-65"/>
      <use x="245.597656" xlink:href="#DejaVuSans-6e"/>
      <use x="308.976562" xlink:href="#DejaVuSans-74"/>
      <use x="348.185547" xlink:href="#DejaVuSans-73"/>
      <use x="400.285156" xlink:href="#DejaVuSans-20"/>
      <use x="432.072266" xlink:href="#DejaVuSans-65"/>
      <use x="493.595703" xlink:href="#DejaVuSans-6e"/>
      <use x="556.974609" xlink:href="#DejaVuSans-20"/>
      <use x="588.761719" xlink:href="#DejaVuSans-72"/>
      <use x="627.625" xlink:href="#DejaVuSans-e9"/>
      <use x="689.148438" xlink:href="#DejaVuSans-61"/>
      <use x="750.427734" xlink:href="#DejaVuSans-6e"/>
      <use x="813.806641" xlink:href="#DejaVuSans-69"/>
      <use x="841.589844" xlink:href="#DejaVuSans-6d"/>
      <use x="939.001953" xlink:href="#DejaVuSans-61"/>
      <use x="1000.28125" xlink:href="#DejaVuSans-74"/>
      <use x="1039.490234" xlink:href="#DejaVuSans-69"/>
      <use x="1067.273438" xlink:href="#DejaVuSans-6f"/>
      <use x="1128.455078" xlink:href="#DejaVuSans-6e"/>
      <use x="1191.833984" xlink:href="#DejaVuSans-2c"/>
     </g>
     <!-- pour 100 000 habitants -->
     <g transform="translate(415.547188 60.372875)scale(0.1 -0.1)">
      <defs>
       <path d="M 3513 2113 
L 3513 0 
L 2938 0 
L 2938 2094 
Q 2938 2591 2744 2837 
Q 2550 3084 2163 3084 
Q 1697 3084 1428 2787 
Q 1159 2491 1159 1978 
L 1159 0 
L 581 0 
L 581 4863 
L 1159 4863 
L 1159 2956 
Q 1366 3272 1645 3428 
Q 1925 3584 2291 3584 
Q 2894 3584 3203 3211 
Q 3513 2838 3513 2113 
z
" id="DejaVuSans-68" transform="scale(0.015625)"/>
       <path d="M 3116 1747 
Q 3116 2381 2855 2742 
Q 2594 3103 2138 3103 
Q 1681 3103 1420 2742 
Q 1159 2381 1159 1747 
Q 1159 1113 1420 752 
Q 1681 391 2138 391 
Q 2594 391 2855 752 
Q 3116 1113 3116 1747 
z
M 1159 2969 
Q 1341 3281 1617 3432 
Q 1894 3584 2278 3584 
Q 2916 3584 3314 3078 
Q 3713 2572 3713 1747 
Q 3713 922 3314 415 
Q 2916 -91 2278 -91 
Q 1894 -91 1617 61 
Q 1341 213 1159 525 
L 1159 0 
L 581 0 
L 581 4863 
L 1159 4863 
L 1159 2969 
z
" id="DejaVuSans-62" transform="scale(0.015625)"/>
      </defs>
      <use xlink:href="#DejaVuSans-70"/>
      <use x="63.476562" xlink:href="#DejaVuSans-6f"/>
      <use x="124.658203" xlink:href="#DejaVuSans-75"/>
      <use x="188.037109" xlink:href="#DejaVuSans-72"/>
      <use x="229.150391" xlink:href="#DejaVuSans-20"/>
      <use x="260.9375" xlink:href="#DejaVuSans-31"/>
      <use x="324.560547" xlink:href="#DejaVuSans-30"/>
      <use x="388.183594" xlink:href="#DejaVuSans-30"/>
      <use x="451.806641" xlink:href="#DejaVuSans-20"/>
      <use x="483.59375" xlink:href="#DejaVuSans-30"/>
      <use x="547.216797" xlink:href="#DejaVuSans-30"/>
      <use x="610.839844" xlink:href="#DejaVuSans-30"/>
      <use x="674.462891" xlink:href="#DejaVuSans-20"/>
      <use x="706.25" xlink:href="#DejaVuSans-68"/>
      <use x="769.628906" xlink:href="#DejaVuSans-61"/>
      <use x="830.908203" xlink:href="#DejaVuSans-62"/>
      <use x="894.384766" xlink:href="#DejaVuSans-69"/>
      <use x="922.167969" xlink:href="#DejaVuSans-74"/>
      <use x="961.376953" xlink:href="#DejaVuSans-61"/>
      <use x="1022.65625" xlink:href="#DejaVuSans-6e"/>
      <use x="1086.035156" xlink:href="#DejaVuSans-74"/>
      <use x="1125.244141" xlink:href="#DejaVuSans-73"/>
     </g>
    </g>
    <g id="line2d_36">
     <path d="M 428.550469 72.460844 
L 450.550469 72.460844 
" style="fill:none;stroke:#b22222;stroke-linecap:square;"/>
    </g>
    <g id="line2d_37"/>
    <g id="text_26">
     <!-- 0-29 ans -->
     <g transform="translate(456.050469 76.310844)scale(0.11 -0.11)">
      <defs>
       <path d="M 313 2009 
L 1997 2009 
L 1997 1497 
L 313 1497 
L 313 2009 
z
" id="DejaVuSans-2d" transform="scale(0.015625)"/>
       <path d="M 703 97 
L 703 672 
Q 941 559 1184 500 
Q 1428 441 1663 441 
Q 2288 441 2617 861 
Q 2947 1281 2994 2138 
Q 2813 1869 2534 1725 
Q 2256 1581 1919 1581 
Q 1219 1581 811 2004 
Q 403 2428 403 3163 
Q 403 3881 828 4315 
Q 1253 4750 1959 4750 
Q 2769 4750 3195 4129 
Q 3622 3509 3622 2328 
Q 3622 1225 3098 567 
Q 2575 -91 1691 -91 
Q 1453 -91 1209 -44 
Q 966 3 703 97 
z
M 1959 2075 
Q 2384 2075 2632 2365 
Q 2881 2656 2881 3163 
Q 2881 3666 2632 3958 
Q 2384 4250 1959 4250 
Q 1534 4250 1286 3958 
Q 1038 3666 1038 3163 
Q 1038 2656 1286 2365 
Q 1534 2075 1959 2075 
z
" id="DejaVuSans-39" transform="scale(0.015625)"/>
      </defs>
      <use xlink:href="#DejaVuSans-30"/>
      <use x="63.623047" xlink:href="#DejaVuSans-2d"/>
      <use x="99.707031" xlink:href="#DejaVuSans-32"/>
      <use x="163.330078" xlink:href="#DejaVuSans-39"/>
      <use x="226.953125" xlink:href="#DejaVuSans-20"/>
      <use x="258.740234" xlink:href="#DejaVuSans-61"/>
      <use x="320.019531" xlink:href="#DejaVuSans-6e"/>
      <use x="383.398438" xlink:href="#DejaVuSans-73"/>
     </g>
    </g>
    <g id="line2d_38">
     <path d="M 428.550469 88.606781 
L 450.550469 88.606781 
" style="fill:none;stroke:#000000;stroke-linecap:square;stroke-width:1.5;"/>
    </g>
    <g id="line2d_39"/>
    <g id="text_27">
     <!-- 30-59 ans -->
     <g transform="translate(456.050469 92.456781)scale(0.11 -0.11)">
      <use xlink:href="#DejaVuSans-33"/>
      <use x="63.623047" xlink:href="#DejaVuSans-30"/>
      <use x="127.246094" xlink:href="#DejaVuSans-2d"/>
      <use x="163.330078" xlink:href="#DejaVuSans-35"/>
      <use x="226.953125" xlink:href="#DejaVuSans-39"/>
      <use x="290.576172" xlink:href="#DejaVuSans-20"/>
      <use x="322.363281" xlink:href="#DejaVuSans-61"/>
      <use x="383.642578" xlink:href="#DejaVuSans-6e"/>
      <use x="447.021484" xlink:href="#DejaVuSans-73"/>
     </g>
    </g>
    <g id="line2d_40">
     <path d="M 428.550469 104.752719 
L 450.550469 104.752719 
" style="fill:none;stroke:#e9967a;stroke-linecap:square;stroke-width:3;"/>
    </g>
    <g id="line2d_41"/>
    <g id="text_28">
     <!-- 60 ans et + -->
     <g transform="translate(456.050469 108.602719)scale(0.11 -0.11)">
      <defs>
       <path d="M 2113 2584 
Q 1688 2584 1439 2293 
Q 1191 2003 1191 1497 
Q 1191 994 1439 701 
Q 1688 409 2113 409 
Q 2538 409 2786 701 
Q 3034 994 3034 1497 
Q 3034 2003 2786 2293 
Q 2538 2584 2113 2584 
z
M 3366 4563 
L 3366 3988 
Q 3128 4100 2886 4159 
Q 2644 4219 2406 4219 
Q 1781 4219 1451 3797 
Q 1122 3375 1075 2522 
Q 1259 2794 1537 2939 
Q 1816 3084 2150 3084 
Q 2853 3084 3261 2657 
Q 3669 2231 3669 1497 
Q 3669 778 3244 343 
Q 2819 -91 2113 -91 
Q 1303 -91 875 529 
Q 447 1150 447 2328 
Q 447 3434 972 4092 
Q 1497 4750 2381 4750 
Q 2619 4750 2861 4703 
Q 3103 4656 3366 4563 
z
" id="DejaVuSans-36" transform="scale(0.015625)"/>
       <path d="M 2944 4013 
L 2944 2272 
L 4684 2272 
L 4684 1741 
L 2944 1741 
L 2944 0 
L 2419 0 
L 2419 1741 
L 678 1741 
L 678 2272 
L 2419 2272 
L 2419 4013 
L 2944 4013 
z
" id="DejaVuSans-2b" transform="scale(0.015625)"/>
      </defs>
      <use xlink:href="#DejaVuSans-36"/>
      <use x="63.623047" xlink:href="#DejaVuSans-30"/>
      <use x="127.246094" xlink:href="#DejaVuSans-20"/>
      <use x="159.033203" xlink:href="#DejaVuSans-61"/>
      <use x="220.3125" xlink:href="#DejaVuSans-6e"/>
      <use x="283.691406" xlink:href="#DejaVuSans-73"/>
      <use x="335.791016" xlink:href="#DejaVuSans-20"/>
      <use x="367.578125" xlink:href="#DejaVuSans-65"/>
      <use x="429.101562" xlink:href="#DejaVuSans-74"/>
      <use x="468.310547" xlink:href="#DejaVuSans-20"/>
      <use x="500.097656" xlink:href="#DejaVuSans-2b"/>
     </g>
    </g>
   </g>
  </g>
 </g>
 <defs>
  <clipPath id="pdd8485f6e0">
   <rect height="217.44" width="446.4" x="54.4525" y="53.420625"/>
  </clipPath>
 </defs>
</svg>
