<?xml version="1.0" encoding="utf-8" standalone="no"?>
<!DOCTYPE svg PUBLIC "-//W3C//DTD SVG 1.1//EN"
  "http://www.w3.org/Graphics/SVG/1.1/DTD/svg11.dtd">
<svg height="336.049967pt" version="1.1" viewBox="0 0 575.9925 336.049967" width="575.9925pt" xmlns="http://www.w3.org/2000/svg" xmlns:xlink="http://www.w3.org/1999/xlink">
 <metadata>
  <rdf:RDF xmlns:cc="http://creativecommons.org/ns#" xmlns:dc="http://purl.org/dc/elements/1.1/" xmlns:rdf="http://www.w3.org/1999/02/22-rdf-syntax-ns#">
   <cc:Work>
    <dc:type rdf:resource="http://purl.org/dc/dcmitype/StillImage"/>
    <dc:date>2021-06-21T23:46:33.950368</dc:date>
    <dc:format>image/svg+xml</dc:format>
    <dc:creator>
     <cc:Agent>
      <dc:title>Matplotlib v3.4.1, https://matplotlib.org/</dc:title>
     </cc:Agent>
    </dc:creator>
   </cc:Work>
  </rdf:RDF>
 </metadata>
 <defs>
  <style type="text/css">*{stroke-linecap:butt;stroke-linejoin:round;}</style>
 </defs>
 <g id="figure_1">
  <g id="patch_1">
   <path d="M 0 336.049967 
L 575.9925 336.049967 
L 575.9925 0 
L 0 0 
z
" style="fill:#ffffff;"/>
  </g>
  <g id="axes_1">
   <g id="patch_2">
    <path d="M 54.4525 270.860625 
L 500.8525 270.860625 
L 500.8525 53.420625 
L 54.4525 53.420625 
z
" style="fill:none;opacity:0;"/>
   </g>
   <g id="patch_3">
    <path clip-path="url(#pe519b87aba)" d="M 69.118619 270.860625 
L 69.118619 64.292625 
L 118.616771 64.292625 
L 118.616771 270.860625 
z
" style="fill:#808080;opacity:0.15;stroke:#808080;stroke-linejoin:miter;"/>
   </g>
   <g id="patch_4">
    <path clip-path="url(#pe519b87aba)" d="M 277.194184 270.860625 
L 277.194184 64.292625 
L 319.359276 64.292625 
L 319.359276 270.860625 
z
" style="fill:#808080;opacity:0.15;stroke:#808080;stroke-linejoin:miter;"/>
   </g>
   <g id="patch_5">
    <path clip-path="url(#pe519b87aba)" d="M 421.105477 270.860625 
L 421.105477 64.292625 
L 445.854553 64.292625 
L 445.854553 270.860625 
z
" style="fill:#808080;opacity:0.15;stroke:#808080;stroke-linejoin:miter;"/>
   </g>
   <g id="matplotlib.axis_1">
    <g id="xtick_1">
     <g id="line2d_1">
      <defs>
       <path d="M 0 0 
L 0 3.5 
" id="m2ce126a56a" style="stroke:#000000;stroke-width:0.8;"/>
      </defs>
      <g>
       <use style="stroke:#000000;stroke-width:0.8;" x="54.4525" xlink:href="#m2ce126a56a" y="270.860625"/>
      </g>
     </g>
     <g id="text_1">
      <!-- mars -->
      <g transform="translate(43.257895 298.726462)rotate(-45)scale(0.09 -0.09)">
       <defs>
        <path d="M 3328 2828 
Q 3544 3216 3844 3400 
Q 4144 3584 4550 3584 
Q 5097 3584 5394 3201 
Q 5691 2819 5691 2113 
L 5691 0 
L 5113 0 
L 5113 2094 
Q 5113 2597 4934 2840 
Q 4756 3084 4391 3084 
Q 3944 3084 3684 2787 
Q 3425 2491 3425 1978 
L 3425 0 
L 2847 0 
L 2847 2094 
Q 2847 2600 2669 2842 
Q 2491 3084 2119 3084 
Q 1678 3084 1418 2786 
Q 1159 2488 1159 1978 
L 1159 0 
L 581 0 
L 581 3500 
L 1159 3500 
L 1159 2956 
Q 1356 3278 1631 3431 
Q 1906 3584 2284 3584 
Q 2666 3584 2933 3390 
Q 3200 3197 3328 2828 
z
" id="DejaVuSans-6d" transform="scale(0.015625)"/>
        <path d="M 2194 1759 
Q 1497 1759 1228 1600 
Q 959 1441 959 1056 
Q 959 750 1161 570 
Q 1363 391 1709 391 
Q 2188 391 2477 730 
Q 2766 1069 2766 1631 
L 2766 1759 
L 2194 1759 
z
M 3341 1997 
L 3341 0 
L 2766 0 
L 2766 531 
Q 2569 213 2275 61 
Q 1981 -91 1556 -91 
Q 1019 -91 701 211 
Q 384 513 384 1019 
Q 384 1609 779 1909 
Q 1175 2209 1959 2209 
L 2766 2209 
L 2766 2266 
Q 2766 2663 2505 2880 
Q 2244 3097 1772 3097 
Q 1472 3097 1187 3025 
Q 903 2953 641 2809 
L 641 3341 
Q 956 3463 1253 3523 
Q 1550 3584 1831 3584 
Q 2591 3584 2966 3190 
Q 3341 2797 3341 1997 
z
" id="DejaVuSans-61" transform="scale(0.015625)"/>
        <path d="M 2631 2963 
Q 2534 3019 2420 3045 
Q 2306 3072 2169 3072 
Q 1681 3072 1420 2755 
Q 1159 2438 1159 1844 
L 1159 0 
L 581 0 
L 581 3500 
L 1159 3500 
L 1159 2956 
Q 1341 3275 1631 3429 
Q 1922 3584 2338 3584 
Q 2397 3584 2469 3576 
Q 2541 3569 2628 3553 
L 2631 2963 
z
" id="DejaVuSans-72" transform="scale(0.015625)"/>
        <path d="M 2834 3397 
L 2834 2853 
Q 2591 2978 2328 3040 
Q 2066 3103 1784 3103 
Q 1356 3103 1142 2972 
Q 928 2841 928 2578 
Q 928 2378 1081 2264 
Q 1234 2150 1697 2047 
L 1894 2003 
Q 2506 1872 2764 1633 
Q 3022 1394 3022 966 
Q 3022 478 2636 193 
Q 2250 -91 1575 -91 
Q 1294 -91 989 -36 
Q 684 19 347 128 
L 347 722 
Q 666 556 975 473 
Q 1284 391 1588 391 
Q 1994 391 2212 530 
Q 2431 669 2431 922 
Q 2431 1156 2273 1281 
Q 2116 1406 1581 1522 
L 1381 1569 
Q 847 1681 609 1914 
Q 372 2147 372 2553 
Q 372 3047 722 3315 
Q 1072 3584 1716 3584 
Q 2034 3584 2315 3537 
Q 2597 3491 2834 3397 
z
" id="DejaVuSans-73" transform="scale(0.015625)"/>
       </defs>
       <use xlink:href="#DejaVuSans-6d"/>
       <use x="97.412109" xlink:href="#DejaVuSans-61"/>
       <use x="158.691406" xlink:href="#DejaVuSans-72"/>
       <use x="199.804688" xlink:href="#DejaVuSans-73"/>
      </g>
     </g>
    </g>
    <g id="xtick_2">
     <g id="line2d_2">
      <g>
       <use style="stroke:#000000;stroke-width:0.8;" x="82.868106" xlink:href="#m2ce126a56a" y="270.860625"/>
      </g>
     </g>
     <g id="text_2">
      <!-- avril -->
      <g transform="translate(73.884977 296.514986)rotate(-45)scale(0.09 -0.09)">
       <defs>
        <path d="M 191 3500 
L 800 3500 
L 1894 563 
L 2988 3500 
L 3597 3500 
L 2284 0 
L 1503 0 
L 191 3500 
z
" id="DejaVuSans-76" transform="scale(0.015625)"/>
        <path d="M 603 3500 
L 1178 3500 
L 1178 0 
L 603 0 
L 603 3500 
z
M 603 4863 
L 1178 4863 
L 1178 4134 
L 603 4134 
L 603 4863 
z
" id="DejaVuSans-69" transform="scale(0.015625)"/>
        <path d="M 603 4863 
L 1178 4863 
L 1178 0 
L 603 0 
L 603 4863 
z
" id="DejaVuSans-6c" transform="scale(0.015625)"/>
       </defs>
       <use xlink:href="#DejaVuSans-61"/>
       <use x="61.279297" xlink:href="#DejaVuSans-76"/>
       <use x="120.458984" xlink:href="#DejaVuSans-72"/>
       <use x="161.572266" xlink:href="#DejaVuSans-69"/>
       <use x="189.355469" xlink:href="#DejaVuSans-6c"/>
      </g>
     </g>
    </g>
    <g id="xtick_3">
     <g id="line2d_3">
      <g>
       <use style="stroke:#000000;stroke-width:0.8;" x="110.367079" xlink:href="#m2ce126a56a" y="270.860625"/>
      </g>
     </g>
     <g id="text_3">
      <!-- mai -->
      <g transform="translate(103.335896 294.56304)rotate(-45)scale(0.09 -0.09)">
       <use xlink:href="#DejaVuSans-6d"/>
       <use x="97.412109" xlink:href="#DejaVuSans-61"/>
       <use x="158.691406" xlink:href="#DejaVuSans-69"/>
      </g>
     </g>
    </g>
    <g id="xtick_4">
     <g id="line2d_4">
      <g>
       <use style="stroke:#000000;stroke-width:0.8;" x="138.782685" xlink:href="#m2ce126a56a" y="270.860625"/>
      </g>
     </g>
     <g id="text_4">
      <!-- juin -->
      <g transform="translate(132.016004 294.298537)rotate(-45)scale(0.09 -0.09)">
       <defs>
        <path d="M 603 3500 
L 1178 3500 
L 1178 -63 
Q 1178 -731 923 -1031 
Q 669 -1331 103 -1331 
L -116 -1331 
L -116 -844 
L 38 -844 
Q 366 -844 484 -692 
Q 603 -541 603 -63 
L 603 3500 
z
M 603 4863 
L 1178 4863 
L 1178 4134 
L 603 4134 
L 603 4863 
z
" id="DejaVuSans-6a" transform="scale(0.015625)"/>
        <path d="M 544 1381 
L 544 3500 
L 1119 3500 
L 1119 1403 
Q 1119 906 1312 657 
Q 1506 409 1894 409 
Q 2359 409 2629 706 
Q 2900 1003 2900 1516 
L 2900 3500 
L 3475 3500 
L 3475 0 
L 2900 0 
L 2900 538 
Q 2691 219 2414 64 
Q 2138 -91 1772 -91 
Q 1169 -91 856 284 
Q 544 659 544 1381 
z
M 1991 3584 
L 1991 3584 
z
" id="DejaVuSans-75" transform="scale(0.015625)"/>
        <path d="M 3513 2113 
L 3513 0 
L 2938 0 
L 2938 2094 
Q 2938 2591 2744 2837 
Q 2550 3084 2163 3084 
Q 1697 3084 1428 2787 
Q 1159 2491 1159 1978 
L 1159 0 
L 581 0 
L 581 3500 
L 1159 3500 
L 1159 2956 
Q 1366 3272 1645 3428 
Q 1925 3584 2291 3584 
Q 2894 3584 3203 3211 
Q 3513 2838 3513 2113 
z
" id="DejaVuSans-6e" transform="scale(0.015625)"/>
       </defs>
       <use xlink:href="#DejaVuSans-6a"/>
       <use x="27.783203" xlink:href="#DejaVuSans-75"/>
       <use x="91.162109" xlink:href="#DejaVuSans-69"/>
       <use x="118.945312" xlink:href="#DejaVuSans-6e"/>
      </g>
     </g>
    </g>
    <g id="xtick_5">
     <g id="line2d_5">
      <g>
       <use style="stroke:#000000;stroke-width:0.8;" x="166.281658" xlink:href="#m2ce126a56a" y="270.860625"/>
      </g>
     </g>
     <g id="text_5">
      <!-- juil. -->
      <g transform="translate(159.757604 294.055911)rotate(-45)scale(0.09 -0.09)">
       <defs>
        <path d="M 684 794 
L 1344 794 
L 1344 0 
L 684 0 
L 684 794 
z
" id="DejaVuSans-2e" transform="scale(0.015625)"/>
       </defs>
       <use xlink:href="#DejaVuSans-6a"/>
       <use x="27.783203" xlink:href="#DejaVuSans-75"/>
       <use x="91.162109" xlink:href="#DejaVuSans-69"/>
       <use x="118.945312" xlink:href="#DejaVuSans-6c"/>
       <use x="146.728516" xlink:href="#DejaVuSans-2e"/>
      </g>
     </g>
    </g>
    <g id="xtick_6">
     <g id="line2d_6">
      <g>
       <use style="stroke:#000000;stroke-width:0.8;" x="194.697264" xlink:href="#m2ce126a56a" y="270.860625"/>
      </g>
     </g>
     <g id="text_6">
      <!-- août -->
      <g transform="translate(185.210984 297.018136)rotate(-45)scale(0.09 -0.09)">
       <defs>
        <path d="M 1959 3097 
Q 1497 3097 1228 2736 
Q 959 2375 959 1747 
Q 959 1119 1226 758 
Q 1494 397 1959 397 
Q 2419 397 2687 759 
Q 2956 1122 2956 1747 
Q 2956 2369 2687 2733 
Q 2419 3097 1959 3097 
z
M 1959 3584 
Q 2709 3584 3137 3096 
Q 3566 2609 3566 1747 
Q 3566 888 3137 398 
Q 2709 -91 1959 -91 
Q 1206 -91 779 398 
Q 353 888 353 1747 
Q 353 2609 779 3096 
Q 1206 3584 1959 3584 
z
" id="DejaVuSans-6f" transform="scale(0.015625)"/>
        <path d="M 544 1381 
L 544 3500 
L 1119 3500 
L 1119 1403 
Q 1119 906 1312 657 
Q 1506 409 1894 409 
Q 2359 409 2629 706 
Q 2900 1003 2900 1516 
L 2900 3500 
L 3475 3500 
L 3475 0 
L 2900 0 
L 2900 538 
Q 2691 219 2414 64 
Q 2138 -91 1772 -91 
Q 1169 -91 856 284 
Q 544 659 544 1381 
z
M 1991 3584 
L 1991 3584 
z
M 1753 5119 
L 2215 5119 
L 2981 3944 
L 2547 3944 
L 1984 4709 
L 1422 3944 
L 987 3944 
L 1753 5119 
z
" id="DejaVuSans-fb" transform="scale(0.015625)"/>
        <path d="M 1172 4494 
L 1172 3500 
L 2356 3500 
L 2356 3053 
L 1172 3053 
L 1172 1153 
Q 1172 725 1289 603 
Q 1406 481 1766 481 
L 2356 481 
L 2356 0 
L 1766 0 
Q 1100 0 847 248 
Q 594 497 594 1153 
L 594 3053 
L 172 3053 
L 172 3500 
L 594 3500 
L 594 4494 
L 1172 4494 
z
" id="DejaVuSans-74" transform="scale(0.015625)"/>
       </defs>
       <use xlink:href="#DejaVuSans-61"/>
       <use x="61.279297" xlink:href="#DejaVuSans-6f"/>
       <use x="122.460938" xlink:href="#DejaVuSans-fb"/>
       <use x="185.839844" xlink:href="#DejaVuSans-74"/>
      </g>
     </g>
    </g>
    <g id="xtick_7">
     <g id="line2d_7">
      <g>
       <use style="stroke:#000000;stroke-width:0.8;" x="223.11287" xlink:href="#m2ce126a56a" y="270.860625"/>
      </g>
     </g>
     <g id="text_7">
      <!-- sept. -->
      <g transform="translate(212.159896 298.484831)rotate(-45)scale(0.09 -0.09)">
       <defs>
        <path d="M 3597 1894 
L 3597 1613 
L 953 1613 
Q 991 1019 1311 708 
Q 1631 397 2203 397 
Q 2534 397 2845 478 
Q 3156 559 3463 722 
L 3463 178 
Q 3153 47 2828 -22 
Q 2503 -91 2169 -91 
Q 1331 -91 842 396 
Q 353 884 353 1716 
Q 353 2575 817 3079 
Q 1281 3584 2069 3584 
Q 2775 3584 3186 3129 
Q 3597 2675 3597 1894 
z
M 3022 2063 
Q 3016 2534 2758 2815 
Q 2500 3097 2075 3097 
Q 1594 3097 1305 2825 
Q 1016 2553 972 2059 
L 3022 2063 
z
" id="DejaVuSans-65" transform="scale(0.015625)"/>
        <path d="M 1159 525 
L 1159 -1331 
L 581 -1331 
L 581 3500 
L 1159 3500 
L 1159 2969 
Q 1341 3281 1617 3432 
Q 1894 3584 2278 3584 
Q 2916 3584 3314 3078 
Q 3713 2572 3713 1747 
Q 3713 922 3314 415 
Q 2916 -91 2278 -91 
Q 1894 -91 1617 61 
Q 1341 213 1159 525 
z
M 3116 1747 
Q 3116 2381 2855 2742 
Q 2594 3103 2138 3103 
Q 1681 3103 1420 2742 
Q 1159 2381 1159 1747 
Q 1159 1113 1420 752 
Q 1681 391 2138 391 
Q 2594 391 2855 752 
Q 3116 1113 3116 1747 
z
" id="DejaVuSans-70" transform="scale(0.015625)"/>
       </defs>
       <use xlink:href="#DejaVuSans-73"/>
       <use x="52.099609" xlink:href="#DejaVuSans-65"/>
       <use x="113.623047" xlink:href="#DejaVuSans-70"/>
       <use x="177.099609" xlink:href="#DejaVuSans-74"/>
       <use x="216.308594" xlink:href="#DejaVuSans-2e"/>
      </g>
     </g>
    </g>
    <g id="xtick_8">
     <g id="line2d_8">
      <g>
       <use style="stroke:#000000;stroke-width:0.8;" x="250.611843" xlink:href="#m2ce126a56a" y="270.860625"/>
      </g>
     </g>
     <g id="text_8">
      <!-- oct. -->
      <g transform="translate(243.536908 294.606792)rotate(-45)scale(0.09 -0.09)">
       <defs>
        <path d="M 3122 3366 
L 3122 2828 
Q 2878 2963 2633 3030 
Q 2388 3097 2138 3097 
Q 1578 3097 1268 2742 
Q 959 2388 959 1747 
Q 959 1106 1268 751 
Q 1578 397 2138 397 
Q 2388 397 2633 464 
Q 2878 531 3122 666 
L 3122 134 
Q 2881 22 2623 -34 
Q 2366 -91 2075 -91 
Q 1284 -91 818 406 
Q 353 903 353 1747 
Q 353 2603 823 3093 
Q 1294 3584 2113 3584 
Q 2378 3584 2631 3529 
Q 2884 3475 3122 3366 
z
" id="DejaVuSans-63" transform="scale(0.015625)"/>
       </defs>
       <use xlink:href="#DejaVuSans-6f"/>
       <use x="61.181641" xlink:href="#DejaVuSans-63"/>
       <use x="116.162109" xlink:href="#DejaVuSans-74"/>
       <use x="155.371094" xlink:href="#DejaVuSans-2e"/>
      </g>
     </g>
    </g>
    <g id="xtick_9">
     <g id="line2d_9">
      <g>
       <use style="stroke:#000000;stroke-width:0.8;" x="279.027449" xlink:href="#m2ce126a56a" y="270.860625"/>
      </g>
     </g>
     <g id="text_9">
      <!-- nov. -->
      <g transform="translate(270.639947 295.919359)rotate(-45)scale(0.09 -0.09)">
       <use xlink:href="#DejaVuSans-6e"/>
       <use x="63.378906" xlink:href="#DejaVuSans-6f"/>
       <use x="124.560547" xlink:href="#DejaVuSans-76"/>
       <use x="175.990234" xlink:href="#DejaVuSans-2e"/>
      </g>
     </g>
    </g>
    <g id="xtick_10">
     <g id="line2d_10">
      <g>
       <use style="stroke:#000000;stroke-width:0.8;" x="306.526422" xlink:href="#m2ce126a56a" y="270.860625"/>
      </g>
     </g>
     <g id="text_10">
      <!-- déc. -->
      <g transform="translate(297.884362 296.173917)rotate(-45)scale(0.09 -0.09)">
       <defs>
        <path d="M 2906 2969 
L 2906 4863 
L 3481 4863 
L 3481 0 
L 2906 0 
L 2906 525 
Q 2725 213 2448 61 
Q 2172 -91 1784 -91 
Q 1150 -91 751 415 
Q 353 922 353 1747 
Q 353 2572 751 3078 
Q 1150 3584 1784 3584 
Q 2172 3584 2448 3432 
Q 2725 3281 2906 2969 
z
M 947 1747 
Q 947 1113 1208 752 
Q 1469 391 1925 391 
Q 2381 391 2643 752 
Q 2906 1113 2906 1747 
Q 2906 2381 2643 2742 
Q 2381 3103 1925 3103 
Q 1469 3103 1208 2742 
Q 947 2381 947 1747 
z
" id="DejaVuSans-64" transform="scale(0.015625)"/>
        <path d="M 3597 1894 
L 3597 1613 
L 953 1613 
Q 991 1019 1311 708 
Q 1631 397 2203 397 
Q 2534 397 2845 478 
Q 3156 559 3463 722 
L 3463 178 
Q 3153 47 2828 -22 
Q 2503 -91 2169 -91 
Q 1331 -91 842 396 
Q 353 884 353 1716 
Q 353 2575 817 3079 
Q 1281 3584 2069 3584 
Q 2775 3584 3186 3129 
Q 3597 2675 3597 1894 
z
M 3022 2063 
Q 3016 2534 2758 2815 
Q 2500 3097 2075 3097 
Q 1594 3097 1305 2825 
Q 1016 2553 972 2059 
L 3022 2063 
z
M 2466 5119 
L 3088 5119 
L 2070 3944 
L 1591 3944 
L 2466 5119 
z
" id="DejaVuSans-e9" transform="scale(0.015625)"/>
       </defs>
       <use xlink:href="#DejaVuSans-64"/>
       <use x="63.476562" xlink:href="#DejaVuSans-e9"/>
       <use x="125" xlink:href="#DejaVuSans-63"/>
       <use x="179.980469" xlink:href="#DejaVuSans-2e"/>
      </g>
     </g>
    </g>
    <g id="xtick_11">
     <g id="line2d_11">
      <g>
       <use style="stroke:#000000;stroke-width:0.8;" x="334.942028" xlink:href="#m2ce126a56a" y="270.860625"/>
      </g>
     </g>
     <g id="text_11">
      <!-- janv. -->
      <g transform="translate(324.780572 297.693313)rotate(-45)scale(0.09 -0.09)">
       <use xlink:href="#DejaVuSans-6a"/>
       <use x="27.783203" xlink:href="#DejaVuSans-61"/>
       <use x="89.0625" xlink:href="#DejaVuSans-6e"/>
       <use x="152.441406" xlink:href="#DejaVuSans-76"/>
       <use x="203.871094" xlink:href="#DejaVuSans-2e"/>
      </g>
     </g>
    </g>
    <g id="xtick_12">
     <g id="line2d_12">
      <g>
       <use style="stroke:#000000;stroke-width:0.8;" x="363.357633" xlink:href="#m2ce126a56a" y="270.860625"/>
      </g>
     </g>
     <g id="text_12">
      <!-- fév. -->
      <g transform="translate(356.741103 294.148388)rotate(-45)scale(0.09 -0.09)">
       <defs>
        <path d="M 2375 4863 
L 2375 4384 
L 1825 4384 
Q 1516 4384 1395 4259 
Q 1275 4134 1275 3809 
L 1275 3500 
L 2222 3500 
L 2222 3053 
L 1275 3053 
L 1275 0 
L 697 0 
L 697 3053 
L 147 3053 
L 147 3500 
L 697 3500 
L 697 3744 
Q 697 4328 969 4595 
Q 1241 4863 1831 4863 
L 2375 4863 
z
" id="DejaVuSans-66" transform="scale(0.015625)"/>
       </defs>
       <use xlink:href="#DejaVuSans-66"/>
       <use x="35.205078" xlink:href="#DejaVuSans-e9"/>
       <use x="96.728516" xlink:href="#DejaVuSans-76"/>
       <use x="148.158203" xlink:href="#DejaVuSans-2e"/>
      </g>
     </g>
    </g>
    <g id="xtick_13">
     <g id="line2d_13">
      <g>
       <use style="stroke:#000000;stroke-width:0.8;" x="389.023342" xlink:href="#m2ce126a56a" y="270.860625"/>
      </g>
     </g>
     <g id="text_13">
      <!-- mars -->
      <g transform="translate(377.828737 298.726462)rotate(-45)scale(0.09 -0.09)">
       <use xlink:href="#DejaVuSans-6d"/>
       <use x="97.412109" xlink:href="#DejaVuSans-61"/>
       <use x="158.691406" xlink:href="#DejaVuSans-72"/>
       <use x="199.804688" xlink:href="#DejaVuSans-73"/>
      </g>
     </g>
    </g>
    <g id="xtick_14">
     <g id="line2d_14">
      <g>
       <use style="stroke:#000000;stroke-width:0.8;" x="417.438948" xlink:href="#m2ce126a56a" y="270.860625"/>
      </g>
     </g>
     <g id="text_14">
      <!-- avril -->
      <g transform="translate(408.455819 296.514986)rotate(-45)scale(0.09 -0.09)">
       <use xlink:href="#DejaVuSans-61"/>
       <use x="61.279297" xlink:href="#DejaVuSans-76"/>
       <use x="120.458984" xlink:href="#DejaVuSans-72"/>
       <use x="161.572266" xlink:href="#DejaVuSans-69"/>
       <use x="189.355469" xlink:href="#DejaVuSans-6c"/>
      </g>
     </g>
    </g>
    <g id="xtick_15">
     <g id="line2d_15">
      <g>
       <use style="stroke:#000000;stroke-width:0.8;" x="444.937921" xlink:href="#m2ce126a56a" y="270.860625"/>
      </g>
     </g>
     <g id="text_15">
      <!-- mai -->
      <g transform="translate(437.906738 294.56304)rotate(-45)scale(0.09 -0.09)">
       <use xlink:href="#DejaVuSans-6d"/>
       <use x="97.412109" xlink:href="#DejaVuSans-61"/>
       <use x="158.691406" xlink:href="#DejaVuSans-69"/>
      </g>
     </g>
    </g>
    <g id="xtick_16">
     <g id="line2d_16">
      <g>
       <use style="stroke:#000000;stroke-width:0.8;" x="473.353527" xlink:href="#m2ce126a56a" y="270.860625"/>
      </g>
     </g>
     <g id="text_16">
      <!-- juin -->
      <g transform="translate(466.586846 294.298537)rotate(-45)scale(0.09 -0.09)">
       <use xlink:href="#DejaVuSans-6a"/>
       <use x="27.783203" xlink:href="#DejaVuSans-75"/>
       <use x="91.162109" xlink:href="#DejaVuSans-69"/>
       <use x="118.945312" xlink:href="#DejaVuSans-6e"/>
      </g>
     </g>
    </g>
    <g id="xtick_17">
     <g id="line2d_17">
      <g>
       <use style="stroke:#000000;stroke-width:0.8;" x="500.8525" xlink:href="#m2ce126a56a" y="270.860625"/>
      </g>
     </g>
     <g id="text_17">
      <!-- juil. -->
      <g transform="translate(494.328446 294.055911)rotate(-45)scale(0.09 -0.09)">
       <use xlink:href="#DejaVuSans-6a"/>
       <use x="27.783203" xlink:href="#DejaVuSans-75"/>
       <use x="91.162109" xlink:href="#DejaVuSans-69"/>
       <use x="118.945312" xlink:href="#DejaVuSans-6c"/>
       <use x="146.728516" xlink:href="#DejaVuSans-2e"/>
      </g>
     </g>
    </g>
   </g>
   <g id="matplotlib.axis_2">
    <g id="ytick_1">
     <g id="line2d_18">
      <path clip-path="url(#pe519b87aba)" d="M 54.4525 260.506339 
L 500.8525 260.506339 
" style="fill:none;stroke:#b0b0b0;stroke-linecap:square;stroke-opacity:0.5;stroke-width:0.8;"/>
     </g>
     <g id="text_18">
      <!-- 0 -->
      <g transform="translate(41.72625 263.925636)scale(0.09 -0.09)">
       <defs>
        <path d="M 2034 4250 
Q 1547 4250 1301 3770 
Q 1056 3291 1056 2328 
Q 1056 1369 1301 889 
Q 1547 409 2034 409 
Q 2525 409 2770 889 
Q 3016 1369 3016 2328 
Q 3016 3291 2770 3770 
Q 2525 4250 2034 4250 
z
M 2034 4750 
Q 2819 4750 3233 4129 
Q 3647 3509 3647 2328 
Q 3647 1150 3233 529 
Q 2819 -91 2034 -91 
Q 1250 -91 836 529 
Q 422 1150 422 2328 
Q 422 3509 836 4129 
Q 1250 4750 2034 4750 
z
" id="DejaVuSans-30" transform="scale(0.015625)"/>
       </defs>
       <use xlink:href="#DejaVuSans-30"/>
      </g>
     </g>
    </g>
    <g id="ytick_2">
     <g id="line2d_19">
      <path clip-path="url(#pe519b87aba)" d="M 54.4525 225.992054 
L 500.8525 225.992054 
" style="fill:none;stroke:#b0b0b0;stroke-linecap:square;stroke-opacity:0.5;stroke-width:0.8;"/>
     </g>
     <g id="text_19">
      <!-- 10 -->
      <g transform="translate(36 229.41135)scale(0.09 -0.09)">
       <defs>
        <path d="M 794 531 
L 1825 531 
L 1825 4091 
L 703 3866 
L 703 4441 
L 1819 4666 
L 2450 4666 
L 2450 531 
L 3481 531 
L 3481 0 
L 794 0 
L 794 531 
z
" id="DejaVuSans-31" transform="scale(0.015625)"/>
       </defs>
       <use xlink:href="#DejaVuSans-31"/>
       <use x="63.623047" xlink:href="#DejaVuSans-30"/>
      </g>
     </g>
    </g>
    <g id="ytick_3">
     <g id="line2d_20">
      <path clip-path="url(#pe519b87aba)" d="M 54.4525 191.477768 
L 500.8525 191.477768 
" style="fill:none;stroke:#b0b0b0;stroke-linecap:square;stroke-opacity:0.5;stroke-width:0.8;"/>
     </g>
     <g id="text_20">
      <!-- 20 -->
      <g transform="translate(36 194.897065)scale(0.09 -0.09)">
       <defs>
        <path d="M 1228 531 
L 3431 531 
L 3431 0 
L 469 0 
L 469 531 
Q 828 903 1448 1529 
Q 2069 2156 2228 2338 
Q 2531 2678 2651 2914 
Q 2772 3150 2772 3378 
Q 2772 3750 2511 3984 
Q 2250 4219 1831 4219 
Q 1534 4219 1204 4116 
Q 875 4013 500 3803 
L 500 4441 
Q 881 4594 1212 4672 
Q 1544 4750 1819 4750 
Q 2544 4750 2975 4387 
Q 3406 4025 3406 3419 
Q 3406 3131 3298 2873 
Q 3191 2616 2906 2266 
Q 2828 2175 2409 1742 
Q 1991 1309 1228 531 
z
" id="DejaVuSans-32" transform="scale(0.015625)"/>
       </defs>
       <use xlink:href="#DejaVuSans-32"/>
       <use x="63.623047" xlink:href="#DejaVuSans-30"/>
      </g>
     </g>
    </g>
    <g id="ytick_4">
     <g id="line2d_21">
      <path clip-path="url(#pe519b87aba)" d="M 54.4525 156.963482 
L 500.8525 156.963482 
" style="fill:none;stroke:#b0b0b0;stroke-linecap:square;stroke-opacity:0.5;stroke-width:0.8;"/>
     </g>
     <g id="text_21">
      <!-- 30 -->
      <g transform="translate(36 160.382779)scale(0.09 -0.09)">
       <defs>
        <path d="M 2597 2516 
Q 3050 2419 3304 2112 
Q 3559 1806 3559 1356 
Q 3559 666 3084 287 
Q 2609 -91 1734 -91 
Q 1441 -91 1130 -33 
Q 819 25 488 141 
L 488 750 
Q 750 597 1062 519 
Q 1375 441 1716 441 
Q 2309 441 2620 675 
Q 2931 909 2931 1356 
Q 2931 1769 2642 2001 
Q 2353 2234 1838 2234 
L 1294 2234 
L 1294 2753 
L 1863 2753 
Q 2328 2753 2575 2939 
Q 2822 3125 2822 3475 
Q 2822 3834 2567 4026 
Q 2313 4219 1838 4219 
Q 1578 4219 1281 4162 
Q 984 4106 628 3988 
L 628 4550 
Q 988 4650 1302 4700 
Q 1616 4750 1894 4750 
Q 2613 4750 3031 4423 
Q 3450 4097 3450 3541 
Q 3450 3153 3228 2886 
Q 3006 2619 2597 2516 
z
" id="DejaVuSans-33" transform="scale(0.015625)"/>
       </defs>
       <use xlink:href="#DejaVuSans-33"/>
       <use x="63.623047" xlink:href="#DejaVuSans-30"/>
      </g>
     </g>
    </g>
    <g id="ytick_5">
     <g id="line2d_22">
      <path clip-path="url(#pe519b87aba)" d="M 54.4525 122.449196 
L 500.8525 122.449196 
" style="fill:none;stroke:#b0b0b0;stroke-linecap:square;stroke-opacity:0.5;stroke-width:0.8;"/>
     </g>
     <g id="text_22">
      <!-- 40 -->
      <g transform="translate(36 125.868493)scale(0.09 -0.09)">
       <defs>
        <path d="M 2419 4116 
L 825 1625 
L 2419 1625 
L 2419 4116 
z
M 2253 4666 
L 3047 4666 
L 3047 1625 
L 3713 1625 
L 3713 1100 
L 3047 1100 
L 3047 0 
L 2419 0 
L 2419 1100 
L 313 1100 
L 313 1709 
L 2253 4666 
z
" id="DejaVuSans-34" transform="scale(0.015625)"/>
       </defs>
       <use xlink:href="#DejaVuSans-34"/>
       <use x="63.623047" xlink:href="#DejaVuSans-30"/>
      </g>
     </g>
    </g>
    <g id="ytick_6">
     <g id="line2d_23">
      <path clip-path="url(#pe519b87aba)" d="M 54.4525 87.934911 
L 500.8525 87.934911 
" style="fill:none;stroke:#b0b0b0;stroke-linecap:square;stroke-opacity:0.5;stroke-width:0.8;"/>
     </g>
     <g id="text_23">
      <!-- 50 -->
      <g transform="translate(36 91.354208)scale(0.09 -0.09)">
       <defs>
        <path d="M 691 4666 
L 3169 4666 
L 3169 4134 
L 1269 4134 
L 1269 2991 
Q 1406 3038 1543 3061 
Q 1681 3084 1819 3084 
Q 2600 3084 3056 2656 
Q 3513 2228 3513 1497 
Q 3513 744 3044 326 
Q 2575 -91 1722 -91 
Q 1428 -91 1123 -41 
Q 819 9 494 109 
L 494 744 
Q 775 591 1075 516 
Q 1375 441 1709 441 
Q 2250 441 2565 725 
Q 2881 1009 2881 1497 
Q 2881 1984 2565 2268 
Q 2250 2553 1709 2553 
Q 1456 2553 1204 2497 
Q 953 2441 691 2322 
L 691 4666 
z
" id="DejaVuSans-35" transform="scale(0.015625)"/>
       </defs>
       <use xlink:href="#DejaVuSans-35"/>
       <use x="63.623047" xlink:href="#DejaVuSans-30"/>
      </g>
     </g>
    </g>
    <g id="ytick_7">
     <g id="line2d_24">
      <path clip-path="url(#pe519b87aba)" d="M 54.4525 243.249196 
L 500.8525 243.249196 
" style="fill:none;stroke:#b0b0b0;stroke-linecap:square;stroke-opacity:0.2;stroke-width:0.8;"/>
     </g>
    </g>
    <g id="ytick_8">
     <g id="line2d_25">
      <path clip-path="url(#pe519b87aba)" d="M 54.4525 208.734911 
L 500.8525 208.734911 
" style="fill:none;stroke:#b0b0b0;stroke-linecap:square;stroke-opacity:0.2;stroke-width:0.8;"/>
     </g>
    </g>
    <g id="ytick_9">
     <g id="line2d_26">
      <path clip-path="url(#pe519b87aba)" d="M 54.4525 174.220625 
L 500.8525 174.220625 
" style="fill:none;stroke:#b0b0b0;stroke-linecap:square;stroke-opacity:0.2;stroke-width:0.8;"/>
     </g>
    </g>
    <g id="ytick_10">
     <g id="line2d_27">
      <path clip-path="url(#pe519b87aba)" d="M 54.4525 139.706339 
L 500.8525 139.706339 
" style="fill:none;stroke:#b0b0b0;stroke-linecap:square;stroke-opacity:0.2;stroke-width:0.8;"/>
     </g>
    </g>
    <g id="ytick_11">
     <g id="line2d_28">
      <path clip-path="url(#pe519b87aba)" d="M 54.4525 105.192054 
L 500.8525 105.192054 
" style="fill:none;stroke:#b0b0b0;stroke-linecap:square;stroke-opacity:0.2;stroke-width:0.8;"/>
     </g>
    </g>
    <g id="ytick_12">
     <g id="line2d_29">
      <path clip-path="url(#pe519b87aba)" d="M 54.4525 70.677768 
L 500.8525 70.677768 
" style="fill:none;stroke:#b0b0b0;stroke-linecap:square;stroke-opacity:0.2;stroke-width:0.8;"/>
     </g>
    </g>
   </g>
   <g id="line2d_30">
    <path clip-path="url(#pe519b87aba)" d="M 54.4525 223.794221 
L 500.8525 223.794221 
" style="fill:none;stroke:#da70d6;stroke-linecap:square;stroke-width:0.8;"/>
   </g>
   <g id="line2d_31">
    <path clip-path="url(#pe519b87aba)" d="M 76.451679 260.506339 
L 182.781042 260.506339 
L 183.697675 258.363952 
L 184.614307 260.506339 
L 189.197469 260.506339 
L 190.114102 262.648726 
L 191.030734 260.506339 
L 202.030323 260.506339 
L 202.946956 258.363952 
L 205.696853 258.363952 
L 206.613486 256.221565 
L 208.446751 256.221565 
L 209.363383 258.363952 
L 212.11328 258.363952 
L 213.029913 260.506339 
L 224.946134 260.506339 
L 225.862767 258.363952 
L 231.362562 258.363952 
L 232.279194 260.506339 
L 490.769543 260.506339 
L 491.686176 258.363952 
L 491.686176 258.363952 
" style="fill:none;stroke:#b22222;stroke-linecap:square;"/>
   </g>
   <g id="line2d_32">
    <path clip-path="url(#pe519b87aba)" d="M 76.451679 260.506339 
L 156.198701 260.506339 
L 157.115334 257.10206 
L 162.615128 257.10206 
L 163.531761 260.506339 
L 169.948188 260.506339 
L 170.86482 257.10206 
L 182.781042 257.10206 
L 183.697675 260.506339 
L 196.530529 260.506339 
L 197.447161 257.10206 
L 198.363794 257.10206 
L 199.280426 253.697781 
L 202.946956 253.697781 
L 203.863588 257.10206 
L 204.780221 257.10206 
L 205.696853 260.506339 
L 206.613486 257.10206 
L 212.11328 257.10206 
L 213.029913 260.506339 
L 217.613075 260.506339 
L 218.529707 257.10206 
L 221.279605 257.10206 
L 222.196237 253.697781 
L 223.11287 253.697781 
L 224.029502 250.293501 
L 224.946134 253.697781 
L 227.696032 253.697781 
L 228.612664 257.10206 
L 229.529297 257.10206 
L 230.445929 260.506339 
L 235.029091 260.506339 
L 235.945724 257.10206 
L 241.445518 257.10206 
L 242.362151 260.506339 
L 247.861946 260.506339 
L 248.778578 257.10206 
L 249.69521 257.10206 
L 250.611843 253.697781 
L 256.111638 253.697781 
L 257.02827 257.10206 
L 260.6948 257.10206 
L 261.611432 260.506339 
L 288.193773 260.506339 
L 289.110406 253.697781 
L 294.6102 253.697781 
L 295.526833 260.506339 
L 336.775293 260.506339 
L 337.691925 257.10206 
L 341.358455 257.10206 
L 342.275087 253.697781 
L 343.19172 253.697781 
L 344.108352 257.10206 
L 347.774882 257.10206 
L 348.691514 260.506339 
L 365.190898 260.506339 
L 366.107531 257.10206 
L 371.607325 257.10206 
L 372.523958 260.506339 
L 375.273855 260.506339 
L 376.190488 257.10206 
L 381.690282 257.10206 
L 382.606915 260.506339 
L 383.523547 260.506339 
L 384.44018 257.10206 
L 389.939974 257.10206 
L 390.856607 260.506339 
L 404.606093 260.506339 
L 405.522726 257.10206 
L 411.022521 257.10206 
L 411.939153 260.506339 
L 412.855785 260.506339 
L 414.68905 253.697781 
L 415.605683 253.697781 
L 416.522315 250.293501 
L 419.272213 250.293501 
L 421.105477 257.10206 
L 422.02211 257.10206 
L 422.938742 260.506339 
L 437.604861 260.506339 
L 438.521494 257.10206 
L 443.104656 257.10206 
L 444.021289 253.697781 
L 444.937921 257.10206 
L 445.854553 257.10206 
L 446.771186 253.697781 
L 449.521083 253.697781 
L 450.437716 257.10206 
L 452.27098 257.10206 
L 453.187613 260.506339 
L 458.687408 260.506339 
L 459.60404 257.10206 
L 465.103835 257.10206 
L 466.020467 260.506339 
L 477.936689 260.506339 
L 478.853321 257.10206 
L 480.686586 257.10206 
L 481.603219 253.697781 
L 484.353116 253.697781 
L 485.269748 257.10206 
L 487.103013 257.10206 
L 488.019646 260.506339 
L 488.936278 257.10206 
L 491.686176 257.10206 
L 491.686176 257.10206 
" style="fill:none;stroke:#000000;stroke-linecap:square;stroke-width:1.5;"/>
   </g>
   <g id="line2d_33">
    <path clip-path="url(#pe519b87aba)" d="M 76.451679 260.506339 
L 100.284122 260.506339 
L 101.200755 248.268967 
L 106.700549 248.268967 
L 107.617182 260.506339 
L 145.199112 260.506339 
L 146.115744 248.268967 
L 149.782274 248.268967 
L 150.698907 236.031594 
L 152.532171 236.031594 
L 153.448804 223.794221 
L 156.198701 223.794221 
L 157.115334 236.031594 
L 158.031966 223.794221 
L 159.865231 223.794221 
L 164.448393 162.607358 
L 165.365026 174.844731 
L 166.281658 174.844731 
L 169.031555 211.556849 
L 170.86482 211.556849 
L 171.781453 199.319476 
L 172.698085 211.556849 
L 173.614718 211.556849 
L 174.53135 199.319476 
L 175.447983 162.607358 
L 176.364615 174.844731 
L 177.281247 174.844731 
L 178.19788 162.607358 
L 179.114512 138.132613 
L 180.031145 125.895241 
L 181.86441 150.369986 
L 182.781042 150.369986 
L 183.697675 174.844731 
L 184.614307 187.082104 
L 185.530939 211.556849 
L 187.364204 211.556849 
L 188.280837 223.794221 
L 189.197469 211.556849 
L 191.947367 211.556849 
L 192.863999 223.794221 
L 193.780631 223.794221 
L 195.613896 248.268967 
L 196.530529 248.268967 
L 197.447161 260.506339 
L 198.363794 248.268967 
L 200.197059 248.268967 
L 201.113691 236.031594 
L 206.613486 236.031594 
L 207.530118 248.268967 
L 212.11328 248.268967 
L 213.029913 236.031594 
L 214.863178 236.031594 
L 215.77981 223.794221 
L 216.696443 223.794221 
L 217.613075 236.031594 
L 221.279605 236.031594 
L 222.196237 248.268967 
L 223.11287 236.031594 
L 224.946134 236.031594 
L 225.862767 248.268967 
L 228.612664 248.268967 
L 229.529297 260.506339 
L 230.445929 260.506339 
L 231.362562 248.268967 
L 235.945724 248.268967 
L 236.862356 236.031594 
L 237.778989 248.268967 
L 242.362151 248.268967 
L 243.278783 260.506339 
L 254.278373 260.506339 
L 255.195005 248.268967 
L 260.6948 248.268967 
L 261.611432 260.506339 
L 273.527654 260.506339 
L 274.444286 248.268967 
L 279.944081 248.268967 
L 280.860714 260.506339 
L 288.193773 260.506339 
L 289.110406 284.981085 
L 294.6102 284.981085 
L 295.526833 260.506339 
L 308.359687 260.506339 
L 309.276319 248.268967 
L 314.776114 248.268967 
L 315.692746 260.506339 
L 338.608557 260.506339 
L 339.52519 248.268967 
L 345.024985 248.268967 
L 345.941617 260.506339 
L 347.774882 260.506339 
L 348.691514 248.268967 
L 349.608147 248.268967 
L 350.524779 236.031594 
L 354.191309 236.031594 
L 355.107941 248.268967 
L 356.024574 248.268967 
L 356.941206 260.506339 
L 361.524369 260.506339 
L 362.441001 248.268967 
L 364.274266 248.268967 
L 365.190898 236.031594 
L 367.940796 236.031594 
L 368.857428 248.268967 
L 369.774061 236.031594 
L 370.690693 236.031594 
L 371.607325 248.268967 
L 375.273855 248.268967 
L 376.190488 260.506339 
L 378.023753 260.506339 
L 379.857017 236.031594 
L 381.690282 236.031594 
L 382.606915 223.794221 
L 383.523547 223.794221 
L 384.44018 211.556849 
L 386.273445 236.031594 
L 388.106709 236.031594 
L 389.023342 248.268967 
L 396.356401 248.268967 
L 397.273034 260.506339 
L 403.689461 260.506339 
L 404.606093 248.268967 
L 410.105888 248.268967 
L 411.022521 260.506339 
L 413.772418 260.506339 
L 414.68905 248.268967 
L 420.188845 248.268967 
L 421.105477 260.506339 
L 422.02211 248.268967 
L 431.188434 248.268967 
L 432.105067 236.031594 
L 433.938332 236.031594 
L 434.854964 248.268967 
L 436.688229 248.268967 
L 437.604861 236.031594 
L 443.104656 236.031594 
L 444.937921 260.506339 
L 445.854553 248.268967 
L 446.771186 248.268967 
L 447.687818 236.031594 
L 451.354348 236.031594 
L 452.27098 223.794221 
L 453.187613 223.794221 
L 454.104245 236.031594 
L 455.020878 236.031594 
L 455.93751 211.556849 
L 457.770775 211.556849 
L 458.687408 236.031594 
L 459.60404 236.031594 
L 460.520672 223.794221 
L 461.437305 223.794221 
L 462.353937 248.268967 
L 463.27057 223.794221 
L 464.187202 223.794221 
L 465.103835 211.556849 
L 466.9371 211.556849 
L 467.853732 199.319476 
L 468.770364 199.319476 
L 469.686997 211.556849 
L 470.603629 211.556849 
L 471.520262 223.794221 
L 472.436894 223.794221 
L 473.353527 199.319476 
L 474.270159 199.319476 
L 475.186792 187.082104 
L 476.103424 199.319476 
L 477.020056 199.319476 
L 477.936689 174.844731 
L 478.853321 174.844731 
L 479.769954 162.607358 
L 480.686586 174.844731 
L 481.603219 174.844731 
L 482.519851 150.369986 
L 483.436484 138.132613 
L 485.269748 138.132613 
L 486.186381 187.082104 
L 487.103013 187.082104 
L 488.019646 174.844731 
L 489.852911 199.319476 
L 490.769543 223.794221 
L 491.686176 223.794221 
L 491.686176 223.794221 
" style="fill:none;stroke:#da70d6;stroke-linecap:square;stroke-width:3;"/>
   </g>
   <g id="line2d_34">
    <path clip-path="url(#pe519b87aba)" d="M 54.4525 260.506339 
L 500.8525 260.506339 
" style="fill:none;stroke:#808080;stroke-linecap:square;stroke-width:0.8;"/>
   </g>
   <g id="line2d_35">
    <path clip-path="url(#pe519b87aba)" d="M 334.942028 270.860625 
L 334.942028 64.292625 
" style="fill:none;stroke:#000000;stroke-dasharray:1.85,0.8;stroke-dashoffset:0;stroke-width:0.5;"/>
   </g>
   <g id="text_24">
    <!-- Guyane -->
    <g style="fill:#4169e1;" transform="translate(239.406719 49.536563)scale(0.18 -0.18)">
     <defs>
      <path d="M 4781 347 
Q 4331 128 3847 18 
Q 3363 -91 2847 -91 
Q 1681 -91 1000 561 
Q 319 1213 319 2328 
Q 319 3456 1012 4103 
Q 1706 4750 2913 4750 
Q 3378 4750 3804 4662 
Q 4231 4575 4609 4403 
L 4609 3438 
Q 4219 3659 3833 3768 
Q 3447 3878 3059 3878 
Q 2341 3878 1952 3476 
Q 1563 3075 1563 2328 
Q 1563 1588 1938 1184 
Q 2313 781 3003 781 
Q 3191 781 3352 804 
Q 3513 828 3641 878 
L 3641 1784 
L 2906 1784 
L 2906 2591 
L 4781 2591 
L 4781 347 
z
" id="DejaVuSans-Bold-47" transform="scale(0.015625)"/>
      <path d="M 500 1363 
L 500 3500 
L 1625 3500 
L 1625 3150 
Q 1625 2866 1622 2436 
Q 1619 2006 1619 1863 
Q 1619 1441 1641 1255 
Q 1663 1069 1716 984 
Q 1784 875 1895 815 
Q 2006 756 2150 756 
Q 2500 756 2700 1025 
Q 2900 1294 2900 1772 
L 2900 3500 
L 4019 3500 
L 4019 0 
L 2900 0 
L 2900 506 
Q 2647 200 2364 54 
Q 2081 -91 1741 -91 
Q 1134 -91 817 281 
Q 500 653 500 1363 
z
" id="DejaVuSans-Bold-75" transform="scale(0.015625)"/>
      <path d="M 78 3500 
L 1197 3500 
L 2138 1125 
L 2938 3500 
L 4056 3500 
L 2584 -331 
Q 2363 -916 2067 -1148 
Q 1772 -1381 1288 -1381 
L 641 -1381 
L 641 -647 
L 991 -647 
Q 1275 -647 1404 -556 
Q 1534 -466 1606 -231 
L 1638 -134 
L 78 3500 
z
" id="DejaVuSans-Bold-79" transform="scale(0.015625)"/>
      <path d="M 2106 1575 
Q 1756 1575 1579 1456 
Q 1403 1338 1403 1106 
Q 1403 894 1545 773 
Q 1688 653 1941 653 
Q 2256 653 2472 879 
Q 2688 1106 2688 1447 
L 2688 1575 
L 2106 1575 
z
M 3816 1997 
L 3816 0 
L 2688 0 
L 2688 519 
Q 2463 200 2181 54 
Q 1900 -91 1497 -91 
Q 953 -91 614 226 
Q 275 544 275 1050 
Q 275 1666 698 1953 
Q 1122 2241 2028 2241 
L 2688 2241 
L 2688 2328 
Q 2688 2594 2478 2717 
Q 2269 2841 1825 2841 
Q 1466 2841 1156 2769 
Q 847 2697 581 2553 
L 581 3406 
Q 941 3494 1303 3539 
Q 1666 3584 2028 3584 
Q 2975 3584 3395 3211 
Q 3816 2838 3816 1997 
z
" id="DejaVuSans-Bold-61" transform="scale(0.015625)"/>
      <path d="M 4056 2131 
L 4056 0 
L 2931 0 
L 2931 347 
L 2931 1631 
Q 2931 2084 2911 2256 
Q 2891 2428 2841 2509 
Q 2775 2619 2662 2680 
Q 2550 2741 2406 2741 
Q 2056 2741 1856 2470 
Q 1656 2200 1656 1722 
L 1656 0 
L 538 0 
L 538 3500 
L 1656 3500 
L 1656 2988 
Q 1909 3294 2193 3439 
Q 2478 3584 2822 3584 
Q 3428 3584 3742 3212 
Q 4056 2841 4056 2131 
z
" id="DejaVuSans-Bold-6e" transform="scale(0.015625)"/>
      <path d="M 4031 1759 
L 4031 1441 
L 1416 1441 
Q 1456 1047 1700 850 
Q 1944 653 2381 653 
Q 2734 653 3104 758 
Q 3475 863 3866 1075 
L 3866 213 
Q 3469 63 3072 -14 
Q 2675 -91 2278 -91 
Q 1328 -91 801 392 
Q 275 875 275 1747 
Q 275 2603 792 3093 
Q 1309 3584 2216 3584 
Q 3041 3584 3536 3087 
Q 4031 2591 4031 1759 
z
M 2881 2131 
Q 2881 2450 2695 2645 
Q 2509 2841 2209 2841 
Q 1884 2841 1681 2658 
Q 1478 2475 1428 2131 
L 2881 2131 
z
" id="DejaVuSans-Bold-65" transform="scale(0.015625)"/>
     </defs>
     <use xlink:href="#DejaVuSans-Bold-47"/>
     <use x="82.080078" xlink:href="#DejaVuSans-Bold-75"/>
     <use x="153.271484" xlink:href="#DejaVuSans-Bold-79"/>
     <use x="218.457031" xlink:href="#DejaVuSans-Bold-61"/>
     <use x="285.9375" xlink:href="#DejaVuSans-Bold-6e"/>
     <use x="357.128906" xlink:href="#DejaVuSans-Bold-65"/>
    </g>
   </g>
   <g id="legend_1">
    <g id="patch_6">
     <path d="M 381.63625 115.690375 
L 537.7925 115.690375 
Q 539.9925 115.690375 539.9925 113.490375 
L 539.9925 39.376625 
Q 539.9925 37.176625 537.7925 37.176625 
L 381.63625 37.176625 
Q 379.43625 37.176625 379.43625 39.376625 
L 379.43625 113.490375 
Q 379.43625 115.690375 381.63625 115.690375 
z
" style="fill:#ffffff;opacity:0.8;stroke:#cccccc;stroke-linejoin:miter;"/>
    </g>
    <g id="text_25">
     <!-- Décès à l'hôpital par semaine, -->
     <g transform="translate(383.83625 49.575062)scale(0.1 -0.1)">
      <defs>
       <path d="M 1259 4147 
L 1259 519 
L 2022 519 
Q 2988 519 3436 956 
Q 3884 1394 3884 2338 
Q 3884 3275 3436 3711 
Q 2988 4147 2022 4147 
L 1259 4147 
z
M 628 4666 
L 1925 4666 
Q 3281 4666 3915 4102 
Q 4550 3538 4550 2338 
Q 4550 1131 3912 565 
Q 3275 0 1925 0 
L 628 0 
L 628 4666 
z
" id="DejaVuSans-44" transform="scale(0.015625)"/>
       <path d="M 3597 1894 
L 3597 1613 
L 953 1613 
Q 991 1019 1311 708 
Q 1631 397 2203 397 
Q 2534 397 2845 478 
Q 3156 559 3463 722 
L 3463 178 
Q 3153 47 2828 -22 
Q 2503 -91 2169 -91 
Q 1331 -91 842 396 
Q 353 884 353 1716 
Q 353 2575 817 3079 
Q 1281 3584 2069 3584 
Q 2775 3584 3186 3129 
Q 3597 2675 3597 1894 
z
M 3022 2063 
Q 3016 2534 2758 2815 
Q 2500 3097 2075 3097 
Q 1594 3097 1305 2825 
Q 1016 2553 972 2059 
L 3022 2063 
z
M 1579 5119 
L 2460 3950 
L 1982 3950 
L 963 5119 
L 1579 5119 
z
" id="DejaVuSans-e8" transform="scale(0.015625)"/>
       <path id="DejaVuSans-20" transform="scale(0.015625)"/>
       <path d="M 2194 1759 
Q 1497 1759 1228 1600 
Q 959 1441 959 1056 
Q 959 750 1161 570 
Q 1363 391 1709 391 
Q 2188 391 2477 730 
Q 2766 1069 2766 1631 
L 2766 1759 
L 2194 1759 
z
M 3341 1997 
L 3341 0 
L 2766 0 
L 2766 531 
Q 2569 213 2275 61 
Q 1981 -91 1556 -91 
Q 1019 -91 701 211 
Q 384 513 384 1019 
Q 384 1609 779 1909 
Q 1175 2209 1959 2209 
L 2766 2209 
L 2766 2266 
Q 2766 2663 2505 2880 
Q 2244 3097 1772 3097 
Q 1472 3097 1187 3025 
Q 903 2953 641 2809 
L 641 3341 
Q 956 3463 1253 3523 
Q 1550 3584 1831 3584 
Q 2591 3584 2966 3190 
Q 3341 2797 3341 1997 
z
M 1403 5119 
L 2284 3950 
L 1806 3950 
L 787 5119 
L 1403 5119 
z
" id="DejaVuSans-e0" transform="scale(0.015625)"/>
       <path d="M 1147 4666 
L 1147 2931 
L 616 2931 
L 616 4666 
L 1147 4666 
z
" id="DejaVuSans-27" transform="scale(0.015625)"/>
       <path d="M 3513 2113 
L 3513 0 
L 2938 0 
L 2938 2094 
Q 2938 2591 2744 2837 
Q 2550 3084 2163 3084 
Q 1697 3084 1428 2787 
Q 1159 2491 1159 1978 
L 1159 0 
L 581 0 
L 581 4863 
L 1159 4863 
L 1159 2956 
Q 1366 3272 1645 3428 
Q 1925 3584 2291 3584 
Q 2894 3584 3203 3211 
Q 3513 2838 3513 2113 
z
" id="DejaVuSans-68" transform="scale(0.015625)"/>
       <path d="M 1959 3097 
Q 1497 3097 1228 2736 
Q 959 2375 959 1747 
Q 959 1119 1226 758 
Q 1494 397 1959 397 
Q 2419 397 2687 759 
Q 2956 1122 2956 1747 
Q 2956 2369 2687 2733 
Q 2419 3097 1959 3097 
z
M 1959 3584 
Q 2709 3584 3137 3096 
Q 3566 2609 3566 1747 
Q 3566 888 3137 398 
Q 2709 -91 1959 -91 
Q 1206 -91 779 398 
Q 353 888 353 1747 
Q 353 2609 779 3096 
Q 1206 3584 1959 3584 
z
M 1729 5119 
L 2191 5119 
L 2957 3944 
L 2523 3944 
L 1960 4709 
L 1398 3944 
L 963 3944 
L 1729 5119 
z
" id="DejaVuSans-f4" transform="scale(0.015625)"/>
       <path d="M 750 794 
L 1409 794 
L 1409 256 
L 897 -744 
L 494 -744 
L 750 256 
L 750 794 
z
" id="DejaVuSans-2c" transform="scale(0.015625)"/>
      </defs>
      <use xlink:href="#DejaVuSans-44"/>
      <use x="77.001953" xlink:href="#DejaVuSans-e9"/>
      <use x="138.525391" xlink:href="#DejaVuSans-63"/>
      <use x="193.505859" xlink:href="#DejaVuSans-e8"/>
      <use x="255.029297" xlink:href="#DejaVuSans-73"/>
      <use x="307.128906" xlink:href="#DejaVuSans-20"/>
      <use x="338.916016" xlink:href="#DejaVuSans-e0"/>
      <use x="400.195312" xlink:href="#DejaVuSans-20"/>
      <use x="431.982422" xlink:href="#DejaVuSans-6c"/>
      <use x="459.765625" xlink:href="#DejaVuSans-27"/>
      <use x="487.255859" xlink:href="#DejaVuSans-68"/>
      <use x="550.634766" xlink:href="#DejaVuSans-f4"/>
      <use x="611.816406" xlink:href="#DejaVuSans-70"/>
      <use x="675.292969" xlink:href="#DejaVuSans-69"/>
      <use x="703.076172" xlink:href="#DejaVuSans-74"/>
      <use x="742.285156" xlink:href="#DejaVuSans-61"/>
      <use x="803.564453" xlink:href="#DejaVuSans-6c"/>
      <use x="831.347656" xlink:href="#DejaVuSans-20"/>
      <use x="863.134766" xlink:href="#DejaVuSans-70"/>
      <use x="926.611328" xlink:href="#DejaVuSans-61"/>
      <use x="987.890625" xlink:href="#DejaVuSans-72"/>
      <use x="1029.003906" xlink:href="#DejaVuSans-20"/>
      <use x="1060.791016" xlink:href="#DejaVuSans-73"/>
      <use x="1112.890625" xlink:href="#DejaVuSans-65"/>
      <use x="1174.414062" xlink:href="#DejaVuSans-6d"/>
      <use x="1271.826172" xlink:href="#DejaVuSans-61"/>
      <use x="1333.105469" xlink:href="#DejaVuSans-69"/>
      <use x="1360.888672" xlink:href="#DejaVuSans-6e"/>
      <use x="1424.267578" xlink:href="#DejaVuSans-65"/>
      <use x="1485.791016" xlink:href="#DejaVuSans-2c"/>
     </g>
     <!-- pour 100 000 habitants -->
     <g transform="translate(400.847969 60.772875)scale(0.1 -0.1)">
      <defs>
       <path d="M 3116 1747 
Q 3116 2381 2855 2742 
Q 2594 3103 2138 3103 
Q 1681 3103 1420 2742 
Q 1159 2381 1159 1747 
Q 1159 1113 1420 752 
Q 1681 391 2138 391 
Q 2594 391 2855 752 
Q 3116 1113 3116 1747 
z
M 1159 2969 
Q 1341 3281 1617 3432 
Q 1894 3584 2278 3584 
Q 2916 3584 3314 3078 
Q 3713 2572 3713 1747 
Q 3713 922 3314 415 
Q 2916 -91 2278 -91 
Q 1894 -91 1617 61 
Q 1341 213 1159 525 
L 1159 0 
L 581 0 
L 581 4863 
L 1159 4863 
L 1159 2969 
z
" id="DejaVuSans-62" transform="scale(0.015625)"/>
      </defs>
      <use xlink:href="#DejaVuSans-70"/>
      <use x="63.476562" xlink:href="#DejaVuSans-6f"/>
      <use x="124.658203" xlink:href="#DejaVuSans-75"/>
      <use x="188.037109" xlink:href="#DejaVuSans-72"/>
      <use x="229.150391" xlink:href="#DejaVuSans-20"/>
      <use x="260.9375" xlink:href="#DejaVuSans-31"/>
      <use x="324.560547" xlink:href="#DejaVuSans-30"/>
      <use x="388.183594" xlink:href="#DejaVuSans-30"/>
      <use x="451.806641" xlink:href="#DejaVuSans-20"/>
      <use x="483.59375" xlink:href="#DejaVuSans-30"/>
      <use x="547.216797" xlink:href="#DejaVuSans-30"/>
      <use x="610.839844" xlink:href="#DejaVuSans-30"/>
      <use x="674.462891" xlink:href="#DejaVuSans-20"/>
      <use x="706.25" xlink:href="#DejaVuSans-68"/>
      <use x="769.628906" xlink:href="#DejaVuSans-61"/>
      <use x="830.908203" xlink:href="#DejaVuSans-62"/>
      <use x="894.384766" xlink:href="#DejaVuSans-69"/>
      <use x="922.167969" xlink:href="#DejaVuSans-74"/>
      <use x="961.376953" xlink:href="#DejaVuSans-61"/>
      <use x="1022.65625" xlink:href="#DejaVuSans-6e"/>
      <use x="1086.035156" xlink:href="#DejaVuSans-74"/>
      <use x="1125.244141" xlink:href="#DejaVuSans-73"/>
     </g>
    </g>
    <g id="line2d_36">
     <path d="M 413.85125 72.860844 
L 435.85125 72.860844 
" style="fill:none;stroke:#b22222;stroke-linecap:square;"/>
    </g>
    <g id="line2d_37"/>
    <g id="text_26">
     <!-- 0-29 ans -->
     <g transform="translate(441.35125 76.710844)scale(0.11 -0.11)">
      <defs>
       <path d="M 313 2009 
L 1997 2009 
L 1997 1497 
L 313 1497 
L 313 2009 
z
" id="DejaVuSans-2d" transform="scale(0.015625)"/>
       <path d="M 703 97 
L 703 672 
Q 941 559 1184 500 
Q 1428 441 1663 441 
Q 2288 441 2617 861 
Q 2947 1281 2994 2138 
Q 2813 1869 2534 1725 
Q 2256 1581 1919 1581 
Q 1219 1581 811 2004 
Q 403 2428 403 3163 
Q 403 3881 828 4315 
Q 1253 4750 1959 4750 
Q 2769 4750 3195 4129 
Q 3622 3509 3622 2328 
Q 3622 1225 3098 567 
Q 2575 -91 1691 -91 
Q 1453 -91 1209 -44 
Q 966 3 703 97 
z
M 1959 2075 
Q 2384 2075 2632 2365 
Q 2881 2656 2881 3163 
Q 2881 3666 2632 3958 
Q 2384 4250 1959 4250 
Q 1534 4250 1286 3958 
Q 1038 3666 1038 3163 
Q 1038 2656 1286 2365 
Q 1534 2075 1959 2075 
z
" id="DejaVuSans-39" transform="scale(0.015625)"/>
      </defs>
      <use xlink:href="#DejaVuSans-30"/>
      <use x="63.623047" xlink:href="#DejaVuSans-2d"/>
      <use x="99.707031" xlink:href="#DejaVuSans-32"/>
      <use x="163.330078" xlink:href="#DejaVuSans-39"/>
      <use x="226.953125" xlink:href="#DejaVuSans-20"/>
      <use x="258.740234" xlink:href="#DejaVuSans-61"/>
      <use x="320.019531" xlink:href="#DejaVuSans-6e"/>
      <use x="383.398438" xlink:href="#DejaVuSans-73"/>
     </g>
    </g>
    <g id="line2d_38">
     <path d="M 413.85125 89.006781 
L 435.85125 89.006781 
" style="fill:none;stroke:#000000;stroke-linecap:square;stroke-width:1.5;"/>
    </g>
    <g id="line2d_39"/>
    <g id="text_27">
     <!-- 30-59 ans -->
     <g transform="translate(441.35125 92.856781)scale(0.11 -0.11)">
      <use xlink:href="#DejaVuSans-33"/>
      <use x="63.623047" xlink:href="#DejaVuSans-30"/>
      <use x="127.246094" xlink:href="#DejaVuSans-2d"/>
      <use x="163.330078" xlink:href="#DejaVuSans-35"/>
      <use x="226.953125" xlink:href="#DejaVuSans-39"/>
      <use x="290.576172" xlink:href="#DejaVuSans-20"/>
      <use x="322.363281" xlink:href="#DejaVuSans-61"/>
      <use x="383.642578" xlink:href="#DejaVuSans-6e"/>
      <use x="447.021484" xlink:href="#DejaVuSans-73"/>
     </g>
    </g>
    <g id="line2d_40">
     <path d="M 413.85125 105.152719 
L 435.85125 105.152719 
" style="fill:none;stroke:#da70d6;stroke-linecap:square;stroke-width:3;"/>
    </g>
    <g id="line2d_41"/>
    <g id="text_28">
     <!-- 60 ans et + -->
     <g transform="translate(441.35125 109.002719)scale(0.11 -0.11)">
      <defs>
       <path d="M 2113 2584 
Q 1688 2584 1439 2293 
Q 1191 2003 1191 1497 
Q 1191 994 1439 701 
Q 1688 409 2113 409 
Q 2538 409 2786 701 
Q 3034 994 3034 1497 
Q 3034 2003 2786 2293 
Q 2538 2584 2113 2584 
z
M 3366 4563 
L 3366 3988 
Q 3128 4100 2886 4159 
Q 2644 4219 2406 4219 
Q 1781 4219 1451 3797 
Q 1122 3375 1075 2522 
Q 1259 2794 1537 2939 
Q 1816 3084 2150 3084 
Q 2853 3084 3261 2657 
Q 3669 2231 3669 1497 
Q 3669 778 3244 343 
Q 2819 -91 2113 -91 
Q 1303 -91 875 529 
Q 447 1150 447 2328 
Q 447 3434 972 4092 
Q 1497 4750 2381 4750 
Q 2619 4750 2861 4703 
Q 3103 4656 3366 4563 
z
" id="DejaVuSans-36" transform="scale(0.015625)"/>
       <path d="M 2944 4013 
L 2944 2272 
L 4684 2272 
L 4684 1741 
L 2944 1741 
L 2944 0 
L 2419 0 
L 2419 1741 
L 678 1741 
L 678 2272 
L 2419 2272 
L 2419 4013 
L 2944 4013 
z
" id="DejaVuSans-2b" transform="scale(0.015625)"/>
      </defs>
      <use xlink:href="#DejaVuSans-36"/>
      <use x="63.623047" xlink:href="#DejaVuSans-30"/>
      <use x="127.246094" xlink:href="#DejaVuSans-20"/>
      <use x="159.033203" xlink:href="#DejaVuSans-61"/>
      <use x="220.3125" xlink:href="#DejaVuSans-6e"/>
      <use x="283.691406" xlink:href="#DejaVuSans-73"/>
      <use x="335.791016" xlink:href="#DejaVuSans-20"/>
      <use x="367.578125" xlink:href="#DejaVuSans-65"/>
      <use x="429.101562" xlink:href="#DejaVuSans-74"/>
      <use x="468.310547" xlink:href="#DejaVuSans-20"/>
      <use x="500.097656" xlink:href="#DejaVuSans-2b"/>
     </g>
    </g>
   </g>
  </g>
 </g>
 <defs>
  <clipPath id="pe519b87aba">
   <rect height="217.44" width="446.4" x="54.4525" y="53.420625"/>
  </clipPath>
 </defs>
</svg>
