<?xml version="1.0" encoding="utf-8" standalone="no"?>
<!DOCTYPE svg PUBLIC "-//W3C//DTD SVG 1.1//EN"
  "http://www.w3.org/Graphics/SVG/1.1/DTD/svg11.dtd">
<svg height="336.049967pt" version="1.1" viewBox="0 0 581.71875 336.049967" width="581.71875pt" xmlns="http://www.w3.org/2000/svg" xmlns:xlink="http://www.w3.org/1999/xlink">
 <metadata>
  <rdf:RDF xmlns:cc="http://creativecommons.org/ns#" xmlns:dc="http://purl.org/dc/elements/1.1/" xmlns:rdf="http://www.w3.org/1999/02/22-rdf-syntax-ns#">
   <cc:Work>
    <dc:type rdf:resource="http://purl.org/dc/dcmitype/StillImage"/>
    <dc:date>2021-06-13T09:56:30.170231</dc:date>
    <dc:format>image/svg+xml</dc:format>
    <dc:creator>
     <cc:Agent>
      <dc:title>Matplotlib v3.4.1, https://matplotlib.org/</dc:title>
     </cc:Agent>
    </dc:creator>
   </cc:Work>
  </rdf:RDF>
 </metadata>
 <defs>
  <style type="text/css">*{stroke-linecap:butt;stroke-linejoin:round;}</style>
 </defs>
 <g id="figure_1">
  <g id="patch_1">
   <path d="M 0 336.049967 
L 581.71875 336.049967 
L 581.71875 0 
L 0 0 
z
" style="fill:#ffffff;"/>
  </g>
  <g id="axes_1">
   <g id="patch_2">
    <path d="M 60.17875 270.860625 
L 506.57875 270.860625 
L 506.57875 53.420625 
L 60.17875 53.420625 
z
" style="fill:none;opacity:0;"/>
   </g>
   <g id="patch_3">
    <path clip-path="url(#p534e803357)" d="M 74.844869 270.860625 
L 74.844869 64.292625 
L 124.343021 64.292625 
L 124.343021 270.860625 
z
" style="fill:#808080;opacity:0.15;stroke:#808080;stroke-linejoin:miter;"/>
   </g>
   <g id="patch_4">
    <path clip-path="url(#p534e803357)" d="M 282.920434 270.860625 
L 282.920434 64.292625 
L 325.085526 64.292625 
L 325.085526 270.860625 
z
" style="fill:#808080;opacity:0.15;stroke:#808080;stroke-linejoin:miter;"/>
   </g>
   <g id="patch_5">
    <path clip-path="url(#p534e803357)" d="M 426.831727 270.860625 
L 426.831727 64.292625 
L 451.580803 64.292625 
L 451.580803 270.860625 
z
" style="fill:#808080;opacity:0.15;stroke:#808080;stroke-linejoin:miter;"/>
   </g>
   <g id="matplotlib.axis_1">
    <g id="xtick_1">
     <g id="line2d_1">
      <defs>
       <path d="M 0 0 
L 0 3.5 
" id="md4835410f7" style="stroke:#000000;stroke-width:0.8;"/>
      </defs>
      <g>
       <use style="stroke:#000000;stroke-width:0.8;" x="60.17875" xlink:href="#md4835410f7" y="270.860625"/>
      </g>
     </g>
     <g id="text_1">
      <!-- mars -->
      <g transform="translate(48.984145 298.726462)rotate(-45)scale(0.09 -0.09)">
       <defs>
        <path d="M 3328 2828 
Q 3544 3216 3844 3400 
Q 4144 3584 4550 3584 
Q 5097 3584 5394 3201 
Q 5691 2819 5691 2113 
L 5691 0 
L 5113 0 
L 5113 2094 
Q 5113 2597 4934 2840 
Q 4756 3084 4391 3084 
Q 3944 3084 3684 2787 
Q 3425 2491 3425 1978 
L 3425 0 
L 2847 0 
L 2847 2094 
Q 2847 2600 2669 2842 
Q 2491 3084 2119 3084 
Q 1678 3084 1418 2786 
Q 1159 2488 1159 1978 
L 1159 0 
L 581 0 
L 581 3500 
L 1159 3500 
L 1159 2956 
Q 1356 3278 1631 3431 
Q 1906 3584 2284 3584 
Q 2666 3584 2933 3390 
Q 3200 3197 3328 2828 
z
" id="DejaVuSans-6d" transform="scale(0.015625)"/>
        <path d="M 2194 1759 
Q 1497 1759 1228 1600 
Q 959 1441 959 1056 
Q 959 750 1161 570 
Q 1363 391 1709 391 
Q 2188 391 2477 730 
Q 2766 1069 2766 1631 
L 2766 1759 
L 2194 1759 
z
M 3341 1997 
L 3341 0 
L 2766 0 
L 2766 531 
Q 2569 213 2275 61 
Q 1981 -91 1556 -91 
Q 1019 -91 701 211 
Q 384 513 384 1019 
Q 384 1609 779 1909 
Q 1175 2209 1959 2209 
L 2766 2209 
L 2766 2266 
Q 2766 2663 2505 2880 
Q 2244 3097 1772 3097 
Q 1472 3097 1187 3025 
Q 903 2953 641 2809 
L 641 3341 
Q 956 3463 1253 3523 
Q 1550 3584 1831 3584 
Q 2591 3584 2966 3190 
Q 3341 2797 3341 1997 
z
" id="DejaVuSans-61" transform="scale(0.015625)"/>
        <path d="M 2631 2963 
Q 2534 3019 2420 3045 
Q 2306 3072 2169 3072 
Q 1681 3072 1420 2755 
Q 1159 2438 1159 1844 
L 1159 0 
L 581 0 
L 581 3500 
L 1159 3500 
L 1159 2956 
Q 1341 3275 1631 3429 
Q 1922 3584 2338 3584 
Q 2397 3584 2469 3576 
Q 2541 3569 2628 3553 
L 2631 2963 
z
" id="DejaVuSans-72" transform="scale(0.015625)"/>
        <path d="M 2834 3397 
L 2834 2853 
Q 2591 2978 2328 3040 
Q 2066 3103 1784 3103 
Q 1356 3103 1142 2972 
Q 928 2841 928 2578 
Q 928 2378 1081 2264 
Q 1234 2150 1697 2047 
L 1894 2003 
Q 2506 1872 2764 1633 
Q 3022 1394 3022 966 
Q 3022 478 2636 193 
Q 2250 -91 1575 -91 
Q 1294 -91 989 -36 
Q 684 19 347 128 
L 347 722 
Q 666 556 975 473 
Q 1284 391 1588 391 
Q 1994 391 2212 530 
Q 2431 669 2431 922 
Q 2431 1156 2273 1281 
Q 2116 1406 1581 1522 
L 1381 1569 
Q 847 1681 609 1914 
Q 372 2147 372 2553 
Q 372 3047 722 3315 
Q 1072 3584 1716 3584 
Q 2034 3584 2315 3537 
Q 2597 3491 2834 3397 
z
" id="DejaVuSans-73" transform="scale(0.015625)"/>
       </defs>
       <use xlink:href="#DejaVuSans-6d"/>
       <use x="97.412109" xlink:href="#DejaVuSans-61"/>
       <use x="158.691406" xlink:href="#DejaVuSans-72"/>
       <use x="199.804688" xlink:href="#DejaVuSans-73"/>
      </g>
     </g>
    </g>
    <g id="xtick_2">
     <g id="line2d_2">
      <g>
       <use style="stroke:#000000;stroke-width:0.8;" x="88.594356" xlink:href="#md4835410f7" y="270.860625"/>
      </g>
     </g>
     <g id="text_2">
      <!-- avril -->
      <g transform="translate(79.611227 296.514986)rotate(-45)scale(0.09 -0.09)">
       <defs>
        <path d="M 191 3500 
L 800 3500 
L 1894 563 
L 2988 3500 
L 3597 3500 
L 2284 0 
L 1503 0 
L 191 3500 
z
" id="DejaVuSans-76" transform="scale(0.015625)"/>
        <path d="M 603 3500 
L 1178 3500 
L 1178 0 
L 603 0 
L 603 3500 
z
M 603 4863 
L 1178 4863 
L 1178 4134 
L 603 4134 
L 603 4863 
z
" id="DejaVuSans-69" transform="scale(0.015625)"/>
        <path d="M 603 4863 
L 1178 4863 
L 1178 0 
L 603 0 
L 603 4863 
z
" id="DejaVuSans-6c" transform="scale(0.015625)"/>
       </defs>
       <use xlink:href="#DejaVuSans-61"/>
       <use x="61.279297" xlink:href="#DejaVuSans-76"/>
       <use x="120.458984" xlink:href="#DejaVuSans-72"/>
       <use x="161.572266" xlink:href="#DejaVuSans-69"/>
       <use x="189.355469" xlink:href="#DejaVuSans-6c"/>
      </g>
     </g>
    </g>
    <g id="xtick_3">
     <g id="line2d_3">
      <g>
       <use style="stroke:#000000;stroke-width:0.8;" x="116.093329" xlink:href="#md4835410f7" y="270.860625"/>
      </g>
     </g>
     <g id="text_3">
      <!-- mai -->
      <g transform="translate(109.062146 294.56304)rotate(-45)scale(0.09 -0.09)">
       <use xlink:href="#DejaVuSans-6d"/>
       <use x="97.412109" xlink:href="#DejaVuSans-61"/>
       <use x="158.691406" xlink:href="#DejaVuSans-69"/>
      </g>
     </g>
    </g>
    <g id="xtick_4">
     <g id="line2d_4">
      <g>
       <use style="stroke:#000000;stroke-width:0.8;" x="144.508935" xlink:href="#md4835410f7" y="270.860625"/>
      </g>
     </g>
     <g id="text_4">
      <!-- juin -->
      <g transform="translate(137.742254 294.298537)rotate(-45)scale(0.09 -0.09)">
       <defs>
        <path d="M 603 3500 
L 1178 3500 
L 1178 -63 
Q 1178 -731 923 -1031 
Q 669 -1331 103 -1331 
L -116 -1331 
L -116 -844 
L 38 -844 
Q 366 -844 484 -692 
Q 603 -541 603 -63 
L 603 3500 
z
M 603 4863 
L 1178 4863 
L 1178 4134 
L 603 4134 
L 603 4863 
z
" id="DejaVuSans-6a" transform="scale(0.015625)"/>
        <path d="M 544 1381 
L 544 3500 
L 1119 3500 
L 1119 1403 
Q 1119 906 1312 657 
Q 1506 409 1894 409 
Q 2359 409 2629 706 
Q 2900 1003 2900 1516 
L 2900 3500 
L 3475 3500 
L 3475 0 
L 2900 0 
L 2900 538 
Q 2691 219 2414 64 
Q 2138 -91 1772 -91 
Q 1169 -91 856 284 
Q 544 659 544 1381 
z
M 1991 3584 
L 1991 3584 
z
" id="DejaVuSans-75" transform="scale(0.015625)"/>
        <path d="M 3513 2113 
L 3513 0 
L 2938 0 
L 2938 2094 
Q 2938 2591 2744 2837 
Q 2550 3084 2163 3084 
Q 1697 3084 1428 2787 
Q 1159 2491 1159 1978 
L 1159 0 
L 581 0 
L 581 3500 
L 1159 3500 
L 1159 2956 
Q 1366 3272 1645 3428 
Q 1925 3584 2291 3584 
Q 2894 3584 3203 3211 
Q 3513 2838 3513 2113 
z
" id="DejaVuSans-6e" transform="scale(0.015625)"/>
       </defs>
       <use xlink:href="#DejaVuSans-6a"/>
       <use x="27.783203" xlink:href="#DejaVuSans-75"/>
       <use x="91.162109" xlink:href="#DejaVuSans-69"/>
       <use x="118.945312" xlink:href="#DejaVuSans-6e"/>
      </g>
     </g>
    </g>
    <g id="xtick_5">
     <g id="line2d_5">
      <g>
       <use style="stroke:#000000;stroke-width:0.8;" x="172.007908" xlink:href="#md4835410f7" y="270.860625"/>
      </g>
     </g>
     <g id="text_5">
      <!-- juil. -->
      <g transform="translate(165.483854 294.055911)rotate(-45)scale(0.09 -0.09)">
       <defs>
        <path d="M 684 794 
L 1344 794 
L 1344 0 
L 684 0 
L 684 794 
z
" id="DejaVuSans-2e" transform="scale(0.015625)"/>
       </defs>
       <use xlink:href="#DejaVuSans-6a"/>
       <use x="27.783203" xlink:href="#DejaVuSans-75"/>
       <use x="91.162109" xlink:href="#DejaVuSans-69"/>
       <use x="118.945312" xlink:href="#DejaVuSans-6c"/>
       <use x="146.728516" xlink:href="#DejaVuSans-2e"/>
      </g>
     </g>
    </g>
    <g id="xtick_6">
     <g id="line2d_6">
      <g>
       <use style="stroke:#000000;stroke-width:0.8;" x="200.423514" xlink:href="#md4835410f7" y="270.860625"/>
      </g>
     </g>
     <g id="text_6">
      <!-- août -->
      <g transform="translate(190.937234 297.018136)rotate(-45)scale(0.09 -0.09)">
       <defs>
        <path d="M 1959 3097 
Q 1497 3097 1228 2736 
Q 959 2375 959 1747 
Q 959 1119 1226 758 
Q 1494 397 1959 397 
Q 2419 397 2687 759 
Q 2956 1122 2956 1747 
Q 2956 2369 2687 2733 
Q 2419 3097 1959 3097 
z
M 1959 3584 
Q 2709 3584 3137 3096 
Q 3566 2609 3566 1747 
Q 3566 888 3137 398 
Q 2709 -91 1959 -91 
Q 1206 -91 779 398 
Q 353 888 353 1747 
Q 353 2609 779 3096 
Q 1206 3584 1959 3584 
z
" id="DejaVuSans-6f" transform="scale(0.015625)"/>
        <path d="M 544 1381 
L 544 3500 
L 1119 3500 
L 1119 1403 
Q 1119 906 1312 657 
Q 1506 409 1894 409 
Q 2359 409 2629 706 
Q 2900 1003 2900 1516 
L 2900 3500 
L 3475 3500 
L 3475 0 
L 2900 0 
L 2900 538 
Q 2691 219 2414 64 
Q 2138 -91 1772 -91 
Q 1169 -91 856 284 
Q 544 659 544 1381 
z
M 1991 3584 
L 1991 3584 
z
M 1753 5119 
L 2215 5119 
L 2981 3944 
L 2547 3944 
L 1984 4709 
L 1422 3944 
L 987 3944 
L 1753 5119 
z
" id="DejaVuSans-fb" transform="scale(0.015625)"/>
        <path d="M 1172 4494 
L 1172 3500 
L 2356 3500 
L 2356 3053 
L 1172 3053 
L 1172 1153 
Q 1172 725 1289 603 
Q 1406 481 1766 481 
L 2356 481 
L 2356 0 
L 1766 0 
Q 1100 0 847 248 
Q 594 497 594 1153 
L 594 3053 
L 172 3053 
L 172 3500 
L 594 3500 
L 594 4494 
L 1172 4494 
z
" id="DejaVuSans-74" transform="scale(0.015625)"/>
       </defs>
       <use xlink:href="#DejaVuSans-61"/>
       <use x="61.279297" xlink:href="#DejaVuSans-6f"/>
       <use x="122.460938" xlink:href="#DejaVuSans-fb"/>
       <use x="185.839844" xlink:href="#DejaVuSans-74"/>
      </g>
     </g>
    </g>
    <g id="xtick_7">
     <g id="line2d_7">
      <g>
       <use style="stroke:#000000;stroke-width:0.8;" x="228.83912" xlink:href="#md4835410f7" y="270.860625"/>
      </g>
     </g>
     <g id="text_7">
      <!-- sept. -->
      <g transform="translate(217.886146 298.484831)rotate(-45)scale(0.09 -0.09)">
       <defs>
        <path d="M 3597 1894 
L 3597 1613 
L 953 1613 
Q 991 1019 1311 708 
Q 1631 397 2203 397 
Q 2534 397 2845 478 
Q 3156 559 3463 722 
L 3463 178 
Q 3153 47 2828 -22 
Q 2503 -91 2169 -91 
Q 1331 -91 842 396 
Q 353 884 353 1716 
Q 353 2575 817 3079 
Q 1281 3584 2069 3584 
Q 2775 3584 3186 3129 
Q 3597 2675 3597 1894 
z
M 3022 2063 
Q 3016 2534 2758 2815 
Q 2500 3097 2075 3097 
Q 1594 3097 1305 2825 
Q 1016 2553 972 2059 
L 3022 2063 
z
" id="DejaVuSans-65" transform="scale(0.015625)"/>
        <path d="M 1159 525 
L 1159 -1331 
L 581 -1331 
L 581 3500 
L 1159 3500 
L 1159 2969 
Q 1341 3281 1617 3432 
Q 1894 3584 2278 3584 
Q 2916 3584 3314 3078 
Q 3713 2572 3713 1747 
Q 3713 922 3314 415 
Q 2916 -91 2278 -91 
Q 1894 -91 1617 61 
Q 1341 213 1159 525 
z
M 3116 1747 
Q 3116 2381 2855 2742 
Q 2594 3103 2138 3103 
Q 1681 3103 1420 2742 
Q 1159 2381 1159 1747 
Q 1159 1113 1420 752 
Q 1681 391 2138 391 
Q 2594 391 2855 752 
Q 3116 1113 3116 1747 
z
" id="DejaVuSans-70" transform="scale(0.015625)"/>
       </defs>
       <use xlink:href="#DejaVuSans-73"/>
       <use x="52.099609" xlink:href="#DejaVuSans-65"/>
       <use x="113.623047" xlink:href="#DejaVuSans-70"/>
       <use x="177.099609" xlink:href="#DejaVuSans-74"/>
       <use x="216.308594" xlink:href="#DejaVuSans-2e"/>
      </g>
     </g>
    </g>
    <g id="xtick_8">
     <g id="line2d_8">
      <g>
       <use style="stroke:#000000;stroke-width:0.8;" x="256.338093" xlink:href="#md4835410f7" y="270.860625"/>
      </g>
     </g>
     <g id="text_8">
      <!-- oct. -->
      <g transform="translate(249.263158 294.606792)rotate(-45)scale(0.09 -0.09)">
       <defs>
        <path d="M 3122 3366 
L 3122 2828 
Q 2878 2963 2633 3030 
Q 2388 3097 2138 3097 
Q 1578 3097 1268 2742 
Q 959 2388 959 1747 
Q 959 1106 1268 751 
Q 1578 397 2138 397 
Q 2388 397 2633 464 
Q 2878 531 3122 666 
L 3122 134 
Q 2881 22 2623 -34 
Q 2366 -91 2075 -91 
Q 1284 -91 818 406 
Q 353 903 353 1747 
Q 353 2603 823 3093 
Q 1294 3584 2113 3584 
Q 2378 3584 2631 3529 
Q 2884 3475 3122 3366 
z
" id="DejaVuSans-63" transform="scale(0.015625)"/>
       </defs>
       <use xlink:href="#DejaVuSans-6f"/>
       <use x="61.181641" xlink:href="#DejaVuSans-63"/>
       <use x="116.162109" xlink:href="#DejaVuSans-74"/>
       <use x="155.371094" xlink:href="#DejaVuSans-2e"/>
      </g>
     </g>
    </g>
    <g id="xtick_9">
     <g id="line2d_9">
      <g>
       <use style="stroke:#000000;stroke-width:0.8;" x="284.753699" xlink:href="#md4835410f7" y="270.860625"/>
      </g>
     </g>
     <g id="text_9">
      <!-- nov. -->
      <g transform="translate(276.366197 295.919359)rotate(-45)scale(0.09 -0.09)">
       <use xlink:href="#DejaVuSans-6e"/>
       <use x="63.378906" xlink:href="#DejaVuSans-6f"/>
       <use x="124.560547" xlink:href="#DejaVuSans-76"/>
       <use x="175.990234" xlink:href="#DejaVuSans-2e"/>
      </g>
     </g>
    </g>
    <g id="xtick_10">
     <g id="line2d_10">
      <g>
       <use style="stroke:#000000;stroke-width:0.8;" x="312.252672" xlink:href="#md4835410f7" y="270.860625"/>
      </g>
     </g>
     <g id="text_10">
      <!-- déc. -->
      <g transform="translate(303.610612 296.173917)rotate(-45)scale(0.09 -0.09)">
       <defs>
        <path d="M 2906 2969 
L 2906 4863 
L 3481 4863 
L 3481 0 
L 2906 0 
L 2906 525 
Q 2725 213 2448 61 
Q 2172 -91 1784 -91 
Q 1150 -91 751 415 
Q 353 922 353 1747 
Q 353 2572 751 3078 
Q 1150 3584 1784 3584 
Q 2172 3584 2448 3432 
Q 2725 3281 2906 2969 
z
M 947 1747 
Q 947 1113 1208 752 
Q 1469 391 1925 391 
Q 2381 391 2643 752 
Q 2906 1113 2906 1747 
Q 2906 2381 2643 2742 
Q 2381 3103 1925 3103 
Q 1469 3103 1208 2742 
Q 947 2381 947 1747 
z
" id="DejaVuSans-64" transform="scale(0.015625)"/>
        <path d="M 3597 1894 
L 3597 1613 
L 953 1613 
Q 991 1019 1311 708 
Q 1631 397 2203 397 
Q 2534 397 2845 478 
Q 3156 559 3463 722 
L 3463 178 
Q 3153 47 2828 -22 
Q 2503 -91 2169 -91 
Q 1331 -91 842 396 
Q 353 884 353 1716 
Q 353 2575 817 3079 
Q 1281 3584 2069 3584 
Q 2775 3584 3186 3129 
Q 3597 2675 3597 1894 
z
M 3022 2063 
Q 3016 2534 2758 2815 
Q 2500 3097 2075 3097 
Q 1594 3097 1305 2825 
Q 1016 2553 972 2059 
L 3022 2063 
z
M 2466 5119 
L 3088 5119 
L 2070 3944 
L 1591 3944 
L 2466 5119 
z
" id="DejaVuSans-e9" transform="scale(0.015625)"/>
       </defs>
       <use xlink:href="#DejaVuSans-64"/>
       <use x="63.476562" xlink:href="#DejaVuSans-e9"/>
       <use x="125" xlink:href="#DejaVuSans-63"/>
       <use x="179.980469" xlink:href="#DejaVuSans-2e"/>
      </g>
     </g>
    </g>
    <g id="xtick_11">
     <g id="line2d_11">
      <g>
       <use style="stroke:#000000;stroke-width:0.8;" x="340.668278" xlink:href="#md4835410f7" y="270.860625"/>
      </g>
     </g>
     <g id="text_11">
      <!-- janv. -->
      <g transform="translate(330.506822 297.693313)rotate(-45)scale(0.09 -0.09)">
       <use xlink:href="#DejaVuSans-6a"/>
       <use x="27.783203" xlink:href="#DejaVuSans-61"/>
       <use x="89.0625" xlink:href="#DejaVuSans-6e"/>
       <use x="152.441406" xlink:href="#DejaVuSans-76"/>
       <use x="203.871094" xlink:href="#DejaVuSans-2e"/>
      </g>
     </g>
    </g>
    <g id="xtick_12">
     <g id="line2d_12">
      <g>
       <use style="stroke:#000000;stroke-width:0.8;" x="369.083883" xlink:href="#md4835410f7" y="270.860625"/>
      </g>
     </g>
     <g id="text_12">
      <!-- fév. -->
      <g transform="translate(362.467353 294.148388)rotate(-45)scale(0.09 -0.09)">
       <defs>
        <path d="M 2375 4863 
L 2375 4384 
L 1825 4384 
Q 1516 4384 1395 4259 
Q 1275 4134 1275 3809 
L 1275 3500 
L 2222 3500 
L 2222 3053 
L 1275 3053 
L 1275 0 
L 697 0 
L 697 3053 
L 147 3053 
L 147 3500 
L 697 3500 
L 697 3744 
Q 697 4328 969 4595 
Q 1241 4863 1831 4863 
L 2375 4863 
z
" id="DejaVuSans-66" transform="scale(0.015625)"/>
       </defs>
       <use xlink:href="#DejaVuSans-66"/>
       <use x="35.205078" xlink:href="#DejaVuSans-e9"/>
       <use x="96.728516" xlink:href="#DejaVuSans-76"/>
       <use x="148.158203" xlink:href="#DejaVuSans-2e"/>
      </g>
     </g>
    </g>
    <g id="xtick_13">
     <g id="line2d_13">
      <g>
       <use style="stroke:#000000;stroke-width:0.8;" x="394.749592" xlink:href="#md4835410f7" y="270.860625"/>
      </g>
     </g>
     <g id="text_13">
      <!-- mars -->
      <g transform="translate(383.554987 298.726462)rotate(-45)scale(0.09 -0.09)">
       <use xlink:href="#DejaVuSans-6d"/>
       <use x="97.412109" xlink:href="#DejaVuSans-61"/>
       <use x="158.691406" xlink:href="#DejaVuSans-72"/>
       <use x="199.804688" xlink:href="#DejaVuSans-73"/>
      </g>
     </g>
    </g>
    <g id="xtick_14">
     <g id="line2d_14">
      <g>
       <use style="stroke:#000000;stroke-width:0.8;" x="423.165198" xlink:href="#md4835410f7" y="270.860625"/>
      </g>
     </g>
     <g id="text_14">
      <!-- avril -->
      <g transform="translate(414.182069 296.514986)rotate(-45)scale(0.09 -0.09)">
       <use xlink:href="#DejaVuSans-61"/>
       <use x="61.279297" xlink:href="#DejaVuSans-76"/>
       <use x="120.458984" xlink:href="#DejaVuSans-72"/>
       <use x="161.572266" xlink:href="#DejaVuSans-69"/>
       <use x="189.355469" xlink:href="#DejaVuSans-6c"/>
      </g>
     </g>
    </g>
    <g id="xtick_15">
     <g id="line2d_15">
      <g>
       <use style="stroke:#000000;stroke-width:0.8;" x="450.664171" xlink:href="#md4835410f7" y="270.860625"/>
      </g>
     </g>
     <g id="text_15">
      <!-- mai -->
      <g transform="translate(443.632988 294.56304)rotate(-45)scale(0.09 -0.09)">
       <use xlink:href="#DejaVuSans-6d"/>
       <use x="97.412109" xlink:href="#DejaVuSans-61"/>
       <use x="158.691406" xlink:href="#DejaVuSans-69"/>
      </g>
     </g>
    </g>
    <g id="xtick_16">
     <g id="line2d_16">
      <g>
       <use style="stroke:#000000;stroke-width:0.8;" x="479.079777" xlink:href="#md4835410f7" y="270.860625"/>
      </g>
     </g>
     <g id="text_16">
      <!-- juin -->
      <g transform="translate(472.313096 294.298537)rotate(-45)scale(0.09 -0.09)">
       <use xlink:href="#DejaVuSans-6a"/>
       <use x="27.783203" xlink:href="#DejaVuSans-75"/>
       <use x="91.162109" xlink:href="#DejaVuSans-69"/>
       <use x="118.945312" xlink:href="#DejaVuSans-6e"/>
      </g>
     </g>
    </g>
    <g id="xtick_17">
     <g id="line2d_17">
      <g>
       <use style="stroke:#000000;stroke-width:0.8;" x="506.57875" xlink:href="#md4835410f7" y="270.860625"/>
      </g>
     </g>
     <g id="text_17">
      <!-- juil. -->
      <g transform="translate(500.054696 294.055911)rotate(-45)scale(0.09 -0.09)">
       <use xlink:href="#DejaVuSans-6a"/>
       <use x="27.783203" xlink:href="#DejaVuSans-75"/>
       <use x="91.162109" xlink:href="#DejaVuSans-69"/>
       <use x="118.945312" xlink:href="#DejaVuSans-6c"/>
       <use x="146.728516" xlink:href="#DejaVuSans-2e"/>
      </g>
     </g>
    </g>
   </g>
   <g id="matplotlib.axis_2">
    <g id="ytick_1">
     <g id="line2d_18">
      <path clip-path="url(#p534e803357)" d="M 60.17875 260.506339 
L 506.57875 260.506339 
" style="fill:none;stroke:#b0b0b0;stroke-linecap:square;stroke-opacity:0.5;stroke-width:0.8;"/>
     </g>
     <g id="text_18">
      <!-- 0 -->
      <g transform="translate(47.4525 263.925636)scale(0.09 -0.09)">
       <defs>
        <path d="M 2034 4250 
Q 1547 4250 1301 3770 
Q 1056 3291 1056 2328 
Q 1056 1369 1301 889 
Q 1547 409 2034 409 
Q 2525 409 2770 889 
Q 3016 1369 3016 2328 
Q 3016 3291 2770 3770 
Q 2525 4250 2034 4250 
z
M 2034 4750 
Q 2819 4750 3233 4129 
Q 3647 3509 3647 2328 
Q 3647 1150 3233 529 
Q 2819 -91 2034 -91 
Q 1250 -91 836 529 
Q 422 1150 422 2328 
Q 422 3509 836 4129 
Q 1250 4750 2034 4750 
z
" id="DejaVuSans-30" transform="scale(0.015625)"/>
       </defs>
       <use xlink:href="#DejaVuSans-30"/>
      </g>
     </g>
    </g>
    <g id="ytick_2">
     <g id="line2d_19">
      <path clip-path="url(#p534e803357)" d="M 60.17875 205.866309 
L 506.57875 205.866309 
" style="fill:none;stroke:#b0b0b0;stroke-linecap:square;stroke-opacity:0.5;stroke-width:0.8;"/>
     </g>
     <g id="text_19">
      <!-- 100 -->
      <g transform="translate(36 209.285606)scale(0.09 -0.09)">
       <defs>
        <path d="M 794 531 
L 1825 531 
L 1825 4091 
L 703 3866 
L 703 4441 
L 1819 4666 
L 2450 4666 
L 2450 531 
L 3481 531 
L 3481 0 
L 794 0 
L 794 531 
z
" id="DejaVuSans-31" transform="scale(0.015625)"/>
       </defs>
       <use xlink:href="#DejaVuSans-31"/>
       <use x="63.623047" xlink:href="#DejaVuSans-30"/>
       <use x="127.246094" xlink:href="#DejaVuSans-30"/>
      </g>
     </g>
    </g>
    <g id="ytick_3">
     <g id="line2d_20">
      <path clip-path="url(#p534e803357)" d="M 60.17875 151.226279 
L 506.57875 151.226279 
" style="fill:none;stroke:#b0b0b0;stroke-linecap:square;stroke-opacity:0.5;stroke-width:0.8;"/>
     </g>
     <g id="text_20">
      <!-- 200 -->
      <g transform="translate(36 154.645576)scale(0.09 -0.09)">
       <defs>
        <path d="M 1228 531 
L 3431 531 
L 3431 0 
L 469 0 
L 469 531 
Q 828 903 1448 1529 
Q 2069 2156 2228 2338 
Q 2531 2678 2651 2914 
Q 2772 3150 2772 3378 
Q 2772 3750 2511 3984 
Q 2250 4219 1831 4219 
Q 1534 4219 1204 4116 
Q 875 4013 500 3803 
L 500 4441 
Q 881 4594 1212 4672 
Q 1544 4750 1819 4750 
Q 2544 4750 2975 4387 
Q 3406 4025 3406 3419 
Q 3406 3131 3298 2873 
Q 3191 2616 2906 2266 
Q 2828 2175 2409 1742 
Q 1991 1309 1228 531 
z
" id="DejaVuSans-32" transform="scale(0.015625)"/>
       </defs>
       <use xlink:href="#DejaVuSans-32"/>
       <use x="63.623047" xlink:href="#DejaVuSans-30"/>
       <use x="127.246094" xlink:href="#DejaVuSans-30"/>
      </g>
     </g>
    </g>
    <g id="ytick_4">
     <g id="line2d_21">
      <path clip-path="url(#p534e803357)" d="M 60.17875 96.586249 
L 506.57875 96.586249 
" style="fill:none;stroke:#b0b0b0;stroke-linecap:square;stroke-opacity:0.5;stroke-width:0.8;"/>
     </g>
     <g id="text_21">
      <!-- 300 -->
      <g transform="translate(36 100.005546)scale(0.09 -0.09)">
       <defs>
        <path d="M 2597 2516 
Q 3050 2419 3304 2112 
Q 3559 1806 3559 1356 
Q 3559 666 3084 287 
Q 2609 -91 1734 -91 
Q 1441 -91 1130 -33 
Q 819 25 488 141 
L 488 750 
Q 750 597 1062 519 
Q 1375 441 1716 441 
Q 2309 441 2620 675 
Q 2931 909 2931 1356 
Q 2931 1769 2642 2001 
Q 2353 2234 1838 2234 
L 1294 2234 
L 1294 2753 
L 1863 2753 
Q 2328 2753 2575 2939 
Q 2822 3125 2822 3475 
Q 2822 3834 2567 4026 
Q 2313 4219 1838 4219 
Q 1578 4219 1281 4162 
Q 984 4106 628 3988 
L 628 4550 
Q 988 4650 1302 4700 
Q 1616 4750 1894 4750 
Q 2613 4750 3031 4423 
Q 3450 4097 3450 3541 
Q 3450 3153 3228 2886 
Q 3006 2619 2597 2516 
z
" id="DejaVuSans-33" transform="scale(0.015625)"/>
       </defs>
       <use xlink:href="#DejaVuSans-33"/>
       <use x="63.623047" xlink:href="#DejaVuSans-30"/>
       <use x="127.246094" xlink:href="#DejaVuSans-30"/>
      </g>
     </g>
    </g>
    <g id="ytick_5">
     <g id="line2d_22">
      <path clip-path="url(#p534e803357)" d="M 60.17875 233.186324 
L 506.57875 233.186324 
" style="fill:none;stroke:#b0b0b0;stroke-linecap:square;stroke-opacity:0.2;stroke-width:0.8;"/>
     </g>
    </g>
    <g id="ytick_6">
     <g id="line2d_23">
      <path clip-path="url(#p534e803357)" d="M 60.17875 178.546294 
L 506.57875 178.546294 
" style="fill:none;stroke:#b0b0b0;stroke-linecap:square;stroke-opacity:0.2;stroke-width:0.8;"/>
     </g>
    </g>
    <g id="ytick_7">
     <g id="line2d_24">
      <path clip-path="url(#p534e803357)" d="M 60.17875 123.906264 
L 506.57875 123.906264 
" style="fill:none;stroke:#b0b0b0;stroke-linecap:square;stroke-opacity:0.2;stroke-width:0.8;"/>
     </g>
    </g>
    <g id="ytick_8">
     <g id="line2d_25">
      <path clip-path="url(#p534e803357)" d="M 60.17875 69.266234 
L 506.57875 69.266234 
" style="fill:none;stroke:#b0b0b0;stroke-linecap:square;stroke-opacity:0.2;stroke-width:0.8;"/>
     </g>
    </g>
   </g>
   <g id="line2d_26">
    <path clip-path="url(#p534e803357)" d="M 60.17875 171.389853 
L 506.57875 171.389853 
" style="fill:none;stroke:#3cb371;stroke-linecap:square;stroke-width:0.8;"/>
   </g>
   <g id="line2d_27">
    <path clip-path="url(#p534e803357)" d="M 75.761502 260.506339 
L 93.177518 260.506339 
L 94.09415 260.167175 
L 95.010783 260.167175 
L 95.927415 260.506339 
L 97.76068 260.506339 
L 98.677313 259.828011 
L 99.593945 259.828011 
L 100.510578 259.149683 
L 101.42721 259.149683 
L 102.343842 260.506339 
L 115.176697 260.506339 
L 116.093329 260.167175 
L 120.676491 260.167175 
L 121.593124 259.488847 
L 124.343021 259.488847 
L 125.259653 259.149683 
L 126.176286 258.471354 
L 127.092918 258.471354 
L 128.009551 258.810518 
L 128.926183 258.810518 
L 129.842816 259.149683 
L 131.676081 259.149683 
L 132.592713 259.488847 
L 135.34261 259.488847 
L 136.259243 259.149683 
L 138.092508 259.149683 
L 139.00914 259.828011 
L 144.508935 259.828011 
L 145.425567 260.167175 
L 146.3422 259.828011 
L 147.258832 259.828011 
L 148.175465 259.149683 
L 150.008729 259.149683 
L 151.841994 259.828011 
L 152.758627 259.488847 
L 153.675259 259.488847 
L 154.591892 258.13219 
L 157.341789 257.114697 
L 158.258421 256.436369 
L 159.175054 256.775533 
L 160.091686 256.775533 
L 161.008319 256.097205 
L 161.924951 256.097205 
L 162.841584 255.758041 
L 163.758216 255.758041 
L 164.674849 257.453862 
L 165.591481 257.793026 
L 166.508113 257.453862 
L 168.341378 256.097205 
L 169.258011 255.758041 
L 170.174643 254.740548 
L 171.091276 254.06222 
L 172.007908 253.044727 
L 172.924541 253.044727 
L 173.841173 254.06222 
L 174.757805 253.383891 
L 175.674438 255.079712 
L 177.507703 253.723055 
L 178.424335 254.401384 
L 179.340968 254.740548 
L 180.2576 253.383891 
L 181.174233 252.705563 
L 182.090865 252.705563 
L 183.007497 252.027234 
L 183.92413 254.740548 
L 185.757395 252.027234 
L 186.674027 251.68807 
L 187.59066 253.044727 
L 188.507292 252.705563 
L 189.423925 253.383891 
L 190.340557 252.027234 
L 191.257189 253.383891 
L 192.173822 253.044727 
L 193.090454 254.06222 
L 194.007087 252.366399 
L 194.923719 249.313921 
L 195.840352 248.974757 
L 196.756984 251.348906 
L 197.673617 250.331413 
L 198.590249 249.992249 
L 199.506881 252.705563 
L 200.423514 253.044727 
L 202.256779 250.331413 
L 203.173411 252.366399 
L 204.090044 251.009742 
L 205.006676 250.670578 
L 205.923309 251.009742 
L 206.839941 250.331413 
L 207.756573 250.331413 
L 208.673206 251.009742 
L 209.589838 251.009742 
L 210.506471 253.044727 
L 211.423103 254.06222 
L 212.339736 253.383891 
L 214.173001 252.705563 
L 215.089633 249.992249 
L 216.006265 253.044727 
L 216.922898 252.366399 
L 217.83953 253.044727 
L 218.756163 252.366399 
L 219.672795 252.027234 
L 220.589428 253.044727 
L 221.50606 253.723055 
L 222.422693 253.723055 
L 223.339325 252.366399 
L 224.255957 252.366399 
L 225.17259 251.348906 
L 226.089222 253.044727 
L 227.005855 253.044727 
L 227.922487 252.027234 
L 228.83912 249.992249 
L 229.755752 251.348906 
L 230.672384 254.06222 
L 234.338914 254.06222 
L 235.255547 254.401384 
L 236.172179 255.758041 
L 237.088812 255.758041 
L 238.005444 254.401384 
L 238.922076 255.758041 
L 239.838709 255.758041 
L 240.755341 256.097205 
L 241.671974 256.097205 
L 242.588606 256.436369 
L 243.505239 258.13219 
L 245.338504 257.453862 
L 246.255136 257.453862 
L 247.171768 257.793026 
L 248.088401 257.793026 
L 249.921666 258.471354 
L 250.838298 259.149683 
L 252.671563 259.149683 
L 253.588196 258.810518 
L 254.504828 259.149683 
L 255.42146 258.471354 
L 256.338093 257.453862 
L 258.171358 258.13219 
L 260.004623 258.13219 
L 260.921255 257.793026 
L 261.837888 257.793026 
L 262.75452 258.13219 
L 265.504417 258.13219 
L 266.42105 258.471354 
L 267.337682 258.13219 
L 269.170947 258.810518 
L 271.920844 258.810518 
L 272.837477 259.149683 
L 273.754109 258.810518 
L 274.670742 259.149683 
L 275.587374 257.793026 
L 278.337272 257.793026 
L 279.253904 259.149683 
L 280.170536 258.471354 
L 281.087169 258.810518 
L 282.003801 258.471354 
L 282.920434 257.793026 
L 283.837066 257.793026 
L 284.753699 258.13219 
L 285.670331 257.793026 
L 286.586964 258.13219 
L 287.503596 257.793026 
L 288.420228 258.13219 
L 292.086758 258.13219 
L 294.836656 259.149683 
L 297.586553 259.149683 
L 299.419818 258.471354 
L 300.33645 258.471354 
L 301.253083 259.149683 
L 302.169715 259.488847 
L 304.919612 259.488847 
L 305.836245 258.13219 
L 306.752877 258.13219 
L 307.66951 258.810518 
L 308.586142 259.149683 
L 311.33604 259.149683 
L 313.169304 259.828011 
L 314.085937 259.828011 
L 315.919202 259.149683 
L 317.752467 259.149683 
L 318.669099 259.488847 
L 320.502364 259.488847 
L 321.418996 259.828011 
L 323.252261 259.828011 
L 324.168894 259.149683 
L 325.085526 259.149683 
L 326.002159 258.810518 
L 326.918791 259.488847 
L 328.752056 258.810518 
L 329.668688 258.810518 
L 330.585321 258.471354 
L 332.418586 258.471354 
L 333.335218 259.488847 
L 334.251851 259.488847 
L 335.168483 258.810518 
L 336.085116 258.810518 
L 337.001748 259.488847 
L 337.91838 259.828011 
L 338.835013 258.13219 
L 339.751645 259.149683 
L 340.668278 258.810518 
L 341.58491 258.810518 
L 343.418175 258.13219 
L 344.334807 258.471354 
L 345.25144 257.793026 
L 346.168072 258.471354 
L 347.084705 258.810518 
L 348.91797 258.810518 
L 349.834602 258.13219 
L 350.751235 259.149683 
L 351.667867 259.149683 
L 352.584499 258.13219 
L 354.417764 258.810518 
L 355.334397 258.810518 
L 357.167662 259.488847 
L 358.084294 259.149683 
L 359.000927 258.471354 
L 359.917559 258.810518 
L 361.750824 258.810518 
L 362.667456 258.13219 
L 365.417354 258.13219 
L 366.333986 258.810518 
L 367.250619 258.810518 
L 368.167251 259.149683 
L 370.000516 259.149683 
L 370.917148 258.810518 
L 371.833781 259.149683 
L 372.750413 258.810518 
L 375.500311 259.828011 
L 376.416943 260.506339 
L 378.250208 260.506339 
L 379.16684 259.828011 
L 380.083473 260.167175 
L 381.000105 260.167175 
L 381.916738 260.506339 
L 382.83337 259.828011 
L 383.750003 259.488847 
L 384.666635 258.810518 
L 390.16643 258.810518 
L 391.083062 259.488847 
L 391.999695 259.488847 
L 392.916327 259.828011 
L 393.832959 259.488847 
L 394.749592 259.488847 
L 395.666224 260.167175 
L 396.582857 260.167175 
L 397.499489 259.828011 
L 400.249387 259.828011 
L 401.166019 259.149683 
L 402.082651 258.810518 
L 402.999284 260.167175 
L 407.582446 260.167175 
L 408.499079 260.506339 
L 409.415711 260.506339 
L 410.332343 260.167175 
L 413.082241 260.167175 
L 413.998873 260.506339 
L 428.664992 260.506339 
L 431.41489 259.488847 
L 433.248155 259.488847 
L 434.164787 258.810518 
L 435.081419 259.488847 
L 435.998052 259.828011 
L 437.831317 259.149683 
L 438.747949 259.149683 
L 439.664582 258.810518 
L 440.581214 259.149683 
L 441.497847 258.810518 
L 442.414479 258.810518 
L 443.331111 259.828011 
L 444.247744 259.149683 
L 446.081009 258.471354 
L 449.747539 259.828011 
L 450.664171 259.828011 
L 451.580803 259.149683 
L 453.414068 258.471354 
L 454.330701 258.810518 
L 455.247333 258.471354 
L 456.163966 258.810518 
L 457.080598 258.471354 
L 458.913863 258.471354 
L 459.830495 257.453862 
L 460.747128 258.471354 
L 461.66376 259.149683 
L 462.580393 259.488847 
L 463.497025 259.488847 
L 464.413658 260.167175 
L 465.33029 258.471354 
L 467.163555 257.793026 
L 468.080187 258.13219 
L 468.99682 257.453862 
L 469.913452 256.436369 
L 470.830085 257.114697 
L 471.746717 256.436369 
L 472.66335 257.453862 
L 473.579982 257.793026 
L 474.496614 257.114697 
L 475.413247 258.471354 
L 476.329879 258.810518 
L 477.246512 259.488847 
L 479.079777 258.810518 
L 479.996409 258.810518 
L 480.913042 258.471354 
L 482.746306 259.149683 
L 485.496204 257.114697 
L 486.412836 257.453862 
L 487.329469 256.775533 
L 488.246101 255.079712 
L 489.162734 256.097205 
L 489.162734 256.097205 
" style="fill:none;stroke:#b22222;stroke-linecap:square;"/>
   </g>
   <g id="line2d_28">
    <path clip-path="url(#p534e803357)" d="M 75.761502 260.506339 
L 87.677723 260.506339 
L 88.594356 258.889531 
L 93.177518 258.889531 
L 94.09415 259.428467 
L 95.010783 258.350595 
L 97.76068 258.350595 
L 98.677313 257.272723 
L 100.510578 257.272723 
L 101.42721 256.733787 
L 102.343842 258.889531 
L 104.177107 258.889531 
L 105.09374 260.506339 
L 106.010372 260.506339 
L 106.927005 259.428467 
L 107.843637 259.967403 
L 108.76027 259.428467 
L 109.676902 259.428467 
L 110.593534 260.506339 
L 115.176697 260.506339 
L 116.093329 259.967403 
L 117.926594 259.967403 
L 118.843226 258.350595 
L 120.676491 258.350595 
L 121.593124 257.811659 
L 122.509756 258.889531 
L 124.343021 258.889531 
L 126.176286 257.811659 
L 127.092918 258.350595 
L 128.009551 259.428467 
L 130.759448 257.811659 
L 131.676081 256.733787 
L 132.592713 257.811659 
L 133.509345 258.350595 
L 135.34261 258.350595 
L 136.259243 256.733787 
L 137.175875 256.733787 
L 139.00914 255.655915 
L 139.925773 255.655915 
L 140.842405 255.116979 
L 141.759037 255.116979 
L 142.67567 254.578043 
L 143.592302 254.578043 
L 144.508935 252.961235 
L 145.425567 252.422299 
L 146.3422 252.961235 
L 147.258832 252.961235 
L 149.092097 251.883363 
L 150.008729 251.883363 
L 150.925362 251.344427 
L 151.841994 253.500171 
L 152.758627 251.344427 
L 153.675259 250.266555 
L 154.591892 247.571874 
L 155.508524 245.41613 
L 156.425157 244.877194 
L 157.341789 241.104642 
L 158.258421 236.793154 
L 159.175054 237.33209 
L 160.091686 238.948898 
L 161.008319 236.793154 
L 161.924951 236.793154 
L 163.758216 233.559537 
L 164.674849 234.637409 
L 165.591481 235.176346 
L 166.508113 236.254218 
L 167.424746 232.481665 
L 168.341378 231.942729 
L 169.258011 228.170177 
L 171.091276 227.092305 
L 172.007908 228.709113 
L 172.924541 226.553369 
L 173.841173 228.709113 
L 174.757805 231.403793 
L 175.674438 230.325921 
L 176.59107 231.942729 
L 177.507703 231.942729 
L 178.424335 233.559537 
L 179.340968 233.559537 
L 180.2576 231.942729 
L 181.174233 233.559537 
L 182.090865 234.098473 
L 183.007497 233.559537 
L 183.92413 231.942729 
L 184.840762 231.942729 
L 185.757395 233.020601 
L 186.674027 231.403793 
L 187.59066 231.403793 
L 188.507292 227.631241 
L 189.423925 226.553369 
L 190.340557 227.092305 
L 191.257189 229.248049 
L 192.173822 227.631241 
L 193.090454 230.864857 
L 194.007087 229.786985 
L 194.923719 227.631241 
L 195.840352 227.631241 
L 196.756984 228.170177 
L 197.673617 231.942729 
L 198.590249 235.176346 
L 199.506881 236.254218 
L 200.423514 236.793154 
L 201.340146 235.176346 
L 202.256779 230.864857 
L 203.173411 231.403793 
L 204.090044 231.403793 
L 205.006676 231.942729 
L 205.923309 233.559537 
L 206.839941 233.559537 
L 207.756573 233.020601 
L 208.673206 234.637409 
L 209.589838 238.948898 
L 210.506471 242.182514 
L 211.423103 243.260386 
L 212.339736 240.565706 
L 213.256368 240.565706 
L 214.173001 239.487834 
L 215.089633 237.871026 
L 216.006265 238.409962 
L 216.922898 236.793154 
L 217.83953 241.643578 
L 218.756163 242.182514 
L 219.672795 243.260386 
L 220.589428 243.260386 
L 221.50606 240.02677 
L 222.422693 241.643578 
L 223.339325 242.72145 
L 224.255957 241.643578 
L 225.17259 243.260386 
L 226.089222 244.338258 
L 227.005855 244.338258 
L 227.922487 243.260386 
L 228.83912 244.338258 
L 229.755752 248.11081 
L 230.672384 250.266555 
L 231.589017 249.188682 
L 232.505649 250.266555 
L 233.422282 250.266555 
L 235.255547 245.955066 
L 236.172179 249.188682 
L 237.088812 249.727619 
L 238.005444 250.805491 
L 238.922076 252.961235 
L 239.838709 252.961235 
L 240.755341 252.422299 
L 241.671974 252.422299 
L 242.588606 250.805491 
L 243.505239 257.272723 
L 244.421871 256.733787 
L 246.255136 256.733787 
L 247.171768 255.655915 
L 249.005033 254.578043 
L 249.921666 256.194851 
L 250.838298 256.733787 
L 251.754931 256.733787 
L 252.671563 256.194851 
L 257.254725 256.194851 
L 258.171358 255.655915 
L 259.08799 255.655915 
L 260.004623 256.194851 
L 260.921255 256.194851 
L 261.837888 255.116979 
L 263.671152 257.272723 
L 265.504417 257.272723 
L 266.42105 256.733787 
L 267.337682 257.811659 
L 270.08758 257.811659 
L 271.004212 256.733787 
L 272.837477 256.733787 
L 273.754109 257.272723 
L 274.670742 258.889531 
L 275.587374 256.733787 
L 277.420639 255.655915 
L 278.337272 255.655915 
L 279.253904 255.116979 
L 281.087169 255.116979 
L 282.003801 254.578043 
L 283.837066 254.578043 
L 284.753699 255.116979 
L 285.670331 254.039107 
L 286.586964 254.039107 
L 287.503596 256.194851 
L 288.420228 256.194851 
L 289.336861 256.733787 
L 290.253493 256.733787 
L 291.170126 257.272723 
L 293.003391 257.272723 
L 293.920023 257.811659 
L 294.836656 256.194851 
L 295.753288 256.733787 
L 297.586553 256.733787 
L 298.503185 256.194851 
L 299.419818 257.811659 
L 303.086348 257.811659 
L 304.00298 258.350595 
L 304.919612 257.811659 
L 305.836245 258.889531 
L 306.752877 260.506339 
L 308.586142 257.272723 
L 309.502775 256.733787 
L 311.33604 256.733787 
L 312.252672 256.194851 
L 313.169304 257.272723 
L 314.085937 256.733787 
L 315.002569 255.655915 
L 315.919202 256.194851 
L 317.752467 256.194851 
L 318.669099 258.350595 
L 319.585732 258.889531 
L 320.502364 258.350595 
L 321.418996 256.733787 
L 323.252261 257.811659 
L 324.168894 256.194851 
L 325.085526 257.272723 
L 326.918791 255.116979 
L 327.835424 255.655915 
L 328.752056 255.116979 
L 330.585321 255.116979 
L 331.501953 252.422299 
L 332.418586 252.961235 
L 333.335218 255.655915 
L 335.168483 254.578043 
L 336.085116 253.500171 
L 337.001748 254.039107 
L 337.91838 253.500171 
L 338.835013 252.422299 
L 339.751645 252.422299 
L 340.668278 252.961235 
L 341.58491 252.961235 
L 342.501543 251.883363 
L 343.418175 255.116979 
L 345.25144 254.039107 
L 346.168072 252.422299 
L 347.084705 252.422299 
L 348.001337 252.961235 
L 348.91797 252.961235 
L 349.834602 251.883363 
L 350.751235 251.883363 
L 351.667867 251.344427 
L 353.501132 248.11081 
L 354.417764 247.032938 
L 355.334397 248.11081 
L 356.251029 247.571874 
L 357.167662 244.877194 
L 358.084294 244.877194 
L 359.000927 246.494002 
L 360.834191 250.805491 
L 361.750824 249.727619 
L 362.667456 248.11081 
L 363.584089 248.11081 
L 364.500721 248.649746 
L 365.417354 248.11081 
L 367.250619 248.11081 
L 370.000516 251.344427 
L 370.917148 254.039107 
L 371.833781 255.116979 
L 373.667046 255.116979 
L 374.583678 255.655915 
L 375.500311 255.116979 
L 376.416943 254.039107 
L 378.250208 254.039107 
L 379.16684 256.733787 
L 380.083473 256.194851 
L 381.916738 256.194851 
L 382.83337 255.655915 
L 383.750003 254.578043 
L 384.666635 255.116979 
L 385.583267 256.733787 
L 387.416532 256.733787 
L 388.333165 255.655915 
L 389.249797 255.655915 
L 390.16643 257.272723 
L 391.083062 256.733787 
L 391.999695 257.272723 
L 393.832959 257.272723 
L 394.749592 257.811659 
L 396.582857 257.811659 
L 397.499489 257.272723 
L 400.249387 257.272723 
L 401.166019 257.811659 
L 402.999284 257.811659 
L 403.915916 258.350595 
L 405.749181 257.272723 
L 406.665814 257.272723 
L 407.582446 257.811659 
L 409.415711 256.733787 
L 410.332343 256.733787 
L 411.248976 257.272723 
L 413.082241 257.272723 
L 413.998873 258.350595 
L 414.915506 257.811659 
L 415.832138 256.194851 
L 416.748771 256.733787 
L 417.665403 256.194851 
L 418.582035 256.733787 
L 419.498668 256.733787 
L 420.4153 256.194851 
L 422.248565 257.272723 
L 423.165198 256.194851 
L 424.08183 254.578043 
L 429.581625 254.578043 
L 430.498257 254.039107 
L 432.331522 254.039107 
L 433.248155 253.500171 
L 434.164787 250.266555 
L 435.998052 250.266555 
L 436.914684 251.883363 
L 437.831317 252.961235 
L 438.747949 252.422299 
L 439.664582 252.422299 
L 440.581214 248.649746 
L 441.497847 248.11081 
L 442.414479 247.032938 
L 443.331111 245.41613 
L 444.247744 246.494002 
L 445.164376 246.494002 
L 446.081009 245.41613 
L 446.997641 241.104642 
L 447.914274 241.643578 
L 448.830906 244.338258 
L 449.747539 243.260386 
L 450.664171 245.955066 
L 451.580803 245.955066 
L 452.497436 248.11081 
L 453.414068 247.571874 
L 454.330701 249.727619 
L 455.247333 248.649746 
L 457.080598 249.727619 
L 457.99723 247.571874 
L 459.830495 244.338258 
L 460.747128 244.338258 
L 461.66376 244.877194 
L 462.580393 244.877194 
L 463.497025 240.565706 
L 464.413658 238.948898 
L 465.33029 238.948898 
L 466.246922 239.487834 
L 467.163555 236.793154 
L 468.080187 238.409962 
L 468.99682 236.793154 
L 469.913452 236.793154 
L 470.830085 234.637409 
L 471.746717 233.020601 
L 473.579982 235.176346 
L 474.496614 237.33209 
L 475.413247 241.643578 
L 477.246512 242.72145 
L 478.163144 243.799322 
L 479.079777 237.871026 
L 479.996409 237.33209 
L 480.913042 240.02677 
L 482.746306 236.793154 
L 483.662939 237.33209 
L 484.579571 236.793154 
L 485.496204 235.176346 
L 486.412836 235.176346 
L 488.246101 234.098473 
L 489.162734 235.715282 
L 489.162734 235.715282 
" style="fill:none;stroke:#000000;stroke-linecap:square;stroke-width:1.5;"/>
   </g>
   <g id="line2d_29">
    <path clip-path="url(#p534e803357)" d="M 75.761502 260.506339 
L 87.677723 260.506339 
L 88.594356 256.631709 
L 89.510988 256.631709 
L 90.427621 254.694395 
L 95.010783 254.694395 
L 95.927415 252.75708 
L 97.76068 252.75708 
L 98.677313 248.88245 
L 99.593945 248.88245 
L 100.510578 246.945135 
L 101.42721 246.945135 
L 102.343842 250.819765 
L 105.09374 250.819765 
L 106.010372 252.75708 
L 106.927005 258.569024 
L 114.260064 258.569024 
L 115.176697 260.506339 
L 128.009551 260.506339 
L 128.926183 258.569024 
L 129.842816 260.506339 
L 130.759448 260.506339 
L 131.676081 254.694395 
L 132.592713 250.819765 
L 135.34261 250.819765 
L 136.259243 248.88245 
L 138.092508 248.88245 
L 139.925773 245.00782 
L 140.842405 245.00782 
L 141.759037 243.070505 
L 143.592302 243.070505 
L 144.508935 233.38393 
L 145.425567 237.25856 
L 146.3422 235.321245 
L 147.258832 235.321245 
L 148.175465 229.5093 
L 149.092097 227.571986 
L 150.008729 227.571986 
L 150.925362 221.760041 
L 151.841994 225.634671 
L 152.758627 227.571986 
L 153.675259 221.760041 
L 154.591892 219.822726 
L 155.508524 223.697356 
L 156.425157 217.885411 
L 157.341789 206.261521 
L 158.258421 200.449577 
L 159.175054 196.574947 
L 160.091686 186.888372 
L 161.008319 175.264483 
L 161.924951 169.452538 
L 162.841584 165.577908 
L 163.758216 155.891333 
L 164.674849 144.267444 
L 165.591481 144.267444 
L 167.424746 136.518184 
L 168.341378 146.204759 
L 169.258011 146.204759 
L 170.174643 144.267444 
L 171.091276 148.142074 
L 172.007908 126.831609 
L 172.924541 124.894295 
L 173.841173 117.145035 
L 174.757805 128.768924 
L 175.674438 121.019665 
L 176.59107 111.33309 
L 179.340968 93.897256 
L 180.2576 101.646515 
L 181.174233 105.521145 
L 182.090865 103.58383 
L 183.007497 107.45846 
L 183.92413 105.521145 
L 184.840762 107.45846 
L 185.757395 117.145035 
L 187.59066 132.643554 
L 188.507292 130.706239 
L 189.423925 132.643554 
L 190.340557 146.204759 
L 191.257189 130.706239 
L 192.173822 124.894295 
L 193.090454 140.392814 
L 194.007087 140.392814 
L 194.923719 148.142074 
L 195.840352 150.079389 
L 196.756984 153.954018 
L 197.673617 161.703278 
L 198.590249 167.515223 
L 199.506881 177.201797 
L 200.423514 184.951057 
L 201.340146 183.013742 
L 202.256779 175.264483 
L 204.090044 171.389853 
L 205.006676 171.389853 
L 205.923309 175.264483 
L 207.756573 175.264483 
L 208.673206 188.825687 
L 209.589838 188.825687 
L 210.506471 190.763002 
L 211.423103 194.637632 
L 212.339736 192.700317 
L 213.256368 196.574947 
L 214.173001 202.386892 
L 215.089633 204.324206 
L 216.006265 200.449577 
L 217.83953 200.449577 
L 218.756163 202.386892 
L 219.672795 208.198836 
L 220.589428 208.198836 
L 221.50606 204.324206 
L 222.422693 202.386892 
L 223.339325 206.261521 
L 224.255957 212.073466 
L 225.17259 212.073466 
L 226.089222 206.261521 
L 227.922487 206.261521 
L 228.83912 210.136151 
L 229.755752 223.697356 
L 230.672384 233.38393 
L 231.589017 235.321245 
L 232.505649 233.38393 
L 233.422282 233.38393 
L 234.338914 231.446615 
L 235.255547 233.38393 
L 236.172179 233.38393 
L 238.005444 241.13319 
L 240.755341 241.13319 
L 241.671974 239.195875 
L 242.588606 239.195875 
L 243.505239 252.75708 
L 245.338504 248.88245 
L 248.088401 248.88245 
L 249.005033 245.00782 
L 249.921666 243.070505 
L 250.838298 245.00782 
L 252.671563 241.13319 
L 256.338093 248.88245 
L 258.171358 248.88245 
L 260.004623 245.00782 
L 260.921255 245.00782 
L 261.837888 243.070505 
L 262.75452 243.070505 
L 263.671152 241.13319 
L 264.587785 243.070505 
L 266.42105 243.070505 
L 267.337682 246.945135 
L 268.254315 245.00782 
L 269.170947 245.00782 
L 270.08758 246.945135 
L 272.837477 246.945135 
L 273.754109 252.75708 
L 274.670742 254.694395 
L 275.587374 252.75708 
L 276.504007 254.694395 
L 278.337272 254.694395 
L 279.253904 252.75708 
L 280.170536 254.694395 
L 282.920434 254.694395 
L 283.837066 256.631709 
L 284.753699 256.631709 
L 286.586964 252.75708 
L 289.336861 252.75708 
L 290.253493 250.819765 
L 291.170126 250.819765 
L 292.086758 252.75708 
L 293.920023 252.75708 
L 295.753288 256.631709 
L 304.00298 256.631709 
L 304.919612 250.819765 
L 305.836245 246.945135 
L 307.66951 250.819765 
L 311.33604 250.819765 
L 312.252672 252.75708 
L 313.169304 248.88245 
L 314.085937 248.88245 
L 315.002569 252.75708 
L 316.835834 248.88245 
L 317.752467 245.00782 
L 318.669099 246.945135 
L 321.418996 246.945135 
L 322.335629 248.88245 
L 323.252261 248.88245 
L 324.168894 250.819765 
L 326.918791 245.00782 
L 327.835424 246.945135 
L 328.752056 250.819765 
L 330.585321 250.819765 
L 331.501953 243.070505 
L 332.418586 246.945135 
L 333.335218 239.195875 
L 336.085116 233.38393 
L 337.001748 233.38393 
L 338.835013 237.25856 
L 339.751645 237.25856 
L 340.668278 239.195875 
L 341.58491 239.195875 
L 342.501543 243.070505 
L 343.418175 243.070505 
L 344.334807 241.13319 
L 345.25144 246.945135 
L 351.667867 233.38393 
L 352.584499 237.25856 
L 353.501132 243.070505 
L 354.417764 245.00782 
L 355.334397 245.00782 
L 356.251029 241.13319 
L 357.167662 231.446615 
L 358.084294 231.446615 
L 359.000927 233.38393 
L 359.917559 225.634671 
L 361.750824 221.760041 
L 362.667456 215.948096 
L 363.584089 223.697356 
L 364.500721 217.885411 
L 365.417354 221.760041 
L 366.333986 227.571986 
L 367.250619 225.634671 
L 368.167251 219.822726 
L 369.083883 215.948096 
L 370.000516 208.198836 
L 370.917148 215.948096 
L 371.833781 219.822726 
L 372.750413 219.822726 
L 373.667046 217.885411 
L 375.500311 217.885411 
L 376.416943 219.822726 
L 378.250208 219.822726 
L 379.16684 223.697356 
L 381.000105 223.697356 
L 381.916738 225.634671 
L 382.83337 225.634671 
L 384.666635 229.5093 
L 385.583267 235.321245 
L 389.249797 235.321245 
L 390.16643 239.195875 
L 391.083062 239.195875 
L 391.999695 241.13319 
L 392.916327 241.13319 
L 393.832959 239.195875 
L 394.749592 243.070505 
L 395.666224 243.070505 
L 397.499489 246.945135 
L 398.416122 245.00782 
L 399.332754 245.00782 
L 400.249387 243.070505 
L 401.166019 245.00782 
L 403.915916 245.00782 
L 404.832549 241.13319 
L 405.749181 243.070505 
L 406.665814 243.070505 
L 407.582446 241.13319 
L 408.499079 241.13319 
L 409.415711 239.195875 
L 410.332343 241.13319 
L 413.082241 241.13319 
L 413.998873 239.195875 
L 414.915506 239.195875 
L 415.832138 243.070505 
L 416.748771 243.070505 
L 417.665403 241.13319 
L 418.582035 243.070505 
L 420.4153 243.070505 
L 421.331933 239.195875 
L 422.248565 237.25856 
L 423.165198 241.13319 
L 424.08183 243.070505 
L 427.74836 243.070505 
L 429.581625 223.697356 
L 430.498257 219.822726 
L 431.41489 221.760041 
L 432.331522 221.760041 
L 433.248155 219.822726 
L 434.164787 221.760041 
L 435.998052 221.760041 
L 436.914684 219.822726 
L 438.747949 219.822726 
L 439.664582 217.885411 
L 440.581214 206.261521 
L 442.414479 206.261521 
L 443.331111 204.324206 
L 444.247744 206.261521 
L 445.164376 206.261521 
L 446.997641 198.512262 
L 447.914274 198.512262 
L 448.830906 190.763002 
L 449.747539 192.700317 
L 450.664171 190.763002 
L 451.580803 186.888372 
L 453.414068 175.264483 
L 454.330701 167.515223 
L 455.247333 173.327168 
L 456.163966 165.577908 
L 457.080598 161.703278 
L 457.99723 161.703278 
L 458.913863 165.577908 
L 459.830495 163.640593 
L 460.747128 159.765963 
L 461.66376 171.389853 
L 462.580393 175.264483 
L 463.497025 171.389853 
L 464.413658 165.577908 
L 465.33029 169.452538 
L 466.246922 163.640593 
L 468.080187 155.891333 
L 468.99682 167.515223 
L 469.913452 165.577908 
L 470.830085 157.828648 
L 471.746717 148.142074 
L 472.66335 144.267444 
L 473.579982 142.330129 
L 474.496614 128.768924 
L 475.413247 132.643554 
L 476.329879 132.643554 
L 477.246512 126.831609 
L 478.163144 134.580869 
L 479.996409 142.330129 
L 480.913042 132.643554 
L 481.829674 134.580869 
L 482.746306 132.643554 
L 483.662939 144.267444 
L 484.579571 140.392814 
L 485.496204 150.079389 
L 486.412836 150.079389 
L 487.329469 152.016703 
L 488.246101 155.891333 
L 489.162734 171.389853 
L 489.162734 171.389853 
" style="fill:none;stroke:#3cb371;stroke-linecap:square;stroke-width:3;"/>
   </g>
   <g id="line2d_30">
    <path clip-path="url(#p534e803357)" d="M 60.17875 260.506339 
L 506.57875 260.506339 
" style="fill:none;stroke:#808080;stroke-linecap:square;stroke-width:0.8;"/>
   </g>
   <g id="line2d_31">
    <path clip-path="url(#p534e803357)" d="M 340.668278 270.860625 
L 340.668278 64.292625 
" style="fill:none;stroke:#000000;stroke-dasharray:1.85,0.8;stroke-dashoffset:0;stroke-width:0.5;"/>
   </g>
   <g id="text_22">
    <!-- Guyane -->
    <g style="fill:#4169e1;" transform="translate(245.132969 49.536563)scale(0.18 -0.18)">
     <defs>
      <path d="M 4781 347 
Q 4331 128 3847 18 
Q 3363 -91 2847 -91 
Q 1681 -91 1000 561 
Q 319 1213 319 2328 
Q 319 3456 1012 4103 
Q 1706 4750 2913 4750 
Q 3378 4750 3804 4662 
Q 4231 4575 4609 4403 
L 4609 3438 
Q 4219 3659 3833 3768 
Q 3447 3878 3059 3878 
Q 2341 3878 1952 3476 
Q 1563 3075 1563 2328 
Q 1563 1588 1938 1184 
Q 2313 781 3003 781 
Q 3191 781 3352 804 
Q 3513 828 3641 878 
L 3641 1784 
L 2906 1784 
L 2906 2591 
L 4781 2591 
L 4781 347 
z
" id="DejaVuSans-Bold-47" transform="scale(0.015625)"/>
      <path d="M 500 1363 
L 500 3500 
L 1625 3500 
L 1625 3150 
Q 1625 2866 1622 2436 
Q 1619 2006 1619 1863 
Q 1619 1441 1641 1255 
Q 1663 1069 1716 984 
Q 1784 875 1895 815 
Q 2006 756 2150 756 
Q 2500 756 2700 1025 
Q 2900 1294 2900 1772 
L 2900 3500 
L 4019 3500 
L 4019 0 
L 2900 0 
L 2900 506 
Q 2647 200 2364 54 
Q 2081 -91 1741 -91 
Q 1134 -91 817 281 
Q 500 653 500 1363 
z
" id="DejaVuSans-Bold-75" transform="scale(0.015625)"/>
      <path d="M 78 3500 
L 1197 3500 
L 2138 1125 
L 2938 3500 
L 4056 3500 
L 2584 -331 
Q 2363 -916 2067 -1148 
Q 1772 -1381 1288 -1381 
L 641 -1381 
L 641 -647 
L 991 -647 
Q 1275 -647 1404 -556 
Q 1534 -466 1606 -231 
L 1638 -134 
L 78 3500 
z
" id="DejaVuSans-Bold-79" transform="scale(0.015625)"/>
      <path d="M 2106 1575 
Q 1756 1575 1579 1456 
Q 1403 1338 1403 1106 
Q 1403 894 1545 773 
Q 1688 653 1941 653 
Q 2256 653 2472 879 
Q 2688 1106 2688 1447 
L 2688 1575 
L 2106 1575 
z
M 3816 1997 
L 3816 0 
L 2688 0 
L 2688 519 
Q 2463 200 2181 54 
Q 1900 -91 1497 -91 
Q 953 -91 614 226 
Q 275 544 275 1050 
Q 275 1666 698 1953 
Q 1122 2241 2028 2241 
L 2688 2241 
L 2688 2328 
Q 2688 2594 2478 2717 
Q 2269 2841 1825 2841 
Q 1466 2841 1156 2769 
Q 847 2697 581 2553 
L 581 3406 
Q 941 3494 1303 3539 
Q 1666 3584 2028 3584 
Q 2975 3584 3395 3211 
Q 3816 2838 3816 1997 
z
" id="DejaVuSans-Bold-61" transform="scale(0.015625)"/>
      <path d="M 4056 2131 
L 4056 0 
L 2931 0 
L 2931 347 
L 2931 1631 
Q 2931 2084 2911 2256 
Q 2891 2428 2841 2509 
Q 2775 2619 2662 2680 
Q 2550 2741 2406 2741 
Q 2056 2741 1856 2470 
Q 1656 2200 1656 1722 
L 1656 0 
L 538 0 
L 538 3500 
L 1656 3500 
L 1656 2988 
Q 1909 3294 2193 3439 
Q 2478 3584 2822 3584 
Q 3428 3584 3742 3212 
Q 4056 2841 4056 2131 
z
" id="DejaVuSans-Bold-6e" transform="scale(0.015625)"/>
      <path d="M 4031 1759 
L 4031 1441 
L 1416 1441 
Q 1456 1047 1700 850 
Q 1944 653 2381 653 
Q 2734 653 3104 758 
Q 3475 863 3866 1075 
L 3866 213 
Q 3469 63 3072 -14 
Q 2675 -91 2278 -91 
Q 1328 -91 801 392 
Q 275 875 275 1747 
Q 275 2603 792 3093 
Q 1309 3584 2216 3584 
Q 3041 3584 3536 3087 
Q 4031 2591 4031 1759 
z
M 2881 2131 
Q 2881 2450 2695 2645 
Q 2509 2841 2209 2841 
Q 1884 2841 1681 2658 
Q 1478 2475 1428 2131 
L 2881 2131 
z
" id="DejaVuSans-Bold-65" transform="scale(0.015625)"/>
     </defs>
     <use xlink:href="#DejaVuSans-Bold-47"/>
     <use x="82.080078" xlink:href="#DejaVuSans-Bold-75"/>
     <use x="153.271484" xlink:href="#DejaVuSans-Bold-79"/>
     <use x="218.457031" xlink:href="#DejaVuSans-Bold-61"/>
     <use x="285.9375" xlink:href="#DejaVuSans-Bold-6e"/>
     <use x="357.128906" xlink:href="#DejaVuSans-Bold-65"/>
    </g>
   </g>
   <g id="legend_1">
    <g id="patch_6">
     <path d="M 421.385938 115.690375 
L 543.51875 115.690375 
Q 545.71875 115.690375 545.71875 113.490375 
L 545.71875 39.376625 
Q 545.71875 37.176625 543.51875 37.176625 
L 421.385938 37.176625 
Q 419.185938 37.176625 419.185938 39.376625 
L 419.185938 113.490375 
Q 419.185938 115.690375 421.385938 115.690375 
z
" style="fill:#ffffff;opacity:0.8;stroke:#cccccc;stroke-linejoin:miter;"/>
    </g>
    <g id="text_23">
     <!-- Patients hospitalisés, -->
     <g transform="translate(429.776563 49.575062)scale(0.1 -0.1)">
      <defs>
       <path d="M 1259 4147 
L 1259 2394 
L 2053 2394 
Q 2494 2394 2734 2622 
Q 2975 2850 2975 3272 
Q 2975 3691 2734 3919 
Q 2494 4147 2053 4147 
L 1259 4147 
z
M 628 4666 
L 2053 4666 
Q 2838 4666 3239 4311 
Q 3641 3956 3641 3272 
Q 3641 2581 3239 2228 
Q 2838 1875 2053 1875 
L 1259 1875 
L 1259 0 
L 628 0 
L 628 4666 
z
" id="DejaVuSans-50" transform="scale(0.015625)"/>
       <path id="DejaVuSans-20" transform="scale(0.015625)"/>
       <path d="M 3513 2113 
L 3513 0 
L 2938 0 
L 2938 2094 
Q 2938 2591 2744 2837 
Q 2550 3084 2163 3084 
Q 1697 3084 1428 2787 
Q 1159 2491 1159 1978 
L 1159 0 
L 581 0 
L 581 4863 
L 1159 4863 
L 1159 2956 
Q 1366 3272 1645 3428 
Q 1925 3584 2291 3584 
Q 2894 3584 3203 3211 
Q 3513 2838 3513 2113 
z
" id="DejaVuSans-68" transform="scale(0.015625)"/>
       <path d="M 750 794 
L 1409 794 
L 1409 256 
L 897 -744 
L 494 -744 
L 750 256 
L 750 794 
z
" id="DejaVuSans-2c" transform="scale(0.015625)"/>
      </defs>
      <use xlink:href="#DejaVuSans-50"/>
      <use x="55.802734" xlink:href="#DejaVuSans-61"/>
      <use x="117.082031" xlink:href="#DejaVuSans-74"/>
      <use x="156.291016" xlink:href="#DejaVuSans-69"/>
      <use x="184.074219" xlink:href="#DejaVuSans-65"/>
      <use x="245.597656" xlink:href="#DejaVuSans-6e"/>
      <use x="308.976562" xlink:href="#DejaVuSans-74"/>
      <use x="348.185547" xlink:href="#DejaVuSans-73"/>
      <use x="400.285156" xlink:href="#DejaVuSans-20"/>
      <use x="432.072266" xlink:href="#DejaVuSans-68"/>
      <use x="495.451172" xlink:href="#DejaVuSans-6f"/>
      <use x="556.632812" xlink:href="#DejaVuSans-73"/>
      <use x="608.732422" xlink:href="#DejaVuSans-70"/>
      <use x="672.208984" xlink:href="#DejaVuSans-69"/>
      <use x="699.992188" xlink:href="#DejaVuSans-74"/>
      <use x="739.201172" xlink:href="#DejaVuSans-61"/>
      <use x="800.480469" xlink:href="#DejaVuSans-6c"/>
      <use x="828.263672" xlink:href="#DejaVuSans-69"/>
      <use x="856.046875" xlink:href="#DejaVuSans-73"/>
      <use x="908.146484" xlink:href="#DejaVuSans-e9"/>
      <use x="969.669922" xlink:href="#DejaVuSans-73"/>
      <use x="1021.769531" xlink:href="#DejaVuSans-2c"/>
     </g>
     <!-- pour 100 000 habitants -->
     <g transform="translate(423.585938 60.772875)scale(0.1 -0.1)">
      <defs>
       <path d="M 3116 1747 
Q 3116 2381 2855 2742 
Q 2594 3103 2138 3103 
Q 1681 3103 1420 2742 
Q 1159 2381 1159 1747 
Q 1159 1113 1420 752 
Q 1681 391 2138 391 
Q 2594 391 2855 752 
Q 3116 1113 3116 1747 
z
M 1159 2969 
Q 1341 3281 1617 3432 
Q 1894 3584 2278 3584 
Q 2916 3584 3314 3078 
Q 3713 2572 3713 1747 
Q 3713 922 3314 415 
Q 2916 -91 2278 -91 
Q 1894 -91 1617 61 
Q 1341 213 1159 525 
L 1159 0 
L 581 0 
L 581 4863 
L 1159 4863 
L 1159 2969 
z
" id="DejaVuSans-62" transform="scale(0.015625)"/>
      </defs>
      <use xlink:href="#DejaVuSans-70"/>
      <use x="63.476562" xlink:href="#DejaVuSans-6f"/>
      <use x="124.658203" xlink:href="#DejaVuSans-75"/>
      <use x="188.037109" xlink:href="#DejaVuSans-72"/>
      <use x="229.150391" xlink:href="#DejaVuSans-20"/>
      <use x="260.9375" xlink:href="#DejaVuSans-31"/>
      <use x="324.560547" xlink:href="#DejaVuSans-30"/>
      <use x="388.183594" xlink:href="#DejaVuSans-30"/>
      <use x="451.806641" xlink:href="#DejaVuSans-20"/>
      <use x="483.59375" xlink:href="#DejaVuSans-30"/>
      <use x="547.216797" xlink:href="#DejaVuSans-30"/>
      <use x="610.839844" xlink:href="#DejaVuSans-30"/>
      <use x="674.462891" xlink:href="#DejaVuSans-20"/>
      <use x="706.25" xlink:href="#DejaVuSans-68"/>
      <use x="769.628906" xlink:href="#DejaVuSans-61"/>
      <use x="830.908203" xlink:href="#DejaVuSans-62"/>
      <use x="894.384766" xlink:href="#DejaVuSans-69"/>
      <use x="922.167969" xlink:href="#DejaVuSans-74"/>
      <use x="961.376953" xlink:href="#DejaVuSans-61"/>
      <use x="1022.65625" xlink:href="#DejaVuSans-6e"/>
      <use x="1086.035156" xlink:href="#DejaVuSans-74"/>
      <use x="1125.244141" xlink:href="#DejaVuSans-73"/>
     </g>
    </g>
    <g id="line2d_32">
     <path d="M 436.589219 72.860844 
L 458.589219 72.860844 
" style="fill:none;stroke:#b22222;stroke-linecap:square;"/>
    </g>
    <g id="line2d_33"/>
    <g id="text_24">
     <!-- 0-29 ans -->
     <g transform="translate(464.089219 76.710844)scale(0.11 -0.11)">
      <defs>
       <path d="M 313 2009 
L 1997 2009 
L 1997 1497 
L 313 1497 
L 313 2009 
z
" id="DejaVuSans-2d" transform="scale(0.015625)"/>
       <path d="M 703 97 
L 703 672 
Q 941 559 1184 500 
Q 1428 441 1663 441 
Q 2288 441 2617 861 
Q 2947 1281 2994 2138 
Q 2813 1869 2534 1725 
Q 2256 1581 1919 1581 
Q 1219 1581 811 2004 
Q 403 2428 403 3163 
Q 403 3881 828 4315 
Q 1253 4750 1959 4750 
Q 2769 4750 3195 4129 
Q 3622 3509 3622 2328 
Q 3622 1225 3098 567 
Q 2575 -91 1691 -91 
Q 1453 -91 1209 -44 
Q 966 3 703 97 
z
M 1959 2075 
Q 2384 2075 2632 2365 
Q 2881 2656 2881 3163 
Q 2881 3666 2632 3958 
Q 2384 4250 1959 4250 
Q 1534 4250 1286 3958 
Q 1038 3666 1038 3163 
Q 1038 2656 1286 2365 
Q 1534 2075 1959 2075 
z
" id="DejaVuSans-39" transform="scale(0.015625)"/>
      </defs>
      <use xlink:href="#DejaVuSans-30"/>
      <use x="63.623047" xlink:href="#DejaVuSans-2d"/>
      <use x="99.707031" xlink:href="#DejaVuSans-32"/>
      <use x="163.330078" xlink:href="#DejaVuSans-39"/>
      <use x="226.953125" xlink:href="#DejaVuSans-20"/>
      <use x="258.740234" xlink:href="#DejaVuSans-61"/>
      <use x="320.019531" xlink:href="#DejaVuSans-6e"/>
      <use x="383.398438" xlink:href="#DejaVuSans-73"/>
     </g>
    </g>
    <g id="line2d_34">
     <path d="M 436.589219 89.006781 
L 458.589219 89.006781 
" style="fill:none;stroke:#000000;stroke-linecap:square;stroke-width:1.5;"/>
    </g>
    <g id="line2d_35"/>
    <g id="text_25">
     <!-- 30-59 ans -->
     <g transform="translate(464.089219 92.856781)scale(0.11 -0.11)">
      <defs>
       <path d="M 691 4666 
L 3169 4666 
L 3169 4134 
L 1269 4134 
L 1269 2991 
Q 1406 3038 1543 3061 
Q 1681 3084 1819 3084 
Q 2600 3084 3056 2656 
Q 3513 2228 3513 1497 
Q 3513 744 3044 326 
Q 2575 -91 1722 -91 
Q 1428 -91 1123 -41 
Q 819 9 494 109 
L 494 744 
Q 775 591 1075 516 
Q 1375 441 1709 441 
Q 2250 441 2565 725 
Q 2881 1009 2881 1497 
Q 2881 1984 2565 2268 
Q 2250 2553 1709 2553 
Q 1456 2553 1204 2497 
Q 953 2441 691 2322 
L 691 4666 
z
" id="DejaVuSans-35" transform="scale(0.015625)"/>
      </defs>
      <use xlink:href="#DejaVuSans-33"/>
      <use x="63.623047" xlink:href="#DejaVuSans-30"/>
      <use x="127.246094" xlink:href="#DejaVuSans-2d"/>
      <use x="163.330078" xlink:href="#DejaVuSans-35"/>
      <use x="226.953125" xlink:href="#DejaVuSans-39"/>
      <use x="290.576172" xlink:href="#DejaVuSans-20"/>
      <use x="322.363281" xlink:href="#DejaVuSans-61"/>
      <use x="383.642578" xlink:href="#DejaVuSans-6e"/>
      <use x="447.021484" xlink:href="#DejaVuSans-73"/>
     </g>
    </g>
    <g id="line2d_36">
     <path d="M 436.589219 105.152719 
L 458.589219 105.152719 
" style="fill:none;stroke:#3cb371;stroke-linecap:square;stroke-width:3;"/>
    </g>
    <g id="line2d_37"/>
    <g id="text_26">
     <!-- 60 ans et + -->
     <g transform="translate(464.089219 109.002719)scale(0.11 -0.11)">
      <defs>
       <path d="M 2113 2584 
Q 1688 2584 1439 2293 
Q 1191 2003 1191 1497 
Q 1191 994 1439 701 
Q 1688 409 2113 409 
Q 2538 409 2786 701 
Q 3034 994 3034 1497 
Q 3034 2003 2786 2293 
Q 2538 2584 2113 2584 
z
M 3366 4563 
L 3366 3988 
Q 3128 4100 2886 4159 
Q 2644 4219 2406 4219 
Q 1781 4219 1451 3797 
Q 1122 3375 1075 2522 
Q 1259 2794 1537 2939 
Q 1816 3084 2150 3084 
Q 2853 3084 3261 2657 
Q 3669 2231 3669 1497 
Q 3669 778 3244 343 
Q 2819 -91 2113 -91 
Q 1303 -91 875 529 
Q 447 1150 447 2328 
Q 447 3434 972 4092 
Q 1497 4750 2381 4750 
Q 2619 4750 2861 4703 
Q 3103 4656 3366 4563 
z
" id="DejaVuSans-36" transform="scale(0.015625)"/>
       <path d="M 2944 4013 
L 2944 2272 
L 4684 2272 
L 4684 1741 
L 2944 1741 
L 2944 0 
L 2419 0 
L 2419 1741 
L 678 1741 
L 678 2272 
L 2419 2272 
L 2419 4013 
L 2944 4013 
z
" id="DejaVuSans-2b" transform="scale(0.015625)"/>
      </defs>
      <use xlink:href="#DejaVuSans-36"/>
      <use x="63.623047" xlink:href="#DejaVuSans-30"/>
      <use x="127.246094" xlink:href="#DejaVuSans-20"/>
      <use x="159.033203" xlink:href="#DejaVuSans-61"/>
      <use x="220.3125" xlink:href="#DejaVuSans-6e"/>
      <use x="283.691406" xlink:href="#DejaVuSans-73"/>
      <use x="335.791016" xlink:href="#DejaVuSans-20"/>
      <use x="367.578125" xlink:href="#DejaVuSans-65"/>
      <use x="429.101562" xlink:href="#DejaVuSans-74"/>
      <use x="468.310547" xlink:href="#DejaVuSans-20"/>
      <use x="500.097656" xlink:href="#DejaVuSans-2b"/>
     </g>
    </g>
   </g>
  </g>
 </g>
 <defs>
  <clipPath id="p534e803357">
   <rect height="217.44" width="446.4" x="60.17875" y="53.420625"/>
  </clipPath>
 </defs>
</svg>
