<?xml version="1.0" encoding="utf-8" standalone="no"?>
<!DOCTYPE svg PUBLIC "-//W3C//DTD SVG 1.1//EN"
  "http://www.w3.org/Graphics/SVG/1.1/DTD/svg11.dtd">
<svg height="336.049967pt" version="1.1" viewBox="0 0 575.9925 336.049967" width="575.9925pt" xmlns="http://www.w3.org/2000/svg" xmlns:xlink="http://www.w3.org/1999/xlink">
 <metadata>
  <rdf:RDF xmlns:cc="http://creativecommons.org/ns#" xmlns:dc="http://purl.org/dc/elements/1.1/" xmlns:rdf="http://www.w3.org/1999/02/22-rdf-syntax-ns#">
   <cc:Work>
    <dc:type rdf:resource="http://purl.org/dc/dcmitype/StillImage"/>
    <dc:date>2021-06-13T09:56:27.539091</dc:date>
    <dc:format>image/svg+xml</dc:format>
    <dc:creator>
     <cc:Agent>
      <dc:title>Matplotlib v3.4.1, https://matplotlib.org/</dc:title>
     </cc:Agent>
    </dc:creator>
   </cc:Work>
  </rdf:RDF>
 </metadata>
 <defs>
  <style type="text/css">*{stroke-linecap:butt;stroke-linejoin:round;}</style>
 </defs>
 <g id="figure_1">
  <g id="patch_1">
   <path d="M 0 336.049967 
L 575.9925 336.049967 
L 575.9925 0 
L 0 0 
z
" style="fill:#ffffff;"/>
  </g>
  <g id="axes_1">
   <g id="patch_2">
    <path d="M 54.4525 270.860625 
L 500.8525 270.860625 
L 500.8525 53.420625 
L 54.4525 53.420625 
z
" style="fill:none;opacity:0;"/>
   </g>
   <g id="patch_3">
    <path clip-path="url(#pb6aada0b4f)" d="M 69.118619 270.860625 
L 69.118619 64.292625 
L 118.616771 64.292625 
L 118.616771 270.860625 
z
" style="fill:#808080;opacity:0.15;stroke:#808080;stroke-linejoin:miter;"/>
   </g>
   <g id="patch_4">
    <path clip-path="url(#pb6aada0b4f)" d="M 277.194184 270.860625 
L 277.194184 64.292625 
L 319.359276 64.292625 
L 319.359276 270.860625 
z
" style="fill:#808080;opacity:0.15;stroke:#808080;stroke-linejoin:miter;"/>
   </g>
   <g id="patch_5">
    <path clip-path="url(#pb6aada0b4f)" d="M 421.105477 270.860625 
L 421.105477 64.292625 
L 445.854553 64.292625 
L 445.854553 270.860625 
z
" style="fill:#808080;opacity:0.15;stroke:#808080;stroke-linejoin:miter;"/>
   </g>
   <g id="matplotlib.axis_1">
    <g id="xtick_1">
     <g id="line2d_1">
      <defs>
       <path d="M 0 0 
L 0 3.5 
" id="m6ae7252b57" style="stroke:#000000;stroke-width:0.8;"/>
      </defs>
      <g>
       <use style="stroke:#000000;stroke-width:0.8;" x="54.4525" xlink:href="#m6ae7252b57" y="270.860625"/>
      </g>
     </g>
     <g id="text_1">
      <!-- mars -->
      <g transform="translate(43.257895 298.726462)rotate(-45)scale(0.09 -0.09)">
       <defs>
        <path d="M 3328 2828 
Q 3544 3216 3844 3400 
Q 4144 3584 4550 3584 
Q 5097 3584 5394 3201 
Q 5691 2819 5691 2113 
L 5691 0 
L 5113 0 
L 5113 2094 
Q 5113 2597 4934 2840 
Q 4756 3084 4391 3084 
Q 3944 3084 3684 2787 
Q 3425 2491 3425 1978 
L 3425 0 
L 2847 0 
L 2847 2094 
Q 2847 2600 2669 2842 
Q 2491 3084 2119 3084 
Q 1678 3084 1418 2786 
Q 1159 2488 1159 1978 
L 1159 0 
L 581 0 
L 581 3500 
L 1159 3500 
L 1159 2956 
Q 1356 3278 1631 3431 
Q 1906 3584 2284 3584 
Q 2666 3584 2933 3390 
Q 3200 3197 3328 2828 
z
" id="DejaVuSans-6d" transform="scale(0.015625)"/>
        <path d="M 2194 1759 
Q 1497 1759 1228 1600 
Q 959 1441 959 1056 
Q 959 750 1161 570 
Q 1363 391 1709 391 
Q 2188 391 2477 730 
Q 2766 1069 2766 1631 
L 2766 1759 
L 2194 1759 
z
M 3341 1997 
L 3341 0 
L 2766 0 
L 2766 531 
Q 2569 213 2275 61 
Q 1981 -91 1556 -91 
Q 1019 -91 701 211 
Q 384 513 384 1019 
Q 384 1609 779 1909 
Q 1175 2209 1959 2209 
L 2766 2209 
L 2766 2266 
Q 2766 2663 2505 2880 
Q 2244 3097 1772 3097 
Q 1472 3097 1187 3025 
Q 903 2953 641 2809 
L 641 3341 
Q 956 3463 1253 3523 
Q 1550 3584 1831 3584 
Q 2591 3584 2966 3190 
Q 3341 2797 3341 1997 
z
" id="DejaVuSans-61" transform="scale(0.015625)"/>
        <path d="M 2631 2963 
Q 2534 3019 2420 3045 
Q 2306 3072 2169 3072 
Q 1681 3072 1420 2755 
Q 1159 2438 1159 1844 
L 1159 0 
L 581 0 
L 581 3500 
L 1159 3500 
L 1159 2956 
Q 1341 3275 1631 3429 
Q 1922 3584 2338 3584 
Q 2397 3584 2469 3576 
Q 2541 3569 2628 3553 
L 2631 2963 
z
" id="DejaVuSans-72" transform="scale(0.015625)"/>
        <path d="M 2834 3397 
L 2834 2853 
Q 2591 2978 2328 3040 
Q 2066 3103 1784 3103 
Q 1356 3103 1142 2972 
Q 928 2841 928 2578 
Q 928 2378 1081 2264 
Q 1234 2150 1697 2047 
L 1894 2003 
Q 2506 1872 2764 1633 
Q 3022 1394 3022 966 
Q 3022 478 2636 193 
Q 2250 -91 1575 -91 
Q 1294 -91 989 -36 
Q 684 19 347 128 
L 347 722 
Q 666 556 975 473 
Q 1284 391 1588 391 
Q 1994 391 2212 530 
Q 2431 669 2431 922 
Q 2431 1156 2273 1281 
Q 2116 1406 1581 1522 
L 1381 1569 
Q 847 1681 609 1914 
Q 372 2147 372 2553 
Q 372 3047 722 3315 
Q 1072 3584 1716 3584 
Q 2034 3584 2315 3537 
Q 2597 3491 2834 3397 
z
" id="DejaVuSans-73" transform="scale(0.015625)"/>
       </defs>
       <use xlink:href="#DejaVuSans-6d"/>
       <use x="97.412109" xlink:href="#DejaVuSans-61"/>
       <use x="158.691406" xlink:href="#DejaVuSans-72"/>
       <use x="199.804688" xlink:href="#DejaVuSans-73"/>
      </g>
     </g>
    </g>
    <g id="xtick_2">
     <g id="line2d_2">
      <g>
       <use style="stroke:#000000;stroke-width:0.8;" x="82.868106" xlink:href="#m6ae7252b57" y="270.860625"/>
      </g>
     </g>
     <g id="text_2">
      <!-- avril -->
      <g transform="translate(73.884977 296.514986)rotate(-45)scale(0.09 -0.09)">
       <defs>
        <path d="M 191 3500 
L 800 3500 
L 1894 563 
L 2988 3500 
L 3597 3500 
L 2284 0 
L 1503 0 
L 191 3500 
z
" id="DejaVuSans-76" transform="scale(0.015625)"/>
        <path d="M 603 3500 
L 1178 3500 
L 1178 0 
L 603 0 
L 603 3500 
z
M 603 4863 
L 1178 4863 
L 1178 4134 
L 603 4134 
L 603 4863 
z
" id="DejaVuSans-69" transform="scale(0.015625)"/>
        <path d="M 603 4863 
L 1178 4863 
L 1178 0 
L 603 0 
L 603 4863 
z
" id="DejaVuSans-6c" transform="scale(0.015625)"/>
       </defs>
       <use xlink:href="#DejaVuSans-61"/>
       <use x="61.279297" xlink:href="#DejaVuSans-76"/>
       <use x="120.458984" xlink:href="#DejaVuSans-72"/>
       <use x="161.572266" xlink:href="#DejaVuSans-69"/>
       <use x="189.355469" xlink:href="#DejaVuSans-6c"/>
      </g>
     </g>
    </g>
    <g id="xtick_3">
     <g id="line2d_3">
      <g>
       <use style="stroke:#000000;stroke-width:0.8;" x="110.367079" xlink:href="#m6ae7252b57" y="270.860625"/>
      </g>
     </g>
     <g id="text_3">
      <!-- mai -->
      <g transform="translate(103.335896 294.56304)rotate(-45)scale(0.09 -0.09)">
       <use xlink:href="#DejaVuSans-6d"/>
       <use x="97.412109" xlink:href="#DejaVuSans-61"/>
       <use x="158.691406" xlink:href="#DejaVuSans-69"/>
      </g>
     </g>
    </g>
    <g id="xtick_4">
     <g id="line2d_4">
      <g>
       <use style="stroke:#000000;stroke-width:0.8;" x="138.782685" xlink:href="#m6ae7252b57" y="270.860625"/>
      </g>
     </g>
     <g id="text_4">
      <!-- juin -->
      <g transform="translate(132.016004 294.298537)rotate(-45)scale(0.09 -0.09)">
       <defs>
        <path d="M 603 3500 
L 1178 3500 
L 1178 -63 
Q 1178 -731 923 -1031 
Q 669 -1331 103 -1331 
L -116 -1331 
L -116 -844 
L 38 -844 
Q 366 -844 484 -692 
Q 603 -541 603 -63 
L 603 3500 
z
M 603 4863 
L 1178 4863 
L 1178 4134 
L 603 4134 
L 603 4863 
z
" id="DejaVuSans-6a" transform="scale(0.015625)"/>
        <path d="M 544 1381 
L 544 3500 
L 1119 3500 
L 1119 1403 
Q 1119 906 1312 657 
Q 1506 409 1894 409 
Q 2359 409 2629 706 
Q 2900 1003 2900 1516 
L 2900 3500 
L 3475 3500 
L 3475 0 
L 2900 0 
L 2900 538 
Q 2691 219 2414 64 
Q 2138 -91 1772 -91 
Q 1169 -91 856 284 
Q 544 659 544 1381 
z
M 1991 3584 
L 1991 3584 
z
" id="DejaVuSans-75" transform="scale(0.015625)"/>
        <path d="M 3513 2113 
L 3513 0 
L 2938 0 
L 2938 2094 
Q 2938 2591 2744 2837 
Q 2550 3084 2163 3084 
Q 1697 3084 1428 2787 
Q 1159 2491 1159 1978 
L 1159 0 
L 581 0 
L 581 3500 
L 1159 3500 
L 1159 2956 
Q 1366 3272 1645 3428 
Q 1925 3584 2291 3584 
Q 2894 3584 3203 3211 
Q 3513 2838 3513 2113 
z
" id="DejaVuSans-6e" transform="scale(0.015625)"/>
       </defs>
       <use xlink:href="#DejaVuSans-6a"/>
       <use x="27.783203" xlink:href="#DejaVuSans-75"/>
       <use x="91.162109" xlink:href="#DejaVuSans-69"/>
       <use x="118.945312" xlink:href="#DejaVuSans-6e"/>
      </g>
     </g>
    </g>
    <g id="xtick_5">
     <g id="line2d_5">
      <g>
       <use style="stroke:#000000;stroke-width:0.8;" x="166.281658" xlink:href="#m6ae7252b57" y="270.860625"/>
      </g>
     </g>
     <g id="text_5">
      <!-- juil. -->
      <g transform="translate(159.757604 294.055911)rotate(-45)scale(0.09 -0.09)">
       <defs>
        <path d="M 684 794 
L 1344 794 
L 1344 0 
L 684 0 
L 684 794 
z
" id="DejaVuSans-2e" transform="scale(0.015625)"/>
       </defs>
       <use xlink:href="#DejaVuSans-6a"/>
       <use x="27.783203" xlink:href="#DejaVuSans-75"/>
       <use x="91.162109" xlink:href="#DejaVuSans-69"/>
       <use x="118.945312" xlink:href="#DejaVuSans-6c"/>
       <use x="146.728516" xlink:href="#DejaVuSans-2e"/>
      </g>
     </g>
    </g>
    <g id="xtick_6">
     <g id="line2d_6">
      <g>
       <use style="stroke:#000000;stroke-width:0.8;" x="194.697264" xlink:href="#m6ae7252b57" y="270.860625"/>
      </g>
     </g>
     <g id="text_6">
      <!-- août -->
      <g transform="translate(185.210984 297.018136)rotate(-45)scale(0.09 -0.09)">
       <defs>
        <path d="M 1959 3097 
Q 1497 3097 1228 2736 
Q 959 2375 959 1747 
Q 959 1119 1226 758 
Q 1494 397 1959 397 
Q 2419 397 2687 759 
Q 2956 1122 2956 1747 
Q 2956 2369 2687 2733 
Q 2419 3097 1959 3097 
z
M 1959 3584 
Q 2709 3584 3137 3096 
Q 3566 2609 3566 1747 
Q 3566 888 3137 398 
Q 2709 -91 1959 -91 
Q 1206 -91 779 398 
Q 353 888 353 1747 
Q 353 2609 779 3096 
Q 1206 3584 1959 3584 
z
" id="DejaVuSans-6f" transform="scale(0.015625)"/>
        <path d="M 544 1381 
L 544 3500 
L 1119 3500 
L 1119 1403 
Q 1119 906 1312 657 
Q 1506 409 1894 409 
Q 2359 409 2629 706 
Q 2900 1003 2900 1516 
L 2900 3500 
L 3475 3500 
L 3475 0 
L 2900 0 
L 2900 538 
Q 2691 219 2414 64 
Q 2138 -91 1772 -91 
Q 1169 -91 856 284 
Q 544 659 544 1381 
z
M 1991 3584 
L 1991 3584 
z
M 1753 5119 
L 2215 5119 
L 2981 3944 
L 2547 3944 
L 1984 4709 
L 1422 3944 
L 987 3944 
L 1753 5119 
z
" id="DejaVuSans-fb" transform="scale(0.015625)"/>
        <path d="M 1172 4494 
L 1172 3500 
L 2356 3500 
L 2356 3053 
L 1172 3053 
L 1172 1153 
Q 1172 725 1289 603 
Q 1406 481 1766 481 
L 2356 481 
L 2356 0 
L 1766 0 
Q 1100 0 847 248 
Q 594 497 594 1153 
L 594 3053 
L 172 3053 
L 172 3500 
L 594 3500 
L 594 4494 
L 1172 4494 
z
" id="DejaVuSans-74" transform="scale(0.015625)"/>
       </defs>
       <use xlink:href="#DejaVuSans-61"/>
       <use x="61.279297" xlink:href="#DejaVuSans-6f"/>
       <use x="122.460938" xlink:href="#DejaVuSans-fb"/>
       <use x="185.839844" xlink:href="#DejaVuSans-74"/>
      </g>
     </g>
    </g>
    <g id="xtick_7">
     <g id="line2d_7">
      <g>
       <use style="stroke:#000000;stroke-width:0.8;" x="223.11287" xlink:href="#m6ae7252b57" y="270.860625"/>
      </g>
     </g>
     <g id="text_7">
      <!-- sept. -->
      <g transform="translate(212.159896 298.484831)rotate(-45)scale(0.09 -0.09)">
       <defs>
        <path d="M 3597 1894 
L 3597 1613 
L 953 1613 
Q 991 1019 1311 708 
Q 1631 397 2203 397 
Q 2534 397 2845 478 
Q 3156 559 3463 722 
L 3463 178 
Q 3153 47 2828 -22 
Q 2503 -91 2169 -91 
Q 1331 -91 842 396 
Q 353 884 353 1716 
Q 353 2575 817 3079 
Q 1281 3584 2069 3584 
Q 2775 3584 3186 3129 
Q 3597 2675 3597 1894 
z
M 3022 2063 
Q 3016 2534 2758 2815 
Q 2500 3097 2075 3097 
Q 1594 3097 1305 2825 
Q 1016 2553 972 2059 
L 3022 2063 
z
" id="DejaVuSans-65" transform="scale(0.015625)"/>
        <path d="M 1159 525 
L 1159 -1331 
L 581 -1331 
L 581 3500 
L 1159 3500 
L 1159 2969 
Q 1341 3281 1617 3432 
Q 1894 3584 2278 3584 
Q 2916 3584 3314 3078 
Q 3713 2572 3713 1747 
Q 3713 922 3314 415 
Q 2916 -91 2278 -91 
Q 1894 -91 1617 61 
Q 1341 213 1159 525 
z
M 3116 1747 
Q 3116 2381 2855 2742 
Q 2594 3103 2138 3103 
Q 1681 3103 1420 2742 
Q 1159 2381 1159 1747 
Q 1159 1113 1420 752 
Q 1681 391 2138 391 
Q 2594 391 2855 752 
Q 3116 1113 3116 1747 
z
" id="DejaVuSans-70" transform="scale(0.015625)"/>
       </defs>
       <use xlink:href="#DejaVuSans-73"/>
       <use x="52.099609" xlink:href="#DejaVuSans-65"/>
       <use x="113.623047" xlink:href="#DejaVuSans-70"/>
       <use x="177.099609" xlink:href="#DejaVuSans-74"/>
       <use x="216.308594" xlink:href="#DejaVuSans-2e"/>
      </g>
     </g>
    </g>
    <g id="xtick_8">
     <g id="line2d_8">
      <g>
       <use style="stroke:#000000;stroke-width:0.8;" x="250.611843" xlink:href="#m6ae7252b57" y="270.860625"/>
      </g>
     </g>
     <g id="text_8">
      <!-- oct. -->
      <g transform="translate(243.536908 294.606792)rotate(-45)scale(0.09 -0.09)">
       <defs>
        <path d="M 3122 3366 
L 3122 2828 
Q 2878 2963 2633 3030 
Q 2388 3097 2138 3097 
Q 1578 3097 1268 2742 
Q 959 2388 959 1747 
Q 959 1106 1268 751 
Q 1578 397 2138 397 
Q 2388 397 2633 464 
Q 2878 531 3122 666 
L 3122 134 
Q 2881 22 2623 -34 
Q 2366 -91 2075 -91 
Q 1284 -91 818 406 
Q 353 903 353 1747 
Q 353 2603 823 3093 
Q 1294 3584 2113 3584 
Q 2378 3584 2631 3529 
Q 2884 3475 3122 3366 
z
" id="DejaVuSans-63" transform="scale(0.015625)"/>
       </defs>
       <use xlink:href="#DejaVuSans-6f"/>
       <use x="61.181641" xlink:href="#DejaVuSans-63"/>
       <use x="116.162109" xlink:href="#DejaVuSans-74"/>
       <use x="155.371094" xlink:href="#DejaVuSans-2e"/>
      </g>
     </g>
    </g>
    <g id="xtick_9">
     <g id="line2d_9">
      <g>
       <use style="stroke:#000000;stroke-width:0.8;" x="279.027449" xlink:href="#m6ae7252b57" y="270.860625"/>
      </g>
     </g>
     <g id="text_9">
      <!-- nov. -->
      <g transform="translate(270.639947 295.919359)rotate(-45)scale(0.09 -0.09)">
       <use xlink:href="#DejaVuSans-6e"/>
       <use x="63.378906" xlink:href="#DejaVuSans-6f"/>
       <use x="124.560547" xlink:href="#DejaVuSans-76"/>
       <use x="175.990234" xlink:href="#DejaVuSans-2e"/>
      </g>
     </g>
    </g>
    <g id="xtick_10">
     <g id="line2d_10">
      <g>
       <use style="stroke:#000000;stroke-width:0.8;" x="306.526422" xlink:href="#m6ae7252b57" y="270.860625"/>
      </g>
     </g>
     <g id="text_10">
      <!-- déc. -->
      <g transform="translate(297.884362 296.173917)rotate(-45)scale(0.09 -0.09)">
       <defs>
        <path d="M 2906 2969 
L 2906 4863 
L 3481 4863 
L 3481 0 
L 2906 0 
L 2906 525 
Q 2725 213 2448 61 
Q 2172 -91 1784 -91 
Q 1150 -91 751 415 
Q 353 922 353 1747 
Q 353 2572 751 3078 
Q 1150 3584 1784 3584 
Q 2172 3584 2448 3432 
Q 2725 3281 2906 2969 
z
M 947 1747 
Q 947 1113 1208 752 
Q 1469 391 1925 391 
Q 2381 391 2643 752 
Q 2906 1113 2906 1747 
Q 2906 2381 2643 2742 
Q 2381 3103 1925 3103 
Q 1469 3103 1208 2742 
Q 947 2381 947 1747 
z
" id="DejaVuSans-64" transform="scale(0.015625)"/>
        <path d="M 3597 1894 
L 3597 1613 
L 953 1613 
Q 991 1019 1311 708 
Q 1631 397 2203 397 
Q 2534 397 2845 478 
Q 3156 559 3463 722 
L 3463 178 
Q 3153 47 2828 -22 
Q 2503 -91 2169 -91 
Q 1331 -91 842 396 
Q 353 884 353 1716 
Q 353 2575 817 3079 
Q 1281 3584 2069 3584 
Q 2775 3584 3186 3129 
Q 3597 2675 3597 1894 
z
M 3022 2063 
Q 3016 2534 2758 2815 
Q 2500 3097 2075 3097 
Q 1594 3097 1305 2825 
Q 1016 2553 972 2059 
L 3022 2063 
z
M 2466 5119 
L 3088 5119 
L 2070 3944 
L 1591 3944 
L 2466 5119 
z
" id="DejaVuSans-e9" transform="scale(0.015625)"/>
       </defs>
       <use xlink:href="#DejaVuSans-64"/>
       <use x="63.476562" xlink:href="#DejaVuSans-e9"/>
       <use x="125" xlink:href="#DejaVuSans-63"/>
       <use x="179.980469" xlink:href="#DejaVuSans-2e"/>
      </g>
     </g>
    </g>
    <g id="xtick_11">
     <g id="line2d_11">
      <g>
       <use style="stroke:#000000;stroke-width:0.8;" x="334.942028" xlink:href="#m6ae7252b57" y="270.860625"/>
      </g>
     </g>
     <g id="text_11">
      <!-- janv. -->
      <g transform="translate(324.780572 297.693313)rotate(-45)scale(0.09 -0.09)">
       <use xlink:href="#DejaVuSans-6a"/>
       <use x="27.783203" xlink:href="#DejaVuSans-61"/>
       <use x="89.0625" xlink:href="#DejaVuSans-6e"/>
       <use x="152.441406" xlink:href="#DejaVuSans-76"/>
       <use x="203.871094" xlink:href="#DejaVuSans-2e"/>
      </g>
     </g>
    </g>
    <g id="xtick_12">
     <g id="line2d_12">
      <g>
       <use style="stroke:#000000;stroke-width:0.8;" x="363.357633" xlink:href="#m6ae7252b57" y="270.860625"/>
      </g>
     </g>
     <g id="text_12">
      <!-- fév. -->
      <g transform="translate(356.741103 294.148388)rotate(-45)scale(0.09 -0.09)">
       <defs>
        <path d="M 2375 4863 
L 2375 4384 
L 1825 4384 
Q 1516 4384 1395 4259 
Q 1275 4134 1275 3809 
L 1275 3500 
L 2222 3500 
L 2222 3053 
L 1275 3053 
L 1275 0 
L 697 0 
L 697 3053 
L 147 3053 
L 147 3500 
L 697 3500 
L 697 3744 
Q 697 4328 969 4595 
Q 1241 4863 1831 4863 
L 2375 4863 
z
" id="DejaVuSans-66" transform="scale(0.015625)"/>
       </defs>
       <use xlink:href="#DejaVuSans-66"/>
       <use x="35.205078" xlink:href="#DejaVuSans-e9"/>
       <use x="96.728516" xlink:href="#DejaVuSans-76"/>
       <use x="148.158203" xlink:href="#DejaVuSans-2e"/>
      </g>
     </g>
    </g>
    <g id="xtick_13">
     <g id="line2d_13">
      <g>
       <use style="stroke:#000000;stroke-width:0.8;" x="389.023342" xlink:href="#m6ae7252b57" y="270.860625"/>
      </g>
     </g>
     <g id="text_13">
      <!-- mars -->
      <g transform="translate(377.828737 298.726462)rotate(-45)scale(0.09 -0.09)">
       <use xlink:href="#DejaVuSans-6d"/>
       <use x="97.412109" xlink:href="#DejaVuSans-61"/>
       <use x="158.691406" xlink:href="#DejaVuSans-72"/>
       <use x="199.804688" xlink:href="#DejaVuSans-73"/>
      </g>
     </g>
    </g>
    <g id="xtick_14">
     <g id="line2d_14">
      <g>
       <use style="stroke:#000000;stroke-width:0.8;" x="417.438948" xlink:href="#m6ae7252b57" y="270.860625"/>
      </g>
     </g>
     <g id="text_14">
      <!-- avril -->
      <g transform="translate(408.455819 296.514986)rotate(-45)scale(0.09 -0.09)">
       <use xlink:href="#DejaVuSans-61"/>
       <use x="61.279297" xlink:href="#DejaVuSans-76"/>
       <use x="120.458984" xlink:href="#DejaVuSans-72"/>
       <use x="161.572266" xlink:href="#DejaVuSans-69"/>
       <use x="189.355469" xlink:href="#DejaVuSans-6c"/>
      </g>
     </g>
    </g>
    <g id="xtick_15">
     <g id="line2d_15">
      <g>
       <use style="stroke:#000000;stroke-width:0.8;" x="444.937921" xlink:href="#m6ae7252b57" y="270.860625"/>
      </g>
     </g>
     <g id="text_15">
      <!-- mai -->
      <g transform="translate(437.906738 294.56304)rotate(-45)scale(0.09 -0.09)">
       <use xlink:href="#DejaVuSans-6d"/>
       <use x="97.412109" xlink:href="#DejaVuSans-61"/>
       <use x="158.691406" xlink:href="#DejaVuSans-69"/>
      </g>
     </g>
    </g>
    <g id="xtick_16">
     <g id="line2d_16">
      <g>
       <use style="stroke:#000000;stroke-width:0.8;" x="473.353527" xlink:href="#m6ae7252b57" y="270.860625"/>
      </g>
     </g>
     <g id="text_16">
      <!-- juin -->
      <g transform="translate(466.586846 294.298537)rotate(-45)scale(0.09 -0.09)">
       <use xlink:href="#DejaVuSans-6a"/>
       <use x="27.783203" xlink:href="#DejaVuSans-75"/>
       <use x="91.162109" xlink:href="#DejaVuSans-69"/>
       <use x="118.945312" xlink:href="#DejaVuSans-6e"/>
      </g>
     </g>
    </g>
    <g id="xtick_17">
     <g id="line2d_17">
      <g>
       <use style="stroke:#000000;stroke-width:0.8;" x="500.8525" xlink:href="#m6ae7252b57" y="270.860625"/>
      </g>
     </g>
     <g id="text_17">
      <!-- juil. -->
      <g transform="translate(494.328446 294.055911)rotate(-45)scale(0.09 -0.09)">
       <use xlink:href="#DejaVuSans-6a"/>
       <use x="27.783203" xlink:href="#DejaVuSans-75"/>
       <use x="91.162109" xlink:href="#DejaVuSans-69"/>
       <use x="118.945312" xlink:href="#DejaVuSans-6c"/>
       <use x="146.728516" xlink:href="#DejaVuSans-2e"/>
      </g>
     </g>
    </g>
   </g>
   <g id="matplotlib.axis_2">
    <g id="ytick_1">
     <g id="line2d_18">
      <path clip-path="url(#pb6aada0b4f)" d="M 54.4525 260.506339 
L 500.8525 260.506339 
" style="fill:none;stroke:#b0b0b0;stroke-linecap:square;stroke-opacity:0.5;stroke-width:0.8;"/>
     </g>
     <g id="text_18">
      <!-- 0 -->
      <g transform="translate(41.72625 263.925636)scale(0.09 -0.09)">
       <defs>
        <path d="M 2034 4250 
Q 1547 4250 1301 3770 
Q 1056 3291 1056 2328 
Q 1056 1369 1301 889 
Q 1547 409 2034 409 
Q 2525 409 2770 889 
Q 3016 1369 3016 2328 
Q 3016 3291 2770 3770 
Q 2525 4250 2034 4250 
z
M 2034 4750 
Q 2819 4750 3233 4129 
Q 3647 3509 3647 2328 
Q 3647 1150 3233 529 
Q 2819 -91 2034 -91 
Q 1250 -91 836 529 
Q 422 1150 422 2328 
Q 422 3509 836 4129 
Q 1250 4750 2034 4750 
z
" id="DejaVuSans-30" transform="scale(0.015625)"/>
       </defs>
       <use xlink:href="#DejaVuSans-30"/>
      </g>
     </g>
    </g>
    <g id="ytick_2">
     <g id="line2d_19">
      <path clip-path="url(#pb6aada0b4f)" d="M 54.4525 225.992054 
L 500.8525 225.992054 
" style="fill:none;stroke:#b0b0b0;stroke-linecap:square;stroke-opacity:0.5;stroke-width:0.8;"/>
     </g>
     <g id="text_19">
      <!-- 10 -->
      <g transform="translate(36 229.41135)scale(0.09 -0.09)">
       <defs>
        <path d="M 794 531 
L 1825 531 
L 1825 4091 
L 703 3866 
L 703 4441 
L 1819 4666 
L 2450 4666 
L 2450 531 
L 3481 531 
L 3481 0 
L 794 0 
L 794 531 
z
" id="DejaVuSans-31" transform="scale(0.015625)"/>
       </defs>
       <use xlink:href="#DejaVuSans-31"/>
       <use x="63.623047" xlink:href="#DejaVuSans-30"/>
      </g>
     </g>
    </g>
    <g id="ytick_3">
     <g id="line2d_20">
      <path clip-path="url(#pb6aada0b4f)" d="M 54.4525 191.477768 
L 500.8525 191.477768 
" style="fill:none;stroke:#b0b0b0;stroke-linecap:square;stroke-opacity:0.5;stroke-width:0.8;"/>
     </g>
     <g id="text_20">
      <!-- 20 -->
      <g transform="translate(36 194.897065)scale(0.09 -0.09)">
       <defs>
        <path d="M 1228 531 
L 3431 531 
L 3431 0 
L 469 0 
L 469 531 
Q 828 903 1448 1529 
Q 2069 2156 2228 2338 
Q 2531 2678 2651 2914 
Q 2772 3150 2772 3378 
Q 2772 3750 2511 3984 
Q 2250 4219 1831 4219 
Q 1534 4219 1204 4116 
Q 875 4013 500 3803 
L 500 4441 
Q 881 4594 1212 4672 
Q 1544 4750 1819 4750 
Q 2544 4750 2975 4387 
Q 3406 4025 3406 3419 
Q 3406 3131 3298 2873 
Q 3191 2616 2906 2266 
Q 2828 2175 2409 1742 
Q 1991 1309 1228 531 
z
" id="DejaVuSans-32" transform="scale(0.015625)"/>
       </defs>
       <use xlink:href="#DejaVuSans-32"/>
       <use x="63.623047" xlink:href="#DejaVuSans-30"/>
      </g>
     </g>
    </g>
    <g id="ytick_4">
     <g id="line2d_21">
      <path clip-path="url(#pb6aada0b4f)" d="M 54.4525 156.963482 
L 500.8525 156.963482 
" style="fill:none;stroke:#b0b0b0;stroke-linecap:square;stroke-opacity:0.5;stroke-width:0.8;"/>
     </g>
     <g id="text_21">
      <!-- 30 -->
      <g transform="translate(36 160.382779)scale(0.09 -0.09)">
       <defs>
        <path d="M 2597 2516 
Q 3050 2419 3304 2112 
Q 3559 1806 3559 1356 
Q 3559 666 3084 287 
Q 2609 -91 1734 -91 
Q 1441 -91 1130 -33 
Q 819 25 488 141 
L 488 750 
Q 750 597 1062 519 
Q 1375 441 1716 441 
Q 2309 441 2620 675 
Q 2931 909 2931 1356 
Q 2931 1769 2642 2001 
Q 2353 2234 1838 2234 
L 1294 2234 
L 1294 2753 
L 1863 2753 
Q 2328 2753 2575 2939 
Q 2822 3125 2822 3475 
Q 2822 3834 2567 4026 
Q 2313 4219 1838 4219 
Q 1578 4219 1281 4162 
Q 984 4106 628 3988 
L 628 4550 
Q 988 4650 1302 4700 
Q 1616 4750 1894 4750 
Q 2613 4750 3031 4423 
Q 3450 4097 3450 3541 
Q 3450 3153 3228 2886 
Q 3006 2619 2597 2516 
z
" id="DejaVuSans-33" transform="scale(0.015625)"/>
       </defs>
       <use xlink:href="#DejaVuSans-33"/>
       <use x="63.623047" xlink:href="#DejaVuSans-30"/>
      </g>
     </g>
    </g>
    <g id="ytick_5">
     <g id="line2d_22">
      <path clip-path="url(#pb6aada0b4f)" d="M 54.4525 122.449196 
L 500.8525 122.449196 
" style="fill:none;stroke:#b0b0b0;stroke-linecap:square;stroke-opacity:0.5;stroke-width:0.8;"/>
     </g>
     <g id="text_22">
      <!-- 40 -->
      <g transform="translate(36 125.868493)scale(0.09 -0.09)">
       <defs>
        <path d="M 2419 4116 
L 825 1625 
L 2419 1625 
L 2419 4116 
z
M 2253 4666 
L 3047 4666 
L 3047 1625 
L 3713 1625 
L 3713 1100 
L 3047 1100 
L 3047 0 
L 2419 0 
L 2419 1100 
L 313 1100 
L 313 1709 
L 2253 4666 
z
" id="DejaVuSans-34" transform="scale(0.015625)"/>
       </defs>
       <use xlink:href="#DejaVuSans-34"/>
       <use x="63.623047" xlink:href="#DejaVuSans-30"/>
      </g>
     </g>
    </g>
    <g id="ytick_6">
     <g id="line2d_23">
      <path clip-path="url(#pb6aada0b4f)" d="M 54.4525 87.934911 
L 500.8525 87.934911 
" style="fill:none;stroke:#b0b0b0;stroke-linecap:square;stroke-opacity:0.5;stroke-width:0.8;"/>
     </g>
     <g id="text_23">
      <!-- 50 -->
      <g transform="translate(36 91.354208)scale(0.09 -0.09)">
       <defs>
        <path d="M 691 4666 
L 3169 4666 
L 3169 4134 
L 1269 4134 
L 1269 2991 
Q 1406 3038 1543 3061 
Q 1681 3084 1819 3084 
Q 2600 3084 3056 2656 
Q 3513 2228 3513 1497 
Q 3513 744 3044 326 
Q 2575 -91 1722 -91 
Q 1428 -91 1123 -41 
Q 819 9 494 109 
L 494 744 
Q 775 591 1075 516 
Q 1375 441 1709 441 
Q 2250 441 2565 725 
Q 2881 1009 2881 1497 
Q 2881 1984 2565 2268 
Q 2250 2553 1709 2553 
Q 1456 2553 1204 2497 
Q 953 2441 691 2322 
L 691 4666 
z
" id="DejaVuSans-35" transform="scale(0.015625)"/>
       </defs>
       <use xlink:href="#DejaVuSans-35"/>
       <use x="63.623047" xlink:href="#DejaVuSans-30"/>
      </g>
     </g>
    </g>
    <g id="ytick_7">
     <g id="line2d_24">
      <path clip-path="url(#pb6aada0b4f)" d="M 54.4525 243.249196 
L 500.8525 243.249196 
" style="fill:none;stroke:#b0b0b0;stroke-linecap:square;stroke-opacity:0.2;stroke-width:0.8;"/>
     </g>
    </g>
    <g id="ytick_8">
     <g id="line2d_25">
      <path clip-path="url(#pb6aada0b4f)" d="M 54.4525 208.734911 
L 500.8525 208.734911 
" style="fill:none;stroke:#b0b0b0;stroke-linecap:square;stroke-opacity:0.2;stroke-width:0.8;"/>
     </g>
    </g>
    <g id="ytick_9">
     <g id="line2d_26">
      <path clip-path="url(#pb6aada0b4f)" d="M 54.4525 174.220625 
L 500.8525 174.220625 
" style="fill:none;stroke:#b0b0b0;stroke-linecap:square;stroke-opacity:0.2;stroke-width:0.8;"/>
     </g>
    </g>
    <g id="ytick_10">
     <g id="line2d_27">
      <path clip-path="url(#pb6aada0b4f)" d="M 54.4525 139.706339 
L 500.8525 139.706339 
" style="fill:none;stroke:#b0b0b0;stroke-linecap:square;stroke-opacity:0.2;stroke-width:0.8;"/>
     </g>
    </g>
    <g id="ytick_11">
     <g id="line2d_28">
      <path clip-path="url(#pb6aada0b4f)" d="M 54.4525 105.192054 
L 500.8525 105.192054 
" style="fill:none;stroke:#b0b0b0;stroke-linecap:square;stroke-opacity:0.2;stroke-width:0.8;"/>
     </g>
    </g>
    <g id="ytick_12">
     <g id="line2d_29">
      <path clip-path="url(#pb6aada0b4f)" d="M 54.4525 70.677768 
L 500.8525 70.677768 
" style="fill:none;stroke:#b0b0b0;stroke-linecap:square;stroke-opacity:0.2;stroke-width:0.8;"/>
     </g>
    </g>
   </g>
   <g id="line2d_30">
    <path clip-path="url(#pb6aada0b4f)" d="M 54.4525 249.617743 
L 500.8525 249.617743 
" style="fill:none;stroke:#e9967a;stroke-linecap:square;stroke-width:0.8;"/>
   </g>
   <g id="line2d_31">
    <path clip-path="url(#pb6aada0b4f)" d="M 70.035252 260.140908 
L 70.951884 260.323624 
L 81.034841 260.323624 
L 81.951473 260.140908 
L 82.868106 260.140908 
L 83.784738 260.323624 
L 86.534636 260.323624 
L 88.3679 259.958193 
L 89.284533 259.958193 
L 90.201165 259.775477 
L 91.117798 259.958193 
L 92.03443 259.958193 
L 92.951063 260.140908 
L 96.617592 260.140908 
L 97.534225 259.958193 
L 99.36749 259.958193 
L 100.284122 259.775477 
L 101.200755 259.775477 
L 102.117387 259.958193 
L 103.03402 259.775477 
L 103.950652 259.958193 
L 106.700549 259.958193 
L 107.617182 260.140908 
L 114.033609 260.140908 
L 114.950241 260.323624 
L 118.616771 260.323624 
L 119.533403 260.140908 
L 120.450036 260.140908 
L 122.283301 260.506339 
L 133.28289 260.506339 
L 134.199523 260.323624 
L 141.532582 260.323624 
L 142.449215 260.506339 
L 163.531761 260.506339 
L 164.448393 260.323624 
L 167.198291 260.323624 
L 168.114923 260.506339 
L 178.19788 260.506339 
L 179.114512 260.323624 
L 186.447572 260.323624 
L 187.364204 260.506339 
L 202.030323 260.506339 
L 203.863588 260.140908 
L 204.780221 260.140908 
L 205.696853 260.323624 
L 206.613486 260.323624 
L 207.530118 260.506339 
L 220.362972 260.506339 
L 221.279605 260.323624 
L 222.196237 260.323624 
L 223.11287 260.506339 
L 224.029502 260.506339 
L 225.862767 260.140908 
L 227.696032 260.140908 
L 228.612664 259.958193 
L 229.529297 260.140908 
L 233.195826 260.140908 
L 234.112459 259.958193 
L 235.945724 259.958193 
L 236.862356 259.775477 
L 237.778989 260.140908 
L 239.612254 259.775477 
L 241.445518 260.140908 
L 243.278783 260.140908 
L 245.112048 259.775477 
L 246.028681 259.775477 
L 246.945313 259.958193 
L 247.861946 259.958193 
L 248.778578 259.775477 
L 249.69521 260.140908 
L 250.611843 259.958193 
L 252.445108 259.958193 
L 253.36174 259.775477 
L 254.278373 259.958193 
L 255.195005 259.958193 
L 256.111638 260.140908 
L 257.02827 260.140908 
L 257.944902 260.323624 
L 265.277962 260.323624 
L 266.194594 260.140908 
L 267.111227 260.140908 
L 268.027859 260.323624 
L 272.611022 260.323624 
L 273.527654 260.506339 
L 275.360919 260.506339 
L 277.194184 260.140908 
L 278.110816 260.506339 
L 279.944081 260.140908 
L 283.610611 260.140908 
L 284.527243 259.958193 
L 288.193773 259.958193 
L 289.110406 260.140908 
L 290.027038 260.140908 
L 290.94367 260.323624 
L 295.526833 260.323624 
L 296.443465 260.506339 
L 303.776525 260.506339 
L 304.693157 260.323624 
L 306.526422 260.323624 
L 307.443054 260.506339 
L 317.526011 260.506339 
L 318.442644 260.323624 
L 319.359276 260.323624 
L 320.275909 260.140908 
L 322.109174 260.140908 
L 323.025806 259.958193 
L 323.942438 259.958193 
L 325.775703 260.323624 
L 326.692336 260.323624 
L 327.608968 260.506339 
L 332.19213 260.506339 
L 333.108763 260.323624 
L 336.775293 260.323624 
L 337.691925 260.506339 
L 338.608557 260.506339 
L 339.52519 260.323624 
L 340.441822 260.323624 
L 341.358455 260.506339 
L 342.275087 260.323624 
L 345.024985 260.323624 
L 345.941617 260.506339 
L 346.858249 260.506339 
L 347.774882 260.323624 
L 349.608147 260.323624 
L 350.524779 260.140908 
L 351.441412 260.323624 
L 352.358044 260.140908 
L 356.941206 260.140908 
L 357.857839 259.775477 
L 358.774471 259.958193 
L 362.441001 259.958193 
L 363.357633 259.775477 
L 364.274266 259.410046 
L 366.107531 259.775477 
L 367.024163 259.775477 
L 367.940796 259.958193 
L 371.607325 259.958193 
L 372.523958 259.775477 
L 375.273855 259.775477 
L 376.190488 259.958193 
L 377.10712 260.323624 
L 378.023753 260.140908 
L 378.940385 260.140908 
L 379.857017 259.958193 
L 380.77365 259.592762 
L 381.690282 259.592762 
L 382.606915 259.410046 
L 383.523547 259.410046 
L 384.44018 259.592762 
L 386.273445 259.592762 
L 387.190077 259.775477 
L 389.023342 259.775477 
L 389.939974 259.958193 
L 394.523137 259.958193 
L 395.439769 259.775477 
L 399.106299 259.775477 
L 400.022931 259.958193 
L 400.939564 259.958193 
L 401.856196 260.140908 
L 402.772829 260.140908 
L 403.689461 259.958193 
L 405.522726 259.958193 
L 406.439358 259.775477 
L 408.272623 260.140908 
L 411.022521 260.140908 
L 411.939153 259.958193 
L 413.772418 259.958193 
L 414.68905 259.775477 
L 415.605683 259.410046 
L 416.522315 259.775477 
L 417.438948 259.775477 
L 418.35558 259.592762 
L 419.272213 259.775477 
L 421.105477 259.775477 
L 422.02211 259.592762 
L 422.938742 259.958193 
L 423.855375 259.410046 
L 425.68864 259.410046 
L 428.438537 259.958193 
L 429.355169 259.775477 
L 431.188434 259.775477 
L 432.105067 259.958193 
L 433.021699 259.958193 
L 433.938332 259.775477 
L 435.771597 259.775477 
L 437.604861 259.410046 
L 438.521494 259.410046 
L 439.438126 259.592762 
L 440.354759 259.592762 
L 442.188024 259.958193 
L 445.854553 259.958193 
L 446.771186 259.775477 
L 452.27098 259.775477 
L 454.104245 259.410046 
L 455.93751 259.410046 
L 456.854143 259.592762 
L 457.770775 259.958193 
L 459.60404 259.958193 
L 460.520672 260.140908 
L 461.437305 259.958193 
L 462.353937 259.592762 
L 463.27057 259.592762 
L 464.187202 259.775477 
L 466.020467 259.775477 
L 466.9371 259.592762 
L 468.770364 259.958193 
L 469.686997 259.775477 
L 471.520262 259.775477 
L 472.436894 259.958193 
L 473.353527 260.323624 
L 475.186792 260.323624 
L 476.103424 260.140908 
L 477.020056 260.323624 
L 477.936689 260.323624 
L 478.853321 260.506339 
L 479.769954 260.506339 
L 480.686586 260.323624 
L 482.519851 260.323624 
L 483.436484 260.506339 
L 483.436484 260.506339 
" style="fill:none;stroke:#b22222;stroke-linecap:square;"/>
   </g>
   <g id="line2d_32">
    <path clip-path="url(#pb6aada0b4f)" d="M 70.035252 260.198294 
L 70.951884 260.044271 
L 71.868516 260.044271 
L 72.785149 259.274158 
L 73.701781 258.658068 
L 74.618414 258.350022 
L 75.535046 257.117841 
L 76.451679 257.117841 
L 78.284944 254.807502 
L 79.201576 254.345434 
L 80.118208 252.34314 
L 81.034841 251.573026 
L 81.951473 251.110958 
L 82.868106 251.110958 
L 83.784738 251.264981 
L 84.701371 250.956936 
L 86.534636 250.648891 
L 87.451268 250.186823 
L 88.3679 250.956936 
L 91.117798 250.956936 
L 92.03443 249.416709 
L 92.951063 249.570732 
L 93.867695 249.416709 
L 94.784328 249.878777 
L 96.617592 251.727049 
L 97.534225 253.113253 
L 98.450857 253.575321 
L 99.36749 253.267275 
L 100.284122 253.267275 
L 101.200755 253.421298 
L 102.117387 254.499456 
L 103.03402 254.653479 
L 103.950652 255.423592 
L 104.867284 256.039683 
L 105.783917 256.039683 
L 106.700549 256.347728 
L 107.617182 256.347728 
L 108.533814 256.655773 
L 109.450447 256.655773 
L 110.367079 256.347728 
L 112.200344 256.347728 
L 113.116976 256.655773 
L 114.033609 256.809796 
L 114.950241 257.425887 
L 115.866874 257.579909 
L 117.700139 257.579909 
L 118.616771 257.733932 
L 119.533403 257.733932 
L 120.450036 257.887954 
L 121.366668 257.887954 
L 122.283301 258.041977 
L 123.199933 258.350022 
L 125.033198 258.350022 
L 128.699728 258.966113 
L 129.61636 258.81209 
L 134.199523 258.81209 
L 135.116155 258.966113 
L 136.032787 259.274158 
L 138.782685 259.274158 
L 139.699317 259.890249 
L 140.61595 260.044271 
L 141.532582 259.890249 
L 142.449215 259.890249 
L 143.365847 260.044271 
L 146.115744 260.044271 
L 147.032377 259.890249 
L 147.949009 260.044271 
L 151.615539 260.044271 
L 152.532171 260.198294 
L 161.698496 260.198294 
L 162.615128 260.352317 
L 179.114512 260.352317 
L 180.031145 260.506339 
L 182.781042 260.506339 
L 183.697675 260.198294 
L 191.947367 260.198294 
L 192.863999 260.352317 
L 193.780631 260.352317 
L 194.697264 260.198294 
L 196.530529 260.198294 
L 197.447161 260.352317 
L 202.030323 260.352317 
L 202.946956 260.198294 
L 203.863588 260.198294 
L 204.780221 260.044271 
L 205.696853 260.198294 
L 210.280015 260.198294 
L 211.196648 259.890249 
L 212.11328 259.890249 
L 213.029913 259.582203 
L 215.77981 259.582203 
L 216.696443 260.044271 
L 218.529707 260.044271 
L 219.44634 260.198294 
L 220.362972 260.198294 
L 221.279605 260.352317 
L 222.196237 260.198294 
L 224.029502 260.198294 
L 224.946134 260.044271 
L 225.862767 260.044271 
L 226.779399 259.890249 
L 228.612664 259.890249 
L 229.529297 260.044271 
L 230.445929 259.582203 
L 231.362562 259.582203 
L 232.279194 259.274158 
L 233.195826 259.120136 
L 235.945724 259.582203 
L 236.862356 259.582203 
L 237.778989 259.736226 
L 238.695621 259.120136 
L 239.612254 258.966113 
L 240.528886 258.966113 
L 241.445518 258.81209 
L 242.362151 258.504045 
L 243.278783 258.504045 
L 244.195416 258.350022 
L 245.112048 258.658068 
L 246.945313 258.658068 
L 247.861946 258.81209 
L 248.778578 258.658068 
L 249.69521 258.81209 
L 251.528475 258.504045 
L 252.445108 258.196 
L 253.36174 258.350022 
L 254.278373 257.733932 
L 256.111638 257.733932 
L 257.02827 257.887954 
L 257.944902 258.196 
L 258.861535 258.196 
L 260.6948 257.887954 
L 261.611432 258.196 
L 262.528065 258.350022 
L 263.444697 258.350022 
L 264.36133 258.041977 
L 265.277962 258.196 
L 267.111227 257.887954 
L 268.027859 257.887954 
L 269.861124 257.271864 
L 270.777757 257.425887 
L 271.694389 257.117841 
L 272.611022 257.271864 
L 273.527654 257.117841 
L 274.444286 256.655773 
L 275.360919 256.501751 
L 276.277551 255.88566 
L 277.194184 255.731638 
L 278.110816 255.88566 
L 279.027449 255.423592 
L 280.860714 255.115547 
L 282.693978 254.191411 
L 283.610611 254.037389 
L 284.527243 254.653479 
L 285.443876 255.115547 
L 286.360508 254.499456 
L 287.277141 254.807502 
L 288.193773 254.499456 
L 289.110406 253.575321 
L 290.027038 252.95923 
L 290.94367 253.575321 
L 291.860303 253.883366 
L 292.776935 253.575321 
L 293.693568 253.729343 
L 294.6102 254.191411 
L 295.526833 254.191411 
L 296.443465 254.499456 
L 298.27673 255.423592 
L 299.193362 255.423592 
L 300.109995 255.577615 
L 301.026627 256.039683 
L 301.94326 255.88566 
L 303.776525 256.501751 
L 305.60979 256.501751 
L 306.526422 257.117841 
L 307.443054 257.579909 
L 308.359687 257.579909 
L 309.276319 257.117841 
L 310.192952 257.425887 
L 311.109584 257.117841 
L 312.026217 257.425887 
L 312.942849 257.579909 
L 313.859482 257.271864 
L 314.776114 257.117841 
L 317.526011 257.117841 
L 318.442644 256.963819 
L 319.359276 257.271864 
L 320.275909 256.963819 
L 322.109174 256.963819 
L 323.025806 257.271864 
L 323.942438 256.809796 
L 324.859071 256.655773 
L 325.775703 257.579909 
L 326.692336 257.887954 
L 328.525601 257.887954 
L 329.442233 258.041977 
L 330.358866 257.733932 
L 331.275498 256.963819 
L 332.19213 257.271864 
L 333.108763 257.117841 
L 334.025395 257.117841 
L 334.942028 257.579909 
L 335.85866 257.887954 
L 337.691925 257.887954 
L 338.608557 258.041977 
L 339.52519 257.425887 
L 340.441822 256.963819 
L 341.358455 256.963819 
L 342.275087 257.117841 
L 343.19172 257.579909 
L 344.108352 257.733932 
L 345.941617 257.733932 
L 346.858249 257.425887 
L 347.774882 257.425887 
L 348.691514 257.579909 
L 349.608147 257.579909 
L 350.524779 257.117841 
L 351.441412 257.117841 
L 353.274677 256.501751 
L 355.107941 254.961524 
L 356.024574 254.807502 
L 356.941206 254.961524 
L 357.857839 254.191411 
L 358.774471 252.805207 
L 359.691104 253.575321 
L 360.607736 253.421298 
L 362.441001 254.345434 
L 363.357633 254.653479 
L 364.274266 254.499456 
L 365.190898 255.115547 
L 367.024163 255.115547 
L 368.857428 254.807502 
L 369.774061 255.115547 
L 370.690693 255.26957 
L 372.523958 254.961524 
L 373.44059 254.961524 
L 374.357223 254.807502 
L 375.273855 254.499456 
L 376.190488 254.345434 
L 377.10712 254.961524 
L 378.023753 255.423592 
L 378.940385 254.807502 
L 379.857017 255.115547 
L 380.77365 255.26957 
L 381.690282 255.115547 
L 382.606915 255.26957 
L 383.523547 255.26957 
L 384.44018 255.115547 
L 385.356812 256.039683 
L 386.273445 255.577615 
L 387.190077 255.423592 
L 388.106709 255.423592 
L 389.023342 254.653479 
L 389.939974 254.653479 
L 390.856607 254.961524 
L 391.773239 254.499456 
L 392.689872 254.653479 
L 393.606504 255.423592 
L 394.523137 255.26957 
L 395.439769 254.653479 
L 396.356401 254.653479 
L 397.273034 254.961524 
L 398.189666 254.345434 
L 399.106299 254.345434 
L 400.022931 254.499456 
L 400.939564 254.345434 
L 401.856196 254.345434 
L 402.772829 254.961524 
L 403.689461 254.499456 
L 404.606093 254.499456 
L 406.439358 254.807502 
L 407.355991 254.653479 
L 408.272623 255.115547 
L 409.189256 255.26957 
L 410.105888 255.115547 
L 411.022521 255.423592 
L 411.939153 254.961524 
L 412.855785 255.423592 
L 413.772418 254.961524 
L 414.68905 254.345434 
L 415.605683 253.113253 
L 416.522315 253.421298 
L 417.438948 253.113253 
L 418.35558 252.651185 
L 419.272213 252.95923 
L 420.188845 252.497162 
L 421.105477 252.189117 
L 422.02211 250.648891 
L 422.938742 250.186823 
L 423.855375 250.648891 
L 424.772007 249.724755 
L 427.521905 249.262687 
L 428.438537 249.878777 
L 429.355169 250.0328 
L 430.271802 249.570732 
L 431.188434 249.878777 
L 432.105067 250.340845 
L 433.021699 249.724755 
L 433.938332 249.724755 
L 434.854964 249.878777 
L 435.771597 249.416709 
L 436.688229 248.646596 
L 437.604861 248.646596 
L 438.521494 248.338551 
L 439.438126 247.260393 
L 440.354759 246.644302 
L 441.271391 246.798325 
L 442.188024 246.336257 
L 444.021289 248.492574 
L 444.937921 248.800619 
L 445.854553 249.416709 
L 446.771186 248.492574 
L 447.687818 249.416709 
L 448.604451 249.108664 
L 449.521083 249.724755 
L 450.437716 249.878777 
L 451.354348 249.416709 
L 453.187613 249.416709 
L 455.020878 250.340845 
L 455.93751 250.648891 
L 456.854143 250.648891 
L 457.770775 251.110958 
L 458.687408 250.648891 
L 459.60404 250.956936 
L 461.437305 252.651185 
L 462.353937 252.805207 
L 464.187202 254.037389 
L 465.103835 253.729343 
L 466.020467 253.729343 
L 466.9371 253.883366 
L 467.853732 253.575321 
L 468.770364 253.729343 
L 469.686997 253.575321 
L 470.603629 254.037389 
L 471.520262 254.191411 
L 472.436894 253.883366 
L 473.353527 254.037389 
L 475.186792 254.653479 
L 476.103424 254.345434 
L 477.020056 254.499456 
L 478.853321 254.499456 
L 479.769954 254.653479 
L 480.686586 254.499456 
L 481.603219 255.115547 
L 482.519851 255.115547 
L 483.436484 255.26957 
L 483.436484 255.26957 
" style="fill:none;stroke:#000000;stroke-linecap:square;stroke-width:1.5;"/>
   </g>
   <g id="line2d_33">
    <path clip-path="url(#pb6aada0b4f)" d="M 70.035252 259.029919 
L 70.951884 259.029919 
L 71.868516 258.476262 
L 72.785149 256.261632 
L 74.618414 254.785212 
L 75.535046 252.38603 
L 76.451679 251.278715 
L 77.368311 249.064085 
L 78.284944 246.480351 
L 79.201576 245.003931 
L 80.118208 241.312881 
L 81.951473 235.038097 
L 82.868106 232.823467 
L 83.784738 231.347047 
L 84.701371 230.977942 
L 85.618003 228.57876 
L 86.534636 228.025102 
L 88.3679 228.025102 
L 89.284533 228.209655 
L 90.201165 228.57876 
L 91.117798 230.424284 
L 92.03443 225.810472 
L 92.951063 226.733235 
L 93.867695 226.548682 
L 94.784328 227.286892 
L 98.450857 233.746229 
L 99.36749 233.561677 
L 100.284122 234.668992 
L 101.200755 236.145411 
L 102.117387 238.544594 
L 103.03402 239.467356 
L 103.950652 240.574671 
L 104.867284 241.866538 
L 105.783917 241.681986 
L 106.700549 242.420196 
L 107.617182 243.342958 
L 108.533814 243.896616 
L 109.450447 245.003931 
L 111.283711 245.742141 
L 112.200344 245.742141 
L 113.116976 246.480351 
L 114.033609 246.480351 
L 114.950241 247.403113 
L 115.866874 248.510428 
L 116.783506 248.69498 
L 118.616771 248.325875 
L 119.533403 248.69498 
L 120.450036 250.1714 
L 121.366668 250.355953 
L 122.283301 250.90961 
L 123.199933 250.90961 
L 124.116566 251.278715 
L 125.033198 251.463268 
L 125.949831 251.463268 
L 126.866463 250.90961 
L 127.783095 251.832373 
L 128.699728 252.016925 
L 129.61636 252.016925 
L 130.532993 252.201478 
L 131.449625 252.016925 
L 132.366258 252.570582 
L 133.28289 253.677897 
L 135.116155 254.785212 
L 136.032787 254.969765 
L 136.94942 255.33887 
L 137.866052 255.33887 
L 138.782685 255.523422 
L 139.699317 255.523422 
L 140.61595 256.07708 
L 141.532582 256.07708 
L 142.449215 256.261632 
L 143.365847 256.630737 
L 144.282479 256.630737 
L 145.199112 257.184395 
L 146.115744 257.5535 
L 147.032377 257.738052 
L 152.532171 257.738052 
L 153.448804 257.922605 
L 157.115334 257.922605 
L 158.031966 258.291709 
L 159.865231 258.291709 
L 162.615128 258.845367 
L 163.531761 258.845367 
L 164.448393 258.660814 
L 166.281658 258.660814 
L 168.114923 259.029919 
L 178.19788 259.029919 
L 180.031145 258.660814 
L 182.781042 258.660814 
L 183.697675 258.107157 
L 184.614307 258.845367 
L 185.530939 258.845367 
L 186.447572 259.029919 
L 189.197469 259.029919 
L 190.114102 259.214472 
L 191.030734 259.214472 
L 191.947367 258.845367 
L 196.530529 258.845367 
L 197.447161 259.214472 
L 198.363794 259.029919 
L 199.280426 259.029919 
L 200.197059 259.214472 
L 202.030323 259.214472 
L 202.946956 259.399024 
L 203.863588 259.214472 
L 204.780221 259.399024 
L 208.446751 259.399024 
L 209.363383 259.214472 
L 211.196648 259.583577 
L 213.029913 259.583577 
L 213.946545 259.399024 
L 214.863178 259.399024 
L 215.77981 259.029919 
L 216.696443 258.845367 
L 217.613075 259.029919 
L 218.529707 258.845367 
L 221.279605 258.845367 
L 222.196237 259.029919 
L 223.11287 258.476262 
L 224.029502 258.476262 
L 224.946134 257.738052 
L 225.862767 257.368947 
L 226.779399 257.184395 
L 227.696032 257.184395 
L 228.612664 256.81529 
L 229.529297 256.261632 
L 231.362562 255.523422 
L 233.195826 255.154317 
L 234.112459 255.154317 
L 235.029091 254.785212 
L 235.945724 254.231555 
L 236.862356 253.86245 
L 237.778989 254.231555 
L 238.695621 253.86245 
L 239.612254 253.677897 
L 240.528886 253.86245 
L 242.362151 253.12424 
L 243.278783 253.12424 
L 244.195416 252.38603 
L 245.112048 252.570582 
L 246.945313 253.308792 
L 247.861946 252.939687 
L 250.611843 252.38603 
L 251.528475 253.677897 
L 252.445108 253.493345 
L 253.36174 251.832373 
L 254.278373 251.463268 
L 255.195005 251.463268 
L 256.111638 251.832373 
L 257.02827 251.832373 
L 258.861535 252.570582 
L 259.778167 252.570582 
L 260.6948 252.38603 
L 261.611432 251.832373 
L 262.528065 251.832373 
L 264.36133 251.094163 
L 265.277962 251.278715 
L 266.194594 251.64782 
L 267.111227 250.90961 
L 268.027859 250.90961 
L 269.861124 249.064085 
L 270.777757 248.510428 
L 271.694389 248.510428 
L 272.611022 247.772218 
L 273.527654 246.664903 
L 274.444286 243.342958 
L 275.360919 242.973853 
L 277.194184 240.574671 
L 278.110816 238.729146 
L 279.027449 237.437279 
L 279.944081 235.776306 
L 280.860714 232.823467 
L 281.777346 231.347047 
L 282.693978 231.531599 
L 283.610611 229.870627 
L 284.527243 228.763312 
L 285.443876 227.84055 
L 286.360508 225.62592 
L 287.277141 224.88771 
L 288.193773 223.226738 
L 289.110406 222.857633 
L 290.027038 222.67308 
L 290.94367 223.780395 
L 291.860303 221.012108 
L 292.776935 219.72024 
L 293.693568 218.059268 
L 294.6102 218.98203 
L 295.526833 218.797478 
L 296.443465 217.505611 
L 297.360098 219.535688 
L 298.27673 219.351135 
L 299.193362 219.535688 
L 300.109995 221.750318 
L 301.026627 222.67308 
L 301.94326 225.810472 
L 302.859892 226.917787 
L 303.776525 228.57876 
L 304.693157 229.31697 
L 305.60979 228.57876 
L 306.526422 230.793389 
L 307.443054 232.454362 
L 308.359687 233.008019 
L 309.276319 234.115334 
L 310.192952 234.299887 
L 311.109584 232.638914 
L 312.026217 235.038097 
L 313.859482 235.407202 
L 314.776114 235.960859 
L 315.692746 235.038097 
L 316.609379 235.776306 
L 317.526011 235.960859 
L 318.442644 235.222649 
L 320.275909 234.853544 
L 321.192541 235.407202 
L 322.109174 235.776306 
L 323.025806 237.437279 
L 324.859071 237.437279 
L 325.775703 236.329964 
L 326.692336 236.145411 
L 327.608968 236.329964 
L 329.442233 235.960859 
L 330.358866 236.145411 
L 331.275498 235.960859 
L 332.19213 234.668992 
L 333.108763 236.329964 
L 334.025395 237.068174 
L 334.942028 236.699069 
L 335.85866 237.252726 
L 336.775293 236.883621 
L 337.691925 237.990936 
L 338.608557 237.621831 
L 339.52519 237.806384 
L 340.441822 238.544594 
L 341.358455 239.098251 
L 342.275087 237.252726 
L 343.19172 235.960859 
L 345.024985 235.960859 
L 345.941617 236.699069 
L 346.858249 236.145411 
L 347.774882 235.776306 
L 348.691514 236.145411 
L 349.608147 234.299887 
L 350.524779 234.668992 
L 351.441412 233.192572 
L 352.358044 233.008019 
L 353.274677 232.638914 
L 354.191309 233.008019 
L 356.941206 231.900704 
L 357.857839 231.347047 
L 358.774471 232.638914 
L 359.691104 231.716152 
L 360.607736 232.085257 
L 361.524369 230.977942 
L 362.441001 230.977942 
L 363.357633 229.132417 
L 364.274266 227.84055 
L 365.190898 226.917787 
L 366.107531 228.57876 
L 367.024163 228.57876 
L 367.940796 229.501522 
L 368.857428 228.57876 
L 370.690693 227.84055 
L 371.607325 228.394207 
L 372.523958 228.57876 
L 373.44059 230.239732 
L 374.357223 230.977942 
L 375.273855 230.977942 
L 376.190488 232.085257 
L 377.10712 232.823467 
L 378.023753 233.930782 
L 378.940385 233.192572 
L 379.857017 234.299887 
L 380.77365 235.038097 
L 381.690282 234.668992 
L 382.606915 235.776306 
L 383.523547 235.591754 
L 384.44018 237.068174 
L 385.356812 237.621831 
L 386.273445 237.621831 
L 387.190077 238.544594 
L 388.106709 238.729146 
L 389.023342 237.068174 
L 389.939974 235.960859 
L 390.856607 234.668992 
L 391.773239 234.668992 
L 392.689872 234.853544 
L 393.606504 235.222649 
L 395.439769 233.377124 
L 396.356401 232.269809 
L 397.273034 233.192572 
L 398.189666 232.269809 
L 399.106299 233.930782 
L 400.022931 233.192572 
L 401.856196 231.347047 
L 402.772829 232.085257 
L 403.689461 232.454362 
L 404.606093 231.900704 
L 405.522726 232.269809 
L 406.439358 232.085257 
L 407.355991 231.162494 
L 408.272623 230.424284 
L 409.189256 229.870627 
L 410.105888 229.132417 
L 411.022521 230.239732 
L 411.939153 230.05518 
L 412.855785 231.347047 
L 413.772418 231.162494 
L 414.68905 230.608837 
L 415.605683 230.793389 
L 416.522315 230.793389 
L 417.438948 229.31697 
L 418.35558 229.501522 
L 419.272213 229.132417 
L 420.188845 228.209655 
L 421.105477 228.209655 
L 422.02211 227.286892 
L 422.938742 226.548682 
L 423.855375 227.655997 
L 424.772007 227.84055 
L 425.68864 228.394207 
L 426.605272 228.209655 
L 427.521905 227.10234 
L 428.438537 225.256815 
L 429.355169 227.471445 
L 430.271802 227.10234 
L 431.188434 226.36413 
L 432.105067 226.36413 
L 433.021699 226.548682 
L 433.938332 225.810472 
L 434.854964 225.995025 
L 435.771597 225.62592 
L 436.688229 226.36413 
L 437.604861 227.655997 
L 438.521494 227.286892 
L 439.438126 226.179577 
L 440.354759 226.179577 
L 441.271391 224.88771 
L 442.188024 225.441367 
L 443.104656 224.518605 
L 444.021289 223.964948 
L 444.937921 222.67308 
L 445.854553 222.488528 
L 446.771186 221.565765 
L 447.687818 222.67308 
L 448.604451 222.67308 
L 449.521083 223.595843 
L 450.437716 224.88771 
L 451.354348 226.733235 
L 453.187613 228.209655 
L 456.854143 233.192572 
L 457.770775 234.299887 
L 458.687408 233.930782 
L 459.60404 233.746229 
L 460.520672 234.484439 
L 461.437305 236.329964 
L 462.353937 237.068174 
L 463.27057 237.990936 
L 464.187202 239.836461 
L 465.103835 239.651909 
L 466.020467 239.098251 
L 466.9371 238.913699 
L 467.853732 239.098251 
L 468.770364 242.420196 
L 469.686997 244.081168 
L 470.603629 244.265721 
L 471.520262 245.188483 
L 472.436894 245.188483 
L 473.353527 245.373036 
L 474.270159 245.742141 
L 475.186792 245.373036 
L 476.103424 246.480351 
L 477.020056 246.849456 
L 477.936689 246.295798 
L 478.853321 247.034008 
L 479.769954 247.403113 
L 480.686586 248.325875 
L 481.603219 248.510428 
L 482.519851 249.802295 
L 483.436484 249.617743 
L 483.436484 249.617743 
" style="fill:none;stroke:#e9967a;stroke-linecap:square;stroke-width:3;"/>
   </g>
   <g id="line2d_34">
    <path clip-path="url(#pb6aada0b4f)" d="M 54.4525 260.506339 
L 500.8525 260.506339 
" style="fill:none;stroke:#808080;stroke-linecap:square;stroke-width:0.8;"/>
   </g>
   <g id="line2d_35">
    <path clip-path="url(#pb6aada0b4f)" d="M 334.942028 270.860625 
L 334.942028 64.292625 
" style="fill:none;stroke:#000000;stroke-dasharray:1.85,0.8;stroke-dashoffset:0;stroke-width:0.5;"/>
   </g>
   <g id="text_24">
    <!-- Nouvelle-Aquitaine -->
    <g style="fill:#4169e1;" transform="translate(180.6775 49.677188)scale(0.18 -0.18)">
     <defs>
      <path d="M 588 4666 
L 1931 4666 
L 3628 1466 
L 3628 4666 
L 4769 4666 
L 4769 0 
L 3425 0 
L 1728 3200 
L 1728 0 
L 588 0 
L 588 4666 
z
" id="DejaVuSans-Bold-4e" transform="scale(0.015625)"/>
      <path d="M 2203 2784 
Q 1831 2784 1636 2517 
Q 1441 2250 1441 1747 
Q 1441 1244 1636 976 
Q 1831 709 2203 709 
Q 2569 709 2762 976 
Q 2956 1244 2956 1747 
Q 2956 2250 2762 2517 
Q 2569 2784 2203 2784 
z
M 2203 3584 
Q 3106 3584 3614 3096 
Q 4122 2609 4122 1747 
Q 4122 884 3614 396 
Q 3106 -91 2203 -91 
Q 1297 -91 786 396 
Q 275 884 275 1747 
Q 275 2609 786 3096 
Q 1297 3584 2203 3584 
z
" id="DejaVuSans-Bold-6f" transform="scale(0.015625)"/>
      <path d="M 500 1363 
L 500 3500 
L 1625 3500 
L 1625 3150 
Q 1625 2866 1622 2436 
Q 1619 2006 1619 1863 
Q 1619 1441 1641 1255 
Q 1663 1069 1716 984 
Q 1784 875 1895 815 
Q 2006 756 2150 756 
Q 2500 756 2700 1025 
Q 2900 1294 2900 1772 
L 2900 3500 
L 4019 3500 
L 4019 0 
L 2900 0 
L 2900 506 
Q 2647 200 2364 54 
Q 2081 -91 1741 -91 
Q 1134 -91 817 281 
Q 500 653 500 1363 
z
" id="DejaVuSans-Bold-75" transform="scale(0.015625)"/>
      <path d="M 97 3500 
L 1216 3500 
L 2088 1081 
L 2956 3500 
L 4078 3500 
L 2700 0 
L 1472 0 
L 97 3500 
z
" id="DejaVuSans-Bold-76" transform="scale(0.015625)"/>
      <path d="M 4031 1759 
L 4031 1441 
L 1416 1441 
Q 1456 1047 1700 850 
Q 1944 653 2381 653 
Q 2734 653 3104 758 
Q 3475 863 3866 1075 
L 3866 213 
Q 3469 63 3072 -14 
Q 2675 -91 2278 -91 
Q 1328 -91 801 392 
Q 275 875 275 1747 
Q 275 2603 792 3093 
Q 1309 3584 2216 3584 
Q 3041 3584 3536 3087 
Q 4031 2591 4031 1759 
z
M 2881 2131 
Q 2881 2450 2695 2645 
Q 2509 2841 2209 2841 
Q 1884 2841 1681 2658 
Q 1478 2475 1428 2131 
L 2881 2131 
z
" id="DejaVuSans-Bold-65" transform="scale(0.015625)"/>
      <path d="M 538 4863 
L 1656 4863 
L 1656 0 
L 538 0 
L 538 4863 
z
" id="DejaVuSans-Bold-6c" transform="scale(0.015625)"/>
      <path d="M 347 2297 
L 2309 2297 
L 2309 1388 
L 347 1388 
L 347 2297 
z
" id="DejaVuSans-Bold-2d" transform="scale(0.015625)"/>
      <path d="M 3419 850 
L 1538 850 
L 1241 0 
L 31 0 
L 1759 4666 
L 3194 4666 
L 4922 0 
L 3713 0 
L 3419 850 
z
M 1838 1716 
L 3116 1716 
L 2478 3572 
L 1838 1716 
z
" id="DejaVuSans-Bold-41" transform="scale(0.015625)"/>
      <path d="M 2181 2772 
Q 1825 2772 1636 2509 
Q 1447 2247 1447 1747 
Q 1447 1247 1636 984 
Q 1825 722 2181 722 
Q 2541 722 2730 984 
Q 2919 1247 2919 1747 
Q 2919 2247 2730 2509 
Q 2541 2772 2181 2772 
z
M 2919 506 
Q 2688 197 2409 53 
Q 2131 -91 1766 -91 
Q 1119 -91 703 423 
Q 288 938 288 1747 
Q 288 2556 703 3067 
Q 1119 3578 1766 3578 
Q 2131 3578 2409 3434 
Q 2688 3291 2919 2981 
L 2919 3500 
L 4044 3500 
L 4044 -1331 
L 2919 -1331 
L 2919 506 
z
" id="DejaVuSans-Bold-71" transform="scale(0.015625)"/>
      <path d="M 538 3500 
L 1656 3500 
L 1656 0 
L 538 0 
L 538 3500 
z
M 538 4863 
L 1656 4863 
L 1656 3950 
L 538 3950 
L 538 4863 
z
" id="DejaVuSans-Bold-69" transform="scale(0.015625)"/>
      <path d="M 1759 4494 
L 1759 3500 
L 2913 3500 
L 2913 2700 
L 1759 2700 
L 1759 1216 
Q 1759 972 1856 886 
Q 1953 800 2241 800 
L 2816 800 
L 2816 0 
L 1856 0 
Q 1194 0 917 276 
Q 641 553 641 1216 
L 641 2700 
L 84 2700 
L 84 3500 
L 641 3500 
L 641 4494 
L 1759 4494 
z
" id="DejaVuSans-Bold-74" transform="scale(0.015625)"/>
      <path d="M 2106 1575 
Q 1756 1575 1579 1456 
Q 1403 1338 1403 1106 
Q 1403 894 1545 773 
Q 1688 653 1941 653 
Q 2256 653 2472 879 
Q 2688 1106 2688 1447 
L 2688 1575 
L 2106 1575 
z
M 3816 1997 
L 3816 0 
L 2688 0 
L 2688 519 
Q 2463 200 2181 54 
Q 1900 -91 1497 -91 
Q 953 -91 614 226 
Q 275 544 275 1050 
Q 275 1666 698 1953 
Q 1122 2241 2028 2241 
L 2688 2241 
L 2688 2328 
Q 2688 2594 2478 2717 
Q 2269 2841 1825 2841 
Q 1466 2841 1156 2769 
Q 847 2697 581 2553 
L 581 3406 
Q 941 3494 1303 3539 
Q 1666 3584 2028 3584 
Q 2975 3584 3395 3211 
Q 3816 2838 3816 1997 
z
" id="DejaVuSans-Bold-61" transform="scale(0.015625)"/>
      <path d="M 4056 2131 
L 4056 0 
L 2931 0 
L 2931 347 
L 2931 1631 
Q 2931 2084 2911 2256 
Q 2891 2428 2841 2509 
Q 2775 2619 2662 2680 
Q 2550 2741 2406 2741 
Q 2056 2741 1856 2470 
Q 1656 2200 1656 1722 
L 1656 0 
L 538 0 
L 538 3500 
L 1656 3500 
L 1656 2988 
Q 1909 3294 2193 3439 
Q 2478 3584 2822 3584 
Q 3428 3584 3742 3212 
Q 4056 2841 4056 2131 
z
" id="DejaVuSans-Bold-6e" transform="scale(0.015625)"/>
     </defs>
     <use xlink:href="#DejaVuSans-Bold-4e"/>
     <use x="83.691406" xlink:href="#DejaVuSans-Bold-6f"/>
     <use x="152.392578" xlink:href="#DejaVuSans-Bold-75"/>
     <use x="223.583984" xlink:href="#DejaVuSans-Bold-76"/>
     <use x="288.769531" xlink:href="#DejaVuSans-Bold-65"/>
     <use x="356.591797" xlink:href="#DejaVuSans-Bold-6c"/>
     <use x="390.869141" xlink:href="#DejaVuSans-Bold-6c"/>
     <use x="425.146484" xlink:href="#DejaVuSans-Bold-65"/>
     <use x="492.96875" xlink:href="#DejaVuSans-Bold-2d"/>
     <use x="534.472656" xlink:href="#DejaVuSans-Bold-41"/>
     <use x="611.865234" xlink:href="#DejaVuSans-Bold-71"/>
     <use x="683.447266" xlink:href="#DejaVuSans-Bold-75"/>
     <use x="754.638672" xlink:href="#DejaVuSans-Bold-69"/>
     <use x="788.916016" xlink:href="#DejaVuSans-Bold-74"/>
     <use x="836.71875" xlink:href="#DejaVuSans-Bold-61"/>
     <use x="904.199219" xlink:href="#DejaVuSans-Bold-69"/>
     <use x="938.476562" xlink:href="#DejaVuSans-Bold-6e"/>
     <use x="1009.667969" xlink:href="#DejaVuSans-Bold-65"/>
    </g>
   </g>
   <g id="legend_1">
    <g id="patch_6">
     <path d="M 411.034688 115.290375 
L 537.7925 115.290375 
Q 539.9925 115.290375 539.9925 113.090375 
L 539.9925 39.376625 
Q 539.9925 37.176625 537.7925 37.176625 
L 411.034688 37.176625 
Q 408.834688 37.176625 408.834688 39.376625 
L 408.834688 113.090375 
Q 408.834688 115.290375 411.034688 115.290375 
z
" style="fill:#ffffff;opacity:0.8;stroke:#cccccc;stroke-linejoin:miter;"/>
    </g>
    <g id="text_25">
     <!-- Patients en réanimation, -->
     <g transform="translate(413.234688 49.175062)scale(0.1 -0.1)">
      <defs>
       <path d="M 1259 4147 
L 1259 2394 
L 2053 2394 
Q 2494 2394 2734 2622 
Q 2975 2850 2975 3272 
Q 2975 3691 2734 3919 
Q 2494 4147 2053 4147 
L 1259 4147 
z
M 628 4666 
L 2053 4666 
Q 2838 4666 3239 4311 
Q 3641 3956 3641 3272 
Q 3641 2581 3239 2228 
Q 2838 1875 2053 1875 
L 1259 1875 
L 1259 0 
L 628 0 
L 628 4666 
z
" id="DejaVuSans-50" transform="scale(0.015625)"/>
       <path id="DejaVuSans-20" transform="scale(0.015625)"/>
       <path d="M 750 794 
L 1409 794 
L 1409 256 
L 897 -744 
L 494 -744 
L 750 256 
L 750 794 
z
" id="DejaVuSans-2c" transform="scale(0.015625)"/>
      </defs>
      <use xlink:href="#DejaVuSans-50"/>
      <use x="55.802734" xlink:href="#DejaVuSans-61"/>
      <use x="117.082031" xlink:href="#DejaVuSans-74"/>
      <use x="156.291016" xlink:href="#DejaVuSans-69"/>
      <use x="184.074219" xlink:href="#DejaVuSans-65"/>
      <use x="245.597656" xlink:href="#DejaVuSans-6e"/>
      <use x="308.976562" xlink:href="#DejaVuSans-74"/>
      <use x="348.185547" xlink:href="#DejaVuSans-73"/>
      <use x="400.285156" xlink:href="#DejaVuSans-20"/>
      <use x="432.072266" xlink:href="#DejaVuSans-65"/>
      <use x="493.595703" xlink:href="#DejaVuSans-6e"/>
      <use x="556.974609" xlink:href="#DejaVuSans-20"/>
      <use x="588.761719" xlink:href="#DejaVuSans-72"/>
      <use x="627.625" xlink:href="#DejaVuSans-e9"/>
      <use x="689.148438" xlink:href="#DejaVuSans-61"/>
      <use x="750.427734" xlink:href="#DejaVuSans-6e"/>
      <use x="813.806641" xlink:href="#DejaVuSans-69"/>
      <use x="841.589844" xlink:href="#DejaVuSans-6d"/>
      <use x="939.001953" xlink:href="#DejaVuSans-61"/>
      <use x="1000.28125" xlink:href="#DejaVuSans-74"/>
      <use x="1039.490234" xlink:href="#DejaVuSans-69"/>
      <use x="1067.273438" xlink:href="#DejaVuSans-6f"/>
      <use x="1128.455078" xlink:href="#DejaVuSans-6e"/>
      <use x="1191.833984" xlink:href="#DejaVuSans-2c"/>
     </g>
     <!-- pour 100 000 habitants -->
     <g transform="translate(415.547188 60.372875)scale(0.1 -0.1)">
      <defs>
       <path d="M 3513 2113 
L 3513 0 
L 2938 0 
L 2938 2094 
Q 2938 2591 2744 2837 
Q 2550 3084 2163 3084 
Q 1697 3084 1428 2787 
Q 1159 2491 1159 1978 
L 1159 0 
L 581 0 
L 581 4863 
L 1159 4863 
L 1159 2956 
Q 1366 3272 1645 3428 
Q 1925 3584 2291 3584 
Q 2894 3584 3203 3211 
Q 3513 2838 3513 2113 
z
" id="DejaVuSans-68" transform="scale(0.015625)"/>
       <path d="M 3116 1747 
Q 3116 2381 2855 2742 
Q 2594 3103 2138 3103 
Q 1681 3103 1420 2742 
Q 1159 2381 1159 1747 
Q 1159 1113 1420 752 
Q 1681 391 2138 391 
Q 2594 391 2855 752 
Q 3116 1113 3116 1747 
z
M 1159 2969 
Q 1341 3281 1617 3432 
Q 1894 3584 2278 3584 
Q 2916 3584 3314 3078 
Q 3713 2572 3713 1747 
Q 3713 922 3314 415 
Q 2916 -91 2278 -91 
Q 1894 -91 1617 61 
Q 1341 213 1159 525 
L 1159 0 
L 581 0 
L 581 4863 
L 1159 4863 
L 1159 2969 
z
" id="DejaVuSans-62" transform="scale(0.015625)"/>
      </defs>
      <use xlink:href="#DejaVuSans-70"/>
      <use x="63.476562" xlink:href="#DejaVuSans-6f"/>
      <use x="124.658203" xlink:href="#DejaVuSans-75"/>
      <use x="188.037109" xlink:href="#DejaVuSans-72"/>
      <use x="229.150391" xlink:href="#DejaVuSans-20"/>
      <use x="260.9375" xlink:href="#DejaVuSans-31"/>
      <use x="324.560547" xlink:href="#DejaVuSans-30"/>
      <use x="388.183594" xlink:href="#DejaVuSans-30"/>
      <use x="451.806641" xlink:href="#DejaVuSans-20"/>
      <use x="483.59375" xlink:href="#DejaVuSans-30"/>
      <use x="547.216797" xlink:href="#DejaVuSans-30"/>
      <use x="610.839844" xlink:href="#DejaVuSans-30"/>
      <use x="674.462891" xlink:href="#DejaVuSans-20"/>
      <use x="706.25" xlink:href="#DejaVuSans-68"/>
      <use x="769.628906" xlink:href="#DejaVuSans-61"/>
      <use x="830.908203" xlink:href="#DejaVuSans-62"/>
      <use x="894.384766" xlink:href="#DejaVuSans-69"/>
      <use x="922.167969" xlink:href="#DejaVuSans-74"/>
      <use x="961.376953" xlink:href="#DejaVuSans-61"/>
      <use x="1022.65625" xlink:href="#DejaVuSans-6e"/>
      <use x="1086.035156" xlink:href="#DejaVuSans-74"/>
      <use x="1125.244141" xlink:href="#DejaVuSans-73"/>
     </g>
    </g>
    <g id="line2d_36">
     <path d="M 428.550469 72.460844 
L 450.550469 72.460844 
" style="fill:none;stroke:#b22222;stroke-linecap:square;"/>
    </g>
    <g id="line2d_37"/>
    <g id="text_26">
     <!-- 0-29 ans -->
     <g transform="translate(456.050469 76.310844)scale(0.11 -0.11)">
      <defs>
       <path d="M 313 2009 
L 1997 2009 
L 1997 1497 
L 313 1497 
L 313 2009 
z
" id="DejaVuSans-2d" transform="scale(0.015625)"/>
       <path d="M 703 97 
L 703 672 
Q 941 559 1184 500 
Q 1428 441 1663 441 
Q 2288 441 2617 861 
Q 2947 1281 2994 2138 
Q 2813 1869 2534 1725 
Q 2256 1581 1919 1581 
Q 1219 1581 811 2004 
Q 403 2428 403 3163 
Q 403 3881 828 4315 
Q 1253 4750 1959 4750 
Q 2769 4750 3195 4129 
Q 3622 3509 3622 2328 
Q 3622 1225 3098 567 
Q 2575 -91 1691 -91 
Q 1453 -91 1209 -44 
Q 966 3 703 97 
z
M 1959 2075 
Q 2384 2075 2632 2365 
Q 2881 2656 2881 3163 
Q 2881 3666 2632 3958 
Q 2384 4250 1959 4250 
Q 1534 4250 1286 3958 
Q 1038 3666 1038 3163 
Q 1038 2656 1286 2365 
Q 1534 2075 1959 2075 
z
" id="DejaVuSans-39" transform="scale(0.015625)"/>
      </defs>
      <use xlink:href="#DejaVuSans-30"/>
      <use x="63.623047" xlink:href="#DejaVuSans-2d"/>
      <use x="99.707031" xlink:href="#DejaVuSans-32"/>
      <use x="163.330078" xlink:href="#DejaVuSans-39"/>
      <use x="226.953125" xlink:href="#DejaVuSans-20"/>
      <use x="258.740234" xlink:href="#DejaVuSans-61"/>
      <use x="320.019531" xlink:href="#DejaVuSans-6e"/>
      <use x="383.398438" xlink:href="#DejaVuSans-73"/>
     </g>
    </g>
    <g id="line2d_38">
     <path d="M 428.550469 88.606781 
L 450.550469 88.606781 
" style="fill:none;stroke:#000000;stroke-linecap:square;stroke-width:1.5;"/>
    </g>
    <g id="line2d_39"/>
    <g id="text_27">
     <!-- 30-59 ans -->
     <g transform="translate(456.050469 92.456781)scale(0.11 -0.11)">
      <use xlink:href="#DejaVuSans-33"/>
      <use x="63.623047" xlink:href="#DejaVuSans-30"/>
      <use x="127.246094" xlink:href="#DejaVuSans-2d"/>
      <use x="163.330078" xlink:href="#DejaVuSans-35"/>
      <use x="226.953125" xlink:href="#DejaVuSans-39"/>
      <use x="290.576172" xlink:href="#DejaVuSans-20"/>
      <use x="322.363281" xlink:href="#DejaVuSans-61"/>
      <use x="383.642578" xlink:href="#DejaVuSans-6e"/>
      <use x="447.021484" xlink:href="#DejaVuSans-73"/>
     </g>
    </g>
    <g id="line2d_40">
     <path d="M 428.550469 104.752719 
L 450.550469 104.752719 
" style="fill:none;stroke:#e9967a;stroke-linecap:square;stroke-width:3;"/>
    </g>
    <g id="line2d_41"/>
    <g id="text_28">
     <!-- 60 ans et + -->
     <g transform="translate(456.050469 108.602719)scale(0.11 -0.11)">
      <defs>
       <path d="M 2113 2584 
Q 1688 2584 1439 2293 
Q 1191 2003 1191 1497 
Q 1191 994 1439 701 
Q 1688 409 2113 409 
Q 2538 409 2786 701 
Q 3034 994 3034 1497 
Q 3034 2003 2786 2293 
Q 2538 2584 2113 2584 
z
M 3366 4563 
L 3366 3988 
Q 3128 4100 2886 4159 
Q 2644 4219 2406 4219 
Q 1781 4219 1451 3797 
Q 1122 3375 1075 2522 
Q 1259 2794 1537 2939 
Q 1816 3084 2150 3084 
Q 2853 3084 3261 2657 
Q 3669 2231 3669 1497 
Q 3669 778 3244 343 
Q 2819 -91 2113 -91 
Q 1303 -91 875 529 
Q 447 1150 447 2328 
Q 447 3434 972 4092 
Q 1497 4750 2381 4750 
Q 2619 4750 2861 4703 
Q 3103 4656 3366 4563 
z
" id="DejaVuSans-36" transform="scale(0.015625)"/>
       <path d="M 2944 4013 
L 2944 2272 
L 4684 2272 
L 4684 1741 
L 2944 1741 
L 2944 0 
L 2419 0 
L 2419 1741 
L 678 1741 
L 678 2272 
L 2419 2272 
L 2419 4013 
L 2944 4013 
z
" id="DejaVuSans-2b" transform="scale(0.015625)"/>
      </defs>
      <use xlink:href="#DejaVuSans-36"/>
      <use x="63.623047" xlink:href="#DejaVuSans-30"/>
      <use x="127.246094" xlink:href="#DejaVuSans-20"/>
      <use x="159.033203" xlink:href="#DejaVuSans-61"/>
      <use x="220.3125" xlink:href="#DejaVuSans-6e"/>
      <use x="283.691406" xlink:href="#DejaVuSans-73"/>
      <use x="335.791016" xlink:href="#DejaVuSans-20"/>
      <use x="367.578125" xlink:href="#DejaVuSans-65"/>
      <use x="429.101562" xlink:href="#DejaVuSans-74"/>
      <use x="468.310547" xlink:href="#DejaVuSans-20"/>
      <use x="500.097656" xlink:href="#DejaVuSans-2b"/>
     </g>
    </g>
   </g>
  </g>
 </g>
 <defs>
  <clipPath id="pb6aada0b4f">
   <rect height="217.44" width="446.4" x="54.4525" y="53.420625"/>
  </clipPath>
 </defs>
</svg>
