<?xml version="1.0" encoding="utf-8" standalone="no"?>
<!DOCTYPE svg PUBLIC "-//W3C//DTD SVG 1.1//EN"
  "http://www.w3.org/Graphics/SVG/1.1/DTD/svg11.dtd">
<svg height="336.049967pt" version="1.1" viewBox="0 0 581.71875 336.049967" width="581.71875pt" xmlns="http://www.w3.org/2000/svg" xmlns:xlink="http://www.w3.org/1999/xlink">
 <metadata>
  <rdf:RDF xmlns:cc="http://creativecommons.org/ns#" xmlns:dc="http://purl.org/dc/elements/1.1/" xmlns:rdf="http://www.w3.org/1999/02/22-rdf-syntax-ns#">
   <cc:Work>
    <dc:type rdf:resource="http://purl.org/dc/dcmitype/StillImage"/>
    <dc:date>2021-06-18T14:56:08.197566</dc:date>
    <dc:format>image/svg+xml</dc:format>
    <dc:creator>
     <cc:Agent>
      <dc:title>Matplotlib v3.4.1, https://matplotlib.org/</dc:title>
     </cc:Agent>
    </dc:creator>
   </cc:Work>
  </rdf:RDF>
 </metadata>
 <defs>
  <style type="text/css">*{stroke-linecap:butt;stroke-linejoin:round;}</style>
 </defs>
 <g id="figure_1">
  <g id="patch_1">
   <path d="M 0 336.049967 
L 581.71875 336.049967 
L 581.71875 0 
L 0 0 
z
" style="fill:#ffffff;"/>
  </g>
  <g id="axes_1">
   <g id="patch_2">
    <path d="M 60.17875 270.860625 
L 506.57875 270.860625 
L 506.57875 53.420625 
L 60.17875 53.420625 
z
" style="fill:none;opacity:0;"/>
   </g>
   <g id="patch_3">
    <path clip-path="url(#p8b116b9dc1)" d="M 74.844869 270.860625 
L 74.844869 64.292625 
L 124.343021 64.292625 
L 124.343021 270.860625 
z
" style="fill:#808080;opacity:0.15;stroke:#808080;stroke-linejoin:miter;"/>
   </g>
   <g id="patch_4">
    <path clip-path="url(#p8b116b9dc1)" d="M 282.920434 270.860625 
L 282.920434 64.292625 
L 325.085526 64.292625 
L 325.085526 270.860625 
z
" style="fill:#808080;opacity:0.15;stroke:#808080;stroke-linejoin:miter;"/>
   </g>
   <g id="patch_5">
    <path clip-path="url(#p8b116b9dc1)" d="M 426.831727 270.860625 
L 426.831727 64.292625 
L 451.580803 64.292625 
L 451.580803 270.860625 
z
" style="fill:#808080;opacity:0.15;stroke:#808080;stroke-linejoin:miter;"/>
   </g>
   <g id="matplotlib.axis_1">
    <g id="xtick_1">
     <g id="line2d_1">
      <defs>
       <path d="M 0 0 
L 0 3.5 
" id="mfb212daf35" style="stroke:#000000;stroke-width:0.8;"/>
      </defs>
      <g>
       <use style="stroke:#000000;stroke-width:0.8;" x="60.17875" xlink:href="#mfb212daf35" y="270.860625"/>
      </g>
     </g>
     <g id="text_1">
      <!-- mars -->
      <g transform="translate(48.984145 298.726462)rotate(-45)scale(0.09 -0.09)">
       <defs>
        <path d="M 3328 2828 
Q 3544 3216 3844 3400 
Q 4144 3584 4550 3584 
Q 5097 3584 5394 3201 
Q 5691 2819 5691 2113 
L 5691 0 
L 5113 0 
L 5113 2094 
Q 5113 2597 4934 2840 
Q 4756 3084 4391 3084 
Q 3944 3084 3684 2787 
Q 3425 2491 3425 1978 
L 3425 0 
L 2847 0 
L 2847 2094 
Q 2847 2600 2669 2842 
Q 2491 3084 2119 3084 
Q 1678 3084 1418 2786 
Q 1159 2488 1159 1978 
L 1159 0 
L 581 0 
L 581 3500 
L 1159 3500 
L 1159 2956 
Q 1356 3278 1631 3431 
Q 1906 3584 2284 3584 
Q 2666 3584 2933 3390 
Q 3200 3197 3328 2828 
z
" id="DejaVuSans-6d" transform="scale(0.015625)"/>
        <path d="M 2194 1759 
Q 1497 1759 1228 1600 
Q 959 1441 959 1056 
Q 959 750 1161 570 
Q 1363 391 1709 391 
Q 2188 391 2477 730 
Q 2766 1069 2766 1631 
L 2766 1759 
L 2194 1759 
z
M 3341 1997 
L 3341 0 
L 2766 0 
L 2766 531 
Q 2569 213 2275 61 
Q 1981 -91 1556 -91 
Q 1019 -91 701 211 
Q 384 513 384 1019 
Q 384 1609 779 1909 
Q 1175 2209 1959 2209 
L 2766 2209 
L 2766 2266 
Q 2766 2663 2505 2880 
Q 2244 3097 1772 3097 
Q 1472 3097 1187 3025 
Q 903 2953 641 2809 
L 641 3341 
Q 956 3463 1253 3523 
Q 1550 3584 1831 3584 
Q 2591 3584 2966 3190 
Q 3341 2797 3341 1997 
z
" id="DejaVuSans-61" transform="scale(0.015625)"/>
        <path d="M 2631 2963 
Q 2534 3019 2420 3045 
Q 2306 3072 2169 3072 
Q 1681 3072 1420 2755 
Q 1159 2438 1159 1844 
L 1159 0 
L 581 0 
L 581 3500 
L 1159 3500 
L 1159 2956 
Q 1341 3275 1631 3429 
Q 1922 3584 2338 3584 
Q 2397 3584 2469 3576 
Q 2541 3569 2628 3553 
L 2631 2963 
z
" id="DejaVuSans-72" transform="scale(0.015625)"/>
        <path d="M 2834 3397 
L 2834 2853 
Q 2591 2978 2328 3040 
Q 2066 3103 1784 3103 
Q 1356 3103 1142 2972 
Q 928 2841 928 2578 
Q 928 2378 1081 2264 
Q 1234 2150 1697 2047 
L 1894 2003 
Q 2506 1872 2764 1633 
Q 3022 1394 3022 966 
Q 3022 478 2636 193 
Q 2250 -91 1575 -91 
Q 1294 -91 989 -36 
Q 684 19 347 128 
L 347 722 
Q 666 556 975 473 
Q 1284 391 1588 391 
Q 1994 391 2212 530 
Q 2431 669 2431 922 
Q 2431 1156 2273 1281 
Q 2116 1406 1581 1522 
L 1381 1569 
Q 847 1681 609 1914 
Q 372 2147 372 2553 
Q 372 3047 722 3315 
Q 1072 3584 1716 3584 
Q 2034 3584 2315 3537 
Q 2597 3491 2834 3397 
z
" id="DejaVuSans-73" transform="scale(0.015625)"/>
       </defs>
       <use xlink:href="#DejaVuSans-6d"/>
       <use x="97.412109" xlink:href="#DejaVuSans-61"/>
       <use x="158.691406" xlink:href="#DejaVuSans-72"/>
       <use x="199.804688" xlink:href="#DejaVuSans-73"/>
      </g>
     </g>
    </g>
    <g id="xtick_2">
     <g id="line2d_2">
      <g>
       <use style="stroke:#000000;stroke-width:0.8;" x="88.594356" xlink:href="#mfb212daf35" y="270.860625"/>
      </g>
     </g>
     <g id="text_2">
      <!-- avril -->
      <g transform="translate(79.611227 296.514986)rotate(-45)scale(0.09 -0.09)">
       <defs>
        <path d="M 191 3500 
L 800 3500 
L 1894 563 
L 2988 3500 
L 3597 3500 
L 2284 0 
L 1503 0 
L 191 3500 
z
" id="DejaVuSans-76" transform="scale(0.015625)"/>
        <path d="M 603 3500 
L 1178 3500 
L 1178 0 
L 603 0 
L 603 3500 
z
M 603 4863 
L 1178 4863 
L 1178 4134 
L 603 4134 
L 603 4863 
z
" id="DejaVuSans-69" transform="scale(0.015625)"/>
        <path d="M 603 4863 
L 1178 4863 
L 1178 0 
L 603 0 
L 603 4863 
z
" id="DejaVuSans-6c" transform="scale(0.015625)"/>
       </defs>
       <use xlink:href="#DejaVuSans-61"/>
       <use x="61.279297" xlink:href="#DejaVuSans-76"/>
       <use x="120.458984" xlink:href="#DejaVuSans-72"/>
       <use x="161.572266" xlink:href="#DejaVuSans-69"/>
       <use x="189.355469" xlink:href="#DejaVuSans-6c"/>
      </g>
     </g>
    </g>
    <g id="xtick_3">
     <g id="line2d_3">
      <g>
       <use style="stroke:#000000;stroke-width:0.8;" x="116.093329" xlink:href="#mfb212daf35" y="270.860625"/>
      </g>
     </g>
     <g id="text_3">
      <!-- mai -->
      <g transform="translate(109.062146 294.56304)rotate(-45)scale(0.09 -0.09)">
       <use xlink:href="#DejaVuSans-6d"/>
       <use x="97.412109" xlink:href="#DejaVuSans-61"/>
       <use x="158.691406" xlink:href="#DejaVuSans-69"/>
      </g>
     </g>
    </g>
    <g id="xtick_4">
     <g id="line2d_4">
      <g>
       <use style="stroke:#000000;stroke-width:0.8;" x="144.508935" xlink:href="#mfb212daf35" y="270.860625"/>
      </g>
     </g>
     <g id="text_4">
      <!-- juin -->
      <g transform="translate(137.742254 294.298537)rotate(-45)scale(0.09 -0.09)">
       <defs>
        <path d="M 603 3500 
L 1178 3500 
L 1178 -63 
Q 1178 -731 923 -1031 
Q 669 -1331 103 -1331 
L -116 -1331 
L -116 -844 
L 38 -844 
Q 366 -844 484 -692 
Q 603 -541 603 -63 
L 603 3500 
z
M 603 4863 
L 1178 4863 
L 1178 4134 
L 603 4134 
L 603 4863 
z
" id="DejaVuSans-6a" transform="scale(0.015625)"/>
        <path d="M 544 1381 
L 544 3500 
L 1119 3500 
L 1119 1403 
Q 1119 906 1312 657 
Q 1506 409 1894 409 
Q 2359 409 2629 706 
Q 2900 1003 2900 1516 
L 2900 3500 
L 3475 3500 
L 3475 0 
L 2900 0 
L 2900 538 
Q 2691 219 2414 64 
Q 2138 -91 1772 -91 
Q 1169 -91 856 284 
Q 544 659 544 1381 
z
M 1991 3584 
L 1991 3584 
z
" id="DejaVuSans-75" transform="scale(0.015625)"/>
        <path d="M 3513 2113 
L 3513 0 
L 2938 0 
L 2938 2094 
Q 2938 2591 2744 2837 
Q 2550 3084 2163 3084 
Q 1697 3084 1428 2787 
Q 1159 2491 1159 1978 
L 1159 0 
L 581 0 
L 581 3500 
L 1159 3500 
L 1159 2956 
Q 1366 3272 1645 3428 
Q 1925 3584 2291 3584 
Q 2894 3584 3203 3211 
Q 3513 2838 3513 2113 
z
" id="DejaVuSans-6e" transform="scale(0.015625)"/>
       </defs>
       <use xlink:href="#DejaVuSans-6a"/>
       <use x="27.783203" xlink:href="#DejaVuSans-75"/>
       <use x="91.162109" xlink:href="#DejaVuSans-69"/>
       <use x="118.945312" xlink:href="#DejaVuSans-6e"/>
      </g>
     </g>
    </g>
    <g id="xtick_5">
     <g id="line2d_5">
      <g>
       <use style="stroke:#000000;stroke-width:0.8;" x="172.007908" xlink:href="#mfb212daf35" y="270.860625"/>
      </g>
     </g>
     <g id="text_5">
      <!-- juil. -->
      <g transform="translate(165.483854 294.055911)rotate(-45)scale(0.09 -0.09)">
       <defs>
        <path d="M 684 794 
L 1344 794 
L 1344 0 
L 684 0 
L 684 794 
z
" id="DejaVuSans-2e" transform="scale(0.015625)"/>
       </defs>
       <use xlink:href="#DejaVuSans-6a"/>
       <use x="27.783203" xlink:href="#DejaVuSans-75"/>
       <use x="91.162109" xlink:href="#DejaVuSans-69"/>
       <use x="118.945312" xlink:href="#DejaVuSans-6c"/>
       <use x="146.728516" xlink:href="#DejaVuSans-2e"/>
      </g>
     </g>
    </g>
    <g id="xtick_6">
     <g id="line2d_6">
      <g>
       <use style="stroke:#000000;stroke-width:0.8;" x="200.423514" xlink:href="#mfb212daf35" y="270.860625"/>
      </g>
     </g>
     <g id="text_6">
      <!-- août -->
      <g transform="translate(190.937234 297.018136)rotate(-45)scale(0.09 -0.09)">
       <defs>
        <path d="M 1959 3097 
Q 1497 3097 1228 2736 
Q 959 2375 959 1747 
Q 959 1119 1226 758 
Q 1494 397 1959 397 
Q 2419 397 2687 759 
Q 2956 1122 2956 1747 
Q 2956 2369 2687 2733 
Q 2419 3097 1959 3097 
z
M 1959 3584 
Q 2709 3584 3137 3096 
Q 3566 2609 3566 1747 
Q 3566 888 3137 398 
Q 2709 -91 1959 -91 
Q 1206 -91 779 398 
Q 353 888 353 1747 
Q 353 2609 779 3096 
Q 1206 3584 1959 3584 
z
" id="DejaVuSans-6f" transform="scale(0.015625)"/>
        <path d="M 544 1381 
L 544 3500 
L 1119 3500 
L 1119 1403 
Q 1119 906 1312 657 
Q 1506 409 1894 409 
Q 2359 409 2629 706 
Q 2900 1003 2900 1516 
L 2900 3500 
L 3475 3500 
L 3475 0 
L 2900 0 
L 2900 538 
Q 2691 219 2414 64 
Q 2138 -91 1772 -91 
Q 1169 -91 856 284 
Q 544 659 544 1381 
z
M 1991 3584 
L 1991 3584 
z
M 1753 5119 
L 2215 5119 
L 2981 3944 
L 2547 3944 
L 1984 4709 
L 1422 3944 
L 987 3944 
L 1753 5119 
z
" id="DejaVuSans-fb" transform="scale(0.015625)"/>
        <path d="M 1172 4494 
L 1172 3500 
L 2356 3500 
L 2356 3053 
L 1172 3053 
L 1172 1153 
Q 1172 725 1289 603 
Q 1406 481 1766 481 
L 2356 481 
L 2356 0 
L 1766 0 
Q 1100 0 847 248 
Q 594 497 594 1153 
L 594 3053 
L 172 3053 
L 172 3500 
L 594 3500 
L 594 4494 
L 1172 4494 
z
" id="DejaVuSans-74" transform="scale(0.015625)"/>
       </defs>
       <use xlink:href="#DejaVuSans-61"/>
       <use x="61.279297" xlink:href="#DejaVuSans-6f"/>
       <use x="122.460938" xlink:href="#DejaVuSans-fb"/>
       <use x="185.839844" xlink:href="#DejaVuSans-74"/>
      </g>
     </g>
    </g>
    <g id="xtick_7">
     <g id="line2d_7">
      <g>
       <use style="stroke:#000000;stroke-width:0.8;" x="228.83912" xlink:href="#mfb212daf35" y="270.860625"/>
      </g>
     </g>
     <g id="text_7">
      <!-- sept. -->
      <g transform="translate(217.886146 298.484831)rotate(-45)scale(0.09 -0.09)">
       <defs>
        <path d="M 3597 1894 
L 3597 1613 
L 953 1613 
Q 991 1019 1311 708 
Q 1631 397 2203 397 
Q 2534 397 2845 478 
Q 3156 559 3463 722 
L 3463 178 
Q 3153 47 2828 -22 
Q 2503 -91 2169 -91 
Q 1331 -91 842 396 
Q 353 884 353 1716 
Q 353 2575 817 3079 
Q 1281 3584 2069 3584 
Q 2775 3584 3186 3129 
Q 3597 2675 3597 1894 
z
M 3022 2063 
Q 3016 2534 2758 2815 
Q 2500 3097 2075 3097 
Q 1594 3097 1305 2825 
Q 1016 2553 972 2059 
L 3022 2063 
z
" id="DejaVuSans-65" transform="scale(0.015625)"/>
        <path d="M 1159 525 
L 1159 -1331 
L 581 -1331 
L 581 3500 
L 1159 3500 
L 1159 2969 
Q 1341 3281 1617 3432 
Q 1894 3584 2278 3584 
Q 2916 3584 3314 3078 
Q 3713 2572 3713 1747 
Q 3713 922 3314 415 
Q 2916 -91 2278 -91 
Q 1894 -91 1617 61 
Q 1341 213 1159 525 
z
M 3116 1747 
Q 3116 2381 2855 2742 
Q 2594 3103 2138 3103 
Q 1681 3103 1420 2742 
Q 1159 2381 1159 1747 
Q 1159 1113 1420 752 
Q 1681 391 2138 391 
Q 2594 391 2855 752 
Q 3116 1113 3116 1747 
z
" id="DejaVuSans-70" transform="scale(0.015625)"/>
       </defs>
       <use xlink:href="#DejaVuSans-73"/>
       <use x="52.099609" xlink:href="#DejaVuSans-65"/>
       <use x="113.623047" xlink:href="#DejaVuSans-70"/>
       <use x="177.099609" xlink:href="#DejaVuSans-74"/>
       <use x="216.308594" xlink:href="#DejaVuSans-2e"/>
      </g>
     </g>
    </g>
    <g id="xtick_8">
     <g id="line2d_8">
      <g>
       <use style="stroke:#000000;stroke-width:0.8;" x="256.338093" xlink:href="#mfb212daf35" y="270.860625"/>
      </g>
     </g>
     <g id="text_8">
      <!-- oct. -->
      <g transform="translate(249.263158 294.606792)rotate(-45)scale(0.09 -0.09)">
       <defs>
        <path d="M 3122 3366 
L 3122 2828 
Q 2878 2963 2633 3030 
Q 2388 3097 2138 3097 
Q 1578 3097 1268 2742 
Q 959 2388 959 1747 
Q 959 1106 1268 751 
Q 1578 397 2138 397 
Q 2388 397 2633 464 
Q 2878 531 3122 666 
L 3122 134 
Q 2881 22 2623 -34 
Q 2366 -91 2075 -91 
Q 1284 -91 818 406 
Q 353 903 353 1747 
Q 353 2603 823 3093 
Q 1294 3584 2113 3584 
Q 2378 3584 2631 3529 
Q 2884 3475 3122 3366 
z
" id="DejaVuSans-63" transform="scale(0.015625)"/>
       </defs>
       <use xlink:href="#DejaVuSans-6f"/>
       <use x="61.181641" xlink:href="#DejaVuSans-63"/>
       <use x="116.162109" xlink:href="#DejaVuSans-74"/>
       <use x="155.371094" xlink:href="#DejaVuSans-2e"/>
      </g>
     </g>
    </g>
    <g id="xtick_9">
     <g id="line2d_9">
      <g>
       <use style="stroke:#000000;stroke-width:0.8;" x="284.753699" xlink:href="#mfb212daf35" y="270.860625"/>
      </g>
     </g>
     <g id="text_9">
      <!-- nov. -->
      <g transform="translate(276.366197 295.919359)rotate(-45)scale(0.09 -0.09)">
       <use xlink:href="#DejaVuSans-6e"/>
       <use x="63.378906" xlink:href="#DejaVuSans-6f"/>
       <use x="124.560547" xlink:href="#DejaVuSans-76"/>
       <use x="175.990234" xlink:href="#DejaVuSans-2e"/>
      </g>
     </g>
    </g>
    <g id="xtick_10">
     <g id="line2d_10">
      <g>
       <use style="stroke:#000000;stroke-width:0.8;" x="312.252672" xlink:href="#mfb212daf35" y="270.860625"/>
      </g>
     </g>
     <g id="text_10">
      <!-- déc. -->
      <g transform="translate(303.610612 296.173917)rotate(-45)scale(0.09 -0.09)">
       <defs>
        <path d="M 2906 2969 
L 2906 4863 
L 3481 4863 
L 3481 0 
L 2906 0 
L 2906 525 
Q 2725 213 2448 61 
Q 2172 -91 1784 -91 
Q 1150 -91 751 415 
Q 353 922 353 1747 
Q 353 2572 751 3078 
Q 1150 3584 1784 3584 
Q 2172 3584 2448 3432 
Q 2725 3281 2906 2969 
z
M 947 1747 
Q 947 1113 1208 752 
Q 1469 391 1925 391 
Q 2381 391 2643 752 
Q 2906 1113 2906 1747 
Q 2906 2381 2643 2742 
Q 2381 3103 1925 3103 
Q 1469 3103 1208 2742 
Q 947 2381 947 1747 
z
" id="DejaVuSans-64" transform="scale(0.015625)"/>
        <path d="M 3597 1894 
L 3597 1613 
L 953 1613 
Q 991 1019 1311 708 
Q 1631 397 2203 397 
Q 2534 397 2845 478 
Q 3156 559 3463 722 
L 3463 178 
Q 3153 47 2828 -22 
Q 2503 -91 2169 -91 
Q 1331 -91 842 396 
Q 353 884 353 1716 
Q 353 2575 817 3079 
Q 1281 3584 2069 3584 
Q 2775 3584 3186 3129 
Q 3597 2675 3597 1894 
z
M 3022 2063 
Q 3016 2534 2758 2815 
Q 2500 3097 2075 3097 
Q 1594 3097 1305 2825 
Q 1016 2553 972 2059 
L 3022 2063 
z
M 2466 5119 
L 3088 5119 
L 2070 3944 
L 1591 3944 
L 2466 5119 
z
" id="DejaVuSans-e9" transform="scale(0.015625)"/>
       </defs>
       <use xlink:href="#DejaVuSans-64"/>
       <use x="63.476562" xlink:href="#DejaVuSans-e9"/>
       <use x="125" xlink:href="#DejaVuSans-63"/>
       <use x="179.980469" xlink:href="#DejaVuSans-2e"/>
      </g>
     </g>
    </g>
    <g id="xtick_11">
     <g id="line2d_11">
      <g>
       <use style="stroke:#000000;stroke-width:0.8;" x="340.668278" xlink:href="#mfb212daf35" y="270.860625"/>
      </g>
     </g>
     <g id="text_11">
      <!-- janv. -->
      <g transform="translate(330.506822 297.693313)rotate(-45)scale(0.09 -0.09)">
       <use xlink:href="#DejaVuSans-6a"/>
       <use x="27.783203" xlink:href="#DejaVuSans-61"/>
       <use x="89.0625" xlink:href="#DejaVuSans-6e"/>
       <use x="152.441406" xlink:href="#DejaVuSans-76"/>
       <use x="203.871094" xlink:href="#DejaVuSans-2e"/>
      </g>
     </g>
    </g>
    <g id="xtick_12">
     <g id="line2d_12">
      <g>
       <use style="stroke:#000000;stroke-width:0.8;" x="369.083883" xlink:href="#mfb212daf35" y="270.860625"/>
      </g>
     </g>
     <g id="text_12">
      <!-- fév. -->
      <g transform="translate(362.467353 294.148388)rotate(-45)scale(0.09 -0.09)">
       <defs>
        <path d="M 2375 4863 
L 2375 4384 
L 1825 4384 
Q 1516 4384 1395 4259 
Q 1275 4134 1275 3809 
L 1275 3500 
L 2222 3500 
L 2222 3053 
L 1275 3053 
L 1275 0 
L 697 0 
L 697 3053 
L 147 3053 
L 147 3500 
L 697 3500 
L 697 3744 
Q 697 4328 969 4595 
Q 1241 4863 1831 4863 
L 2375 4863 
z
" id="DejaVuSans-66" transform="scale(0.015625)"/>
       </defs>
       <use xlink:href="#DejaVuSans-66"/>
       <use x="35.205078" xlink:href="#DejaVuSans-e9"/>
       <use x="96.728516" xlink:href="#DejaVuSans-76"/>
       <use x="148.158203" xlink:href="#DejaVuSans-2e"/>
      </g>
     </g>
    </g>
    <g id="xtick_13">
     <g id="line2d_13">
      <g>
       <use style="stroke:#000000;stroke-width:0.8;" x="394.749592" xlink:href="#mfb212daf35" y="270.860625"/>
      </g>
     </g>
     <g id="text_13">
      <!-- mars -->
      <g transform="translate(383.554987 298.726462)rotate(-45)scale(0.09 -0.09)">
       <use xlink:href="#DejaVuSans-6d"/>
       <use x="97.412109" xlink:href="#DejaVuSans-61"/>
       <use x="158.691406" xlink:href="#DejaVuSans-72"/>
       <use x="199.804688" xlink:href="#DejaVuSans-73"/>
      </g>
     </g>
    </g>
    <g id="xtick_14">
     <g id="line2d_14">
      <g>
       <use style="stroke:#000000;stroke-width:0.8;" x="423.165198" xlink:href="#mfb212daf35" y="270.860625"/>
      </g>
     </g>
     <g id="text_14">
      <!-- avril -->
      <g transform="translate(414.182069 296.514986)rotate(-45)scale(0.09 -0.09)">
       <use xlink:href="#DejaVuSans-61"/>
       <use x="61.279297" xlink:href="#DejaVuSans-76"/>
       <use x="120.458984" xlink:href="#DejaVuSans-72"/>
       <use x="161.572266" xlink:href="#DejaVuSans-69"/>
       <use x="189.355469" xlink:href="#DejaVuSans-6c"/>
      </g>
     </g>
    </g>
    <g id="xtick_15">
     <g id="line2d_15">
      <g>
       <use style="stroke:#000000;stroke-width:0.8;" x="450.664171" xlink:href="#mfb212daf35" y="270.860625"/>
      </g>
     </g>
     <g id="text_15">
      <!-- mai -->
      <g transform="translate(443.632988 294.56304)rotate(-45)scale(0.09 -0.09)">
       <use xlink:href="#DejaVuSans-6d"/>
       <use x="97.412109" xlink:href="#DejaVuSans-61"/>
       <use x="158.691406" xlink:href="#DejaVuSans-69"/>
      </g>
     </g>
    </g>
    <g id="xtick_16">
     <g id="line2d_16">
      <g>
       <use style="stroke:#000000;stroke-width:0.8;" x="479.079777" xlink:href="#mfb212daf35" y="270.860625"/>
      </g>
     </g>
     <g id="text_16">
      <!-- juin -->
      <g transform="translate(472.313096 294.298537)rotate(-45)scale(0.09 -0.09)">
       <use xlink:href="#DejaVuSans-6a"/>
       <use x="27.783203" xlink:href="#DejaVuSans-75"/>
       <use x="91.162109" xlink:href="#DejaVuSans-69"/>
       <use x="118.945312" xlink:href="#DejaVuSans-6e"/>
      </g>
     </g>
    </g>
    <g id="xtick_17">
     <g id="line2d_17">
      <g>
       <use style="stroke:#000000;stroke-width:0.8;" x="506.57875" xlink:href="#mfb212daf35" y="270.860625"/>
      </g>
     </g>
     <g id="text_17">
      <!-- juil. -->
      <g transform="translate(500.054696 294.055911)rotate(-45)scale(0.09 -0.09)">
       <use xlink:href="#DejaVuSans-6a"/>
       <use x="27.783203" xlink:href="#DejaVuSans-75"/>
       <use x="91.162109" xlink:href="#DejaVuSans-69"/>
       <use x="118.945312" xlink:href="#DejaVuSans-6c"/>
       <use x="146.728516" xlink:href="#DejaVuSans-2e"/>
      </g>
     </g>
    </g>
   </g>
   <g id="matplotlib.axis_2">
    <g id="ytick_1">
     <g id="line2d_18">
      <path clip-path="url(#p8b116b9dc1)" d="M 60.17875 260.506339 
L 506.57875 260.506339 
" style="fill:none;stroke:#b0b0b0;stroke-linecap:square;stroke-opacity:0.5;stroke-width:0.8;"/>
     </g>
     <g id="text_18">
      <!-- 0 -->
      <g transform="translate(47.4525 263.925636)scale(0.09 -0.09)">
       <defs>
        <path d="M 2034 4250 
Q 1547 4250 1301 3770 
Q 1056 3291 1056 2328 
Q 1056 1369 1301 889 
Q 1547 409 2034 409 
Q 2525 409 2770 889 
Q 3016 1369 3016 2328 
Q 3016 3291 2770 3770 
Q 2525 4250 2034 4250 
z
M 2034 4750 
Q 2819 4750 3233 4129 
Q 3647 3509 3647 2328 
Q 3647 1150 3233 529 
Q 2819 -91 2034 -91 
Q 1250 -91 836 529 
Q 422 1150 422 2328 
Q 422 3509 836 4129 
Q 1250 4750 2034 4750 
z
" id="DejaVuSans-30" transform="scale(0.015625)"/>
       </defs>
       <use xlink:href="#DejaVuSans-30"/>
      </g>
     </g>
    </g>
    <g id="ytick_2">
     <g id="line2d_19">
      <path clip-path="url(#p8b116b9dc1)" d="M 60.17875 205.866309 
L 506.57875 205.866309 
" style="fill:none;stroke:#b0b0b0;stroke-linecap:square;stroke-opacity:0.5;stroke-width:0.8;"/>
     </g>
     <g id="text_19">
      <!-- 100 -->
      <g transform="translate(36 209.285606)scale(0.09 -0.09)">
       <defs>
        <path d="M 794 531 
L 1825 531 
L 1825 4091 
L 703 3866 
L 703 4441 
L 1819 4666 
L 2450 4666 
L 2450 531 
L 3481 531 
L 3481 0 
L 794 0 
L 794 531 
z
" id="DejaVuSans-31" transform="scale(0.015625)"/>
       </defs>
       <use xlink:href="#DejaVuSans-31"/>
       <use x="63.623047" xlink:href="#DejaVuSans-30"/>
       <use x="127.246094" xlink:href="#DejaVuSans-30"/>
      </g>
     </g>
    </g>
    <g id="ytick_3">
     <g id="line2d_20">
      <path clip-path="url(#p8b116b9dc1)" d="M 60.17875 151.226279 
L 506.57875 151.226279 
" style="fill:none;stroke:#b0b0b0;stroke-linecap:square;stroke-opacity:0.5;stroke-width:0.8;"/>
     </g>
     <g id="text_20">
      <!-- 200 -->
      <g transform="translate(36 154.645576)scale(0.09 -0.09)">
       <defs>
        <path d="M 1228 531 
L 3431 531 
L 3431 0 
L 469 0 
L 469 531 
Q 828 903 1448 1529 
Q 2069 2156 2228 2338 
Q 2531 2678 2651 2914 
Q 2772 3150 2772 3378 
Q 2772 3750 2511 3984 
Q 2250 4219 1831 4219 
Q 1534 4219 1204 4116 
Q 875 4013 500 3803 
L 500 4441 
Q 881 4594 1212 4672 
Q 1544 4750 1819 4750 
Q 2544 4750 2975 4387 
Q 3406 4025 3406 3419 
Q 3406 3131 3298 2873 
Q 3191 2616 2906 2266 
Q 2828 2175 2409 1742 
Q 1991 1309 1228 531 
z
" id="DejaVuSans-32" transform="scale(0.015625)"/>
       </defs>
       <use xlink:href="#DejaVuSans-32"/>
       <use x="63.623047" xlink:href="#DejaVuSans-30"/>
       <use x="127.246094" xlink:href="#DejaVuSans-30"/>
      </g>
     </g>
    </g>
    <g id="ytick_4">
     <g id="line2d_21">
      <path clip-path="url(#p8b116b9dc1)" d="M 60.17875 96.586249 
L 506.57875 96.586249 
" style="fill:none;stroke:#b0b0b0;stroke-linecap:square;stroke-opacity:0.5;stroke-width:0.8;"/>
     </g>
     <g id="text_21">
      <!-- 300 -->
      <g transform="translate(36 100.005546)scale(0.09 -0.09)">
       <defs>
        <path d="M 2597 2516 
Q 3050 2419 3304 2112 
Q 3559 1806 3559 1356 
Q 3559 666 3084 287 
Q 2609 -91 1734 -91 
Q 1441 -91 1130 -33 
Q 819 25 488 141 
L 488 750 
Q 750 597 1062 519 
Q 1375 441 1716 441 
Q 2309 441 2620 675 
Q 2931 909 2931 1356 
Q 2931 1769 2642 2001 
Q 2353 2234 1838 2234 
L 1294 2234 
L 1294 2753 
L 1863 2753 
Q 2328 2753 2575 2939 
Q 2822 3125 2822 3475 
Q 2822 3834 2567 4026 
Q 2313 4219 1838 4219 
Q 1578 4219 1281 4162 
Q 984 4106 628 3988 
L 628 4550 
Q 988 4650 1302 4700 
Q 1616 4750 1894 4750 
Q 2613 4750 3031 4423 
Q 3450 4097 3450 3541 
Q 3450 3153 3228 2886 
Q 3006 2619 2597 2516 
z
" id="DejaVuSans-33" transform="scale(0.015625)"/>
       </defs>
       <use xlink:href="#DejaVuSans-33"/>
       <use x="63.623047" xlink:href="#DejaVuSans-30"/>
       <use x="127.246094" xlink:href="#DejaVuSans-30"/>
      </g>
     </g>
    </g>
    <g id="ytick_5">
     <g id="line2d_22">
      <path clip-path="url(#p8b116b9dc1)" d="M 60.17875 233.186324 
L 506.57875 233.186324 
" style="fill:none;stroke:#b0b0b0;stroke-linecap:square;stroke-opacity:0.2;stroke-width:0.8;"/>
     </g>
    </g>
    <g id="ytick_6">
     <g id="line2d_23">
      <path clip-path="url(#p8b116b9dc1)" d="M 60.17875 178.546294 
L 506.57875 178.546294 
" style="fill:none;stroke:#b0b0b0;stroke-linecap:square;stroke-opacity:0.2;stroke-width:0.8;"/>
     </g>
    </g>
    <g id="ytick_7">
     <g id="line2d_24">
      <path clip-path="url(#p8b116b9dc1)" d="M 60.17875 123.906264 
L 506.57875 123.906264 
" style="fill:none;stroke:#b0b0b0;stroke-linecap:square;stroke-opacity:0.2;stroke-width:0.8;"/>
     </g>
    </g>
    <g id="ytick_8">
     <g id="line2d_25">
      <path clip-path="url(#p8b116b9dc1)" d="M 60.17875 69.266234 
L 506.57875 69.266234 
" style="fill:none;stroke:#b0b0b0;stroke-linecap:square;stroke-opacity:0.2;stroke-width:0.8;"/>
     </g>
    </g>
   </g>
   <g id="line2d_26">
    <path clip-path="url(#p8b116b9dc1)" d="M 60.17875 219.543135 
L 506.57875 219.543135 
" style="fill:none;stroke:#3cb371;stroke-linecap:square;stroke-width:0.8;"/>
   </g>
   <g id="line2d_27">
    <path clip-path="url(#p8b116b9dc1)" d="M 75.761502 260.278334 
L 77.594766 260.016129 
L 78.511399 259.970528 
L 80.344664 259.651321 
L 83.094561 259.377715 
L 86.761091 258.6823 
L 88.594356 258.23769 
L 90.427621 257.815881 
L 91.344253 257.781681 
L 92.260886 257.587877 
L 95.927415 257.553676 
L 100.510578 257.462474 
L 101.42721 257.724679 
L 102.343842 257.644878 
L 103.260475 257.690479 
L 104.177107 257.872883 
L 106.927005 258.089487 
L 107.843637 257.975485 
L 111.510167 258.066687 
L 113.343432 258.009686 
L 123.426389 258.306092 
L 125.259653 258.351693 
L 131.676081 258.6937 
L 132.592713 258.819103 
L 137.175875 258.807703 
L 139.00914 258.910305 
L 144.508935 259.104109 
L 157.341789 259.354915 
L 160.091686 259.411916 
L 165.591481 259.468917 
L 167.424746 259.560119 
L 171.091276 259.514518 
L 173.841173 259.571519 
L 187.59066 259.639921 
L 191.257189 259.685522 
L 196.756984 259.731123 
L 208.673206 259.62852 
L 210.506471 259.61712 
L 214.173001 259.662721 
L 231.589017 259.788124 
L 236.172179 259.776724 
L 241.671974 259.753923 
L 244.421871 259.62852 
L 246.255136 259.719722 
L 248.088401 259.776724 
L 266.42105 259.867926 
L 268.254315 259.833725 
L 271.004212 259.731123 
L 274.670742 259.548719 
L 275.587374 259.354915 
L 277.420639 259.320714 
L 279.253904 259.12691 
L 280.170536 259.195311 
L 283.837066 258.830503 
L 284.753699 258.819103 
L 285.670331 258.990107 
L 290.253493 258.864704 
L 291.170126 258.796303 
L 292.086758 258.910305 
L 293.920023 258.796303 
L 296.66992 258.967306 
L 298.503185 258.853304 
L 303.086348 259.012907 
L 305.836245 258.944506 
L 306.752877 259.035708 
L 308.586142 259.012907 
L 314.085937 259.332114 
L 315.919202 259.252312 
L 317.752467 259.286513 
L 318.669099 259.434716 
L 322.335629 259.468917 
L 333.335218 259.525918 
L 337.001748 259.434716 
L 339.751645 259.457517 
L 343.418175 259.400515 
L 344.334807 259.537318 
L 349.834602 259.468917 
L 354.417764 259.503118 
L 357.167662 259.332114 
L 359.000927 259.525918 
L 360.834191 259.411916 
L 363.584089 259.457517 
L 377.333575 259.195311 
L 380.083473 259.354915 
L 381.916738 259.240912 
L 382.83337 259.366315 
L 383.750003 259.320714 
L 384.666635 259.389115 
L 387.416532 259.297913 
L 390.16643 259.309314 
L 393.832959 259.457517 
L 396.582857 259.389115 
L 401.166019 259.229512 
L 402.082651 259.389115 
L 404.832549 259.16111 
L 409.415711 259.115509 
L 413.998873 258.853304 
L 416.748771 258.830503 
L 417.665403 258.727901 
L 419.498668 258.739301 
L 423.165198 258.807703 
L 427.74836 258.568298 
L 430.498257 258.488496 
L 432.331522 258.340293 
L 433.248155 258.260491 
L 435.998052 258.420094 
L 439.664582 258.19209 
L 444.247744 258.340293 
L 445.164376 258.328892 
L 446.997641 258.499896 
L 459.830495 258.568298 
L 461.66376 258.739301 
L 464.413658 258.784902 
L 468.080187 259.012907 
L 468.99682 258.910305 
L 470.830085 259.001507 
L 472.66335 259.092709 
L 483.662939 259.411916 
L 485.496204 259.423316 
L 489.162734 259.537318 
L 490.995998 259.514518 
L 491.912631 259.651321 
L 493.745896 259.696922 
L 493.745896 259.696922 
" style="fill:none;stroke:#b22222;stroke-linecap:square;"/>
   </g>
   <g id="line2d_28">
    <path clip-path="url(#p8b116b9dc1)" d="M 75.761502 257.119035 
L 76.678134 255.304407 
L 77.594766 254.193635 
L 78.511399 252.906899 
L 81.261296 247.221066 
L 84.927826 236.894186 
L 85.844458 234.408696 
L 86.761091 232.473093 
L 88.594356 225.896443 
L 89.510988 224.037824 
L 90.427621 222.586122 
L 92.260886 221.541337 
L 93.177518 220.848479 
L 94.09415 219.957662 
L 95.010783 219.594736 
L 95.927415 220.353581 
L 97.76068 221.156416 
L 99.593945 221.420362 
L 100.510578 222.762086 
L 101.42721 224.334763 
L 102.343842 225.632497 
L 103.260475 225.984425 
L 104.177107 227.920028 
L 105.09374 228.315946 
L 106.010372 228.568894 
L 106.927005 229.602682 
L 107.843637 231.043387 
L 110.593534 233.418899 
L 111.510167 233.484885 
L 112.426799 233.726836 
L 113.343432 234.771621 
L 115.176697 236.135341 
L 116.093329 236.53126 
L 117.009961 236.773211 
L 117.926594 236.817201 
L 118.843226 237.059152 
L 120.676491 238.213915 
L 121.593124 239.511648 
L 122.509756 239.896569 
L 124.343021 240.13852 
L 126.176286 241.557229 
L 128.009551 242.162104 
L 128.926183 242.678998 
L 129.842816 242.920949 
L 130.759448 243.019928 
L 131.676081 243.536822 
L 132.592713 244.306664 
L 134.425978 244.900542 
L 135.34261 245.175486 
L 136.259243 245.626393 
L 137.175875 245.637391 
L 138.092508 245.769364 
L 139.00914 246.022312 
L 139.925773 246.572199 
L 142.67567 247.726962 
L 145.425567 248.045897 
L 146.3422 248.386827 
L 147.258832 248.364831 
L 149.092097 248.738755 
L 150.008729 248.782746 
L 150.925362 248.947712 
L 151.841994 249.255648 
L 153.675259 249.574583 
L 154.591892 249.772542 
L 155.508524 250.32243 
L 157.341789 250.498393 
L 159.175054 250.861319 
L 161.008319 250.971296 
L 161.924951 251.224244 
L 163.758216 251.279233 
L 168.341378 252.137057 
L 170.174643 252.203044 
L 172.007908 252.36801 
L 172.924541 252.70894 
L 174.757805 252.884904 
L 176.59107 252.906899 
L 178.424335 253.588759 
L 180.2576 253.709734 
L 182.090865 253.698737 
L 183.92413 253.841707 
L 185.757395 253.885698 
L 188.507292 254.127649 
L 189.423925 254.138646 
L 193.090454 254.677536 
L 196.756984 254.798511 
L 197.673617 255.040461 
L 201.340146 255.128443 
L 202.256779 255.282411 
L 204.090044 255.161436 
L 220.589428 255.139441 
L 223.339325 255.612344 
L 224.255957 255.700326 
L 226.089222 255.601346 
L 232.505649 255.645337 
L 233.422282 255.623342 
L 234.338914 255.480371 
L 235.255547 255.53536 
L 238.005444 255.238421 
L 238.922076 255.249418 
L 239.838709 255.106448 
L 244.421871 255.216425 
L 245.338504 255.799305 
L 247.171768 255.909283 
L 248.088401 255.524362 
L 252.671563 255.018466 
L 253.588196 254.743522 
L 255.42146 254.820506 
L 257.254725 254.534565 
L 258.171358 254.666538 
L 260.004623 254.380597 
L 260.921255 254.457581 
L 262.75452 254.303612 
L 263.671152 254.105653 
L 265.504417 253.907694 
L 267.337682 253.676741 
L 268.254315 253.808714 
L 269.170947 253.73173 
L 270.08758 253.489779 
L 271.004212 253.368804 
L 273.754109 252.719937 
L 274.670742 252.225039 
L 275.587374 252.181048 
L 276.504007 251.719143 
L 277.420639 251.82912 
L 281.087169 250.091477 
L 282.003801 249.9815 
L 286.586964 248.683766 
L 287.503596 248.617779 
L 288.420228 248.188867 
L 289.336861 248.540795 
L 290.253493 248.309843 
L 291.170126 247.880931 
L 293.003391 247.924922 
L 293.920023 247.880931 
L 294.836656 247.550998 
L 295.753288 247.605987 
L 296.66992 248.122881 
L 297.586553 247.946917 
L 298.503185 248.232858 
L 299.419818 248.826737 
L 300.33645 249.057689 
L 302.169715 249.178664 
L 303.086348 249.585581 
L 304.919612 249.651567 
L 305.836245 249.794538 
L 306.752877 250.289436 
L 308.586142 250.993292 
L 309.502775 251.378213 
L 311.33604 251.323224 
L 312.252672 252.005084 
L 313.169304 252.335016 
L 314.085937 252.499983 
L 317.752467 252.565969 
L 318.669099 252.697942 
L 319.585732 252.686944 
L 320.502364 252.884904 
L 322.335629 252.829915 
L 323.252261 252.697942 
L 326.918791 252.928895 
L 327.835424 252.752931 
L 329.668688 252.884904 
L 330.585321 252.862908 
L 331.501953 253.038872 
L 333.335218 253.038872 
L 334.251851 253.225834 
L 336.085116 253.29182 
L 337.91838 252.917897 
L 340.668278 253.324813 
L 342.501543 253.038872 
L 343.418175 252.994881 
L 344.334807 253.368804 
L 346.168072 253.63275 
L 349.834602 253.423793 
L 350.751235 253.29182 
L 351.667867 253.3908 
L 352.584499 253.203838 
L 358.084294 253.005879 
L 360.834191 253.027874 
L 362.667456 252.60996 
L 365.417354 252.466989 
L 369.083883 251.82912 
L 370.000516 251.576172 
L 371.833781 251.356217 
L 372.750413 251.114267 
L 373.667046 251.257238 
L 374.583678 251.14726 
L 376.416943 251.323224 
L 377.333575 251.279233 
L 378.250208 251.598168 
L 380.083473 251.884109 
L 381.916738 251.532181 
L 382.83337 251.818123 
L 386.4999 251.499188 
L 388.333165 251.00429 
L 390.16643 250.90531 
L 391.083062 250.960299 
L 392.916327 250.751341 
L 395.666224 249.88252 
L 400.249387 249.211658 
L 402.082651 248.5188 
L 405.749181 248.056895 
L 406.665814 247.594989 
L 408.499079 247.122086 
L 409.415711 246.891134 
L 411.248976 246.165283 
L 412.165608 245.967323 
L 413.082241 245.318457 
L 414.915506 244.339657 
L 415.832138 244.515621 
L 416.748771 243.745779 
L 417.665403 243.151901 
L 418.582035 242.832967 
L 419.498668 242.162104 
L 420.4153 241.74419 
L 421.331933 241.755188 
L 424.08183 240.908362 
L 424.998463 240.787387 
L 425.915095 240.413463 
L 427.74836 239.35768 
L 428.664992 239.302691 
L 429.581625 238.994755 
L 430.498257 239.137725 
L 431.41489 238.972759 
L 432.331522 238.543847 
L 433.248155 238.444867 
L 434.164787 238.191919 
L 435.081419 238.840786 
L 435.998052 238.851784 
L 436.914684 239.082736 
L 437.831317 238.862782 
L 439.664582 238.059946 
L 440.581214 238.33489 
L 441.497847 238.884777 
L 443.331111 238.884777 
L 444.247744 239.159721 
L 445.164376 238.763802 
L 446.081009 238.587838 
L 449.747539 239.709608 
L 450.664171 240.127522 
L 451.580803 239.577635 
L 452.497436 239.467657 
L 453.414068 239.753599 
L 454.330701 240.292488 
L 457.080598 241.612217 
L 458.913863 241.60122 
L 459.830495 242.129111 
L 460.747128 242.96494 
L 463.497025 244.22968 
L 465.33029 244.22968 
L 468.080187 245.890339 
L 471.746717 246.605192 
L 472.66335 246.759161 
L 474.496614 247.880931 
L 476.329879 248.452813 
L 477.246512 248.386827 
L 478.163144 248.628777 
L 479.079777 249.134673 
L 481.829674 250.014493 
L 482.746306 250.201454 
L 484.579571 250.212452 
L 485.496204 250.795332 
L 486.412836 251.532181 
L 487.329469 251.972091 
L 489.162734 252.302023 
L 490.995998 252.236037 
L 491.912631 252.829915 
L 492.829263 253.159847 
L 493.745896 253.610755 
L 493.745896 253.610755 
" style="fill:none;stroke:#000000;stroke-linecap:square;stroke-width:1.5;"/>
   </g>
   <g id="line2d_29">
    <path clip-path="url(#p8b116b9dc1)" d="M 75.761502 247.134143 
L 76.678134 240.16584 
L 77.594766 236.063007 
L 79.428031 224.210379 
L 80.344664 217.242075 
L 81.261296 209.362031 
L 84.927826 169.983519 
L 86.761091 154.983215 
L 87.677723 142.153722 
L 88.594356 127.479039 
L 89.510988 117.319643 
L 90.427621 108.85348 
L 91.344253 101.472723 
L 92.260886 97.630387 
L 94.09415 86.993413 
L 95.010783 79.135077 
L 95.927415 73.404136 
L 96.844048 68.584936 
L 98.677313 61.5298 
L 99.593945 60.7266 
L 100.510578 57.361842 
L 101.42721 57.557215 
L 102.343842 58.53408 
L 103.260475 59.163616 
L 104.177107 60.791724 
L 106.010372 59.68461 
L 106.927005 61.942254 
L 107.843637 62.246167 
L 110.593534 68.888849 
L 111.510167 69.561801 
L 112.426799 70.842579 
L 113.343432 73.187055 
L 115.176697 78.483834 
L 116.093329 80.155358 
L 117.009961 81.240764 
L 117.926594 81.718342 
L 118.843226 83.69378 
L 119.759859 89.837176 
L 121.593124 100.257069 
L 122.509756 102.53642 
L 123.426389 103.013999 
L 124.343021 103.274496 
L 125.259653 105.011145 
L 126.176286 109.352767 
L 127.092918 112.478735 
L 128.926183 120.380487 
L 129.842816 123.094001 
L 130.759448 124.049158 
L 131.676081 126.806088 
L 133.509345 133.036315 
L 134.425978 134.838088 
L 136.259243 137.855516 
L 137.175875 138.072597 
L 139.00914 143.499624 
L 139.925773 147.580749 
L 141.759037 152.139452 
L 142.67567 154.722717 
L 143.592302 155.504209 
L 145.425567 156.633031 
L 146.3422 160.844405 
L 149.092097 168.225162 
L 150.008729 168.268578 
L 150.925362 169.180319 
L 151.841994 171.437962 
L 152.758627 172.327995 
L 153.675259 173.76073 
L 155.508524 177.711606 
L 156.425157 177.885271 
L 157.341789 178.883844 
L 158.258421 180.815866 
L 159.175054 182.248601 
L 161.924951 185.244321 
L 162.841584 185.396277 
L 163.758216 186.525099 
L 164.674849 188.305164 
L 165.591481 189.108364 
L 166.508113 190.367435 
L 167.424746 192.364581 
L 168.341378 193.102657 
L 169.258011 193.124365 
L 170.174643 193.449986 
L 171.091276 193.905857 
L 172.007908 195.164927 
L 172.924541 197.205489 
L 173.841173 198.486268 
L 174.757805 198.877014 
L 175.674438 198.877014 
L 176.59107 199.26776 
L 177.507703 201.481987 
L 178.424335 203.305468 
L 179.340968 203.913296 
L 180.2576 204.825036 
L 181.174233 204.976993 
L 182.090865 204.998701 
L 183.007497 205.280907 
L 184.840762 205.693361 
L 188.507292 206.822182 
L 189.423925 207.278053 
L 190.340557 207.951004 
L 191.257189 208.320042 
L 192.173822 212.205794 
L 193.090454 213.638529 
L 194.007087 213.942443 
L 194.923719 214.116107 
L 195.840352 214.463437 
L 196.756984 215.201513 
L 197.673617 216.134962 
L 200.423514 216.807913 
L 201.340146 216.829621 
L 202.256779 217.285492 
L 204.090044 217.372324 
L 205.006676 217.980151 
L 208.673206 217.632821 
L 210.506471 217.980151 
L 211.423103 218.132108 
L 212.339736 217.806486 
L 213.256368 217.611113 
L 214.173001 217.611113 
L 215.089633 217.849902 
L 216.006265 218.9136 
L 216.922898 219.000432 
L 219.672795 219.868757 
L 221.50606 220.17267 
L 222.422693 220.563416 
L 223.339325 221.149535 
L 224.255957 221.410033 
L 225.17259 222.191524 
L 226.089222 222.343481 
L 228.83912 222.321773 
L 229.755752 222.213233 
L 231.589017 222.256649 
L 233.422282 221.952735 
L 234.338914 221.475157 
L 235.255547 221.279784 
L 236.172179 221.518573 
L 237.088812 221.084411 
L 238.005444 220.889038 
L 238.922076 220.954162 
L 239.838709 220.86733 
L 240.755341 220.042422 
L 241.671974 219.391178 
L 242.588606 219.282638 
L 243.505239 220.606832 
L 244.421871 222.973016 
L 245.338504 230.180109 
L 246.255136 233.783655 
L 247.171768 234.282942 
L 248.088401 233.240953 
L 249.921666 231.960174 
L 250.838298 230.722812 
L 252.671563 229.724239 
L 253.588196 229.051287 
L 255.42146 227.423179 
L 256.338093 226.793644 
L 257.254725 225.947028 
L 258.171358 225.816779 
L 259.08799 224.88333 
L 260.004623 222.907892 
L 260.921255 221.887611 
L 261.837888 220.259503 
L 262.75452 220.042422 
L 263.671152 219.065557 
L 264.587785 218.805059 
L 265.504417 217.697946 
L 266.42105 216.851329 
L 267.337682 215.852756 
L 268.254315 216.221794 
L 270.08758 213.660237 
L 271.004212 211.663091 
L 271.920844 210.773058 
L 272.837477 208.732496 
L 274.670742 202.719349 
L 275.587374 199.506549 
L 276.504007 195.599089 
L 277.420639 194.10123 
L 278.337272 190.975262 
L 279.253904 186.894137 
L 280.170536 182.161769 
L 281.087169 178.12406 
L 282.920434 171.568211 
L 284.753699 167.769292 
L 285.670331 163.514502 
L 286.586964 157.935518 
L 287.503596 153.962934 
L 288.420228 152.117744 
L 289.336861 151.792123 
L 290.253493 150.880382 
L 291.170126 148.709571 
L 292.086758 148.210284 
L 293.003391 148.058328 
L 293.920023 147.407084 
L 294.836656 146.321679 
L 295.753288 146.104598 
L 297.586553 144.454781 
L 298.503185 145.73556 
L 299.419818 145.648727 
L 300.33645 146.864382 
L 301.253083 147.537333 
L 302.169715 147.450501 
L 303.086348 148.666155 
L 304.00298 148.774695 
L 304.919612 149.534479 
L 305.836245 151.488209 
L 306.752877 152.942652 
L 307.66951 155.243712 
L 309.502775 157.892102 
L 310.419407 157.588188 
L 311.33604 158.413096 
L 314.085937 164.057205 
L 315.002569 165.272859 
L 315.919202 165.793854 
L 316.835834 165.164319 
L 317.752467 165.403108 
L 318.669099 167.33513 
L 319.585732 169.636189 
L 320.502364 171.090633 
L 321.418996 171.958957 
L 322.335629 171.763584 
L 324.168894 170.265725 
L 325.085526 171.633335 
L 326.002159 171.850417 
L 326.918791 173.044363 
L 327.835424 173.608773 
L 328.752056 174.433682 
L 329.668688 173.76073 
L 330.585321 173.739022 
L 331.501953 174.390265 
L 332.418586 173.131195 
L 334.251851 173.391692 
L 335.168483 173.087779 
L 336.085116 172.566784 
L 337.001748 173.30486 
L 337.91838 172.84899 
L 338.835013 172.523368 
L 339.751645 173.348276 
L 340.668278 173.673898 
L 341.58491 173.369984 
L 343.418175 172.132622 
L 344.334807 174.390265 
L 345.25144 174.281725 
L 346.168072 175.453963 
L 348.001337 175.323714 
L 349.834602 174.694179 
L 350.751235 175.323714 
L 351.667867 175.36713 
L 352.584499 174.585638 
L 353.501132 174.932968 
L 354.417764 175.063217 
L 355.334397 174.303433 
L 356.251029 174.042936 
L 357.167662 173.326568 
L 358.084294 173.76073 
L 359.000927 173.739022 
L 359.917559 172.566784 
L 360.834191 172.740449 
L 361.750824 171.741876 
L 363.584089 170.352557 
L 364.500721 169.310568 
L 366.333986 166.814135 
L 367.250619 166.206308 
L 368.167251 164.990654 
L 369.083883 164.599908 
L 370.000516 163.926956 
L 370.917148 162.819843 
L 371.833781 162.646178 
L 372.750413 163.08034 
L 373.667046 164.426243 
L 374.583678 162.73301 
L 375.500311 163.405962 
L 376.416943 165.077486 
L 377.333575 168.073205 
L 378.250208 169.592773 
L 379.16684 171.481379 
L 380.083473 171.416254 
L 381.000105 170.634762 
L 381.916738 171.177465 
L 382.83337 172.089206 
L 383.750003 171.958957 
L 384.666635 174.325141 
L 385.583267 173.977811 
L 386.4999 174.216601 
L 387.416532 173.131195 
L 388.333165 173.087779 
L 389.249797 172.15433 
L 390.16643 172.95753 
L 391.083062 173.087779 
L 391.999695 172.219454 
L 392.916327 172.458244 
L 393.832959 172.089206 
L 394.749592 172.241163 
L 395.666224 171.459671 
L 396.582857 171.763584 
L 399.332754 169.093487 
L 402.082651 164.252578 
L 402.999284 164.773573 
L 403.915916 165.641897 
L 404.832549 165.685313 
L 406.665814 164.187454 
L 407.582446 163.058632 
L 408.499079 162.928383 
L 409.415711 162.407389 
L 410.332343 161.12661 
L 411.248976 161.365399 
L 412.165608 159.129464 
L 414.915506 153.463647 
L 415.832138 152.573615 
L 416.748771 150.880382 
L 417.665403 149.491063 
L 418.582035 149.078609 
L 419.498668 147.710998 
L 420.4153 145.974349 
L 421.331933 143.912079 
L 422.248565 144.2377 
L 423.165198 143.239127 
L 424.08183 142.653008 
L 424.998463 142.566176 
L 425.915095 140.373657 
L 426.831727 138.984337 
L 427.74836 137.291105 
L 428.664992 136.162283 
L 429.581625 135.836661 
L 430.498257 136.900359 
L 431.41489 136.639862 
L 432.331522 136.032034 
L 433.248155 135.120294 
L 434.164787 134.403926 
L 435.081419 134.990045 
L 435.998052 135.836661 
L 436.914684 136.032034 
L 437.831317 136.509613 
L 438.747949 133.622434 
L 439.664582 133.123148 
L 441.497847 135.359083 
L 442.414479 137.681851 
L 443.331111 138.6153 
L 444.247744 138.637008 
L 445.164376 137.768683 
L 446.081009 137.768683 
L 446.997641 138.311386 
L 447.914274 140.048035 
L 448.830906 141.502478 
L 449.747539 144.2377 
L 450.664171 145.062608 
L 451.580803 144.085743 
L 452.497436 144.910652 
L 453.414068 146.19143 
L 454.330701 149.686436 
L 455.247333 151.813831 
L 456.163966 154.310263 
L 457.080598 156.481074 
L 457.99723 156.090328 
L 458.913863 156.524491 
L 459.830495 158.391388 
L 460.747128 162.060059 
L 461.66376 164.469659 
L 462.580393 166.445097 
L 463.497025 167.378546 
L 464.413658 166.792427 
L 465.33029 168.029789 
L 467.163555 172.132622 
L 468.080187 175.019801 
L 468.99682 177.060363 
L 469.913452 178.384558 
L 470.830085 178.601639 
L 471.746717 179.014093 
L 472.66335 180.359996 
L 473.579982 184.224039 
L 474.496614 187.567088 
L 475.413247 189.998397 
L 476.329879 191.561381 
L 477.246512 191.887002 
L 479.079777 195.447133 
L 479.996409 198.095522 
L 480.913042 200.244625 
L 481.829674 202.068106 
L 482.746306 202.589101 
L 483.662939 202.675933 
L 484.579571 204.130377 
L 485.496204 205.845317 
L 486.412836 208.450291 
L 487.329469 210.382312 
L 488.246101 212.032129 
L 489.162734 212.70508 
L 490.079366 212.726788 
L 490.995998 213.182659 
L 491.912631 214.745643 
L 492.829263 217.980151 
L 493.745896 219.543135 
L 493.745896 219.543135 
" style="fill:none;stroke:#3cb371;stroke-linecap:square;stroke-width:3;"/>
   </g>
   <g id="line2d_30">
    <path clip-path="url(#p8b116b9dc1)" d="M 60.17875 260.506339 
L 506.57875 260.506339 
" style="fill:none;stroke:#808080;stroke-linecap:square;stroke-width:0.8;"/>
   </g>
   <g id="line2d_31">
    <path clip-path="url(#p8b116b9dc1)" d="M 340.668278 270.860625 
L 340.668278 64.292625 
" style="fill:none;stroke:#000000;stroke-dasharray:1.85,0.8;stroke-dashoffset:0;stroke-width:0.5;"/>
   </g>
   <g id="text_22">
    <!-- Île-de-France -->
    <g style="fill:#4169e1;" transform="translate(216.89125 49.677188)scale(0.18 -0.18)">
     <defs>
      <path d="M 588 4666 
L 1791 4666 
L 1791 0 
L 588 0 
L 588 4666 
z
M 703 5921 
L 1665 5921 
L 2362 5096 
L 1806 5096 
L 1184 5599 
L 562 5096 
L 6 5096 
L 703 5921 
z
" id="DejaVuSans-Bold-ce" transform="scale(0.015625)"/>
      <path d="M 538 4863 
L 1656 4863 
L 1656 0 
L 538 0 
L 538 4863 
z
" id="DejaVuSans-Bold-6c" transform="scale(0.015625)"/>
      <path d="M 4031 1759 
L 4031 1441 
L 1416 1441 
Q 1456 1047 1700 850 
Q 1944 653 2381 653 
Q 2734 653 3104 758 
Q 3475 863 3866 1075 
L 3866 213 
Q 3469 63 3072 -14 
Q 2675 -91 2278 -91 
Q 1328 -91 801 392 
Q 275 875 275 1747 
Q 275 2603 792 3093 
Q 1309 3584 2216 3584 
Q 3041 3584 3536 3087 
Q 4031 2591 4031 1759 
z
M 2881 2131 
Q 2881 2450 2695 2645 
Q 2509 2841 2209 2841 
Q 1884 2841 1681 2658 
Q 1478 2475 1428 2131 
L 2881 2131 
z
" id="DejaVuSans-Bold-65" transform="scale(0.015625)"/>
      <path d="M 347 2297 
L 2309 2297 
L 2309 1388 
L 347 1388 
L 347 2297 
z
" id="DejaVuSans-Bold-2d" transform="scale(0.015625)"/>
      <path d="M 2919 2988 
L 2919 4863 
L 4044 4863 
L 4044 0 
L 2919 0 
L 2919 506 
Q 2688 197 2409 53 
Q 2131 -91 1766 -91 
Q 1119 -91 703 423 
Q 288 938 288 1747 
Q 288 2556 703 3070 
Q 1119 3584 1766 3584 
Q 2128 3584 2408 3439 
Q 2688 3294 2919 2988 
z
M 2181 722 
Q 2541 722 2730 984 
Q 2919 1247 2919 1747 
Q 2919 2247 2730 2509 
Q 2541 2772 2181 2772 
Q 1825 2772 1636 2509 
Q 1447 2247 1447 1747 
Q 1447 1247 1636 984 
Q 1825 722 2181 722 
z
" id="DejaVuSans-Bold-64" transform="scale(0.015625)"/>
      <path d="M 588 4666 
L 3834 4666 
L 3834 3756 
L 1791 3756 
L 1791 2888 
L 3713 2888 
L 3713 1978 
L 1791 1978 
L 1791 0 
L 588 0 
L 588 4666 
z
" id="DejaVuSans-Bold-46" transform="scale(0.015625)"/>
      <path d="M 3138 2547 
Q 2991 2616 2845 2648 
Q 2700 2681 2553 2681 
Q 2122 2681 1889 2404 
Q 1656 2128 1656 1613 
L 1656 0 
L 538 0 
L 538 3500 
L 1656 3500 
L 1656 2925 
Q 1872 3269 2151 3426 
Q 2431 3584 2822 3584 
Q 2878 3584 2943 3579 
Q 3009 3575 3134 3559 
L 3138 2547 
z
" id="DejaVuSans-Bold-72" transform="scale(0.015625)"/>
      <path d="M 2106 1575 
Q 1756 1575 1579 1456 
Q 1403 1338 1403 1106 
Q 1403 894 1545 773 
Q 1688 653 1941 653 
Q 2256 653 2472 879 
Q 2688 1106 2688 1447 
L 2688 1575 
L 2106 1575 
z
M 3816 1997 
L 3816 0 
L 2688 0 
L 2688 519 
Q 2463 200 2181 54 
Q 1900 -91 1497 -91 
Q 953 -91 614 226 
Q 275 544 275 1050 
Q 275 1666 698 1953 
Q 1122 2241 2028 2241 
L 2688 2241 
L 2688 2328 
Q 2688 2594 2478 2717 
Q 2269 2841 1825 2841 
Q 1466 2841 1156 2769 
Q 847 2697 581 2553 
L 581 3406 
Q 941 3494 1303 3539 
Q 1666 3584 2028 3584 
Q 2975 3584 3395 3211 
Q 3816 2838 3816 1997 
z
" id="DejaVuSans-Bold-61" transform="scale(0.015625)"/>
      <path d="M 4056 2131 
L 4056 0 
L 2931 0 
L 2931 347 
L 2931 1631 
Q 2931 2084 2911 2256 
Q 2891 2428 2841 2509 
Q 2775 2619 2662 2680 
Q 2550 2741 2406 2741 
Q 2056 2741 1856 2470 
Q 1656 2200 1656 1722 
L 1656 0 
L 538 0 
L 538 3500 
L 1656 3500 
L 1656 2988 
Q 1909 3294 2193 3439 
Q 2478 3584 2822 3584 
Q 3428 3584 3742 3212 
Q 4056 2841 4056 2131 
z
" id="DejaVuSans-Bold-6e" transform="scale(0.015625)"/>
      <path d="M 3366 3391 
L 3366 2478 
Q 3138 2634 2908 2709 
Q 2678 2784 2431 2784 
Q 1963 2784 1702 2511 
Q 1441 2238 1441 1747 
Q 1441 1256 1702 982 
Q 1963 709 2431 709 
Q 2694 709 2930 787 
Q 3166 866 3366 1019 
L 3366 103 
Q 3103 6 2833 -42 
Q 2563 -91 2291 -91 
Q 1344 -91 809 395 
Q 275 881 275 1747 
Q 275 2613 809 3098 
Q 1344 3584 2291 3584 
Q 2566 3584 2833 3536 
Q 3100 3488 3366 3391 
z
" id="DejaVuSans-Bold-63" transform="scale(0.015625)"/>
     </defs>
     <use xlink:href="#DejaVuSans-Bold-ce"/>
     <use x="37.207031" xlink:href="#DejaVuSans-Bold-6c"/>
     <use x="71.484375" xlink:href="#DejaVuSans-Bold-65"/>
     <use x="139.306641" xlink:href="#DejaVuSans-Bold-2d"/>
     <use x="180.810547" xlink:href="#DejaVuSans-Bold-64"/>
     <use x="252.392578" xlink:href="#DejaVuSans-Bold-65"/>
     <use x="320.214844" xlink:href="#DejaVuSans-Bold-2d"/>
     <use x="361.71875" xlink:href="#DejaVuSans-Bold-46"/>
     <use x="423.654297" xlink:href="#DejaVuSans-Bold-72"/>
     <use x="472.970703" xlink:href="#DejaVuSans-Bold-61"/>
     <use x="540.451172" xlink:href="#DejaVuSans-Bold-6e"/>
     <use x="611.642578" xlink:href="#DejaVuSans-Bold-63"/>
     <use x="670.919922" xlink:href="#DejaVuSans-Bold-65"/>
    </g>
   </g>
   <g id="legend_1">
    <g id="patch_6">
     <path d="M 421.385938 115.690375 
L 543.51875 115.690375 
Q 545.71875 115.690375 545.71875 113.490375 
L 545.71875 39.376625 
Q 545.71875 37.176625 543.51875 37.176625 
L 421.385938 37.176625 
Q 419.185938 37.176625 419.185938 39.376625 
L 419.185938 113.490375 
Q 419.185938 115.690375 421.385938 115.690375 
z
" style="fill:#ffffff;opacity:0.8;stroke:#cccccc;stroke-linejoin:miter;"/>
    </g>
    <g id="text_23">
     <!-- Patients hospitalisés, -->
     <g transform="translate(429.776563 49.575062)scale(0.1 -0.1)">
      <defs>
       <path d="M 1259 4147 
L 1259 2394 
L 2053 2394 
Q 2494 2394 2734 2622 
Q 2975 2850 2975 3272 
Q 2975 3691 2734 3919 
Q 2494 4147 2053 4147 
L 1259 4147 
z
M 628 4666 
L 2053 4666 
Q 2838 4666 3239 4311 
Q 3641 3956 3641 3272 
Q 3641 2581 3239 2228 
Q 2838 1875 2053 1875 
L 1259 1875 
L 1259 0 
L 628 0 
L 628 4666 
z
" id="DejaVuSans-50" transform="scale(0.015625)"/>
       <path id="DejaVuSans-20" transform="scale(0.015625)"/>
       <path d="M 3513 2113 
L 3513 0 
L 2938 0 
L 2938 2094 
Q 2938 2591 2744 2837 
Q 2550 3084 2163 3084 
Q 1697 3084 1428 2787 
Q 1159 2491 1159 1978 
L 1159 0 
L 581 0 
L 581 4863 
L 1159 4863 
L 1159 2956 
Q 1366 3272 1645 3428 
Q 1925 3584 2291 3584 
Q 2894 3584 3203 3211 
Q 3513 2838 3513 2113 
z
" id="DejaVuSans-68" transform="scale(0.015625)"/>
       <path d="M 750 794 
L 1409 794 
L 1409 256 
L 897 -744 
L 494 -744 
L 750 256 
L 750 794 
z
" id="DejaVuSans-2c" transform="scale(0.015625)"/>
      </defs>
      <use xlink:href="#DejaVuSans-50"/>
      <use x="55.802734" xlink:href="#DejaVuSans-61"/>
      <use x="117.082031" xlink:href="#DejaVuSans-74"/>
      <use x="156.291016" xlink:href="#DejaVuSans-69"/>
      <use x="184.074219" xlink:href="#DejaVuSans-65"/>
      <use x="245.597656" xlink:href="#DejaVuSans-6e"/>
      <use x="308.976562" xlink:href="#DejaVuSans-74"/>
      <use x="348.185547" xlink:href="#DejaVuSans-73"/>
      <use x="400.285156" xlink:href="#DejaVuSans-20"/>
      <use x="432.072266" xlink:href="#DejaVuSans-68"/>
      <use x="495.451172" xlink:href="#DejaVuSans-6f"/>
      <use x="556.632812" xlink:href="#DejaVuSans-73"/>
      <use x="608.732422" xlink:href="#DejaVuSans-70"/>
      <use x="672.208984" xlink:href="#DejaVuSans-69"/>
      <use x="699.992188" xlink:href="#DejaVuSans-74"/>
      <use x="739.201172" xlink:href="#DejaVuSans-61"/>
      <use x="800.480469" xlink:href="#DejaVuSans-6c"/>
      <use x="828.263672" xlink:href="#DejaVuSans-69"/>
      <use x="856.046875" xlink:href="#DejaVuSans-73"/>
      <use x="908.146484" xlink:href="#DejaVuSans-e9"/>
      <use x="969.669922" xlink:href="#DejaVuSans-73"/>
      <use x="1021.769531" xlink:href="#DejaVuSans-2c"/>
     </g>
     <!-- pour 100 000 habitants -->
     <g transform="translate(423.585938 60.772875)scale(0.1 -0.1)">
      <defs>
       <path d="M 3116 1747 
Q 3116 2381 2855 2742 
Q 2594 3103 2138 3103 
Q 1681 3103 1420 2742 
Q 1159 2381 1159 1747 
Q 1159 1113 1420 752 
Q 1681 391 2138 391 
Q 2594 391 2855 752 
Q 3116 1113 3116 1747 
z
M 1159 2969 
Q 1341 3281 1617 3432 
Q 1894 3584 2278 3584 
Q 2916 3584 3314 3078 
Q 3713 2572 3713 1747 
Q 3713 922 3314 415 
Q 2916 -91 2278 -91 
Q 1894 -91 1617 61 
Q 1341 213 1159 525 
L 1159 0 
L 581 0 
L 581 4863 
L 1159 4863 
L 1159 2969 
z
" id="DejaVuSans-62" transform="scale(0.015625)"/>
      </defs>
      <use xlink:href="#DejaVuSans-70"/>
      <use x="63.476562" xlink:href="#DejaVuSans-6f"/>
      <use x="124.658203" xlink:href="#DejaVuSans-75"/>
      <use x="188.037109" xlink:href="#DejaVuSans-72"/>
      <use x="229.150391" xlink:href="#DejaVuSans-20"/>
      <use x="260.9375" xlink:href="#DejaVuSans-31"/>
      <use x="324.560547" xlink:href="#DejaVuSans-30"/>
      <use x="388.183594" xlink:href="#DejaVuSans-30"/>
      <use x="451.806641" xlink:href="#DejaVuSans-20"/>
      <use x="483.59375" xlink:href="#DejaVuSans-30"/>
      <use x="547.216797" xlink:href="#DejaVuSans-30"/>
      <use x="610.839844" xlink:href="#DejaVuSans-30"/>
      <use x="674.462891" xlink:href="#DejaVuSans-20"/>
      <use x="706.25" xlink:href="#DejaVuSans-68"/>
      <use x="769.628906" xlink:href="#DejaVuSans-61"/>
      <use x="830.908203" xlink:href="#DejaVuSans-62"/>
      <use x="894.384766" xlink:href="#DejaVuSans-69"/>
      <use x="922.167969" xlink:href="#DejaVuSans-74"/>
      <use x="961.376953" xlink:href="#DejaVuSans-61"/>
      <use x="1022.65625" xlink:href="#DejaVuSans-6e"/>
      <use x="1086.035156" xlink:href="#DejaVuSans-74"/>
      <use x="1125.244141" xlink:href="#DejaVuSans-73"/>
     </g>
    </g>
    <g id="line2d_32">
     <path d="M 436.589219 72.860844 
L 458.589219 72.860844 
" style="fill:none;stroke:#b22222;stroke-linecap:square;"/>
    </g>
    <g id="line2d_33"/>
    <g id="text_24">
     <!-- 0-29 ans -->
     <g transform="translate(464.089219 76.710844)scale(0.11 -0.11)">
      <defs>
       <path d="M 313 2009 
L 1997 2009 
L 1997 1497 
L 313 1497 
L 313 2009 
z
" id="DejaVuSans-2d" transform="scale(0.015625)"/>
       <path d="M 703 97 
L 703 672 
Q 941 559 1184 500 
Q 1428 441 1663 441 
Q 2288 441 2617 861 
Q 2947 1281 2994 2138 
Q 2813 1869 2534 1725 
Q 2256 1581 1919 1581 
Q 1219 1581 811 2004 
Q 403 2428 403 3163 
Q 403 3881 828 4315 
Q 1253 4750 1959 4750 
Q 2769 4750 3195 4129 
Q 3622 3509 3622 2328 
Q 3622 1225 3098 567 
Q 2575 -91 1691 -91 
Q 1453 -91 1209 -44 
Q 966 3 703 97 
z
M 1959 2075 
Q 2384 2075 2632 2365 
Q 2881 2656 2881 3163 
Q 2881 3666 2632 3958 
Q 2384 4250 1959 4250 
Q 1534 4250 1286 3958 
Q 1038 3666 1038 3163 
Q 1038 2656 1286 2365 
Q 1534 2075 1959 2075 
z
" id="DejaVuSans-39" transform="scale(0.015625)"/>
      </defs>
      <use xlink:href="#DejaVuSans-30"/>
      <use x="63.623047" xlink:href="#DejaVuSans-2d"/>
      <use x="99.707031" xlink:href="#DejaVuSans-32"/>
      <use x="163.330078" xlink:href="#DejaVuSans-39"/>
      <use x="226.953125" xlink:href="#DejaVuSans-20"/>
      <use x="258.740234" xlink:href="#DejaVuSans-61"/>
      <use x="320.019531" xlink:href="#DejaVuSans-6e"/>
      <use x="383.398438" xlink:href="#DejaVuSans-73"/>
     </g>
    </g>
    <g id="line2d_34">
     <path d="M 436.589219 89.006781 
L 458.589219 89.006781 
" style="fill:none;stroke:#000000;stroke-linecap:square;stroke-width:1.5;"/>
    </g>
    <g id="line2d_35"/>
    <g id="text_25">
     <!-- 30-59 ans -->
     <g transform="translate(464.089219 92.856781)scale(0.11 -0.11)">
      <defs>
       <path d="M 691 4666 
L 3169 4666 
L 3169 4134 
L 1269 4134 
L 1269 2991 
Q 1406 3038 1543 3061 
Q 1681 3084 1819 3084 
Q 2600 3084 3056 2656 
Q 3513 2228 3513 1497 
Q 3513 744 3044 326 
Q 2575 -91 1722 -91 
Q 1428 -91 1123 -41 
Q 819 9 494 109 
L 494 744 
Q 775 591 1075 516 
Q 1375 441 1709 441 
Q 2250 441 2565 725 
Q 2881 1009 2881 1497 
Q 2881 1984 2565 2268 
Q 2250 2553 1709 2553 
Q 1456 2553 1204 2497 
Q 953 2441 691 2322 
L 691 4666 
z
" id="DejaVuSans-35" transform="scale(0.015625)"/>
      </defs>
      <use xlink:href="#DejaVuSans-33"/>
      <use x="63.623047" xlink:href="#DejaVuSans-30"/>
      <use x="127.246094" xlink:href="#DejaVuSans-2d"/>
      <use x="163.330078" xlink:href="#DejaVuSans-35"/>
      <use x="226.953125" xlink:href="#DejaVuSans-39"/>
      <use x="290.576172" xlink:href="#DejaVuSans-20"/>
      <use x="322.363281" xlink:href="#DejaVuSans-61"/>
      <use x="383.642578" xlink:href="#DejaVuSans-6e"/>
      <use x="447.021484" xlink:href="#DejaVuSans-73"/>
     </g>
    </g>
    <g id="line2d_36">
     <path d="M 436.589219 105.152719 
L 458.589219 105.152719 
" style="fill:none;stroke:#3cb371;stroke-linecap:square;stroke-width:3;"/>
    </g>
    <g id="line2d_37"/>
    <g id="text_26">
     <!-- 60 ans et + -->
     <g transform="translate(464.089219 109.002719)scale(0.11 -0.11)">
      <defs>
       <path d="M 2113 2584 
Q 1688 2584 1439 2293 
Q 1191 2003 1191 1497 
Q 1191 994 1439 701 
Q 1688 409 2113 409 
Q 2538 409 2786 701 
Q 3034 994 3034 1497 
Q 3034 2003 2786 2293 
Q 2538 2584 2113 2584 
z
M 3366 4563 
L 3366 3988 
Q 3128 4100 2886 4159 
Q 2644 4219 2406 4219 
Q 1781 4219 1451 3797 
Q 1122 3375 1075 2522 
Q 1259 2794 1537 2939 
Q 1816 3084 2150 3084 
Q 2853 3084 3261 2657 
Q 3669 2231 3669 1497 
Q 3669 778 3244 343 
Q 2819 -91 2113 -91 
Q 1303 -91 875 529 
Q 447 1150 447 2328 
Q 447 3434 972 4092 
Q 1497 4750 2381 4750 
Q 2619 4750 2861 4703 
Q 3103 4656 3366 4563 
z
" id="DejaVuSans-36" transform="scale(0.015625)"/>
       <path d="M 2944 4013 
L 2944 2272 
L 4684 2272 
L 4684 1741 
L 2944 1741 
L 2944 0 
L 2419 0 
L 2419 1741 
L 678 1741 
L 678 2272 
L 2419 2272 
L 2419 4013 
L 2944 4013 
z
" id="DejaVuSans-2b" transform="scale(0.015625)"/>
      </defs>
      <use xlink:href="#DejaVuSans-36"/>
      <use x="63.623047" xlink:href="#DejaVuSans-30"/>
      <use x="127.246094" xlink:href="#DejaVuSans-20"/>
      <use x="159.033203" xlink:href="#DejaVuSans-61"/>
      <use x="220.3125" xlink:href="#DejaVuSans-6e"/>
      <use x="283.691406" xlink:href="#DejaVuSans-73"/>
      <use x="335.791016" xlink:href="#DejaVuSans-20"/>
      <use x="367.578125" xlink:href="#DejaVuSans-65"/>
      <use x="429.101562" xlink:href="#DejaVuSans-74"/>
      <use x="468.310547" xlink:href="#DejaVuSans-20"/>
      <use x="500.097656" xlink:href="#DejaVuSans-2b"/>
     </g>
    </g>
   </g>
  </g>
 </g>
 <defs>
  <clipPath id="p8b116b9dc1">
   <rect height="217.44" width="446.4" x="60.17875" y="53.420625"/>
  </clipPath>
 </defs>
</svg>
