<?xml version="1.0" encoding="utf-8" standalone="no"?>
<!DOCTYPE svg PUBLIC "-//W3C//DTD SVG 1.1//EN"
  "http://www.w3.org/Graphics/SVG/1.1/DTD/svg11.dtd">
<svg height="466.476084pt" version="1.1" viewBox="0 0 930.15452 466.476084" width="930.15452pt" xmlns="http://www.w3.org/2000/svg" xmlns:xlink="http://www.w3.org/1999/xlink">
 <metadata>
  <rdf:RDF xmlns:cc="http://creativecommons.org/ns#" xmlns:dc="http://purl.org/dc/elements/1.1/" xmlns:rdf="http://www.w3.org/1999/02/22-rdf-syntax-ns#">
   <cc:Work>
    <dc:type rdf:resource="http://purl.org/dc/dcmitype/StillImage"/>
    <dc:date>2021-04-27T21:20:27.671057</dc:date>
    <dc:format>image/svg+xml</dc:format>
    <dc:creator>
     <cc:Agent>
      <dc:title>Matplotlib v3.4.1, https://matplotlib.org/</dc:title>
     </cc:Agent>
    </dc:creator>
   </cc:Work>
  </rdf:RDF>
 </metadata>
 <defs>
  <style type="text/css">*{stroke-linecap:butt;stroke-linejoin:round;}</style>
 </defs>
 <g id="figure_1">
  <g id="patch_1">
   <path d="M 0 466.476084 
L 930.15452 466.476084 
L 930.15452 -0 
L 0 -0 
z
" style="fill:#ffffff;"/>
  </g>
  <g id="axes_1">
   <g id="patch_2">
    <path d="M 54.4525 338.180904 
L 309.794576 338.180904 
L 309.794576 251.722275 
L 54.4525 251.722275 
z
" style="fill:none;opacity:0;"/>
   </g>
   <g id="patch_3">
    <path clip-path="url(#p86ceb7e44b)" d="M 63.392266 338.180904 
L 63.392266 256.045207 
L 93.563978 256.045207 
L 93.563978 338.180904 
z
" style="fill:#808080;opacity:0.15;stroke:#808080;stroke-linejoin:miter;"/>
   </g>
   <g id="patch_4">
    <path clip-path="url(#p86ceb7e44b)" d="M 190.225201 338.180904 
L 190.225201 256.045207 
L 215.92703 256.045207 
L 215.92703 338.180904 
z
" style="fill:#808080;opacity:0.15;stroke:#808080;stroke-linejoin:miter;"/>
   </g>
   <g id="patch_5">
    <path clip-path="url(#p86ceb7e44b)" d="M 277.946659 338.180904 
L 277.946659 256.045207 
L 293.032514 256.045207 
L 293.032514 338.180904 
z
" style="fill:#808080;opacity:0.15;stroke:#808080;stroke-linejoin:miter;"/>
   </g>
   <g id="matplotlib.axis_1">
    <g id="xtick_1">
     <g id="line2d_1">
      <defs>
       <path d="M 0 0 
L 0 3.5 
" id="mb440546f51" style="stroke:#000000;stroke-width:0.8;"/>
      </defs>
      <g>
       <use style="stroke:#000000;stroke-width:0.8;" x="54.4525" xlink:href="#mb440546f51" y="338.180904"/>
      </g>
     </g>
     <g id="text_1">
      <!-- mars -->
      <g transform="translate(43.257895 366.046742)rotate(-45)scale(0.09 -0.09)">
       <defs>
        <path d="M 3328 2828 
Q 3544 3216 3844 3400 
Q 4144 3584 4550 3584 
Q 5097 3584 5394 3201 
Q 5691 2819 5691 2113 
L 5691 0 
L 5113 0 
L 5113 2094 
Q 5113 2597 4934 2840 
Q 4756 3084 4391 3084 
Q 3944 3084 3684 2787 
Q 3425 2491 3425 1978 
L 3425 0 
L 2847 0 
L 2847 2094 
Q 2847 2600 2669 2842 
Q 2491 3084 2119 3084 
Q 1678 3084 1418 2786 
Q 1159 2488 1159 1978 
L 1159 0 
L 581 0 
L 581 3500 
L 1159 3500 
L 1159 2956 
Q 1356 3278 1631 3431 
Q 1906 3584 2284 3584 
Q 2666 3584 2933 3390 
Q 3200 3197 3328 2828 
z
" id="DejaVuSans-6d" transform="scale(0.015625)"/>
        <path d="M 2194 1759 
Q 1497 1759 1228 1600 
Q 959 1441 959 1056 
Q 959 750 1161 570 
Q 1363 391 1709 391 
Q 2188 391 2477 730 
Q 2766 1069 2766 1631 
L 2766 1759 
L 2194 1759 
z
M 3341 1997 
L 3341 0 
L 2766 0 
L 2766 531 
Q 2569 213 2275 61 
Q 1981 -91 1556 -91 
Q 1019 -91 701 211 
Q 384 513 384 1019 
Q 384 1609 779 1909 
Q 1175 2209 1959 2209 
L 2766 2209 
L 2766 2266 
Q 2766 2663 2505 2880 
Q 2244 3097 1772 3097 
Q 1472 3097 1187 3025 
Q 903 2953 641 2809 
L 641 3341 
Q 956 3463 1253 3523 
Q 1550 3584 1831 3584 
Q 2591 3584 2966 3190 
Q 3341 2797 3341 1997 
z
" id="DejaVuSans-61" transform="scale(0.015625)"/>
        <path d="M 2631 2963 
Q 2534 3019 2420 3045 
Q 2306 3072 2169 3072 
Q 1681 3072 1420 2755 
Q 1159 2438 1159 1844 
L 1159 0 
L 581 0 
L 581 3500 
L 1159 3500 
L 1159 2956 
Q 1341 3275 1631 3429 
Q 1922 3584 2338 3584 
Q 2397 3584 2469 3576 
Q 2541 3569 2628 3553 
L 2631 2963 
z
" id="DejaVuSans-72" transform="scale(0.015625)"/>
        <path d="M 2834 3397 
L 2834 2853 
Q 2591 2978 2328 3040 
Q 2066 3103 1784 3103 
Q 1356 3103 1142 2972 
Q 928 2841 928 2578 
Q 928 2378 1081 2264 
Q 1234 2150 1697 2047 
L 1894 2003 
Q 2506 1872 2764 1633 
Q 3022 1394 3022 966 
Q 3022 478 2636 193 
Q 2250 -91 1575 -91 
Q 1294 -91 989 -36 
Q 684 19 347 128 
L 347 722 
Q 666 556 975 473 
Q 1284 391 1588 391 
Q 1994 391 2212 530 
Q 2431 669 2431 922 
Q 2431 1156 2273 1281 
Q 2116 1406 1581 1522 
L 1381 1569 
Q 847 1681 609 1914 
Q 372 2147 372 2553 
Q 372 3047 722 3315 
Q 1072 3584 1716 3584 
Q 2034 3584 2315 3537 
Q 2597 3491 2834 3397 
z
" id="DejaVuSans-73" transform="scale(0.015625)"/>
       </defs>
       <use xlink:href="#DejaVuSans-6d"/>
       <use x="97.412109" xlink:href="#DejaVuSans-61"/>
       <use x="158.691406" xlink:href="#DejaVuSans-72"/>
       <use x="199.804688" xlink:href="#DejaVuSans-73"/>
      </g>
     </g>
    </g>
    <g id="xtick_2">
     <g id="line2d_2">
      <g>
       <use style="stroke:#000000;stroke-width:0.8;" x="88.535359" xlink:href="#mb440546f51" y="338.180904"/>
      </g>
     </g>
     <g id="text_2">
      <!-- mai -->
      <g transform="translate(81.504177 361.883319)rotate(-45)scale(0.09 -0.09)">
       <defs>
        <path d="M 603 3500 
L 1178 3500 
L 1178 0 
L 603 0 
L 603 3500 
z
M 603 4863 
L 1178 4863 
L 1178 4134 
L 603 4134 
L 603 4863 
z
" id="DejaVuSans-69" transform="scale(0.015625)"/>
       </defs>
       <use xlink:href="#DejaVuSans-6d"/>
       <use x="97.412109" xlink:href="#DejaVuSans-61"/>
       <use x="158.691406" xlink:href="#DejaVuSans-69"/>
      </g>
     </g>
    </g>
    <g id="xtick_3">
     <g id="line2d_3">
      <g>
       <use style="stroke:#000000;stroke-width:0.8;" x="122.618218" xlink:href="#mb440546f51" y="338.180904"/>
      </g>
     </g>
     <g id="text_3">
      <!-- juil. -->
      <g transform="translate(116.094164 361.376191)rotate(-45)scale(0.09 -0.09)">
       <defs>
        <path d="M 603 3500 
L 1178 3500 
L 1178 -63 
Q 1178 -731 923 -1031 
Q 669 -1331 103 -1331 
L -116 -1331 
L -116 -844 
L 38 -844 
Q 366 -844 484 -692 
Q 603 -541 603 -63 
L 603 3500 
z
M 603 4863 
L 1178 4863 
L 1178 4134 
L 603 4134 
L 603 4863 
z
" id="DejaVuSans-6a" transform="scale(0.015625)"/>
        <path d="M 544 1381 
L 544 3500 
L 1119 3500 
L 1119 1403 
Q 1119 906 1312 657 
Q 1506 409 1894 409 
Q 2359 409 2629 706 
Q 2900 1003 2900 1516 
L 2900 3500 
L 3475 3500 
L 3475 0 
L 2900 0 
L 2900 538 
Q 2691 219 2414 64 
Q 2138 -91 1772 -91 
Q 1169 -91 856 284 
Q 544 659 544 1381 
z
M 1991 3584 
L 1991 3584 
z
" id="DejaVuSans-75" transform="scale(0.015625)"/>
        <path d="M 603 4863 
L 1178 4863 
L 1178 0 
L 603 0 
L 603 4863 
z
" id="DejaVuSans-6c" transform="scale(0.015625)"/>
        <path d="M 684 794 
L 1344 794 
L 1344 0 
L 684 0 
L 684 794 
z
" id="DejaVuSans-2e" transform="scale(0.015625)"/>
       </defs>
       <use xlink:href="#DejaVuSans-6a"/>
       <use x="27.783203" xlink:href="#DejaVuSans-75"/>
       <use x="91.162109" xlink:href="#DejaVuSans-69"/>
       <use x="118.945312" xlink:href="#DejaVuSans-6c"/>
       <use x="146.728516" xlink:href="#DejaVuSans-2e"/>
      </g>
     </g>
    </g>
    <g id="xtick_4">
     <g id="line2d_4">
      <g>
       <use style="stroke:#000000;stroke-width:0.8;" x="157.259813" xlink:href="#mb440546f51" y="338.180904"/>
      </g>
     </g>
     <g id="text_4">
      <!-- sept. -->
      <g transform="translate(146.306839 365.80511)rotate(-45)scale(0.09 -0.09)">
       <defs>
        <path d="M 3597 1894 
L 3597 1613 
L 953 1613 
Q 991 1019 1311 708 
Q 1631 397 2203 397 
Q 2534 397 2845 478 
Q 3156 559 3463 722 
L 3463 178 
Q 3153 47 2828 -22 
Q 2503 -91 2169 -91 
Q 1331 -91 842 396 
Q 353 884 353 1716 
Q 353 2575 817 3079 
Q 1281 3584 2069 3584 
Q 2775 3584 3186 3129 
Q 3597 2675 3597 1894 
z
M 3022 2063 
Q 3016 2534 2758 2815 
Q 2500 3097 2075 3097 
Q 1594 3097 1305 2825 
Q 1016 2553 972 2059 
L 3022 2063 
z
" id="DejaVuSans-65" transform="scale(0.015625)"/>
        <path d="M 1159 525 
L 1159 -1331 
L 581 -1331 
L 581 3500 
L 1159 3500 
L 1159 2969 
Q 1341 3281 1617 3432 
Q 1894 3584 2278 3584 
Q 2916 3584 3314 3078 
Q 3713 2572 3713 1747 
Q 3713 922 3314 415 
Q 2916 -91 2278 -91 
Q 1894 -91 1617 61 
Q 1341 213 1159 525 
z
M 3116 1747 
Q 3116 2381 2855 2742 
Q 2594 3103 2138 3103 
Q 1681 3103 1420 2742 
Q 1159 2381 1159 1747 
Q 1159 1113 1420 752 
Q 1681 391 2138 391 
Q 2594 391 2855 752 
Q 3116 1113 3116 1747 
z
" id="DejaVuSans-70" transform="scale(0.015625)"/>
        <path d="M 1172 4494 
L 1172 3500 
L 2356 3500 
L 2356 3053 
L 1172 3053 
L 1172 1153 
Q 1172 725 1289 603 
Q 1406 481 1766 481 
L 2356 481 
L 2356 0 
L 1766 0 
Q 1100 0 847 248 
Q 594 497 594 1153 
L 594 3053 
L 172 3053 
L 172 3500 
L 594 3500 
L 594 4494 
L 1172 4494 
z
" id="DejaVuSans-74" transform="scale(0.015625)"/>
       </defs>
       <use xlink:href="#DejaVuSans-73"/>
       <use x="52.099609" xlink:href="#DejaVuSans-65"/>
       <use x="113.623047" xlink:href="#DejaVuSans-70"/>
       <use x="177.099609" xlink:href="#DejaVuSans-74"/>
       <use x="216.308594" xlink:href="#DejaVuSans-2e"/>
      </g>
     </g>
    </g>
    <g id="xtick_5">
     <g id="line2d_5">
      <g>
       <use style="stroke:#000000;stroke-width:0.8;" x="191.342672" xlink:href="#mb440546f51" y="338.180904"/>
      </g>
     </g>
     <g id="text_5">
      <!-- nov. -->
      <g transform="translate(182.95517 363.239638)rotate(-45)scale(0.09 -0.09)">
       <defs>
        <path d="M 3513 2113 
L 3513 0 
L 2938 0 
L 2938 2094 
Q 2938 2591 2744 2837 
Q 2550 3084 2163 3084 
Q 1697 3084 1428 2787 
Q 1159 2491 1159 1978 
L 1159 0 
L 581 0 
L 581 3500 
L 1159 3500 
L 1159 2956 
Q 1366 3272 1645 3428 
Q 1925 3584 2291 3584 
Q 2894 3584 3203 3211 
Q 3513 2838 3513 2113 
z
" id="DejaVuSans-6e" transform="scale(0.015625)"/>
        <path d="M 1959 3097 
Q 1497 3097 1228 2736 
Q 959 2375 959 1747 
Q 959 1119 1226 758 
Q 1494 397 1959 397 
Q 2419 397 2687 759 
Q 2956 1122 2956 1747 
Q 2956 2369 2687 2733 
Q 2419 3097 1959 3097 
z
M 1959 3584 
Q 2709 3584 3137 3096 
Q 3566 2609 3566 1747 
Q 3566 888 3137 398 
Q 2709 -91 1959 -91 
Q 1206 -91 779 398 
Q 353 888 353 1747 
Q 353 2609 779 3096 
Q 1206 3584 1959 3584 
z
" id="DejaVuSans-6f" transform="scale(0.015625)"/>
        <path d="M 191 3500 
L 800 3500 
L 1894 563 
L 2988 3500 
L 3597 3500 
L 2284 0 
L 1503 0 
L 191 3500 
z
" id="DejaVuSans-76" transform="scale(0.015625)"/>
       </defs>
       <use xlink:href="#DejaVuSans-6e"/>
       <use x="63.378906" xlink:href="#DejaVuSans-6f"/>
       <use x="124.560547" xlink:href="#DejaVuSans-76"/>
       <use x="175.990234" xlink:href="#DejaVuSans-2e"/>
      </g>
     </g>
    </g>
    <g id="xtick_6">
     <g id="line2d_6">
      <g>
       <use style="stroke:#000000;stroke-width:0.8;" x="225.425531" xlink:href="#mb440546f51" y="338.180904"/>
      </g>
     </g>
     <g id="text_6">
      <!-- janv. -->
      <g transform="translate(215.264076 365.013592)rotate(-45)scale(0.09 -0.09)">
       <use xlink:href="#DejaVuSans-6a"/>
       <use x="27.783203" xlink:href="#DejaVuSans-61"/>
       <use x="89.0625" xlink:href="#DejaVuSans-6e"/>
       <use x="152.441406" xlink:href="#DejaVuSans-76"/>
       <use x="203.871094" xlink:href="#DejaVuSans-2e"/>
      </g>
     </g>
    </g>
    <g id="xtick_7">
     <g id="line2d_7">
      <g>
       <use style="stroke:#000000;stroke-width:0.8;" x="258.39092" xlink:href="#mb440546f51" y="338.180904"/>
      </g>
     </g>
     <g id="text_7">
      <!-- mars -->
      <g transform="translate(247.196315 366.046742)rotate(-45)scale(0.09 -0.09)">
       <use xlink:href="#DejaVuSans-6d"/>
       <use x="97.412109" xlink:href="#DejaVuSans-61"/>
       <use x="158.691406" xlink:href="#DejaVuSans-72"/>
       <use x="199.804688" xlink:href="#DejaVuSans-73"/>
      </g>
     </g>
    </g>
    <g id="xtick_8">
     <g id="line2d_8">
      <g>
       <use style="stroke:#000000;stroke-width:0.8;" x="292.473779" xlink:href="#mb440546f51" y="338.180904"/>
      </g>
     </g>
     <g id="text_8">
      <!-- mai -->
      <g transform="translate(285.442596 361.883319)rotate(-45)scale(0.09 -0.09)">
       <use xlink:href="#DejaVuSans-6d"/>
       <use x="97.412109" xlink:href="#DejaVuSans-61"/>
       <use x="158.691406" xlink:href="#DejaVuSans-69"/>
      </g>
     </g>
    </g>
   </g>
   <g id="matplotlib.axis_2">
    <g id="ytick_1">
     <g id="line2d_9">
      <path clip-path="url(#p86ceb7e44b)" d="M 54.4525 334.299638 
L 309.794576 334.299638 
" style="fill:none;stroke:#b0b0b0;stroke-linecap:square;stroke-opacity:0.5;stroke-width:0.8;"/>
     </g>
     <g id="text_9">
      <!-- 0 -->
      <g transform="translate(41.72625 337.718935)scale(0.09 -0.09)">
       <defs>
        <path d="M 2034 4250 
Q 1547 4250 1301 3770 
Q 1056 3291 1056 2328 
Q 1056 1369 1301 889 
Q 1547 409 2034 409 
Q 2525 409 2770 889 
Q 3016 1369 3016 2328 
Q 3016 3291 2770 3770 
Q 2525 4250 2034 4250 
z
M 2034 4750 
Q 2819 4750 3233 4129 
Q 3647 3509 3647 2328 
Q 3647 1150 3233 529 
Q 2819 -91 2034 -91 
Q 1250 -91 836 529 
Q 422 1150 422 2328 
Q 422 3509 836 4129 
Q 1250 4750 2034 4750 
z
" id="DejaVuSans-30" transform="scale(0.015625)"/>
       </defs>
       <use xlink:href="#DejaVuSans-30"/>
      </g>
     </g>
    </g>
    <g id="ytick_2">
     <g id="line2d_10">
      <path clip-path="url(#p86ceb7e44b)" d="M 54.4525 295.486973 
L 309.794576 295.486973 
" style="fill:none;stroke:#b0b0b0;stroke-linecap:square;stroke-opacity:0.5;stroke-width:0.8;"/>
     </g>
     <g id="text_10">
      <!-- 20 -->
      <g transform="translate(36 298.906269)scale(0.09 -0.09)">
       <defs>
        <path d="M 1228 531 
L 3431 531 
L 3431 0 
L 469 0 
L 469 531 
Q 828 903 1448 1529 
Q 2069 2156 2228 2338 
Q 2531 2678 2651 2914 
Q 2772 3150 2772 3378 
Q 2772 3750 2511 3984 
Q 2250 4219 1831 4219 
Q 1534 4219 1204 4116 
Q 875 4013 500 3803 
L 500 4441 
Q 881 4594 1212 4672 
Q 1544 4750 1819 4750 
Q 2544 4750 2975 4387 
Q 3406 4025 3406 3419 
Q 3406 3131 3298 2873 
Q 3191 2616 2906 2266 
Q 2828 2175 2409 1742 
Q 1991 1309 1228 531 
z
" id="DejaVuSans-32" transform="scale(0.015625)"/>
       </defs>
       <use xlink:href="#DejaVuSans-32"/>
       <use x="63.623047" xlink:href="#DejaVuSans-30"/>
      </g>
     </g>
    </g>
    <g id="ytick_3">
     <g id="line2d_11">
      <path clip-path="url(#p86ceb7e44b)" d="M 54.4525 256.674307 
L 309.794576 256.674307 
" style="fill:none;stroke:#b0b0b0;stroke-linecap:square;stroke-opacity:0.5;stroke-width:0.8;"/>
     </g>
     <g id="text_11">
      <!-- 40 -->
      <g transform="translate(36 260.093604)scale(0.09 -0.09)">
       <defs>
        <path d="M 2419 4116 
L 825 1625 
L 2419 1625 
L 2419 4116 
z
M 2253 4666 
L 3047 4666 
L 3047 1625 
L 3713 1625 
L 3713 1100 
L 3047 1100 
L 3047 0 
L 2419 0 
L 2419 1100 
L 313 1100 
L 313 1709 
L 2253 4666 
z
" id="DejaVuSans-34" transform="scale(0.015625)"/>
       </defs>
       <use xlink:href="#DejaVuSans-34"/>
       <use x="63.623047" xlink:href="#DejaVuSans-30"/>
      </g>
     </g>
    </g>
    <g id="ytick_4">
     <g id="line2d_12">
      <path clip-path="url(#p86ceb7e44b)" d="M 54.4525 314.893305 
L 309.794576 314.893305 
" style="fill:none;stroke:#b0b0b0;stroke-linecap:square;stroke-opacity:0.2;stroke-width:0.8;"/>
     </g>
    </g>
    <g id="ytick_5">
     <g id="line2d_13">
      <path clip-path="url(#p86ceb7e44b)" d="M 54.4525 276.08064 
L 309.794576 276.08064 
" style="fill:none;stroke:#b0b0b0;stroke-linecap:square;stroke-opacity:0.2;stroke-width:0.8;"/>
     </g>
    </g>
   </g>
   <g id="line2d_14">
    <path clip-path="url(#p86ceb7e44b)" d="M 222.631854 334.299638 
L 250.568624 334.206588 
L 252.803566 334.117768 
L 266.213215 334.007801 
L 276.270453 333.830161 
L 284.092748 333.305699 
L 289.680102 332.76855 
L 289.680102 332.76855 
" style="fill:none;stroke:#b22222;stroke-linecap:square;"/>
   </g>
   <g id="line2d_15">
    <path clip-path="url(#p86ceb7e44b)" d="M 222.631854 334.299638 
L 239.952652 334.276104 
L 241.628858 334.023115 
L 242.746329 333.902504 
L 244.422535 333.461243 
L 245.540006 333.202371 
L 246.098741 333.181779 
L 246.657477 333.040575 
L 247.774947 332.555189 
L 248.892418 332.3022 
L 250.568624 332.213948 
L 251.686095 331.996259 
L 258.39092 331.357903 
L 266.213215 330.643061 
L 269.006892 330.334179 
L 270.683099 330.231218 
L 273.476776 329.866443 
L 275.152982 329.531085 
L 275.711717 329.292805 
L 276.270453 328.845661 
L 277.387923 327.133571 
L 277.946659 326.480506 
L 278.505394 326.062779 
L 282.416542 324.153593 
L 283.534013 323.191646 
L 284.092748 322.900414 
L 284.651484 321.820797 
L 285.210219 321.041238 
L 286.32769 320.429357 
L 288.003896 318.108328 
L 288.562631 316.931634 
L 289.680102 316.328578 
L 289.680102 316.328578 
" style="fill:none;stroke:#000000;stroke-linecap:square;stroke-width:1.5;"/>
   </g>
   <g id="line2d_16">
    <path clip-path="url(#p86ceb7e44b)" d="M 222.631854 334.299638 
L 239.952652 334.257424 
L 241.070123 333.908203 
L 242.746329 333.662597 
L 246.098741 332.403866 
L 247.774947 330.320052 
L 248.892418 328.270777 
L 250.009889 327.656761 
L 250.568624 327.123336 
L 251.12736 326.148587 
L 252.24483 324.912881 
L 252.803566 324.022559 
L 253.362301 323.535185 
L 253.921037 323.304929 
L 254.479772 322.545085 
L 256.714714 318.600038 
L 257.832184 318.120339 
L 258.39092 317.517836 
L 260.067126 314.835358 
L 260.625861 313.979574 
L 262.302068 313.373234 
L 263.419538 312.433023 
L 265.095745 309.865672 
L 265.65448 309.447375 
L 266.213215 308.760445 
L 266.771951 307.52474 
L 267.889422 305.510002 
L 268.448157 305.057166 
L 269.006892 304.174519 
L 271.241834 303.433864 
L 272.359305 302.597268 
L 272.91804 301.960227 
L 274.035511 301.342375 
L 275.152982 299.914789 
L 275.711717 298.533255 
L 277.387923 291.771413 
L 278.505394 288.478757 
L 279.622865 286.287491 
L 281.299071 283.770028 
L 282.416542 281.782154 
L 283.534013 278.896283 
L 284.092748 277.856295 
L 284.651484 275.799344 
L 285.210219 273.266532 
L 286.32769 271.581828 
L 288.562631 264.639619 
L 289.680102 263.519041 
L 289.680102 263.519041 
" style="fill:none;stroke:#ffd700;stroke-linecap:square;stroke-width:3;"/>
   </g>
   <g id="line2d_17">
    <path clip-path="url(#p86ceb7e44b)" d="M 225.425531 338.180904 
L 225.425531 256.045207 
" style="fill:none;stroke:#000000;stroke-dasharray:1.85,0.8;stroke-dashoffset:0;stroke-width:0.5;"/>
   </g>
   <g id="text_12">
    <!-- 2A -->
    <g style="fill:#4169e1;" transform="translate(67.219604 276.927319)scale(0.24 -0.24)">
     <defs>
      <path d="M 1844 884 
L 3897 884 
L 3897 0 
L 506 0 
L 506 884 
L 2209 2388 
Q 2438 2594 2547 2791 
Q 2656 2988 2656 3200 
Q 2656 3528 2436 3728 
Q 2216 3928 1850 3928 
Q 1569 3928 1234 3808 
Q 900 3688 519 3450 
L 519 4475 
Q 925 4609 1322 4679 
Q 1719 4750 2100 4750 
Q 2938 4750 3402 4381 
Q 3866 4013 3866 3353 
Q 3866 2972 3669 2642 
Q 3472 2313 2841 1759 
L 1844 884 
z
" id="DejaVuSans-Bold-32" transform="scale(0.015625)"/>
      <path d="M 3419 850 
L 1538 850 
L 1241 0 
L 31 0 
L 1759 4666 
L 3194 4666 
L 4922 0 
L 3713 0 
L 3419 850 
z
M 1838 1716 
L 3116 1716 
L 2478 3572 
L 1838 1716 
z
" id="DejaVuSans-Bold-41" transform="scale(0.015625)"/>
     </defs>
     <use xlink:href="#DejaVuSans-Bold-32"/>
     <use x="69.580078" xlink:href="#DejaVuSans-Bold-41"/>
    </g>
   </g>
  </g>
  <g id="axes_2">
   <g id="patch_6">
    <path d="M 354.592867 338.180904 
L 609.934944 338.180904 
L 609.934944 251.722275 
L 354.592867 251.722275 
z
" style="fill:none;opacity:0;"/>
   </g>
   <g id="patch_7">
    <path clip-path="url(#p1883b63960)" d="M 363.532634 338.180904 
L 363.532634 256.045207 
L 393.704345 256.045207 
L 393.704345 338.180904 
z
" style="fill:#808080;opacity:0.15;stroke:#808080;stroke-linejoin:miter;"/>
   </g>
   <g id="patch_8">
    <path clip-path="url(#p1883b63960)" d="M 490.365569 338.180904 
L 490.365569 256.045207 
L 516.067397 256.045207 
L 516.067397 338.180904 
z
" style="fill:#808080;opacity:0.15;stroke:#808080;stroke-linejoin:miter;"/>
   </g>
   <g id="patch_9">
    <path clip-path="url(#p1883b63960)" d="M 578.087026 338.180904 
L 578.087026 256.045207 
L 593.172882 256.045207 
L 593.172882 338.180904 
z
" style="fill:#808080;opacity:0.15;stroke:#808080;stroke-linejoin:miter;"/>
   </g>
   <g id="matplotlib.axis_3">
    <g id="xtick_9">
     <g id="line2d_18">
      <g>
       <use style="stroke:#000000;stroke-width:0.8;" x="354.592867" xlink:href="#mb440546f51" y="338.180904"/>
      </g>
     </g>
     <g id="text_13">
      <!-- mars -->
      <g transform="translate(343.398262 366.046742)rotate(-45)scale(0.09 -0.09)">
       <use xlink:href="#DejaVuSans-6d"/>
       <use x="97.412109" xlink:href="#DejaVuSans-61"/>
       <use x="158.691406" xlink:href="#DejaVuSans-72"/>
       <use x="199.804688" xlink:href="#DejaVuSans-73"/>
      </g>
     </g>
    </g>
    <g id="xtick_10">
     <g id="line2d_19">
      <g>
       <use style="stroke:#000000;stroke-width:0.8;" x="388.675726" xlink:href="#mb440546f51" y="338.180904"/>
      </g>
     </g>
     <g id="text_14">
      <!-- mai -->
      <g transform="translate(381.644544 361.883319)rotate(-45)scale(0.09 -0.09)">
       <use xlink:href="#DejaVuSans-6d"/>
       <use x="97.412109" xlink:href="#DejaVuSans-61"/>
       <use x="158.691406" xlink:href="#DejaVuSans-69"/>
      </g>
     </g>
    </g>
    <g id="xtick_11">
     <g id="line2d_20">
      <g>
       <use style="stroke:#000000;stroke-width:0.8;" x="422.758586" xlink:href="#mb440546f51" y="338.180904"/>
      </g>
     </g>
     <g id="text_15">
      <!-- juil. -->
      <g transform="translate(416.234531 361.376191)rotate(-45)scale(0.09 -0.09)">
       <use xlink:href="#DejaVuSans-6a"/>
       <use x="27.783203" xlink:href="#DejaVuSans-75"/>
       <use x="91.162109" xlink:href="#DejaVuSans-69"/>
       <use x="118.945312" xlink:href="#DejaVuSans-6c"/>
       <use x="146.728516" xlink:href="#DejaVuSans-2e"/>
      </g>
     </g>
    </g>
    <g id="xtick_12">
     <g id="line2d_21">
      <g>
       <use style="stroke:#000000;stroke-width:0.8;" x="457.40018" xlink:href="#mb440546f51" y="338.180904"/>
      </g>
     </g>
     <g id="text_16">
      <!-- sept. -->
      <g transform="translate(446.447207 365.80511)rotate(-45)scale(0.09 -0.09)">
       <use xlink:href="#DejaVuSans-73"/>
       <use x="52.099609" xlink:href="#DejaVuSans-65"/>
       <use x="113.623047" xlink:href="#DejaVuSans-70"/>
       <use x="177.099609" xlink:href="#DejaVuSans-74"/>
       <use x="216.308594" xlink:href="#DejaVuSans-2e"/>
      </g>
     </g>
    </g>
    <g id="xtick_13">
     <g id="line2d_22">
      <g>
       <use style="stroke:#000000;stroke-width:0.8;" x="491.48304" xlink:href="#mb440546f51" y="338.180904"/>
      </g>
     </g>
     <g id="text_17">
      <!-- nov. -->
      <g transform="translate(483.095538 363.239638)rotate(-45)scale(0.09 -0.09)">
       <use xlink:href="#DejaVuSans-6e"/>
       <use x="63.378906" xlink:href="#DejaVuSans-6f"/>
       <use x="124.560547" xlink:href="#DejaVuSans-76"/>
       <use x="175.990234" xlink:href="#DejaVuSans-2e"/>
      </g>
     </g>
    </g>
    <g id="xtick_14">
     <g id="line2d_23">
      <g>
       <use style="stroke:#000000;stroke-width:0.8;" x="525.565899" xlink:href="#mb440546f51" y="338.180904"/>
      </g>
     </g>
     <g id="text_18">
      <!-- janv. -->
      <g transform="translate(515.404443 365.013592)rotate(-45)scale(0.09 -0.09)">
       <use xlink:href="#DejaVuSans-6a"/>
       <use x="27.783203" xlink:href="#DejaVuSans-61"/>
       <use x="89.0625" xlink:href="#DejaVuSans-6e"/>
       <use x="152.441406" xlink:href="#DejaVuSans-76"/>
       <use x="203.871094" xlink:href="#DejaVuSans-2e"/>
      </g>
     </g>
    </g>
    <g id="xtick_15">
     <g id="line2d_24">
      <g>
       <use style="stroke:#000000;stroke-width:0.8;" x="558.531287" xlink:href="#mb440546f51" y="338.180904"/>
      </g>
     </g>
     <g id="text_19">
      <!-- mars -->
      <g transform="translate(547.336682 366.046742)rotate(-45)scale(0.09 -0.09)">
       <use xlink:href="#DejaVuSans-6d"/>
       <use x="97.412109" xlink:href="#DejaVuSans-61"/>
       <use x="158.691406" xlink:href="#DejaVuSans-72"/>
       <use x="199.804688" xlink:href="#DejaVuSans-73"/>
      </g>
     </g>
    </g>
    <g id="xtick_16">
     <g id="line2d_25">
      <g>
       <use style="stroke:#000000;stroke-width:0.8;" x="592.614146" xlink:href="#mb440546f51" y="338.180904"/>
      </g>
     </g>
     <g id="text_20">
      <!-- mai -->
      <g transform="translate(585.582964 361.883319)rotate(-45)scale(0.09 -0.09)">
       <use xlink:href="#DejaVuSans-6d"/>
       <use x="97.412109" xlink:href="#DejaVuSans-61"/>
       <use x="158.691406" xlink:href="#DejaVuSans-69"/>
      </g>
     </g>
    </g>
   </g>
   <g id="matplotlib.axis_4">
    <g id="ytick_6">
     <g id="line2d_26">
      <path clip-path="url(#p1883b63960)" d="M 354.592867 334.299638 
L 609.934944 334.299638 
" style="fill:none;stroke:#b0b0b0;stroke-linecap:square;stroke-opacity:0.5;stroke-width:0.8;"/>
     </g>
    </g>
    <g id="ytick_7">
     <g id="line2d_27">
      <path clip-path="url(#p1883b63960)" d="M 354.592867 295.486973 
L 609.934944 295.486973 
" style="fill:none;stroke:#b0b0b0;stroke-linecap:square;stroke-opacity:0.5;stroke-width:0.8;"/>
     </g>
    </g>
    <g id="ytick_8">
     <g id="line2d_28">
      <path clip-path="url(#p1883b63960)" d="M 354.592867 256.674307 
L 609.934944 256.674307 
" style="fill:none;stroke:#b0b0b0;stroke-linecap:square;stroke-opacity:0.5;stroke-width:0.8;"/>
     </g>
    </g>
    <g id="ytick_9">
     <g id="line2d_29">
      <path clip-path="url(#p1883b63960)" d="M 354.592867 314.893305 
L 609.934944 314.893305 
" style="fill:none;stroke:#b0b0b0;stroke-linecap:square;stroke-opacity:0.2;stroke-width:0.8;"/>
     </g>
    </g>
    <g id="ytick_10">
     <g id="line2d_30">
      <path clip-path="url(#p1883b63960)" d="M 354.592867 276.08064 
L 609.934944 276.08064 
" style="fill:none;stroke:#b0b0b0;stroke-linecap:square;stroke-opacity:0.2;stroke-width:0.8;"/>
     </g>
    </g>
   </g>
   <g id="line2d_31">
    <path clip-path="url(#p1883b63960)" d="M 522.772222 334.299638 
L 555.73761 334.18881 
L 562.442435 334.133396 
L 585.350586 333.742034 
L 589.820469 333.437257 
L 589.820469 333.437257 
" style="fill:none;stroke:#b22222;stroke-linecap:square;"/>
   </g>
   <g id="line2d_32">
    <path clip-path="url(#p1883b63960)" d="M 522.772222 334.299638 
L 540.651754 334.198264 
L 541.21049 333.998255 
L 542.886696 333.803726 
L 545.121638 333.233838 
L 546.239108 333.220138 
L 547.356579 332.910536 
L 553.502669 332.099541 
L 554.620139 332.042004 
L 557.413816 331.76254 
L 558.531287 331.647466 
L 561.324964 331.335124 
L 562.442435 331.277587 
L 564.677376 330.902228 
L 570.26473 330.639203 
L 573.058407 330.389877 
L 575.852084 330.107673 
L 576.969555 329.935062 
L 578.087026 329.885745 
L 580.321968 329.189824 
L 580.880703 328.987076 
L 581.439438 328.926799 
L 581.998174 328.743229 
L 582.556909 328.395269 
L 583.115645 328.19526 
L 584.233115 327.513038 
L 585.350586 326.76506 
L 585.909322 326.502035 
L 586.468057 326.069139 
L 587.026792 325.786935 
L 588.144263 324.704696 
L 588.702999 324.000555 
L 589.261734 323.611497 
L 589.820469 322.923795 
L 589.820469 322.923795 
" style="fill:none;stroke:#000000;stroke-linecap:square;stroke-width:1.5;"/>
   </g>
   <g id="line2d_33">
    <path clip-path="url(#p1883b63960)" d="M 522.772222 334.299638 
L 539.534284 334.292631 
L 540.093019 334.145494 
L 541.21049 333.297704 
L 544.004167 332.859796 
L 544.562902 332.369339 
L 545.121638 332.211692 
L 546.239108 332.180163 
L 546.797844 331.857863 
L 547.356579 330.929498 
L 547.915315 330.354962 
L 549.032785 329.822466 
L 550.150256 329.780427 
L 550.708992 329.423094 
L 551.826462 327.517318 
L 552.943933 325.513451 
L 554.061404 325.229687 
L 554.620139 324.658655 
L 556.296346 321.390109 
L 556.855081 320.454737 
L 557.972552 319.978293 
L 558.531287 319.218085 
L 560.207493 315.210351 
L 560.766229 313.91064 
L 561.8837 313.427189 
L 562.442435 312.673987 
L 563.559906 309.678696 
L 564.118641 308.582175 
L 564.677376 307.772921 
L 565.236112 307.415588 
L 565.794847 307.212398 
L 566.912318 305.811093 
L 568.029789 304.189081 
L 568.588524 303.639069 
L 569.705995 303.421866 
L 570.26473 303.04001 
L 571.382201 301.596666 
L 572.499672 300.52817 
L 573.058407 300.461608 
L 574.175878 299.550759 
L 574.734614 298.527806 
L 575.852084 297.189559 
L 576.41082 295.9459 
L 576.969555 295.507992 
L 577.528291 295.311809 
L 578.087026 294.975496 
L 579.763232 291.433696 
L 580.321968 289.829201 
L 580.880703 288.869306 
L 581.439438 288.620575 
L 581.998174 287.390929 
L 583.115645 284.357102 
L 583.67438 282.997835 
L 584.233115 281.249706 
L 584.791851 279.939486 
L 585.350586 279.039147 
L 585.909322 277.893579 
L 586.468057 275.683019 
L 587.026792 274.400825 
L 587.585528 272.523075 
L 588.144263 271.10075 
L 588.702999 269.138922 
L 589.261734 268.003864 
L 589.820469 266.080572 
L 589.820469 266.080572 
" style="fill:none;stroke:#ffd700;stroke-linecap:square;stroke-width:3;"/>
   </g>
   <g id="line2d_34">
    <path clip-path="url(#p1883b63960)" d="M 525.565899 338.180904 
L 525.565899 256.045207 
" style="fill:none;stroke:#000000;stroke-dasharray:1.85,0.8;stroke-dashoffset:0;stroke-width:0.5;"/>
   </g>
   <g id="text_21">
    <!-- 2B -->
    <g style="fill:#4169e1;" transform="translate(367.359971 276.927319)scale(0.24 -0.24)">
     <defs>
      <path d="M 2456 2859 
Q 2741 2859 2887 2984 
Q 3034 3109 3034 3353 
Q 3034 3594 2887 3720 
Q 2741 3847 2456 3847 
L 1791 3847 
L 1791 2859 
L 2456 2859 
z
M 2497 819 
Q 2859 819 3042 972 
Q 3225 1125 3225 1434 
Q 3225 1738 3044 1889 
Q 2863 2041 2497 2041 
L 1791 2041 
L 1791 819 
L 2497 819 
z
M 3616 2497 
Q 4003 2384 4215 2081 
Q 4428 1778 4428 1338 
Q 4428 663 3972 331 
Q 3516 0 2584 0 
L 588 0 
L 588 4666 
L 2394 4666 
Q 3366 4666 3802 4372 
Q 4238 4078 4238 3431 
Q 4238 3091 4078 2852 
Q 3919 2613 3616 2497 
z
" id="DejaVuSans-Bold-42" transform="scale(0.015625)"/>
     </defs>
     <use xlink:href="#DejaVuSans-Bold-32"/>
     <use x="69.580078" xlink:href="#DejaVuSans-Bold-42"/>
    </g>
   </g>
  </g>
  <g id="axes_3">
   <g id="legend_1">
    <g id="patch_10">
     <path d="M 701.082076 338.87334 
L 831.729888 338.87334 
Q 833.729888 338.87334 833.729888 336.87334 
L 833.729888 253.02984 
Q 833.729888 251.02984 831.729888 251.02984 
L 701.082076 251.02984 
Q 699.082076 251.02984 699.082076 253.02984 
L 699.082076 336.87334 
Q 699.082076 338.87334 701.082076 338.87334 
z
" style="fill:#ffffff;opacity:0.8;stroke:#cccccc;stroke-linejoin:miter;"/>
    </g>
    <g id="text_22">
     <!-- Personnes vaccinées, -->
     <g transform="translate(707.375513 263.388121)scale(0.11 -0.11)">
      <defs>
       <path d="M 1259 4147 
L 1259 2394 
L 2053 2394 
Q 2494 2394 2734 2622 
Q 2975 2850 2975 3272 
Q 2975 3691 2734 3919 
Q 2494 4147 2053 4147 
L 1259 4147 
z
M 628 4666 
L 2053 4666 
Q 2838 4666 3239 4311 
Q 3641 3956 3641 3272 
Q 3641 2581 3239 2228 
Q 2838 1875 2053 1875 
L 1259 1875 
L 1259 0 
L 628 0 
L 628 4666 
z
" id="DejaVuSans-50" transform="scale(0.015625)"/>
       <path id="DejaVuSans-20" transform="scale(0.015625)"/>
       <path d="M 3122 3366 
L 3122 2828 
Q 2878 2963 2633 3030 
Q 2388 3097 2138 3097 
Q 1578 3097 1268 2742 
Q 959 2388 959 1747 
Q 959 1106 1268 751 
Q 1578 397 2138 397 
Q 2388 397 2633 464 
Q 2878 531 3122 666 
L 3122 134 
Q 2881 22 2623 -34 
Q 2366 -91 2075 -91 
Q 1284 -91 818 406 
Q 353 903 353 1747 
Q 353 2603 823 3093 
Q 1294 3584 2113 3584 
Q 2378 3584 2631 3529 
Q 2884 3475 3122 3366 
z
" id="DejaVuSans-63" transform="scale(0.015625)"/>
       <path d="M 3597 1894 
L 3597 1613 
L 953 1613 
Q 991 1019 1311 708 
Q 1631 397 2203 397 
Q 2534 397 2845 478 
Q 3156 559 3463 722 
L 3463 178 
Q 3153 47 2828 -22 
Q 2503 -91 2169 -91 
Q 1331 -91 842 396 
Q 353 884 353 1716 
Q 353 2575 817 3079 
Q 1281 3584 2069 3584 
Q 2775 3584 3186 3129 
Q 3597 2675 3597 1894 
z
M 3022 2063 
Q 3016 2534 2758 2815 
Q 2500 3097 2075 3097 
Q 1594 3097 1305 2825 
Q 1016 2553 972 2059 
L 3022 2063 
z
M 2466 5119 
L 3088 5119 
L 2070 3944 
L 1591 3944 
L 2466 5119 
z
" id="DejaVuSans-e9" transform="scale(0.015625)"/>
       <path d="M 750 794 
L 1409 794 
L 1409 256 
L 897 -744 
L 494 -744 
L 750 256 
L 750 794 
z
" id="DejaVuSans-2c" transform="scale(0.015625)"/>
      </defs>
      <use xlink:href="#DejaVuSans-50"/>
      <use x="56.677734" xlink:href="#DejaVuSans-65"/>
      <use x="118.201172" xlink:href="#DejaVuSans-72"/>
      <use x="159.314453" xlink:href="#DejaVuSans-73"/>
      <use x="211.414062" xlink:href="#DejaVuSans-6f"/>
      <use x="272.595703" xlink:href="#DejaVuSans-6e"/>
      <use x="335.974609" xlink:href="#DejaVuSans-6e"/>
      <use x="399.353516" xlink:href="#DejaVuSans-65"/>
      <use x="460.876953" xlink:href="#DejaVuSans-73"/>
      <use x="512.976562" xlink:href="#DejaVuSans-20"/>
      <use x="544.763672" xlink:href="#DejaVuSans-76"/>
      <use x="603.943359" xlink:href="#DejaVuSans-61"/>
      <use x="665.222656" xlink:href="#DejaVuSans-63"/>
      <use x="720.203125" xlink:href="#DejaVuSans-63"/>
      <use x="775.183594" xlink:href="#DejaVuSans-69"/>
      <use x="802.966797" xlink:href="#DejaVuSans-6e"/>
      <use x="866.345703" xlink:href="#DejaVuSans-e9"/>
      <use x="927.869141" xlink:href="#DejaVuSans-65"/>
      <use x="989.392578" xlink:href="#DejaVuSans-73"/>
      <use x="1041.492188" xlink:href="#DejaVuSans-2c"/>
     </g>
     <!-- pour 100 habitants -->
     <g transform="translate(713.899029 275.705715)scale(0.11 -0.11)">
      <defs>
       <path d="M 794 531 
L 1825 531 
L 1825 4091 
L 703 3866 
L 703 4441 
L 1819 4666 
L 2450 4666 
L 2450 531 
L 3481 531 
L 3481 0 
L 794 0 
L 794 531 
z
" id="DejaVuSans-31" transform="scale(0.015625)"/>
       <path d="M 3513 2113 
L 3513 0 
L 2938 0 
L 2938 2094 
Q 2938 2591 2744 2837 
Q 2550 3084 2163 3084 
Q 1697 3084 1428 2787 
Q 1159 2491 1159 1978 
L 1159 0 
L 581 0 
L 581 4863 
L 1159 4863 
L 1159 2956 
Q 1366 3272 1645 3428 
Q 1925 3584 2291 3584 
Q 2894 3584 3203 3211 
Q 3513 2838 3513 2113 
z
" id="DejaVuSans-68" transform="scale(0.015625)"/>
       <path d="M 3116 1747 
Q 3116 2381 2855 2742 
Q 2594 3103 2138 3103 
Q 1681 3103 1420 2742 
Q 1159 2381 1159 1747 
Q 1159 1113 1420 752 
Q 1681 391 2138 391 
Q 2594 391 2855 752 
Q 3116 1113 3116 1747 
z
M 1159 2969 
Q 1341 3281 1617 3432 
Q 1894 3584 2278 3584 
Q 2916 3584 3314 3078 
Q 3713 2572 3713 1747 
Q 3713 922 3314 415 
Q 2916 -91 2278 -91 
Q 1894 -91 1617 61 
Q 1341 213 1159 525 
L 1159 0 
L 581 0 
L 581 4863 
L 1159 4863 
L 1159 2969 
z
" id="DejaVuSans-62" transform="scale(0.015625)"/>
      </defs>
      <use xlink:href="#DejaVuSans-70"/>
      <use x="63.476562" xlink:href="#DejaVuSans-6f"/>
      <use x="124.658203" xlink:href="#DejaVuSans-75"/>
      <use x="188.037109" xlink:href="#DejaVuSans-72"/>
      <use x="229.150391" xlink:href="#DejaVuSans-20"/>
      <use x="260.9375" xlink:href="#DejaVuSans-31"/>
      <use x="324.560547" xlink:href="#DejaVuSans-30"/>
      <use x="388.183594" xlink:href="#DejaVuSans-30"/>
      <use x="451.806641" xlink:href="#DejaVuSans-20"/>
      <use x="483.59375" xlink:href="#DejaVuSans-68"/>
      <use x="546.972656" xlink:href="#DejaVuSans-61"/>
      <use x="608.251953" xlink:href="#DejaVuSans-62"/>
      <use x="671.728516" xlink:href="#DejaVuSans-69"/>
      <use x="699.511719" xlink:href="#DejaVuSans-74"/>
      <use x="738.720703" xlink:href="#DejaVuSans-61"/>
      <use x="800" xlink:href="#DejaVuSans-6e"/>
      <use x="863.378906" xlink:href="#DejaVuSans-74"/>
      <use x="902.587891" xlink:href="#DejaVuSans-73"/>
     </g>
     <!-- (vaccination complète) -->
     <g transform="translate(703.082076 288.551309)scale(0.11 -0.11)">
      <defs>
       <path d="M 1984 4856 
Q 1566 4138 1362 3434 
Q 1159 2731 1159 2009 
Q 1159 1288 1364 580 
Q 1569 -128 1984 -844 
L 1484 -844 
Q 1016 -109 783 600 
Q 550 1309 550 2009 
Q 550 2706 781 3412 
Q 1013 4119 1484 4856 
L 1984 4856 
z
" id="DejaVuSans-28" transform="scale(0.015625)"/>
       <path d="M 3597 1894 
L 3597 1613 
L 953 1613 
Q 991 1019 1311 708 
Q 1631 397 2203 397 
Q 2534 397 2845 478 
Q 3156 559 3463 722 
L 3463 178 
Q 3153 47 2828 -22 
Q 2503 -91 2169 -91 
Q 1331 -91 842 396 
Q 353 884 353 1716 
Q 353 2575 817 3079 
Q 1281 3584 2069 3584 
Q 2775 3584 3186 3129 
Q 3597 2675 3597 1894 
z
M 3022 2063 
Q 3016 2534 2758 2815 
Q 2500 3097 2075 3097 
Q 1594 3097 1305 2825 
Q 1016 2553 972 2059 
L 3022 2063 
z
M 1579 5119 
L 2460 3950 
L 1982 3950 
L 963 5119 
L 1579 5119 
z
" id="DejaVuSans-e8" transform="scale(0.015625)"/>
       <path d="M 513 4856 
L 1013 4856 
Q 1481 4119 1714 3412 
Q 1947 2706 1947 2009 
Q 1947 1309 1714 600 
Q 1481 -109 1013 -844 
L 513 -844 
Q 928 -128 1133 580 
Q 1338 1288 1338 2009 
Q 1338 2731 1133 3434 
Q 928 4138 513 4856 
z
" id="DejaVuSans-29" transform="scale(0.015625)"/>
      </defs>
      <use xlink:href="#DejaVuSans-28"/>
      <use x="39.013672" xlink:href="#DejaVuSans-76"/>
      <use x="98.193359" xlink:href="#DejaVuSans-61"/>
      <use x="159.472656" xlink:href="#DejaVuSans-63"/>
      <use x="214.453125" xlink:href="#DejaVuSans-63"/>
      <use x="269.433594" xlink:href="#DejaVuSans-69"/>
      <use x="297.216797" xlink:href="#DejaVuSans-6e"/>
      <use x="360.595703" xlink:href="#DejaVuSans-61"/>
      <use x="421.875" xlink:href="#DejaVuSans-74"/>
      <use x="461.083984" xlink:href="#DejaVuSans-69"/>
      <use x="488.867188" xlink:href="#DejaVuSans-6f"/>
      <use x="550.048828" xlink:href="#DejaVuSans-6e"/>
      <use x="613.427734" xlink:href="#DejaVuSans-20"/>
      <use x="645.214844" xlink:href="#DejaVuSans-63"/>
      <use x="700.195312" xlink:href="#DejaVuSans-6f"/>
      <use x="761.376953" xlink:href="#DejaVuSans-6d"/>
      <use x="858.789062" xlink:href="#DejaVuSans-70"/>
      <use x="922.265625" xlink:href="#DejaVuSans-6c"/>
      <use x="950.048828" xlink:href="#DejaVuSans-e8"/>
      <use x="1011.572266" xlink:href="#DejaVuSans-74"/>
      <use x="1050.78125" xlink:href="#DejaVuSans-65"/>
      <use x="1112.304688" xlink:href="#DejaVuSans-29"/>
     </g>
    </g>
    <g id="line2d_35">
     <path d="M 724.712232 299.937402 
L 744.712232 299.937402 
" style="fill:none;stroke:#b22222;stroke-linecap:square;"/>
    </g>
    <g id="line2d_36"/>
    <g id="text_23">
     <!-- 0-29 ans -->
     <g transform="translate(749.712232 303.437402)scale(0.1 -0.1)">
      <defs>
       <path d="M 313 2009 
L 1997 2009 
L 1997 1497 
L 313 1497 
L 313 2009 
z
" id="DejaVuSans-2d" transform="scale(0.015625)"/>
       <path d="M 703 97 
L 703 672 
Q 941 559 1184 500 
Q 1428 441 1663 441 
Q 2288 441 2617 861 
Q 2947 1281 2994 2138 
Q 2813 1869 2534 1725 
Q 2256 1581 1919 1581 
Q 1219 1581 811 2004 
Q 403 2428 403 3163 
Q 403 3881 828 4315 
Q 1253 4750 1959 4750 
Q 2769 4750 3195 4129 
Q 3622 3509 3622 2328 
Q 3622 1225 3098 567 
Q 2575 -91 1691 -91 
Q 1453 -91 1209 -44 
Q 966 3 703 97 
z
M 1959 2075 
Q 2384 2075 2632 2365 
Q 2881 2656 2881 3163 
Q 2881 3666 2632 3958 
Q 2384 4250 1959 4250 
Q 1534 4250 1286 3958 
Q 1038 3666 1038 3163 
Q 1038 2656 1286 2365 
Q 1534 2075 1959 2075 
z
" id="DejaVuSans-39" transform="scale(0.015625)"/>
      </defs>
      <use xlink:href="#DejaVuSans-30"/>
      <use x="63.623047" xlink:href="#DejaVuSans-2d"/>
      <use x="99.707031" xlink:href="#DejaVuSans-32"/>
      <use x="163.330078" xlink:href="#DejaVuSans-39"/>
      <use x="226.953125" xlink:href="#DejaVuSans-20"/>
      <use x="258.740234" xlink:href="#DejaVuSans-61"/>
      <use x="320.019531" xlink:href="#DejaVuSans-6e"/>
      <use x="383.398438" xlink:href="#DejaVuSans-73"/>
     </g>
    </g>
    <g id="line2d_37">
     <path d="M 724.712232 314.615527 
L 744.712232 314.615527 
" style="fill:none;stroke:#000000;stroke-linecap:square;stroke-width:1.5;"/>
    </g>
    <g id="line2d_38"/>
    <g id="text_24">
     <!-- 30-59 ans -->
     <g transform="translate(749.712232 318.115527)scale(0.1 -0.1)">
      <defs>
       <path d="M 2597 2516 
Q 3050 2419 3304 2112 
Q 3559 1806 3559 1356 
Q 3559 666 3084 287 
Q 2609 -91 1734 -91 
Q 1441 -91 1130 -33 
Q 819 25 488 141 
L 488 750 
Q 750 597 1062 519 
Q 1375 441 1716 441 
Q 2309 441 2620 675 
Q 2931 909 2931 1356 
Q 2931 1769 2642 2001 
Q 2353 2234 1838 2234 
L 1294 2234 
L 1294 2753 
L 1863 2753 
Q 2328 2753 2575 2939 
Q 2822 3125 2822 3475 
Q 2822 3834 2567 4026 
Q 2313 4219 1838 4219 
Q 1578 4219 1281 4162 
Q 984 4106 628 3988 
L 628 4550 
Q 988 4650 1302 4700 
Q 1616 4750 1894 4750 
Q 2613 4750 3031 4423 
Q 3450 4097 3450 3541 
Q 3450 3153 3228 2886 
Q 3006 2619 2597 2516 
z
" id="DejaVuSans-33" transform="scale(0.015625)"/>
       <path d="M 691 4666 
L 3169 4666 
L 3169 4134 
L 1269 4134 
L 1269 2991 
Q 1406 3038 1543 3061 
Q 1681 3084 1819 3084 
Q 2600 3084 3056 2656 
Q 3513 2228 3513 1497 
Q 3513 744 3044 326 
Q 2575 -91 1722 -91 
Q 1428 -91 1123 -41 
Q 819 9 494 109 
L 494 744 
Q 775 591 1075 516 
Q 1375 441 1709 441 
Q 2250 441 2565 725 
Q 2881 1009 2881 1497 
Q 2881 1984 2565 2268 
Q 2250 2553 1709 2553 
Q 1456 2553 1204 2497 
Q 953 2441 691 2322 
L 691 4666 
z
" id="DejaVuSans-35" transform="scale(0.015625)"/>
      </defs>
      <use xlink:href="#DejaVuSans-33"/>
      <use x="63.623047" xlink:href="#DejaVuSans-30"/>
      <use x="127.246094" xlink:href="#DejaVuSans-2d"/>
      <use x="163.330078" xlink:href="#DejaVuSans-35"/>
      <use x="226.953125" xlink:href="#DejaVuSans-39"/>
      <use x="290.576172" xlink:href="#DejaVuSans-20"/>
      <use x="322.363281" xlink:href="#DejaVuSans-61"/>
      <use x="383.642578" xlink:href="#DejaVuSans-6e"/>
      <use x="447.021484" xlink:href="#DejaVuSans-73"/>
     </g>
    </g>
    <g id="line2d_39">
     <path d="M 724.712232 329.293652 
L 744.712232 329.293652 
" style="fill:none;stroke:#ffd700;stroke-linecap:square;stroke-width:3;"/>
    </g>
    <g id="line2d_40"/>
    <g id="text_25">
     <!-- 60 ans et + -->
     <g transform="translate(749.712232 332.793652)scale(0.1 -0.1)">
      <defs>
       <path d="M 2113 2584 
Q 1688 2584 1439 2293 
Q 1191 2003 1191 1497 
Q 1191 994 1439 701 
Q 1688 409 2113 409 
Q 2538 409 2786 701 
Q 3034 994 3034 1497 
Q 3034 2003 2786 2293 
Q 2538 2584 2113 2584 
z
M 3366 4563 
L 3366 3988 
Q 3128 4100 2886 4159 
Q 2644 4219 2406 4219 
Q 1781 4219 1451 3797 
Q 1122 3375 1075 2522 
Q 1259 2794 1537 2939 
Q 1816 3084 2150 3084 
Q 2853 3084 3261 2657 
Q 3669 2231 3669 1497 
Q 3669 778 3244 343 
Q 2819 -91 2113 -91 
Q 1303 -91 875 529 
Q 447 1150 447 2328 
Q 447 3434 972 4092 
Q 1497 4750 2381 4750 
Q 2619 4750 2861 4703 
Q 3103 4656 3366 4563 
z
" id="DejaVuSans-36" transform="scale(0.015625)"/>
       <path d="M 2944 4013 
L 2944 2272 
L 4684 2272 
L 4684 1741 
L 2944 1741 
L 2944 0 
L 2419 0 
L 2419 1741 
L 678 1741 
L 678 2272 
L 2419 2272 
L 2419 4013 
L 2944 4013 
z
" id="DejaVuSans-2b" transform="scale(0.015625)"/>
      </defs>
      <use xlink:href="#DejaVuSans-36"/>
      <use x="63.623047" xlink:href="#DejaVuSans-30"/>
      <use x="127.246094" xlink:href="#DejaVuSans-20"/>
      <use x="159.033203" xlink:href="#DejaVuSans-61"/>
      <use x="220.3125" xlink:href="#DejaVuSans-6e"/>
      <use x="283.691406" xlink:href="#DejaVuSans-73"/>
      <use x="335.791016" xlink:href="#DejaVuSans-20"/>
      <use x="367.578125" xlink:href="#DejaVuSans-65"/>
      <use x="429.101562" xlink:href="#DejaVuSans-74"/>
      <use x="468.310547" xlink:href="#DejaVuSans-20"/>
      <use x="500.097656" xlink:href="#DejaVuSans-2b"/>
     </g>
    </g>
   </g>
  </g>
  <g id="axes_4">
   <g id="patch_11">
    <path d="M 54.4525 215.780904 
L 432.296134 215.780904 
L 432.296134 59.341137 
L 54.4525 59.341137 
z
" style="fill:none;opacity:0;"/>
   </g>
   <g id="patch_12">
    <path clip-path="url(#p68a4a1ece8)" d="M 67.681161 215.780904 
L 67.681161 67.163125 
L 112.327893 67.163125 
L 112.327893 215.780904 
z
" style="fill:#808080;opacity:0.15;stroke:#808080;stroke-linejoin:miter;"/>
   </g>
   <g id="patch_13">
    <path clip-path="url(#p68a4a1ece8)" d="M 255.362791 215.780904 
L 255.362791 67.163125 
L 293.395192 67.163125 
L 293.395192 215.780904 
z
" style="fill:#808080;opacity:0.15;stroke:#808080;stroke-linejoin:miter;"/>
   </g>
   <g id="patch_14">
    <path clip-path="url(#p68a4a1ece8)" d="M 385.169029 215.780904 
L 385.169029 67.163125 
L 407.492394 67.163125 
L 407.492394 215.780904 
z
" style="fill:#808080;opacity:0.15;stroke:#808080;stroke-linejoin:miter;"/>
   </g>
   <g id="matplotlib.axis_5">
    <g id="xtick_17">
     <g id="line2d_41">
      <g>
       <use style="stroke:#000000;stroke-width:0.8;" x="54.4525" xlink:href="#mb440546f51" y="215.780904"/>
      </g>
     </g>
     <g id="text_26">
      <!-- mars -->
      <g transform="translate(43.257895 243.646742)rotate(-45)scale(0.09 -0.09)">
       <use xlink:href="#DejaVuSans-6d"/>
       <use x="97.412109" xlink:href="#DejaVuSans-61"/>
       <use x="158.691406" xlink:href="#DejaVuSans-72"/>
       <use x="199.804688" xlink:href="#DejaVuSans-73"/>
      </g>
     </g>
    </g>
    <g id="xtick_18">
     <g id="line2d_42">
      <g>
       <use style="stroke:#000000;stroke-width:0.8;" x="80.083031" xlink:href="#mb440546f51" y="215.780904"/>
      </g>
     </g>
     <g id="text_27">
      <!-- avril -->
      <g transform="translate(71.099902 241.435265)rotate(-45)scale(0.09 -0.09)">
       <use xlink:href="#DejaVuSans-61"/>
       <use x="61.279297" xlink:href="#DejaVuSans-76"/>
       <use x="120.458984" xlink:href="#DejaVuSans-72"/>
       <use x="161.572266" xlink:href="#DejaVuSans-69"/>
       <use x="189.355469" xlink:href="#DejaVuSans-6c"/>
      </g>
     </g>
    </g>
    <g id="xtick_19">
     <g id="line2d_43">
      <g>
       <use style="stroke:#000000;stroke-width:0.8;" x="104.886771" xlink:href="#mb440546f51" y="215.780904"/>
      </g>
     </g>
     <g id="text_28">
      <!-- mai -->
      <g transform="translate(97.855588 239.483319)rotate(-45)scale(0.09 -0.09)">
       <use xlink:href="#DejaVuSans-6d"/>
       <use x="97.412109" xlink:href="#DejaVuSans-61"/>
       <use x="158.691406" xlink:href="#DejaVuSans-69"/>
      </g>
     </g>
    </g>
    <g id="xtick_20">
     <g id="line2d_44">
      <g>
       <use style="stroke:#000000;stroke-width:0.8;" x="130.517302" xlink:href="#mb440546f51" y="215.780904"/>
      </g>
     </g>
     <g id="text_29">
      <!-- juin -->
      <g transform="translate(123.750621 239.218817)rotate(-45)scale(0.09 -0.09)">
       <use xlink:href="#DejaVuSans-6a"/>
       <use x="27.783203" xlink:href="#DejaVuSans-75"/>
       <use x="91.162109" xlink:href="#DejaVuSans-69"/>
       <use x="118.945312" xlink:href="#DejaVuSans-6e"/>
      </g>
     </g>
    </g>
    <g id="xtick_21">
     <g id="line2d_45">
      <g>
       <use style="stroke:#000000;stroke-width:0.8;" x="155.321041" xlink:href="#mb440546f51" y="215.780904"/>
      </g>
     </g>
     <g id="text_30">
      <!-- juil. -->
      <g transform="translate(148.796987 238.976191)rotate(-45)scale(0.09 -0.09)">
       <use xlink:href="#DejaVuSans-6a"/>
       <use x="27.783203" xlink:href="#DejaVuSans-75"/>
       <use x="91.162109" xlink:href="#DejaVuSans-69"/>
       <use x="118.945312" xlink:href="#DejaVuSans-6c"/>
       <use x="146.728516" xlink:href="#DejaVuSans-2e"/>
      </g>
     </g>
    </g>
    <g id="xtick_22">
     <g id="line2d_46">
      <g>
       <use style="stroke:#000000;stroke-width:0.8;" x="180.951572" xlink:href="#mb440546f51" y="215.780904"/>
      </g>
     </g>
     <g id="text_31">
      <!-- août -->
      <g transform="translate(171.465293 241.938416)rotate(-45)scale(0.09 -0.09)">
       <defs>
        <path d="M 544 1381 
L 544 3500 
L 1119 3500 
L 1119 1403 
Q 1119 906 1312 657 
Q 1506 409 1894 409 
Q 2359 409 2629 706 
Q 2900 1003 2900 1516 
L 2900 3500 
L 3475 3500 
L 3475 0 
L 2900 0 
L 2900 538 
Q 2691 219 2414 64 
Q 2138 -91 1772 -91 
Q 1169 -91 856 284 
Q 544 659 544 1381 
z
M 1991 3584 
L 1991 3584 
z
M 1753 5119 
L 2215 5119 
L 2981 3944 
L 2547 3944 
L 1984 4709 
L 1422 3944 
L 987 3944 
L 1753 5119 
z
" id="DejaVuSans-fb" transform="scale(0.015625)"/>
       </defs>
       <use xlink:href="#DejaVuSans-61"/>
       <use x="61.279297" xlink:href="#DejaVuSans-6f"/>
       <use x="122.460938" xlink:href="#DejaVuSans-fb"/>
       <use x="185.839844" xlink:href="#DejaVuSans-74"/>
      </g>
     </g>
    </g>
    <g id="xtick_23">
     <g id="line2d_47">
      <g>
       <use style="stroke:#000000;stroke-width:0.8;" x="206.582103" xlink:href="#mb440546f51" y="215.780904"/>
      </g>
     </g>
     <g id="text_32">
      <!-- sept. -->
      <g transform="translate(195.62913 243.40511)rotate(-45)scale(0.09 -0.09)">
       <use xlink:href="#DejaVuSans-73"/>
       <use x="52.099609" xlink:href="#DejaVuSans-65"/>
       <use x="113.623047" xlink:href="#DejaVuSans-70"/>
       <use x="177.099609" xlink:href="#DejaVuSans-74"/>
       <use x="216.308594" xlink:href="#DejaVuSans-2e"/>
      </g>
     </g>
    </g>
    <g id="xtick_24">
     <g id="line2d_48">
      <g>
       <use style="stroke:#000000;stroke-width:0.8;" x="231.385843" xlink:href="#mb440546f51" y="215.780904"/>
      </g>
     </g>
     <g id="text_33">
      <!-- oct. -->
      <g transform="translate(224.310908 239.527071)rotate(-45)scale(0.09 -0.09)">
       <use xlink:href="#DejaVuSans-6f"/>
       <use x="61.181641" xlink:href="#DejaVuSans-63"/>
       <use x="116.162109" xlink:href="#DejaVuSans-74"/>
       <use x="155.371094" xlink:href="#DejaVuSans-2e"/>
      </g>
     </g>
    </g>
    <g id="xtick_25">
     <g id="line2d_49">
      <g>
       <use style="stroke:#000000;stroke-width:0.8;" x="257.016374" xlink:href="#mb440546f51" y="215.780904"/>
      </g>
     </g>
     <g id="text_34">
      <!-- nov. -->
      <g transform="translate(248.628872 240.839638)rotate(-45)scale(0.09 -0.09)">
       <use xlink:href="#DejaVuSans-6e"/>
       <use x="63.378906" xlink:href="#DejaVuSans-6f"/>
       <use x="124.560547" xlink:href="#DejaVuSans-76"/>
       <use x="175.990234" xlink:href="#DejaVuSans-2e"/>
      </g>
     </g>
    </g>
    <g id="xtick_26">
     <g id="line2d_50">
      <g>
       <use style="stroke:#000000;stroke-width:0.8;" x="281.820113" xlink:href="#mb440546f51" y="215.780904"/>
      </g>
     </g>
     <g id="text_35">
      <!-- déc. -->
      <g transform="translate(273.178053 241.094197)rotate(-45)scale(0.09 -0.09)">
       <defs>
        <path d="M 2906 2969 
L 2906 4863 
L 3481 4863 
L 3481 0 
L 2906 0 
L 2906 525 
Q 2725 213 2448 61 
Q 2172 -91 1784 -91 
Q 1150 -91 751 415 
Q 353 922 353 1747 
Q 353 2572 751 3078 
Q 1150 3584 1784 3584 
Q 2172 3584 2448 3432 
Q 2725 3281 2906 2969 
z
M 947 1747 
Q 947 1113 1208 752 
Q 1469 391 1925 391 
Q 2381 391 2643 752 
Q 2906 1113 2906 1747 
Q 2906 2381 2643 2742 
Q 2381 3103 1925 3103 
Q 1469 3103 1208 2742 
Q 947 2381 947 1747 
z
" id="DejaVuSans-64" transform="scale(0.015625)"/>
       </defs>
       <use xlink:href="#DejaVuSans-64"/>
       <use x="63.476562" xlink:href="#DejaVuSans-e9"/>
       <use x="125" xlink:href="#DejaVuSans-63"/>
       <use x="179.980469" xlink:href="#DejaVuSans-2e"/>
      </g>
     </g>
    </g>
    <g id="xtick_27">
     <g id="line2d_51">
      <g>
       <use style="stroke:#000000;stroke-width:0.8;" x="307.450644" xlink:href="#mb440546f51" y="215.780904"/>
      </g>
     </g>
     <g id="text_36">
      <!-- janv. -->
      <g transform="translate(297.289189 242.613592)rotate(-45)scale(0.09 -0.09)">
       <use xlink:href="#DejaVuSans-6a"/>
       <use x="27.783203" xlink:href="#DejaVuSans-61"/>
       <use x="89.0625" xlink:href="#DejaVuSans-6e"/>
       <use x="152.441406" xlink:href="#DejaVuSans-76"/>
       <use x="203.871094" xlink:href="#DejaVuSans-2e"/>
      </g>
     </g>
    </g>
    <g id="xtick_28">
     <g id="line2d_52">
      <g>
       <use style="stroke:#000000;stroke-width:0.8;" x="333.081175" xlink:href="#mb440546f51" y="215.780904"/>
      </g>
     </g>
     <g id="text_37">
      <!-- fév. -->
      <g transform="translate(326.464645 239.068667)rotate(-45)scale(0.09 -0.09)">
       <defs>
        <path d="M 2375 4863 
L 2375 4384 
L 1825 4384 
Q 1516 4384 1395 4259 
Q 1275 4134 1275 3809 
L 1275 3500 
L 2222 3500 
L 2222 3053 
L 1275 3053 
L 1275 0 
L 697 0 
L 697 3053 
L 147 3053 
L 147 3500 
L 697 3500 
L 697 3744 
Q 697 4328 969 4595 
Q 1241 4863 1831 4863 
L 2375 4863 
z
" id="DejaVuSans-66" transform="scale(0.015625)"/>
       </defs>
       <use xlink:href="#DejaVuSans-66"/>
       <use x="35.205078" xlink:href="#DejaVuSans-e9"/>
       <use x="96.728516" xlink:href="#DejaVuSans-76"/>
       <use x="148.158203" xlink:href="#DejaVuSans-2e"/>
      </g>
     </g>
    </g>
    <g id="xtick_29">
     <g id="line2d_53">
      <g>
       <use style="stroke:#000000;stroke-width:0.8;" x="356.231332" xlink:href="#mb440546f51" y="215.780904"/>
      </g>
     </g>
     <g id="text_38">
      <!-- mars -->
      <g transform="translate(345.036727 243.646742)rotate(-45)scale(0.09 -0.09)">
       <use xlink:href="#DejaVuSans-6d"/>
       <use x="97.412109" xlink:href="#DejaVuSans-61"/>
       <use x="158.691406" xlink:href="#DejaVuSans-72"/>
       <use x="199.804688" xlink:href="#DejaVuSans-73"/>
      </g>
     </g>
    </g>
    <g id="xtick_30">
     <g id="line2d_54">
      <g>
       <use style="stroke:#000000;stroke-width:0.8;" x="381.861863" xlink:href="#mb440546f51" y="215.780904"/>
      </g>
     </g>
     <g id="text_39">
      <!-- avril -->
      <g transform="translate(372.878735 241.435265)rotate(-45)scale(0.09 -0.09)">
       <use xlink:href="#DejaVuSans-61"/>
       <use x="61.279297" xlink:href="#DejaVuSans-76"/>
       <use x="120.458984" xlink:href="#DejaVuSans-72"/>
       <use x="161.572266" xlink:href="#DejaVuSans-69"/>
       <use x="189.355469" xlink:href="#DejaVuSans-6c"/>
      </g>
     </g>
    </g>
    <g id="xtick_31">
     <g id="line2d_55">
      <g>
       <use style="stroke:#000000;stroke-width:0.8;" x="406.665603" xlink:href="#mb440546f51" y="215.780904"/>
      </g>
     </g>
     <g id="text_40">
      <!-- mai -->
      <g transform="translate(399.63442 239.483319)rotate(-45)scale(0.09 -0.09)">
       <use xlink:href="#DejaVuSans-6d"/>
       <use x="97.412109" xlink:href="#DejaVuSans-61"/>
       <use x="158.691406" xlink:href="#DejaVuSans-69"/>
      </g>
     </g>
    </g>
    <g id="xtick_32">
     <g id="line2d_56">
      <g>
       <use style="stroke:#000000;stroke-width:0.8;" x="432.296134" xlink:href="#mb440546f51" y="215.780904"/>
      </g>
     </g>
     <g id="text_41">
      <!-- juin -->
      <g transform="translate(425.529454 239.218817)rotate(-45)scale(0.09 -0.09)">
       <use xlink:href="#DejaVuSans-6a"/>
       <use x="27.783203" xlink:href="#DejaVuSans-75"/>
       <use x="91.162109" xlink:href="#DejaVuSans-69"/>
       <use x="118.945312" xlink:href="#DejaVuSans-6e"/>
      </g>
     </g>
    </g>
   </g>
   <g id="matplotlib.axis_6">
    <g id="ytick_11">
     <g id="line2d_57">
      <path clip-path="url(#p68a4a1ece8)" d="M 54.4525 208.628837 
L 432.296134 208.628837 
" style="fill:none;stroke:#b0b0b0;stroke-linecap:square;stroke-opacity:0.5;stroke-width:0.8;"/>
     </g>
     <g id="text_42">
      <!-- 0 -->
      <g transform="translate(41.72625 212.048134)scale(0.09 -0.09)">
       <use xlink:href="#DejaVuSans-30"/>
      </g>
     </g>
    </g>
    <g id="ytick_12">
     <g id="line2d_58">
      <path clip-path="url(#p68a4a1ece8)" d="M 54.4525 137.108161 
L 432.296134 137.108161 
" style="fill:none;stroke:#b0b0b0;stroke-linecap:square;stroke-opacity:0.5;stroke-width:0.8;"/>
     </g>
     <g id="text_43">
      <!-- 20 -->
      <g transform="translate(36 140.527458)scale(0.09 -0.09)">
       <use xlink:href="#DejaVuSans-32"/>
       <use x="63.623047" xlink:href="#DejaVuSans-30"/>
      </g>
     </g>
    </g>
    <g id="ytick_13">
     <g id="line2d_59">
      <path clip-path="url(#p68a4a1ece8)" d="M 54.4525 65.587485 
L 432.296134 65.587485 
" style="fill:none;stroke:#b0b0b0;stroke-linecap:square;stroke-opacity:0.5;stroke-width:0.8;"/>
     </g>
     <g id="text_44">
      <!-- 40 -->
      <g transform="translate(36 69.006782)scale(0.09 -0.09)">
       <use xlink:href="#DejaVuSans-34"/>
       <use x="63.623047" xlink:href="#DejaVuSans-30"/>
      </g>
     </g>
    </g>
    <g id="ytick_14">
     <g id="line2d_60">
      <path clip-path="url(#p68a4a1ece8)" d="M 54.4525 172.868499 
L 432.296134 172.868499 
" style="fill:none;stroke:#b0b0b0;stroke-linecap:square;stroke-opacity:0.2;stroke-width:0.8;"/>
     </g>
    </g>
    <g id="ytick_15">
     <g id="line2d_61">
      <path clip-path="url(#p68a4a1ece8)" d="M 54.4525 101.347823 
L 432.296134 101.347823 
" style="fill:none;stroke:#b0b0b0;stroke-linecap:square;stroke-opacity:0.2;stroke-width:0.8;"/>
     </g>
    </g>
   </g>
   <g id="line2d_62">
    <path clip-path="url(#p68a4a1ece8)" d="M 303.316688 208.628837 
L 339.695506 208.537608 
L 350.443793 208.365676 
L 381.861863 207.990234 
L 391.783359 207.509528 
L 399.224481 206.891978 
L 402.531646 206.484957 
L 402.531646 206.484957 
" style="fill:none;stroke:#b22222;stroke-linecap:square;"/>
   </g>
   <g id="line2d_63">
    <path clip-path="url(#p68a4a1ece8)" d="M 303.316688 208.628837 
L 328.947219 208.581783 
L 333.907967 207.557064 
L 337.215132 206.623838 
L 338.041923 206.60554 
L 342.17588 205.207008 
L 344.656254 205.058005 
L 346.309837 204.718175 
L 348.790211 204.276395 
L 350.443793 204.148306 
L 353.750958 203.662087 
L 356.231332 203.48433 
L 360.365289 202.951057 
L 362.018872 202.859565 
L 365.326037 202.279239 
L 379.381489 200.804899 
L 381.035072 200.462454 
L 381.861863 200.180134 
L 382.688655 199.662546 
L 384.342237 198.091485 
L 385.99582 196.95436 
L 388.476194 195.707445 
L 389.302985 195.260437 
L 390.129777 194.962432 
L 390.956568 194.54418 
L 392.610151 193.35216 
L 394.263733 192.024208 
L 395.090525 190.649202 
L 395.917316 189.658466 
L 396.744107 189.146107 
L 397.570899 188.450762 
L 399.224481 186.430079 
L 400.051272 185.086442 
L 400.878064 183.368992 
L 401.704855 182.678876 
L 402.531646 181.805773 
L 402.531646 181.805773 
" style="fill:none;stroke:#000000;stroke-linecap:square;stroke-width:1.5;"/>
   </g>
   <g id="line2d_64">
    <path clip-path="url(#p68a4a1ece8)" d="M 303.316688 208.628837 
L 328.120427 208.591714 
L 328.947219 208.443225 
L 330.600801 207.319429 
L 333.081175 206.938081 
L 334.734758 206.374495 
L 335.561549 205.692793 
L 336.388341 205.250699 
L 338.041923 204.919972 
L 338.868715 204.005412 
L 339.695506 202.365277 
L 341.349089 200.141308 
L 342.17588 199.014137 
L 343.829463 198.433678 
L 344.656254 197.62036 
L 345.483045 195.892482 
L 347.136628 192.821447 
L 347.963419 191.127316 
L 348.790211 190.519859 
L 349.617002 190.22288 
L 350.443793 189.00459 
L 352.097376 185.130363 
L 353.750958 181.485619 
L 355.404541 180.604805 
L 356.231332 179.342644 
L 359.538498 171.118347 
L 360.365289 170.662754 
L 361.19208 170.35565 
L 362.018872 169.393843 
L 363.672454 165.681604 
L 365.326037 162.148227 
L 366.152828 161.243791 
L 366.97962 160.680205 
L 367.806411 159.468665 
L 369.459994 155.972411 
L 370.286785 154.305278 
L 371.940368 152.49303 
L 372.767159 152.253422 
L 373.59395 151.72021 
L 374.420742 150.734779 
L 376.074324 149.192512 
L 376.901115 148.217206 
L 377.727907 147.592875 
L 378.554698 146.79643 
L 379.381489 146.172099 
L 380.208281 144.531965 
L 381.035072 143.293427 
L 381.861863 141.427183 
L 382.688655 138.163787 
L 383.515446 135.497724 
L 385.169029 131.805734 
L 386.822611 127.145186 
L 387.649403 125.113579 
L 388.476194 122.768118 
L 389.302985 120.96262 
L 390.129777 120.1898 
L 390.956568 118.208814 
L 394.263733 107.888789 
L 395.917316 101.723097 
L 396.744107 99.907474 
L 400.051272 88.274667 
L 400.878064 84.59955 
L 401.704855 82.979664 
L 402.531646 80.667951 
L 402.531646 80.667951 
" style="fill:none;stroke:#ffd700;stroke-linecap:square;stroke-width:3;"/>
   </g>
   <g id="line2d_65">
    <path clip-path="url(#p68a4a1ece8)" d="M 307.450644 215.780904 
L 307.450644 67.163125 
" style="fill:none;stroke:#000000;stroke-dasharray:1.85,0.8;stroke-dashoffset:0;stroke-width:0.5;"/>
   </g>
   <g id="text_45">
    <!-- Corse -->
    <g style="fill:#4169e1;" transform="translate(54.4525 55.755937)scale(0.26 -0.26)">
     <defs>
      <path d="M 4288 256 
Q 3956 84 3597 -3 
Q 3238 -91 2847 -91 
Q 1681 -91 1000 561 
Q 319 1213 319 2328 
Q 319 3447 1000 4098 
Q 1681 4750 2847 4750 
Q 3238 4750 3597 4662 
Q 3956 4575 4288 4403 
L 4288 3438 
Q 3953 3666 3628 3772 
Q 3303 3878 2944 3878 
Q 2300 3878 1931 3465 
Q 1563 3053 1563 2328 
Q 1563 1606 1931 1193 
Q 2300 781 2944 781 
Q 3303 781 3628 887 
Q 3953 994 4288 1222 
L 4288 256 
z
" id="DejaVuSans-Bold-43" transform="scale(0.015625)"/>
      <path d="M 2203 2784 
Q 1831 2784 1636 2517 
Q 1441 2250 1441 1747 
Q 1441 1244 1636 976 
Q 1831 709 2203 709 
Q 2569 709 2762 976 
Q 2956 1244 2956 1747 
Q 2956 2250 2762 2517 
Q 2569 2784 2203 2784 
z
M 2203 3584 
Q 3106 3584 3614 3096 
Q 4122 2609 4122 1747 
Q 4122 884 3614 396 
Q 3106 -91 2203 -91 
Q 1297 -91 786 396 
Q 275 884 275 1747 
Q 275 2609 786 3096 
Q 1297 3584 2203 3584 
z
" id="DejaVuSans-Bold-6f" transform="scale(0.015625)"/>
      <path d="M 3138 2547 
Q 2991 2616 2845 2648 
Q 2700 2681 2553 2681 
Q 2122 2681 1889 2404 
Q 1656 2128 1656 1613 
L 1656 0 
L 538 0 
L 538 3500 
L 1656 3500 
L 1656 2925 
Q 1872 3269 2151 3426 
Q 2431 3584 2822 3584 
Q 2878 3584 2943 3579 
Q 3009 3575 3134 3559 
L 3138 2547 
z
" id="DejaVuSans-Bold-72" transform="scale(0.015625)"/>
      <path d="M 3272 3391 
L 3272 2541 
Q 2913 2691 2578 2766 
Q 2244 2841 1947 2841 
Q 1628 2841 1473 2761 
Q 1319 2681 1319 2516 
Q 1319 2381 1436 2309 
Q 1553 2238 1856 2203 
L 2053 2175 
Q 2913 2066 3209 1816 
Q 3506 1566 3506 1031 
Q 3506 472 3093 190 
Q 2681 -91 1863 -91 
Q 1516 -91 1145 -36 
Q 775 19 384 128 
L 384 978 
Q 719 816 1070 734 
Q 1422 653 1784 653 
Q 2113 653 2278 743 
Q 2444 834 2444 1013 
Q 2444 1163 2330 1236 
Q 2216 1309 1875 1350 
L 1678 1375 
Q 931 1469 631 1722 
Q 331 1975 331 2491 
Q 331 3047 712 3315 
Q 1094 3584 1881 3584 
Q 2191 3584 2531 3537 
Q 2872 3491 3272 3391 
z
" id="DejaVuSans-Bold-73" transform="scale(0.015625)"/>
      <path d="M 4031 1759 
L 4031 1441 
L 1416 1441 
Q 1456 1047 1700 850 
Q 1944 653 2381 653 
Q 2734 653 3104 758 
Q 3475 863 3866 1075 
L 3866 213 
Q 3469 63 3072 -14 
Q 2675 -91 2278 -91 
Q 1328 -91 801 392 
Q 275 875 275 1747 
Q 275 2603 792 3093 
Q 1309 3584 2216 3584 
Q 3041 3584 3536 3087 
Q 4031 2591 4031 1759 
z
M 2881 2131 
Q 2881 2450 2695 2645 
Q 2509 2841 2209 2841 
Q 1884 2841 1681 2658 
Q 1478 2475 1428 2131 
L 2881 2131 
z
" id="DejaVuSans-Bold-65" transform="scale(0.015625)"/>
     </defs>
     <use xlink:href="#DejaVuSans-Bold-43"/>
     <use x="73.388672" xlink:href="#DejaVuSans-Bold-6f"/>
     <use x="142.089844" xlink:href="#DejaVuSans-Bold-72"/>
     <use x="191.40625" xlink:href="#DejaVuSans-Bold-73"/>
     <use x="250.927734" xlink:href="#DejaVuSans-Bold-65"/>
    </g>
   </g>
  </g>
  <g id="axes_5">
   <g id="patch_15">
    <path d="M 497.858386 215.780904 
L 875.70202 215.780904 
L 875.70202 59.341137 
L 497.858386 59.341137 
z
" style="fill:none;opacity:0;"/>
   </g>
   <g id="patch_16">
    <path clip-path="url(#p042ccb2f3a)" d="M 511.087047 215.780904 
L 511.087047 67.163125 
L 555.733778 67.163125 
L 555.733778 215.780904 
z
" style="fill:#808080;opacity:0.15;stroke:#808080;stroke-linejoin:miter;"/>
   </g>
   <g id="patch_17">
    <path clip-path="url(#p042ccb2f3a)" d="M 698.768677 215.780904 
L 698.768677 67.163125 
L 736.801078 67.163125 
L 736.801078 215.780904 
z
" style="fill:#808080;opacity:0.15;stroke:#808080;stroke-linejoin:miter;"/>
   </g>
   <g id="patch_18">
    <path clip-path="url(#p042ccb2f3a)" d="M 828.574915 215.780904 
L 828.574915 67.163125 
L 850.89828 67.163125 
L 850.89828 215.780904 
z
" style="fill:#808080;opacity:0.15;stroke:#808080;stroke-linejoin:miter;"/>
   </g>
   <g id="matplotlib.axis_7">
    <g id="xtick_33">
     <g id="line2d_66">
      <g>
       <use style="stroke:#000000;stroke-width:0.8;" x="497.858386" xlink:href="#mb440546f51" y="215.780904"/>
      </g>
     </g>
     <g id="text_46">
      <!-- mars -->
      <g transform="translate(486.663781 243.646742)rotate(-45)scale(0.09 -0.09)">
       <use xlink:href="#DejaVuSans-6d"/>
       <use x="97.412109" xlink:href="#DejaVuSans-61"/>
       <use x="158.691406" xlink:href="#DejaVuSans-72"/>
       <use x="199.804688" xlink:href="#DejaVuSans-73"/>
      </g>
     </g>
    </g>
    <g id="xtick_34">
     <g id="line2d_67">
      <g>
       <use style="stroke:#000000;stroke-width:0.8;" x="523.488917" xlink:href="#mb440546f51" y="215.780904"/>
      </g>
     </g>
     <g id="text_47">
      <!-- avril -->
      <g transform="translate(514.505788 241.435265)rotate(-45)scale(0.09 -0.09)">
       <use xlink:href="#DejaVuSans-61"/>
       <use x="61.279297" xlink:href="#DejaVuSans-76"/>
       <use x="120.458984" xlink:href="#DejaVuSans-72"/>
       <use x="161.572266" xlink:href="#DejaVuSans-69"/>
       <use x="189.355469" xlink:href="#DejaVuSans-6c"/>
      </g>
     </g>
    </g>
    <g id="xtick_35">
     <g id="line2d_68">
      <g>
       <use style="stroke:#000000;stroke-width:0.8;" x="548.292657" xlink:href="#mb440546f51" y="215.780904"/>
      </g>
     </g>
     <g id="text_48">
      <!-- mai -->
      <g transform="translate(541.261474 239.483319)rotate(-45)scale(0.09 -0.09)">
       <use xlink:href="#DejaVuSans-6d"/>
       <use x="97.412109" xlink:href="#DejaVuSans-61"/>
       <use x="158.691406" xlink:href="#DejaVuSans-69"/>
      </g>
     </g>
    </g>
    <g id="xtick_36">
     <g id="line2d_69">
      <g>
       <use style="stroke:#000000;stroke-width:0.8;" x="573.923188" xlink:href="#mb440546f51" y="215.780904"/>
      </g>
     </g>
     <g id="text_49">
      <!-- juin -->
      <g transform="translate(567.156507 239.218817)rotate(-45)scale(0.09 -0.09)">
       <use xlink:href="#DejaVuSans-6a"/>
       <use x="27.783203" xlink:href="#DejaVuSans-75"/>
       <use x="91.162109" xlink:href="#DejaVuSans-69"/>
       <use x="118.945312" xlink:href="#DejaVuSans-6e"/>
      </g>
     </g>
    </g>
    <g id="xtick_37">
     <g id="line2d_70">
      <g>
       <use style="stroke:#000000;stroke-width:0.8;" x="598.726927" xlink:href="#mb440546f51" y="215.780904"/>
      </g>
     </g>
     <g id="text_50">
      <!-- juil. -->
      <g transform="translate(592.202873 238.976191)rotate(-45)scale(0.09 -0.09)">
       <use xlink:href="#DejaVuSans-6a"/>
       <use x="27.783203" xlink:href="#DejaVuSans-75"/>
       <use x="91.162109" xlink:href="#DejaVuSans-69"/>
       <use x="118.945312" xlink:href="#DejaVuSans-6c"/>
       <use x="146.728516" xlink:href="#DejaVuSans-2e"/>
      </g>
     </g>
    </g>
    <g id="xtick_38">
     <g id="line2d_71">
      <g>
       <use style="stroke:#000000;stroke-width:0.8;" x="624.357458" xlink:href="#mb440546f51" y="215.780904"/>
      </g>
     </g>
     <g id="text_51">
      <!-- août -->
      <g transform="translate(614.871179 241.938416)rotate(-45)scale(0.09 -0.09)">
       <use xlink:href="#DejaVuSans-61"/>
       <use x="61.279297" xlink:href="#DejaVuSans-6f"/>
       <use x="122.460938" xlink:href="#DejaVuSans-fb"/>
       <use x="185.839844" xlink:href="#DejaVuSans-74"/>
      </g>
     </g>
    </g>
    <g id="xtick_39">
     <g id="line2d_72">
      <g>
       <use style="stroke:#000000;stroke-width:0.8;" x="649.987989" xlink:href="#mb440546f51" y="215.780904"/>
      </g>
     </g>
     <g id="text_52">
      <!-- sept. -->
      <g transform="translate(639.035016 243.40511)rotate(-45)scale(0.09 -0.09)">
       <use xlink:href="#DejaVuSans-73"/>
       <use x="52.099609" xlink:href="#DejaVuSans-65"/>
       <use x="113.623047" xlink:href="#DejaVuSans-70"/>
       <use x="177.099609" xlink:href="#DejaVuSans-74"/>
       <use x="216.308594" xlink:href="#DejaVuSans-2e"/>
      </g>
     </g>
    </g>
    <g id="xtick_40">
     <g id="line2d_73">
      <g>
       <use style="stroke:#000000;stroke-width:0.8;" x="674.791729" xlink:href="#mb440546f51" y="215.780904"/>
      </g>
     </g>
     <g id="text_53">
      <!-- oct. -->
      <g transform="translate(667.716794 239.527071)rotate(-45)scale(0.09 -0.09)">
       <use xlink:href="#DejaVuSans-6f"/>
       <use x="61.181641" xlink:href="#DejaVuSans-63"/>
       <use x="116.162109" xlink:href="#DejaVuSans-74"/>
       <use x="155.371094" xlink:href="#DejaVuSans-2e"/>
      </g>
     </g>
    </g>
    <g id="xtick_41">
     <g id="line2d_74">
      <g>
       <use style="stroke:#000000;stroke-width:0.8;" x="700.42226" xlink:href="#mb440546f51" y="215.780904"/>
      </g>
     </g>
     <g id="text_54">
      <!-- nov. -->
      <g transform="translate(692.034758 240.839638)rotate(-45)scale(0.09 -0.09)">
       <use xlink:href="#DejaVuSans-6e"/>
       <use x="63.378906" xlink:href="#DejaVuSans-6f"/>
       <use x="124.560547" xlink:href="#DejaVuSans-76"/>
       <use x="175.990234" xlink:href="#DejaVuSans-2e"/>
      </g>
     </g>
    </g>
    <g id="xtick_42">
     <g id="line2d_75">
      <g>
       <use style="stroke:#000000;stroke-width:0.8;" x="725.225999" xlink:href="#mb440546f51" y="215.780904"/>
      </g>
     </g>
     <g id="text_55">
      <!-- déc. -->
      <g transform="translate(716.583939 241.094197)rotate(-45)scale(0.09 -0.09)">
       <use xlink:href="#DejaVuSans-64"/>
       <use x="63.476562" xlink:href="#DejaVuSans-e9"/>
       <use x="125" xlink:href="#DejaVuSans-63"/>
       <use x="179.980469" xlink:href="#DejaVuSans-2e"/>
      </g>
     </g>
    </g>
    <g id="xtick_43">
     <g id="line2d_76">
      <g>
       <use style="stroke:#000000;stroke-width:0.8;" x="750.85653" xlink:href="#mb440546f51" y="215.780904"/>
      </g>
     </g>
     <g id="text_56">
      <!-- janv. -->
      <g transform="translate(740.695075 242.613592)rotate(-45)scale(0.09 -0.09)">
       <use xlink:href="#DejaVuSans-6a"/>
       <use x="27.783203" xlink:href="#DejaVuSans-61"/>
       <use x="89.0625" xlink:href="#DejaVuSans-6e"/>
       <use x="152.441406" xlink:href="#DejaVuSans-76"/>
       <use x="203.871094" xlink:href="#DejaVuSans-2e"/>
      </g>
     </g>
    </g>
    <g id="xtick_44">
     <g id="line2d_77">
      <g>
       <use style="stroke:#000000;stroke-width:0.8;" x="776.487061" xlink:href="#mb440546f51" y="215.780904"/>
      </g>
     </g>
     <g id="text_57">
      <!-- fév. -->
      <g transform="translate(769.870531 239.068667)rotate(-45)scale(0.09 -0.09)">
       <use xlink:href="#DejaVuSans-66"/>
       <use x="35.205078" xlink:href="#DejaVuSans-e9"/>
       <use x="96.728516" xlink:href="#DejaVuSans-76"/>
       <use x="148.158203" xlink:href="#DejaVuSans-2e"/>
      </g>
     </g>
    </g>
    <g id="xtick_45">
     <g id="line2d_78">
      <g>
       <use style="stroke:#000000;stroke-width:0.8;" x="799.637218" xlink:href="#mb440546f51" y="215.780904"/>
      </g>
     </g>
     <g id="text_58">
      <!-- mars -->
      <g transform="translate(788.442613 243.646742)rotate(-45)scale(0.09 -0.09)">
       <use xlink:href="#DejaVuSans-6d"/>
       <use x="97.412109" xlink:href="#DejaVuSans-61"/>
       <use x="158.691406" xlink:href="#DejaVuSans-72"/>
       <use x="199.804688" xlink:href="#DejaVuSans-73"/>
      </g>
     </g>
    </g>
    <g id="xtick_46">
     <g id="line2d_79">
      <g>
       <use style="stroke:#000000;stroke-width:0.8;" x="825.267749" xlink:href="#mb440546f51" y="215.780904"/>
      </g>
     </g>
     <g id="text_59">
      <!-- avril -->
      <g transform="translate(816.284621 241.435265)rotate(-45)scale(0.09 -0.09)">
       <use xlink:href="#DejaVuSans-61"/>
       <use x="61.279297" xlink:href="#DejaVuSans-76"/>
       <use x="120.458984" xlink:href="#DejaVuSans-72"/>
       <use x="161.572266" xlink:href="#DejaVuSans-69"/>
       <use x="189.355469" xlink:href="#DejaVuSans-6c"/>
      </g>
     </g>
    </g>
    <g id="xtick_47">
     <g id="line2d_80">
      <g>
       <use style="stroke:#000000;stroke-width:0.8;" x="850.071489" xlink:href="#mb440546f51" y="215.780904"/>
      </g>
     </g>
     <g id="text_60">
      <!-- mai -->
      <g transform="translate(843.040306 239.483319)rotate(-45)scale(0.09 -0.09)">
       <use xlink:href="#DejaVuSans-6d"/>
       <use x="97.412109" xlink:href="#DejaVuSans-61"/>
       <use x="158.691406" xlink:href="#DejaVuSans-69"/>
      </g>
     </g>
    </g>
    <g id="xtick_48">
     <g id="line2d_81">
      <g>
       <use style="stroke:#000000;stroke-width:0.8;" x="875.70202" xlink:href="#mb440546f51" y="215.780904"/>
      </g>
     </g>
     <g id="text_61">
      <!-- juin -->
      <g transform="translate(868.93534 239.218817)rotate(-45)scale(0.09 -0.09)">
       <use xlink:href="#DejaVuSans-6a"/>
       <use x="27.783203" xlink:href="#DejaVuSans-75"/>
       <use x="91.162109" xlink:href="#DejaVuSans-69"/>
       <use x="118.945312" xlink:href="#DejaVuSans-6e"/>
      </g>
     </g>
    </g>
   </g>
   <g id="matplotlib.axis_8">
    <g id="ytick_16">
     <g id="line2d_82">
      <path clip-path="url(#p042ccb2f3a)" d="M 497.858386 208.628837 
L 875.70202 208.628837 
" style="fill:none;stroke:#b0b0b0;stroke-linecap:square;stroke-opacity:0.5;stroke-width:0.8;"/>
     </g>
     <g id="text_62">
      <!-- 0 -->
      <g transform="translate(882.70202 212.048134)scale(0.09 -0.09)">
       <use xlink:href="#DejaVuSans-30"/>
      </g>
     </g>
    </g>
    <g id="ytick_17">
     <g id="line2d_83">
      <path clip-path="url(#p042ccb2f3a)" d="M 497.858386 137.108161 
L 875.70202 137.108161 
" style="fill:none;stroke:#b0b0b0;stroke-linecap:square;stroke-opacity:0.5;stroke-width:0.8;"/>
     </g>
     <g id="text_63">
      <!-- 20 -->
      <g transform="translate(882.70202 140.527458)scale(0.09 -0.09)">
       <use xlink:href="#DejaVuSans-32"/>
       <use x="63.623047" xlink:href="#DejaVuSans-30"/>
      </g>
     </g>
    </g>
    <g id="ytick_18">
     <g id="line2d_84">
      <path clip-path="url(#p042ccb2f3a)" d="M 497.858386 65.587485 
L 875.70202 65.587485 
" style="fill:none;stroke:#b0b0b0;stroke-linecap:square;stroke-opacity:0.5;stroke-width:0.8;"/>
     </g>
     <g id="text_64">
      <!-- 40 -->
      <g transform="translate(882.70202 69.006782)scale(0.09 -0.09)">
       <use xlink:href="#DejaVuSans-34"/>
       <use x="63.623047" xlink:href="#DejaVuSans-30"/>
      </g>
     </g>
    </g>
    <g id="ytick_19">
     <g id="line2d_85">
      <path clip-path="url(#p042ccb2f3a)" d="M 497.858386 172.868499 
L 875.70202 172.868499 
" style="fill:none;stroke:#b0b0b0;stroke-linecap:square;stroke-opacity:0.2;stroke-width:0.8;"/>
     </g>
    </g>
    <g id="ytick_20">
     <g id="line2d_86">
      <path clip-path="url(#p042ccb2f3a)" d="M 497.858386 101.347823 
L 875.70202 101.347823 
" style="fill:none;stroke:#b0b0b0;stroke-linecap:square;stroke-opacity:0.2;stroke-width:0.8;"/>
     </g>
    </g>
   </g>
   <g id="line2d_87">
    <path clip-path="url(#p042ccb2f3a)" d="M 746.722574 208.628837 
L 782.274601 208.528517 
L 793.849679 208.28116 
L 814.519462 208.034729 
L 824.440958 207.912886 
L 840.976784 207.354908 
L 845.937532 206.931681 
L 845.937532 206.931681 
" style="fill:none;stroke:#b22222;stroke-linecap:square;"/>
   </g>
   <g id="line2d_88">
    <path clip-path="url(#p042ccb2f3a)" d="M 746.722574 208.628837 
L 772.353105 208.532031 
L 774.833479 208.259717 
L 775.66027 208.248075 
L 777.313853 207.792036 
L 778.967435 207.146814 
L 779.794227 206.803148 
L 781.447809 206.71176 
L 783.101392 206.044592 
L 785.581766 204.776385 
L 787.235349 204.68916 
L 789.715723 203.90629 
L 791.369305 203.30365 
L 793.849679 203.120204 
L 797.156844 202.483016 
L 800.46401 202.256361 
L 803.771175 201.827838 
L 805.424758 201.764187 
L 811.212297 201.250736 
L 821.133793 200.41154 
L 822.787375 200.324385 
L 830.228497 199.308023 
L 832.708871 198.679845 
L 834.362454 198.420271 
L 836.842828 197.598997 
L 838.496411 197.035792 
L 839.323202 196.920202 
L 840.976784 196.211566 
L 842.630367 195.169875 
L 843.457158 194.566594 
L 844.28395 194.184092 
L 845.110741 194.041223 
L 845.937532 193.58854 
L 845.937532 193.58854 
" style="fill:none;stroke:#000000;stroke-linecap:square;stroke-width:1.5;"/>
   </g>
   <g id="line2d_89">
    <path clip-path="url(#p042ccb2f3a)" d="M 746.722574 208.628837 
L 771.526313 208.546873 
L 772.353105 208.479008 
L 774.006687 208.089255 
L 775.66027 208.02207 
L 776.487061 207.817292 
L 778.140644 206.982077 
L 778.967435 206.355866 
L 779.794227 205.882147 
L 781.447809 205.66253 
L 782.274601 205.088144 
L 783.928183 202.896776 
L 784.754975 201.445343 
L 785.581766 200.505996 
L 786.408557 200.230548 
L 787.235349 200.128219 
L 788.06214 198.969756 
L 789.715723 195.73559 
L 790.542514 193.750743 
L 791.369305 192.332331 
L 792.196097 191.843133 
L 793.022888 191.750036 
L 793.849679 190.533779 
L 797.156844 185.028305 
L 797.983636 184.62816 
L 798.810427 184.566141 
L 799.637218 183.630079 
L 802.944384 179.112292 
L 803.771175 178.805084 
L 804.597966 178.760287 
L 806.251549 176.956048 
L 808.731923 174.04411 
L 809.558714 173.773809 
L 810.385506 173.728251 
L 812.039088 172.557712 
L 814.519462 170.596715 
L 815.346254 170.382304 
L 816.173045 170.349503 
L 816.999836 169.760779 
L 820.307001 166.679327 
L 821.133793 166.355278 
L 821.960584 166.261479 
L 822.787375 165.295519 
L 824.440958 162.633416 
L 826.094541 159.133295 
L 826.921332 157.964438 
L 827.748123 157.611713 
L 828.574915 157.420451 
L 831.88208 148.913806 
L 832.708871 147.441566 
L 833.535663 146.870345 
L 834.362454 144.786512 
L 837.669619 134.685192 
L 838.496411 133.184036 
L 839.323202 132.635563 
L 840.149993 130.298611 
L 843.457158 119.033902 
L 844.28395 117.310845 
L 845.110741 116.73678 
L 845.937532 114.242029 
L 845.937532 114.242029 
" style="fill:none;stroke:#ffd700;stroke-linecap:square;stroke-width:3;"/>
   </g>
   <g id="line2d_90">
    <path clip-path="url(#p042ccb2f3a)" d="M 750.85653 215.780904 
L 750.85653 67.163125 
" style="fill:none;stroke:#000000;stroke-dasharray:1.85,0.8;stroke-dashoffset:0;stroke-width:0.5;"/>
   </g>
   <g id="text_65">
    <!-- France -->
    <g style="fill:#4169e1;" transform="translate(497.858386 56.587812)scale(0.22 -0.22)">
     <defs>
      <path d="M 588 4666 
L 3834 4666 
L 3834 3756 
L 1791 3756 
L 1791 2888 
L 3713 2888 
L 3713 1978 
L 1791 1978 
L 1791 0 
L 588 0 
L 588 4666 
z
" id="DejaVuSans-Bold-46" transform="scale(0.015625)"/>
      <path d="M 2106 1575 
Q 1756 1575 1579 1456 
Q 1403 1338 1403 1106 
Q 1403 894 1545 773 
Q 1688 653 1941 653 
Q 2256 653 2472 879 
Q 2688 1106 2688 1447 
L 2688 1575 
L 2106 1575 
z
M 3816 1997 
L 3816 0 
L 2688 0 
L 2688 519 
Q 2463 200 2181 54 
Q 1900 -91 1497 -91 
Q 953 -91 614 226 
Q 275 544 275 1050 
Q 275 1666 698 1953 
Q 1122 2241 2028 2241 
L 2688 2241 
L 2688 2328 
Q 2688 2594 2478 2717 
Q 2269 2841 1825 2841 
Q 1466 2841 1156 2769 
Q 847 2697 581 2553 
L 581 3406 
Q 941 3494 1303 3539 
Q 1666 3584 2028 3584 
Q 2975 3584 3395 3211 
Q 3816 2838 3816 1997 
z
" id="DejaVuSans-Bold-61" transform="scale(0.015625)"/>
      <path d="M 4056 2131 
L 4056 0 
L 2931 0 
L 2931 347 
L 2931 1631 
Q 2931 2084 2911 2256 
Q 2891 2428 2841 2509 
Q 2775 2619 2662 2680 
Q 2550 2741 2406 2741 
Q 2056 2741 1856 2470 
Q 1656 2200 1656 1722 
L 1656 0 
L 538 0 
L 538 3500 
L 1656 3500 
L 1656 2988 
Q 1909 3294 2193 3439 
Q 2478 3584 2822 3584 
Q 3428 3584 3742 3212 
Q 4056 2841 4056 2131 
z
" id="DejaVuSans-Bold-6e" transform="scale(0.015625)"/>
      <path d="M 3366 3391 
L 3366 2478 
Q 3138 2634 2908 2709 
Q 2678 2784 2431 2784 
Q 1963 2784 1702 2511 
Q 1441 2238 1441 1747 
Q 1441 1256 1702 982 
Q 1963 709 2431 709 
Q 2694 709 2930 787 
Q 3166 866 3366 1019 
L 3366 103 
Q 3103 6 2833 -42 
Q 2563 -91 2291 -91 
Q 1344 -91 809 395 
Q 275 881 275 1747 
Q 275 2613 809 3098 
Q 1344 3584 2291 3584 
Q 2566 3584 2833 3536 
Q 3100 3488 3366 3391 
z
" id="DejaVuSans-Bold-63" transform="scale(0.015625)"/>
     </defs>
     <use xlink:href="#DejaVuSans-Bold-46"/>
     <use x="61.935547" xlink:href="#DejaVuSans-Bold-72"/>
     <use x="111.251953" xlink:href="#DejaVuSans-Bold-61"/>
     <use x="178.732422" xlink:href="#DejaVuSans-Bold-6e"/>
     <use x="249.923828" xlink:href="#DejaVuSans-Bold-63"/>
     <use x="309.201172" xlink:href="#DejaVuSans-Bold-65"/>
    </g>
   </g>
  </g>
  <g id="text_66">
   <!-- @E_Dmz - Données Santé Publique France (27/04/2021) -->
   <g transform="translate(63.31726 408.19799)scale(0.09 -0.09)">
    <defs>
     <path d="M 2381 1678 
Q 2381 1231 2603 976 
Q 2825 722 3213 722 
Q 3597 722 3817 978 
Q 4038 1234 4038 1678 
Q 4038 2116 3813 2373 
Q 3588 2631 3206 2631 
Q 2828 2631 2604 2375 
Q 2381 2119 2381 1678 
z
M 4084 744 
Q 3897 503 3655 389 
Q 3413 275 3091 275 
Q 2553 275 2217 664 
Q 1881 1053 1881 1678 
Q 1881 2303 2218 2693 
Q 2556 3084 3091 3084 
Q 3413 3084 3656 2967 
Q 3900 2850 4084 2613 
L 4084 3022 
L 4531 3022 
L 4531 722 
Q 4988 791 5245 1139 
Q 5503 1488 5503 2041 
Q 5503 2375 5404 2669 
Q 5306 2963 5106 3213 
Q 4781 3622 4314 3839 
Q 3847 4056 3297 4056 
Q 2913 4056 2559 3954 
Q 2206 3853 1906 3653 
Q 1416 3334 1139 2817 
Q 863 2300 863 1697 
Q 863 1200 1042 765 
Q 1222 331 1563 0 
Q 1891 -325 2322 -495 
Q 2753 -666 3244 -666 
Q 3647 -666 4036 -530 
Q 4425 -394 4750 -141 
L 5031 -488 
Q 4641 -791 4180 -952 
Q 3719 -1113 3244 -1113 
Q 2666 -1113 2153 -908 
Q 1641 -703 1241 -313 
Q 841 78 631 592 
Q 422 1106 422 1697 
Q 422 2266 634 2781 
Q 847 3297 1241 3688 
Q 1644 4084 2172 4295 
Q 2700 4506 3291 4506 
Q 3953 4506 4520 4234 
Q 5088 3963 5472 3463 
Q 5706 3156 5829 2797 
Q 5953 2438 5953 2053 
Q 5953 1231 5456 756 
Q 4959 281 4084 263 
L 4084 744 
z
" id="DejaVuSans-40" transform="scale(0.015625)"/>
     <path d="M 628 4666 
L 3578 4666 
L 3578 4134 
L 1259 4134 
L 1259 2753 
L 3481 2753 
L 3481 2222 
L 1259 2222 
L 1259 531 
L 3634 531 
L 3634 0 
L 628 0 
L 628 4666 
z
" id="DejaVuSans-45" transform="scale(0.015625)"/>
     <path d="M 3263 -1063 
L 3263 -1509 
L -63 -1509 
L -63 -1063 
L 3263 -1063 
z
" id="DejaVuSans-5f" transform="scale(0.015625)"/>
     <path d="M 1259 4147 
L 1259 519 
L 2022 519 
Q 2988 519 3436 956 
Q 3884 1394 3884 2338 
Q 3884 3275 3436 3711 
Q 2988 4147 2022 4147 
L 1259 4147 
z
M 628 4666 
L 1925 4666 
Q 3281 4666 3915 4102 
Q 4550 3538 4550 2338 
Q 4550 1131 3912 565 
Q 3275 0 1925 0 
L 628 0 
L 628 4666 
z
" id="DejaVuSans-44" transform="scale(0.015625)"/>
     <path d="M 353 3500 
L 3084 3500 
L 3084 2975 
L 922 459 
L 3084 459 
L 3084 0 
L 275 0 
L 275 525 
L 2438 3041 
L 353 3041 
L 353 3500 
z
" id="DejaVuSans-7a" transform="scale(0.015625)"/>
     <path d="M 3425 4513 
L 3425 3897 
Q 3066 4069 2747 4153 
Q 2428 4238 2131 4238 
Q 1616 4238 1336 4038 
Q 1056 3838 1056 3469 
Q 1056 3159 1242 3001 
Q 1428 2844 1947 2747 
L 2328 2669 
Q 3034 2534 3370 2195 
Q 3706 1856 3706 1288 
Q 3706 609 3251 259 
Q 2797 -91 1919 -91 
Q 1588 -91 1214 -16 
Q 841 59 441 206 
L 441 856 
Q 825 641 1194 531 
Q 1563 422 1919 422 
Q 2459 422 2753 634 
Q 3047 847 3047 1241 
Q 3047 1584 2836 1778 
Q 2625 1972 2144 2069 
L 1759 2144 
Q 1053 2284 737 2584 
Q 422 2884 422 3419 
Q 422 4038 858 4394 
Q 1294 4750 2059 4750 
Q 2388 4750 2728 4690 
Q 3069 4631 3425 4513 
z
" id="DejaVuSans-53" transform="scale(0.015625)"/>
     <path d="M 947 1747 
Q 947 1113 1208 752 
Q 1469 391 1925 391 
Q 2381 391 2643 752 
Q 2906 1113 2906 1747 
Q 2906 2381 2643 2742 
Q 2381 3103 1925 3103 
Q 1469 3103 1208 2742 
Q 947 2381 947 1747 
z
M 2906 525 
Q 2725 213 2448 61 
Q 2172 -91 1784 -91 
Q 1150 -91 751 415 
Q 353 922 353 1747 
Q 353 2572 751 3078 
Q 1150 3584 1784 3584 
Q 2172 3584 2448 3432 
Q 2725 3281 2906 2969 
L 2906 3500 
L 3481 3500 
L 3481 -1331 
L 2906 -1331 
L 2906 525 
z
" id="DejaVuSans-71" transform="scale(0.015625)"/>
     <path d="M 628 4666 
L 3309 4666 
L 3309 4134 
L 1259 4134 
L 1259 2759 
L 3109 2759 
L 3109 2228 
L 1259 2228 
L 1259 0 
L 628 0 
L 628 4666 
z
" id="DejaVuSans-46" transform="scale(0.015625)"/>
     <path d="M 525 4666 
L 3525 4666 
L 3525 4397 
L 1831 0 
L 1172 0 
L 2766 4134 
L 525 4134 
L 525 4666 
z
" id="DejaVuSans-37" transform="scale(0.015625)"/>
     <path d="M 1625 4666 
L 2156 4666 
L 531 -594 
L 0 -594 
L 1625 4666 
z
" id="DejaVuSans-2f" transform="scale(0.015625)"/>
    </defs>
    <use xlink:href="#DejaVuSans-40"/>
    <use x="100" xlink:href="#DejaVuSans-45"/>
    <use x="163.183594" xlink:href="#DejaVuSans-5f"/>
    <use x="213.183594" xlink:href="#DejaVuSans-44"/>
    <use x="290.185547" xlink:href="#DejaVuSans-6d"/>
    <use x="387.597656" xlink:href="#DejaVuSans-7a"/>
    <use x="440.087891" xlink:href="#DejaVuSans-20"/>
    <use x="471.875" xlink:href="#DejaVuSans-2d"/>
    <use x="507.958984" xlink:href="#DejaVuSans-20"/>
    <use x="539.746094" xlink:href="#DejaVuSans-44"/>
    <use x="616.748047" xlink:href="#DejaVuSans-6f"/>
    <use x="677.929688" xlink:href="#DejaVuSans-6e"/>
    <use x="741.308594" xlink:href="#DejaVuSans-6e"/>
    <use x="804.6875" xlink:href="#DejaVuSans-e9"/>
    <use x="866.210938" xlink:href="#DejaVuSans-65"/>
    <use x="927.734375" xlink:href="#DejaVuSans-73"/>
    <use x="979.833984" xlink:href="#DejaVuSans-20"/>
    <use x="1011.621094" xlink:href="#DejaVuSans-53"/>
    <use x="1075.097656" xlink:href="#DejaVuSans-61"/>
    <use x="1136.376953" xlink:href="#DejaVuSans-6e"/>
    <use x="1199.755859" xlink:href="#DejaVuSans-74"/>
    <use x="1238.964844" xlink:href="#DejaVuSans-e9"/>
    <use x="1300.488281" xlink:href="#DejaVuSans-20"/>
    <use x="1332.275391" xlink:href="#DejaVuSans-50"/>
    <use x="1390.828125" xlink:href="#DejaVuSans-75"/>
    <use x="1454.207031" xlink:href="#DejaVuSans-62"/>
    <use x="1517.683594" xlink:href="#DejaVuSans-6c"/>
    <use x="1545.466797" xlink:href="#DejaVuSans-69"/>
    <use x="1573.25" xlink:href="#DejaVuSans-71"/>
    <use x="1636.726562" xlink:href="#DejaVuSans-75"/>
    <use x="1700.105469" xlink:href="#DejaVuSans-65"/>
    <use x="1761.628906" xlink:href="#DejaVuSans-20"/>
    <use x="1793.416016" xlink:href="#DejaVuSans-46"/>
    <use x="1843.685547" xlink:href="#DejaVuSans-72"/>
    <use x="1884.798828" xlink:href="#DejaVuSans-61"/>
    <use x="1946.078125" xlink:href="#DejaVuSans-6e"/>
    <use x="2009.457031" xlink:href="#DejaVuSans-63"/>
    <use x="2064.4375" xlink:href="#DejaVuSans-65"/>
    <use x="2125.960938" xlink:href="#DejaVuSans-20"/>
    <use x="2157.748047" xlink:href="#DejaVuSans-28"/>
    <use x="2196.761719" xlink:href="#DejaVuSans-32"/>
    <use x="2260.384766" xlink:href="#DejaVuSans-37"/>
    <use x="2324.007812" xlink:href="#DejaVuSans-2f"/>
    <use x="2357.699219" xlink:href="#DejaVuSans-30"/>
    <use x="2421.322266" xlink:href="#DejaVuSans-34"/>
    <use x="2484.945312" xlink:href="#DejaVuSans-2f"/>
    <use x="2518.636719" xlink:href="#DejaVuSans-32"/>
    <use x="2582.259766" xlink:href="#DejaVuSans-30"/>
    <use x="2645.882812" xlink:href="#DejaVuSans-32"/>
    <use x="2709.505859" xlink:href="#DejaVuSans-31"/>
    <use x="2773.128906" xlink:href="#DejaVuSans-29"/>
   </g>
   <!-- En Corse : 0.34 millions d'habitants, dont + de 60 ans : 0.10 millions, 30 à 59 ans : 0.14 millions et 0 à 29 ans : 0.10 millions -->
   <g transform="translate(63.31726 418.526334)scale(0.09 -0.09)">
    <defs>
     <path d="M 4122 4306 
L 4122 3641 
Q 3803 3938 3442 4084 
Q 3081 4231 2675 4231 
Q 1875 4231 1450 3742 
Q 1025 3253 1025 2328 
Q 1025 1406 1450 917 
Q 1875 428 2675 428 
Q 3081 428 3442 575 
Q 3803 722 4122 1019 
L 4122 359 
Q 3791 134 3420 21 
Q 3050 -91 2638 -91 
Q 1578 -91 968 557 
Q 359 1206 359 2328 
Q 359 3453 968 4101 
Q 1578 4750 2638 4750 
Q 3056 4750 3426 4639 
Q 3797 4528 4122 4306 
z
" id="DejaVuSans-43" transform="scale(0.015625)"/>
     <path d="M 750 794 
L 1409 794 
L 1409 0 
L 750 0 
L 750 794 
z
M 750 3309 
L 1409 3309 
L 1409 2516 
L 750 2516 
L 750 3309 
z
" id="DejaVuSans-3a" transform="scale(0.015625)"/>
     <path d="M 1147 4666 
L 1147 2931 
L 616 2931 
L 616 4666 
L 1147 4666 
z
" id="DejaVuSans-27" transform="scale(0.015625)"/>
     <path d="M 2194 1759 
Q 1497 1759 1228 1600 
Q 959 1441 959 1056 
Q 959 750 1161 570 
Q 1363 391 1709 391 
Q 2188 391 2477 730 
Q 2766 1069 2766 1631 
L 2766 1759 
L 2194 1759 
z
M 3341 1997 
L 3341 0 
L 2766 0 
L 2766 531 
Q 2569 213 2275 61 
Q 1981 -91 1556 -91 
Q 1019 -91 701 211 
Q 384 513 384 1019 
Q 384 1609 779 1909 
Q 1175 2209 1959 2209 
L 2766 2209 
L 2766 2266 
Q 2766 2663 2505 2880 
Q 2244 3097 1772 3097 
Q 1472 3097 1187 3025 
Q 903 2953 641 2809 
L 641 3341 
Q 956 3463 1253 3523 
Q 1550 3584 1831 3584 
Q 2591 3584 2966 3190 
Q 3341 2797 3341 1997 
z
M 1403 5119 
L 2284 3950 
L 1806 3950 
L 787 5119 
L 1403 5119 
z
" id="DejaVuSans-e0" transform="scale(0.015625)"/>
    </defs>
    <use xlink:href="#DejaVuSans-45"/>
    <use x="63.183594" xlink:href="#DejaVuSans-6e"/>
    <use x="126.5625" xlink:href="#DejaVuSans-20"/>
    <use x="158.349609" xlink:href="#DejaVuSans-43"/>
    <use x="228.173828" xlink:href="#DejaVuSans-6f"/>
    <use x="289.355469" xlink:href="#DejaVuSans-72"/>
    <use x="330.46875" xlink:href="#DejaVuSans-73"/>
    <use x="382.568359" xlink:href="#DejaVuSans-65"/>
    <use x="444.091797" xlink:href="#DejaVuSans-20"/>
    <use x="475.878906" xlink:href="#DejaVuSans-3a"/>
    <use x="509.570312" xlink:href="#DejaVuSans-20"/>
    <use x="541.357422" xlink:href="#DejaVuSans-30"/>
    <use x="604.980469" xlink:href="#DejaVuSans-2e"/>
    <use x="636.767578" xlink:href="#DejaVuSans-33"/>
    <use x="700.390625" xlink:href="#DejaVuSans-34"/>
    <use x="764.013672" xlink:href="#DejaVuSans-20"/>
    <use x="795.800781" xlink:href="#DejaVuSans-6d"/>
    <use x="893.212891" xlink:href="#DejaVuSans-69"/>
    <use x="920.996094" xlink:href="#DejaVuSans-6c"/>
    <use x="948.779297" xlink:href="#DejaVuSans-6c"/>
    <use x="976.5625" xlink:href="#DejaVuSans-69"/>
    <use x="1004.345703" xlink:href="#DejaVuSans-6f"/>
    <use x="1065.527344" xlink:href="#DejaVuSans-6e"/>
    <use x="1128.90625" xlink:href="#DejaVuSans-73"/>
    <use x="1181.005859" xlink:href="#DejaVuSans-20"/>
    <use x="1212.792969" xlink:href="#DejaVuSans-64"/>
    <use x="1276.269531" xlink:href="#DejaVuSans-27"/>
    <use x="1303.759766" xlink:href="#DejaVuSans-68"/>
    <use x="1367.138672" xlink:href="#DejaVuSans-61"/>
    <use x="1428.417969" xlink:href="#DejaVuSans-62"/>
    <use x="1491.894531" xlink:href="#DejaVuSans-69"/>
    <use x="1519.677734" xlink:href="#DejaVuSans-74"/>
    <use x="1558.886719" xlink:href="#DejaVuSans-61"/>
    <use x="1620.166016" xlink:href="#DejaVuSans-6e"/>
    <use x="1683.544922" xlink:href="#DejaVuSans-74"/>
    <use x="1722.753906" xlink:href="#DejaVuSans-73"/>
    <use x="1774.853516" xlink:href="#DejaVuSans-2c"/>
    <use x="1806.640625" xlink:href="#DejaVuSans-20"/>
    <use x="1838.427734" xlink:href="#DejaVuSans-64"/>
    <use x="1901.904297" xlink:href="#DejaVuSans-6f"/>
    <use x="1963.085938" xlink:href="#DejaVuSans-6e"/>
    <use x="2026.464844" xlink:href="#DejaVuSans-74"/>
    <use x="2065.673828" xlink:href="#DejaVuSans-20"/>
    <use x="2097.460938" xlink:href="#DejaVuSans-2b"/>
    <use x="2181.25" xlink:href="#DejaVuSans-20"/>
    <use x="2213.037109" xlink:href="#DejaVuSans-64"/>
    <use x="2276.513672" xlink:href="#DejaVuSans-65"/>
    <use x="2338.037109" xlink:href="#DejaVuSans-20"/>
    <use x="2369.824219" xlink:href="#DejaVuSans-36"/>
    <use x="2433.447266" xlink:href="#DejaVuSans-30"/>
    <use x="2497.070312" xlink:href="#DejaVuSans-20"/>
    <use x="2528.857422" xlink:href="#DejaVuSans-61"/>
    <use x="2590.136719" xlink:href="#DejaVuSans-6e"/>
    <use x="2653.515625" xlink:href="#DejaVuSans-73"/>
    <use x="2705.615234" xlink:href="#DejaVuSans-20"/>
    <use x="2737.402344" xlink:href="#DejaVuSans-3a"/>
    <use x="2771.09375" xlink:href="#DejaVuSans-20"/>
    <use x="2802.880859" xlink:href="#DejaVuSans-30"/>
    <use x="2866.503906" xlink:href="#DejaVuSans-2e"/>
    <use x="2898.291016" xlink:href="#DejaVuSans-31"/>
    <use x="2961.914062" xlink:href="#DejaVuSans-30"/>
    <use x="3025.537109" xlink:href="#DejaVuSans-20"/>
    <use x="3057.324219" xlink:href="#DejaVuSans-6d"/>
    <use x="3154.736328" xlink:href="#DejaVuSans-69"/>
    <use x="3182.519531" xlink:href="#DejaVuSans-6c"/>
    <use x="3210.302734" xlink:href="#DejaVuSans-6c"/>
    <use x="3238.085938" xlink:href="#DejaVuSans-69"/>
    <use x="3265.869141" xlink:href="#DejaVuSans-6f"/>
    <use x="3327.050781" xlink:href="#DejaVuSans-6e"/>
    <use x="3390.429688" xlink:href="#DejaVuSans-73"/>
    <use x="3442.529297" xlink:href="#DejaVuSans-2c"/>
    <use x="3474.316406" xlink:href="#DejaVuSans-20"/>
    <use x="3506.103516" xlink:href="#DejaVuSans-33"/>
    <use x="3569.726562" xlink:href="#DejaVuSans-30"/>
    <use x="3633.349609" xlink:href="#DejaVuSans-20"/>
    <use x="3665.136719" xlink:href="#DejaVuSans-e0"/>
    <use x="3726.416016" xlink:href="#DejaVuSans-20"/>
    <use x="3758.203125" xlink:href="#DejaVuSans-35"/>
    <use x="3821.826172" xlink:href="#DejaVuSans-39"/>
    <use x="3885.449219" xlink:href="#DejaVuSans-20"/>
    <use x="3917.236328" xlink:href="#DejaVuSans-61"/>
    <use x="3978.515625" xlink:href="#DejaVuSans-6e"/>
    <use x="4041.894531" xlink:href="#DejaVuSans-73"/>
    <use x="4093.994141" xlink:href="#DejaVuSans-20"/>
    <use x="4125.78125" xlink:href="#DejaVuSans-3a"/>
    <use x="4159.472656" xlink:href="#DejaVuSans-20"/>
    <use x="4191.259766" xlink:href="#DejaVuSans-30"/>
    <use x="4254.882812" xlink:href="#DejaVuSans-2e"/>
    <use x="4286.669922" xlink:href="#DejaVuSans-31"/>
    <use x="4350.292969" xlink:href="#DejaVuSans-34"/>
    <use x="4413.916016" xlink:href="#DejaVuSans-20"/>
    <use x="4445.703125" xlink:href="#DejaVuSans-6d"/>
    <use x="4543.115234" xlink:href="#DejaVuSans-69"/>
    <use x="4570.898438" xlink:href="#DejaVuSans-6c"/>
    <use x="4598.681641" xlink:href="#DejaVuSans-6c"/>
    <use x="4626.464844" xlink:href="#DejaVuSans-69"/>
    <use x="4654.248047" xlink:href="#DejaVuSans-6f"/>
    <use x="4715.429688" xlink:href="#DejaVuSans-6e"/>
    <use x="4778.808594" xlink:href="#DejaVuSans-73"/>
    <use x="4830.908203" xlink:href="#DejaVuSans-20"/>
    <use x="4862.695312" xlink:href="#DejaVuSans-65"/>
    <use x="4924.21875" xlink:href="#DejaVuSans-74"/>
    <use x="4963.427734" xlink:href="#DejaVuSans-20"/>
    <use x="4995.214844" xlink:href="#DejaVuSans-30"/>
    <use x="5058.837891" xlink:href="#DejaVuSans-20"/>
    <use x="5090.625" xlink:href="#DejaVuSans-e0"/>
    <use x="5151.904297" xlink:href="#DejaVuSans-20"/>
    <use x="5183.691406" xlink:href="#DejaVuSans-32"/>
    <use x="5247.314453" xlink:href="#DejaVuSans-39"/>
    <use x="5310.9375" xlink:href="#DejaVuSans-20"/>
    <use x="5342.724609" xlink:href="#DejaVuSans-61"/>
    <use x="5404.003906" xlink:href="#DejaVuSans-6e"/>
    <use x="5467.382812" xlink:href="#DejaVuSans-73"/>
    <use x="5519.482422" xlink:href="#DejaVuSans-20"/>
    <use x="5551.269531" xlink:href="#DejaVuSans-3a"/>
    <use x="5584.960938" xlink:href="#DejaVuSans-20"/>
    <use x="5616.748047" xlink:href="#DejaVuSans-30"/>
    <use x="5680.371094" xlink:href="#DejaVuSans-2e"/>
    <use x="5712.158203" xlink:href="#DejaVuSans-31"/>
    <use x="5775.78125" xlink:href="#DejaVuSans-30"/>
    <use x="5839.404297" xlink:href="#DejaVuSans-20"/>
    <use x="5871.191406" xlink:href="#DejaVuSans-6d"/>
    <use x="5968.603516" xlink:href="#DejaVuSans-69"/>
    <use x="5996.386719" xlink:href="#DejaVuSans-6c"/>
    <use x="6024.169922" xlink:href="#DejaVuSans-6c"/>
    <use x="6051.953125" xlink:href="#DejaVuSans-69"/>
    <use x="6079.736328" xlink:href="#DejaVuSans-6f"/>
    <use x="6140.917969" xlink:href="#DejaVuSans-6e"/>
    <use x="6204.296875" xlink:href="#DejaVuSans-73"/>
   </g>
   <!--  -->
   <g transform="translate(63.31726 428.604365)scale(0.09 -0.09)"/>
  </g>
 </g>
 <defs>
  <clipPath id="p86ceb7e44b">
   <rect height="86.458629" width="255.342076" x="54.4525" y="251.722275"/>
  </clipPath>
  <clipPath id="p1883b63960">
   <rect height="86.458629" width="255.342076" x="354.592867" y="251.722275"/>
  </clipPath>
  <clipPath id="p68a4a1ece8">
   <rect height="156.439768" width="377.843634" x="54.4525" y="59.341137"/>
  </clipPath>
  <clipPath id="p042ccb2f3a">
   <rect height="156.439768" width="377.843634" x="497.858386" y="59.341137"/>
  </clipPath>
 </defs>
</svg>
