<?xml version="1.0" encoding="utf-8" standalone="no"?>
<!DOCTYPE svg PUBLIC "-//W3C//DTD SVG 1.1//EN"
  "http://www.w3.org/Graphics/SVG/1.1/DTD/svg11.dtd">
<!-- Created with matplotlib (https://matplotlib.org/) -->
<svg height="447.180126pt" version="1.1" viewBox="0 0 929.99952 447.180126" width="929.99952pt" xmlns="http://www.w3.org/2000/svg" xmlns:xlink="http://www.w3.org/1999/xlink">
 <metadata>
  <rdf:RDF xmlns:cc="http://creativecommons.org/ns#" xmlns:dc="http://purl.org/dc/elements/1.1/" xmlns:rdf="http://www.w3.org/1999/02/22-rdf-syntax-ns#">
   <cc:Work>
    <dc:type rdf:resource="http://purl.org/dc/dcmitype/StillImage"/>
    <dc:date>2021-04-24T10:19:46.251045</dc:date>
    <dc:format>image/svg+xml</dc:format>
    <dc:creator>
     <cc:Agent>
      <dc:title>Matplotlib v3.3.4, https://matplotlib.org/</dc:title>
     </cc:Agent>
    </dc:creator>
   </cc:Work>
  </rdf:RDF>
 </metadata>
 <defs>
  <style type="text/css">*{stroke-linecap:butt;stroke-linejoin:round;}</style>
 </defs>
 <g id="figure_1">
  <g id="patch_1">
   <path d="M 0 447.180126 
L 929.99952 447.180126 
L 929.99952 -0 
L 0 -0 
z
" style="fill:#ffffff;"/>
  </g>
  <g id="axes_1">
   <g id="patch_2">
    <path d="M 54.4525 339.213919 
L 252.59134 339.213919 
L 252.59134 252.056402 
L 54.4525 252.056402 
z
" style="fill:none;opacity:0;"/>
   </g>
   <g id="patch_3">
    <path clip-path="url(#p06883f13b6)" d="M 61.389527 339.213919 
L 61.389527 256.414278 
L 84.801994 256.414278 
L 84.801994 339.213919 
z
" style="fill:#808080;opacity:0.15;stroke:#808080;stroke-linejoin:miter;"/>
   </g>
   <g id="patch_4">
    <path clip-path="url(#p06883f13b6)" d="M 159.808601 339.213919 
L 159.808601 256.414278 
L 179.752554 256.414278 
L 179.752554 339.213919 
z
" style="fill:#808080;opacity:0.15;stroke:#808080;stroke-linejoin:miter;"/>
   </g>
   <g id="patch_5">
    <path clip-path="url(#p06883f13b6)" d="M 227.87818 339.213919 
L 227.87818 256.414278 
L 239.584414 256.414278 
L 239.584414 339.213919 
z
" style="fill:#808080;opacity:0.15;stroke:#808080;stroke-linejoin:miter;"/>
   </g>
   <g id="matplotlib.axis_1">
    <g id="xtick_1">
     <g id="line2d_1">
      <defs>
       <path d="M 0 0 
L 0 3.5 
" id="med6df0b817" style="stroke:#000000;stroke-width:0.8;"/>
      </defs>
      <g>
       <use style="stroke:#000000;stroke-width:0.8;" x="54.4525" xlink:href="#med6df0b817" y="339.213919"/>
      </g>
     </g>
     <g id="text_1">
      <!-- mars -->
      <g transform="translate(43.257895 367.079756)rotate(-45)scale(0.09 -0.09)">
       <defs>
        <path d="M 52 44.1875 
Q 55.375 50.25 60.0625 53.125 
Q 64.75 56 71.09375 56 
Q 79.640625 56 84.28125 50.015625 
Q 88.921875 44.046875 88.921875 33.015625 
L 88.921875 0 
L 79.890625 0 
L 79.890625 32.71875 
Q 79.890625 40.578125 77.09375 44.375 
Q 74.3125 48.1875 68.609375 48.1875 
Q 61.625 48.1875 57.5625 43.546875 
Q 53.515625 38.921875 53.515625 30.90625 
L 53.515625 0 
L 44.484375 0 
L 44.484375 32.71875 
Q 44.484375 40.625 41.703125 44.40625 
Q 38.921875 48.1875 33.109375 48.1875 
Q 26.21875 48.1875 22.15625 43.53125 
Q 18.109375 38.875 18.109375 30.90625 
L 18.109375 0 
L 9.078125 0 
L 9.078125 54.6875 
L 18.109375 54.6875 
L 18.109375 46.1875 
Q 21.1875 51.21875 25.484375 53.609375 
Q 29.78125 56 35.6875 56 
Q 41.65625 56 45.828125 52.96875 
Q 50 49.953125 52 44.1875 
z
" id="DejaVuSans-109"/>
        <path d="M 34.28125 27.484375 
Q 23.390625 27.484375 19.1875 25 
Q 14.984375 22.515625 14.984375 16.5 
Q 14.984375 11.71875 18.140625 8.90625 
Q 21.296875 6.109375 26.703125 6.109375 
Q 34.1875 6.109375 38.703125 11.40625 
Q 43.21875 16.703125 43.21875 25.484375 
L 43.21875 27.484375 
z
M 52.203125 31.203125 
L 52.203125 0 
L 43.21875 0 
L 43.21875 8.296875 
Q 40.140625 3.328125 35.546875 0.953125 
Q 30.953125 -1.421875 24.3125 -1.421875 
Q 15.921875 -1.421875 10.953125 3.296875 
Q 6 8.015625 6 15.921875 
Q 6 25.140625 12.171875 29.828125 
Q 18.359375 34.515625 30.609375 34.515625 
L 43.21875 34.515625 
L 43.21875 35.40625 
Q 43.21875 41.609375 39.140625 45 
Q 35.0625 48.390625 27.6875 48.390625 
Q 23 48.390625 18.546875 47.265625 
Q 14.109375 46.140625 10.015625 43.890625 
L 10.015625 52.203125 
Q 14.9375 54.109375 19.578125 55.046875 
Q 24.21875 56 28.609375 56 
Q 40.484375 56 46.34375 49.84375 
Q 52.203125 43.703125 52.203125 31.203125 
z
" id="DejaVuSans-97"/>
        <path d="M 41.109375 46.296875 
Q 39.59375 47.171875 37.8125 47.578125 
Q 36.03125 48 33.890625 48 
Q 26.265625 48 22.1875 43.046875 
Q 18.109375 38.09375 18.109375 28.8125 
L 18.109375 0 
L 9.078125 0 
L 9.078125 54.6875 
L 18.109375 54.6875 
L 18.109375 46.1875 
Q 20.953125 51.171875 25.484375 53.578125 
Q 30.03125 56 36.53125 56 
Q 37.453125 56 38.578125 55.875 
Q 39.703125 55.765625 41.0625 55.515625 
z
" id="DejaVuSans-114"/>
        <path d="M 44.28125 53.078125 
L 44.28125 44.578125 
Q 40.484375 46.53125 36.375 47.5 
Q 32.28125 48.484375 27.875 48.484375 
Q 21.1875 48.484375 17.84375 46.4375 
Q 14.5 44.390625 14.5 40.28125 
Q 14.5 37.15625 16.890625 35.375 
Q 19.28125 33.59375 26.515625 31.984375 
L 29.59375 31.296875 
Q 39.15625 29.25 43.1875 25.515625 
Q 47.21875 21.78125 47.21875 15.09375 
Q 47.21875 7.46875 41.1875 3.015625 
Q 35.15625 -1.421875 24.609375 -1.421875 
Q 20.21875 -1.421875 15.453125 -0.5625 
Q 10.6875 0.296875 5.421875 2 
L 5.421875 11.28125 
Q 10.40625 8.6875 15.234375 7.390625 
Q 20.0625 6.109375 24.8125 6.109375 
Q 31.15625 6.109375 34.5625 8.28125 
Q 37.984375 10.453125 37.984375 14.40625 
Q 37.984375 18.0625 35.515625 20.015625 
Q 33.0625 21.96875 24.703125 23.78125 
L 21.578125 24.515625 
Q 13.234375 26.265625 9.515625 29.90625 
Q 5.8125 33.546875 5.8125 39.890625 
Q 5.8125 47.609375 11.28125 51.796875 
Q 16.75 56 26.8125 56 
Q 31.78125 56 36.171875 55.265625 
Q 40.578125 54.546875 44.28125 53.078125 
z
" id="DejaVuSans-115"/>
       </defs>
       <use xlink:href="#DejaVuSans-109"/>
       <use x="97.412109" xlink:href="#DejaVuSans-97"/>
       <use x="158.691406" xlink:href="#DejaVuSans-114"/>
       <use x="199.804688" xlink:href="#DejaVuSans-115"/>
      </g>
     </g>
    </g>
    <g id="xtick_2">
     <g id="line2d_2">
      <g>
       <use style="stroke:#000000;stroke-width:0.8;" x="80.899916" xlink:href="#med6df0b817" y="339.213919"/>
      </g>
     </g>
     <g id="text_2">
      <!-- mai -->
      <g transform="translate(73.868734 362.916333)rotate(-45)scale(0.09 -0.09)">
       <defs>
        <path d="M 9.421875 54.6875 
L 18.40625 54.6875 
L 18.40625 0 
L 9.421875 0 
z
M 9.421875 75.984375 
L 18.40625 75.984375 
L 18.40625 64.59375 
L 9.421875 64.59375 
z
" id="DejaVuSans-105"/>
       </defs>
       <use xlink:href="#DejaVuSans-109"/>
       <use x="97.412109" xlink:href="#DejaVuSans-97"/>
       <use x="158.691406" xlink:href="#DejaVuSans-105"/>
      </g>
     </g>
    </g>
    <g id="xtick_3">
     <g id="line2d_3">
      <g>
       <use style="stroke:#000000;stroke-width:0.8;" x="107.347332" xlink:href="#med6df0b817" y="339.213919"/>
      </g>
     </g>
     <g id="text_3">
      <!-- juil. -->
      <g transform="translate(100.823278 362.409205)rotate(-45)scale(0.09 -0.09)">
       <defs>
        <path d="M 9.421875 54.6875 
L 18.40625 54.6875 
L 18.40625 -0.984375 
Q 18.40625 -11.421875 14.421875 -16.109375 
Q 10.453125 -20.796875 1.609375 -20.796875 
L -1.8125 -20.796875 
L -1.8125 -13.1875 
L 0.59375 -13.1875 
Q 5.71875 -13.1875 7.5625 -10.8125 
Q 9.421875 -8.453125 9.421875 -0.984375 
z
M 9.421875 75.984375 
L 18.40625 75.984375 
L 18.40625 64.59375 
L 9.421875 64.59375 
z
" id="DejaVuSans-106"/>
        <path d="M 8.5 21.578125 
L 8.5 54.6875 
L 17.484375 54.6875 
L 17.484375 21.921875 
Q 17.484375 14.15625 20.5 10.265625 
Q 23.53125 6.390625 29.59375 6.390625 
Q 36.859375 6.390625 41.078125 11.03125 
Q 45.3125 15.671875 45.3125 23.6875 
L 45.3125 54.6875 
L 54.296875 54.6875 
L 54.296875 0 
L 45.3125 0 
L 45.3125 8.40625 
Q 42.046875 3.421875 37.71875 1 
Q 33.40625 -1.421875 27.6875 -1.421875 
Q 18.265625 -1.421875 13.375 4.4375 
Q 8.5 10.296875 8.5 21.578125 
z
M 31.109375 56 
z
" id="DejaVuSans-117"/>
        <path d="M 9.421875 75.984375 
L 18.40625 75.984375 
L 18.40625 0 
L 9.421875 0 
z
" id="DejaVuSans-108"/>
        <path d="M 10.6875 12.40625 
L 21 12.40625 
L 21 0 
L 10.6875 0 
z
" id="DejaVuSans-46"/>
       </defs>
       <use xlink:href="#DejaVuSans-106"/>
       <use x="27.783203" xlink:href="#DejaVuSans-117"/>
       <use x="91.162109" xlink:href="#DejaVuSans-105"/>
       <use x="118.945312" xlink:href="#DejaVuSans-108"/>
       <use x="146.728516" xlink:href="#DejaVuSans-46"/>
      </g>
     </g>
    </g>
    <g id="xtick_4">
     <g id="line2d_4">
      <g>
       <use style="stroke:#000000;stroke-width:0.8;" x="134.228313" xlink:href="#med6df0b817" y="339.213919"/>
      </g>
     </g>
     <g id="text_4">
      <!-- sept. -->
      <g transform="translate(123.275339 366.838124)rotate(-45)scale(0.09 -0.09)">
       <defs>
        <path d="M 56.203125 29.59375 
L 56.203125 25.203125 
L 14.890625 25.203125 
Q 15.484375 15.921875 20.484375 11.0625 
Q 25.484375 6.203125 34.421875 6.203125 
Q 39.59375 6.203125 44.453125 7.46875 
Q 49.3125 8.734375 54.109375 11.28125 
L 54.109375 2.78125 
Q 49.265625 0.734375 44.1875 -0.34375 
Q 39.109375 -1.421875 33.890625 -1.421875 
Q 20.796875 -1.421875 13.15625 6.1875 
Q 5.515625 13.8125 5.515625 26.8125 
Q 5.515625 40.234375 12.765625 48.109375 
Q 20.015625 56 32.328125 56 
Q 43.359375 56 49.78125 48.890625 
Q 56.203125 41.796875 56.203125 29.59375 
z
M 47.21875 32.234375 
Q 47.125 39.59375 43.09375 43.984375 
Q 39.0625 48.390625 32.421875 48.390625 
Q 24.90625 48.390625 20.390625 44.140625 
Q 15.875 39.890625 15.1875 32.171875 
z
" id="DejaVuSans-101"/>
        <path d="M 18.109375 8.203125 
L 18.109375 -20.796875 
L 9.078125 -20.796875 
L 9.078125 54.6875 
L 18.109375 54.6875 
L 18.109375 46.390625 
Q 20.953125 51.265625 25.265625 53.625 
Q 29.59375 56 35.59375 56 
Q 45.5625 56 51.78125 48.09375 
Q 58.015625 40.1875 58.015625 27.296875 
Q 58.015625 14.40625 51.78125 6.484375 
Q 45.5625 -1.421875 35.59375 -1.421875 
Q 29.59375 -1.421875 25.265625 0.953125 
Q 20.953125 3.328125 18.109375 8.203125 
z
M 48.6875 27.296875 
Q 48.6875 37.203125 44.609375 42.84375 
Q 40.53125 48.484375 33.40625 48.484375 
Q 26.265625 48.484375 22.1875 42.84375 
Q 18.109375 37.203125 18.109375 27.296875 
Q 18.109375 17.390625 22.1875 11.75 
Q 26.265625 6.109375 33.40625 6.109375 
Q 40.53125 6.109375 44.609375 11.75 
Q 48.6875 17.390625 48.6875 27.296875 
z
" id="DejaVuSans-112"/>
        <path d="M 18.3125 70.21875 
L 18.3125 54.6875 
L 36.8125 54.6875 
L 36.8125 47.703125 
L 18.3125 47.703125 
L 18.3125 18.015625 
Q 18.3125 11.328125 20.140625 9.421875 
Q 21.96875 7.515625 27.59375 7.515625 
L 36.8125 7.515625 
L 36.8125 0 
L 27.59375 0 
Q 17.1875 0 13.234375 3.875 
Q 9.28125 7.765625 9.28125 18.015625 
L 9.28125 47.703125 
L 2.6875 47.703125 
L 2.6875 54.6875 
L 9.28125 54.6875 
L 9.28125 70.21875 
z
" id="DejaVuSans-116"/>
       </defs>
       <use xlink:href="#DejaVuSans-115"/>
       <use x="52.099609" xlink:href="#DejaVuSans-101"/>
       <use x="113.623047" xlink:href="#DejaVuSans-112"/>
       <use x="177.099609" xlink:href="#DejaVuSans-116"/>
       <use x="216.308594" xlink:href="#DejaVuSans-46"/>
      </g>
     </g>
    </g>
    <g id="xtick_5">
     <g id="line2d_5">
      <g>
       <use style="stroke:#000000;stroke-width:0.8;" x="160.675729" xlink:href="#med6df0b817" y="339.213919"/>
      </g>
     </g>
     <g id="text_5">
      <!-- nov. -->
      <g transform="translate(152.288227 364.272653)rotate(-45)scale(0.09 -0.09)">
       <defs>
        <path d="M 54.890625 33.015625 
L 54.890625 0 
L 45.90625 0 
L 45.90625 32.71875 
Q 45.90625 40.484375 42.875 44.328125 
Q 39.84375 48.1875 33.796875 48.1875 
Q 26.515625 48.1875 22.3125 43.546875 
Q 18.109375 38.921875 18.109375 30.90625 
L 18.109375 0 
L 9.078125 0 
L 9.078125 54.6875 
L 18.109375 54.6875 
L 18.109375 46.1875 
Q 21.34375 51.125 25.703125 53.5625 
Q 30.078125 56 35.796875 56 
Q 45.21875 56 50.046875 50.171875 
Q 54.890625 44.34375 54.890625 33.015625 
z
" id="DejaVuSans-110"/>
        <path d="M 30.609375 48.390625 
Q 23.390625 48.390625 19.1875 42.75 
Q 14.984375 37.109375 14.984375 27.296875 
Q 14.984375 17.484375 19.15625 11.84375 
Q 23.34375 6.203125 30.609375 6.203125 
Q 37.796875 6.203125 41.984375 11.859375 
Q 46.1875 17.53125 46.1875 27.296875 
Q 46.1875 37.015625 41.984375 42.703125 
Q 37.796875 48.390625 30.609375 48.390625 
z
M 30.609375 56 
Q 42.328125 56 49.015625 48.375 
Q 55.71875 40.765625 55.71875 27.296875 
Q 55.71875 13.875 49.015625 6.21875 
Q 42.328125 -1.421875 30.609375 -1.421875 
Q 18.84375 -1.421875 12.171875 6.21875 
Q 5.515625 13.875 5.515625 27.296875 
Q 5.515625 40.765625 12.171875 48.375 
Q 18.84375 56 30.609375 56 
z
" id="DejaVuSans-111"/>
        <path d="M 2.984375 54.6875 
L 12.5 54.6875 
L 29.59375 8.796875 
L 46.6875 54.6875 
L 56.203125 54.6875 
L 35.6875 0 
L 23.484375 0 
z
" id="DejaVuSans-118"/>
       </defs>
       <use xlink:href="#DejaVuSans-110"/>
       <use x="63.378906" xlink:href="#DejaVuSans-111"/>
       <use x="124.560547" xlink:href="#DejaVuSans-118"/>
       <use x="175.990234" xlink:href="#DejaVuSans-46"/>
      </g>
     </g>
    </g>
    <g id="xtick_6">
     <g id="line2d_6">
      <g>
       <use style="stroke:#000000;stroke-width:0.8;" x="187.123145" xlink:href="#med6df0b817" y="339.213919"/>
      </g>
     </g>
     <g id="text_6">
      <!-- janv. -->
      <g transform="translate(176.961689 366.046607)rotate(-45)scale(0.09 -0.09)">
       <use xlink:href="#DejaVuSans-106"/>
       <use x="27.783203" xlink:href="#DejaVuSans-97"/>
       <use x="89.0625" xlink:href="#DejaVuSans-110"/>
       <use x="152.441406" xlink:href="#DejaVuSans-118"/>
       <use x="203.871094" xlink:href="#DejaVuSans-46"/>
      </g>
     </g>
    </g>
    <g id="xtick_7">
     <g id="line2d_7">
      <g>
       <use style="stroke:#000000;stroke-width:0.8;" x="212.703433" xlink:href="#med6df0b817" y="339.213919"/>
      </g>
     </g>
     <g id="text_7">
      <!-- mars -->
      <g transform="translate(201.508828 367.079756)rotate(-45)scale(0.09 -0.09)">
       <use xlink:href="#DejaVuSans-109"/>
       <use x="97.412109" xlink:href="#DejaVuSans-97"/>
       <use x="158.691406" xlink:href="#DejaVuSans-114"/>
       <use x="199.804688" xlink:href="#DejaVuSans-115"/>
      </g>
     </g>
    </g>
    <g id="xtick_8">
     <g id="line2d_8">
      <g>
       <use style="stroke:#000000;stroke-width:0.8;" x="239.150849" xlink:href="#med6df0b817" y="339.213919"/>
      </g>
     </g>
     <g id="text_8">
      <!-- mai -->
      <g transform="translate(232.119667 362.916333)rotate(-45)scale(0.09 -0.09)">
       <use xlink:href="#DejaVuSans-109"/>
       <use x="97.412109" xlink:href="#DejaVuSans-97"/>
       <use x="158.691406" xlink:href="#DejaVuSans-105"/>
      </g>
     </g>
    </g>
   </g>
   <g id="matplotlib.axis_2">
    <g id="ytick_1">
     <g id="line2d_9">
      <path clip-path="url(#p06883f13b6)" d="M 54.4525 336.792877 
L 252.59134 336.792877 
" style="fill:none;stroke:#b0b0b0;stroke-linecap:square;stroke-opacity:0.5;stroke-width:0.8;"/>
     </g>
     <g id="text_9">
      <!-- 0 -->
      <g transform="translate(41.72625 340.212174)scale(0.09 -0.09)">
       <defs>
        <path d="M 31.78125 66.40625 
Q 24.171875 66.40625 20.328125 58.90625 
Q 16.5 51.421875 16.5 36.375 
Q 16.5 21.390625 20.328125 13.890625 
Q 24.171875 6.390625 31.78125 6.390625 
Q 39.453125 6.390625 43.28125 13.890625 
Q 47.125 21.390625 47.125 36.375 
Q 47.125 51.421875 43.28125 58.90625 
Q 39.453125 66.40625 31.78125 66.40625 
z
M 31.78125 74.21875 
Q 44.046875 74.21875 50.515625 64.515625 
Q 56.984375 54.828125 56.984375 36.375 
Q 56.984375 17.96875 50.515625 8.265625 
Q 44.046875 -1.421875 31.78125 -1.421875 
Q 19.53125 -1.421875 13.0625 8.265625 
Q 6.59375 17.96875 6.59375 36.375 
Q 6.59375 54.828125 13.0625 64.515625 
Q 19.53125 74.21875 31.78125 74.21875 
z
" id="DejaVuSans-48"/>
       </defs>
       <use xlink:href="#DejaVuSans-48"/>
      </g>
     </g>
    </g>
    <g id="ytick_2">
     <g id="line2d_10">
      <path clip-path="url(#p06883f13b6)" d="M 54.4525 312.582455 
L 252.59134 312.582455 
" style="fill:none;stroke:#b0b0b0;stroke-linecap:square;stroke-opacity:0.5;stroke-width:0.8;"/>
     </g>
     <g id="text_10">
      <!-- 20 -->
      <g transform="translate(36 316.001752)scale(0.09 -0.09)">
       <defs>
        <path d="M 19.1875 8.296875 
L 53.609375 8.296875 
L 53.609375 0 
L 7.328125 0 
L 7.328125 8.296875 
Q 12.9375 14.109375 22.625 23.890625 
Q 32.328125 33.6875 34.8125 36.53125 
Q 39.546875 41.84375 41.421875 45.53125 
Q 43.3125 49.21875 43.3125 52.78125 
Q 43.3125 58.59375 39.234375 62.25 
Q 35.15625 65.921875 28.609375 65.921875 
Q 23.96875 65.921875 18.8125 64.3125 
Q 13.671875 62.703125 7.8125 59.421875 
L 7.8125 69.390625 
Q 13.765625 71.78125 18.9375 73 
Q 24.125 74.21875 28.421875 74.21875 
Q 39.75 74.21875 46.484375 68.546875 
Q 53.21875 62.890625 53.21875 53.421875 
Q 53.21875 48.921875 51.53125 44.890625 
Q 49.859375 40.875 45.40625 35.40625 
Q 44.1875 33.984375 37.640625 27.21875 
Q 31.109375 20.453125 19.1875 8.296875 
z
" id="DejaVuSans-50"/>
       </defs>
       <use xlink:href="#DejaVuSans-50"/>
       <use x="63.623047" xlink:href="#DejaVuSans-48"/>
      </g>
     </g>
    </g>
    <g id="ytick_3">
     <g id="line2d_11">
      <path clip-path="url(#p06883f13b6)" d="M 54.4525 288.372034 
L 252.59134 288.372034 
" style="fill:none;stroke:#b0b0b0;stroke-linecap:square;stroke-opacity:0.5;stroke-width:0.8;"/>
     </g>
     <g id="text_11">
      <!-- 40 -->
      <g transform="translate(36 291.791331)scale(0.09 -0.09)">
       <defs>
        <path d="M 37.796875 64.3125 
L 12.890625 25.390625 
L 37.796875 25.390625 
z
M 35.203125 72.90625 
L 47.609375 72.90625 
L 47.609375 25.390625 
L 58.015625 25.390625 
L 58.015625 17.1875 
L 47.609375 17.1875 
L 47.609375 0 
L 37.796875 0 
L 37.796875 17.1875 
L 4.890625 17.1875 
L 4.890625 26.703125 
z
" id="DejaVuSans-52"/>
       </defs>
       <use xlink:href="#DejaVuSans-52"/>
       <use x="63.623047" xlink:href="#DejaVuSans-48"/>
      </g>
     </g>
    </g>
    <g id="ytick_4">
     <g id="line2d_12">
      <path clip-path="url(#p06883f13b6)" d="M 54.4525 264.161613 
L 252.59134 264.161613 
" style="fill:none;stroke:#b0b0b0;stroke-linecap:square;stroke-opacity:0.5;stroke-width:0.8;"/>
     </g>
     <g id="text_12">
      <!-- 60 -->
      <g transform="translate(36 267.58091)scale(0.09 -0.09)">
       <defs>
        <path d="M 33.015625 40.375 
Q 26.375 40.375 22.484375 35.828125 
Q 18.609375 31.296875 18.609375 23.390625 
Q 18.609375 15.53125 22.484375 10.953125 
Q 26.375 6.390625 33.015625 6.390625 
Q 39.65625 6.390625 43.53125 10.953125 
Q 47.40625 15.53125 47.40625 23.390625 
Q 47.40625 31.296875 43.53125 35.828125 
Q 39.65625 40.375 33.015625 40.375 
z
M 52.59375 71.296875 
L 52.59375 62.3125 
Q 48.875 64.0625 45.09375 64.984375 
Q 41.3125 65.921875 37.59375 65.921875 
Q 27.828125 65.921875 22.671875 59.328125 
Q 17.53125 52.734375 16.796875 39.40625 
Q 19.671875 43.65625 24.015625 45.921875 
Q 28.375 48.1875 33.59375 48.1875 
Q 44.578125 48.1875 50.953125 41.515625 
Q 57.328125 34.859375 57.328125 23.390625 
Q 57.328125 12.15625 50.6875 5.359375 
Q 44.046875 -1.421875 33.015625 -1.421875 
Q 20.359375 -1.421875 13.671875 8.265625 
Q 6.984375 17.96875 6.984375 36.375 
Q 6.984375 53.65625 15.1875 63.9375 
Q 23.390625 74.21875 37.203125 74.21875 
Q 40.921875 74.21875 44.703125 73.484375 
Q 48.484375 72.75 52.59375 71.296875 
z
" id="DejaVuSans-54"/>
       </defs>
       <use xlink:href="#DejaVuSans-54"/>
       <use x="63.623047" xlink:href="#DejaVuSans-48"/>
      </g>
     </g>
    </g>
    <g id="ytick_5">
     <g id="line2d_13">
      <path clip-path="url(#p06883f13b6)" d="M 54.4525 324.687666 
L 252.59134 324.687666 
" style="fill:none;stroke:#b0b0b0;stroke-linecap:square;stroke-opacity:0.2;stroke-width:0.8;"/>
     </g>
    </g>
    <g id="ytick_6">
     <g id="line2d_14">
      <path clip-path="url(#p06883f13b6)" d="M 54.4525 300.477245 
L 252.59134 300.477245 
" style="fill:none;stroke:#b0b0b0;stroke-linecap:square;stroke-opacity:0.2;stroke-width:0.8;"/>
     </g>
    </g>
    <g id="ytick_7">
     <g id="line2d_15">
      <path clip-path="url(#p06883f13b6)" d="M 54.4525 276.266824 
L 252.59134 276.266824 
" style="fill:none;stroke:#b0b0b0;stroke-linecap:square;stroke-opacity:0.2;stroke-width:0.8;"/>
     </g>
    </g>
   </g>
   <g id="line2d_16">
    <path clip-path="url(#p06883f13b6)" d="M 184.955324 336.792877 
L 207.934227 336.689984 
L 213.136997 336.666239 
L 224.843231 336.565985 
L 233.080951 336.157052 
L 235.248772 336.040968 
L 235.248772 336.040968 
" style="fill:none;stroke:#b22222;stroke-linecap:square;"/>
   </g>
   <g id="line2d_17">
    <path clip-path="url(#p06883f13b6)" d="M 184.955324 336.792877 
L 198.829379 336.717642 
L 201.864328 336.269906 
L 202.731457 336.108427 
L 203.598585 336.007503 
L 204.465713 335.704731 
L 205.332842 335.546922 
L 207.067099 335.394618 
L 214.871254 334.798248 
L 217.039075 334.65879 
L 221.374717 334.343172 
L 223.976102 334.135819 
L 225.710359 333.886261 
L 226.143923 333.741297 
L 226.577488 333.466049 
L 227.444616 332.405428 
L 228.311744 331.741164 
L 231.346694 330.599803 
L 232.213822 330.016278 
L 232.647386 329.841955 
L 233.514515 328.684079 
L 234.381643 328.320752 
L 235.248772 327.43262 
L 235.248772 327.43262 
" style="fill:none;stroke:#000000;stroke-linecap:square;stroke-width:1.5;"/>
   </g>
   <g id="line2d_18">
    <path clip-path="url(#p06883f13b6)" d="M 184.955324 336.792877 
L 198.395815 336.766545 
L 199.262943 336.548709 
L 200.563636 336.395506 
L 203.165021 335.610339 
L 204.465713 334.310505 
L 205.332842 333.032216 
L 206.633534 332.316469 
L 207.067099 331.708444 
L 207.934227 330.940034 
L 208.367791 330.384672 
L 208.801355 330.08066 
L 209.23492 329.937032 
L 210.102048 328.828702 
L 211.402741 327.004626 
L 212.269869 326.705401 
L 212.703433 326.329574 
L 214.43769 324.127277 
L 215.738383 323.749057 
L 216.605511 323.167363 
L 217.906204 321.568304 
L 218.339768 321.30738 
L 218.773332 320.883677 
L 219.64046 319.521605 
L 220.074025 318.868097 
L 220.507589 318.588023 
L 220.941153 318.04463 
L 222.67541 317.596989 
L 223.542538 317.094291 
L 223.976102 316.704101 
L 224.843231 316.323487 
L 225.710359 315.442568 
L 226.143923 314.585588 
L 227.444616 310.367711 
L 228.311744 308.318618 
L 229.178873 306.963726 
L 231.346694 304.191705 
L 232.213822 302.410718 
L 232.647386 301.77636 
L 233.514515 298.930131 
L 234.381643 297.912766 
L 235.248772 295.911549 
L 235.248772 295.911549 
" style="fill:none;stroke:#ffd700;stroke-linecap:square;stroke-width:3;"/>
   </g>
   <g id="line2d_19">
    <path clip-path="url(#p06883f13b6)" d="M 187.123145 339.213919 
L 187.123145 256.414278 
" style="fill:none;stroke:#000000;stroke-dasharray:1.85,0.8;stroke-dashoffset:0;stroke-width:0.5;"/>
   </g>
   <g id="text_13">
    <!-- 2A -->
    <g style="fill:#4169e1;" transform="translate(64.359442 277.36628)scale(0.24 -0.24)">
     <defs>
      <path d="M 28.8125 13.8125 
L 60.890625 13.8125 
L 60.890625 0 
L 7.90625 0 
L 7.90625 13.8125 
L 34.515625 37.3125 
Q 38.09375 40.53125 39.796875 43.609375 
Q 41.5 46.6875 41.5 50 
Q 41.5 55.125 38.0625 58.25 
Q 34.625 61.375 28.90625 61.375 
Q 24.515625 61.375 19.28125 59.5 
Q 14.0625 57.625 8.109375 53.90625 
L 8.109375 69.921875 
Q 14.453125 72.015625 20.65625 73.109375 
Q 26.859375 74.21875 32.8125 74.21875 
Q 45.90625 74.21875 53.15625 68.453125 
Q 60.40625 62.703125 60.40625 52.390625 
Q 60.40625 46.4375 57.328125 41.28125 
Q 54.25 36.140625 44.390625 27.484375 
z
" id="DejaVuSans-Bold-50"/>
      <path d="M 53.421875 13.28125 
L 24.03125 13.28125 
L 19.390625 0 
L 0.484375 0 
L 27.484375 72.90625 
L 49.90625 72.90625 
L 76.90625 0 
L 58.015625 0 
z
M 28.71875 26.8125 
L 48.6875 26.8125 
L 38.71875 55.8125 
z
" id="DejaVuSans-Bold-65"/>
     </defs>
     <use xlink:href="#DejaVuSans-Bold-50"/>
     <use x="69.580078" xlink:href="#DejaVuSans-Bold-65"/>
    </g>
   </g>
  </g>
  <g id="axes_2">
   <g id="patch_6">
    <path d="M 278.942041 339.213919 
L 477.080881 339.213919 
L 477.080881 252.056402 
L 278.942041 252.056402 
z
" style="fill:none;opacity:0;"/>
   </g>
   <g id="patch_7">
    <path clip-path="url(#p3035e14410)" d="M 285.879068 339.213919 
L 285.879068 256.414278 
L 309.291535 256.414278 
L 309.291535 339.213919 
z
" style="fill:#808080;opacity:0.15;stroke:#808080;stroke-linejoin:miter;"/>
   </g>
   <g id="patch_8">
    <path clip-path="url(#p3035e14410)" d="M 384.298142 339.213919 
L 384.298142 256.414278 
L 404.242095 256.414278 
L 404.242095 339.213919 
z
" style="fill:#808080;opacity:0.15;stroke:#808080;stroke-linejoin:miter;"/>
   </g>
   <g id="patch_9">
    <path clip-path="url(#p3035e14410)" d="M 452.367721 339.213919 
L 452.367721 256.414278 
L 464.073955 256.414278 
L 464.073955 339.213919 
z
" style="fill:#808080;opacity:0.15;stroke:#808080;stroke-linejoin:miter;"/>
   </g>
   <g id="matplotlib.axis_3">
    <g id="xtick_9">
     <g id="line2d_20">
      <g>
       <use style="stroke:#000000;stroke-width:0.8;" x="278.942041" xlink:href="#med6df0b817" y="339.213919"/>
      </g>
     </g>
     <g id="text_14">
      <!-- mars -->
      <g transform="translate(267.747436 367.079756)rotate(-45)scale(0.09 -0.09)">
       <use xlink:href="#DejaVuSans-109"/>
       <use x="97.412109" xlink:href="#DejaVuSans-97"/>
       <use x="158.691406" xlink:href="#DejaVuSans-114"/>
       <use x="199.804688" xlink:href="#DejaVuSans-115"/>
      </g>
     </g>
    </g>
    <g id="xtick_10">
     <g id="line2d_21">
      <g>
       <use style="stroke:#000000;stroke-width:0.8;" x="305.389457" xlink:href="#med6df0b817" y="339.213919"/>
      </g>
     </g>
     <g id="text_15">
      <!-- mai -->
      <g transform="translate(298.358275 362.916333)rotate(-45)scale(0.09 -0.09)">
       <use xlink:href="#DejaVuSans-109"/>
       <use x="97.412109" xlink:href="#DejaVuSans-97"/>
       <use x="158.691406" xlink:href="#DejaVuSans-105"/>
      </g>
     </g>
    </g>
    <g id="xtick_11">
     <g id="line2d_22">
      <g>
       <use style="stroke:#000000;stroke-width:0.8;" x="331.836873" xlink:href="#med6df0b817" y="339.213919"/>
      </g>
     </g>
     <g id="text_16">
      <!-- juil. -->
      <g transform="translate(325.312819 362.409205)rotate(-45)scale(0.09 -0.09)">
       <use xlink:href="#DejaVuSans-106"/>
       <use x="27.783203" xlink:href="#DejaVuSans-117"/>
       <use x="91.162109" xlink:href="#DejaVuSans-105"/>
       <use x="118.945312" xlink:href="#DejaVuSans-108"/>
       <use x="146.728516" xlink:href="#DejaVuSans-46"/>
      </g>
     </g>
    </g>
    <g id="xtick_12">
     <g id="line2d_23">
      <g>
       <use style="stroke:#000000;stroke-width:0.8;" x="358.717854" xlink:href="#med6df0b817" y="339.213919"/>
      </g>
     </g>
     <g id="text_17">
      <!-- sept. -->
      <g transform="translate(347.76488 366.838124)rotate(-45)scale(0.09 -0.09)">
       <use xlink:href="#DejaVuSans-115"/>
       <use x="52.099609" xlink:href="#DejaVuSans-101"/>
       <use x="113.623047" xlink:href="#DejaVuSans-112"/>
       <use x="177.099609" xlink:href="#DejaVuSans-116"/>
       <use x="216.308594" xlink:href="#DejaVuSans-46"/>
      </g>
     </g>
    </g>
    <g id="xtick_13">
     <g id="line2d_24">
      <g>
       <use style="stroke:#000000;stroke-width:0.8;" x="385.16527" xlink:href="#med6df0b817" y="339.213919"/>
      </g>
     </g>
     <g id="text_18">
      <!-- nov. -->
      <g transform="translate(376.777768 364.272653)rotate(-45)scale(0.09 -0.09)">
       <use xlink:href="#DejaVuSans-110"/>
       <use x="63.378906" xlink:href="#DejaVuSans-111"/>
       <use x="124.560547" xlink:href="#DejaVuSans-118"/>
       <use x="175.990234" xlink:href="#DejaVuSans-46"/>
      </g>
     </g>
    </g>
    <g id="xtick_14">
     <g id="line2d_25">
      <g>
       <use style="stroke:#000000;stroke-width:0.8;" x="411.612686" xlink:href="#med6df0b817" y="339.213919"/>
      </g>
     </g>
     <g id="text_19">
      <!-- janv. -->
      <g transform="translate(401.45123 366.046607)rotate(-45)scale(0.09 -0.09)">
       <use xlink:href="#DejaVuSans-106"/>
       <use x="27.783203" xlink:href="#DejaVuSans-97"/>
       <use x="89.0625" xlink:href="#DejaVuSans-110"/>
       <use x="152.441406" xlink:href="#DejaVuSans-118"/>
       <use x="203.871094" xlink:href="#DejaVuSans-46"/>
      </g>
     </g>
    </g>
    <g id="xtick_15">
     <g id="line2d_26">
      <g>
       <use style="stroke:#000000;stroke-width:0.8;" x="437.192974" xlink:href="#med6df0b817" y="339.213919"/>
      </g>
     </g>
     <g id="text_20">
      <!-- mars -->
      <g transform="translate(425.998369 367.079756)rotate(-45)scale(0.09 -0.09)">
       <use xlink:href="#DejaVuSans-109"/>
       <use x="97.412109" xlink:href="#DejaVuSans-97"/>
       <use x="158.691406" xlink:href="#DejaVuSans-114"/>
       <use x="199.804688" xlink:href="#DejaVuSans-115"/>
      </g>
     </g>
    </g>
    <g id="xtick_16">
     <g id="line2d_27">
      <g>
       <use style="stroke:#000000;stroke-width:0.8;" x="463.64039" xlink:href="#med6df0b817" y="339.213919"/>
      </g>
     </g>
     <g id="text_21">
      <!-- mai -->
      <g transform="translate(456.609208 362.916333)rotate(-45)scale(0.09 -0.09)">
       <use xlink:href="#DejaVuSans-109"/>
       <use x="97.412109" xlink:href="#DejaVuSans-97"/>
       <use x="158.691406" xlink:href="#DejaVuSans-105"/>
      </g>
     </g>
    </g>
   </g>
   <g id="matplotlib.axis_4">
    <g id="ytick_8">
     <g id="line2d_28">
      <path clip-path="url(#p3035e14410)" d="M 278.942041 336.792877 
L 477.080881 336.792877 
" style="fill:none;stroke:#b0b0b0;stroke-linecap:square;stroke-opacity:0.5;stroke-width:0.8;"/>
     </g>
    </g>
    <g id="ytick_9">
     <g id="line2d_29">
      <path clip-path="url(#p3035e14410)" d="M 278.942041 312.582455 
L 477.080881 312.582455 
" style="fill:none;stroke:#b0b0b0;stroke-linecap:square;stroke-opacity:0.5;stroke-width:0.8;"/>
     </g>
    </g>
    <g id="ytick_10">
     <g id="line2d_30">
      <path clip-path="url(#p3035e14410)" d="M 278.942041 288.372034 
L 477.080881 288.372034 
" style="fill:none;stroke:#b0b0b0;stroke-linecap:square;stroke-opacity:0.5;stroke-width:0.8;"/>
     </g>
    </g>
    <g id="ytick_11">
     <g id="line2d_31">
      <path clip-path="url(#p3035e14410)" d="M 278.942041 264.161613 
L 477.080881 264.161613 
" style="fill:none;stroke:#b0b0b0;stroke-linecap:square;stroke-opacity:0.5;stroke-width:0.8;"/>
     </g>
    </g>
    <g id="ytick_12">
     <g id="line2d_32">
      <path clip-path="url(#p3035e14410)" d="M 278.942041 324.687666 
L 477.080881 324.687666 
" style="fill:none;stroke:#b0b0b0;stroke-linecap:square;stroke-opacity:0.2;stroke-width:0.8;"/>
     </g>
    </g>
    <g id="ytick_13">
     <g id="line2d_33">
      <path clip-path="url(#p3035e14410)" d="M 278.942041 300.477245 
L 477.080881 300.477245 
" style="fill:none;stroke:#b0b0b0;stroke-linecap:square;stroke-opacity:0.2;stroke-width:0.8;"/>
     </g>
    </g>
    <g id="ytick_14">
     <g id="line2d_34">
      <path clip-path="url(#p3035e14410)" d="M 278.942041 276.266824 
L 477.080881 276.266824 
" style="fill:none;stroke:#b0b0b0;stroke-linecap:square;stroke-opacity:0.2;stroke-width:0.8;"/>
     </g>
    </g>
   </g>
   <g id="line2d_35">
    <path clip-path="url(#p3035e14410)" d="M 409.444865 336.792877 
L 441.095052 336.682698 
L 448.032079 336.648132 
L 456.269799 336.540113 
L 459.738313 336.397529 
L 459.738313 336.397529 
" style="fill:none;stroke:#b22222;stroke-linecap:square;"/>
   </g>
   <g id="line2d_36">
    <path clip-path="url(#p3035e14410)" d="M 409.444865 336.792877 
L 423.31892 336.729642 
L 424.186048 336.582663 
L 425.053177 336.483538 
L 427.220998 336.11951 
L 428.088126 336.013549 
L 429.822383 335.716174 
L 431.55664 335.620468 
L 436.325846 335.212004 
L 437.192974 335.140224 
L 439.360795 334.94881 
L 440.661488 334.844558 
L 442.395745 334.668526 
L 444.563566 334.565983 
L 448.465643 334.379696 
L 452.367721 334.104539 
L 455.836235 333.296158 
L 456.703363 333.002201 
L 459.304748 331.766557 
L 459.738313 331.486272 
L 459.738313 331.486272 
" style="fill:none;stroke:#000000;stroke-linecap:square;stroke-width:1.5;"/>
   </g>
   <g id="line2d_37">
    <path clip-path="url(#p3035e14410)" d="M 409.444865 336.792877 
L 422.885356 336.696726 
L 423.752484 336.167894 
L 425.920305 335.894738 
L 426.353869 335.588802 
L 427.220998 335.470798 
L 427.654562 335.470798 
L 428.088126 335.269755 
L 428.52169 334.697219 
L 428.955254 334.338837 
L 429.822383 334.008864 
L 430.689511 333.982641 
L 431.123075 333.759745 
L 432.857332 331.323188 
L 433.724461 331.146182 
L 434.158025 330.792171 
L 435.458717 328.755515 
L 435.892282 328.172052 
L 436.75941 327.874858 
L 437.192974 327.400658 
L 438.927231 324.089999 
L 439.794359 323.788434 
L 440.227924 323.318605 
L 441.095052 321.450213 
L 441.96218 320.261436 
L 443.262873 319.520635 
L 444.99713 317.704689 
L 445.864258 317.569203 
L 446.297822 317.333196 
L 447.164951 316.441613 
L 448.032079 315.796963 
L 448.465643 315.761999 
L 449.332772 315.20913 
L 449.766336 314.577592 
L 450.633464 313.773418 
L 451.067029 313.002024 
L 451.500593 312.735423 
L 452.367721 312.40545 
L 453.668414 310.231123 
L 454.101978 309.234647 
L 454.535542 308.649 
L 454.969106 308.498217 
L 455.402671 307.737749 
L 456.269799 305.862802 
L 458.43762 301.870344 
L 458.871184 300.537339 
L 459.304748 299.76376 
L 459.738313 298.612131 
L 459.738313 298.612131 
" style="fill:none;stroke:#ffd700;stroke-linecap:square;stroke-width:3;"/>
   </g>
   <g id="line2d_38">
    <path clip-path="url(#p3035e14410)" d="M 411.612686 339.213919 
L 411.612686 256.414278 
" style="fill:none;stroke:#000000;stroke-dasharray:1.85,0.8;stroke-dashoffset:0;stroke-width:0.5;"/>
   </g>
   <g id="text_22">
    <!-- 2B -->
    <g style="fill:#4169e1;" transform="translate(288.848983 277.36628)scale(0.24 -0.24)">
     <defs>
      <path d="M 38.375 44.671875 
Q 42.828125 44.671875 45.109375 46.625 
Q 47.40625 48.578125 47.40625 52.390625 
Q 47.40625 56.15625 45.109375 58.125 
Q 42.828125 60.109375 38.375 60.109375 
L 27.984375 60.109375 
L 27.984375 44.671875 
z
M 39.015625 12.796875 
Q 44.671875 12.796875 47.53125 15.1875 
Q 50.390625 17.578125 50.390625 22.40625 
Q 50.390625 27.15625 47.5625 29.515625 
Q 44.734375 31.890625 39.015625 31.890625 
L 27.984375 31.890625 
L 27.984375 12.796875 
z
M 56.5 39.015625 
Q 62.546875 37.25 65.859375 32.515625 
Q 69.1875 27.78125 69.1875 20.90625 
Q 69.1875 10.359375 62.0625 5.171875 
Q 54.9375 0 40.375 0 
L 9.1875 0 
L 9.1875 72.90625 
L 37.40625 72.90625 
Q 52.59375 72.90625 59.40625 68.3125 
Q 66.21875 63.71875 66.21875 53.609375 
Q 66.21875 48.296875 63.71875 44.5625 
Q 61.234375 40.828125 56.5 39.015625 
z
" id="DejaVuSans-Bold-66"/>
     </defs>
     <use xlink:href="#DejaVuSans-Bold-50"/>
     <use x="69.580078" xlink:href="#DejaVuSans-Bold-66"/>
    </g>
   </g>
  </g>
  <g id="axes_3">
   <g id="legend_1">
    <g id="patch_10">
     <path d="M 733.899631 339.292911 
L 855.960569 339.292911 
Q 857.960569 339.292911 857.960569 337.292911 
L 857.960569 253.977411 
Q 857.960569 251.977411 855.960569 251.977411 
L 733.899631 251.977411 
Q 731.899631 251.977411 731.899631 253.977411 
L 731.899631 337.292911 
Q 731.899631 339.292911 733.899631 339.292911 
z
" style="fill:#ffffff;opacity:0.8;stroke:#cccccc;stroke-linejoin:miter;"/>
    </g>
    <g id="text_23">
     <!-- Personnes vaccinées, -->
     <g transform="translate(735.899631 264.335692)scale(0.11 -0.11)">
      <defs>
       <path d="M 19.671875 64.796875 
L 19.671875 37.40625 
L 32.078125 37.40625 
Q 38.96875 37.40625 42.71875 40.96875 
Q 46.484375 44.53125 46.484375 51.125 
Q 46.484375 57.671875 42.71875 61.234375 
Q 38.96875 64.796875 32.078125 64.796875 
z
M 9.8125 72.90625 
L 32.078125 72.90625 
Q 44.34375 72.90625 50.609375 67.359375 
Q 56.890625 61.8125 56.890625 51.125 
Q 56.890625 40.328125 50.609375 34.8125 
Q 44.34375 29.296875 32.078125 29.296875 
L 19.671875 29.296875 
L 19.671875 0 
L 9.8125 0 
z
" id="DejaVuSans-80"/>
       <path id="DejaVuSans-32"/>
       <path d="M 48.78125 52.59375 
L 48.78125 44.1875 
Q 44.96875 46.296875 41.140625 47.34375 
Q 37.3125 48.390625 33.40625 48.390625 
Q 24.65625 48.390625 19.8125 42.84375 
Q 14.984375 37.3125 14.984375 27.296875 
Q 14.984375 17.28125 19.8125 11.734375 
Q 24.65625 6.203125 33.40625 6.203125 
Q 37.3125 6.203125 41.140625 7.25 
Q 44.96875 8.296875 48.78125 10.40625 
L 48.78125 2.09375 
Q 45.015625 0.34375 40.984375 -0.53125 
Q 36.96875 -1.421875 32.421875 -1.421875 
Q 20.0625 -1.421875 12.78125 6.34375 
Q 5.515625 14.109375 5.515625 27.296875 
Q 5.515625 40.671875 12.859375 48.328125 
Q 20.21875 56 33.015625 56 
Q 37.15625 56 41.109375 55.140625 
Q 45.0625 54.296875 48.78125 52.59375 
z
" id="DejaVuSans-99"/>
       <path d="M 56.203125 29.59375 
L 56.203125 25.203125 
L 14.890625 25.203125 
Q 15.484375 15.921875 20.484375 11.0625 
Q 25.484375 6.203125 34.421875 6.203125 
Q 39.59375 6.203125 44.453125 7.46875 
Q 49.3125 8.734375 54.109375 11.28125 
L 54.109375 2.78125 
Q 49.265625 0.734375 44.1875 -0.34375 
Q 39.109375 -1.421875 33.890625 -1.421875 
Q 20.796875 -1.421875 13.15625 6.1875 
Q 5.515625 13.8125 5.515625 26.8125 
Q 5.515625 40.234375 12.765625 48.109375 
Q 20.015625 56 32.328125 56 
Q 43.359375 56 49.78125 48.890625 
Q 56.203125 41.796875 56.203125 29.59375 
z
M 47.21875 32.234375 
Q 47.125 39.59375 43.09375 43.984375 
Q 39.0625 48.390625 32.421875 48.390625 
Q 24.90625 48.390625 20.390625 44.140625 
Q 15.875 39.890625 15.1875 32.171875 
z
M 38.53125 79.984375 
L 48.25 79.984375 
L 32.34375 61.625 
L 24.859375 61.625 
z
" id="DejaVuSans-233"/>
       <path d="M 11.71875 12.40625 
L 22.015625 12.40625 
L 22.015625 4 
L 14.015625 -11.625 
L 7.71875 -11.625 
L 11.71875 4 
z
" id="DejaVuSans-44"/>
      </defs>
      <use xlink:href="#DejaVuSans-80"/>
      <use x="56.677734" xlink:href="#DejaVuSans-101"/>
      <use x="118.201172" xlink:href="#DejaVuSans-114"/>
      <use x="159.314453" xlink:href="#DejaVuSans-115"/>
      <use x="211.414062" xlink:href="#DejaVuSans-111"/>
      <use x="272.595703" xlink:href="#DejaVuSans-110"/>
      <use x="335.974609" xlink:href="#DejaVuSans-110"/>
      <use x="399.353516" xlink:href="#DejaVuSans-101"/>
      <use x="460.876953" xlink:href="#DejaVuSans-115"/>
      <use x="512.976562" xlink:href="#DejaVuSans-32"/>
      <use x="544.763672" xlink:href="#DejaVuSans-118"/>
      <use x="603.943359" xlink:href="#DejaVuSans-97"/>
      <use x="665.222656" xlink:href="#DejaVuSans-99"/>
      <use x="720.203125" xlink:href="#DejaVuSans-99"/>
      <use x="775.183594" xlink:href="#DejaVuSans-105"/>
      <use x="802.966797" xlink:href="#DejaVuSans-110"/>
      <use x="866.345703" xlink:href="#DejaVuSans-233"/>
      <use x="927.869141" xlink:href="#DejaVuSans-101"/>
      <use x="989.392578" xlink:href="#DejaVuSans-115"/>
      <use x="1041.492188" xlink:href="#DejaVuSans-44"/>
     </g>
     <!-- pour 100 habitants -->
     <g transform="translate(742.423147 276.653286)scale(0.11 -0.11)">
      <defs>
       <path d="M 12.40625 8.296875 
L 28.515625 8.296875 
L 28.515625 63.921875 
L 10.984375 60.40625 
L 10.984375 69.390625 
L 28.421875 72.90625 
L 38.28125 72.90625 
L 38.28125 8.296875 
L 54.390625 8.296875 
L 54.390625 0 
L 12.40625 0 
z
" id="DejaVuSans-49"/>
       <path d="M 54.890625 33.015625 
L 54.890625 0 
L 45.90625 0 
L 45.90625 32.71875 
Q 45.90625 40.484375 42.875 44.328125 
Q 39.84375 48.1875 33.796875 48.1875 
Q 26.515625 48.1875 22.3125 43.546875 
Q 18.109375 38.921875 18.109375 30.90625 
L 18.109375 0 
L 9.078125 0 
L 9.078125 75.984375 
L 18.109375 75.984375 
L 18.109375 46.1875 
Q 21.34375 51.125 25.703125 53.5625 
Q 30.078125 56 35.796875 56 
Q 45.21875 56 50.046875 50.171875 
Q 54.890625 44.34375 54.890625 33.015625 
z
" id="DejaVuSans-104"/>
       <path d="M 48.6875 27.296875 
Q 48.6875 37.203125 44.609375 42.84375 
Q 40.53125 48.484375 33.40625 48.484375 
Q 26.265625 48.484375 22.1875 42.84375 
Q 18.109375 37.203125 18.109375 27.296875 
Q 18.109375 17.390625 22.1875 11.75 
Q 26.265625 6.109375 33.40625 6.109375 
Q 40.53125 6.109375 44.609375 11.75 
Q 48.6875 17.390625 48.6875 27.296875 
z
M 18.109375 46.390625 
Q 20.953125 51.265625 25.265625 53.625 
Q 29.59375 56 35.59375 56 
Q 45.5625 56 51.78125 48.09375 
Q 58.015625 40.1875 58.015625 27.296875 
Q 58.015625 14.40625 51.78125 6.484375 
Q 45.5625 -1.421875 35.59375 -1.421875 
Q 29.59375 -1.421875 25.265625 0.953125 
Q 20.953125 3.328125 18.109375 8.203125 
L 18.109375 0 
L 9.078125 0 
L 9.078125 75.984375 
L 18.109375 75.984375 
z
" id="DejaVuSans-98"/>
      </defs>
      <use xlink:href="#DejaVuSans-112"/>
      <use x="63.476562" xlink:href="#DejaVuSans-111"/>
      <use x="124.658203" xlink:href="#DejaVuSans-117"/>
      <use x="188.037109" xlink:href="#DejaVuSans-114"/>
      <use x="229.150391" xlink:href="#DejaVuSans-32"/>
      <use x="260.9375" xlink:href="#DejaVuSans-49"/>
      <use x="324.560547" xlink:href="#DejaVuSans-48"/>
      <use x="388.183594" xlink:href="#DejaVuSans-48"/>
      <use x="451.806641" xlink:href="#DejaVuSans-32"/>
      <use x="483.59375" xlink:href="#DejaVuSans-104"/>
      <use x="546.972656" xlink:href="#DejaVuSans-97"/>
      <use x="608.251953" xlink:href="#DejaVuSans-98"/>
      <use x="671.728516" xlink:href="#DejaVuSans-105"/>
      <use x="699.511719" xlink:href="#DejaVuSans-116"/>
      <use x="738.720703" xlink:href="#DejaVuSans-97"/>
      <use x="800" xlink:href="#DejaVuSans-110"/>
      <use x="863.378906" xlink:href="#DejaVuSans-116"/>
      <use x="902.587891" xlink:href="#DejaVuSans-115"/>
     </g>
     <!-- (deux injections) -->
     <g transform="translate(748.92346 288.970879)scale(0.11 -0.11)">
      <defs>
       <path d="M 31 75.875 
Q 24.46875 64.65625 21.28125 53.65625 
Q 18.109375 42.671875 18.109375 31.390625 
Q 18.109375 20.125 21.3125 9.0625 
Q 24.515625 -2 31 -13.1875 
L 23.1875 -13.1875 
Q 15.875 -1.703125 12.234375 9.375 
Q 8.59375 20.453125 8.59375 31.390625 
Q 8.59375 42.28125 12.203125 53.3125 
Q 15.828125 64.359375 23.1875 75.875 
z
" id="DejaVuSans-40"/>
       <path d="M 45.40625 46.390625 
L 45.40625 75.984375 
L 54.390625 75.984375 
L 54.390625 0 
L 45.40625 0 
L 45.40625 8.203125 
Q 42.578125 3.328125 38.25 0.953125 
Q 33.9375 -1.421875 27.875 -1.421875 
Q 17.96875 -1.421875 11.734375 6.484375 
Q 5.515625 14.40625 5.515625 27.296875 
Q 5.515625 40.1875 11.734375 48.09375 
Q 17.96875 56 27.875 56 
Q 33.9375 56 38.25 53.625 
Q 42.578125 51.265625 45.40625 46.390625 
z
M 14.796875 27.296875 
Q 14.796875 17.390625 18.875 11.75 
Q 22.953125 6.109375 30.078125 6.109375 
Q 37.203125 6.109375 41.296875 11.75 
Q 45.40625 17.390625 45.40625 27.296875 
Q 45.40625 37.203125 41.296875 42.84375 
Q 37.203125 48.484375 30.078125 48.484375 
Q 22.953125 48.484375 18.875 42.84375 
Q 14.796875 37.203125 14.796875 27.296875 
z
" id="DejaVuSans-100"/>
       <path d="M 54.890625 54.6875 
L 35.109375 28.078125 
L 55.90625 0 
L 45.3125 0 
L 29.390625 21.484375 
L 13.484375 0 
L 2.875 0 
L 24.125 28.609375 
L 4.6875 54.6875 
L 15.28125 54.6875 
L 29.78125 35.203125 
L 44.28125 54.6875 
z
" id="DejaVuSans-120"/>
       <path d="M 8.015625 75.875 
L 15.828125 75.875 
Q 23.140625 64.359375 26.78125 53.3125 
Q 30.421875 42.28125 30.421875 31.390625 
Q 30.421875 20.453125 26.78125 9.375 
Q 23.140625 -1.703125 15.828125 -13.1875 
L 8.015625 -13.1875 
Q 14.5 -2 17.703125 9.0625 
Q 20.90625 20.125 20.90625 31.390625 
Q 20.90625 42.671875 17.703125 53.65625 
Q 14.5 64.65625 8.015625 75.875 
z
" id="DejaVuSans-41"/>
      </defs>
      <use xlink:href="#DejaVuSans-40"/>
      <use x="39.013672" xlink:href="#DejaVuSans-100"/>
      <use x="102.490234" xlink:href="#DejaVuSans-101"/>
      <use x="164.013672" xlink:href="#DejaVuSans-117"/>
      <use x="227.392578" xlink:href="#DejaVuSans-120"/>
      <use x="286.572266" xlink:href="#DejaVuSans-32"/>
      <use x="318.359375" xlink:href="#DejaVuSans-105"/>
      <use x="346.142578" xlink:href="#DejaVuSans-110"/>
      <use x="409.521484" xlink:href="#DejaVuSans-106"/>
      <use x="437.304688" xlink:href="#DejaVuSans-101"/>
      <use x="498.828125" xlink:href="#DejaVuSans-99"/>
      <use x="553.808594" xlink:href="#DejaVuSans-116"/>
      <use x="593.017578" xlink:href="#DejaVuSans-105"/>
      <use x="620.800781" xlink:href="#DejaVuSans-111"/>
      <use x="681.982422" xlink:href="#DejaVuSans-110"/>
      <use x="745.361328" xlink:href="#DejaVuSans-115"/>
      <use x="797.460938" xlink:href="#DejaVuSans-41"/>
     </g>
    </g>
    <g id="line2d_39">
     <path d="M 753.23635 300.356973 
L 773.23635 300.356973 
" style="fill:none;stroke:#b22222;stroke-linecap:square;"/>
    </g>
    <g id="line2d_40"/>
    <g id="text_24">
     <!-- 0-29 ans -->
     <g transform="translate(778.23635 303.856973)scale(0.1 -0.1)">
      <defs>
       <path d="M 4.890625 31.390625 
L 31.203125 31.390625 
L 31.203125 23.390625 
L 4.890625 23.390625 
z
" id="DejaVuSans-45"/>
       <path d="M 10.984375 1.515625 
L 10.984375 10.5 
Q 14.703125 8.734375 18.5 7.8125 
Q 22.3125 6.890625 25.984375 6.890625 
Q 35.75 6.890625 40.890625 13.453125 
Q 46.046875 20.015625 46.78125 33.40625 
Q 43.953125 29.203125 39.59375 26.953125 
Q 35.25 24.703125 29.984375 24.703125 
Q 19.046875 24.703125 12.671875 31.3125 
Q 6.296875 37.9375 6.296875 49.421875 
Q 6.296875 60.640625 12.9375 67.421875 
Q 19.578125 74.21875 30.609375 74.21875 
Q 43.265625 74.21875 49.921875 64.515625 
Q 56.59375 54.828125 56.59375 36.375 
Q 56.59375 19.140625 48.40625 8.859375 
Q 40.234375 -1.421875 26.421875 -1.421875 
Q 22.703125 -1.421875 18.890625 -0.6875 
Q 15.09375 0.046875 10.984375 1.515625 
z
M 30.609375 32.421875 
Q 37.25 32.421875 41.125 36.953125 
Q 45.015625 41.5 45.015625 49.421875 
Q 45.015625 57.28125 41.125 61.84375 
Q 37.25 66.40625 30.609375 66.40625 
Q 23.96875 66.40625 20.09375 61.84375 
Q 16.21875 57.28125 16.21875 49.421875 
Q 16.21875 41.5 20.09375 36.953125 
Q 23.96875 32.421875 30.609375 32.421875 
z
" id="DejaVuSans-57"/>
      </defs>
      <use xlink:href="#DejaVuSans-48"/>
      <use x="63.623047" xlink:href="#DejaVuSans-45"/>
      <use x="99.707031" xlink:href="#DejaVuSans-50"/>
      <use x="163.330078" xlink:href="#DejaVuSans-57"/>
      <use x="226.953125" xlink:href="#DejaVuSans-32"/>
      <use x="258.740234" xlink:href="#DejaVuSans-97"/>
      <use x="320.019531" xlink:href="#DejaVuSans-110"/>
      <use x="383.398438" xlink:href="#DejaVuSans-115"/>
     </g>
    </g>
    <g id="line2d_41">
     <path d="M 753.23635 315.035098 
L 773.23635 315.035098 
" style="fill:none;stroke:#000000;stroke-linecap:square;stroke-width:1.5;"/>
    </g>
    <g id="line2d_42"/>
    <g id="text_25">
     <!-- 30-59 ans -->
     <g transform="translate(778.23635 318.535098)scale(0.1 -0.1)">
      <defs>
       <path d="M 40.578125 39.3125 
Q 47.65625 37.796875 51.625 33 
Q 55.609375 28.21875 55.609375 21.1875 
Q 55.609375 10.40625 48.1875 4.484375 
Q 40.765625 -1.421875 27.09375 -1.421875 
Q 22.515625 -1.421875 17.65625 -0.515625 
Q 12.796875 0.390625 7.625 2.203125 
L 7.625 11.71875 
Q 11.71875 9.328125 16.59375 8.109375 
Q 21.484375 6.890625 26.8125 6.890625 
Q 36.078125 6.890625 40.9375 10.546875 
Q 45.796875 14.203125 45.796875 21.1875 
Q 45.796875 27.640625 41.28125 31.265625 
Q 36.765625 34.90625 28.71875 34.90625 
L 20.21875 34.90625 
L 20.21875 43.015625 
L 29.109375 43.015625 
Q 36.375 43.015625 40.234375 45.921875 
Q 44.09375 48.828125 44.09375 54.296875 
Q 44.09375 59.90625 40.109375 62.90625 
Q 36.140625 65.921875 28.71875 65.921875 
Q 24.65625 65.921875 20.015625 65.03125 
Q 15.375 64.15625 9.8125 62.3125 
L 9.8125 71.09375 
Q 15.4375 72.65625 20.34375 73.4375 
Q 25.25 74.21875 29.59375 74.21875 
Q 40.828125 74.21875 47.359375 69.109375 
Q 53.90625 64.015625 53.90625 55.328125 
Q 53.90625 49.265625 50.4375 45.09375 
Q 46.96875 40.921875 40.578125 39.3125 
z
" id="DejaVuSans-51"/>
       <path d="M 10.796875 72.90625 
L 49.515625 72.90625 
L 49.515625 64.59375 
L 19.828125 64.59375 
L 19.828125 46.734375 
Q 21.96875 47.46875 24.109375 47.828125 
Q 26.265625 48.1875 28.421875 48.1875 
Q 40.625 48.1875 47.75 41.5 
Q 54.890625 34.8125 54.890625 23.390625 
Q 54.890625 11.625 47.5625 5.09375 
Q 40.234375 -1.421875 26.90625 -1.421875 
Q 22.3125 -1.421875 17.546875 -0.640625 
Q 12.796875 0.140625 7.71875 1.703125 
L 7.71875 11.625 
Q 12.109375 9.234375 16.796875 8.0625 
Q 21.484375 6.890625 26.703125 6.890625 
Q 35.15625 6.890625 40.078125 11.328125 
Q 45.015625 15.765625 45.015625 23.390625 
Q 45.015625 31 40.078125 35.4375 
Q 35.15625 39.890625 26.703125 39.890625 
Q 22.75 39.890625 18.8125 39.015625 
Q 14.890625 38.140625 10.796875 36.28125 
z
" id="DejaVuSans-53"/>
      </defs>
      <use xlink:href="#DejaVuSans-51"/>
      <use x="63.623047" xlink:href="#DejaVuSans-48"/>
      <use x="127.246094" xlink:href="#DejaVuSans-45"/>
      <use x="163.330078" xlink:href="#DejaVuSans-53"/>
      <use x="226.953125" xlink:href="#DejaVuSans-57"/>
      <use x="290.576172" xlink:href="#DejaVuSans-32"/>
      <use x="322.363281" xlink:href="#DejaVuSans-97"/>
      <use x="383.642578" xlink:href="#DejaVuSans-110"/>
      <use x="447.021484" xlink:href="#DejaVuSans-115"/>
     </g>
    </g>
    <g id="line2d_43">
     <path d="M 753.23635 329.713223 
L 773.23635 329.713223 
" style="fill:none;stroke:#ffd700;stroke-linecap:square;stroke-width:3;"/>
    </g>
    <g id="line2d_44"/>
    <g id="text_26">
     <!-- 60 ans et + -->
     <g transform="translate(778.23635 333.213223)scale(0.1 -0.1)">
      <defs>
       <path d="M 46 62.703125 
L 46 35.5 
L 73.1875 35.5 
L 73.1875 27.203125 
L 46 27.203125 
L 46 0 
L 37.796875 0 
L 37.796875 27.203125 
L 10.59375 27.203125 
L 10.59375 35.5 
L 37.796875 35.5 
L 37.796875 62.703125 
z
" id="DejaVuSans-43"/>
      </defs>
      <use xlink:href="#DejaVuSans-54"/>
      <use x="63.623047" xlink:href="#DejaVuSans-48"/>
      <use x="127.246094" xlink:href="#DejaVuSans-32"/>
      <use x="159.033203" xlink:href="#DejaVuSans-97"/>
      <use x="220.3125" xlink:href="#DejaVuSans-110"/>
      <use x="283.691406" xlink:href="#DejaVuSans-115"/>
      <use x="335.791016" xlink:href="#DejaVuSans-32"/>
      <use x="367.578125" xlink:href="#DejaVuSans-101"/>
      <use x="429.101562" xlink:href="#DejaVuSans-116"/>
      <use x="468.310547" xlink:href="#DejaVuSans-32"/>
      <use x="500.097656" xlink:href="#DejaVuSans-43"/>
     </g>
    </g>
   </g>
  </g>
  <g id="axes_4">
   <g id="patch_11">
    <path d="M 54.4525 216.813919 
L 446.584849 216.813919 
L 446.584849 59.286767 
L 54.4525 59.286767 
z
" style="fill:none;opacity:0;"/>
   </g>
   <g id="patch_12">
    <path clip-path="url(#p7fe17c536d)" d="M 68.181422 216.813919 
L 68.181422 67.163125 
L 114.516536 67.163125 
L 114.516536 216.813919 
z
" style="fill:#808080;opacity:0.15;stroke:#808080;stroke-linejoin:miter;"/>
   </g>
   <g id="patch_13">
    <path clip-path="url(#p7fe17c536d)" d="M 262.96051 216.813919 
L 262.96051 67.163125 
L 302.431163 67.163125 
L 302.431163 216.813919 
z
" style="fill:#808080;opacity:0.15;stroke:#808080;stroke-linejoin:miter;"/>
   </g>
   <g id="patch_14">
    <path clip-path="url(#p7fe17c536d)" d="M 397.675562 216.813919 
L 397.675562 67.163125 
L 420.843119 67.163125 
L 420.843119 216.813919 
z
" style="fill:#808080;opacity:0.15;stroke:#808080;stroke-linejoin:miter;"/>
   </g>
   <g id="matplotlib.axis_5">
    <g id="xtick_17">
     <g id="line2d_45">
      <g>
       <use style="stroke:#000000;stroke-width:0.8;" x="54.4525" xlink:href="#med6df0b817" y="216.813919"/>
      </g>
     </g>
     <g id="text_27">
      <!-- mars -->
      <g transform="translate(43.257895 244.679756)rotate(-45)scale(0.09 -0.09)">
       <use xlink:href="#DejaVuSans-109"/>
       <use x="97.412109" xlink:href="#DejaVuSans-97"/>
       <use x="158.691406" xlink:href="#DejaVuSans-114"/>
       <use x="199.804688" xlink:href="#DejaVuSans-115"/>
      </g>
     </g>
    </g>
    <g id="xtick_18">
     <g id="line2d_46">
      <g>
       <use style="stroke:#000000;stroke-width:0.8;" x="81.052287" xlink:href="#med6df0b817" y="216.813919"/>
      </g>
     </g>
     <g id="text_28">
      <!-- avril -->
      <g transform="translate(72.069159 242.46828)rotate(-45)scale(0.09 -0.09)">
       <use xlink:href="#DejaVuSans-97"/>
       <use x="61.279297" xlink:href="#DejaVuSans-118"/>
       <use x="120.458984" xlink:href="#DejaVuSans-114"/>
       <use x="161.572266" xlink:href="#DejaVuSans-105"/>
       <use x="189.355469" xlink:href="#DejaVuSans-108"/>
      </g>
     </g>
    </g>
    <g id="xtick_19">
     <g id="line2d_47">
      <g>
       <use style="stroke:#000000;stroke-width:0.8;" x="106.794017" xlink:href="#med6df0b817" y="216.813919"/>
      </g>
     </g>
     <g id="text_29">
      <!-- mai -->
      <g transform="translate(99.762834 240.516333)rotate(-45)scale(0.09 -0.09)">
       <use xlink:href="#DejaVuSans-109"/>
       <use x="97.412109" xlink:href="#DejaVuSans-97"/>
       <use x="158.691406" xlink:href="#DejaVuSans-105"/>
      </g>
     </g>
    </g>
    <g id="xtick_20">
     <g id="line2d_48">
      <g>
       <use style="stroke:#000000;stroke-width:0.8;" x="133.393804" xlink:href="#med6df0b817" y="216.813919"/>
      </g>
     </g>
     <g id="text_30">
      <!-- juin -->
      <g transform="translate(126.627124 240.251831)rotate(-45)scale(0.09 -0.09)">
       <use xlink:href="#DejaVuSans-106"/>
       <use x="27.783203" xlink:href="#DejaVuSans-117"/>
       <use x="91.162109" xlink:href="#DejaVuSans-105"/>
       <use x="118.945312" xlink:href="#DejaVuSans-110"/>
      </g>
     </g>
    </g>
    <g id="xtick_21">
     <g id="line2d_49">
      <g>
       <use style="stroke:#000000;stroke-width:0.8;" x="159.135534" xlink:href="#med6df0b817" y="216.813919"/>
      </g>
     </g>
     <g id="text_31">
      <!-- juil. -->
      <g transform="translate(152.61148 240.009205)rotate(-45)scale(0.09 -0.09)">
       <use xlink:href="#DejaVuSans-106"/>
       <use x="27.783203" xlink:href="#DejaVuSans-117"/>
       <use x="91.162109" xlink:href="#DejaVuSans-105"/>
       <use x="118.945312" xlink:href="#DejaVuSans-108"/>
       <use x="146.728516" xlink:href="#DejaVuSans-46"/>
      </g>
     </g>
    </g>
    <g id="xtick_22">
     <g id="line2d_50">
      <g>
       <use style="stroke:#000000;stroke-width:0.8;" x="185.735321" xlink:href="#med6df0b817" y="216.813919"/>
      </g>
     </g>
     <g id="text_32">
      <!-- août -->
      <g transform="translate(176.249042 242.97143)rotate(-45)scale(0.09 -0.09)">
       <defs>
        <path d="M 8.5 21.578125 
L 8.5 54.6875 
L 17.484375 54.6875 
L 17.484375 21.921875 
Q 17.484375 14.15625 20.5 10.265625 
Q 23.53125 6.390625 29.59375 6.390625 
Q 36.859375 6.390625 41.078125 11.03125 
Q 45.3125 15.671875 45.3125 23.6875 
L 45.3125 54.6875 
L 54.296875 54.6875 
L 54.296875 0 
L 45.3125 0 
L 45.3125 8.40625 
Q 42.046875 3.421875 37.71875 1 
Q 33.40625 -1.421875 27.6875 -1.421875 
Q 18.265625 -1.421875 13.375 4.4375 
Q 8.5 10.296875 8.5 21.578125 
z
M 31.109375 56 
z
M 27.390625 79.984375 
L 34.609375 79.984375 
L 46.578125 61.625 
L 39.796875 61.625 
L 31 73.578125 
L 22.21875 61.625 
L 15.421875 61.625 
z
" id="DejaVuSans-251"/>
       </defs>
       <use xlink:href="#DejaVuSans-97"/>
       <use x="61.279297" xlink:href="#DejaVuSans-111"/>
       <use x="122.460938" xlink:href="#DejaVuSans-251"/>
       <use x="185.839844" xlink:href="#DejaVuSans-116"/>
      </g>
     </g>
    </g>
    <g id="xtick_23">
     <g id="line2d_51">
      <g>
       <use style="stroke:#000000;stroke-width:0.8;" x="212.335109" xlink:href="#med6df0b817" y="216.813919"/>
      </g>
     </g>
     <g id="text_33">
      <!-- sept. -->
      <g transform="translate(201.382135 244.438124)rotate(-45)scale(0.09 -0.09)">
       <use xlink:href="#DejaVuSans-115"/>
       <use x="52.099609" xlink:href="#DejaVuSans-101"/>
       <use x="113.623047" xlink:href="#DejaVuSans-112"/>
       <use x="177.099609" xlink:href="#DejaVuSans-116"/>
       <use x="216.308594" xlink:href="#DejaVuSans-46"/>
      </g>
     </g>
    </g>
    <g id="xtick_24">
     <g id="line2d_52">
      <g>
       <use style="stroke:#000000;stroke-width:0.8;" x="238.076838" xlink:href="#med6df0b817" y="216.813919"/>
      </g>
     </g>
     <g id="text_34">
      <!-- oct. -->
      <g transform="translate(231.001904 240.560086)rotate(-45)scale(0.09 -0.09)">
       <use xlink:href="#DejaVuSans-111"/>
       <use x="61.181641" xlink:href="#DejaVuSans-99"/>
       <use x="116.162109" xlink:href="#DejaVuSans-116"/>
       <use x="155.371094" xlink:href="#DejaVuSans-46"/>
      </g>
     </g>
    </g>
    <g id="xtick_25">
     <g id="line2d_53">
      <g>
       <use style="stroke:#000000;stroke-width:0.8;" x="264.676626" xlink:href="#med6df0b817" y="216.813919"/>
      </g>
     </g>
     <g id="text_35">
      <!-- nov. -->
      <g transform="translate(256.289124 241.872653)rotate(-45)scale(0.09 -0.09)">
       <use xlink:href="#DejaVuSans-110"/>
       <use x="63.378906" xlink:href="#DejaVuSans-111"/>
       <use x="124.560547" xlink:href="#DejaVuSans-118"/>
       <use x="175.990234" xlink:href="#DejaVuSans-46"/>
      </g>
     </g>
    </g>
    <g id="xtick_26">
     <g id="line2d_54">
      <g>
       <use style="stroke:#000000;stroke-width:0.8;" x="290.418355" xlink:href="#med6df0b817" y="216.813919"/>
      </g>
     </g>
     <g id="text_36">
      <!-- déc. -->
      <g transform="translate(281.776295 242.127211)rotate(-45)scale(0.09 -0.09)">
       <use xlink:href="#DejaVuSans-100"/>
       <use x="63.476562" xlink:href="#DejaVuSans-233"/>
       <use x="125" xlink:href="#DejaVuSans-99"/>
       <use x="179.980469" xlink:href="#DejaVuSans-46"/>
      </g>
     </g>
    </g>
    <g id="xtick_27">
     <g id="line2d_55">
      <g>
       <use style="stroke:#000000;stroke-width:0.8;" x="317.018143" xlink:href="#med6df0b817" y="216.813919"/>
      </g>
     </g>
     <g id="text_37">
      <!-- janv. -->
      <g transform="translate(306.856687 243.646607)rotate(-45)scale(0.09 -0.09)">
       <use xlink:href="#DejaVuSans-106"/>
       <use x="27.783203" xlink:href="#DejaVuSans-97"/>
       <use x="89.0625" xlink:href="#DejaVuSans-110"/>
       <use x="152.441406" xlink:href="#DejaVuSans-118"/>
       <use x="203.871094" xlink:href="#DejaVuSans-46"/>
      </g>
     </g>
    </g>
    <g id="xtick_28">
     <g id="line2d_56">
      <g>
       <use style="stroke:#000000;stroke-width:0.8;" x="343.61793" xlink:href="#med6df0b817" y="216.813919"/>
      </g>
     </g>
     <g id="text_38">
      <!-- fév. -->
      <g transform="translate(337.001399 240.101682)rotate(-45)scale(0.09 -0.09)">
       <defs>
        <path d="M 37.109375 75.984375 
L 37.109375 68.5 
L 28.515625 68.5 
Q 23.6875 68.5 21.796875 66.546875 
Q 19.921875 64.59375 19.921875 59.515625 
L 19.921875 54.6875 
L 34.71875 54.6875 
L 34.71875 47.703125 
L 19.921875 47.703125 
L 19.921875 0 
L 10.890625 0 
L 10.890625 47.703125 
L 2.296875 47.703125 
L 2.296875 54.6875 
L 10.890625 54.6875 
L 10.890625 58.5 
Q 10.890625 67.625 15.140625 71.796875 
Q 19.390625 75.984375 28.609375 75.984375 
z
" id="DejaVuSans-102"/>
       </defs>
       <use xlink:href="#DejaVuSans-102"/>
       <use x="35.205078" xlink:href="#DejaVuSans-233"/>
       <use x="96.728516" xlink:href="#DejaVuSans-118"/>
       <use x="148.158203" xlink:href="#DejaVuSans-46"/>
      </g>
     </g>
    </g>
    <g id="xtick_29">
     <g id="line2d_57">
      <g>
       <use style="stroke:#000000;stroke-width:0.8;" x="367.643545" xlink:href="#med6df0b817" y="216.813919"/>
      </g>
     </g>
     <g id="text_39">
      <!-- mars -->
      <g transform="translate(356.448939 244.679756)rotate(-45)scale(0.09 -0.09)">
       <use xlink:href="#DejaVuSans-109"/>
       <use x="97.412109" xlink:href="#DejaVuSans-97"/>
       <use x="158.691406" xlink:href="#DejaVuSans-114"/>
       <use x="199.804688" xlink:href="#DejaVuSans-115"/>
      </g>
     </g>
    </g>
    <g id="xtick_30">
     <g id="line2d_58">
      <g>
       <use style="stroke:#000000;stroke-width:0.8;" x="394.243332" xlink:href="#med6df0b817" y="216.813919"/>
      </g>
     </g>
     <g id="text_40">
      <!-- avril -->
      <g transform="translate(385.260203 242.46828)rotate(-45)scale(0.09 -0.09)">
       <use xlink:href="#DejaVuSans-97"/>
       <use x="61.279297" xlink:href="#DejaVuSans-118"/>
       <use x="120.458984" xlink:href="#DejaVuSans-114"/>
       <use x="161.572266" xlink:href="#DejaVuSans-105"/>
       <use x="189.355469" xlink:href="#DejaVuSans-108"/>
      </g>
     </g>
    </g>
    <g id="xtick_31">
     <g id="line2d_59">
      <g>
       <use style="stroke:#000000;stroke-width:0.8;" x="419.985062" xlink:href="#med6df0b817" y="216.813919"/>
      </g>
     </g>
     <g id="text_41">
      <!-- mai -->
      <g transform="translate(412.953879 240.516333)rotate(-45)scale(0.09 -0.09)">
       <use xlink:href="#DejaVuSans-109"/>
       <use x="97.412109" xlink:href="#DejaVuSans-97"/>
       <use x="158.691406" xlink:href="#DejaVuSans-105"/>
      </g>
     </g>
    </g>
    <g id="xtick_32">
     <g id="line2d_60">
      <g>
       <use style="stroke:#000000;stroke-width:0.8;" x="446.584849" xlink:href="#med6df0b817" y="216.813919"/>
      </g>
     </g>
     <g id="text_42">
      <!-- juin -->
      <g transform="translate(439.818168 240.251831)rotate(-45)scale(0.09 -0.09)">
       <use xlink:href="#DejaVuSans-106"/>
       <use x="27.783203" xlink:href="#DejaVuSans-117"/>
       <use x="91.162109" xlink:href="#DejaVuSans-105"/>
       <use x="118.945312" xlink:href="#DejaVuSans-110"/>
      </g>
     </g>
    </g>
   </g>
   <g id="matplotlib.axis_6">
    <g id="ytick_15">
     <g id="line2d_61">
      <path clip-path="url(#p7fe17c536d)" d="M 54.4525 212.438165 
L 446.584849 212.438165 
" style="fill:none;stroke:#b0b0b0;stroke-linecap:square;stroke-opacity:0.5;stroke-width:0.8;"/>
     </g>
     <g id="text_43">
      <!-- 0 -->
      <g transform="translate(41.72625 215.857462)scale(0.09 -0.09)">
       <use xlink:href="#DejaVuSans-48"/>
      </g>
     </g>
    </g>
    <g id="ytick_16">
     <g id="line2d_62">
      <path clip-path="url(#p7fe17c536d)" d="M 54.4525 168.680623 
L 446.584849 168.680623 
" style="fill:none;stroke:#b0b0b0;stroke-linecap:square;stroke-opacity:0.5;stroke-width:0.8;"/>
     </g>
     <g id="text_44">
      <!-- 20 -->
      <g transform="translate(36 172.099919)scale(0.09 -0.09)">
       <use xlink:href="#DejaVuSans-50"/>
       <use x="63.623047" xlink:href="#DejaVuSans-48"/>
      </g>
     </g>
    </g>
    <g id="ytick_17">
     <g id="line2d_63">
      <path clip-path="url(#p7fe17c536d)" d="M 54.4525 124.923081 
L 446.584849 124.923081 
" style="fill:none;stroke:#b0b0b0;stroke-linecap:square;stroke-opacity:0.5;stroke-width:0.8;"/>
     </g>
     <g id="text_45">
      <!-- 40 -->
      <g transform="translate(36 128.342377)scale(0.09 -0.09)">
       <use xlink:href="#DejaVuSans-52"/>
       <use x="63.623047" xlink:href="#DejaVuSans-48"/>
      </g>
     </g>
    </g>
    <g id="ytick_18">
     <g id="line2d_64">
      <path clip-path="url(#p7fe17c536d)" d="M 54.4525 81.165538 
L 446.584849 81.165538 
" style="fill:none;stroke:#b0b0b0;stroke-linecap:square;stroke-opacity:0.5;stroke-width:0.8;"/>
     </g>
     <g id="text_46">
      <!-- 60 -->
      <g transform="translate(36 84.584835)scale(0.09 -0.09)">
       <use xlink:href="#DejaVuSans-54"/>
       <use x="63.623047" xlink:href="#DejaVuSans-48"/>
      </g>
     </g>
    </g>
    <g id="ytick_19">
     <g id="line2d_65">
      <path clip-path="url(#p7fe17c536d)" d="M 54.4525 190.559394 
L 446.584849 190.559394 
" style="fill:none;stroke:#b0b0b0;stroke-linecap:square;stroke-opacity:0.2;stroke-width:0.8;"/>
     </g>
    </g>
    <g id="ytick_20">
     <g id="line2d_66">
      <path clip-path="url(#p7fe17c536d)" d="M 54.4525 146.801852 
L 446.584849 146.801852 
" style="fill:none;stroke:#b0b0b0;stroke-linecap:square;stroke-opacity:0.2;stroke-width:0.8;"/>
     </g>
    </g>
    <g id="ytick_21">
     <g id="line2d_67">
      <path clip-path="url(#p7fe17c536d)" d="M 54.4525 103.044309 
L 446.584849 103.044309 
" style="fill:none;stroke:#b0b0b0;stroke-linecap:square;stroke-opacity:0.2;stroke-width:0.8;"/>
     </g>
    </g>
   </g>
   <g id="line2d_68">
    <path clip-path="url(#p7fe17c536d)" d="M 312.727855 212.438165 
L 355.630737 212.348001 
L 360.779083 212.281452 
L 395.959447 212.02599 
L 401.107793 211.871424 
L 406.256139 211.712565 
L 412.262543 211.433488 
L 412.262543 211.433488 
" style="fill:none;stroke:#b22222;stroke-linecap:square;"/>
   </g>
   <g id="line2d_69">
    <path clip-path="url(#p7fe17c536d)" d="M 312.727855 212.438165 
L 339.327642 212.409377 
L 344.475988 211.782436 
L 347.908218 211.211473 
L 348.766276 211.200278 
L 353.056564 210.344632 
L 355.630737 210.25347 
L 359.062968 209.797659 
L 362.495199 209.618533 
L 365.927429 209.389828 
L 367.643545 209.295467 
L 372.79189 208.964405 
L 375.366063 208.738898 
L 377.940236 208.51659 
L 381.372467 208.345461 
L 393.385274 207.548991 
L 394.243332 207.381061 
L 395.10139 207.067591 
L 396.817505 206.123982 
L 398.53362 205.436267 
L 403.681966 204.10242 
L 407.114197 202.647023 
L 407.972254 201.81057 
L 408.830312 201.204421 
L 410.546427 200.502312 
L 412.262543 199.314005 
L 412.262543 199.314005 
" style="fill:none;stroke:#000000;stroke-linecap:square;stroke-width:1.5;"/>
   </g>
   <g id="line2d_70">
    <path clip-path="url(#p7fe17c536d)" d="M 312.727855 212.438165 
L 338.469584 212.415453 
L 339.327642 212.324604 
L 341.043757 211.637047 
L 343.61793 211.403732 
L 345.334045 211.058921 
L 346.192103 210.641844 
L 347.050161 210.371364 
L 348.766276 210.16902 
L 349.624334 209.609476 
L 350.482391 208.612208 
L 352.198507 207.253612 
L 353.056564 206.56399 
L 354.77268 206.208855 
L 355.630737 205.711254 
L 357.346853 203.762143 
L 359.062968 201.742831 
L 359.921026 201.371178 
L 360.779083 201.189482 
L 361.637141 200.446177 
L 364.211314 196.931996 
L 365.069372 195.850074 
L 366.785487 195.311178 
L 367.643545 194.538966 
L 371.075775 189.511334 
L 372.79189 189.044703 
L 373.649948 188.456253 
L 376.224121 185.059762 
L 377.082179 184.029459 
L 377.940236 183.478174 
L 378.798294 183.133363 
L 379.656352 182.396252 
L 381.372467 180.275768 
L 382.230525 179.261983 
L 383.94664 178.165608 
L 384.804698 178.021076 
L 385.662755 177.696913 
L 386.520813 177.104333 
L 388.236928 176.193785 
L 389.094986 175.609464 
L 391.669159 174.389205 
L 392.527217 173.391938 
L 393.385274 172.650697 
L 394.243332 171.533675 
L 395.10139 169.541205 
L 395.959447 167.916257 
L 397.675562 165.659501 
L 399.391678 162.834941 
L 400.249735 161.612618 
L 401.107793 160.192079 
L 401.965851 159.103963 
L 402.823908 158.639397 
L 403.681966 157.435656 
L 407.114197 151.206347 
L 408.830312 147.454721 
L 409.68837 146.356281 
L 412.262543 141.101528 
L 412.262543 141.101528 
" style="fill:none;stroke:#ffd700;stroke-linecap:square;stroke-width:3;"/>
   </g>
   <g id="line2d_71">
    <path clip-path="url(#p7fe17c536d)" d="M 317.018143 216.813919 
L 317.018143 67.163125 
" style="fill:none;stroke:#000000;stroke-dasharray:1.85,0.8;stroke-dashoffset:0;stroke-width:0.5;"/>
   </g>
   <g id="text_47">
    <!-- Corse -->
    <g style="fill:#4169e1;" transform="translate(54.4525 55.755937)scale(0.26 -0.26)">
     <defs>
      <path d="M 67 4 
Q 61.8125 1.3125 56.203125 -0.046875 
Q 50.59375 -1.421875 44.484375 -1.421875 
Q 26.265625 -1.421875 15.625 8.765625 
Q 4.984375 18.953125 4.984375 36.375 
Q 4.984375 53.859375 15.625 64.03125 
Q 26.265625 74.21875 44.484375 74.21875 
Q 50.59375 74.21875 56.203125 72.84375 
Q 61.8125 71.484375 67 68.796875 
L 67 53.71875 
Q 61.765625 57.28125 56.6875 58.9375 
Q 51.609375 60.59375 46 60.59375 
Q 35.9375 60.59375 30.171875 54.140625 
Q 24.421875 47.703125 24.421875 36.375 
Q 24.421875 25.09375 30.171875 18.640625 
Q 35.9375 12.203125 46 12.203125 
Q 51.609375 12.203125 56.6875 13.859375 
Q 61.765625 15.53125 67 19.09375 
z
" id="DejaVuSans-Bold-67"/>
      <path d="M 34.421875 43.5 
Q 28.609375 43.5 25.5625 39.328125 
Q 22.515625 35.15625 22.515625 27.296875 
Q 22.515625 19.4375 25.5625 15.25 
Q 28.609375 11.078125 34.421875 11.078125 
Q 40.140625 11.078125 43.15625 15.25 
Q 46.1875 19.4375 46.1875 27.296875 
Q 46.1875 35.15625 43.15625 39.328125 
Q 40.140625 43.5 34.421875 43.5 
z
M 34.421875 56 
Q 48.53125 56 56.46875 48.375 
Q 64.40625 40.765625 64.40625 27.296875 
Q 64.40625 13.8125 56.46875 6.1875 
Q 48.53125 -1.421875 34.421875 -1.421875 
Q 20.265625 -1.421875 12.28125 6.1875 
Q 4.296875 13.8125 4.296875 27.296875 
Q 4.296875 40.765625 12.28125 48.375 
Q 20.265625 56 34.421875 56 
z
" id="DejaVuSans-Bold-111"/>
      <path d="M 49.03125 39.796875 
Q 46.734375 40.875 44.453125 41.375 
Q 42.1875 41.890625 39.890625 41.890625 
Q 33.15625 41.890625 29.515625 37.5625 
Q 25.875 33.25 25.875 25.203125 
L 25.875 0 
L 8.40625 0 
L 8.40625 54.6875 
L 25.875 54.6875 
L 25.875 45.703125 
Q 29.25 51.078125 33.609375 53.53125 
Q 37.984375 56 44.09375 56 
Q 44.96875 56 45.984375 55.921875 
Q 47.015625 55.859375 48.96875 55.609375 
z
" id="DejaVuSans-Bold-114"/>
      <path d="M 51.125 52.984375 
L 51.125 39.703125 
Q 45.515625 42.046875 40.28125 43.21875 
Q 35.0625 44.390625 30.421875 44.390625 
Q 25.4375 44.390625 23.015625 43.140625 
Q 20.609375 41.890625 20.609375 39.3125 
Q 20.609375 37.203125 22.4375 36.078125 
Q 24.265625 34.96875 29 34.421875 
L 32.078125 33.984375 
Q 45.515625 32.28125 50.140625 28.375 
Q 54.78125 24.46875 54.78125 16.109375 
Q 54.78125 7.375 48.328125 2.96875 
Q 41.890625 -1.421875 29.109375 -1.421875 
Q 23.6875 -1.421875 17.890625 -0.5625 
Q 12.109375 0.296875 6 2 
L 6 15.28125 
Q 11.234375 12.75 16.71875 11.46875 
Q 22.21875 10.203125 27.875 10.203125 
Q 33.015625 10.203125 35.59375 11.609375 
Q 38.1875 13.03125 38.1875 15.828125 
Q 38.1875 18.171875 36.40625 19.3125 
Q 34.625 20.453125 29.296875 21.09375 
L 26.21875 21.484375 
Q 14.546875 22.953125 9.859375 26.90625 
Q 5.171875 30.859375 5.171875 38.921875 
Q 5.171875 47.609375 11.125 51.796875 
Q 17.09375 56 29.390625 56 
Q 34.234375 56 39.546875 55.265625 
Q 44.875 54.546875 51.125 52.984375 
z
" id="DejaVuSans-Bold-115"/>
      <path d="M 62.984375 27.484375 
L 62.984375 22.515625 
L 22.125 22.515625 
Q 22.75 16.359375 26.5625 13.28125 
Q 30.375 10.203125 37.203125 10.203125 
Q 42.71875 10.203125 48.5 11.84375 
Q 54.296875 13.484375 60.40625 16.796875 
L 60.40625 3.328125 
Q 54.203125 0.984375 48 -0.21875 
Q 41.796875 -1.421875 35.59375 -1.421875 
Q 20.75 -1.421875 12.515625 6.125 
Q 4.296875 13.671875 4.296875 27.296875 
Q 4.296875 40.671875 12.375 48.328125 
Q 20.453125 56 34.625 56 
Q 47.515625 56 55.25 48.234375 
Q 62.984375 40.484375 62.984375 27.484375 
z
M 45.015625 33.296875 
Q 45.015625 38.28125 42.109375 41.328125 
Q 39.203125 44.390625 34.515625 44.390625 
Q 29.4375 44.390625 26.265625 41.53125 
Q 23.09375 38.671875 22.3125 33.296875 
z
" id="DejaVuSans-Bold-101"/>
     </defs>
     <use xlink:href="#DejaVuSans-Bold-67"/>
     <use x="73.388672" xlink:href="#DejaVuSans-Bold-111"/>
     <use x="142.089844" xlink:href="#DejaVuSans-Bold-114"/>
     <use x="191.40625" xlink:href="#DejaVuSans-Bold-115"/>
     <use x="250.927734" xlink:href="#DejaVuSans-Bold-101"/>
    </g>
   </g>
  </g>
  <g id="axes_5">
   <g id="patch_15">
    <path d="M 483.414671 216.813919 
L 875.54702 216.813919 
L 875.54702 59.286767 
L 483.414671 59.286767 
z
" style="fill:none;opacity:0;"/>
   </g>
   <g id="patch_16">
    <path clip-path="url(#peb34d04aae)" d="M 497.143594 216.813919 
L 497.143594 67.163125 
L 543.478707 67.163125 
L 543.478707 216.813919 
z
" style="fill:#808080;opacity:0.15;stroke:#808080;stroke-linejoin:miter;"/>
   </g>
   <g id="patch_17">
    <path clip-path="url(#peb34d04aae)" d="M 691.922682 216.813919 
L 691.922682 67.163125 
L 731.393334 67.163125 
L 731.393334 216.813919 
z
" style="fill:#808080;opacity:0.15;stroke:#808080;stroke-linejoin:miter;"/>
   </g>
   <g id="patch_18">
    <path clip-path="url(#peb34d04aae)" d="M 826.637734 216.813919 
L 826.637734 67.163125 
L 849.80529 67.163125 
L 849.80529 216.813919 
z
" style="fill:#808080;opacity:0.15;stroke:#808080;stroke-linejoin:miter;"/>
   </g>
   <g id="matplotlib.axis_7">
    <g id="xtick_33">
     <g id="line2d_72">
      <g>
       <use style="stroke:#000000;stroke-width:0.8;" x="483.414671" xlink:href="#med6df0b817" y="216.813919"/>
      </g>
     </g>
     <g id="text_48">
      <!-- mars -->
      <g transform="translate(472.220066 244.679756)rotate(-45)scale(0.09 -0.09)">
       <use xlink:href="#DejaVuSans-109"/>
       <use x="97.412109" xlink:href="#DejaVuSans-97"/>
       <use x="158.691406" xlink:href="#DejaVuSans-114"/>
       <use x="199.804688" xlink:href="#DejaVuSans-115"/>
      </g>
     </g>
    </g>
    <g id="xtick_34">
     <g id="line2d_73">
      <g>
       <use style="stroke:#000000;stroke-width:0.8;" x="510.014458" xlink:href="#med6df0b817" y="216.813919"/>
      </g>
     </g>
     <g id="text_49">
      <!-- avril -->
      <g transform="translate(501.03133 242.46828)rotate(-45)scale(0.09 -0.09)">
       <use xlink:href="#DejaVuSans-97"/>
       <use x="61.279297" xlink:href="#DejaVuSans-118"/>
       <use x="120.458984" xlink:href="#DejaVuSans-114"/>
       <use x="161.572266" xlink:href="#DejaVuSans-105"/>
       <use x="189.355469" xlink:href="#DejaVuSans-108"/>
      </g>
     </g>
    </g>
    <g id="xtick_35">
     <g id="line2d_74">
      <g>
       <use style="stroke:#000000;stroke-width:0.8;" x="535.756188" xlink:href="#med6df0b817" y="216.813919"/>
      </g>
     </g>
     <g id="text_50">
      <!-- mai -->
      <g transform="translate(528.725006 240.516333)rotate(-45)scale(0.09 -0.09)">
       <use xlink:href="#DejaVuSans-109"/>
       <use x="97.412109" xlink:href="#DejaVuSans-97"/>
       <use x="158.691406" xlink:href="#DejaVuSans-105"/>
      </g>
     </g>
    </g>
    <g id="xtick_36">
     <g id="line2d_75">
      <g>
       <use style="stroke:#000000;stroke-width:0.8;" x="562.355975" xlink:href="#med6df0b817" y="216.813919"/>
      </g>
     </g>
     <g id="text_51">
      <!-- juin -->
      <g transform="translate(555.589295 240.251831)rotate(-45)scale(0.09 -0.09)">
       <use xlink:href="#DejaVuSans-106"/>
       <use x="27.783203" xlink:href="#DejaVuSans-117"/>
       <use x="91.162109" xlink:href="#DejaVuSans-105"/>
       <use x="118.945312" xlink:href="#DejaVuSans-110"/>
      </g>
     </g>
    </g>
    <g id="xtick_37">
     <g id="line2d_76">
      <g>
       <use style="stroke:#000000;stroke-width:0.8;" x="588.097705" xlink:href="#med6df0b817" y="216.813919"/>
      </g>
     </g>
     <g id="text_52">
      <!-- juil. -->
      <g transform="translate(581.573651 240.009205)rotate(-45)scale(0.09 -0.09)">
       <use xlink:href="#DejaVuSans-106"/>
       <use x="27.783203" xlink:href="#DejaVuSans-117"/>
       <use x="91.162109" xlink:href="#DejaVuSans-105"/>
       <use x="118.945312" xlink:href="#DejaVuSans-108"/>
       <use x="146.728516" xlink:href="#DejaVuSans-46"/>
      </g>
     </g>
    </g>
    <g id="xtick_38">
     <g id="line2d_77">
      <g>
       <use style="stroke:#000000;stroke-width:0.8;" x="614.697493" xlink:href="#med6df0b817" y="216.813919"/>
      </g>
     </g>
     <g id="text_53">
      <!-- août -->
      <g transform="translate(605.211213 242.97143)rotate(-45)scale(0.09 -0.09)">
       <use xlink:href="#DejaVuSans-97"/>
       <use x="61.279297" xlink:href="#DejaVuSans-111"/>
       <use x="122.460938" xlink:href="#DejaVuSans-251"/>
       <use x="185.839844" xlink:href="#DejaVuSans-116"/>
      </g>
     </g>
    </g>
    <g id="xtick_39">
     <g id="line2d_78">
      <g>
       <use style="stroke:#000000;stroke-width:0.8;" x="641.29728" xlink:href="#med6df0b817" y="216.813919"/>
      </g>
     </g>
     <g id="text_54">
      <!-- sept. -->
      <g transform="translate(630.344306 244.438124)rotate(-45)scale(0.09 -0.09)">
       <use xlink:href="#DejaVuSans-115"/>
       <use x="52.099609" xlink:href="#DejaVuSans-101"/>
       <use x="113.623047" xlink:href="#DejaVuSans-112"/>
       <use x="177.099609" xlink:href="#DejaVuSans-116"/>
       <use x="216.308594" xlink:href="#DejaVuSans-46"/>
      </g>
     </g>
    </g>
    <g id="xtick_40">
     <g id="line2d_79">
      <g>
       <use style="stroke:#000000;stroke-width:0.8;" x="667.03901" xlink:href="#med6df0b817" y="216.813919"/>
      </g>
     </g>
     <g id="text_55">
      <!-- oct. -->
      <g transform="translate(659.964075 240.560086)rotate(-45)scale(0.09 -0.09)">
       <use xlink:href="#DejaVuSans-111"/>
       <use x="61.181641" xlink:href="#DejaVuSans-99"/>
       <use x="116.162109" xlink:href="#DejaVuSans-116"/>
       <use x="155.371094" xlink:href="#DejaVuSans-46"/>
      </g>
     </g>
    </g>
    <g id="xtick_41">
     <g id="line2d_80">
      <g>
       <use style="stroke:#000000;stroke-width:0.8;" x="693.638797" xlink:href="#med6df0b817" y="216.813919"/>
      </g>
     </g>
     <g id="text_56">
      <!-- nov. -->
      <g transform="translate(685.251295 241.872653)rotate(-45)scale(0.09 -0.09)">
       <use xlink:href="#DejaVuSans-110"/>
       <use x="63.378906" xlink:href="#DejaVuSans-111"/>
       <use x="124.560547" xlink:href="#DejaVuSans-118"/>
       <use x="175.990234" xlink:href="#DejaVuSans-46"/>
      </g>
     </g>
    </g>
    <g id="xtick_42">
     <g id="line2d_81">
      <g>
       <use style="stroke:#000000;stroke-width:0.8;" x="719.380527" xlink:href="#med6df0b817" y="216.813919"/>
      </g>
     </g>
     <g id="text_57">
      <!-- déc. -->
      <g transform="translate(710.738466 242.127211)rotate(-45)scale(0.09 -0.09)">
       <use xlink:href="#DejaVuSans-100"/>
       <use x="63.476562" xlink:href="#DejaVuSans-233"/>
       <use x="125" xlink:href="#DejaVuSans-99"/>
       <use x="179.980469" xlink:href="#DejaVuSans-46"/>
      </g>
     </g>
    </g>
    <g id="xtick_43">
     <g id="line2d_82">
      <g>
       <use style="stroke:#000000;stroke-width:0.8;" x="745.980314" xlink:href="#med6df0b817" y="216.813919"/>
      </g>
     </g>
     <g id="text_58">
      <!-- janv. -->
      <g transform="translate(735.818858 243.646607)rotate(-45)scale(0.09 -0.09)">
       <use xlink:href="#DejaVuSans-106"/>
       <use x="27.783203" xlink:href="#DejaVuSans-97"/>
       <use x="89.0625" xlink:href="#DejaVuSans-110"/>
       <use x="152.441406" xlink:href="#DejaVuSans-118"/>
       <use x="203.871094" xlink:href="#DejaVuSans-46"/>
      </g>
     </g>
    </g>
    <g id="xtick_44">
     <g id="line2d_83">
      <g>
       <use style="stroke:#000000;stroke-width:0.8;" x="772.580101" xlink:href="#med6df0b817" y="216.813919"/>
      </g>
     </g>
     <g id="text_59">
      <!-- fév. -->
      <g transform="translate(765.963571 240.101682)rotate(-45)scale(0.09 -0.09)">
       <use xlink:href="#DejaVuSans-102"/>
       <use x="35.205078" xlink:href="#DejaVuSans-233"/>
       <use x="96.728516" xlink:href="#DejaVuSans-118"/>
       <use x="148.158203" xlink:href="#DejaVuSans-46"/>
      </g>
     </g>
    </g>
    <g id="xtick_45">
     <g id="line2d_84">
      <g>
       <use style="stroke:#000000;stroke-width:0.8;" x="796.605716" xlink:href="#med6df0b817" y="216.813919"/>
      </g>
     </g>
     <g id="text_60">
      <!-- mars -->
      <g transform="translate(785.41111 244.679756)rotate(-45)scale(0.09 -0.09)">
       <use xlink:href="#DejaVuSans-109"/>
       <use x="97.412109" xlink:href="#DejaVuSans-97"/>
       <use x="158.691406" xlink:href="#DejaVuSans-114"/>
       <use x="199.804688" xlink:href="#DejaVuSans-115"/>
      </g>
     </g>
    </g>
    <g id="xtick_46">
     <g id="line2d_85">
      <g>
       <use style="stroke:#000000;stroke-width:0.8;" x="823.205503" xlink:href="#med6df0b817" y="216.813919"/>
      </g>
     </g>
     <g id="text_61">
      <!-- avril -->
      <g transform="translate(814.222374 242.46828)rotate(-45)scale(0.09 -0.09)">
       <use xlink:href="#DejaVuSans-97"/>
       <use x="61.279297" xlink:href="#DejaVuSans-118"/>
       <use x="120.458984" xlink:href="#DejaVuSans-114"/>
       <use x="161.572266" xlink:href="#DejaVuSans-105"/>
       <use x="189.355469" xlink:href="#DejaVuSans-108"/>
      </g>
     </g>
    </g>
    <g id="xtick_47">
     <g id="line2d_86">
      <g>
       <use style="stroke:#000000;stroke-width:0.8;" x="848.947233" xlink:href="#med6df0b817" y="216.813919"/>
      </g>
     </g>
     <g id="text_62">
      <!-- mai -->
      <g transform="translate(841.91605 240.516333)rotate(-45)scale(0.09 -0.09)">
       <use xlink:href="#DejaVuSans-109"/>
       <use x="97.412109" xlink:href="#DejaVuSans-97"/>
       <use x="158.691406" xlink:href="#DejaVuSans-105"/>
      </g>
     </g>
    </g>
    <g id="xtick_48">
     <g id="line2d_87">
      <g>
       <use style="stroke:#000000;stroke-width:0.8;" x="875.54702" xlink:href="#med6df0b817" y="216.813919"/>
      </g>
     </g>
     <g id="text_63">
      <!-- juin -->
      <g transform="translate(868.78034 240.251831)rotate(-45)scale(0.09 -0.09)">
       <use xlink:href="#DejaVuSans-106"/>
       <use x="27.783203" xlink:href="#DejaVuSans-117"/>
       <use x="91.162109" xlink:href="#DejaVuSans-105"/>
       <use x="118.945312" xlink:href="#DejaVuSans-110"/>
      </g>
     </g>
    </g>
   </g>
   <g id="matplotlib.axis_8">
    <g id="ytick_22">
     <g id="line2d_88">
      <path clip-path="url(#peb34d04aae)" d="M 483.414671 212.438165 
L 875.54702 212.438165 
" style="fill:none;stroke:#b0b0b0;stroke-linecap:square;stroke-opacity:0.5;stroke-width:0.8;"/>
     </g>
     <g id="text_64">
      <!-- 0 -->
      <g transform="translate(882.54702 215.857462)scale(0.09 -0.09)">
       <use xlink:href="#DejaVuSans-48"/>
      </g>
     </g>
    </g>
    <g id="ytick_23">
     <g id="line2d_89">
      <path clip-path="url(#peb34d04aae)" d="M 483.414671 168.680623 
L 875.54702 168.680623 
" style="fill:none;stroke:#b0b0b0;stroke-linecap:square;stroke-opacity:0.5;stroke-width:0.8;"/>
     </g>
     <g id="text_65">
      <!-- 20 -->
      <g transform="translate(882.54702 172.099919)scale(0.09 -0.09)">
       <use xlink:href="#DejaVuSans-50"/>
       <use x="63.623047" xlink:href="#DejaVuSans-48"/>
      </g>
     </g>
    </g>
    <g id="ytick_24">
     <g id="line2d_90">
      <path clip-path="url(#peb34d04aae)" d="M 483.414671 124.923081 
L 875.54702 124.923081 
" style="fill:none;stroke:#b0b0b0;stroke-linecap:square;stroke-opacity:0.5;stroke-width:0.8;"/>
     </g>
     <g id="text_66">
      <!-- 40 -->
      <g transform="translate(882.54702 128.342377)scale(0.09 -0.09)">
       <use xlink:href="#DejaVuSans-52"/>
       <use x="63.623047" xlink:href="#DejaVuSans-48"/>
      </g>
     </g>
    </g>
    <g id="ytick_25">
     <g id="line2d_91">
      <path clip-path="url(#peb34d04aae)" d="M 483.414671 81.165538 
L 875.54702 81.165538 
" style="fill:none;stroke:#b0b0b0;stroke-linecap:square;stroke-opacity:0.5;stroke-width:0.8;"/>
     </g>
     <g id="text_67">
      <!-- 60 -->
      <g transform="translate(882.54702 84.584835)scale(0.09 -0.09)">
       <use xlink:href="#DejaVuSans-54"/>
       <use x="63.623047" xlink:href="#DejaVuSans-48"/>
      </g>
     </g>
    </g>
    <g id="ytick_26">
     <g id="line2d_92">
      <path clip-path="url(#peb34d04aae)" d="M 483.414671 190.559394 
L 875.54702 190.559394 
" style="fill:none;stroke:#b0b0b0;stroke-linecap:square;stroke-opacity:0.2;stroke-width:0.8;"/>
     </g>
    </g>
    <g id="ytick_27">
     <g id="line2d_93">
      <path clip-path="url(#peb34d04aae)" d="M 483.414671 146.801852 
L 875.54702 146.801852 
" style="fill:none;stroke:#b0b0b0;stroke-linecap:square;stroke-opacity:0.2;stroke-width:0.8;"/>
     </g>
    </g>
    <g id="ytick_28">
     <g id="line2d_94">
      <path clip-path="url(#peb34d04aae)" d="M 483.414671 103.044309 
L 875.54702 103.044309 
" style="fill:none;stroke:#b0b0b0;stroke-linecap:square;stroke-opacity:0.2;stroke-width:0.8;"/>
     </g>
    </g>
   </g>
   <g id="line2d_95">
    <path clip-path="url(#peb34d04aae)" d="M 741.690026 212.438165 
L 780.30262 212.343454 
L 788.883197 212.235157 
L 808.618523 212.11708 
L 838.650541 211.828307 
L 841.224714 211.694908 
L 841.224714 211.694908 
" style="fill:none;stroke:#b22222;stroke-linecap:square;"/>
   </g>
   <g id="line2d_96">
    <path clip-path="url(#peb34d04aae)" d="M 741.690026 212.438165 
L 768.289813 212.381527 
L 773.438159 211.930047 
L 776.87039 211.286581 
L 777.728447 211.270581 
L 779.444563 210.863376 
L 782.018735 210.091351 
L 784.592908 209.901836 
L 788.883197 209.169486 
L 790.599312 209.084095 
L 794.8896 208.68351 
L 797.463773 208.565601 
L 801.754062 208.313127 
L 805.186292 208.091978 
L 806.902408 208.016215 
L 810.334638 207.899515 
L 812.908811 207.787825 
L 816.341042 207.672838 
L 830.069964 206.817254 
L 834.360253 206.335896 
L 840.366656 205.175085 
L 841.224714 204.860351 
L 841.224714 204.860351 
" style="fill:none;stroke:#000000;stroke-linecap:square;stroke-width:1.5;"/>
   </g>
   <g id="line2d_97">
    <path clip-path="url(#peb34d04aae)" d="M 741.690026 212.438165 
L 768.289813 212.349584 
L 770.863986 212.083034 
L 771.722044 212.070488 
L 772.580101 211.945348 
L 774.296217 211.435501 
L 776.012332 210.764175 
L 777.728447 210.629957 
L 778.586505 210.278918 
L 780.30262 208.939415 
L 781.160678 208.053806 
L 782.018735 207.479967 
L 783.734851 207.24896 
L 784.592908 206.540584 
L 786.309024 204.562897 
L 787.167081 203.349784 
L 788.025139 202.482895 
L 788.883197 202.183706 
L 789.741254 202.12676 
L 791.45737 200.511028 
L 794.031543 198.020076 
L 794.8896 197.776069 
L 795.747658 197.738223 
L 797.463773 196.465149 
L 800.037946 194.415618 
L 800.896004 194.230566 
L 801.754062 194.204838 
L 803.470177 193.106255 
L 806.04435 191.340671 
L 806.902408 191.179866 
L 807.760465 191.153794 
L 809.47658 190.456641 
L 812.050753 189.305204 
L 813.766869 189.171279 
L 815.482984 188.401364 
L 818.057157 187.061163 
L 818.915215 186.881919 
L 819.773272 186.830057 
L 820.63133 186.259392 
L 822.347445 184.686921 
L 824.063561 182.612114 
L 824.921618 181.914079 
L 826.637734 181.596157 
L 830.069964 176.558066 
L 830.928022 175.687538 
L 831.78608 175.347219 
L 832.644137 174.106503 
L 836.076368 168.135535 
L 836.934425 167.248834 
L 837.792483 166.922961 
L 838.650541 165.535554 
L 841.224714 160.547866 
L 841.224714 160.547866 
" style="fill:none;stroke:#ffd700;stroke-linecap:square;stroke-width:3;"/>
   </g>
   <g id="line2d_98">
    <path clip-path="url(#peb34d04aae)" d="M 745.980314 216.813919 
L 745.980314 67.163125 
" style="fill:none;stroke:#000000;stroke-dasharray:1.85,0.8;stroke-dashoffset:0;stroke-width:0.5;"/>
   </g>
   <g id="text_68">
    <!-- France -->
    <g style="fill:#4169e1;" transform="translate(483.414671 56.587812)scale(0.22 -0.22)">
     <defs>
      <path d="M 9.1875 72.90625 
L 59.90625 72.90625 
L 59.90625 58.6875 
L 27.984375 58.6875 
L 27.984375 45.125 
L 58.015625 45.125 
L 58.015625 30.90625 
L 27.984375 30.90625 
L 27.984375 0 
L 9.1875 0 
z
" id="DejaVuSans-Bold-70"/>
      <path d="M 32.90625 24.609375 
Q 27.4375 24.609375 24.671875 22.75 
Q 21.921875 20.90625 21.921875 17.28125 
Q 21.921875 13.96875 24.140625 12.078125 
Q 26.375 10.203125 30.328125 10.203125 
Q 35.25 10.203125 38.625 13.734375 
Q 42 17.28125 42 22.609375 
L 42 24.609375 
z
M 59.625 31.203125 
L 59.625 0 
L 42 0 
L 42 8.109375 
Q 38.484375 3.125 34.078125 0.84375 
Q 29.6875 -1.421875 23.390625 -1.421875 
Q 14.890625 -1.421875 9.59375 3.53125 
Q 4.296875 8.5 4.296875 16.40625 
Q 4.296875 26.03125 10.90625 30.515625 
Q 17.53125 35.015625 31.6875 35.015625 
L 42 35.015625 
L 42 36.375 
Q 42 40.53125 38.71875 42.453125 
Q 35.453125 44.390625 28.515625 44.390625 
Q 22.90625 44.390625 18.0625 43.265625 
Q 13.234375 42.140625 9.078125 39.890625 
L 9.078125 53.21875 
Q 14.703125 54.59375 20.359375 55.296875 
Q 26.03125 56 31.6875 56 
Q 46.484375 56 53.046875 50.171875 
Q 59.625 44.34375 59.625 31.203125 
z
" id="DejaVuSans-Bold-97"/>
      <path d="M 63.375 33.296875 
L 63.375 0 
L 45.796875 0 
L 45.796875 5.421875 
L 45.796875 25.484375 
Q 45.796875 32.5625 45.484375 35.25 
Q 45.171875 37.9375 44.390625 39.203125 
Q 43.359375 40.921875 41.59375 41.875 
Q 39.84375 42.828125 37.59375 42.828125 
Q 32.125 42.828125 29 38.59375 
Q 25.875 34.375 25.875 26.90625 
L 25.875 0 
L 8.40625 0 
L 8.40625 54.6875 
L 25.875 54.6875 
L 25.875 46.6875 
Q 29.828125 51.46875 34.265625 53.734375 
Q 38.71875 56 44.09375 56 
Q 53.5625 56 58.46875 50.1875 
Q 63.375 44.390625 63.375 33.296875 
z
" id="DejaVuSans-Bold-110"/>
      <path d="M 52.59375 52.984375 
L 52.59375 38.71875 
Q 49.03125 41.15625 45.4375 42.328125 
Q 41.84375 43.5 37.984375 43.5 
Q 30.671875 43.5 26.59375 39.234375 
Q 22.515625 34.96875 22.515625 27.296875 
Q 22.515625 19.625 26.59375 15.34375 
Q 30.671875 11.078125 37.984375 11.078125 
Q 42.09375 11.078125 45.78125 12.296875 
Q 49.46875 13.53125 52.59375 15.921875 
L 52.59375 1.609375 
Q 48.484375 0.09375 44.265625 -0.65625 
Q 40.046875 -1.421875 35.796875 -1.421875 
Q 21 -1.421875 12.640625 6.171875 
Q 4.296875 13.765625 4.296875 27.296875 
Q 4.296875 40.828125 12.640625 48.40625 
Q 21 56 35.796875 56 
Q 40.09375 56 44.265625 55.25 
Q 48.4375 54.5 52.59375 52.984375 
z
" id="DejaVuSans-Bold-99"/>
     </defs>
     <use xlink:href="#DejaVuSans-Bold-70"/>
     <use x="61.935547" xlink:href="#DejaVuSans-Bold-114"/>
     <use x="111.251953" xlink:href="#DejaVuSans-Bold-97"/>
     <use x="178.732422" xlink:href="#DejaVuSans-Bold-110"/>
     <use x="249.923828" xlink:href="#DejaVuSans-Bold-99"/>
     <use x="309.201172" xlink:href="#DejaVuSans-Bold-101"/>
    </g>
   </g>
  </g>
  <g id="text_69">
   <!-- @E_Dmz - Données Santé Publique France (23/04/2021) -->
   <g transform="translate(63.23976 409.058095)scale(0.09 -0.09)">
    <defs>
     <path d="M 37.203125 26.21875 
Q 37.203125 19.234375 40.671875 15.25 
Q 44.140625 11.28125 50.203125 11.28125 
Q 56.203125 11.28125 59.640625 15.28125 
Q 63.09375 19.28125 63.09375 26.21875 
Q 63.09375 33.0625 59.578125 37.078125 
Q 56.0625 41.109375 50.09375 41.109375 
Q 44.1875 41.109375 40.6875 37.109375 
Q 37.203125 33.109375 37.203125 26.21875 
z
M 63.8125 11.625 
Q 60.890625 7.859375 57.109375 6.078125 
Q 53.328125 4.296875 48.296875 4.296875 
Q 39.890625 4.296875 34.640625 10.375 
Q 29.390625 16.453125 29.390625 26.21875 
Q 29.390625 35.984375 34.65625 42.078125 
Q 39.9375 48.1875 48.296875 48.1875 
Q 53.328125 48.1875 57.125 46.359375 
Q 60.9375 44.53125 63.8125 40.828125 
L 63.8125 47.21875 
L 70.796875 47.21875 
L 70.796875 11.28125 
Q 77.9375 12.359375 81.953125 17.796875 
Q 85.984375 23.25 85.984375 31.890625 
Q 85.984375 37.109375 84.4375 41.703125 
Q 82.90625 46.296875 79.78125 50.203125 
Q 74.703125 56.59375 67.40625 59.984375 
Q 60.109375 63.375 51.515625 63.375 
Q 45.515625 63.375 39.984375 61.78125 
Q 34.46875 60.203125 29.78125 57.078125 
Q 22.125 52.09375 17.796875 44.015625 
Q 13.484375 35.9375 13.484375 26.515625 
Q 13.484375 18.75 16.28125 11.953125 
Q 19.09375 5.171875 24.421875 0 
Q 29.546875 -5.078125 36.28125 -7.734375 
Q 43.015625 -10.40625 50.6875 -10.40625 
Q 56.984375 -10.40625 63.0625 -8.28125 
Q 69.140625 -6.15625 74.21875 -2.203125 
L 78.609375 -7.625 
Q 72.515625 -12.359375 65.3125 -14.875 
Q 58.109375 -17.390625 50.6875 -17.390625 
Q 41.65625 -17.390625 33.640625 -14.1875 
Q 25.640625 -10.984375 19.390625 -4.890625 
Q 13.140625 1.21875 9.859375 9.25 
Q 6.59375 17.28125 6.59375 26.515625 
Q 6.59375 35.40625 9.90625 43.453125 
Q 13.234375 51.515625 19.390625 57.625 
Q 25.6875 63.8125 33.9375 67.109375 
Q 42.1875 70.40625 51.421875 70.40625 
Q 61.765625 70.40625 70.625 66.15625 
Q 79.5 61.921875 85.5 54.109375 
Q 89.15625 49.3125 91.078125 43.703125 
Q 93.015625 38.09375 93.015625 32.078125 
Q 93.015625 19.234375 85.25 11.8125 
Q 77.484375 4.390625 63.8125 4.109375 
z
" id="DejaVuSans-64"/>
     <path d="M 9.8125 72.90625 
L 55.90625 72.90625 
L 55.90625 64.59375 
L 19.671875 64.59375 
L 19.671875 43.015625 
L 54.390625 43.015625 
L 54.390625 34.71875 
L 19.671875 34.71875 
L 19.671875 8.296875 
L 56.78125 8.296875 
L 56.78125 0 
L 9.8125 0 
z
" id="DejaVuSans-69"/>
     <path d="M 50.984375 -16.609375 
L 50.984375 -23.578125 
L -0.984375 -23.578125 
L -0.984375 -16.609375 
z
" id="DejaVuSans-95"/>
     <path d="M 19.671875 64.796875 
L 19.671875 8.109375 
L 31.59375 8.109375 
Q 46.6875 8.109375 53.6875 14.9375 
Q 60.6875 21.78125 60.6875 36.53125 
Q 60.6875 51.171875 53.6875 57.984375 
Q 46.6875 64.796875 31.59375 64.796875 
z
M 9.8125 72.90625 
L 30.078125 72.90625 
Q 51.265625 72.90625 61.171875 64.09375 
Q 71.09375 55.28125 71.09375 36.53125 
Q 71.09375 17.671875 61.125 8.828125 
Q 51.171875 0 30.078125 0 
L 9.8125 0 
z
" id="DejaVuSans-68"/>
     <path d="M 5.515625 54.6875 
L 48.1875 54.6875 
L 48.1875 46.484375 
L 14.40625 7.171875 
L 48.1875 7.171875 
L 48.1875 0 
L 4.296875 0 
L 4.296875 8.203125 
L 38.09375 47.515625 
L 5.515625 47.515625 
z
" id="DejaVuSans-122"/>
     <path d="M 53.515625 70.515625 
L 53.515625 60.890625 
Q 47.90625 63.578125 42.921875 64.890625 
Q 37.9375 66.21875 33.296875 66.21875 
Q 25.25 66.21875 20.875 63.09375 
Q 16.5 59.96875 16.5 54.203125 
Q 16.5 49.359375 19.40625 46.890625 
Q 22.3125 44.4375 30.421875 42.921875 
L 36.375 41.703125 
Q 47.40625 39.59375 52.65625 34.296875 
Q 57.90625 29 57.90625 20.125 
Q 57.90625 9.515625 50.796875 4.046875 
Q 43.703125 -1.421875 29.984375 -1.421875 
Q 24.8125 -1.421875 18.96875 -0.25 
Q 13.140625 0.921875 6.890625 3.21875 
L 6.890625 13.375 
Q 12.890625 10.015625 18.65625 8.296875 
Q 24.421875 6.59375 29.984375 6.59375 
Q 38.421875 6.59375 43.015625 9.90625 
Q 47.609375 13.234375 47.609375 19.390625 
Q 47.609375 24.75 44.3125 27.78125 
Q 41.015625 30.8125 33.5 32.328125 
L 27.484375 33.5 
Q 16.453125 35.6875 11.515625 40.375 
Q 6.59375 45.0625 6.59375 53.421875 
Q 6.59375 63.09375 13.40625 68.65625 
Q 20.21875 74.21875 32.171875 74.21875 
Q 37.3125 74.21875 42.625 73.28125 
Q 47.953125 72.359375 53.515625 70.515625 
z
" id="DejaVuSans-83"/>
     <path d="M 14.796875 27.296875 
Q 14.796875 17.390625 18.875 11.75 
Q 22.953125 6.109375 30.078125 6.109375 
Q 37.203125 6.109375 41.296875 11.75 
Q 45.40625 17.390625 45.40625 27.296875 
Q 45.40625 37.203125 41.296875 42.84375 
Q 37.203125 48.484375 30.078125 48.484375 
Q 22.953125 48.484375 18.875 42.84375 
Q 14.796875 37.203125 14.796875 27.296875 
z
M 45.40625 8.203125 
Q 42.578125 3.328125 38.25 0.953125 
Q 33.9375 -1.421875 27.875 -1.421875 
Q 17.96875 -1.421875 11.734375 6.484375 
Q 5.515625 14.40625 5.515625 27.296875 
Q 5.515625 40.1875 11.734375 48.09375 
Q 17.96875 56 27.875 56 
Q 33.9375 56 38.25 53.625 
Q 42.578125 51.265625 45.40625 46.390625 
L 45.40625 54.6875 
L 54.390625 54.6875 
L 54.390625 -20.796875 
L 45.40625 -20.796875 
z
" id="DejaVuSans-113"/>
     <path d="M 9.8125 72.90625 
L 51.703125 72.90625 
L 51.703125 64.59375 
L 19.671875 64.59375 
L 19.671875 43.109375 
L 48.578125 43.109375 
L 48.578125 34.8125 
L 19.671875 34.8125 
L 19.671875 0 
L 9.8125 0 
z
" id="DejaVuSans-70"/>
     <path d="M 25.390625 72.90625 
L 33.6875 72.90625 
L 8.296875 -9.28125 
L 0 -9.28125 
z
" id="DejaVuSans-47"/>
    </defs>
    <use xlink:href="#DejaVuSans-64"/>
    <use x="100" xlink:href="#DejaVuSans-69"/>
    <use x="163.183594" xlink:href="#DejaVuSans-95"/>
    <use x="213.183594" xlink:href="#DejaVuSans-68"/>
    <use x="290.185547" xlink:href="#DejaVuSans-109"/>
    <use x="387.597656" xlink:href="#DejaVuSans-122"/>
    <use x="440.087891" xlink:href="#DejaVuSans-32"/>
    <use x="471.875" xlink:href="#DejaVuSans-45"/>
    <use x="507.958984" xlink:href="#DejaVuSans-32"/>
    <use x="539.746094" xlink:href="#DejaVuSans-68"/>
    <use x="616.748047" xlink:href="#DejaVuSans-111"/>
    <use x="677.929688" xlink:href="#DejaVuSans-110"/>
    <use x="741.308594" xlink:href="#DejaVuSans-110"/>
    <use x="804.6875" xlink:href="#DejaVuSans-233"/>
    <use x="866.210938" xlink:href="#DejaVuSans-101"/>
    <use x="927.734375" xlink:href="#DejaVuSans-115"/>
    <use x="979.833984" xlink:href="#DejaVuSans-32"/>
    <use x="1011.621094" xlink:href="#DejaVuSans-83"/>
    <use x="1075.097656" xlink:href="#DejaVuSans-97"/>
    <use x="1136.376953" xlink:href="#DejaVuSans-110"/>
    <use x="1199.755859" xlink:href="#DejaVuSans-116"/>
    <use x="1238.964844" xlink:href="#DejaVuSans-233"/>
    <use x="1300.488281" xlink:href="#DejaVuSans-32"/>
    <use x="1332.275391" xlink:href="#DejaVuSans-80"/>
    <use x="1390.828125" xlink:href="#DejaVuSans-117"/>
    <use x="1454.207031" xlink:href="#DejaVuSans-98"/>
    <use x="1517.683594" xlink:href="#DejaVuSans-108"/>
    <use x="1545.466797" xlink:href="#DejaVuSans-105"/>
    <use x="1573.25" xlink:href="#DejaVuSans-113"/>
    <use x="1636.726562" xlink:href="#DejaVuSans-117"/>
    <use x="1700.105469" xlink:href="#DejaVuSans-101"/>
    <use x="1761.628906" xlink:href="#DejaVuSans-32"/>
    <use x="1793.416016" xlink:href="#DejaVuSans-70"/>
    <use x="1843.685547" xlink:href="#DejaVuSans-114"/>
    <use x="1884.798828" xlink:href="#DejaVuSans-97"/>
    <use x="1946.078125" xlink:href="#DejaVuSans-110"/>
    <use x="2009.457031" xlink:href="#DejaVuSans-99"/>
    <use x="2064.4375" xlink:href="#DejaVuSans-101"/>
    <use x="2125.960938" xlink:href="#DejaVuSans-32"/>
    <use x="2157.748047" xlink:href="#DejaVuSans-40"/>
    <use x="2196.761719" xlink:href="#DejaVuSans-50"/>
    <use x="2260.384766" xlink:href="#DejaVuSans-51"/>
    <use x="2324.007812" xlink:href="#DejaVuSans-47"/>
    <use x="2357.699219" xlink:href="#DejaVuSans-48"/>
    <use x="2421.322266" xlink:href="#DejaVuSans-52"/>
    <use x="2484.945312" xlink:href="#DejaVuSans-47"/>
    <use x="2518.636719" xlink:href="#DejaVuSans-50"/>
    <use x="2582.259766" xlink:href="#DejaVuSans-48"/>
    <use x="2645.882812" xlink:href="#DejaVuSans-50"/>
    <use x="2709.505859" xlink:href="#DejaVuSans-49"/>
    <use x="2773.128906" xlink:href="#DejaVuSans-41"/>
   </g>
  </g>
 </g>
 <defs>
  <clipPath id="p06883f13b6">
   <rect height="87.157517" width="198.13884" x="54.4525" y="252.056402"/>
  </clipPath>
  <clipPath id="p3035e14410">
   <rect height="87.157517" width="198.13884" x="278.942041" y="252.056402"/>
  </clipPath>
  <clipPath id="p7fe17c536d">
   <rect height="157.527151" width="392.132349" x="54.4525" y="59.286767"/>
  </clipPath>
  <clipPath id="peb34d04aae">
   <rect height="157.527151" width="392.132349" x="483.414671" y="59.286767"/>
  </clipPath>
 </defs>
</svg>
