<?xml version="1.0" encoding="utf-8" standalone="no"?>
<!DOCTYPE svg PUBLIC "-//W3C//DTD SVG 1.1//EN"
  "http://www.w3.org/Graphics/SVG/1.1/DTD/svg11.dtd">
<!-- Created with matplotlib (https://matplotlib.org/) -->
<svg height="460.8pt" version="1.1" viewBox="0 0 864 460.8" width="864pt" xmlns="http://www.w3.org/2000/svg" xmlns:xlink="http://www.w3.org/1999/xlink">
 <metadata>
  <rdf:RDF xmlns:cc="http://creativecommons.org/ns#" xmlns:dc="http://purl.org/dc/elements/1.1/" xmlns:rdf="http://www.w3.org/1999/02/22-rdf-syntax-ns#">
   <cc:Work>
    <dc:type rdf:resource="http://purl.org/dc/dcmitype/StillImage"/>
    <dc:date>2021-04-18T23:05:43.395453</dc:date>
    <dc:format>image/svg+xml</dc:format>
    <dc:creator>
     <cc:Agent>
      <dc:title>Matplotlib v3.3.4, https://matplotlib.org/</dc:title>
     </cc:Agent>
    </dc:creator>
   </cc:Work>
  </rdf:RDF>
 </metadata>
 <defs>
  <style type="text/css">*{stroke-linecap:butt;stroke-linejoin:round;}</style>
 </defs>
 <g id="figure_1">
  <g id="patch_1">
   <path d="M 0 460.8 
L 864 460.8 
L 864 0 
L 0 0 
z
" style="fill:#ffffff;"/>
  </g>
  <g id="axes_1">
   <g id="patch_2">
    <path d="M 34.56 111.116914 
L 219.415814 111.116914 
L 219.415814 16.128 
L 34.56 16.128 
z
" style="fill:none;opacity:0;"/>
   </g>
   <g id="patch_3">
    <path clip-path="url(#p775f3eb046)" d="M 41.031976 111.116914 
L 41.031976 20.877446 
L 62.874895 20.877446 
L 62.874895 111.116914 
z
" style="fill:#808080;opacity:0.15;stroke:#808080;stroke-linejoin:miter;"/>
   </g>
   <g id="patch_4">
    <path clip-path="url(#p775f3eb046)" d="M 132.853135 111.116914 
L 132.853135 20.877446 
L 151.460066 20.877446 
L 151.460066 111.116914 
z
" style="fill:#808080;opacity:0.15;stroke:#808080;stroke-linejoin:miter;"/>
   </g>
   <g id="patch_5">
    <path clip-path="url(#p775f3eb046)" d="M 196.3594 111.116914 
L 196.3594 20.877446 
L 207.280859 20.877446 
L 207.280859 111.116914 
z
" style="fill:#808080;opacity:0.15;stroke:#808080;stroke-linejoin:miter;"/>
   </g>
   <g id="matplotlib.axis_1">
    <g id="xtick_1"/>
    <g id="xtick_2"/>
    <g id="xtick_3"/>
    <g id="xtick_4"/>
    <g id="xtick_5"/>
    <g id="xtick_6"/>
    <g id="xtick_7"/>
    <g id="xtick_8"/>
   </g>
   <g id="matplotlib.axis_2">
    <g id="ytick_1">
     <g id="line2d_1">
      <path clip-path="url(#p775f3eb046)" d="M 34.56 108.002523 
L 219.415814 108.002523 
" style="fill:none;stroke:#b0b0b0;stroke-linecap:square;stroke-width:0.8;"/>
     </g>
     <g id="text_1">
      <!-- 0 -->
      <g transform="translate(21.83375 111.42182)scale(0.09 -0.09)">
       <defs>
        <path d="M 31.78125 66.40625 
Q 24.171875 66.40625 20.328125 58.90625 
Q 16.5 51.421875 16.5 36.375 
Q 16.5 21.390625 20.328125 13.890625 
Q 24.171875 6.390625 31.78125 6.390625 
Q 39.453125 6.390625 43.28125 13.890625 
Q 47.125 21.390625 47.125 36.375 
Q 47.125 51.421875 43.28125 58.90625 
Q 39.453125 66.40625 31.78125 66.40625 
z
M 31.78125 74.21875 
Q 44.046875 74.21875 50.515625 64.515625 
Q 56.984375 54.828125 56.984375 36.375 
Q 56.984375 17.96875 50.515625 8.265625 
Q 44.046875 -1.421875 31.78125 -1.421875 
Q 19.53125 -1.421875 13.0625 8.265625 
Q 6.59375 17.96875 6.59375 36.375 
Q 6.59375 54.828125 13.0625 64.515625 
Q 19.53125 74.21875 31.78125 74.21875 
z
" id="DejaVuSans-48"/>
       </defs>
       <use xlink:href="#DejaVuSans-48"/>
      </g>
     </g>
    </g>
    <g id="ytick_2">
     <g id="line2d_2">
      <path clip-path="url(#p775f3eb046)" d="M 34.56 76.858617 
L 219.415814 76.858617 
" style="fill:none;stroke:#b0b0b0;stroke-linecap:square;stroke-width:0.8;"/>
     </g>
     <g id="text_2">
      <!-- 20 -->
      <g transform="translate(16.1075 80.277914)scale(0.09 -0.09)">
       <defs>
        <path d="M 19.1875 8.296875 
L 53.609375 8.296875 
L 53.609375 0 
L 7.328125 0 
L 7.328125 8.296875 
Q 12.9375 14.109375 22.625 23.890625 
Q 32.328125 33.6875 34.8125 36.53125 
Q 39.546875 41.84375 41.421875 45.53125 
Q 43.3125 49.21875 43.3125 52.78125 
Q 43.3125 58.59375 39.234375 62.25 
Q 35.15625 65.921875 28.609375 65.921875 
Q 23.96875 65.921875 18.8125 64.3125 
Q 13.671875 62.703125 7.8125 59.421875 
L 7.8125 69.390625 
Q 13.765625 71.78125 18.9375 73 
Q 24.125 74.21875 28.421875 74.21875 
Q 39.75 74.21875 46.484375 68.546875 
Q 53.21875 62.890625 53.21875 53.421875 
Q 53.21875 48.921875 51.53125 44.890625 
Q 49.859375 40.875 45.40625 35.40625 
Q 44.1875 33.984375 37.640625 27.21875 
Q 31.109375 20.453125 19.1875 8.296875 
z
" id="DejaVuSans-50"/>
       </defs>
       <use xlink:href="#DejaVuSans-50"/>
       <use x="63.623047" xlink:href="#DejaVuSans-48"/>
      </g>
     </g>
    </g>
    <g id="ytick_3">
     <g id="line2d_3">
      <path clip-path="url(#p775f3eb046)" d="M 34.56 45.714711 
L 219.415814 45.714711 
" style="fill:none;stroke:#b0b0b0;stroke-linecap:square;stroke-width:0.8;"/>
     </g>
     <g id="text_3">
      <!-- 40 -->
      <g transform="translate(16.1075 49.134008)scale(0.09 -0.09)">
       <defs>
        <path d="M 37.796875 64.3125 
L 12.890625 25.390625 
L 37.796875 25.390625 
z
M 35.203125 72.90625 
L 47.609375 72.90625 
L 47.609375 25.390625 
L 58.015625 25.390625 
L 58.015625 17.1875 
L 47.609375 17.1875 
L 47.609375 0 
L 37.796875 0 
L 37.796875 17.1875 
L 4.890625 17.1875 
L 4.890625 26.703125 
z
" id="DejaVuSans-52"/>
       </defs>
       <use xlink:href="#DejaVuSans-52"/>
       <use x="63.623047" xlink:href="#DejaVuSans-48"/>
      </g>
     </g>
    </g>
   </g>
   <g id="line2d_4">
    <path clip-path="url(#p775f3eb046)" d="M 156.314048 108.002523 
L 173.302985 107.952321 
L 174.516481 107.824029 
L 178.156967 107.718048 
L 201.213382 107.543272 
L 201.213382 107.543272 
" style="fill:none;stroke:#b22222;stroke-linecap:square;"/>
   </g>
   <g id="line2d_5">
    <path clip-path="url(#p775f3eb046)" d="M 156.314048 108.002523 
L 169.258 107.917241 
L 170.066997 107.825642 
L 170.471496 107.825642 
L 171.684991 107.110224 
L 172.493988 106.690133 
L 173.302985 106.480088 
L 173.707484 105.846793 
L 174.516481 105.053989 
L 174.920979 104.793407 
L 175.325478 104.373315 
L 176.943472 103.836357 
L 181.392955 103.338881 
L 181.797454 103.332564 
L 182.606451 103.037237 
L 185.842439 102.83035 
L 190.696421 102.767178 
L 196.763898 102.571346 
L 198.381892 102.283915 
L 199.190889 102.198634 
L 201.213382 101.830659 
L 201.213382 101.830659 
" style="fill:none;stroke:#000000;stroke-linecap:square;stroke-width:1.5;"/>
   </g>
   <g id="line2d_6">
    <path clip-path="url(#p775f3eb046)" d="M 156.314048 108.002523 
L 169.258 107.907001 
L 169.662499 107.613846 
L 170.471496 107.612199 
L 170.875994 107.485385 
L 171.684991 106.350645 
L 172.08949 105.919148 
L 172.493988 105.733044 
L 172.898487 105.672107 
L 173.302985 105.15991 
L 173.707484 103.37463 
L 174.111982 102.393056 
L 174.516481 101.941795 
L 176.134475 99.571853 
L 177.34797 96.470671 
L 178.156967 95.177825 
L 178.561466 94.82044 
L 178.965964 94.663981 
L 180.583958 91.543036 
L 180.988457 90.818383 
L 181.392955 90.482408 
L 181.797454 90.327596 
L 182.606451 88.494555 
L 183.415448 87.396048 
L 184.224445 86.648339 
L 184.628943 86.648339 
L 185.43794 86.035679 
L 186.246937 85.595946 
L 187.055934 85.431253 
L 189.482925 85.320908 
L 193.123412 85.202329 
L 193.932409 84.836709 
L 194.336907 84.808711 
L 194.741406 84.536966 
L 195.550403 83.543863 
L 196.3594 83.543863 
L 197.572895 80.411389 
L 197.977394 79.29806 
L 198.381892 78.627756 
L 198.786391 78.318132 
L 200.808883 73.135222 
L 201.213382 72.707018 
L 201.213382 72.707018 
" style="fill:none;stroke:#ffd700;stroke-linecap:square;stroke-width:3;"/>
   </g>
   <g id="line2d_7">
    <path clip-path="url(#p775f3eb046)" d="M 158.336541 111.116914 
L 158.336541 20.877446 
" style="fill:none;stroke:#000000;stroke-dasharray:1.85,0.8;stroke-dashoffset:0;stroke-width:0.5;"/>
   </g>
   <g id="text_4">
    <!-- 61 -->
    <g style="fill:#4169e1;" transform="translate(43.802791 44.132275)scale(0.26 -0.26)">
     <defs>
      <path d="M 36.1875 35.984375 
Q 31.25 35.984375 28.78125 32.78125 
Q 26.3125 29.59375 26.3125 23.1875 
Q 26.3125 16.796875 28.78125 13.59375 
Q 31.25 10.40625 36.1875 10.40625 
Q 41.15625 10.40625 43.625 13.59375 
Q 46.09375 16.796875 46.09375 23.1875 
Q 46.09375 29.59375 43.625 32.78125 
Q 41.15625 35.984375 36.1875 35.984375 
z
M 59.421875 71 
L 59.421875 57.515625 
Q 54.78125 59.71875 50.671875 60.765625 
Q 46.578125 61.8125 42.671875 61.8125 
Q 34.28125 61.8125 29.59375 57.140625 
Q 24.90625 52.484375 24.125 43.3125 
Q 27.34375 45.703125 31.09375 46.890625 
Q 34.859375 48.09375 39.3125 48.09375 
Q 50.484375 48.09375 57.34375 41.546875 
Q 64.203125 35.015625 64.203125 24.421875 
Q 64.203125 12.703125 56.53125 5.640625 
Q 48.875 -1.421875 35.984375 -1.421875 
Q 21.78125 -1.421875 13.984375 8.171875 
Q 6.203125 17.78125 6.203125 35.40625 
Q 6.203125 53.46875 15.3125 63.796875 
Q 24.421875 74.125 40.28125 74.125 
Q 45.3125 74.125 50.046875 73.34375 
Q 54.78125 72.5625 59.421875 71 
z
" id="DejaVuSans-Bold-54"/>
      <path d="M 11.71875 12.984375 
L 28.328125 12.984375 
L 28.328125 60.109375 
L 11.28125 56.59375 
L 11.28125 69.390625 
L 28.21875 72.90625 
L 46.09375 72.90625 
L 46.09375 12.984375 
L 62.703125 12.984375 
L 62.703125 0 
L 11.71875 0 
z
" id="DejaVuSans-Bold-49"/>
     </defs>
     <use xlink:href="#DejaVuSans-Bold-54"/>
     <use x="69.580078" xlink:href="#DejaVuSans-Bold-49"/>
    </g>
   </g>
  </g>
  <g id="axes_2">
   <g id="patch_6">
    <path d="M 237.901395 111.116914 
L 422.757209 111.116914 
L 422.757209 16.128 
L 237.901395 16.128 
z
" style="fill:none;opacity:0;"/>
   </g>
   <g id="patch_7">
    <path clip-path="url(#p04ea4f5d54)" d="M 244.373371 111.116914 
L 244.373371 20.877446 
L 266.21629 20.877446 
L 266.21629 111.116914 
z
" style="fill:#808080;opacity:0.15;stroke:#808080;stroke-linejoin:miter;"/>
   </g>
   <g id="patch_8">
    <path clip-path="url(#p04ea4f5d54)" d="M 336.194531 111.116914 
L 336.194531 20.877446 
L 354.801462 20.877446 
L 354.801462 111.116914 
z
" style="fill:#808080;opacity:0.15;stroke:#808080;stroke-linejoin:miter;"/>
   </g>
   <g id="patch_9">
    <path clip-path="url(#p04ea4f5d54)" d="M 399.700795 111.116914 
L 399.700795 20.877446 
L 410.622254 20.877446 
L 410.622254 111.116914 
z
" style="fill:#808080;opacity:0.15;stroke:#808080;stroke-linejoin:miter;"/>
   </g>
   <g id="matplotlib.axis_3">
    <g id="xtick_9"/>
    <g id="xtick_10"/>
    <g id="xtick_11"/>
    <g id="xtick_12"/>
    <g id="xtick_13"/>
    <g id="xtick_14"/>
    <g id="xtick_15"/>
    <g id="xtick_16"/>
   </g>
   <g id="matplotlib.axis_4">
    <g id="ytick_4">
     <g id="line2d_8">
      <path clip-path="url(#p04ea4f5d54)" d="M 237.901395 108.002523 
L 422.757209 108.002523 
" style="fill:none;stroke:#b0b0b0;stroke-linecap:square;stroke-width:0.8;"/>
     </g>
    </g>
    <g id="ytick_5">
     <g id="line2d_9">
      <path clip-path="url(#p04ea4f5d54)" d="M 237.901395 76.858617 
L 422.757209 76.858617 
" style="fill:none;stroke:#b0b0b0;stroke-linecap:square;stroke-width:0.8;"/>
     </g>
    </g>
    <g id="ytick_6">
     <g id="line2d_10">
      <path clip-path="url(#p04ea4f5d54)" d="M 237.901395 45.714711 
L 422.757209 45.714711 
" style="fill:none;stroke:#b0b0b0;stroke-linecap:square;stroke-width:0.8;"/>
     </g>
    </g>
   </g>
   <g id="line2d_11">
    <path clip-path="url(#p04ea4f5d54)" d="M 359.655443 108.002523 
L 383.520855 107.904871 
L 387.56584 107.875575 
L 402.936783 107.771913 
L 404.554777 107.740364 
L 404.554777 107.740364 
" style="fill:none;stroke:#b22222;stroke-linecap:square;"/>
   </g>
   <g id="line2d_12">
    <path clip-path="url(#p04ea4f5d54)" d="M 359.655443 108.002523 
L 372.599395 107.892094 
L 375.026386 107.57012 
L 375.835383 107.056559 
L 377.857876 106.801774 
L 380.284867 106.489113 
L 383.925353 106.146517 
L 384.73435 106.052054 
L 392.015323 105.873771 
L 398.082801 105.491926 
L 399.296296 105.382162 
L 400.105293 105.281047 
L 402.532284 104.73888 
L 404.554777 104.302486 
L 404.554777 104.302486 
" style="fill:none;stroke:#000000;stroke-linecap:square;stroke-width:1.5;"/>
   </g>
   <g id="line2d_13">
    <path clip-path="url(#p04ea4f5d54)" d="M 359.655443 108.002523 
L 371.790398 107.967333 
L 373.408392 107.579263 
L 374.217389 107.458052 
L 374.621888 107.324134 
L 375.026386 106.863729 
L 375.430885 105.897954 
L 375.835383 105.277238 
L 377.048879 104.843226 
L 378.666873 103.555851 
L 379.47587 103.371103 
L 380.689365 101.727916 
L 381.498362 100.529495 
L 382.307359 100.200075 
L 383.520855 98.647797 
L 384.329852 97.485543 
L 385.543347 96.970398 
L 386.756843 96.182529 
L 387.161341 96.006578 
L 387.970338 95.955747 
L 389.183834 95.269539 
L 389.992831 94.992905 
L 391.206326 94.745596 
L 392.82432 93.976299 
L 393.633317 93.953816 
L 394.442314 93.086769 
L 395.65581 91.924515 
L 396.464807 91.707509 
L 398.891798 87.417238 
L 399.296296 87.288208 
L 399.700795 87.28332 
L 400.91429 82.704685 
L 401.318789 81.435883 
L 401.723287 80.719372 
L 402.127786 80.568836 
L 403.341281 76.687162 
L 403.74578 75.28151 
L 404.150278 74.437923 
L 404.554777 74.098728 
L 404.554777 74.098728 
" style="fill:none;stroke:#ffd700;stroke-linecap:square;stroke-width:3;"/>
   </g>
   <g id="line2d_14">
    <path clip-path="url(#p04ea4f5d54)" d="M 361.677936 111.116914 
L 361.677936 20.877446 
" style="fill:none;stroke:#000000;stroke-dasharray:1.85,0.8;stroke-dashoffset:0;stroke-width:0.5;"/>
   </g>
   <g id="text_5">
    <!-- 27 -->
    <g style="fill:#4169e1;" transform="translate(247.144186 44.132275)scale(0.26 -0.26)">
     <defs>
      <path d="M 28.8125 13.8125 
L 60.890625 13.8125 
L 60.890625 0 
L 7.90625 0 
L 7.90625 13.8125 
L 34.515625 37.3125 
Q 38.09375 40.53125 39.796875 43.609375 
Q 41.5 46.6875 41.5 50 
Q 41.5 55.125 38.0625 58.25 
Q 34.625 61.375 28.90625 61.375 
Q 24.515625 61.375 19.28125 59.5 
Q 14.0625 57.625 8.109375 53.90625 
L 8.109375 69.921875 
Q 14.453125 72.015625 20.65625 73.109375 
Q 26.859375 74.21875 32.8125 74.21875 
Q 45.90625 74.21875 53.15625 68.453125 
Q 60.40625 62.703125 60.40625 52.390625 
Q 60.40625 46.4375 57.328125 41.28125 
Q 54.25 36.140625 44.390625 27.484375 
z
" id="DejaVuSans-Bold-50"/>
      <path d="M 6.6875 72.90625 
L 61.625 72.90625 
L 61.625 62.3125 
L 33.203125 0 
L 14.890625 0 
L 41.796875 59.078125 
L 6.6875 59.078125 
z
" id="DejaVuSans-Bold-55"/>
     </defs>
     <use xlink:href="#DejaVuSans-Bold-50"/>
     <use x="69.580078" xlink:href="#DejaVuSans-Bold-55"/>
    </g>
   </g>
  </g>
  <g id="axes_3">
   <g id="patch_10">
    <path d="M 34.56 210.855273 
L 219.415814 210.855273 
L 219.415814 115.866359 
L 34.56 115.866359 
z
" style="fill:none;opacity:0;"/>
   </g>
   <g id="patch_11">
    <path clip-path="url(#p1bd3a5fd95)" d="M 41.031976 210.855273 
L 41.031976 120.615805 
L 62.874895 120.615805 
L 62.874895 210.855273 
z
" style="fill:#808080;opacity:0.15;stroke:#808080;stroke-linejoin:miter;"/>
   </g>
   <g id="patch_12">
    <path clip-path="url(#p1bd3a5fd95)" d="M 132.853135 210.855273 
L 132.853135 120.615805 
L 151.460066 120.615805 
L 151.460066 210.855273 
z
" style="fill:#808080;opacity:0.15;stroke:#808080;stroke-linejoin:miter;"/>
   </g>
   <g id="patch_13">
    <path clip-path="url(#p1bd3a5fd95)" d="M 196.3594 210.855273 
L 196.3594 120.615805 
L 207.280859 120.615805 
L 207.280859 210.855273 
z
" style="fill:#808080;opacity:0.15;stroke:#808080;stroke-linejoin:miter;"/>
   </g>
   <g id="matplotlib.axis_5">
    <g id="xtick_17"/>
    <g id="xtick_18"/>
    <g id="xtick_19"/>
    <g id="xtick_20"/>
    <g id="xtick_21"/>
    <g id="xtick_22"/>
    <g id="xtick_23"/>
    <g id="xtick_24"/>
   </g>
   <g id="matplotlib.axis_6">
    <g id="ytick_7">
     <g id="line2d_15">
      <path clip-path="url(#p1bd3a5fd95)" d="M 34.56 207.740882 
L 219.415814 207.740882 
" style="fill:none;stroke:#b0b0b0;stroke-linecap:square;stroke-width:0.8;"/>
     </g>
     <g id="text_6">
      <!-- 0 -->
      <g transform="translate(21.83375 211.160179)scale(0.09 -0.09)">
       <use xlink:href="#DejaVuSans-48"/>
      </g>
     </g>
    </g>
    <g id="ytick_8">
     <g id="line2d_16">
      <path clip-path="url(#p1bd3a5fd95)" d="M 34.56 176.596976 
L 219.415814 176.596976 
" style="fill:none;stroke:#b0b0b0;stroke-linecap:square;stroke-width:0.8;"/>
     </g>
     <g id="text_7">
      <!-- 20 -->
      <g transform="translate(16.1075 180.016273)scale(0.09 -0.09)">
       <use xlink:href="#DejaVuSans-50"/>
       <use x="63.623047" xlink:href="#DejaVuSans-48"/>
      </g>
     </g>
    </g>
    <g id="ytick_9">
     <g id="line2d_17">
      <path clip-path="url(#p1bd3a5fd95)" d="M 34.56 145.45307 
L 219.415814 145.45307 
" style="fill:none;stroke:#b0b0b0;stroke-linecap:square;stroke-width:0.8;"/>
     </g>
     <g id="text_8">
      <!-- 40 -->
      <g transform="translate(16.1075 148.872367)scale(0.09 -0.09)">
       <use xlink:href="#DejaVuSans-52"/>
       <use x="63.623047" xlink:href="#DejaVuSans-48"/>
      </g>
     </g>
    </g>
   </g>
   <g id="line2d_18">
    <path clip-path="url(#p1bd3a5fd95)" d="M 156.314048 207.740882 
L 174.516481 207.662561 
L 176.943472 207.492344 
L 181.392955 207.420289 
L 190.291922 207.309596 
L 201.213382 207.150865 
L 201.213382 207.150865 
" style="fill:none;stroke:#b22222;stroke-linecap:square;"/>
   </g>
   <g id="line2d_19">
    <path clip-path="url(#p1bd3a5fd95)" d="M 156.314048 207.740882 
L 168.853502 207.683613 
L 170.066997 207.377307 
L 170.875994 207.285328 
L 172.898487 206.641479 
L 173.302985 206.641479 
L 174.111982 206.193735 
L 174.516481 205.974202 
L 174.920979 205.562902 
L 175.729976 205.265273 
L 176.134475 205.089126 
L 176.943472 204.284748 
L 178.156967 203.838739 
L 179.774961 203.646105 
L 181.797454 203.496857 
L 185.033442 203.163652 
L 185.43794 203.006595 
L 188.673928 202.898997 
L 194.336907 202.641284 
L 195.954901 202.387909 
L 196.763898 202.29246 
L 198.786391 201.983551 
L 201.213382 201.530601 
L 201.213382 201.530601 
" style="fill:none;stroke:#000000;stroke-linecap:square;stroke-width:1.5;"/>
   </g>
   <g id="line2d_20">
    <path clip-path="url(#p1bd3a5fd95)" d="M 156.314048 207.740882 
L 168.853502 207.699573 
L 171.280493 207.126051 
L 171.684991 206.935837 
L 172.493988 206.376725 
L 173.302985 206.291225 
L 174.920979 205.038505 
L 175.729976 204.151803 
L 176.134475 203.559067 
L 176.538973 201.847146 
L 176.943472 200.886471 
L 178.156967 199.45987 
L 178.561466 199.273499 
L 178.965964 199.273499 
L 179.774961 198.238853 
L 180.988457 196.927533 
L 181.392955 196.784392 
L 181.797454 196.784392 
L 183.010949 195.532634 
L 183.819946 194.955269 
L 184.628943 194.850555 
L 185.43794 194.084898 
L 186.651436 193.431639 
L 187.864931 193.045448 
L 188.673928 192.46424 
L 189.887424 191.442083 
L 190.291922 191.441122 
L 191.100919 190.863757 
L 191.909916 190.02701 
L 192.718913 189.331482 
L 193.123412 189.313229 
L 193.932409 188.134482 
L 194.336907 187.651262 
L 195.550403 185.436908 
L 196.3594 185.295689 
L 197.572895 182.163891 
L 197.977394 181.074487 
L 198.381892 180.319397 
L 198.786391 180.185863 
L 200.404385 175.630346 
L 201.213382 173.735896 
L 201.213382 173.735896 
" style="fill:none;stroke:#ffd700;stroke-linecap:square;stroke-width:3;"/>
   </g>
   <g id="line2d_21">
    <path clip-path="url(#p1bd3a5fd95)" d="M 158.336541 210.855273 
L 158.336541 120.615805 
" style="fill:none;stroke:#000000;stroke-dasharray:1.85,0.8;stroke-dashoffset:0;stroke-width:0.5;"/>
   </g>
   <g id="text_9">
    <!-- 50 -->
    <g style="fill:#4169e1;" transform="translate(43.802791 143.870634)scale(0.26 -0.26)">
     <defs>
      <path d="M 10.59375 72.90625 
L 57.328125 72.90625 
L 57.328125 59.078125 
L 25.59375 59.078125 
L 25.59375 47.796875 
Q 27.734375 48.390625 29.90625 48.703125 
Q 32.078125 49.03125 34.421875 49.03125 
Q 47.75 49.03125 55.171875 42.359375 
Q 62.59375 35.6875 62.59375 23.78125 
Q 62.59375 11.96875 54.515625 5.265625 
Q 46.4375 -1.421875 32.078125 -1.421875 
Q 25.875 -1.421875 19.796875 -0.21875 
Q 13.71875 0.984375 7.71875 3.421875 
L 7.71875 18.21875 
Q 13.671875 14.796875 19.015625 13.078125 
Q 24.359375 11.375 29.109375 11.375 
Q 35.9375 11.375 39.859375 14.71875 
Q 43.796875 18.0625 43.796875 23.78125 
Q 43.796875 29.546875 39.859375 32.859375 
Q 35.9375 36.1875 29.109375 36.1875 
Q 25.046875 36.1875 20.453125 35.125 
Q 15.875 34.078125 10.59375 31.890625 
z
" id="DejaVuSans-Bold-53"/>
      <path d="M 46 36.53125 
Q 46 50.203125 43.4375 55.78125 
Q 40.875 61.375 34.8125 61.375 
Q 28.765625 61.375 26.171875 55.78125 
Q 23.578125 50.203125 23.578125 36.53125 
Q 23.578125 22.703125 26.171875 17.03125 
Q 28.765625 11.375 34.8125 11.375 
Q 40.828125 11.375 43.40625 17.03125 
Q 46 22.703125 46 36.53125 
z
M 64.796875 36.375 
Q 64.796875 18.265625 56.984375 8.421875 
Q 49.171875 -1.421875 34.8125 -1.421875 
Q 20.40625 -1.421875 12.59375 8.421875 
Q 4.78125 18.265625 4.78125 36.375 
Q 4.78125 54.546875 12.59375 64.375 
Q 20.40625 74.21875 34.8125 74.21875 
Q 49.171875 74.21875 56.984375 64.375 
Q 64.796875 54.546875 64.796875 36.375 
z
" id="DejaVuSans-Bold-48"/>
     </defs>
     <use xlink:href="#DejaVuSans-Bold-53"/>
     <use x="69.580078" xlink:href="#DejaVuSans-Bold-48"/>
    </g>
   </g>
  </g>
  <g id="axes_4">
   <g id="patch_14">
    <path d="M 237.901395 210.855273 
L 422.757209 210.855273 
L 422.757209 115.866359 
L 237.901395 115.866359 
z
" style="fill:none;opacity:0;"/>
   </g>
   <g id="patch_15">
    <path clip-path="url(#p7c224b93bd)" d="M 244.373371 210.855273 
L 244.373371 120.615805 
L 266.21629 120.615805 
L 266.21629 210.855273 
z
" style="fill:#808080;opacity:0.15;stroke:#808080;stroke-linejoin:miter;"/>
   </g>
   <g id="patch_16">
    <path clip-path="url(#p7c224b93bd)" d="M 336.194531 210.855273 
L 336.194531 120.615805 
L 354.801462 120.615805 
L 354.801462 210.855273 
z
" style="fill:#808080;opacity:0.15;stroke:#808080;stroke-linejoin:miter;"/>
   </g>
   <g id="patch_17">
    <path clip-path="url(#p7c224b93bd)" d="M 399.700795 210.855273 
L 399.700795 120.615805 
L 410.622254 120.615805 
L 410.622254 210.855273 
z
" style="fill:#808080;opacity:0.15;stroke:#808080;stroke-linejoin:miter;"/>
   </g>
   <g id="matplotlib.axis_7">
    <g id="xtick_25"/>
    <g id="xtick_26"/>
    <g id="xtick_27"/>
    <g id="xtick_28"/>
    <g id="xtick_29"/>
    <g id="xtick_30"/>
    <g id="xtick_31"/>
    <g id="xtick_32"/>
   </g>
   <g id="matplotlib.axis_8">
    <g id="ytick_10">
     <g id="line2d_22">
      <path clip-path="url(#p7c224b93bd)" d="M 237.901395 207.740882 
L 422.757209 207.740882 
" style="fill:none;stroke:#b0b0b0;stroke-linecap:square;stroke-width:0.8;"/>
     </g>
    </g>
    <g id="ytick_11">
     <g id="line2d_23">
      <path clip-path="url(#p7c224b93bd)" d="M 237.901395 176.596976 
L 422.757209 176.596976 
" style="fill:none;stroke:#b0b0b0;stroke-linecap:square;stroke-width:0.8;"/>
     </g>
    </g>
    <g id="ytick_12">
     <g id="line2d_24">
      <path clip-path="url(#p7c224b93bd)" d="M 237.901395 145.45307 
L 422.757209 145.45307 
" style="fill:none;stroke:#b0b0b0;stroke-linecap:square;stroke-width:0.8;"/>
     </g>
    </g>
   </g>
   <g id="line2d_25">
    <path clip-path="url(#p7c224b93bd)" d="M 359.655443 207.740882 
L 377.453377 207.642359 
L 382.307359 207.579304 
L 402.127786 207.375032 
L 404.554777 207.319202 
L 404.554777 207.319202 
" style="fill:none;stroke:#b22222;stroke-linecap:square;"/>
   </g>
   <g id="line2d_26">
    <path clip-path="url(#p7c224b93bd)" d="M 359.655443 207.740882 
L 372.599395 207.654686 
L 373.408392 207.5728 
L 374.217389 207.499533 
L 375.026386 207.247101 
L 375.835383 206.54645 
L 377.048879 206.27801 
L 377.857876 205.719582 
L 378.666873 205.175315 
L 379.880368 205.035554 
L 381.498362 204.758495 
L 383.520855 204.627353 
L 384.329852 204.353988 
L 386.756843 204.129263 
L 387.56584 204.037525 
L 391.206326 203.882372 
L 396.464807 203.725988 
L 399.700795 203.512345 
L 404.554777 202.846787 
L 404.554777 202.846787 
" style="fill:none;stroke:#000000;stroke-linecap:square;stroke-width:1.5;"/>
   </g>
   <g id="line2d_27">
    <path clip-path="url(#p7c224b93bd)" d="M 359.655443 207.740882 
L 371.790398 207.722331 
L 373.003894 207.495847 
L 374.217389 207.383764 
L 375.026386 206.917656 
L 375.430885 205.541749 
L 375.835383 204.866162 
L 376.64438 204.713885 
L 377.453377 204.042937 
L 378.666873 201.883225 
L 379.47587 201.731721 
L 381.498362 198.775838 
L 381.902861 198.588776 
L 382.307359 198.551673 
L 384.329852 195.099536 
L 384.73435 194.920204 
L 385.138849 194.886965 
L 386.352344 193.116837 
L 387.161341 192.081041 
L 387.970338 191.920261 
L 388.779335 190.9092 
L 389.588332 190.208879 
L 389.992831 189.86181 
L 390.801828 189.724992 
L 391.206326 189.6933 
L 392.419822 189.357826 
L 392.82432 189.226419 
L 393.633317 189.221008 
L 394.442314 188.82756 
L 395.251311 188.543876 
L 396.060308 188.148882 
L 396.464807 188.148882 
L 397.273804 187.495712 
L 397.678302 186.908246 
L 398.082801 185.762687 
L 398.891798 184.018839 
L 399.296296 183.656311 
L 399.700795 183.449152 
L 401.318789 180.720525 
L 401.723287 180.440706 
L 402.127786 180.361089 
L 402.936783 178.396169 
L 403.74578 176.722663 
L 404.554777 174.569908 
L 404.554777 174.569908 
" style="fill:none;stroke:#ffd700;stroke-linecap:square;stroke-width:3;"/>
   </g>
   <g id="line2d_28">
    <path clip-path="url(#p7c224b93bd)" d="M 361.677936 210.855273 
L 361.677936 120.615805 
" style="fill:none;stroke:#000000;stroke-dasharray:1.85,0.8;stroke-dashoffset:0;stroke-width:0.5;"/>
   </g>
   <g id="text_10">
    <!-- 14 -->
    <g style="fill:#4169e1;" transform="translate(247.144186 143.870634)scale(0.26 -0.26)">
     <defs>
      <path d="M 36.8125 57.421875 
L 16.21875 26.90625 
L 36.8125 26.90625 
z
M 33.6875 72.90625 
L 54.59375 72.90625 
L 54.59375 26.90625 
L 64.984375 26.90625 
L 64.984375 13.28125 
L 54.59375 13.28125 
L 54.59375 0 
L 36.8125 0 
L 36.8125 13.28125 
L 4.5 13.28125 
L 4.5 29.390625 
z
" id="DejaVuSans-Bold-52"/>
     </defs>
     <use xlink:href="#DejaVuSans-Bold-49"/>
     <use x="69.580078" xlink:href="#DejaVuSans-Bold-52"/>
    </g>
   </g>
  </g>
  <g id="axes_5">
   <g id="patch_18">
    <path d="M 441.242791 210.855273 
L 626.098605 210.855273 
L 626.098605 115.866359 
L 441.242791 115.866359 
z
" style="fill:none;opacity:0;"/>
   </g>
   <g id="patch_19">
    <path clip-path="url(#p8ee9456e9f)" d="M 447.714767 210.855273 
L 447.714767 120.615805 
L 469.557686 120.615805 
L 469.557686 210.855273 
z
" style="fill:#808080;opacity:0.15;stroke:#808080;stroke-linejoin:miter;"/>
   </g>
   <g id="patch_20">
    <path clip-path="url(#p8ee9456e9f)" d="M 539.535926 210.855273 
L 539.535926 120.615805 
L 558.142857 120.615805 
L 558.142857 210.855273 
z
" style="fill:#808080;opacity:0.15;stroke:#808080;stroke-linejoin:miter;"/>
   </g>
   <g id="patch_21">
    <path clip-path="url(#p8ee9456e9f)" d="M 603.04219 210.855273 
L 603.04219 120.615805 
L 613.96365 120.615805 
L 613.96365 210.855273 
z
" style="fill:#808080;opacity:0.15;stroke:#808080;stroke-linejoin:miter;"/>
   </g>
   <g id="matplotlib.axis_9">
    <g id="xtick_33"/>
    <g id="xtick_34"/>
    <g id="xtick_35"/>
    <g id="xtick_36"/>
    <g id="xtick_37"/>
    <g id="xtick_38"/>
    <g id="xtick_39"/>
    <g id="xtick_40"/>
   </g>
   <g id="matplotlib.axis_10">
    <g id="ytick_13">
     <g id="line2d_29">
      <path clip-path="url(#p8ee9456e9f)" d="M 441.242791 207.740882 
L 626.098605 207.740882 
" style="fill:none;stroke:#b0b0b0;stroke-linecap:square;stroke-width:0.8;"/>
     </g>
    </g>
    <g id="ytick_14">
     <g id="line2d_30">
      <path clip-path="url(#p8ee9456e9f)" d="M 441.242791 176.596976 
L 626.098605 176.596976 
" style="fill:none;stroke:#b0b0b0;stroke-linecap:square;stroke-width:0.8;"/>
     </g>
    </g>
    <g id="ytick_15">
     <g id="line2d_31">
      <path clip-path="url(#p8ee9456e9f)" d="M 441.242791 145.45307 
L 626.098605 145.45307 
" style="fill:none;stroke:#b0b0b0;stroke-linecap:square;stroke-width:0.8;"/>
     </g>
    </g>
   </g>
   <g id="line2d_32">
    <path clip-path="url(#p8ee9456e9f)" d="M 562.996839 207.740882 
L 578.367782 207.657788 
L 584.435259 207.304464 
L 607.896172 207.104061 
L 607.896172 207.104061 
" style="fill:none;stroke:#b22222;stroke-linecap:square;"/>
   </g>
   <g id="line2d_33">
    <path clip-path="url(#p8ee9456e9f)" d="M 562.996839 207.740882 
L 574.727295 207.696825 
L 577.558785 207.082041 
L 578.367782 206.662656 
L 579.176779 206.116145 
L 579.985776 205.898213 
L 580.794773 205.037246 
L 582.008268 204.341747 
L 583.221764 204.189396 
L 584.839758 203.938169 
L 588.480244 203.786491 
L 589.289241 203.525174 
L 590.907235 203.456903 
L 595.761217 203.315314 
L 601.424196 203.082584 
L 602.233193 202.999178 
L 603.851187 202.906691 
L 607.896172 202.2159 
L 607.896172 202.2159 
" style="fill:none;stroke:#000000;stroke-linecap:square;stroke-width:1.5;"/>
   </g>
   <g id="line2d_34">
    <path clip-path="url(#p8ee9456e9f)" d="M 562.996839 207.740882 
L 575.131794 207.659011 
L 577.558785 207.28222 
L 579.581277 206.205806 
L 579.985776 205.453153 
L 580.390274 204.068328 
L 580.794773 203.240783 
L 581.60377 202.573257 
L 582.008268 202.268103 
L 582.817265 202.18065 
L 584.839758 199.570555 
L 585.244256 199.452401 
L 585.648755 199.452401 
L 587.266749 197.351672 
L 587.671247 196.923246 
L 588.480244 196.758574 
L 589.289241 195.260712 
L 590.098238 194.344783 
L 590.502737 194.066144 
L 591.311734 194.017766 
L 592.525229 192.629219 
L 593.334226 192.113341 
L 594.95222 191.903547 
L 596.570214 191.467678 
L 597.379211 191.372318 
L 598.592707 190.980641 
L 599.401704 190.681068 
L 599.806202 190.680603 
L 600.615199 189.996331 
L 601.019698 189.551159 
L 602.233193 187.283433 
L 602.637692 187.282502 
L 603.04219 187.113179 
L 604.660184 182.605171 
L 605.064683 182.057661 
L 605.469181 181.867405 
L 607.491674 175.843393 
L 607.896172 175.337283 
L 607.896172 175.337283 
" style="fill:none;stroke:#ffd700;stroke-linecap:square;stroke-width:3;"/>
   </g>
   <g id="line2d_35">
    <path clip-path="url(#p8ee9456e9f)" d="M 565.019331 210.855273 
L 565.019331 120.615805 
" style="fill:none;stroke:#000000;stroke-dasharray:1.85,0.8;stroke-dashoffset:0;stroke-width:0.5;"/>
   </g>
   <g id="text_11">
    <!-- 76 -->
    <g style="fill:#4169e1;" transform="translate(450.485581 143.870634)scale(0.26 -0.26)">
     <use xlink:href="#DejaVuSans-Bold-55"/>
     <use x="69.580078" xlink:href="#DejaVuSans-Bold-54"/>
    </g>
   </g>
  </g>
  <g id="axes_6">
   <g id="legend_1">
    <g id="patch_22">
     <path d="M 670.215218 137.83456 
L 803.808968 137.83456 
Q 806.208968 137.83456 806.208968 135.43456 
L 806.208968 39.30481 
Q 806.208968 36.90481 803.808968 36.90481 
L 670.215218 36.90481 
Q 667.815218 36.90481 667.815218 39.30481 
L 667.815218 135.43456 
Q 667.815218 137.83456 670.215218 137.83456 
z
" style="fill:#ffffff;opacity:0.8;stroke:#cccccc;stroke-linejoin:miter;"/>
    </g>
    <g id="text_12">
     <!-- Personnes vaccinées, -->
     <g transform="translate(672.615218 50.822935)scale(0.12 -0.12)">
      <defs>
       <path d="M 19.671875 64.796875 
L 19.671875 37.40625 
L 32.078125 37.40625 
Q 38.96875 37.40625 42.71875 40.96875 
Q 46.484375 44.53125 46.484375 51.125 
Q 46.484375 57.671875 42.71875 61.234375 
Q 38.96875 64.796875 32.078125 64.796875 
z
M 9.8125 72.90625 
L 32.078125 72.90625 
Q 44.34375 72.90625 50.609375 67.359375 
Q 56.890625 61.8125 56.890625 51.125 
Q 56.890625 40.328125 50.609375 34.8125 
Q 44.34375 29.296875 32.078125 29.296875 
L 19.671875 29.296875 
L 19.671875 0 
L 9.8125 0 
z
" id="DejaVuSans-80"/>
       <path d="M 56.203125 29.59375 
L 56.203125 25.203125 
L 14.890625 25.203125 
Q 15.484375 15.921875 20.484375 11.0625 
Q 25.484375 6.203125 34.421875 6.203125 
Q 39.59375 6.203125 44.453125 7.46875 
Q 49.3125 8.734375 54.109375 11.28125 
L 54.109375 2.78125 
Q 49.265625 0.734375 44.1875 -0.34375 
Q 39.109375 -1.421875 33.890625 -1.421875 
Q 20.796875 -1.421875 13.15625 6.1875 
Q 5.515625 13.8125 5.515625 26.8125 
Q 5.515625 40.234375 12.765625 48.109375 
Q 20.015625 56 32.328125 56 
Q 43.359375 56 49.78125 48.890625 
Q 56.203125 41.796875 56.203125 29.59375 
z
M 47.21875 32.234375 
Q 47.125 39.59375 43.09375 43.984375 
Q 39.0625 48.390625 32.421875 48.390625 
Q 24.90625 48.390625 20.390625 44.140625 
Q 15.875 39.890625 15.1875 32.171875 
z
" id="DejaVuSans-101"/>
       <path d="M 41.109375 46.296875 
Q 39.59375 47.171875 37.8125 47.578125 
Q 36.03125 48 33.890625 48 
Q 26.265625 48 22.1875 43.046875 
Q 18.109375 38.09375 18.109375 28.8125 
L 18.109375 0 
L 9.078125 0 
L 9.078125 54.6875 
L 18.109375 54.6875 
L 18.109375 46.1875 
Q 20.953125 51.171875 25.484375 53.578125 
Q 30.03125 56 36.53125 56 
Q 37.453125 56 38.578125 55.875 
Q 39.703125 55.765625 41.0625 55.515625 
z
" id="DejaVuSans-114"/>
       <path d="M 44.28125 53.078125 
L 44.28125 44.578125 
Q 40.484375 46.53125 36.375 47.5 
Q 32.28125 48.484375 27.875 48.484375 
Q 21.1875 48.484375 17.84375 46.4375 
Q 14.5 44.390625 14.5 40.28125 
Q 14.5 37.15625 16.890625 35.375 
Q 19.28125 33.59375 26.515625 31.984375 
L 29.59375 31.296875 
Q 39.15625 29.25 43.1875 25.515625 
Q 47.21875 21.78125 47.21875 15.09375 
Q 47.21875 7.46875 41.1875 3.015625 
Q 35.15625 -1.421875 24.609375 -1.421875 
Q 20.21875 -1.421875 15.453125 -0.5625 
Q 10.6875 0.296875 5.421875 2 
L 5.421875 11.28125 
Q 10.40625 8.6875 15.234375 7.390625 
Q 20.0625 6.109375 24.8125 6.109375 
Q 31.15625 6.109375 34.5625 8.28125 
Q 37.984375 10.453125 37.984375 14.40625 
Q 37.984375 18.0625 35.515625 20.015625 
Q 33.0625 21.96875 24.703125 23.78125 
L 21.578125 24.515625 
Q 13.234375 26.265625 9.515625 29.90625 
Q 5.8125 33.546875 5.8125 39.890625 
Q 5.8125 47.609375 11.28125 51.796875 
Q 16.75 56 26.8125 56 
Q 31.78125 56 36.171875 55.265625 
Q 40.578125 54.546875 44.28125 53.078125 
z
" id="DejaVuSans-115"/>
       <path d="M 30.609375 48.390625 
Q 23.390625 48.390625 19.1875 42.75 
Q 14.984375 37.109375 14.984375 27.296875 
Q 14.984375 17.484375 19.15625 11.84375 
Q 23.34375 6.203125 30.609375 6.203125 
Q 37.796875 6.203125 41.984375 11.859375 
Q 46.1875 17.53125 46.1875 27.296875 
Q 46.1875 37.015625 41.984375 42.703125 
Q 37.796875 48.390625 30.609375 48.390625 
z
M 30.609375 56 
Q 42.328125 56 49.015625 48.375 
Q 55.71875 40.765625 55.71875 27.296875 
Q 55.71875 13.875 49.015625 6.21875 
Q 42.328125 -1.421875 30.609375 -1.421875 
Q 18.84375 -1.421875 12.171875 6.21875 
Q 5.515625 13.875 5.515625 27.296875 
Q 5.515625 40.765625 12.171875 48.375 
Q 18.84375 56 30.609375 56 
z
" id="DejaVuSans-111"/>
       <path d="M 54.890625 33.015625 
L 54.890625 0 
L 45.90625 0 
L 45.90625 32.71875 
Q 45.90625 40.484375 42.875 44.328125 
Q 39.84375 48.1875 33.796875 48.1875 
Q 26.515625 48.1875 22.3125 43.546875 
Q 18.109375 38.921875 18.109375 30.90625 
L 18.109375 0 
L 9.078125 0 
L 9.078125 54.6875 
L 18.109375 54.6875 
L 18.109375 46.1875 
Q 21.34375 51.125 25.703125 53.5625 
Q 30.078125 56 35.796875 56 
Q 45.21875 56 50.046875 50.171875 
Q 54.890625 44.34375 54.890625 33.015625 
z
" id="DejaVuSans-110"/>
       <path id="DejaVuSans-32"/>
       <path d="M 2.984375 54.6875 
L 12.5 54.6875 
L 29.59375 8.796875 
L 46.6875 54.6875 
L 56.203125 54.6875 
L 35.6875 0 
L 23.484375 0 
z
" id="DejaVuSans-118"/>
       <path d="M 34.28125 27.484375 
Q 23.390625 27.484375 19.1875 25 
Q 14.984375 22.515625 14.984375 16.5 
Q 14.984375 11.71875 18.140625 8.90625 
Q 21.296875 6.109375 26.703125 6.109375 
Q 34.1875 6.109375 38.703125 11.40625 
Q 43.21875 16.703125 43.21875 25.484375 
L 43.21875 27.484375 
z
M 52.203125 31.203125 
L 52.203125 0 
L 43.21875 0 
L 43.21875 8.296875 
Q 40.140625 3.328125 35.546875 0.953125 
Q 30.953125 -1.421875 24.3125 -1.421875 
Q 15.921875 -1.421875 10.953125 3.296875 
Q 6 8.015625 6 15.921875 
Q 6 25.140625 12.171875 29.828125 
Q 18.359375 34.515625 30.609375 34.515625 
L 43.21875 34.515625 
L 43.21875 35.40625 
Q 43.21875 41.609375 39.140625 45 
Q 35.0625 48.390625 27.6875 48.390625 
Q 23 48.390625 18.546875 47.265625 
Q 14.109375 46.140625 10.015625 43.890625 
L 10.015625 52.203125 
Q 14.9375 54.109375 19.578125 55.046875 
Q 24.21875 56 28.609375 56 
Q 40.484375 56 46.34375 49.84375 
Q 52.203125 43.703125 52.203125 31.203125 
z
" id="DejaVuSans-97"/>
       <path d="M 48.78125 52.59375 
L 48.78125 44.1875 
Q 44.96875 46.296875 41.140625 47.34375 
Q 37.3125 48.390625 33.40625 48.390625 
Q 24.65625 48.390625 19.8125 42.84375 
Q 14.984375 37.3125 14.984375 27.296875 
Q 14.984375 17.28125 19.8125 11.734375 
Q 24.65625 6.203125 33.40625 6.203125 
Q 37.3125 6.203125 41.140625 7.25 
Q 44.96875 8.296875 48.78125 10.40625 
L 48.78125 2.09375 
Q 45.015625 0.34375 40.984375 -0.53125 
Q 36.96875 -1.421875 32.421875 -1.421875 
Q 20.0625 -1.421875 12.78125 6.34375 
Q 5.515625 14.109375 5.515625 27.296875 
Q 5.515625 40.671875 12.859375 48.328125 
Q 20.21875 56 33.015625 56 
Q 37.15625 56 41.109375 55.140625 
Q 45.0625 54.296875 48.78125 52.59375 
z
" id="DejaVuSans-99"/>
       <path d="M 9.421875 54.6875 
L 18.40625 54.6875 
L 18.40625 0 
L 9.421875 0 
z
M 9.421875 75.984375 
L 18.40625 75.984375 
L 18.40625 64.59375 
L 9.421875 64.59375 
z
" id="DejaVuSans-105"/>
       <path d="M 56.203125 29.59375 
L 56.203125 25.203125 
L 14.890625 25.203125 
Q 15.484375 15.921875 20.484375 11.0625 
Q 25.484375 6.203125 34.421875 6.203125 
Q 39.59375 6.203125 44.453125 7.46875 
Q 49.3125 8.734375 54.109375 11.28125 
L 54.109375 2.78125 
Q 49.265625 0.734375 44.1875 -0.34375 
Q 39.109375 -1.421875 33.890625 -1.421875 
Q 20.796875 -1.421875 13.15625 6.1875 
Q 5.515625 13.8125 5.515625 26.8125 
Q 5.515625 40.234375 12.765625 48.109375 
Q 20.015625 56 32.328125 56 
Q 43.359375 56 49.78125 48.890625 
Q 56.203125 41.796875 56.203125 29.59375 
z
M 47.21875 32.234375 
Q 47.125 39.59375 43.09375 43.984375 
Q 39.0625 48.390625 32.421875 48.390625 
Q 24.90625 48.390625 20.390625 44.140625 
Q 15.875 39.890625 15.1875 32.171875 
z
M 38.53125 79.984375 
L 48.25 79.984375 
L 32.34375 61.625 
L 24.859375 61.625 
z
" id="DejaVuSans-233"/>
       <path d="M 11.71875 12.40625 
L 22.015625 12.40625 
L 22.015625 4 
L 14.015625 -11.625 
L 7.71875 -11.625 
L 11.71875 4 
z
" id="DejaVuSans-44"/>
      </defs>
      <use xlink:href="#DejaVuSans-80"/>
      <use x="56.677734" xlink:href="#DejaVuSans-101"/>
      <use x="118.201172" xlink:href="#DejaVuSans-114"/>
      <use x="159.314453" xlink:href="#DejaVuSans-115"/>
      <use x="211.414062" xlink:href="#DejaVuSans-111"/>
      <use x="272.595703" xlink:href="#DejaVuSans-110"/>
      <use x="335.974609" xlink:href="#DejaVuSans-110"/>
      <use x="399.353516" xlink:href="#DejaVuSans-101"/>
      <use x="460.876953" xlink:href="#DejaVuSans-115"/>
      <use x="512.976562" xlink:href="#DejaVuSans-32"/>
      <use x="544.763672" xlink:href="#DejaVuSans-118"/>
      <use x="603.943359" xlink:href="#DejaVuSans-97"/>
      <use x="665.222656" xlink:href="#DejaVuSans-99"/>
      <use x="720.203125" xlink:href="#DejaVuSans-99"/>
      <use x="775.183594" xlink:href="#DejaVuSans-105"/>
      <use x="802.966797" xlink:href="#DejaVuSans-110"/>
      <use x="866.345703" xlink:href="#DejaVuSans-233"/>
      <use x="927.869141" xlink:href="#DejaVuSans-101"/>
      <use x="989.392578" xlink:href="#DejaVuSans-115"/>
      <use x="1041.492188" xlink:href="#DejaVuSans-44"/>
     </g>
     <!-- pour 100 habitants -->
     <g transform="translate(672.615218 64.26031)scale(0.12 -0.12)">
      <defs>
       <path d="M 18.109375 8.203125 
L 18.109375 -20.796875 
L 9.078125 -20.796875 
L 9.078125 54.6875 
L 18.109375 54.6875 
L 18.109375 46.390625 
Q 20.953125 51.265625 25.265625 53.625 
Q 29.59375 56 35.59375 56 
Q 45.5625 56 51.78125 48.09375 
Q 58.015625 40.1875 58.015625 27.296875 
Q 58.015625 14.40625 51.78125 6.484375 
Q 45.5625 -1.421875 35.59375 -1.421875 
Q 29.59375 -1.421875 25.265625 0.953125 
Q 20.953125 3.328125 18.109375 8.203125 
z
M 48.6875 27.296875 
Q 48.6875 37.203125 44.609375 42.84375 
Q 40.53125 48.484375 33.40625 48.484375 
Q 26.265625 48.484375 22.1875 42.84375 
Q 18.109375 37.203125 18.109375 27.296875 
Q 18.109375 17.390625 22.1875 11.75 
Q 26.265625 6.109375 33.40625 6.109375 
Q 40.53125 6.109375 44.609375 11.75 
Q 48.6875 17.390625 48.6875 27.296875 
z
" id="DejaVuSans-112"/>
       <path d="M 8.5 21.578125 
L 8.5 54.6875 
L 17.484375 54.6875 
L 17.484375 21.921875 
Q 17.484375 14.15625 20.5 10.265625 
Q 23.53125 6.390625 29.59375 6.390625 
Q 36.859375 6.390625 41.078125 11.03125 
Q 45.3125 15.671875 45.3125 23.6875 
L 45.3125 54.6875 
L 54.296875 54.6875 
L 54.296875 0 
L 45.3125 0 
L 45.3125 8.40625 
Q 42.046875 3.421875 37.71875 1 
Q 33.40625 -1.421875 27.6875 -1.421875 
Q 18.265625 -1.421875 13.375 4.4375 
Q 8.5 10.296875 8.5 21.578125 
z
M 31.109375 56 
z
" id="DejaVuSans-117"/>
       <path d="M 12.40625 8.296875 
L 28.515625 8.296875 
L 28.515625 63.921875 
L 10.984375 60.40625 
L 10.984375 69.390625 
L 28.421875 72.90625 
L 38.28125 72.90625 
L 38.28125 8.296875 
L 54.390625 8.296875 
L 54.390625 0 
L 12.40625 0 
z
" id="DejaVuSans-49"/>
       <path d="M 54.890625 33.015625 
L 54.890625 0 
L 45.90625 0 
L 45.90625 32.71875 
Q 45.90625 40.484375 42.875 44.328125 
Q 39.84375 48.1875 33.796875 48.1875 
Q 26.515625 48.1875 22.3125 43.546875 
Q 18.109375 38.921875 18.109375 30.90625 
L 18.109375 0 
L 9.078125 0 
L 9.078125 75.984375 
L 18.109375 75.984375 
L 18.109375 46.1875 
Q 21.34375 51.125 25.703125 53.5625 
Q 30.078125 56 35.796875 56 
Q 45.21875 56 50.046875 50.171875 
Q 54.890625 44.34375 54.890625 33.015625 
z
" id="DejaVuSans-104"/>
       <path d="M 48.6875 27.296875 
Q 48.6875 37.203125 44.609375 42.84375 
Q 40.53125 48.484375 33.40625 48.484375 
Q 26.265625 48.484375 22.1875 42.84375 
Q 18.109375 37.203125 18.109375 27.296875 
Q 18.109375 17.390625 22.1875 11.75 
Q 26.265625 6.109375 33.40625 6.109375 
Q 40.53125 6.109375 44.609375 11.75 
Q 48.6875 17.390625 48.6875 27.296875 
z
M 18.109375 46.390625 
Q 20.953125 51.265625 25.265625 53.625 
Q 29.59375 56 35.59375 56 
Q 45.5625 56 51.78125 48.09375 
Q 58.015625 40.1875 58.015625 27.296875 
Q 58.015625 14.40625 51.78125 6.484375 
Q 45.5625 -1.421875 35.59375 -1.421875 
Q 29.59375 -1.421875 25.265625 0.953125 
Q 20.953125 3.328125 18.109375 8.203125 
L 18.109375 0 
L 9.078125 0 
L 9.078125 75.984375 
L 18.109375 75.984375 
z
" id="DejaVuSans-98"/>
       <path d="M 18.3125 70.21875 
L 18.3125 54.6875 
L 36.8125 54.6875 
L 36.8125 47.703125 
L 18.3125 47.703125 
L 18.3125 18.015625 
Q 18.3125 11.328125 20.140625 9.421875 
Q 21.96875 7.515625 27.59375 7.515625 
L 36.8125 7.515625 
L 36.8125 0 
L 27.59375 0 
Q 17.1875 0 13.234375 3.875 
Q 9.28125 7.765625 9.28125 18.015625 
L 9.28125 47.703125 
L 2.6875 47.703125 
L 2.6875 54.6875 
L 9.28125 54.6875 
L 9.28125 70.21875 
z
" id="DejaVuSans-116"/>
      </defs>
      <use xlink:href="#DejaVuSans-112"/>
      <use x="63.476562" xlink:href="#DejaVuSans-111"/>
      <use x="124.658203" xlink:href="#DejaVuSans-117"/>
      <use x="188.037109" xlink:href="#DejaVuSans-114"/>
      <use x="229.150391" xlink:href="#DejaVuSans-32"/>
      <use x="260.9375" xlink:href="#DejaVuSans-49"/>
      <use x="324.560547" xlink:href="#DejaVuSans-48"/>
      <use x="388.183594" xlink:href="#DejaVuSans-48"/>
      <use x="451.806641" xlink:href="#DejaVuSans-32"/>
      <use x="483.59375" xlink:href="#DejaVuSans-104"/>
      <use x="546.972656" xlink:href="#DejaVuSans-97"/>
      <use x="608.251953" xlink:href="#DejaVuSans-98"/>
      <use x="671.728516" xlink:href="#DejaVuSans-105"/>
      <use x="699.511719" xlink:href="#DejaVuSans-116"/>
      <use x="738.720703" xlink:href="#DejaVuSans-97"/>
      <use x="800" xlink:href="#DejaVuSans-110"/>
      <use x="863.378906" xlink:href="#DejaVuSans-116"/>
      <use x="902.587891" xlink:href="#DejaVuSans-115"/>
     </g>
     <!-- (deux injections) -->
     <g transform="translate(672.615218 77.697685)scale(0.12 -0.12)">
      <defs>
       <path d="M 31 75.875 
Q 24.46875 64.65625 21.28125 53.65625 
Q 18.109375 42.671875 18.109375 31.390625 
Q 18.109375 20.125 21.3125 9.0625 
Q 24.515625 -2 31 -13.1875 
L 23.1875 -13.1875 
Q 15.875 -1.703125 12.234375 9.375 
Q 8.59375 20.453125 8.59375 31.390625 
Q 8.59375 42.28125 12.203125 53.3125 
Q 15.828125 64.359375 23.1875 75.875 
z
" id="DejaVuSans-40"/>
       <path d="M 45.40625 46.390625 
L 45.40625 75.984375 
L 54.390625 75.984375 
L 54.390625 0 
L 45.40625 0 
L 45.40625 8.203125 
Q 42.578125 3.328125 38.25 0.953125 
Q 33.9375 -1.421875 27.875 -1.421875 
Q 17.96875 -1.421875 11.734375 6.484375 
Q 5.515625 14.40625 5.515625 27.296875 
Q 5.515625 40.1875 11.734375 48.09375 
Q 17.96875 56 27.875 56 
Q 33.9375 56 38.25 53.625 
Q 42.578125 51.265625 45.40625 46.390625 
z
M 14.796875 27.296875 
Q 14.796875 17.390625 18.875 11.75 
Q 22.953125 6.109375 30.078125 6.109375 
Q 37.203125 6.109375 41.296875 11.75 
Q 45.40625 17.390625 45.40625 27.296875 
Q 45.40625 37.203125 41.296875 42.84375 
Q 37.203125 48.484375 30.078125 48.484375 
Q 22.953125 48.484375 18.875 42.84375 
Q 14.796875 37.203125 14.796875 27.296875 
z
" id="DejaVuSans-100"/>
       <path d="M 54.890625 54.6875 
L 35.109375 28.078125 
L 55.90625 0 
L 45.3125 0 
L 29.390625 21.484375 
L 13.484375 0 
L 2.875 0 
L 24.125 28.609375 
L 4.6875 54.6875 
L 15.28125 54.6875 
L 29.78125 35.203125 
L 44.28125 54.6875 
z
" id="DejaVuSans-120"/>
       <path d="M 9.421875 54.6875 
L 18.40625 54.6875 
L 18.40625 -0.984375 
Q 18.40625 -11.421875 14.421875 -16.109375 
Q 10.453125 -20.796875 1.609375 -20.796875 
L -1.8125 -20.796875 
L -1.8125 -13.1875 
L 0.59375 -13.1875 
Q 5.71875 -13.1875 7.5625 -10.8125 
Q 9.421875 -8.453125 9.421875 -0.984375 
z
M 9.421875 75.984375 
L 18.40625 75.984375 
L 18.40625 64.59375 
L 9.421875 64.59375 
z
" id="DejaVuSans-106"/>
       <path d="M 8.015625 75.875 
L 15.828125 75.875 
Q 23.140625 64.359375 26.78125 53.3125 
Q 30.421875 42.28125 30.421875 31.390625 
Q 30.421875 20.453125 26.78125 9.375 
Q 23.140625 -1.703125 15.828125 -13.1875 
L 8.015625 -13.1875 
Q 14.5 -2 17.703125 9.0625 
Q 20.90625 20.125 20.90625 31.390625 
Q 20.90625 42.671875 17.703125 53.65625 
Q 14.5 64.65625 8.015625 75.875 
z
" id="DejaVuSans-41"/>
      </defs>
      <use xlink:href="#DejaVuSans-40"/>
      <use x="39.013672" xlink:href="#DejaVuSans-100"/>
      <use x="102.490234" xlink:href="#DejaVuSans-101"/>
      <use x="164.013672" xlink:href="#DejaVuSans-117"/>
      <use x="227.392578" xlink:href="#DejaVuSans-120"/>
      <use x="286.572266" xlink:href="#DejaVuSans-32"/>
      <use x="318.359375" xlink:href="#DejaVuSans-105"/>
      <use x="346.142578" xlink:href="#DejaVuSans-110"/>
      <use x="409.521484" xlink:href="#DejaVuSans-106"/>
      <use x="437.304688" xlink:href="#DejaVuSans-101"/>
      <use x="498.828125" xlink:href="#DejaVuSans-99"/>
      <use x="553.808594" xlink:href="#DejaVuSans-116"/>
      <use x="593.017578" xlink:href="#DejaVuSans-105"/>
      <use x="620.800781" xlink:href="#DejaVuSans-111"/>
      <use x="681.982422" xlink:href="#DejaVuSans-110"/>
      <use x="745.361328" xlink:href="#DejaVuSans-115"/>
      <use x="797.460938" xlink:href="#DejaVuSans-41"/>
     </g>
    </g>
    <g id="line2d_36">
     <path d="M 686.979593 91.111435 
L 710.979593 91.111435 
" style="fill:none;stroke:#b22222;stroke-linecap:square;"/>
    </g>
    <g id="line2d_37"/>
    <g id="text_13">
     <!-- 0-29 ans -->
     <g transform="translate(716.979593 95.311435)scale(0.12 -0.12)">
      <defs>
       <path d="M 4.890625 31.390625 
L 31.203125 31.390625 
L 31.203125 23.390625 
L 4.890625 23.390625 
z
" id="DejaVuSans-45"/>
       <path d="M 10.984375 1.515625 
L 10.984375 10.5 
Q 14.703125 8.734375 18.5 7.8125 
Q 22.3125 6.890625 25.984375 6.890625 
Q 35.75 6.890625 40.890625 13.453125 
Q 46.046875 20.015625 46.78125 33.40625 
Q 43.953125 29.203125 39.59375 26.953125 
Q 35.25 24.703125 29.984375 24.703125 
Q 19.046875 24.703125 12.671875 31.3125 
Q 6.296875 37.9375 6.296875 49.421875 
Q 6.296875 60.640625 12.9375 67.421875 
Q 19.578125 74.21875 30.609375 74.21875 
Q 43.265625 74.21875 49.921875 64.515625 
Q 56.59375 54.828125 56.59375 36.375 
Q 56.59375 19.140625 48.40625 8.859375 
Q 40.234375 -1.421875 26.421875 -1.421875 
Q 22.703125 -1.421875 18.890625 -0.6875 
Q 15.09375 0.046875 10.984375 1.515625 
z
M 30.609375 32.421875 
Q 37.25 32.421875 41.125 36.953125 
Q 45.015625 41.5 45.015625 49.421875 
Q 45.015625 57.28125 41.125 61.84375 
Q 37.25 66.40625 30.609375 66.40625 
Q 23.96875 66.40625 20.09375 61.84375 
Q 16.21875 57.28125 16.21875 49.421875 
Q 16.21875 41.5 20.09375 36.953125 
Q 23.96875 32.421875 30.609375 32.421875 
z
" id="DejaVuSans-57"/>
      </defs>
      <use xlink:href="#DejaVuSans-48"/>
      <use x="63.623047" xlink:href="#DejaVuSans-45"/>
      <use x="99.707031" xlink:href="#DejaVuSans-50"/>
      <use x="163.330078" xlink:href="#DejaVuSans-57"/>
      <use x="226.953125" xlink:href="#DejaVuSans-32"/>
      <use x="258.740234" xlink:href="#DejaVuSans-97"/>
      <use x="320.019531" xlink:href="#DejaVuSans-110"/>
      <use x="383.398438" xlink:href="#DejaVuSans-115"/>
     </g>
    </g>
    <g id="line2d_38">
     <path d="M 686.979593 108.725185 
L 710.979593 108.725185 
" style="fill:none;stroke:#000000;stroke-linecap:square;stroke-width:1.5;"/>
    </g>
    <g id="line2d_39"/>
    <g id="text_14">
     <!-- 30-59 ans -->
     <g transform="translate(716.979593 112.925185)scale(0.12 -0.12)">
      <defs>
       <path d="M 40.578125 39.3125 
Q 47.65625 37.796875 51.625 33 
Q 55.609375 28.21875 55.609375 21.1875 
Q 55.609375 10.40625 48.1875 4.484375 
Q 40.765625 -1.421875 27.09375 -1.421875 
Q 22.515625 -1.421875 17.65625 -0.515625 
Q 12.796875 0.390625 7.625 2.203125 
L 7.625 11.71875 
Q 11.71875 9.328125 16.59375 8.109375 
Q 21.484375 6.890625 26.8125 6.890625 
Q 36.078125 6.890625 40.9375 10.546875 
Q 45.796875 14.203125 45.796875 21.1875 
Q 45.796875 27.640625 41.28125 31.265625 
Q 36.765625 34.90625 28.71875 34.90625 
L 20.21875 34.90625 
L 20.21875 43.015625 
L 29.109375 43.015625 
Q 36.375 43.015625 40.234375 45.921875 
Q 44.09375 48.828125 44.09375 54.296875 
Q 44.09375 59.90625 40.109375 62.90625 
Q 36.140625 65.921875 28.71875 65.921875 
Q 24.65625 65.921875 20.015625 65.03125 
Q 15.375 64.15625 9.8125 62.3125 
L 9.8125 71.09375 
Q 15.4375 72.65625 20.34375 73.4375 
Q 25.25 74.21875 29.59375 74.21875 
Q 40.828125 74.21875 47.359375 69.109375 
Q 53.90625 64.015625 53.90625 55.328125 
Q 53.90625 49.265625 50.4375 45.09375 
Q 46.96875 40.921875 40.578125 39.3125 
z
" id="DejaVuSans-51"/>
       <path d="M 10.796875 72.90625 
L 49.515625 72.90625 
L 49.515625 64.59375 
L 19.828125 64.59375 
L 19.828125 46.734375 
Q 21.96875 47.46875 24.109375 47.828125 
Q 26.265625 48.1875 28.421875 48.1875 
Q 40.625 48.1875 47.75 41.5 
Q 54.890625 34.8125 54.890625 23.390625 
Q 54.890625 11.625 47.5625 5.09375 
Q 40.234375 -1.421875 26.90625 -1.421875 
Q 22.3125 -1.421875 17.546875 -0.640625 
Q 12.796875 0.140625 7.71875 1.703125 
L 7.71875 11.625 
Q 12.109375 9.234375 16.796875 8.0625 
Q 21.484375 6.890625 26.703125 6.890625 
Q 35.15625 6.890625 40.078125 11.328125 
Q 45.015625 15.765625 45.015625 23.390625 
Q 45.015625 31 40.078125 35.4375 
Q 35.15625 39.890625 26.703125 39.890625 
Q 22.75 39.890625 18.8125 39.015625 
Q 14.890625 38.140625 10.796875 36.28125 
z
" id="DejaVuSans-53"/>
      </defs>
      <use xlink:href="#DejaVuSans-51"/>
      <use x="63.623047" xlink:href="#DejaVuSans-48"/>
      <use x="127.246094" xlink:href="#DejaVuSans-45"/>
      <use x="163.330078" xlink:href="#DejaVuSans-53"/>
      <use x="226.953125" xlink:href="#DejaVuSans-57"/>
      <use x="290.576172" xlink:href="#DejaVuSans-32"/>
      <use x="322.363281" xlink:href="#DejaVuSans-97"/>
      <use x="383.642578" xlink:href="#DejaVuSans-110"/>
      <use x="447.021484" xlink:href="#DejaVuSans-115"/>
     </g>
    </g>
    <g id="line2d_40">
     <path d="M 686.979593 126.338935 
L 710.979593 126.338935 
" style="fill:none;stroke:#ffd700;stroke-linecap:square;stroke-width:3;"/>
    </g>
    <g id="line2d_41"/>
    <g id="text_15">
     <!-- 60 ans et + -->
     <g transform="translate(716.979593 130.538935)scale(0.12 -0.12)">
      <defs>
       <path d="M 33.015625 40.375 
Q 26.375 40.375 22.484375 35.828125 
Q 18.609375 31.296875 18.609375 23.390625 
Q 18.609375 15.53125 22.484375 10.953125 
Q 26.375 6.390625 33.015625 6.390625 
Q 39.65625 6.390625 43.53125 10.953125 
Q 47.40625 15.53125 47.40625 23.390625 
Q 47.40625 31.296875 43.53125 35.828125 
Q 39.65625 40.375 33.015625 40.375 
z
M 52.59375 71.296875 
L 52.59375 62.3125 
Q 48.875 64.0625 45.09375 64.984375 
Q 41.3125 65.921875 37.59375 65.921875 
Q 27.828125 65.921875 22.671875 59.328125 
Q 17.53125 52.734375 16.796875 39.40625 
Q 19.671875 43.65625 24.015625 45.921875 
Q 28.375 48.1875 33.59375 48.1875 
Q 44.578125 48.1875 50.953125 41.515625 
Q 57.328125 34.859375 57.328125 23.390625 
Q 57.328125 12.15625 50.6875 5.359375 
Q 44.046875 -1.421875 33.015625 -1.421875 
Q 20.359375 -1.421875 13.671875 8.265625 
Q 6.984375 17.96875 6.984375 36.375 
Q 6.984375 53.65625 15.1875 63.9375 
Q 23.390625 74.21875 37.203125 74.21875 
Q 40.921875 74.21875 44.703125 73.484375 
Q 48.484375 72.75 52.59375 71.296875 
z
" id="DejaVuSans-54"/>
       <path d="M 46 62.703125 
L 46 35.5 
L 73.1875 35.5 
L 73.1875 27.203125 
L 46 27.203125 
L 46 0 
L 37.796875 0 
L 37.796875 27.203125 
L 10.59375 27.203125 
L 10.59375 35.5 
L 37.796875 35.5 
L 37.796875 62.703125 
z
" id="DejaVuSans-43"/>
      </defs>
      <use xlink:href="#DejaVuSans-54"/>
      <use x="63.623047" xlink:href="#DejaVuSans-48"/>
      <use x="127.246094" xlink:href="#DejaVuSans-32"/>
      <use x="159.033203" xlink:href="#DejaVuSans-97"/>
      <use x="220.3125" xlink:href="#DejaVuSans-110"/>
      <use x="283.691406" xlink:href="#DejaVuSans-115"/>
      <use x="335.791016" xlink:href="#DejaVuSans-32"/>
      <use x="367.578125" xlink:href="#DejaVuSans-101"/>
      <use x="429.101562" xlink:href="#DejaVuSans-116"/>
      <use x="468.310547" xlink:href="#DejaVuSans-32"/>
      <use x="500.097656" xlink:href="#DejaVuSans-43"/>
     </g>
    </g>
   </g>
  </g>
  <g id="axes_7">
   <g id="patch_23">
    <path d="M 34.56 419.328 
L 413.074286 419.328 
L 413.074286 247.509818 
L 34.56 247.509818 
z
" style="fill:none;opacity:0;"/>
   </g>
   <g id="patch_24">
    <path clip-path="url(#p2096239a02)" d="M 47.812141 419.328 
L 47.812141 256.100727 
L 92.538118 256.100727 
L 92.538118 419.328 
z
" style="fill:#808080;opacity:0.15;stroke:#808080;stroke-linejoin:miter;"/>
   </g>
   <g id="patch_25">
    <path clip-path="url(#p2096239a02)" d="M 235.826896 419.328 
L 235.826896 256.100727 
L 273.926802 256.100727 
L 273.926802 419.328 
z
" style="fill:#808080;opacity:0.15;stroke:#808080;stroke-linejoin:miter;"/>
   </g>
   <g id="patch_26">
    <path clip-path="url(#p2096239a02)" d="M 365.863532 419.328 
L 365.863532 256.100727 
L 388.226521 256.100727 
L 388.226521 419.328 
z
" style="fill:#808080;opacity:0.15;stroke:#808080;stroke-linejoin:miter;"/>
   </g>
   <g id="matplotlib.axis_11">
    <g id="xtick_41"/>
    <g id="xtick_42"/>
    <g id="xtick_43"/>
    <g id="xtick_44"/>
    <g id="xtick_45"/>
    <g id="xtick_46"/>
    <g id="xtick_47"/>
    <g id="xtick_48"/>
   </g>
   <g id="matplotlib.axis_12">
    <g id="ytick_16">
     <g id="line2d_42">
      <path clip-path="url(#p2096239a02)" d="M 34.56 413.694617 
L 413.074286 413.694617 
" style="fill:none;stroke:#b0b0b0;stroke-linecap:square;stroke-width:0.8;"/>
     </g>
     <g id="text_16">
      <!-- 0 -->
      <g transform="translate(21.83375 417.113914)scale(0.09 -0.09)">
       <use xlink:href="#DejaVuSans-48"/>
      </g>
     </g>
    </g>
    <g id="ytick_17">
     <g id="line2d_43">
      <path clip-path="url(#p2096239a02)" d="M 34.56 385.527702 
L 413.074286 385.527702 
" style="fill:none;stroke:#b0b0b0;stroke-linecap:square;stroke-width:0.8;"/>
     </g>
     <g id="text_17">
      <!-- 10 -->
      <g transform="translate(16.1075 388.946999)scale(0.09 -0.09)">
       <use xlink:href="#DejaVuSans-49"/>
       <use x="63.623047" xlink:href="#DejaVuSans-48"/>
      </g>
     </g>
    </g>
    <g id="ytick_18">
     <g id="line2d_44">
      <path clip-path="url(#p2096239a02)" d="M 34.56 357.360787 
L 413.074286 357.360787 
" style="fill:none;stroke:#b0b0b0;stroke-linecap:square;stroke-width:0.8;"/>
     </g>
     <g id="text_18">
      <!-- 20 -->
      <g transform="translate(16.1075 360.780084)scale(0.09 -0.09)">
       <use xlink:href="#DejaVuSans-50"/>
       <use x="63.623047" xlink:href="#DejaVuSans-48"/>
      </g>
     </g>
    </g>
    <g id="ytick_19">
     <g id="line2d_45">
      <path clip-path="url(#p2096239a02)" d="M 34.56 329.193872 
L 413.074286 329.193872 
" style="fill:none;stroke:#b0b0b0;stroke-linecap:square;stroke-width:0.8;"/>
     </g>
     <g id="text_19">
      <!-- 30 -->
      <g transform="translate(16.1075 332.613169)scale(0.09 -0.09)">
       <use xlink:href="#DejaVuSans-51"/>
       <use x="63.623047" xlink:href="#DejaVuSans-48"/>
      </g>
     </g>
    </g>
    <g id="ytick_20">
     <g id="line2d_46">
      <path clip-path="url(#p2096239a02)" d="M 34.56 301.026957 
L 413.074286 301.026957 
" style="fill:none;stroke:#b0b0b0;stroke-linecap:square;stroke-width:0.8;"/>
     </g>
     <g id="text_20">
      <!-- 40 -->
      <g transform="translate(16.1075 304.446254)scale(0.09 -0.09)">
       <use xlink:href="#DejaVuSans-52"/>
       <use x="63.623047" xlink:href="#DejaVuSans-48"/>
      </g>
     </g>
    </g>
    <g id="ytick_21">
     <g id="line2d_47">
      <path clip-path="url(#p2096239a02)" d="M 34.56 272.860042 
L 413.074286 272.860042 
" style="fill:none;stroke:#b0b0b0;stroke-linecap:square;stroke-width:0.8;"/>
     </g>
     <g id="text_21">
      <!-- 50 -->
      <g transform="translate(16.1075 276.279339)scale(0.09 -0.09)">
       <use xlink:href="#DejaVuSans-53"/>
       <use x="63.623047" xlink:href="#DejaVuSans-48"/>
      </g>
     </g>
    </g>
   </g>
   <g id="line2d_48">
    <path clip-path="url(#p2096239a02)" d="M 283.865908 413.694617 
L 315.339744 413.614374 
L 324.450591 413.256039 
L 329.420144 413.176799 
L 338.530991 413.065462 
L 353.43965 412.999513 
L 374.146121 412.818966 
L 375.802638 412.785114 
L 375.802638 412.785114 
" style="fill:none;stroke:#b22222;stroke-linecap:square;"/>
   </g>
   <g id="line2d_49">
    <path clip-path="url(#p2096239a02)" d="M 283.865908 413.694617 
L 308.713673 413.583608 
L 312.854967 413.125581 
L 314.511485 412.631085 
L 315.339744 412.301957 
L 316.996261 411.340031 
L 318.652779 411.114802 
L 320.309297 410.052187 
L 322.794073 408.794619 
L 324.450591 408.661362 
L 326.107108 408.13728 
L 328.591885 407.763885 
L 332.733179 407.525583 
L 335.217956 407.264803 
L 336.046214 407.254711 
L 337.702732 406.979941 
L 344.328803 406.590721 
L 347.641838 406.512969 
L 360.065721 406.193015 
L 362.550497 405.982464 
L 364.207015 405.804253 
L 366.691791 405.669391 
L 375.802638 404.290034 
L 375.802638 404.290034 
" style="fill:none;stroke:#000000;stroke-linecap:square;stroke-width:1.5;"/>
   </g>
   <g id="line2d_50">
    <path clip-path="url(#p2096239a02)" d="M 283.865908 413.694617 
L 308.713673 413.611195 
L 313.683226 412.85951 
L 315.339744 411.967901 
L 316.168003 410.818927 
L 316.996261 410.132618 
L 317.82452 409.85277 
L 318.652779 409.245151 
L 319.481038 407.75036 
L 320.309297 406.723264 
L 322.794073 404.334794 
L 324.450591 403.655289 
L 326.107108 401.022174 
L 327.763626 398.867107 
L 328.591885 397.952719 
L 329.420144 397.620807 
L 330.248403 397.542414 
L 333.561438 393.31511 
L 334.389697 392.378241 
L 335.217956 392.101942 
L 336.046214 392.010829 
L 337.702732 389.797781 
L 339.35925 388.244417 
L 340.187509 387.658985 
L 341.015767 387.483266 
L 341.844026 387.462263 
L 343.500544 385.971909 
L 345.157062 384.883874 
L 345.98532 384.526816 
L 346.813579 384.402867 
L 347.641838 384.392513 
L 349.298356 383.921268 
L 352.611391 382.913696 
L 353.43965 382.912513 
L 358.409203 380.67077 
L 359.237462 380.646217 
L 361.722238 378.242363 
L 364.207015 374.115344 
L 365.863532 373.705038 
L 367.52005 369.843667 
L 369.176568 365.961885 
L 370.004827 364.93686 
L 370.833085 364.643108 
L 374.974379 354.584256 
L 375.802638 353.321982 
L 375.802638 353.321982 
" style="fill:none;stroke:#ffd700;stroke-linecap:square;stroke-width:3;"/>
   </g>
   <g id="line2d_51">
    <path clip-path="url(#p2096239a02)" d="M 288.007202 419.328 
L 288.007202 256.100727 
" style="fill:none;stroke:#000000;stroke-dasharray:1.85,0.8;stroke-dashoffset:0;stroke-width:0.5;"/>
   </g>
   <g id="text_22">
    <!-- Normandie -->
    <g style="fill:#4169e1;" transform="translate(53.485714 253.284449)scale(0.26 -0.26)">
     <defs>
      <path d="M 9.1875 72.90625 
L 30.171875 72.90625 
L 56.6875 22.90625 
L 56.6875 72.90625 
L 74.515625 72.90625 
L 74.515625 0 
L 53.515625 0 
L 27 50 
L 27 0 
L 9.1875 0 
z
" id="DejaVuSans-Bold-78"/>
      <path d="M 34.421875 43.5 
Q 28.609375 43.5 25.5625 39.328125 
Q 22.515625 35.15625 22.515625 27.296875 
Q 22.515625 19.4375 25.5625 15.25 
Q 28.609375 11.078125 34.421875 11.078125 
Q 40.140625 11.078125 43.15625 15.25 
Q 46.1875 19.4375 46.1875 27.296875 
Q 46.1875 35.15625 43.15625 39.328125 
Q 40.140625 43.5 34.421875 43.5 
z
M 34.421875 56 
Q 48.53125 56 56.46875 48.375 
Q 64.40625 40.765625 64.40625 27.296875 
Q 64.40625 13.8125 56.46875 6.1875 
Q 48.53125 -1.421875 34.421875 -1.421875 
Q 20.265625 -1.421875 12.28125 6.1875 
Q 4.296875 13.8125 4.296875 27.296875 
Q 4.296875 40.765625 12.28125 48.375 
Q 20.265625 56 34.421875 56 
z
" id="DejaVuSans-Bold-111"/>
      <path d="M 49.03125 39.796875 
Q 46.734375 40.875 44.453125 41.375 
Q 42.1875 41.890625 39.890625 41.890625 
Q 33.15625 41.890625 29.515625 37.5625 
Q 25.875 33.25 25.875 25.203125 
L 25.875 0 
L 8.40625 0 
L 8.40625 54.6875 
L 25.875 54.6875 
L 25.875 45.703125 
Q 29.25 51.078125 33.609375 53.53125 
Q 37.984375 56 44.09375 56 
Q 44.96875 56 45.984375 55.921875 
Q 47.015625 55.859375 48.96875 55.609375 
z
" id="DejaVuSans-Bold-114"/>
      <path d="M 59.078125 45.609375 
Q 62.40625 50.6875 66.96875 53.34375 
Q 71.53125 56 77 56 
Q 86.421875 56 91.359375 50.1875 
Q 96.296875 44.390625 96.296875 33.296875 
L 96.296875 0 
L 78.71875 0 
L 78.71875 28.515625 
Q 78.765625 29.15625 78.78125 29.828125 
Q 78.8125 30.515625 78.8125 31.78125 
Q 78.8125 37.59375 77.09375 40.203125 
Q 75.390625 42.828125 71.578125 42.828125 
Q 66.609375 42.828125 63.890625 38.71875 
Q 61.1875 34.625 61.078125 26.859375 
L 61.078125 0 
L 43.5 0 
L 43.5 28.515625 
Q 43.5 37.59375 41.9375 40.203125 
Q 40.375 42.828125 36.375 42.828125 
Q 31.34375 42.828125 28.609375 38.703125 
Q 25.875 34.578125 25.875 26.90625 
L 25.875 0 
L 8.296875 0 
L 8.296875 54.6875 
L 25.875 54.6875 
L 25.875 46.6875 
Q 29.109375 51.3125 33.28125 53.65625 
Q 37.453125 56 42.484375 56 
Q 48.140625 56 52.484375 53.265625 
Q 56.84375 50.53125 59.078125 45.609375 
z
" id="DejaVuSans-Bold-109"/>
      <path d="M 32.90625 24.609375 
Q 27.4375 24.609375 24.671875 22.75 
Q 21.921875 20.90625 21.921875 17.28125 
Q 21.921875 13.96875 24.140625 12.078125 
Q 26.375 10.203125 30.328125 10.203125 
Q 35.25 10.203125 38.625 13.734375 
Q 42 17.28125 42 22.609375 
L 42 24.609375 
z
M 59.625 31.203125 
L 59.625 0 
L 42 0 
L 42 8.109375 
Q 38.484375 3.125 34.078125 0.84375 
Q 29.6875 -1.421875 23.390625 -1.421875 
Q 14.890625 -1.421875 9.59375 3.53125 
Q 4.296875 8.5 4.296875 16.40625 
Q 4.296875 26.03125 10.90625 30.515625 
Q 17.53125 35.015625 31.6875 35.015625 
L 42 35.015625 
L 42 36.375 
Q 42 40.53125 38.71875 42.453125 
Q 35.453125 44.390625 28.515625 44.390625 
Q 22.90625 44.390625 18.0625 43.265625 
Q 13.234375 42.140625 9.078125 39.890625 
L 9.078125 53.21875 
Q 14.703125 54.59375 20.359375 55.296875 
Q 26.03125 56 31.6875 56 
Q 46.484375 56 53.046875 50.171875 
Q 59.625 44.34375 59.625 31.203125 
z
" id="DejaVuSans-Bold-97"/>
      <path d="M 63.375 33.296875 
L 63.375 0 
L 45.796875 0 
L 45.796875 5.421875 
L 45.796875 25.484375 
Q 45.796875 32.5625 45.484375 35.25 
Q 45.171875 37.9375 44.390625 39.203125 
Q 43.359375 40.921875 41.59375 41.875 
Q 39.84375 42.828125 37.59375 42.828125 
Q 32.125 42.828125 29 38.59375 
Q 25.875 34.375 25.875 26.90625 
L 25.875 0 
L 8.40625 0 
L 8.40625 54.6875 
L 25.875 54.6875 
L 25.875 46.6875 
Q 29.828125 51.46875 34.265625 53.734375 
Q 38.71875 56 44.09375 56 
Q 53.5625 56 58.46875 50.1875 
Q 63.375 44.390625 63.375 33.296875 
z
" id="DejaVuSans-Bold-110"/>
      <path d="M 45.609375 46.6875 
L 45.609375 75.984375 
L 63.1875 75.984375 
L 63.1875 0 
L 45.609375 0 
L 45.609375 7.90625 
Q 42 3.078125 37.640625 0.828125 
Q 33.296875 -1.421875 27.59375 -1.421875 
Q 17.484375 -1.421875 10.984375 6.609375 
Q 4.5 14.65625 4.5 27.296875 
Q 4.5 39.9375 10.984375 47.96875 
Q 17.484375 56 27.59375 56 
Q 33.25 56 37.625 53.734375 
Q 42 51.46875 45.609375 46.6875 
z
M 34.078125 11.28125 
Q 39.703125 11.28125 42.65625 15.375 
Q 45.609375 19.484375 45.609375 27.296875 
Q 45.609375 35.109375 42.65625 39.203125 
Q 39.703125 43.3125 34.078125 43.3125 
Q 28.515625 43.3125 25.5625 39.203125 
Q 22.609375 35.109375 22.609375 27.296875 
Q 22.609375 19.484375 25.5625 15.375 
Q 28.515625 11.28125 34.078125 11.28125 
z
" id="DejaVuSans-Bold-100"/>
      <path d="M 8.40625 54.6875 
L 25.875 54.6875 
L 25.875 0 
L 8.40625 0 
z
M 8.40625 75.984375 
L 25.875 75.984375 
L 25.875 61.71875 
L 8.40625 61.71875 
z
" id="DejaVuSans-Bold-105"/>
      <path d="M 62.984375 27.484375 
L 62.984375 22.515625 
L 22.125 22.515625 
Q 22.75 16.359375 26.5625 13.28125 
Q 30.375 10.203125 37.203125 10.203125 
Q 42.71875 10.203125 48.5 11.84375 
Q 54.296875 13.484375 60.40625 16.796875 
L 60.40625 3.328125 
Q 54.203125 0.984375 48 -0.21875 
Q 41.796875 -1.421875 35.59375 -1.421875 
Q 20.75 -1.421875 12.515625 6.125 
Q 4.296875 13.671875 4.296875 27.296875 
Q 4.296875 40.671875 12.375 48.328125 
Q 20.453125 56 34.625 56 
Q 47.515625 56 55.25 48.234375 
Q 62.984375 40.484375 62.984375 27.484375 
z
M 45.015625 33.296875 
Q 45.015625 38.28125 42.109375 41.328125 
Q 39.203125 44.390625 34.515625 44.390625 
Q 29.4375 44.390625 26.265625 41.53125 
Q 23.09375 38.671875 22.3125 33.296875 
z
" id="DejaVuSans-Bold-101"/>
     </defs>
     <use xlink:href="#DejaVuSans-Bold-78"/>
     <use x="83.691406" xlink:href="#DejaVuSans-Bold-111"/>
     <use x="152.392578" xlink:href="#DejaVuSans-Bold-114"/>
     <use x="201.708984" xlink:href="#DejaVuSans-Bold-109"/>
     <use x="305.908203" xlink:href="#DejaVuSans-Bold-97"/>
     <use x="373.388672" xlink:href="#DejaVuSans-Bold-110"/>
     <use x="444.580078" xlink:href="#DejaVuSans-Bold-100"/>
     <use x="516.162109" xlink:href="#DejaVuSans-Bold-105"/>
     <use x="550.439453" xlink:href="#DejaVuSans-Bold-101"/>
    </g>
   </g>
  </g>
  <g id="axes_8">
   <g id="patch_27">
    <path d="M 450.925714 419.328 
L 829.44 419.328 
L 829.44 247.509818 
L 450.925714 247.509818 
z
" style="fill:none;opacity:0;"/>
   </g>
   <g id="patch_28">
    <path clip-path="url(#p90030b8c71)" d="M 464.177856 419.328 
L 464.177856 256.100727 
L 508.903832 256.100727 
L 508.903832 419.328 
z
" style="fill:#808080;opacity:0.15;stroke:#808080;stroke-linejoin:miter;"/>
   </g>
   <g id="patch_29">
    <path clip-path="url(#p90030b8c71)" d="M 652.19261 419.328 
L 652.19261 256.100727 
L 690.292516 256.100727 
L 690.292516 419.328 
z
" style="fill:#808080;opacity:0.15;stroke:#808080;stroke-linejoin:miter;"/>
   </g>
   <g id="patch_30">
    <path clip-path="url(#p90030b8c71)" d="M 782.229247 419.328 
L 782.229247 256.100727 
L 804.592235 256.100727 
L 804.592235 419.328 
z
" style="fill:#808080;opacity:0.15;stroke:#808080;stroke-linejoin:miter;"/>
   </g>
   <g id="matplotlib.axis_13">
    <g id="xtick_49">
     <g id="line2d_52">
      <defs>
       <path d="M 0 0 
L 0 3.5 
" id="m965b87903c" style="stroke:#000000;stroke-width:0.8;"/>
      </defs>
      <g>
       <use style="stroke:#000000;stroke-width:0.8;" x="450.925714" xlink:href="#m965b87903c" y="419.328"/>
      </g>
     </g>
     <g id="text_23">
      <!-- mars -->
      <g transform="translate(439.731109 447.193837)rotate(-45)scale(0.09 -0.09)">
       <defs>
        <path d="M 52 44.1875 
Q 55.375 50.25 60.0625 53.125 
Q 64.75 56 71.09375 56 
Q 79.640625 56 84.28125 50.015625 
Q 88.921875 44.046875 88.921875 33.015625 
L 88.921875 0 
L 79.890625 0 
L 79.890625 32.71875 
Q 79.890625 40.578125 77.09375 44.375 
Q 74.3125 48.1875 68.609375 48.1875 
Q 61.625 48.1875 57.5625 43.546875 
Q 53.515625 38.921875 53.515625 30.90625 
L 53.515625 0 
L 44.484375 0 
L 44.484375 32.71875 
Q 44.484375 40.625 41.703125 44.40625 
Q 38.921875 48.1875 33.109375 48.1875 
Q 26.21875 48.1875 22.15625 43.53125 
Q 18.109375 38.875 18.109375 30.90625 
L 18.109375 0 
L 9.078125 0 
L 9.078125 54.6875 
L 18.109375 54.6875 
L 18.109375 46.1875 
Q 21.1875 51.21875 25.484375 53.609375 
Q 29.78125 56 35.6875 56 
Q 41.65625 56 45.828125 52.96875 
Q 50 49.953125 52 44.1875 
z
" id="DejaVuSans-109"/>
       </defs>
       <use xlink:href="#DejaVuSans-109"/>
       <use x="97.412109" xlink:href="#DejaVuSans-97"/>
       <use x="158.691406" xlink:href="#DejaVuSans-114"/>
       <use x="199.804688" xlink:href="#DejaVuSans-115"/>
      </g>
     </g>
    </g>
    <g id="xtick_50">
     <g id="line2d_53">
      <g>
       <use style="stroke:#000000;stroke-width:0.8;" x="476.601738" xlink:href="#m965b87903c" y="419.328"/>
      </g>
     </g>
     <g id="text_24">
      <!-- avril -->
      <g transform="translate(467.618609 444.982361)rotate(-45)scale(0.09 -0.09)">
       <defs>
        <path d="M 9.421875 75.984375 
L 18.40625 75.984375 
L 18.40625 0 
L 9.421875 0 
z
" id="DejaVuSans-108"/>
       </defs>
       <use xlink:href="#DejaVuSans-97"/>
       <use x="61.279297" xlink:href="#DejaVuSans-118"/>
       <use x="120.458984" xlink:href="#DejaVuSans-114"/>
       <use x="161.572266" xlink:href="#DejaVuSans-105"/>
       <use x="189.355469" xlink:href="#DejaVuSans-108"/>
      </g>
     </g>
    </g>
    <g id="xtick_51">
     <g id="line2d_54">
      <g>
       <use style="stroke:#000000;stroke-width:0.8;" x="501.449503" xlink:href="#m965b87903c" y="419.328"/>
      </g>
     </g>
     <g id="text_25">
      <!-- mai -->
      <g transform="translate(494.41832 443.030415)rotate(-45)scale(0.09 -0.09)">
       <use xlink:href="#DejaVuSans-109"/>
       <use x="97.412109" xlink:href="#DejaVuSans-97"/>
       <use x="158.691406" xlink:href="#DejaVuSans-105"/>
      </g>
     </g>
    </g>
    <g id="xtick_52">
     <g id="line2d_55">
      <g>
       <use style="stroke:#000000;stroke-width:0.8;" x="527.125527" xlink:href="#m965b87903c" y="419.328"/>
      </g>
     </g>
     <g id="text_26">
      <!-- juin -->
      <g transform="translate(520.358846 442.765912)rotate(-45)scale(0.09 -0.09)">
       <use xlink:href="#DejaVuSans-106"/>
       <use x="27.783203" xlink:href="#DejaVuSans-117"/>
       <use x="91.162109" xlink:href="#DejaVuSans-105"/>
       <use x="118.945312" xlink:href="#DejaVuSans-110"/>
      </g>
     </g>
    </g>
    <g id="xtick_53">
     <g id="line2d_56">
      <g>
       <use style="stroke:#000000;stroke-width:0.8;" x="551.973292" xlink:href="#m965b87903c" y="419.328"/>
      </g>
     </g>
     <g id="text_27">
      <!-- juil. -->
      <g transform="translate(545.449237 442.523286)rotate(-45)scale(0.09 -0.09)">
       <defs>
        <path d="M 10.6875 12.40625 
L 21 12.40625 
L 21 0 
L 10.6875 0 
z
" id="DejaVuSans-46"/>
       </defs>
       <use xlink:href="#DejaVuSans-106"/>
       <use x="27.783203" xlink:href="#DejaVuSans-117"/>
       <use x="91.162109" xlink:href="#DejaVuSans-105"/>
       <use x="118.945312" xlink:href="#DejaVuSans-108"/>
       <use x="146.728516" xlink:href="#DejaVuSans-46"/>
      </g>
     </g>
    </g>
    <g id="xtick_54">
     <g id="line2d_57">
      <g>
       <use style="stroke:#000000;stroke-width:0.8;" x="577.649315" xlink:href="#m965b87903c" y="419.328"/>
      </g>
     </g>
     <g id="text_28">
      <!-- août -->
      <g transform="translate(568.163036 445.485511)rotate(-45)scale(0.09 -0.09)">
       <defs>
        <path d="M 8.5 21.578125 
L 8.5 54.6875 
L 17.484375 54.6875 
L 17.484375 21.921875 
Q 17.484375 14.15625 20.5 10.265625 
Q 23.53125 6.390625 29.59375 6.390625 
Q 36.859375 6.390625 41.078125 11.03125 
Q 45.3125 15.671875 45.3125 23.6875 
L 45.3125 54.6875 
L 54.296875 54.6875 
L 54.296875 0 
L 45.3125 0 
L 45.3125 8.40625 
Q 42.046875 3.421875 37.71875 1 
Q 33.40625 -1.421875 27.6875 -1.421875 
Q 18.265625 -1.421875 13.375 4.4375 
Q 8.5 10.296875 8.5 21.578125 
z
M 31.109375 56 
z
M 27.390625 79.984375 
L 34.609375 79.984375 
L 46.578125 61.625 
L 39.796875 61.625 
L 31 73.578125 
L 22.21875 61.625 
L 15.421875 61.625 
z
" id="DejaVuSans-251"/>
       </defs>
       <use xlink:href="#DejaVuSans-97"/>
       <use x="61.279297" xlink:href="#DejaVuSans-111"/>
       <use x="122.460938" xlink:href="#DejaVuSans-251"/>
       <use x="185.839844" xlink:href="#DejaVuSans-116"/>
      </g>
     </g>
    </g>
    <g id="xtick_55">
     <g id="line2d_58">
      <g>
       <use style="stroke:#000000;stroke-width:0.8;" x="603.325339" xlink:href="#m965b87903c" y="419.328"/>
      </g>
     </g>
     <g id="text_29">
      <!-- sept. -->
      <g transform="translate(592.372366 446.952206)rotate(-45)scale(0.09 -0.09)">
       <use xlink:href="#DejaVuSans-115"/>
       <use x="52.099609" xlink:href="#DejaVuSans-101"/>
       <use x="113.623047" xlink:href="#DejaVuSans-112"/>
       <use x="177.099609" xlink:href="#DejaVuSans-116"/>
       <use x="216.308594" xlink:href="#DejaVuSans-46"/>
      </g>
     </g>
    </g>
    <g id="xtick_56">
     <g id="line2d_59">
      <g>
       <use style="stroke:#000000;stroke-width:0.8;" x="628.173104" xlink:href="#m965b87903c" y="419.328"/>
      </g>
     </g>
     <g id="text_30">
      <!-- oct. -->
      <g transform="translate(621.098169 443.074167)rotate(-45)scale(0.09 -0.09)">
       <use xlink:href="#DejaVuSans-111"/>
       <use x="61.181641" xlink:href="#DejaVuSans-99"/>
       <use x="116.162109" xlink:href="#DejaVuSans-116"/>
       <use x="155.371094" xlink:href="#DejaVuSans-46"/>
      </g>
     </g>
    </g>
    <g id="xtick_57">
     <g id="line2d_60">
      <g>
       <use style="stroke:#000000;stroke-width:0.8;" x="653.849128" xlink:href="#m965b87903c" y="419.328"/>
      </g>
     </g>
     <g id="text_31">
      <!-- nov. -->
      <g transform="translate(645.461626 444.386734)rotate(-45)scale(0.09 -0.09)">
       <use xlink:href="#DejaVuSans-110"/>
       <use x="63.378906" xlink:href="#DejaVuSans-111"/>
       <use x="124.560547" xlink:href="#DejaVuSans-118"/>
       <use x="175.990234" xlink:href="#DejaVuSans-46"/>
      </g>
     </g>
    </g>
    <g id="xtick_58">
     <g id="line2d_61">
      <g>
       <use style="stroke:#000000;stroke-width:0.8;" x="678.696893" xlink:href="#m965b87903c" y="419.328"/>
      </g>
     </g>
     <g id="text_32">
      <!-- déc. -->
      <g transform="translate(670.054833 444.641292)rotate(-45)scale(0.09 -0.09)">
       <use xlink:href="#DejaVuSans-100"/>
       <use x="63.476562" xlink:href="#DejaVuSans-233"/>
       <use x="125" xlink:href="#DejaVuSans-99"/>
       <use x="179.980469" xlink:href="#DejaVuSans-46"/>
      </g>
     </g>
    </g>
    <g id="xtick_59">
     <g id="line2d_62">
      <g>
       <use style="stroke:#000000;stroke-width:0.8;" x="704.372917" xlink:href="#m965b87903c" y="419.328"/>
      </g>
     </g>
     <g id="text_33">
      <!-- janv. -->
      <g transform="translate(694.211461 446.160688)rotate(-45)scale(0.09 -0.09)">
       <use xlink:href="#DejaVuSans-106"/>
       <use x="27.783203" xlink:href="#DejaVuSans-97"/>
       <use x="89.0625" xlink:href="#DejaVuSans-110"/>
       <use x="152.441406" xlink:href="#DejaVuSans-118"/>
       <use x="203.871094" xlink:href="#DejaVuSans-46"/>
      </g>
     </g>
    </g>
    <g id="xtick_60">
     <g id="line2d_63">
      <g>
       <use style="stroke:#000000;stroke-width:0.8;" x="730.04894" xlink:href="#m965b87903c" y="419.328"/>
      </g>
     </g>
     <g id="text_34">
      <!-- fév. -->
      <g transform="translate(723.43241 442.615763)rotate(-45)scale(0.09 -0.09)">
       <defs>
        <path d="M 37.109375 75.984375 
L 37.109375 68.5 
L 28.515625 68.5 
Q 23.6875 68.5 21.796875 66.546875 
Q 19.921875 64.59375 19.921875 59.515625 
L 19.921875 54.6875 
L 34.71875 54.6875 
L 34.71875 47.703125 
L 19.921875 47.703125 
L 19.921875 0 
L 10.890625 0 
L 10.890625 47.703125 
L 2.296875 47.703125 
L 2.296875 54.6875 
L 10.890625 54.6875 
L 10.890625 58.5 
Q 10.890625 67.625 15.140625 71.796875 
Q 19.390625 75.984375 28.609375 75.984375 
z
" id="DejaVuSans-102"/>
       </defs>
       <use xlink:href="#DejaVuSans-102"/>
       <use x="35.205078" xlink:href="#DejaVuSans-233"/>
       <use x="96.728516" xlink:href="#DejaVuSans-118"/>
       <use x="148.158203" xlink:href="#DejaVuSans-46"/>
      </g>
     </g>
    </g>
    <g id="xtick_61">
     <g id="line2d_64">
      <g>
       <use style="stroke:#000000;stroke-width:0.8;" x="753.240188" xlink:href="#m965b87903c" y="419.328"/>
      </g>
     </g>
     <g id="text_35">
      <!-- mars -->
      <g transform="translate(742.045582 447.193837)rotate(-45)scale(0.09 -0.09)">
       <use xlink:href="#DejaVuSans-109"/>
       <use x="97.412109" xlink:href="#DejaVuSans-97"/>
       <use x="158.691406" xlink:href="#DejaVuSans-114"/>
       <use x="199.804688" xlink:href="#DejaVuSans-115"/>
      </g>
     </g>
    </g>
    <g id="xtick_62">
     <g id="line2d_65">
      <g>
       <use style="stroke:#000000;stroke-width:0.8;" x="778.916211" xlink:href="#m965b87903c" y="419.328"/>
      </g>
     </g>
     <g id="text_36">
      <!-- avril -->
      <g transform="translate(769.933083 444.982361)rotate(-45)scale(0.09 -0.09)">
       <use xlink:href="#DejaVuSans-97"/>
       <use x="61.279297" xlink:href="#DejaVuSans-118"/>
       <use x="120.458984" xlink:href="#DejaVuSans-114"/>
       <use x="161.572266" xlink:href="#DejaVuSans-105"/>
       <use x="189.355469" xlink:href="#DejaVuSans-108"/>
      </g>
     </g>
    </g>
    <g id="xtick_63">
     <g id="line2d_66">
      <g>
       <use style="stroke:#000000;stroke-width:0.8;" x="803.763976" xlink:href="#m965b87903c" y="419.328"/>
      </g>
     </g>
     <g id="text_37">
      <!-- mai -->
      <g transform="translate(796.732794 443.030415)rotate(-45)scale(0.09 -0.09)">
       <use xlink:href="#DejaVuSans-109"/>
       <use x="97.412109" xlink:href="#DejaVuSans-97"/>
       <use x="158.691406" xlink:href="#DejaVuSans-105"/>
      </g>
     </g>
    </g>
    <g id="xtick_64">
     <g id="line2d_67">
      <g>
       <use style="stroke:#000000;stroke-width:0.8;" x="829.44" xlink:href="#m965b87903c" y="419.328"/>
      </g>
     </g>
     <g id="text_38">
      <!-- juin -->
      <g transform="translate(822.67332 442.765912)rotate(-45)scale(0.09 -0.09)">
       <use xlink:href="#DejaVuSans-106"/>
       <use x="27.783203" xlink:href="#DejaVuSans-117"/>
       <use x="91.162109" xlink:href="#DejaVuSans-105"/>
       <use x="118.945312" xlink:href="#DejaVuSans-110"/>
      </g>
     </g>
    </g>
   </g>
   <g id="matplotlib.axis_14">
    <g id="ytick_22">
     <g id="line2d_68">
      <path clip-path="url(#p90030b8c71)" d="M 450.925714 413.694617 
L 829.44 413.694617 
" style="fill:none;stroke:#b0b0b0;stroke-linecap:square;stroke-width:0.8;"/>
     </g>
     <g id="text_39">
      <!-- 0 -->
      <g transform="translate(836.44 417.113914)scale(0.09 -0.09)">
       <use xlink:href="#DejaVuSans-48"/>
      </g>
     </g>
    </g>
    <g id="ytick_23">
     <g id="line2d_69">
      <path clip-path="url(#p90030b8c71)" d="M 450.925714 385.527702 
L 829.44 385.527702 
" style="fill:none;stroke:#b0b0b0;stroke-linecap:square;stroke-width:0.8;"/>
     </g>
     <g id="text_40">
      <!-- 10 -->
      <g transform="translate(836.44 388.946999)scale(0.09 -0.09)">
       <use xlink:href="#DejaVuSans-49"/>
       <use x="63.623047" xlink:href="#DejaVuSans-48"/>
      </g>
     </g>
    </g>
    <g id="ytick_24">
     <g id="line2d_70">
      <path clip-path="url(#p90030b8c71)" d="M 450.925714 357.360787 
L 829.44 357.360787 
" style="fill:none;stroke:#b0b0b0;stroke-linecap:square;stroke-width:0.8;"/>
     </g>
     <g id="text_41">
      <!-- 20 -->
      <g transform="translate(836.44 360.780084)scale(0.09 -0.09)">
       <use xlink:href="#DejaVuSans-50"/>
       <use x="63.623047" xlink:href="#DejaVuSans-48"/>
      </g>
     </g>
    </g>
    <g id="ytick_25">
     <g id="line2d_71">
      <path clip-path="url(#p90030b8c71)" d="M 450.925714 329.193872 
L 829.44 329.193872 
" style="fill:none;stroke:#b0b0b0;stroke-linecap:square;stroke-width:0.8;"/>
     </g>
     <g id="text_42">
      <!-- 30 -->
      <g transform="translate(836.44 332.613169)scale(0.09 -0.09)">
       <use xlink:href="#DejaVuSans-51"/>
       <use x="63.623047" xlink:href="#DejaVuSans-48"/>
      </g>
     </g>
    </g>
    <g id="ytick_26">
     <g id="line2d_72">
      <path clip-path="url(#p90030b8c71)" d="M 450.925714 301.026957 
L 829.44 301.026957 
" style="fill:none;stroke:#b0b0b0;stroke-linecap:square;stroke-width:0.8;"/>
     </g>
     <g id="text_43">
      <!-- 40 -->
      <g transform="translate(836.44 304.446254)scale(0.09 -0.09)">
       <use xlink:href="#DejaVuSans-52"/>
       <use x="63.623047" xlink:href="#DejaVuSans-48"/>
      </g>
     </g>
    </g>
    <g id="ytick_27">
     <g id="line2d_73">
      <path clip-path="url(#p90030b8c71)" d="M 450.925714 272.860042 
L 829.44 272.860042 
" style="fill:none;stroke:#b0b0b0;stroke-linecap:square;stroke-width:0.8;"/>
     </g>
     <g id="text_44">
      <!-- 50 -->
      <g transform="translate(836.44 276.279339)scale(0.09 -0.09)">
       <use xlink:href="#DejaVuSans-53"/>
       <use x="63.623047" xlink:href="#DejaVuSans-48"/>
      </g>
     </g>
    </g>
   </g>
   <g id="line2d_74">
    <path clip-path="url(#p90030b8c71)" d="M 700.231622 413.694617 
L 736.675011 413.596508 
L 745.785858 413.433574 
L 759.866258 413.318237 
L 792.168353 412.955824 
L 792.168353 412.955824 
" style="fill:none;stroke:#b22222;stroke-linecap:square;"/>
   </g>
   <g id="line2d_75">
    <path clip-path="url(#p90030b8c71)" d="M 700.231622 413.694617 
L 725.907646 413.621745 
L 730.877199 413.040648 
L 734.190234 412.212913 
L 735.018493 412.192315 
L 736.675011 411.668658 
L 739.159787 410.676644 
L 741.644564 410.432857 
L 744.957599 409.524244 
L 747.442376 409.381046 
L 751.58367 408.866327 
L 753.240188 408.804193 
L 757.381482 408.393748 
L 759.866258 408.281391 
L 764.007552 408.006423 
L 773.118399 407.508343 
L 783.885764 406.756846 
L 786.370541 406.364378 
L 788.027058 406.191467 
L 792.168353 405.286944 
L 792.168353 405.286944 
" style="fill:none;stroke:#000000;stroke-linecap:square;stroke-width:1.5;"/>
   </g>
   <g id="line2d_76">
    <path clip-path="url(#p90030b8c71)" d="M 700.231622 413.694617 
L 725.079387 413.633891 
L 726.735905 413.42496 
L 727.564164 413.274943 
L 730.04894 413.061075 
L 731.705458 412.405152 
L 733.361976 411.541339 
L 735.018493 411.368623 
L 735.846752 410.91734 
L 737.50327 409.195282 
L 738.331529 408.056718 
L 739.159787 407.318458 
L 739.988046 407.101642 
L 740.816305 407.021057 
L 741.644564 406.109499 
L 743.301082 403.564417 
L 744.12934 402.003607 
L 744.957599 400.887977 
L 745.785858 400.503004 
L 746.614117 400.429706 
L 748.270635 398.350451 
L 750.755411 395.145644 
L 751.58367 394.831744 
L 752.411929 394.783021 
L 753.240188 394.047207 
L 756.553223 390.508121 
L 757.381482 390.269916 
L 758.209741 390.236792 
L 759.866258 388.823161 
L 762.351035 386.551632 
L 763.179294 386.344689 
L 764.007552 386.311108 
L 765.66407 385.41362 
L 768.148847 383.932275 
L 768.977105 383.780538 
L 769.805364 383.759812 
L 771.461882 382.768742 
L 773.946658 381.043876 
L 774.774917 380.813432 
L 775.603176 380.746712 
L 776.431435 380.012317 
L 778.087952 377.991942 
L 779.74447 375.326859 
L 780.572729 374.429292 
L 781.400988 374.158673 
L 782.229247 374.019996 
L 785.542282 367.57013 
L 786.370541 366.44972 
L 787.1988 366.011765 
L 788.027058 364.440624 
L 791.340094 356.852824 
L 792.168353 355.728471 
L 792.168353 355.728471 
" style="fill:none;stroke:#ffd700;stroke-linecap:square;stroke-width:3;"/>
   </g>
   <g id="line2d_77">
    <path clip-path="url(#p90030b8c71)" d="M 704.372917 419.328 
L 704.372917 256.100727 
" style="fill:none;stroke:#000000;stroke-dasharray:1.85,0.8;stroke-dashoffset:0;stroke-width:0.5;"/>
   </g>
   <g id="text_45">
    <!-- France -->
    <g style="fill:#4169e1;" transform="translate(469.851429 253.700386)scale(0.24 -0.24)">
     <defs>
      <path d="M 9.1875 72.90625 
L 59.90625 72.90625 
L 59.90625 58.6875 
L 27.984375 58.6875 
L 27.984375 45.125 
L 58.015625 45.125 
L 58.015625 30.90625 
L 27.984375 30.90625 
L 27.984375 0 
L 9.1875 0 
z
" id="DejaVuSans-Bold-70"/>
      <path d="M 52.59375 52.984375 
L 52.59375 38.71875 
Q 49.03125 41.15625 45.4375 42.328125 
Q 41.84375 43.5 37.984375 43.5 
Q 30.671875 43.5 26.59375 39.234375 
Q 22.515625 34.96875 22.515625 27.296875 
Q 22.515625 19.625 26.59375 15.34375 
Q 30.671875 11.078125 37.984375 11.078125 
Q 42.09375 11.078125 45.78125 12.296875 
Q 49.46875 13.53125 52.59375 15.921875 
L 52.59375 1.609375 
Q 48.484375 0.09375 44.265625 -0.65625 
Q 40.046875 -1.421875 35.796875 -1.421875 
Q 21 -1.421875 12.640625 6.171875 
Q 4.296875 13.765625 4.296875 27.296875 
Q 4.296875 40.828125 12.640625 48.40625 
Q 21 56 35.796875 56 
Q 40.09375 56 44.265625 55.25 
Q 48.4375 54.5 52.59375 52.984375 
z
" id="DejaVuSans-Bold-99"/>
     </defs>
     <use xlink:href="#DejaVuSans-Bold-70"/>
     <use x="61.935547" xlink:href="#DejaVuSans-Bold-114"/>
     <use x="111.251953" xlink:href="#DejaVuSans-Bold-97"/>
     <use x="178.732422" xlink:href="#DejaVuSans-Bold-110"/>
     <use x="249.923828" xlink:href="#DejaVuSans-Bold-99"/>
     <use x="309.201172" xlink:href="#DejaVuSans-Bold-101"/>
    </g>
   </g>
  </g>
  <g id="text_46">
   <!-- @E_Dmz - Données Santé Publique France (18/04/2021) -->
   <g transform="translate(25.92 456.574125)scale(0.12 -0.12)">
    <defs>
     <path d="M 37.203125 26.21875 
Q 37.203125 19.234375 40.671875 15.25 
Q 44.140625 11.28125 50.203125 11.28125 
Q 56.203125 11.28125 59.640625 15.28125 
Q 63.09375 19.28125 63.09375 26.21875 
Q 63.09375 33.0625 59.578125 37.078125 
Q 56.0625 41.109375 50.09375 41.109375 
Q 44.1875 41.109375 40.6875 37.109375 
Q 37.203125 33.109375 37.203125 26.21875 
z
M 63.8125 11.625 
Q 60.890625 7.859375 57.109375 6.078125 
Q 53.328125 4.296875 48.296875 4.296875 
Q 39.890625 4.296875 34.640625 10.375 
Q 29.390625 16.453125 29.390625 26.21875 
Q 29.390625 35.984375 34.65625 42.078125 
Q 39.9375 48.1875 48.296875 48.1875 
Q 53.328125 48.1875 57.125 46.359375 
Q 60.9375 44.53125 63.8125 40.828125 
L 63.8125 47.21875 
L 70.796875 47.21875 
L 70.796875 11.28125 
Q 77.9375 12.359375 81.953125 17.796875 
Q 85.984375 23.25 85.984375 31.890625 
Q 85.984375 37.109375 84.4375 41.703125 
Q 82.90625 46.296875 79.78125 50.203125 
Q 74.703125 56.59375 67.40625 59.984375 
Q 60.109375 63.375 51.515625 63.375 
Q 45.515625 63.375 39.984375 61.78125 
Q 34.46875 60.203125 29.78125 57.078125 
Q 22.125 52.09375 17.796875 44.015625 
Q 13.484375 35.9375 13.484375 26.515625 
Q 13.484375 18.75 16.28125 11.953125 
Q 19.09375 5.171875 24.421875 0 
Q 29.546875 -5.078125 36.28125 -7.734375 
Q 43.015625 -10.40625 50.6875 -10.40625 
Q 56.984375 -10.40625 63.0625 -8.28125 
Q 69.140625 -6.15625 74.21875 -2.203125 
L 78.609375 -7.625 
Q 72.515625 -12.359375 65.3125 -14.875 
Q 58.109375 -17.390625 50.6875 -17.390625 
Q 41.65625 -17.390625 33.640625 -14.1875 
Q 25.640625 -10.984375 19.390625 -4.890625 
Q 13.140625 1.21875 9.859375 9.25 
Q 6.59375 17.28125 6.59375 26.515625 
Q 6.59375 35.40625 9.90625 43.453125 
Q 13.234375 51.515625 19.390625 57.625 
Q 25.6875 63.8125 33.9375 67.109375 
Q 42.1875 70.40625 51.421875 70.40625 
Q 61.765625 70.40625 70.625 66.15625 
Q 79.5 61.921875 85.5 54.109375 
Q 89.15625 49.3125 91.078125 43.703125 
Q 93.015625 38.09375 93.015625 32.078125 
Q 93.015625 19.234375 85.25 11.8125 
Q 77.484375 4.390625 63.8125 4.109375 
z
" id="DejaVuSans-64"/>
     <path d="M 9.8125 72.90625 
L 55.90625 72.90625 
L 55.90625 64.59375 
L 19.671875 64.59375 
L 19.671875 43.015625 
L 54.390625 43.015625 
L 54.390625 34.71875 
L 19.671875 34.71875 
L 19.671875 8.296875 
L 56.78125 8.296875 
L 56.78125 0 
L 9.8125 0 
z
" id="DejaVuSans-69"/>
     <path d="M 50.984375 -16.609375 
L 50.984375 -23.578125 
L -0.984375 -23.578125 
L -0.984375 -16.609375 
z
" id="DejaVuSans-95"/>
     <path d="M 19.671875 64.796875 
L 19.671875 8.109375 
L 31.59375 8.109375 
Q 46.6875 8.109375 53.6875 14.9375 
Q 60.6875 21.78125 60.6875 36.53125 
Q 60.6875 51.171875 53.6875 57.984375 
Q 46.6875 64.796875 31.59375 64.796875 
z
M 9.8125 72.90625 
L 30.078125 72.90625 
Q 51.265625 72.90625 61.171875 64.09375 
Q 71.09375 55.28125 71.09375 36.53125 
Q 71.09375 17.671875 61.125 8.828125 
Q 51.171875 0 30.078125 0 
L 9.8125 0 
z
" id="DejaVuSans-68"/>
     <path d="M 5.515625 54.6875 
L 48.1875 54.6875 
L 48.1875 46.484375 
L 14.40625 7.171875 
L 48.1875 7.171875 
L 48.1875 0 
L 4.296875 0 
L 4.296875 8.203125 
L 38.09375 47.515625 
L 5.515625 47.515625 
z
" id="DejaVuSans-122"/>
     <path d="M 53.515625 70.515625 
L 53.515625 60.890625 
Q 47.90625 63.578125 42.921875 64.890625 
Q 37.9375 66.21875 33.296875 66.21875 
Q 25.25 66.21875 20.875 63.09375 
Q 16.5 59.96875 16.5 54.203125 
Q 16.5 49.359375 19.40625 46.890625 
Q 22.3125 44.4375 30.421875 42.921875 
L 36.375 41.703125 
Q 47.40625 39.59375 52.65625 34.296875 
Q 57.90625 29 57.90625 20.125 
Q 57.90625 9.515625 50.796875 4.046875 
Q 43.703125 -1.421875 29.984375 -1.421875 
Q 24.8125 -1.421875 18.96875 -0.25 
Q 13.140625 0.921875 6.890625 3.21875 
L 6.890625 13.375 
Q 12.890625 10.015625 18.65625 8.296875 
Q 24.421875 6.59375 29.984375 6.59375 
Q 38.421875 6.59375 43.015625 9.90625 
Q 47.609375 13.234375 47.609375 19.390625 
Q 47.609375 24.75 44.3125 27.78125 
Q 41.015625 30.8125 33.5 32.328125 
L 27.484375 33.5 
Q 16.453125 35.6875 11.515625 40.375 
Q 6.59375 45.0625 6.59375 53.421875 
Q 6.59375 63.09375 13.40625 68.65625 
Q 20.21875 74.21875 32.171875 74.21875 
Q 37.3125 74.21875 42.625 73.28125 
Q 47.953125 72.359375 53.515625 70.515625 
z
" id="DejaVuSans-83"/>
     <path d="M 14.796875 27.296875 
Q 14.796875 17.390625 18.875 11.75 
Q 22.953125 6.109375 30.078125 6.109375 
Q 37.203125 6.109375 41.296875 11.75 
Q 45.40625 17.390625 45.40625 27.296875 
Q 45.40625 37.203125 41.296875 42.84375 
Q 37.203125 48.484375 30.078125 48.484375 
Q 22.953125 48.484375 18.875 42.84375 
Q 14.796875 37.203125 14.796875 27.296875 
z
M 45.40625 8.203125 
Q 42.578125 3.328125 38.25 0.953125 
Q 33.9375 -1.421875 27.875 -1.421875 
Q 17.96875 -1.421875 11.734375 6.484375 
Q 5.515625 14.40625 5.515625 27.296875 
Q 5.515625 40.1875 11.734375 48.09375 
Q 17.96875 56 27.875 56 
Q 33.9375 56 38.25 53.625 
Q 42.578125 51.265625 45.40625 46.390625 
L 45.40625 54.6875 
L 54.390625 54.6875 
L 54.390625 -20.796875 
L 45.40625 -20.796875 
z
" id="DejaVuSans-113"/>
     <path d="M 9.8125 72.90625 
L 51.703125 72.90625 
L 51.703125 64.59375 
L 19.671875 64.59375 
L 19.671875 43.109375 
L 48.578125 43.109375 
L 48.578125 34.8125 
L 19.671875 34.8125 
L 19.671875 0 
L 9.8125 0 
z
" id="DejaVuSans-70"/>
     <path d="M 31.78125 34.625 
Q 24.75 34.625 20.71875 30.859375 
Q 16.703125 27.09375 16.703125 20.515625 
Q 16.703125 13.921875 20.71875 10.15625 
Q 24.75 6.390625 31.78125 6.390625 
Q 38.8125 6.390625 42.859375 10.171875 
Q 46.921875 13.96875 46.921875 20.515625 
Q 46.921875 27.09375 42.890625 30.859375 
Q 38.875 34.625 31.78125 34.625 
z
M 21.921875 38.8125 
Q 15.578125 40.375 12.03125 44.71875 
Q 8.5 49.078125 8.5 55.328125 
Q 8.5 64.0625 14.71875 69.140625 
Q 20.953125 74.21875 31.78125 74.21875 
Q 42.671875 74.21875 48.875 69.140625 
Q 55.078125 64.0625 55.078125 55.328125 
Q 55.078125 49.078125 51.53125 44.71875 
Q 48 40.375 41.703125 38.8125 
Q 48.828125 37.15625 52.796875 32.3125 
Q 56.78125 27.484375 56.78125 20.515625 
Q 56.78125 9.90625 50.3125 4.234375 
Q 43.84375 -1.421875 31.78125 -1.421875 
Q 19.734375 -1.421875 13.25 4.234375 
Q 6.78125 9.90625 6.78125 20.515625 
Q 6.78125 27.484375 10.78125 32.3125 
Q 14.796875 37.15625 21.921875 38.8125 
z
M 18.3125 54.390625 
Q 18.3125 48.734375 21.84375 45.5625 
Q 25.390625 42.390625 31.78125 42.390625 
Q 38.140625 42.390625 41.71875 45.5625 
Q 45.3125 48.734375 45.3125 54.390625 
Q 45.3125 60.0625 41.71875 63.234375 
Q 38.140625 66.40625 31.78125 66.40625 
Q 25.390625 66.40625 21.84375 63.234375 
Q 18.3125 60.0625 18.3125 54.390625 
z
" id="DejaVuSans-56"/>
     <path d="M 25.390625 72.90625 
L 33.6875 72.90625 
L 8.296875 -9.28125 
L 0 -9.28125 
z
" id="DejaVuSans-47"/>
    </defs>
    <use xlink:href="#DejaVuSans-64"/>
    <use x="100" xlink:href="#DejaVuSans-69"/>
    <use x="163.183594" xlink:href="#DejaVuSans-95"/>
    <use x="213.183594" xlink:href="#DejaVuSans-68"/>
    <use x="290.185547" xlink:href="#DejaVuSans-109"/>
    <use x="387.597656" xlink:href="#DejaVuSans-122"/>
    <use x="440.087891" xlink:href="#DejaVuSans-32"/>
    <use x="471.875" xlink:href="#DejaVuSans-45"/>
    <use x="507.958984" xlink:href="#DejaVuSans-32"/>
    <use x="539.746094" xlink:href="#DejaVuSans-68"/>
    <use x="616.748047" xlink:href="#DejaVuSans-111"/>
    <use x="677.929688" xlink:href="#DejaVuSans-110"/>
    <use x="741.308594" xlink:href="#DejaVuSans-110"/>
    <use x="804.6875" xlink:href="#DejaVuSans-233"/>
    <use x="866.210938" xlink:href="#DejaVuSans-101"/>
    <use x="927.734375" xlink:href="#DejaVuSans-115"/>
    <use x="979.833984" xlink:href="#DejaVuSans-32"/>
    <use x="1011.621094" xlink:href="#DejaVuSans-83"/>
    <use x="1075.097656" xlink:href="#DejaVuSans-97"/>
    <use x="1136.376953" xlink:href="#DejaVuSans-110"/>
    <use x="1199.755859" xlink:href="#DejaVuSans-116"/>
    <use x="1238.964844" xlink:href="#DejaVuSans-233"/>
    <use x="1300.488281" xlink:href="#DejaVuSans-32"/>
    <use x="1332.275391" xlink:href="#DejaVuSans-80"/>
    <use x="1390.828125" xlink:href="#DejaVuSans-117"/>
    <use x="1454.207031" xlink:href="#DejaVuSans-98"/>
    <use x="1517.683594" xlink:href="#DejaVuSans-108"/>
    <use x="1545.466797" xlink:href="#DejaVuSans-105"/>
    <use x="1573.25" xlink:href="#DejaVuSans-113"/>
    <use x="1636.726562" xlink:href="#DejaVuSans-117"/>
    <use x="1700.105469" xlink:href="#DejaVuSans-101"/>
    <use x="1761.628906" xlink:href="#DejaVuSans-32"/>
    <use x="1793.416016" xlink:href="#DejaVuSans-70"/>
    <use x="1843.685547" xlink:href="#DejaVuSans-114"/>
    <use x="1884.798828" xlink:href="#DejaVuSans-97"/>
    <use x="1946.078125" xlink:href="#DejaVuSans-110"/>
    <use x="2009.457031" xlink:href="#DejaVuSans-99"/>
    <use x="2064.4375" xlink:href="#DejaVuSans-101"/>
    <use x="2125.960938" xlink:href="#DejaVuSans-32"/>
    <use x="2157.748047" xlink:href="#DejaVuSans-40"/>
    <use x="2196.761719" xlink:href="#DejaVuSans-49"/>
    <use x="2260.384766" xlink:href="#DejaVuSans-56"/>
    <use x="2324.007812" xlink:href="#DejaVuSans-47"/>
    <use x="2357.699219" xlink:href="#DejaVuSans-48"/>
    <use x="2421.322266" xlink:href="#DejaVuSans-52"/>
    <use x="2484.945312" xlink:href="#DejaVuSans-47"/>
    <use x="2518.636719" xlink:href="#DejaVuSans-50"/>
    <use x="2582.259766" xlink:href="#DejaVuSans-48"/>
    <use x="2645.882812" xlink:href="#DejaVuSans-50"/>
    <use x="2709.505859" xlink:href="#DejaVuSans-49"/>
    <use x="2773.128906" xlink:href="#DejaVuSans-41"/>
   </g>
  </g>
 </g>
 <defs>
  <clipPath id="p775f3eb046">
   <rect height="94.988914" width="184.855814" x="34.56" y="16.128"/>
  </clipPath>
  <clipPath id="p04ea4f5d54">
   <rect height="94.988914" width="184.855814" x="237.901395" y="16.128"/>
  </clipPath>
  <clipPath id="p1bd3a5fd95">
   <rect height="94.988914" width="184.855814" x="34.56" y="115.866359"/>
  </clipPath>
  <clipPath id="p7c224b93bd">
   <rect height="94.988914" width="184.855814" x="237.901395" y="115.866359"/>
  </clipPath>
  <clipPath id="p8ee9456e9f">
   <rect height="94.988914" width="184.855814" x="441.242791" y="115.866359"/>
  </clipPath>
  <clipPath id="p2096239a02">
   <rect height="171.818182" width="378.514286" x="34.56" y="247.509818"/>
  </clipPath>
  <clipPath id="p90030b8c71">
   <rect height="171.818182" width="378.514286" x="450.925714" y="247.509818"/>
  </clipPath>
 </defs>
</svg>
